<?xml version="1.0" encoding="UTF-8" standalone="no"?><svg xmlns="http://www.w3.org/2000/svg" xmlns:xlink="http://www.w3.org/1999/xlink" clip-rule="evenodd" stroke-miterlimit="4.00" viewBox="0 0 781 48"><desc>SVG generated by Keynote</desc><defs></defs><g transform="matrix(1.00, 0.00, -0.00, -1.00, 0.0, 48.0)"><text xml:space="preserve" font-family="Roboto" font-weight="300" font-size="60.0" fill="#000000" transform="matrix(1.00, 0.00, -0.00, -1.00, 2.0, 14.0)"> </text><text xml:space="preserve" font-family="Roboto" font-weight="300" font-size="60.0" fill="#000000" transform="matrix(1.00, 0.00, -0.00, -1.00, 16.6, 14.0)">д</text><text xml:space="preserve" font-family="Roboto" font-weight="300" font-size="60.0" fill="#000000" transform="matrix(1.00, 0.00, -0.00, -1.00, 51.0, 14.0)">а</text><text xml:space="preserve" font-family="Roboto" font-weight="300" font-size="60.0" fill="#000000" transform="matrix(1.00, 0.00, -0.00, -1.00, 83.1, 14.0)">н</text><text xml:space="preserve" font-family="Roboto" font-weight="300" font-size="60.0" fill="#000000" transform="matrix(1.00, 0.00, -0.00, -1.00, 116.8, 14.0)">н</text><text xml:space="preserve" font-family="Roboto" font-weight="300" font-size="60.0" fill="#000000" transform="matrix(1.00, 0.00, -0.00, -1.00, 150.6, 14.0)">ы</text><text xml:space="preserve" font-family="Roboto" font-weight="300" font-size="60.0" fill="#000000" transform="matrix(1.00, 0.00, -0.00, -1.00, 195.6, 14.0)">х</text><text xml:space="preserve" font-family="Roboto" font-weight="300" font-size="60.0" fill="#000000" transform="matrix(1.00, 0.00, -0.00, -1.00, 224.8, 14.0)"> </text><text xml:space="preserve" font-family="Roboto" font-weight="300" font-size="60.0" fill="#000000" transform="matrix(1.00, 0.00, -0.00, -1.00, 239.4, 14.0)">а</text><text xml:space="preserve" font-family="Roboto" font-weight="300" font-size="60.0" fill="#000000" transform="matrix(1.00, 0.00, -0.00, -1.00, 271.5, 14.0)">к</text><text xml:space="preserve" font-family="Roboto" font-weight="300" font-size="60.0" fill="#000000" transform="matrix(1.00, 0.00, -0.00, -1.00, 302.6, 14.0)">т</text><text xml:space="preserve" font-family="Roboto" font-weight="300" font-size="60.0" fill="#000000" transform="matrix(1.00, 0.00, -0.00, -1.00, 329.9, 14.0)">о</text><text xml:space="preserve" font-family="Roboto" font-weight="300" font-size="60.0" fill="#000000" transform="matrix(1.00, 0.00, -0.00, -1.00, 363.5, 14.0)">р</text><text xml:space="preserve" font-family="Roboto" font-weight="300" font-size="60.0" fill="#000000" transform="matrix(1.00, 0.00, -0.00, -1.00, 396.8, 14.0)">а</text><text xml:space="preserve" font-family="Roboto" font-weight="300" font-size="60.0" fill="#000000" transform="matrix(1.00, 0.00, -0.00, -1.00, 428.9, 14.0)"> </text><text xml:space="preserve" font-family="Roboto" font-weight="300" font-size="60.0" fill="#000000" transform="matrix(1.00, 0.00, -0.00, -1.00, 443.5, 14.0)">–</text><text xml:space="preserve" font-family="Roboto" font-weight="300" font-size="60.0" fill="#000000" transform="matrix(1.00, 0.00, -0.00, -1.00, 482.6, 14.0)"> </text><text xml:space="preserve" font-family="Roboto" font-weight="300" font-size="60.0" fill="#000000" transform="matrix(1.00, 0.00, -0.00, -1.00, 497.2, 14.0)">с</text><text xml:space="preserve" font-family="Roboto" font-weight="300" font-size="60.0" fill="#000000" transform="matrix(1.00, 0.00, -0.00, -1.00, 528.1, 14.0)">е</text><text xml:space="preserve" font-family="Roboto" font-weight="300" font-size="60.0" fill="#000000" transform="matrix(1.00, 0.00, -0.00, -1.00, 559.1, 14.0)">р</text><text xml:space="preserve" font-family="Roboto" font-weight="300" font-size="60.0" fill="#000000" transform="matrix(1.00, 0.00, -0.00, -1.00, 592.4, 14.0)">ь</text><text xml:space="preserve" font-family="Roboto" font-weight="300" font-size="60.0" fill="#000000" transform="matrix(1.00, 0.00, -0.00, -1.00, 624.5, 14.0)">е</text><text xml:space="preserve" font-family="Roboto" font-weight="300" font-size="60.0" fill="#000000" transform="matrix(1.00, 0.00, -0.00, -1.00, 655.5, 14.0)">з</text><text xml:space="preserve" font-family="Roboto" font-weight="300" font-size="60.0" fill="#000000" transform="matrix(1.00, 0.00, -0.00, -1.00, 685.8, 14.0)">н</text><text xml:space="preserve" font-family="Roboto" font-weight="300" font-size="60.0" fill="#000000" transform="matrix(1.00, 0.00, -0.00, -1.00, 719.6, 14.0)">а</text><text xml:space="preserve" font-family="Roboto" font-weight="300" font-size="60.0" fill="#000000" transform="matrix(1.00, 0.00, -0.00, -1.00, 751.7, 14.0)">я</text></g></svg>