<?xml version="1.0" encoding="UTF-8" standalone="no"?><svg xmlns="http://www.w3.org/2000/svg" xmlns:xlink="http://www.w3.org/1999/xlink" clip-rule="evenodd" stroke-miterlimit="4.00" viewBox="0 0 498 59"><desc>SVG generated by Keynote</desc><defs></defs><g transform="matrix(1.00, 0.00, -0.00, -1.00, 0.0, 59.0)"><text xml:space="preserve" font-family="Roboto" font-weight="300" font-size="60.0" fill="#000000" transform="matrix(1.00, 0.00, -0.00, -1.00, -3.0, 14.0)">М</text><text xml:space="preserve" font-family="Roboto" font-weight="300" font-size="60.0" fill="#000000" transform="matrix(1.00, 0.00, -0.00, -1.00, 48.9, 14.0)">и</text><text xml:space="preserve" font-family="Roboto" font-weight="300" font-size="60.0" fill="#000000" transform="matrix(1.00, 0.00, -0.00, -1.00, 82.6, 14.0)">г</text><text xml:space="preserve" font-family="Roboto" font-weight="300" font-size="60.0" fill="#000000" transform="matrix(1.00, 0.00, -0.00, -1.00, 108.0, 14.0)">р</text><text xml:space="preserve" font-family="Roboto" font-weight="300" font-size="60.0" fill="#000000" transform="matrix(1.00, 0.00, -0.00, -1.00, 141.2, 14.0)">а</text><text xml:space="preserve" font-family="Roboto" font-weight="300" font-size="60.0" fill="#000000" transform="matrix(1.00, 0.00, -0.00, -1.00, 173.3, 14.0)">ц</text><text xml:space="preserve" font-family="Roboto" font-weight="300" font-size="60.0" fill="#000000" transform="matrix(1.00, 0.00, -0.00, -1.00, 207.5, 14.0)">и</text><text xml:space="preserve" font-family="Roboto" font-weight="300" font-size="60.0" fill="#000000" transform="matrix(1.00, 0.00, -0.00, -1.00, 241.2, 14.0)">я</text><text xml:space="preserve" font-family="Roboto" font-weight="300" font-size="60.0" fill="#000000" transform="matrix(1.00, 0.00, -0.00, -1.00, 273.8, 14.0)"> </text><text xml:space="preserve" font-family="Roboto" font-weight="300" font-size="60.0" fill="#000000" transform="matrix(1.00, 0.00, -0.00, -1.00, 288.4, 14.0)">д</text><text xml:space="preserve" font-family="Roboto" font-weight="300" font-size="60.0" fill="#000000" transform="matrix(1.00, 0.00, -0.00, -1.00, 322.8, 14.0)">а</text><text xml:space="preserve" font-family="Roboto" font-weight="300" font-size="60.0" fill="#000000" transform="matrix(1.00, 0.00, -0.00, -1.00, 354.9, 14.0)">н</text><text xml:space="preserve" font-family="Roboto" font-weight="300" font-size="60.0" fill="#000000" transform="matrix(1.00, 0.00, -0.00, -1.00, 388.7, 14.0)">н</text><text xml:space="preserve" font-family="Roboto" font-weight="300" font-size="60.0" fill="#000000" transform="matrix(1.00, 0.00, -0.00, -1.00, 422.4, 14.0)">ы</text><text xml:space="preserve" font-family="Roboto" font-weight="300" font-size="60.0" fill="#000000" transform="matrix(1.00, 0.00, -0.00, -1.00, 467.4, 14.0)">х</text></g></svg>