<?xml version="1.0" encoding="UTF-8" standalone="no"?><svg xmlns="http://www.w3.org/2000/svg" xmlns:xlink="http://www.w3.org/1999/xlink" clip-rule="evenodd" stroke-miterlimit="4.00" viewBox="0 0 1920 1080"><desc>SVG generated by Keynote</desc><defs></defs><g transform="matrix(1.00, 0.00, -0.00, -1.00, 0.0, 1080.0)"><path d="M 0.0 1080.0 L 1920.0 1080.0 L 1920.0 0.0 L 0.0 0.0 Z M 0.0 1080.0 " fill="#FECF60"></path><path d="M 1131.6 646.3 L 1758.3 646.3 L 1758.3 490.6 L 1131.6 490.6 Z M 1131.6 646.3 " fill="#FEDF73"></path><g><clipPath id="clip-926"><path d="M 114.0 73.0 L 726.0 73.0 L 726.0 745.0 L 114.0 745.0 Z M 114.0 73.0 "></path></clipPath><g clip-path="url(#clip-926)"><path d="M 0.0 0.0 L 30.7 0.0 L 30.7 5.9 L 0.0 5.9 L 0.0 0.0 Z M 0.0 0.0 " fill="none" stroke="#575E61" stroke-width="3.00" stroke-miterlimit="0.00" transform="matrix(2.27, 0.00, 0.00, -2.27, 493.6, 257.2)"></path><path d="M 0.0 0.0 L 30.7 0.0 L 30.7 5.9 L 0.0 5.9 L 0.0 0.0 Z M 0.0 0.0 " fill="none" stroke="#575E61" stroke-width="3.00" stroke-miterlimit="0.00" transform="matrix(2.27, 0.00, 0.00, -2.27, 512.0, 89.4)"></path><path d="M 36.5 30.6 L 36.5 0.0 L 0.0 0.0 L 0.0 36.5 L 11.0 36.5 " fill="none" stroke="#575E61" stroke-width="3.00" stroke-miterlimit="0.00" transform="matrix(2.27, 0.00, 0.00, -2.27, 486.9, 158.9)"></path><path d="M 0.0 0.0 L 30.7 0.0 L 30.7 5.9 L 0.0 5.9 L 0.0 0.0 Z M 0.0 0.0 " fill="none" stroke="#575E61" stroke-width="3.00" stroke-miterlimit="0.00" transform="matrix(2.27, 0.00, 0.00, -2.27, 493.5, 172.2)"></path><path d="M 0.0 31.5 L 0.0 0.0 " fill="none" stroke="#575E61" stroke-width="3.00" stroke-miterlimit="0.00" transform="matrix(2.27, 0.00, 0.00, -2.27, 557.2, 243.9)"></path><path d="M 0.0 31.5 L 0.0 0.0 " fill="none" stroke="#575E61" stroke-width="3.00" stroke-miterlimit="0.00" transform="matrix(2.27, 0.00, 0.00, -2.27, 499.6, 243.9)"></path><path d="M 25.5 0.0 L 0.0 0.0 " fill="none" stroke="#575E61" stroke-width="1.00" stroke-miterlimit="0.00" transform="matrix(2.27, 0.00, 0.00, -2.27, 499.4, 186.6)"></path><path d="M 25.5 0.0 L 0.0 0.0 " fill="none" stroke="#575E61" stroke-width="1.00" stroke-miterlimit="0.00" transform="matrix(2.27, 0.00, 0.00, -2.27, 499.4, 201.0)"></path><path d="M 25.4 0.0 L 0.0 0.0 " fill="none" stroke="#575E61" stroke-width="3.00" stroke-miterlimit="0.00" transform="matrix(2.27, 0.00, 0.00, -2.27, 499.6, 215.4)"></path><path d="M 25.5 0.0 L 0.0 0.0 " fill="none" stroke="#575E61" stroke-width="1.00" stroke-miterlimit="0.00" transform="matrix(2.27, 0.00, 0.00, -2.27, 499.4, 229.8)"></path><path d="M 5.2 5.2 L 0.0 0.0 " fill="none" stroke="#575E61" stroke-width="3.00" stroke-miterlimit="0.00" transform="matrix(2.27, 0.00, 0.00, -2.27, 569.7, 101.3)"></path><path d="M 0.0 0.0 L 30.7 0.0 L 30.7 5.9 L 0.0 5.9 L 0.0 0.0 Z M 0.0 0.0 " fill="none" stroke="#575E61" stroke-width="3.00" stroke-miterlimit="0.00" transform="matrix(2.27, 0.00, 0.00, -2.27, 326.4, 257.2)"></path><path d="M 0.0 0.0 L 30.7 0.0 L 30.7 5.9 L 0.0 5.9 L 0.0 0.0 Z M 0.0 0.0 " fill="none" stroke="#575E61" stroke-width="3.00" stroke-miterlimit="0.00" transform="matrix(2.27, 0.00, 0.00, -2.27, 308.1, 89.4)"></path><path d="M 0.0 30.6 L 0.0 0.0 L 36.5 0.0 L 36.5 36.5 L 25.5 36.5 " fill="none" stroke="#575E61" stroke-width="3.00" stroke-miterlimit="0.00" transform="matrix(2.27, 0.00, 0.00, -2.27, 320.0, 158.9)"></path><path d="M 0.0 0.0 L 30.7 0.0 L 30.7 5.9 L 0.0 5.9 L 0.0 0.0 Z M 0.0 0.0 " fill="none" stroke="#575E61" stroke-width="3.00" stroke-miterlimit="0.00" transform="matrix(2.27, 0.00, 0.00, -2.27, 326.5, 172.2)"></path><path d="M 0.0 31.5 L 0.0 0.0 " fill="none" stroke="#575E61" stroke-width="3.00" stroke-miterlimit="0.00" transform="matrix(2.27, 0.00, 0.00, -2.27, 332.4, 243.9)"></path><path d="M 0.0 31.5 L 0.0 0.0 " fill="none" stroke="#575E61" stroke-width="3.00" stroke-miterlimit="0.00" transform="matrix(2.27, 0.00, 0.00, -2.27, 390.0, 243.9)"></path><path d="M 0.0 0.0 L 25.5 0.0 " fill="none" stroke="#575E61" stroke-width="1.00" stroke-miterlimit="0.00" transform="matrix(2.27, 0.00, 0.00, -2.27, 332.4, 186.6)"></path><path d="M 0.0 0.0 L 25.5 0.0 " fill="none" stroke="#575E61" stroke-width="1.00" stroke-miterlimit="0.00" transform="matrix(2.27, 0.00, 0.00, -2.27, 332.4, 201.0)"></path><path d="M 0.0 0.0 L 25.4 0.0 " fill="none" stroke="#575E61" stroke-width="3.00" stroke-miterlimit="0.00" transform="matrix(2.27, 0.00, 0.00, -2.27, 332.4, 215.4)"></path><path d="M 0.0 0.0 L 25.5 0.0 " fill="none" stroke="#575E61" stroke-width="1.00" stroke-miterlimit="0.00" transform="matrix(2.27, 0.00, 0.00, -2.27, 332.4, 229.8)"></path><path d="M 0.0 5.2 L 5.2 0.0 " fill="none" stroke="#575E61" stroke-width="3.00" stroke-miterlimit="0.00" transform="matrix(2.27, 0.00, 0.00, -2.27, 308.1, 101.3)"></path><path d="M 120.6 0.0 L 120.6 70.8 L 0.0 70.8 L 0.0 57.9 " fill="none" stroke="#575E61" stroke-width="3.00" stroke-miterlimit="0.00" transform="matrix(2.27, 0.00, 0.00, -2.27, 308.1, 417.9)"></path><path d="M 1.0 63.7 L 1.0 0.0 " fill="none" stroke="#575E61" stroke-width="3.00" stroke-miterlimit="0.00" transform="matrix(2.27, 0.00, 0.00, -2.27, 305.8, 417.9)"></path><path d="M 35.7 71.4 C 55.4 71.4 71.4 55.4 71.4 35.7 C 71.4 16.0 55.4 0.0 35.7 0.0 C 16.0 0.0 0.0 16.0 0.0 35.7 C 0.0 55.4 16.0 71.4 35.7 71.4 Z M 35.7 71.4 " fill="none" stroke="#575E61" stroke-width="3.00" stroke-miterlimit="0.00" transform="matrix(2.27, 0.00, 0.00, -2.27, 454.0, 741.6)"></path><path d="M 29.9 59.7 C 13.4 59.7 0.0 46.3 0.0 29.9 C 0.0 13.4 13.4 0.0 29.9 0.0 C 46.3 0.0 59.7 13.4 59.7 29.9 C 59.7 46.3 46.3 59.7 29.9 59.7 L 29.9 59.7 Z M 29.9 59.7 " fill="none" stroke="#575E61" stroke-width="2.00" stroke-miterlimit="0.00" transform="matrix(2.27, 0.00, 0.00, -2.27, 467.2, 728.4)"></path><path d="M 24.6 49.3 C 11.1 49.3 0.0 38.2 0.0 24.6 C 0.0 11.1 11.1 0.0 24.6 0.0 C 38.2 0.0 49.3 11.1 49.3 24.6 C 49.3 38.2 38.2 49.3 24.6 49.3 L 24.6 49.3 Z M 24.6 49.3 " fill="none" stroke="#575E61" stroke-width="6.00" stroke-miterlimit="0.00" transform="matrix(2.27, 0.00, 0.00, -2.27, 479.1, 716.5)"></path><path d="M 20.6 41.3 C 9.3 41.3 0.0 32.0 0.0 20.6 C 0.0 9.3 9.3 0.0 20.6 0.0 C 32.0 0.0 41.3 9.3 41.3 20.6 C 41.3 32.0 32.0 41.3 20.6 41.3 L 20.6 41.3 Z M 20.6 41.3 " fill="none" stroke="#575E61" stroke-width="1.00" stroke-miterlimit="0.00" stroke-dasharray="2.0, 2.0" transform="matrix(2.27, 0.00, 0.00, -2.27, 488.2, 707.4)"></path><path d="M 25.0 50.0 C 38.8 50.0 50.0 38.8 50.0 25.0 C 50.0 11.2 38.8 0.0 25.0 0.0 C 11.2 0.0 0.0 11.2 0.0 25.0 C 0.0 38.8 11.2 50.0 25.0 50.0 Z M 25.0 50.0 " fill="none" stroke="#575E61" stroke-width="3.00" stroke-miterlimit="0.00" transform="matrix(2.27, 0.00, 0.00, -2.27, 273.8, 693.0)"></path><path d="M 19.2 38.3 C 8.6 38.3 0.0 29.7 0.0 19.2 C 0.0 8.6 8.6 0.0 19.2 0.0 C 29.7 0.0 38.3 8.6 38.3 19.2 C 38.3 29.7 29.7 38.3 19.2 38.3 L 19.2 38.3 Z M 19.2 38.3 " fill="none" stroke="#575E61" stroke-width="2.00" stroke-miterlimit="0.00" transform="matrix(2.27, 0.00, 0.00, -2.27, 287.0, 679.8)"></path><path d="M 13.9 27.9 C 6.2 27.9 0.0 21.6 0.0 13.9 C 0.0 6.2 6.2 0.0 13.9 0.0 C 21.6 0.0 27.9 6.2 27.9 13.9 C 27.9 21.6 21.6 27.9 13.9 27.9 L 13.9 27.9 Z M 13.9 27.9 " fill="none" stroke="#575E61" stroke-width="6.00" stroke-miterlimit="0.00" transform="matrix(2.27, 0.00, 0.00, -2.27, 298.8, 667.9)"></path><path d="M 9.9 19.9 C 4.5 19.9 0.0 15.4 0.0 9.9 C 0.0 4.5 4.5 0.0 9.9 0.0 C 15.4 0.0 19.9 4.5 19.9 9.9 C 19.9 15.4 15.4 19.9 9.9 19.9 L 9.9 19.9 Z M 9.9 19.9 " fill="none" stroke="#575E61" stroke-width="1.00" stroke-miterlimit="0.00" stroke-dasharray="1.9, 1.9" transform="matrix(2.27, 0.00, 0.00, -2.27, 307.9, 658.8)"></path><path d="M 150.9 0.0 L 150.9 51.2 L 0.0 51.2 L 0.0 10.7 " fill="none" stroke="#575E61" stroke-width="3.00" stroke-miterlimit="0.00" transform="matrix(2.27, 0.00, 0.00, -2.27, 273.8, 660.6)"></path><path d="M 35.7 0.0 L 20.6 18.6 L 0.0 18.6 " fill="none" stroke="#575E61" stroke-width="3.00" stroke-miterlimit="0.00" transform="matrix(2.27, 0.00, 0.00, -2.27, 534.9, 544.3)"></path><path d="M 50.0 18.6 L 15.1 18.6 L 0.0 0.0 " fill="none" stroke="#575E61" stroke-width="3.00" stroke-miterlimit="0.00" transform="matrix(2.27, 0.00, 0.00, -2.27, 273.8, 544.3)"></path><path d="M 0.0 5.4 L 38.9 0.0 " fill="none" stroke="#575E61" stroke-width="3.00" stroke-miterlimit="0.00" transform="matrix(2.27, 0.00, 0.00, -2.27, 370.7, 688.3)"></path><path d="M 9.1 0.0 L 0.0 0.0 L 0.0 30.4 L 9.1 30.4 " fill="none" stroke="#575E61" stroke-width="3.00" stroke-miterlimit="0.00" transform="matrix(2.27, 0.00, 0.00, -2.27, 253.1, 636.3)"></path><path d="M 0.0 30.4 L 9.1 30.4 L 9.1 0.0 L 0.0 0.0 " fill="none" stroke="#575E61" stroke-width="3.00" stroke-miterlimit="0.00" transform="matrix(2.27, 0.00, 0.00, -2.27, 615.8, 636.3)"></path><path d="M 0.0 0.0 L 27.5 0.0 " fill="none" stroke="#575E61" stroke-width="3.00" stroke-miterlimit="0.00" transform="matrix(2.27, 0.00, 0.00, -2.27, 636.5, 601.7)"></path><path d="M 5.2 10.5 C 8.1 10.5 10.5 8.1 10.5 5.2 C 10.5 2.3 8.1 0.0 5.2 0.0 C 2.3 0.0 0.0 2.3 0.0 5.2 C 0.0 8.1 2.3 10.5 5.2 10.5 Z M 5.2 10.5 " fill="none" stroke="#575E61" stroke-width="3.00" stroke-miterlimit="0.00" transform="matrix(2.27, 0.00, 0.00, -2.27, 698.9, 613.6)"></path><path d="M 27.5 0.0 L 0.0 0.0 " fill="none" stroke="#575E61" stroke-width="3.00" stroke-miterlimit="0.00" transform="matrix(2.27, 0.00, 0.00, -2.27, 190.7, 601.7)"></path><path d="M 5.2 10.5 C 8.1 10.5 10.5 8.1 10.5 5.2 C 10.5 2.3 8.1 0.0 5.2 0.0 C 2.3 0.0 0.0 2.3 0.0 5.2 C 0.0 8.1 2.3 10.5 5.2 10.5 Z M 5.2 10.5 " fill="none" stroke="#575E61" stroke-width="3.00" stroke-miterlimit="0.00" transform="matrix(2.27, 0.00, 0.00, -2.27, 166.9, 613.6)"></path><path d="M 11.7 0.0 L 0.0 0.0 " fill="none" stroke="#575E61" stroke-width="3.00" stroke-miterlimit="0.00" transform="matrix(2.27, 0.00, 0.00, -2.27, 492.9, 502.0)"></path><path d="M 5.8 0.0 L 0.0 0.0 " fill="none" stroke="#575E61" stroke-width="3.00" stroke-miterlimit="0.00" transform="matrix(2.27, 0.00, 0.00, -2.27, 463.2, 502.0)"></path><path d="M 0.0 3.2 L 34.5 0.0 " fill="none" stroke="#575E61" stroke-width="1.00" stroke-miterlimit="0.00" transform="matrix(2.27, 0.00, 0.00, -2.27, 377.2, 675.4)"></path><path d="M 0.0 0.0 L 145.5 6.7 " fill="none" stroke="#575E61" stroke-width="1.00" stroke-miterlimit="0.00" transform="matrix(2.27, 0.00, 0.00, -2.27, 273.8, 544.3)"></path><path d="M 0.0 0.0 L 164.8 0.0 " fill="none" stroke="#575E61" stroke-width="3.00" stroke-miterlimit="0.00" transform="matrix(2.27, 0.00, 0.00, -2.27, 258.0, 417.9)"></path><path d="M 0.0 37.0 C 6.4 24.4 13.8 12.0 22.1 0.0 " fill="none" stroke="#575E61" stroke-width="3.00" stroke-miterlimit="0.00" transform="matrix(2.27, 0.00, 0.00, -2.27, 258.0, 502.0)"></path><path d="M 22.1 37.0 C 15.7 24.4 8.3 12.0 0.0 0.0 " fill="none" stroke="#575E61" stroke-width="3.00" stroke-miterlimit="0.00" transform="matrix(2.27, 0.00, 0.00, -2.27, 581.5, 502.0)"></path><path d="M 0.0 26.6 C 2.9 17.6 6.3 8.8 10.0 0.0 " fill="none" stroke="#575E61" stroke-width="3.00" stroke-miterlimit="0.00" transform="matrix(-1.57, 1.63, -1.63, -1.58, 274.0, 410.5)"></path><path d="M 0.0 0.0 L 21.9 8.0 " fill="none" stroke="#575E61" stroke-width="1.00" stroke-miterlimit="0.00" transform="matrix(-1.57, 1.63, -1.63, -1.58, 303.3, 398.0)"></path><path d="M 0.0 0.0 L 22.3 7.6 " fill="none" stroke="#575E61" stroke-width="1.00" stroke-miterlimit="0.00" transform="matrix(-1.57, 1.63, -1.63, -1.58, 297.2, 383.1)"></path><path d="M 0.0 0.0 L 22.6 7.3 " fill="none" stroke="#575E61" stroke-width="1.00" stroke-miterlimit="0.00" transform="matrix(-1.57, 1.63, -1.63, -1.58, 290.8, 368.3)"></path><path d="M 0.0 0.0 L 22.9 7.0 " fill="none" stroke="#575E61" stroke-width="3.00" stroke-miterlimit="0.00" transform="matrix(-1.57, 1.63, -1.63, -1.58, 284.0, 353.7)"></path><path d="M 0.0 0.0 L 23.2 6.6 " fill="none" stroke="#575E61" stroke-width="1.00" stroke-miterlimit="0.00" transform="matrix(-1.57, 1.63, -1.63, -1.58, 276.9, 339.3)"></path><path d="M 0.0 0.0 L 13.3 3.6 " fill="none" stroke="#575E61" stroke-width="1.00" stroke-miterlimit="0.00" transform="matrix(-1.57, 1.63, -1.63, -1.58, 269.5, 325.0)"></path><path d="M 61.2 50.7 L 15.5 67.6 C 6.8 70.8 -1.9 62.9 0.4 53.9 C 5.1 35.6 11.5 17.5 19.6 0.0 " fill="none" stroke="#575E61" stroke-width="3.00" stroke-miterlimit="0.00" transform="matrix(-1.57, 1.63, -1.63, -1.58, 336.6, 372.1)"></path><path d="M 41.6 0.0 L 0.0 15.4 " fill="none" stroke="#575E61" stroke-width="3.00" stroke-miterlimit="0.00" transform="matrix(-1.57, 1.63, -1.63, -1.58, 275.7, 347.2)"></path><path d="M 8.8 23.9 L 0.0 0.0 " fill="none" stroke="#575E61" stroke-width="1.00" stroke-miterlimit="0.00" transform="matrix(-1.57, 1.63, -1.63, -1.58, 216.2, 402.1)"></path><path d="M 8.8 23.9 L 0.0 0.0 " fill="none" stroke="#575E61" stroke-width="1.00" stroke-miterlimit="0.00" transform="matrix(-1.57, 1.63, -1.63, -1.58, 222.0, 388.9)"></path><path d="M 8.8 23.9 L 0.0 0.0 " fill="none" stroke="#575E61" stroke-width="1.00" stroke-miterlimit="0.00" transform="matrix(-1.57, 1.63, -1.63, -1.58, 227.7, 375.7)"></path><path d="M 8.8 23.9 L 0.0 0.0 " fill="none" stroke="#575E61" stroke-width="1.00" stroke-miterlimit="0.00" transform="matrix(-1.57, 1.63, -1.63, -1.58, 233.5, 362.6)"></path><path d="M 8.8 23.9 L 0.0 0.0 " fill="none" stroke="#575E61" stroke-width="1.00" stroke-miterlimit="0.00" transform="matrix(-1.57, 1.63, -1.63, -1.58, 239.3, 349.4)"></path><path d="M 8.8 23.9 L 0.0 0.0 " fill="none" stroke="#575E61" stroke-width="1.00" stroke-miterlimit="0.00" transform="matrix(-1.57, 1.63, -1.63, -1.58, 245.1, 336.2)"></path><path d="M 8.8 23.9 L 0.0 0.0 " fill="none" stroke="#575E61" stroke-width="1.00" stroke-miterlimit="0.00" transform="matrix(-1.57, 1.63, -1.63, -1.58, 250.9, 323.1)"></path><path d="M 0.0 0.0 C 2.4 0.6 4.7 1.6 6.8 2.9 " fill="none" stroke="#575E61" stroke-width="1.00" stroke-miterlimit="0.00" transform="matrix(-1.57, 1.63, -1.63, -1.58, 266.4, 316.2)"></path><path d="M 0.0 0.0 C 5.8 5.3 9.3 12.8 9.7 20.6 " fill="none" stroke="#575E61" stroke-width="1.00" stroke-miterlimit="0.00" transform="matrix(-1.57, 1.63, -1.63, -1.58, 256.1, 301.2)"></path><path d="M 14.0 31.9 C 10.0 21.1 5.3 10.5 0.0 0.0 " fill="none" stroke="#575E61" stroke-width="3.00" stroke-miterlimit="0.00" transform="matrix(2.27, 0.00, 0.00, -2.27, 631.6, 417.9)"></path><path d="M 13.2 32.2 C 9.5 21.3 5.0 10.6 0.0 0.0 " fill="none" stroke="#575E61" stroke-width="3.00" stroke-miterlimit="0.00" transform="matrix(2.27, 0.00, 0.00, -2.27, 581.5, 402.7)"></path><path d="M 21.6 0.0 L 0.0 8.3 " fill="none" stroke="#575E61" stroke-width="3.00" stroke-miterlimit="0.00" transform="matrix(2.27, 0.00, 0.00, -2.27, 589.3, 404.6)"></path><path d="M 21.9 0.0 L 0.0 8.0 " fill="none" stroke="#575E61" stroke-width="1.00" stroke-miterlimit="0.00" transform="matrix(2.27, 0.00, 0.00, -2.27, 595.3, 390.1)"></path><path d="M 22.3 0.0 L 0.0 7.6 " fill="none" stroke="#575E61" stroke-width="1.00" stroke-miterlimit="0.00" transform="matrix(2.27, 0.00, 0.00, -2.27, 601.0, 375.3)"></path><path d="M 22.6 0.0 L 0.0 7.3 " fill="none" stroke="#575E61" stroke-width="1.00" stroke-miterlimit="0.00" transform="matrix(2.27, 0.00, 0.00, -2.27, 606.4, 360.4)"></path><path d="M 22.9 0.0 L 0.0 7.0 " fill="none" stroke="#575E61" stroke-width="3.00" stroke-miterlimit="0.00" transform="matrix(2.27, 0.00, 0.00, -2.27, 611.5, 345.4)"></path><path d="M 38.2 10.8 L 45.6 11.8 C 47.8 12.1 49.9 10.6 50.2 8.4 C 50.5 6.2 48.9 4.1 46.7 3.8 L 35.5 2.2 L 34.8 0.0 L 0.0 11.0 L 6.4 31.3 L 11.5 47.4 C 12.2 49.6 14.5 50.7 16.6 50.1 C 18.7 49.4 19.9 47.1 19.2 45.0 L 14.1 28.9 L 20.0 27.0 L 26.0 46.0 C 26.6 48.1 28.9 49.3 31.1 48.6 C 33.2 48.0 34.4 45.7 33.7 43.6 L 27.7 24.6 L 33.5 22.8 L 38.9 39.8 C 39.6 41.9 41.9 43.1 44.0 42.5 C 46.1 41.8 47.3 39.5 46.6 37.4 L 41.2 20.3 L 38.2 10.8 L 38.2 10.8 Z M 38.2 10.8 " fill="none" stroke="#575E61" stroke-width="3.00" stroke-miterlimit="0.00" transform="matrix(2.27, 0.00, 0.00, -2.27, 603.9, 335.4)"></path><path d="M 0.0 0.0 L 30.7 0.0 L 30.7 5.9 L 0.0 5.9 L 0.0 0.0 Z M 0.0 0.0 " fill="none" stroke="#575E61" stroke-width="3.00" stroke-miterlimit="0.00" transform="matrix(2.16, 0.69, 0.68, -2.16, 606.4, 325.3)"></path><path d="M 17.4 0.0 L 0.0 5.5 " fill="none" stroke="#575E61" stroke-width="3.00" stroke-miterlimit="0.00" transform="matrix(2.27, 0.00, 0.00, -2.27, 651.1, 310.9)"></path><path d="M 52.8 0.0 C 56.2 4.8 58.2 10.6 58.2 16.9 C 58.2 33.0 45.2 46.0 29.1 46.0 C 13.0 46.0 0.0 33.0 0.0 16.9 C 0.0 10.6 2.0 4.8 5.4 0.0 " fill="none" stroke="#575E61" stroke-width="3.00" stroke-miterlimit="0.00" transform="matrix(2.27, 0.00, 0.00, -2.27, 381.4, 418.8)"></path><path d="M 0.0 9.0 L 6.7 12.2 C 8.7 13.2 11.2 12.3 12.1 10.3 L 12.1 10.3 C 13.1 8.3 12.2 5.9 10.2 4.9 L 0.0 0.0 " fill="none" stroke="#575E61" stroke-width="3.00" stroke-miterlimit="0.00" transform="matrix(-2.05, -0.96, -0.96, 2.06, 214.5, 432.1)"></path><path d="M 0.0 21.3 L 0.0 11.3 L 0.0 2.3 L 0.0 0.0 L 36.5 0.0 L 36.5 21.3 " fill="none" stroke="#575E61" stroke-width="3.00" stroke-miterlimit="0.00" transform="matrix(-2.05, -0.96, -0.96, 2.06, 214.6, 431.9)"></path><path d="M 0.0 0.0 L 30.7 0.0 L 30.7 5.9 L 0.0 5.9 L 0.0 0.0 Z M 0.0 0.0 " fill="none" stroke="#575E61" stroke-width="3.00" stroke-miterlimit="0.00" transform="matrix(-2.05, -0.96, -0.96, 2.06, 214.3, 417.1)"></path><path d="M 8.1 0.0 C 8.1 2.2 6.3 4.0 4.0 4.0 L 4.0 4.0 C 1.8 4.0 0.0 2.2 0.0 0.0 " fill="none" stroke="#575E61" stroke-width="3.00" stroke-miterlimit="0.00" transform="matrix(-2.05, -0.96, -0.96, 2.06, 135.9, 448.5)"></path><path d="M 8.1 11.0 L 8.1 4.0 C 8.1 1.8 6.3 0.0 4.0 0.0 L 4.0 0.0 C 1.8 0.0 0.0 1.8 0.0 4.0 L 0.0 11.0 " fill="none" stroke="#575E61" stroke-width="3.00" stroke-miterlimit="0.00" transform="matrix(-2.05, -0.96, -0.96, 2.06, 146.4, 425.9)"></path><path d="M 0.0 0.0 L 0.0 8.9 " fill="none" stroke="#575E61" stroke-width="3.00" stroke-miterlimit="0.00" transform="matrix(-2.05, -0.96, -0.96, 2.06, 201.8, 459.4)"></path><path d="M 0.0 9.7 L 0.0 0.0 " fill="none" stroke="#575E61" stroke-width="3.00" stroke-miterlimit="0.00" transform="matrix(-2.05, -0.96, -0.96, 2.06, 185.9, 450.2)"></path><path d="M 3.0 0.1 C 3.3 0.1 3.7 0.0 4.0 0.0 C 6.3 0.0 8.1 1.8 8.1 4.0 L 8.1 13.0 C 8.1 15.2 6.3 17.0 4.0 17.0 C 1.8 17.0 0.0 15.2 0.0 13.0 L 0.0 4.0 C 0.0 3.8 0.0 3.5 0.1 3.2 " fill="none" stroke="#575E61" stroke-width="3.00" stroke-miterlimit="0.00" transform="matrix(-2.05, -0.96, -0.96, 2.06, 186.2, 442.0)"></path><path d="M 8.1 0.0 C 8.1 2.2 6.3 4.0 4.0 4.0 L 4.0 4.0 C 1.8 4.0 0.0 2.2 0.0 0.0 " fill="none" stroke="#575E61" stroke-width="3.00" stroke-miterlimit="0.00" transform="matrix(-2.05, -0.96, -0.96, 2.06, 155.3, 457.6)"></path><path d="M 8.1 13.0 L 8.1 4.0 C 8.1 1.8 6.3 0.0 4.0 0.0 L 4.0 0.0 C 1.8 0.0 0.0 1.8 0.0 4.0 L 0.0 13.0 " fill="none" stroke="#575E61" stroke-width="3.00" stroke-miterlimit="0.00" transform="matrix(-2.05, -0.96, -0.96, 2.06, 167.8, 430.8)"></path><path d="M 2.8 14.0 L 19.6 7.8 C 21.7 7.1 22.8 4.7 22.0 2.6 C 21.2 0.6 18.9 -0.5 16.8 0.3 L 0.0 6.4 " fill="none" stroke="#575E61" stroke-width="3.00" stroke-miterlimit="0.00" transform="matrix(-0.16, 2.26, 2.26, 0.16, 165.6, 462.6)"></path><path d="M 43.6 0.0 C 47.7 4.5 50.2 10.4 50.2 16.9 C 50.2 30.7 38.9 42.0 25.1 42.0 C 11.3 42.0 0.0 30.7 0.0 16.9 C 0.0 10.4 2.5 4.5 6.5 0.0 " fill="none" stroke="#575E61" stroke-width="1.00" stroke-miterlimit="0.00" transform="matrix(2.27, 0.00, 0.00, -2.27, 390.5, 418.8)"></path></g></g><text xml:space="preserve" font-family="Roboto-Light" font-size="60.0" fill="#000000" transform="matrix(1.00, 0.00, -0.00, -1.00, 1172.0, 555.0)">Н</text><text xml:space="preserve" font-family="Roboto-Light" font-size="60.0" fill="#000000" transform="matrix(1.00, 0.00, -0.00, -1.00, 1214.4, 555.0)">о</text><text xml:space="preserve" font-family="Roboto-Light" font-size="60.0" fill="#000000" transform="matrix(1.00, 0.00, -0.00, -1.00, 1248.0, 555.0)"> </text><text xml:space="preserve" font-family="Roboto-Light" font-size="60.0" fill="#000000" transform="matrix(1.00, 0.00, -0.00, -1.00, 1262.6, 555.0)">в</text><text xml:space="preserve" font-family="Roboto-Light" font-size="60.0" fill="#000000" transform="matrix(1.00, 0.00, -0.00, -1.00, 1296.2, 555.0)">е</text><text xml:space="preserve" font-family="Roboto-Light" font-size="60.0" fill="#000000" transform="matrix(1.00, 0.00, -0.00, -1.00, 1327.2, 555.0)">д</text><text xml:space="preserve" font-family="Roboto-Light" font-size="60.0" fill="#000000" transform="matrix(1.00, 0.00, -0.00, -1.00, 1361.6, 555.0)">ь</text><text xml:space="preserve" font-family="Roboto-Light" font-size="60.0" fill="#000000" transform="matrix(1.00, 0.00, -0.00, -1.00, 1393.7, 555.0)">,</text><text xml:space="preserve" font-family="Roboto-Light" font-size="60.0" fill="#000000" transform="matrix(1.00, 0.00, -0.00, -1.00, 1405.2, 555.0)"> </text><text xml:space="preserve" font-family="Roboto-Light" font-size="60.0" fill="#000000" transform="matrix(1.00, 0.00, -0.00, -1.00, 1419.8, 555.0)">м</text><text xml:space="preserve" font-family="Roboto-Light" font-size="60.0" fill="#000000" transform="matrix(1.00, 0.00, -0.00, -1.00, 1463.7, 555.0)">о</text><text xml:space="preserve" font-family="Roboto-Light" font-size="60.0" fill="#000000" transform="matrix(1.00, 0.00, -0.00, -1.00, 1496.6, 555.0)">ж</text><text xml:space="preserve" font-family="Roboto-Light" font-size="60.0" fill="#000000" transform="matrix(1.00, 0.00, -0.00, -1.00, 1542.7, 555.0)">н</text><text xml:space="preserve" font-family="Roboto-Light" font-size="60.0" fill="#000000" transform="matrix(1.00, 0.00, -0.00, -1.00, 1576.4, 555.0)">о</text><text xml:space="preserve" font-family="Roboto-Light" font-size="60.0" fill="#000000" transform="matrix(1.00, 0.00, -0.00, -1.00, 1610.0, 555.0)"> </text><text xml:space="preserve" font-family="Roboto-Light" font-size="60.0" fill="#000000" transform="matrix(1.00, 0.00, -0.00, -1.00, 1624.6, 555.0)">ж</text><text xml:space="preserve" font-family="Roboto-Light" font-size="60.0" fill="#000000" transform="matrix(1.00, 0.00, -0.00, -1.00, 1670.0, 555.0)">е</text><text xml:space="preserve" font-family="Roboto-Light" font-size="60.0" fill="#000000" transform="matrix(1.00, 0.00, -0.00, -1.00, 1701.0, 555.0)">!</text><path d="M 546.6 951.3 L 1880.4 951.3 L 1880.4 781.7 L 546.6 781.7 Z M 546.6 951.3 " fill="#FEDF73"></path><text xml:space="preserve" font-family="Roboto-Light" font-size="60.0" fill="#000000" transform="matrix(1.00, 0.00, -0.00, -1.00, 628.0, 846.0)">Н</text><text xml:space="preserve" font-family="Roboto-Light" font-size="60.0" fill="#000000" transform="matrix(1.00, 0.00, -0.00, -1.00, 670.4, 846.0)">е</text><text xml:space="preserve" font-family="Roboto-Light" font-size="60.0" fill="#000000" transform="matrix(1.00, 0.00, -0.00, -1.00, 701.4, 846.0)"> </text><text xml:space="preserve" font-family="Roboto-Light" font-size="60.0" fill="#000000" transform="matrix(1.00, 0.00, -0.00, -1.00, 716.0, 846.0)">с</text><text xml:space="preserve" font-family="Roboto-Light" font-size="60.0" fill="#000000" transform="matrix(1.00, 0.00, -0.00, -1.00, 746.9, 846.0)">т</text><text xml:space="preserve" font-family="Roboto-Light" font-size="60.0" fill="#000000" transform="matrix(1.00, 0.00, -0.00, -1.00, 774.2, 846.0)">о</text><text xml:space="preserve" font-family="Roboto-Light" font-size="60.0" fill="#000000" transform="matrix(1.00, 0.00, -0.00, -1.00, 807.8, 846.0)">и</text><text xml:space="preserve" font-family="Roboto-Light" font-size="60.0" fill="#000000" transform="matrix(1.00, 0.00, -0.00, -1.00, 841.5, 846.0)">т</text><text xml:space="preserve" font-family="Roboto-Light" font-size="60.0" fill="#000000" transform="matrix(1.00, 0.00, -0.00, -1.00, 870.0, 846.0)"> </text><text xml:space="preserve" font-family="Roboto-Light" font-size="60.0" fill="#000000" transform="matrix(1.00, 0.00, -0.00, -1.00, 884.6, 846.0)">д</text><text xml:space="preserve" font-family="Roboto-Light" font-size="60.0" fill="#000000" transform="matrix(1.00, 0.00, -0.00, -1.00, 919.0, 846.0)">е</text><text xml:space="preserve" font-family="Roboto-Light" font-size="60.0" fill="#000000" transform="matrix(1.00, 0.00, -0.00, -1.00, 950.0, 846.0)">п</text><text xml:space="preserve" font-family="Roboto-Light" font-size="60.0" fill="#000000" transform="matrix(1.00, 0.00, -0.00, -1.00, 983.7, 846.0)">л</text><text xml:space="preserve" font-family="Roboto-Light" font-size="60.0" fill="#000000" transform="matrix(1.00, 0.00, -0.00, -1.00, 1017.5, 846.0)">о</text><text xml:space="preserve" font-family="Roboto-Light" font-size="60.0" fill="#000000" transform="matrix(1.00, 0.00, -0.00, -1.00, 1051.1, 846.0)">и</text><text xml:space="preserve" font-family="Roboto-Light" font-size="60.0" fill="#000000" transform="matrix(1.00, 0.00, -0.00, -1.00, 1084.8, 846.0)">т</text><text xml:space="preserve" font-family="Roboto-Light" font-size="60.0" fill="#000000" transform="matrix(1.00, 0.00, -0.00, -1.00, 1113.4, 846.0)">ь</text><text xml:space="preserve" font-family="Roboto-Light" font-size="60.0" fill="#000000" transform="matrix(1.00, 0.00, -0.00, -1.00, 1145.5, 846.0)"> </text><text xml:space="preserve" font-family="Roboto-Light" font-size="60.0" fill="#000000" transform="matrix(1.00, 0.00, -0.00, -1.00, 1160.1, 846.0)">с</text><text xml:space="preserve" font-family="Roboto-Light" font-size="60.0" fill="#000000" transform="matrix(1.00, 0.00, -0.00, -1.00, 1191.0, 846.0)"> </text><text xml:space="preserve" font-family="Roboto-Light" font-size="60.0" fill="#000000" transform="matrix(1.00, 0.00, -0.00, -1.00, 1205.6, 846.0)">г</text><text xml:space="preserve" font-family="Roboto-Light" font-size="60.0" fill="#000000" transform="matrix(1.00, 0.00, -0.00, -1.00, 1230.3, 846.0)">о</text><text xml:space="preserve" font-family="Roboto-Light" font-size="60.0" fill="#000000" transform="matrix(1.00, 0.00, -0.00, -1.00, 1263.9, 846.0)">р</text><text xml:space="preserve" font-family="Roboto-Light" font-size="60.0" fill="#000000" transform="matrix(1.00, 0.00, -0.00, -1.00, 1297.2, 846.0)">я</text><text xml:space="preserve" font-family="Roboto-Light" font-size="60.0" fill="#000000" transform="matrix(1.00, 0.00, -0.00, -1.00, 1329.8, 846.0)">ч</text><text xml:space="preserve" font-family="Roboto-Light" font-size="60.0" fill="#000000" transform="matrix(1.00, 0.00, -0.00, -1.00, 1361.7, 846.0)">е</text><text xml:space="preserve" font-family="Roboto-Light" font-size="60.0" fill="#000000" transform="matrix(1.00, 0.00, -0.00, -1.00, 1392.7, 846.0)">й</text><text xml:space="preserve" font-family="Roboto-Light" font-size="60.0" fill="#000000" transform="matrix(1.00, 0.00, -0.00, -1.00, 1426.4, 846.0)"> </text><text xml:space="preserve" font-family="Roboto-Light" font-size="60.0" fill="#000000" transform="matrix(1.00, 0.00, -0.00, -1.00, 1441.0, 846.0)">з</text><text xml:space="preserve" font-family="Roboto-Light" font-size="60.0" fill="#000000" transform="matrix(1.00, 0.00, -0.00, -1.00, 1471.4, 846.0)">а</text><text xml:space="preserve" font-family="Roboto-Light" font-size="60.0" fill="#000000" transform="matrix(1.00, 0.00, -0.00, -1.00, 1503.5, 846.0)">м</text><text xml:space="preserve" font-family="Roboto-Light" font-size="60.0" fill="#000000" transform="matrix(1.00, 0.00, -0.00, -1.00, 1547.4, 846.0)">е</text><text xml:space="preserve" font-family="Roboto-Light" font-size="60.0" fill="#000000" transform="matrix(1.00, 0.00, -0.00, -1.00, 1578.3, 846.0)">н</text><text xml:space="preserve" font-family="Roboto-Light" font-size="60.0" fill="#000000" transform="matrix(1.00, 0.00, -0.00, -1.00, 1612.1, 846.0)">о</text><text xml:space="preserve" font-family="Roboto-Light" font-size="60.0" fill="#000000" transform="matrix(1.00, 0.00, -0.00, -1.00, 1645.7, 846.0)">й</text><text xml:space="preserve" font-family="Roboto-Light" font-size="60.0" fill="#000000" transform="matrix(1.00, 0.00, -0.00, -1.00, 1679.4, 846.0)"> </text><text xml:space="preserve" font-family="Roboto-Light" font-size="60.0" fill="#000000" transform="matrix(1.00, 0.00, -0.00, -1.00, 1694.0, 846.0)">к</text><text xml:space="preserve" font-family="Roboto-Light" font-size="60.0" fill="#000000" transform="matrix(1.00, 0.00, -0.00, -1.00, 1724.5, 846.0)">о</text><text xml:space="preserve" font-family="Roboto-Light" font-size="60.0" fill="#000000" transform="matrix(1.00, 0.00, -0.00, -1.00, 1756.0, 846.0)">д</text><text xml:space="preserve" font-family="Roboto-Light" font-size="60.0" fill="#000000" transform="matrix(1.00, 0.00, -0.00, -1.00, 1790.4, 846.0)">а</text></g></svg>