<?xml version="1.0" encoding="UTF-8" standalone="no"?><svg xmlns="http://www.w3.org/2000/svg" xmlns:xlink="http://www.w3.org/1999/xlink" clip-rule="evenodd" stroke-miterlimit="4.00" viewBox="0 0 1920 1080"><desc>SVG generated by Keynote</desc><defs></defs><g transform="matrix(1.00, 0.00, -0.00, -1.00, 0.0, 1080.0)"><path d="M 0.0 1080.0 L 1920.0 1080.0 L 1920.0 0.0 L 0.0 0.0 Z M 0.0 1080.0 " fill="#FAFAFA"></path><path d="M 532.8 976.8 L 1387.2 976.8 L 1387.2 837.8 L 532.8 837.8 Z M 532.8 976.8 " fill="#FFDA7B"></path><text xml:space="preserve" font-family="Roboto-Light" font-size="112.0" fill="#000000" transform="matrix(1.00, 0.00, -0.00, -1.00, 600.0, 869.0)">М</text><text xml:space="preserve" font-family="Roboto-Light" font-size="112.0" fill="#000000" transform="matrix(1.00, 0.00, -0.00, -1.00, 696.9, 869.0)">о</text><text xml:space="preserve" font-family="Roboto-Light" font-size="112.0" fill="#000000" transform="matrix(1.00, 0.00, -0.00, -1.00, 755.7, 869.0)">д</text><text xml:space="preserve" font-family="Roboto-Light" font-size="112.0" fill="#000000" transform="matrix(1.00, 0.00, -0.00, -1.00, 819.9, 869.0)">и</text><text xml:space="preserve" font-family="Roboto-Light" font-size="112.0" fill="#000000" transform="matrix(1.00, 0.00, -0.00, -1.00, 882.9, 869.0)">ф</text><text xml:space="preserve" font-family="Roboto-Light" font-size="112.0" fill="#000000" transform="matrix(1.00, 0.00, -0.00, -1.00, 964.0, 869.0)">и</text><text xml:space="preserve" font-family="Roboto-Light" font-size="112.0" fill="#000000" transform="matrix(1.00, 0.00, -0.00, -1.00, 1027.0, 869.0)">к</text><text xml:space="preserve" font-family="Roboto-Light" font-size="112.0" fill="#000000" transform="matrix(1.00, 0.00, -0.00, -1.00, 1085.0, 869.0)">а</text><text xml:space="preserve" font-family="Roboto-Light" font-size="112.0" fill="#000000" transform="matrix(1.00, 0.00, -0.00, -1.00, 1144.1, 869.0)">т</text><text xml:space="preserve" font-family="Roboto-Light" font-size="112.0" fill="#000000" transform="matrix(1.00, 0.00, -0.00, -1.00, 1195.0, 869.0)">о</text><text xml:space="preserve" font-family="Roboto-Light" font-size="112.0" fill="#000000" transform="matrix(1.00, 0.00, -0.00, -1.00, 1257.7, 869.0)">р</text><image xlink:href="../../69E35D14-42C0-4607-B298-273A52243CB8/assets/D6B5C3EEF57812CFE83BCBA3B4C0BCD9.png" width="960.00" height="298.00" transform="matrix(1.55, 0.00, -0.00, -1.55, 216.0, 687.0)"></image></g></svg>