<?xml version="1.0" encoding="UTF-8" standalone="no"?><svg xmlns="http://www.w3.org/2000/svg" xmlns:xlink="http://www.w3.org/1999/xlink" clip-rule="evenodd" stroke-miterlimit="4.00" viewBox="0 0 160 141"><desc>SVG generated by Keynote</desc><defs></defs><g transform="matrix(1.00, 0.00, -0.00, -1.00, 0.0, 141.0)"><g><clipPath id="clip-1258"><path d="M 0.0 6.2 L 160.0 6.2 L 160.0 34.2 L 0.0 34.2 Z M 0.0 6.2 "></path></clipPath><g clip-path="url(#clip-1258)"><text xml:space="preserve" font-family="Helvetica-Light" font-size="28.0" fill="#383E51" transform="matrix(1.00, 0.00, -0.00, -1.00, 25.0, 7.0)">Б</text><text xml:space="preserve" font-family="Helvetica-Light" font-size="28.0" fill="#383E51" transform="matrix(1.00, 0.00, -0.00, -1.00, 43.7, 7.0)">ы</text><text xml:space="preserve" font-family="Helvetica-Light" font-size="28.0" fill="#383E51" transform="matrix(1.00, 0.00, -0.00, -1.00, 62.5, 7.0)">с</text><text xml:space="preserve" font-family="Helvetica-Light" font-size="28.0" fill="#383E51" transform="matrix(1.00, 0.00, -0.00, -1.00, 77.0, 7.0)">т</text><text xml:space="preserve" font-family="Helvetica-Light" font-size="28.0" fill="#383E51" transform="matrix(1.00, 0.00, -0.00, -1.00, 89.4, 7.0)">р</text><text xml:space="preserve" font-family="Helvetica-Light" font-size="28.0" fill="#383E51" transform="matrix(1.00, 0.00, -0.00, -1.00, 105.5, 7.0)">о</text><text xml:space="preserve" font-family="Helvetica-Light" font-size="28.0" fill="#383E51" transform="matrix(1.00, 0.00, -0.00, -1.00, 121.0, 7.0)">е</text></g></g><g><clipPath id="clip-1259"><path d="M 24.5 29.6 L 135.4 29.6 L 135.4 140.5 L 24.5 140.5 Z M 24.5 29.6 "></path></clipPath><g clip-path="url(#clip-1259)"><image xlink:href="../../710C39F4-EC0A-40E9-A353-AEDD765AFBFB/assets/526BDD1E11BC234894C6C67901C3B63A.png" width="128.00" height="128.00" transform="matrix(0.86, 0.00, -0.00, -0.87, 25.0, 141.0)"></image></g></g></g></svg>