<?xml version="1.0" encoding="UTF-8" standalone="no"?><svg xmlns="http://www.w3.org/2000/svg" xmlns:xlink="http://www.w3.org/1999/xlink" clip-rule="evenodd" stroke-miterlimit="4.00" viewBox="0 0 553 128"><desc>SVG generated by Keynote</desc><defs></defs><g transform="matrix(1.00, 0.00, -0.00, -1.00, 0.0, 128.0)"><g><clipPath id="clip-1260"><path d="M 0.6 0.9 L 552.6 0.9 L 552.6 127.5 L 0.6 127.5 Z M 0.6 0.9 "></path></clipPath><g clip-path="url(#clip-1260)"><path d="M 1.6 126.5 L 551.6 126.5 L 551.6 1.9 L 1.6 1.9 Z M 1.6 126.5 " fill="#FFDA7B"></path></g></g><g><clipPath id="clip-1261"><path d="M 15.2 5.9 L 538.0 5.9 L 538.0 121.6 L 15.2 121.6 Z M 15.2 5.9 "></path></clipPath><g clip-path="url(#clip-1261)"><text xml:space="preserve" font-family="Roboto" font-weight="200" font-size="66.0" fill="#383E51" transform="matrix(1.00, 0.00, -0.00, -1.00, 35.0, 41.0)">Р</text><text xml:space="preserve" font-family="Roboto" font-weight="200" font-size="66.0" fill="#383E51" transform="matrix(1.00, 0.00, -0.00, -1.00, 75.2, 41.0)">о</text><text xml:space="preserve" font-family="Roboto" font-weight="200" font-size="66.0" fill="#383E51" transform="matrix(1.00, 0.00, -0.00, -1.00, 112.2, 41.0)">г</text><text xml:space="preserve" font-family="Roboto" font-weight="200" font-size="66.0" fill="#383E51" transform="matrix(1.00, 0.00, -0.00, -1.00, 140.1, 41.0)">а</text><text xml:space="preserve" font-family="Roboto" font-weight="200" font-size="66.0" fill="#383E51" transform="matrix(1.00, 0.00, -0.00, -1.00, 174.9, 41.0)">т</text><text xml:space="preserve" font-family="Roboto" font-weight="200" font-size="66.0" fill="#383E51" transform="matrix(1.00, 0.00, -0.00, -1.00, 205.7, 41.0)">а</text><text xml:space="preserve" font-family="Roboto" font-weight="200" font-size="66.0" fill="#383E51" transform="matrix(1.00, 0.00, -0.00, -1.00, 241.1, 41.0)">я</text><text xml:space="preserve" font-family="Roboto" font-weight="200" font-size="66.0" fill="#383E51" transform="matrix(1.00, 0.00, -0.00, -1.00, 276.9, 41.0)"> </text><text xml:space="preserve" font-family="Roboto" font-weight="200" font-size="66.0" fill="#383E51" transform="matrix(1.00, 0.00, -0.00, -1.00, 293.0, 41.0)">г</text><text xml:space="preserve" font-family="Roboto" font-weight="200" font-size="66.0" fill="#383E51" transform="matrix(1.00, 0.00, -0.00, -1.00, 320.9, 41.0)">а</text><text xml:space="preserve" font-family="Roboto" font-weight="200" font-size="66.0" fill="#383E51" transform="matrix(1.00, 0.00, -0.00, -1.00, 356.2, 41.0)">д</text><text xml:space="preserve" font-family="Roboto" font-weight="200" font-size="66.0" fill="#383E51" transform="matrix(1.00, 0.00, -0.00, -1.00, 394.1, 41.0)">ю</text><text xml:space="preserve" font-family="Roboto" font-weight="200" font-size="66.0" fill="#383E51" transform="matrix(1.00, 0.00, -0.00, -1.00, 447.8, 41.0)">к</text><text xml:space="preserve" font-family="Roboto" font-weight="200" font-size="66.0" fill="#383E51" transform="matrix(1.00, 0.00, -0.00, -1.00, 482.0, 41.0)">а</text></g></g></g></svg>