<?xml version="1.0" encoding="UTF-8" standalone="no"?><svg xmlns="http://www.w3.org/2000/svg" xmlns:xlink="http://www.w3.org/1999/xlink" clip-rule="evenodd" stroke-miterlimit="4.00" viewBox="0 0 1920 1080"><desc>SVG generated by Keynote</desc><defs></defs><g transform="matrix(1.00, 0.00, -0.00, -1.00, 0.0, 1080.0)"><path d="M 0.0 1080.0 L 1920.0 1080.0 L 1920.0 0.0 L 0.0 0.0 Z M 0.0 1080.0 " fill="#FECF60"></path><g><clipPath id="clip-0"><path d="M 1039.0 374.0 L 1715.0 374.0 L 1715.0 -3.0 L 1039.0 -3.0 Z M 1039.0 374.0 "></path></clipPath><g clip-path="url(#clip-0)"><g><clipPath id="clip-1"><path d="M 1039.0 -3.0 L 1715.0 -3.0 L 1715.0 374.0 L 1039.0 374.0 Z M 1039.0 -3.0 "></path></clipPath><g clip-path="url(#clip-1)"><path d="M 1701.5 261.3 C 1695.1 261.3 1689.8 256.8 1688.4 250.8 L 1639.0 250.8 L 1639.0 278.2 C 1639.0 279.9 1637.7 281.2 1636.0 281.2 L 1620.8 281.2 L 1620.8 299.6 L 1620.8 299.6 L 1620.8 299.6 C 1620.8 340.6 1587.5 374.0 1546.5 374.0 C 1515.1 374.0 1488.2 354.4 1477.3 326.8 L 1402.6 316.5 C 1393.1 325.6 1380.3 331.2 1366.1 331.2 C 1337.9 331.2 1314.8 309.0 1313.3 281.2 L 1298.0 281.2 C 1296.3 281.2 1295.0 279.9 1295.0 278.2 L 1295.0 250.8 L 1239.0 250.8 C 1237.6 256.8 1232.2 261.3 1225.9 261.3 C 1218.4 261.3 1212.4 255.2 1212.4 247.8 C 1212.4 240.4 1218.4 234.3 1225.9 234.3 C 1232.3 234.3 1237.6 238.8 1239.0 244.8 L 1295.0 244.8 L 1295.0 217.4 C 1295.0 215.8 1296.3 214.4 1298.0 214.4 L 1313.2 214.4 L 1313.2 197.2 C 1313.2 197.2 1313.2 197.2 1313.2 197.1 C 1313.2 197.0 1313.2 196.9 1313.2 196.8 C 1313.2 196.7 1313.3 196.6 1313.3 196.5 C 1313.3 196.4 1313.3 196.3 1313.4 196.2 C 1313.4 196.1 1313.4 196.1 1313.5 196.0 C 1313.5 195.9 1313.6 195.8 1313.6 195.7 C 1313.7 195.6 1313.7 195.5 1313.8 195.5 C 1313.8 195.4 1313.8 195.4 1313.9 195.3 L 1342.7 159.8 C 1326.8 136.6 1312.4 112.4 1299.7 87.5 C 1299.6 87.3 1299.5 87.2 1299.5 87.0 C 1295.5 79.1 1291.6 71.1 1287.9 63.0 C 1287.9 62.9 1287.9 62.9 1287.9 62.9 C 1287.8 62.8 1287.8 62.8 1287.8 62.8 C 1285.0 56.6 1282.3 50.3 1279.7 44.0 C 1264.9 76.3 1253.2 109.9 1244.7 144.3 L 1251.0 146.8 C 1253.8 147.9 1256.0 150.0 1257.1 152.7 C 1258.3 155.5 1258.4 158.5 1257.3 161.2 C 1255.0 166.9 1248.6 169.7 1242.9 167.5 L 1240.2 166.4 L 1240.2 187.2 C 1240.2 193.3 1235.2 198.3 1229.1 198.3 C 1223.0 198.3 1218.1 193.4 1218.0 187.4 L 1218.0 193.2 C 1218.0 199.3 1213.0 204.3 1206.9 204.3 C 1200.8 204.3 1195.8 199.3 1195.8 193.2 L 1195.8 165.2 L 1195.8 165.2 L 1195.8 179.9 C 1195.8 186.0 1190.9 191.0 1184.7 191.0 C 1178.6 191.0 1173.7 186.0 1173.7 179.9 L 1173.7 162.2 L 1173.7 162.2 L 1173.7 162.2 C 1173.7 162.1 1173.7 162.0 1173.7 161.9 C 1173.7 161.8 1173.7 161.7 1173.7 161.6 C 1176.8 145.2 1180.5 129.0 1184.9 112.9 C 1184.9 112.7 1185.0 112.6 1185.0 112.4 C 1185.0 112.4 1185.0 112.4 1185.0 112.4 C 1188.7 98.9 1192.9 85.5 1197.4 72.2 C 1197.5 72.0 1197.6 71.8 1197.7 71.6 C 1197.7 71.6 1197.7 71.6 1197.7 71.6 C 1206.3 46.7 1216.5 22.3 1228.3 -1.3 C 1228.3 -1.4 1228.3 -1.4 1228.3 -1.4 C 1228.4 -1.6 1228.6 -1.8 1228.7 -1.9 C 1228.7 -2.0 1228.8 -2.0 1228.8 -2.1 C 1229.0 -2.2 1229.1 -2.4 1229.4 -2.5 C 1229.4 -2.6 1229.5 -2.6 1229.5 -2.6 C 1229.7 -2.7 1229.8 -2.8 1230.0 -2.8 C 1230.1 -2.9 1230.2 -2.9 1230.2 -2.9 C 1230.5 -3.0 1230.7 -3.0 1230.9 -3.0 C 1230.9 -3.0 1230.9 -3.0 1231.0 -3.0 C 1231.0 -3.0 1231.0 -3.0 1231.0 -3.0 L 1298.8 -3.0 C 1298.8 -3.0 1298.8 -3.0 1298.8 -3.0 C 1298.8 -3.0 1298.8 -3.0 1298.8 -3.0 L 1329.9 -3.0 C 1329.9 -3.0 1329.9 -3.0 1329.9 -3.0 C 1329.9 -3.0 1329.9 -3.0 1329.9 -3.0 L 1441.2 -3.0 C 1441.2 -3.0 1441.2 -3.0 1441.2 -3.0 C 1441.2 -3.0 1441.2 -3.0 1441.2 -3.0 L 1492.8 -3.0 C 1492.8 -3.0 1492.8 -3.0 1492.8 -3.0 C 1492.8 -3.0 1492.8 -3.0 1492.8 -3.0 L 1604.0 -3.0 C 1604.1 -3.0 1604.1 -3.0 1604.1 -3.0 C 1604.1 -3.0 1604.1 -3.0 1604.1 -3.0 L 1648.3 -3.0 C 1648.3 -3.0 1648.3 -3.0 1648.3 -3.0 C 1648.3 -3.0 1648.3 -3.0 1648.3 -3.0 L 1667.5 -3.0 C 1667.5 -3.0 1667.5 -3.0 1667.5 -3.0 C 1667.5 -3.0 1667.5 -3.0 1667.5 -3.0 C 1667.8 -3.0 1668.1 -2.9 1668.4 -2.9 C 1668.4 -2.9 1668.4 -2.9 1668.5 -2.8 C 1668.5 -2.8 1668.5 -2.8 1668.6 -2.8 C 1668.7 -2.8 1668.8 -2.7 1668.9 -2.7 C 1668.9 -2.6 1669.0 -2.6 1669.1 -2.5 C 1669.2 -2.5 1669.3 -2.4 1669.3 -2.4 C 1669.4 -2.3 1669.5 -2.2 1669.6 -2.2 C 1669.6 -2.1 1669.7 -2.0 1669.8 -2.0 C 1669.8 -1.9 1669.9 -1.8 1669.9 -1.7 C 1670.0 -1.7 1670.0 -1.6 1670.1 -1.5 C 1670.1 -1.4 1670.2 -1.3 1670.2 -1.3 C 1670.3 -1.2 1670.3 -1.1 1670.3 -1.0 C 1670.4 -0.9 1670.4 -0.8 1670.4 -0.7 C 1670.4 -0.6 1670.5 -0.5 1670.5 -0.4 C 1670.5 -0.3 1670.5 -0.2 1670.5 -0.1 C 1670.5 -0.1 1670.5 -0.0 1670.5 0.0 C 1670.5 0.1 1670.5 0.1 1670.5 0.2 C 1670.5 0.3 1670.5 0.4 1670.5 0.5 C 1670.4 0.6 1670.4 0.7 1670.4 0.8 C 1670.4 0.8 1670.4 0.9 1670.4 0.9 C 1669.5 3.6 1668.6 6.3 1667.6 8.9 C 1667.6 9.1 1667.5 9.2 1667.5 9.4 C 1661.2 27.5 1654.1 45.3 1646.1 62.8 C 1646.1 62.8 1646.1 62.8 1646.1 62.9 C 1646.1 62.9 1646.1 62.9 1646.1 63.0 C 1642.4 71.1 1638.5 79.1 1634.5 87.0 C 1634.4 87.2 1634.3 87.4 1634.2 87.6 C 1621.5 112.5 1607.2 136.6 1591.3 159.8 L 1620.1 195.3 C 1620.2 195.4 1620.2 195.4 1620.2 195.4 C 1620.3 195.5 1620.3 195.6 1620.4 195.7 C 1620.4 195.8 1620.5 195.9 1620.5 196.0 C 1620.5 196.1 1620.6 196.1 1620.6 196.2 C 1620.6 196.3 1620.7 196.4 1620.7 196.5 C 1620.7 196.6 1620.7 196.7 1620.8 196.8 C 1620.8 196.9 1620.8 197.0 1620.8 197.1 C 1620.8 197.2 1620.8 197.2 1620.8 197.2 L 1620.8 214.4 L 1636.0 214.4 C 1637.7 214.4 1639.0 215.8 1639.0 217.4 L 1639.0 244.8 L 1688.4 244.8 C 1689.8 238.8 1695.1 234.3 1701.5 234.3 C 1709.0 234.3 1715.0 240.4 1715.0 247.8 C 1715.0 255.2 1709.0 261.3 1701.5 261.3 " fill="#E9C05A"></path><path d="M 1566.9 261.3 C 1560.5 261.3 1555.1 256.8 1553.8 250.8 L 1504.4 250.8 L 1504.4 278.2 C 1504.4 279.9 1503.0 281.2 1501.4 281.2 L 1486.1 281.2 L 1486.1 299.6 L 1486.1 299.6 L 1486.1 299.6 C 1486.1 340.6 1452.8 374.0 1411.8 374.0 C 1380.4 374.0 1353.5 354.4 1342.6 326.8 L 1268.0 316.5 C 1258.5 325.6 1245.6 331.2 1231.5 331.2 C 1203.3 331.2 1180.2 309.0 1178.6 281.2 L 1163.3 281.2 C 1161.7 281.2 1160.3 279.9 1160.3 278.2 L 1160.3 250.8 L 1104.3 250.8 C 1103.0 256.8 1097.6 261.3 1091.2 261.3 C 1083.8 261.3 1077.7 255.2 1077.7 247.8 C 1077.7 240.4 1083.8 234.3 1091.2 234.3 C 1097.6 234.3 1103.0 238.8 1104.3 244.8 L 1160.3 244.8 L 1160.3 217.4 C 1160.3 215.8 1161.7 214.4 1163.3 214.4 L 1178.5 214.4 L 1178.5 197.2 C 1178.5 197.2 1178.5 197.2 1178.5 197.1 C 1178.6 197.0 1178.6 196.9 1178.6 196.8 C 1178.6 196.7 1178.6 196.6 1178.6 196.5 C 1178.7 196.4 1178.7 196.3 1178.7 196.2 C 1178.8 196.1 1178.8 196.1 1178.8 196.0 C 1178.9 195.9 1178.9 195.8 1179.0 195.7 C 1179.0 195.6 1179.1 195.5 1179.1 195.5 C 1179.2 195.4 1179.2 195.4 1179.2 195.3 L 1208.0 159.8 C 1192.1 136.6 1177.7 112.4 1165.1 87.5 C 1165.0 87.3 1164.9 87.2 1164.8 87.0 C 1160.8 79.1 1157.0 71.1 1153.3 63.0 C 1153.3 62.9 1153.2 62.9 1153.2 62.9 C 1153.2 62.8 1153.2 62.8 1153.2 62.8 C 1150.4 56.6 1147.6 50.3 1145.0 44.0 C 1130.2 76.3 1118.5 109.9 1110.1 144.3 L 1116.4 146.8 C 1119.1 147.9 1121.3 150.0 1122.5 152.7 C 1123.7 155.5 1123.7 158.5 1122.6 161.2 C 1120.4 166.9 1113.9 169.7 1108.2 167.5 L 1105.5 166.4 L 1105.5 187.2 C 1105.5 193.3 1100.6 198.3 1094.4 198.3 C 1088.4 198.3 1083.5 193.4 1083.4 187.4 L 1083.4 193.2 C 1083.4 199.3 1078.4 204.3 1072.3 204.3 C 1066.2 204.3 1061.2 199.3 1061.2 193.2 L 1061.2 165.2 L 1061.2 165.2 L 1061.2 179.9 C 1061.2 186.0 1056.2 191.0 1050.1 191.0 C 1044.0 191.0 1039.0 186.0 1039.0 179.9 L 1039.0 162.2 L 1039.0 162.2 L 1039.0 162.2 C 1039.0 162.1 1039.0 162.0 1039.0 161.9 C 1039.0 161.8 1039.0 161.7 1039.0 161.6 C 1042.1 145.2 1045.9 129.0 1050.2 112.9 C 1050.3 112.7 1050.3 112.6 1050.3 112.4 C 1050.4 112.4 1050.4 112.4 1050.4 112.4 C 1054.1 98.9 1058.2 85.5 1062.8 72.2 C 1062.8 72.0 1062.9 71.8 1063.0 71.6 C 1063.0 71.6 1063.0 71.6 1063.0 71.6 C 1071.7 46.7 1081.9 22.3 1093.6 -1.3 C 1093.6 -1.4 1093.7 -1.4 1093.7 -1.4 C 1093.8 -1.6 1093.9 -1.8 1094.0 -1.9 C 1094.1 -2.0 1094.1 -2.0 1094.1 -2.1 C 1094.3 -2.2 1094.5 -2.4 1094.7 -2.5 C 1094.7 -2.6 1094.8 -2.6 1094.9 -2.6 C 1095.0 -2.7 1095.2 -2.8 1095.4 -2.8 C 1095.4 -2.9 1095.5 -2.9 1095.6 -2.9 C 1095.8 -3.0 1096.0 -3.0 1096.3 -3.0 C 1096.3 -3.0 1096.3 -3.0 1096.3 -3.0 C 1096.3 -3.0 1096.3 -3.0 1096.3 -3.0 L 1164.1 -3.0 C 1164.1 -3.0 1164.1 -3.0 1164.1 -3.0 C 1164.1 -3.0 1164.1 -3.0 1164.1 -3.0 L 1195.3 -3.0 C 1195.3 -3.0 1195.3 -3.0 1195.3 -3.0 C 1195.3 -3.0 1195.3 -3.0 1195.3 -3.0 L 1306.5 -3.0 C 1306.5 -3.0 1306.5 -3.0 1306.5 -3.0 C 1306.5 -3.0 1306.5 -3.0 1306.5 -3.0 L 1358.1 -3.0 C 1358.1 -3.0 1358.1 -3.0 1358.1 -3.0 C 1358.2 -3.0 1358.2 -3.0 1358.2 -3.0 L 1469.4 -3.0 C 1469.4 -3.0 1469.4 -3.0 1469.4 -3.0 C 1469.4 -3.0 1469.4 -3.0 1469.4 -3.0 L 1513.7 -3.0 C 1513.7 -3.0 1513.7 -3.0 1513.7 -3.0 C 1513.7 -3.0 1513.7 -3.0 1513.7 -3.0 L 1532.9 -3.0 C 1532.9 -3.0 1532.9 -3.0 1532.9 -3.0 C 1532.9 -3.0 1532.9 -3.0 1532.9 -3.0 C 1533.2 -3.0 1533.4 -2.9 1533.7 -2.9 C 1533.7 -2.9 1533.8 -2.9 1533.8 -2.8 C 1533.8 -2.8 1533.9 -2.8 1533.9 -2.8 C 1534.0 -2.8 1534.1 -2.7 1534.2 -2.7 C 1534.3 -2.6 1534.4 -2.6 1534.4 -2.5 C 1534.5 -2.5 1534.6 -2.4 1534.7 -2.4 C 1534.8 -2.3 1534.8 -2.2 1534.9 -2.2 C 1535.0 -2.1 1535.0 -2.0 1535.1 -2.0 C 1535.2 -1.9 1535.2 -1.8 1535.3 -1.7 C 1535.3 -1.7 1535.4 -1.6 1535.4 -1.5 C 1535.5 -1.4 1535.5 -1.3 1535.6 -1.3 C 1535.6 -1.2 1535.6 -1.1 1535.7 -1.0 C 1535.7 -0.9 1535.7 -0.8 1535.8 -0.7 C 1535.8 -0.6 1535.8 -0.5 1535.8 -0.4 C 1535.8 -0.3 1535.8 -0.2 1535.8 -0.1 C 1535.8 -0.1 1535.9 -0.0 1535.9 0.0 C 1535.9 0.1 1535.8 0.1 1535.8 0.2 C 1535.8 0.3 1535.8 0.4 1535.8 0.5 C 1535.8 0.6 1535.8 0.7 1535.7 0.8 C 1535.7 0.8 1535.7 0.9 1535.7 0.9 C 1534.8 3.6 1533.9 6.3 1533.0 8.9 C 1533.0 9.1 1532.9 9.2 1532.8 9.4 C 1526.5 27.5 1519.4 45.3 1511.5 62.8 C 1511.5 62.8 1511.5 62.8 1511.5 62.9 C 1511.5 62.9 1511.4 62.9 1511.4 63.0 C 1507.7 71.1 1503.9 79.1 1499.9 87.0 C 1499.8 87.2 1499.7 87.4 1499.5 87.6 C 1486.9 112.5 1472.6 136.6 1456.6 159.8 L 1485.5 195.3 C 1485.5 195.4 1485.5 195.4 1485.5 195.4 C 1485.6 195.5 1485.7 195.6 1485.7 195.7 C 1485.8 195.8 1485.8 195.9 1485.8 196.0 C 1485.9 196.1 1485.9 196.1 1486.0 196.2 C 1486.0 196.3 1486.0 196.4 1486.0 196.5 C 1486.1 196.6 1486.1 196.7 1486.1 196.8 C 1486.1 196.9 1486.1 197.0 1486.1 197.1 C 1486.1 197.2 1486.1 197.2 1486.1 197.2 L 1486.1 214.4 L 1501.4 214.4 C 1503.0 214.4 1504.4 215.8 1504.4 217.4 L 1504.4 244.8 L 1553.8 244.8 C 1555.1 238.8 1560.5 234.3 1566.9 234.3 C 1574.3 234.3 1580.3 240.4 1580.3 247.8 C 1580.3 255.2 1574.3 261.3 1566.9 261.3 " fill="#FED97B"></path><path d="M 0.0 0.0 L 106.1 0.0 C 109.5 -4.8 111.5 -10.6 111.5 -16.9 C 111.5 -28.3 104.9 -38.2 95.3 -43.0 " fill="none" stroke="#393E50" stroke-width="3.00" stroke-miterlimit="0.00" stroke-linecap="round" stroke-linejoin="round" transform="matrix(2.00, 0.00, 0.00, 2.00, 1167.6, 85.9)"></path><path d="M 0.0 0.0 C 8.6 21.3 19.7 42.0 33.3 61.7 " fill="none" stroke="#393E50" stroke-width="3.00" stroke-miterlimit="0.00" stroke-linecap="round" stroke-linejoin="round" transform="matrix(2.00, 0.00, 0.00, 2.00, 1145.2, 36.5)"></path><path d="M 0.0 0.0 C 5.3 -2.2 10.5 -4.8 15.5 -7.7 L 47.5 -10.1 " fill="none" stroke="#393E50" stroke-width="1.00" stroke-miterlimit="0.00" stroke-linecap="round" stroke-linejoin="round" transform="matrix(2.00, 0.00, 0.00, 2.00, 1180.8, 85.9)"></path><path d="M 0.0 0.0 C -7.9 4.5 -16.1 8.5 -24.5 11.9 " fill="none" stroke="#393E50" stroke-width="1.00" stroke-miterlimit="0.00" stroke-linecap="round" stroke-linejoin="round" transform="matrix(2.00, 0.00, 0.00, 2.00, 1211.7, 52.2)"></path><path d="M 0.0 0.0 C -8.7 5.0 -17.7 9.4 -26.9 13.2 " fill="none" stroke="#393E50" stroke-width="3.00" stroke-miterlimit="0.00" stroke-linecap="round" stroke-linejoin="round" transform="matrix(2.00, 0.00, 0.00, 2.00, 1209.8, 35.2)"></path><path d="M 0.0 0.0 C -8.8 4.8 -17.8 9.1 -27.1 12.9 " fill="none" stroke="#393E50" stroke-width="1.00" stroke-miterlimit="0.00" stroke-linecap="round" stroke-linejoin="round" transform="matrix(2.00, 0.00, 0.00, 2.00, 1202.4, 18.2)"></path><path d="M 0.0 0.0 C 2.5 6.7 5.2 13.3 8.3 19.8 " fill="none" stroke="#393E50" stroke-width="3.00" stroke-miterlimit="0.00" stroke-linecap="round" stroke-linejoin="round" transform="matrix(2.00, 0.00, 0.00, 2.00, 1195.3, 0.0)"></path><path d="M 0.0 0.0 C 5.2 -27.7 14.2 -55.0 27.2 -81.1 " fill="none" stroke="#393E50" stroke-width="3.00" stroke-miterlimit="0.00" stroke-linecap="round" stroke-linejoin="round" transform="matrix(2.00, 0.00, 0.00, 2.00, 1042.0, 162.2)"></path><path d="M 0.0 0.0 C -13.1 23.1 -22.7 47.7 -28.8 73.1 " fill="none" stroke="#393E50" stroke-width="3.00" stroke-miterlimit="0.00" stroke-linecap="round" stroke-linejoin="round" transform="matrix(2.00, 0.00, 0.00, 2.00, 1164.1, 0.0)"></path><path d="M 0.0 0.0 C -8.7 -5.0 -17.6 -9.5 -26.9 -13.3 " fill="none" stroke="#393E50" stroke-width="1.00" stroke-miterlimit="0.00" stroke-linecap="round" stroke-linejoin="round" transform="matrix(2.00, 0.00, 0.00, 2.00, 1147.5, 31.6)"></path><path d="M 0.0 0.0 C -8.7 -5.0 -17.7 -9.4 -26.9 -13.2 " fill="none" stroke="#393E50" stroke-width="3.00" stroke-miterlimit="0.00" stroke-linecap="round" stroke-linejoin="round" transform="matrix(2.00, 0.00, 0.00, 2.00, 1140.9, 45.9)"></path><path d="M 0.0 0.0 C -8.8 -4.8 -17.8 -9.1 -27.1 -12.9 " fill="none" stroke="#393E50" stroke-width="1.00" stroke-miterlimit="0.00" stroke-linecap="round" stroke-linejoin="round" transform="matrix(2.00, 0.00, 0.00, 2.00, 1133.5, 62.9)"></path><path d="M 0.0 0.0 C -8.8 -4.9 -17.6 -9.8 -26.4 -14.8 " fill="none" stroke="#393E50" stroke-width="1.00" stroke-miterlimit="0.00" stroke-linecap="round" stroke-linejoin="round" transform="matrix(2.00, 0.00, 0.00, 2.00, 1128.9, 74.5)"></path><path d="M 0.0 0.0 C -8.5 -5.5 -17.4 -10.5 -26.4 -15.0 " fill="none" stroke="#393E50" stroke-width="1.00" stroke-miterlimit="0.00" stroke-linecap="round" stroke-linejoin="round" transform="matrix(2.00, 0.00, 0.00, 2.00, 1123.5, 89.1)"></path><path d="M 0.0 0.0 C -8.6 -5.5 -17.4 -10.4 -26.6 -14.8 " fill="none" stroke="#393E50" stroke-width="3.00" stroke-miterlimit="0.00" stroke-linecap="round" stroke-linejoin="round" transform="matrix(2.00, 0.00, 0.00, 2.00, 1118.9, 102.5)"></path><path d="M 0.0 0.0 L -27.1 -13.8 " fill="none" stroke="#393E50" stroke-width="1.00" stroke-miterlimit="0.00" stroke-linecap="round" stroke-linejoin="round" transform="matrix(2.00, 0.00, 0.00, 2.00, 1115.1, 114.6)"></path><path d="M 0.0 0.0 C -8.9 -4.9 -18.0 -9.5 -27.2 -13.7 " fill="none" stroke="#393E50" stroke-width="1.00" stroke-miterlimit="0.00" stroke-linecap="round" stroke-linejoin="round" transform="matrix(2.00, 0.00, 0.00, 2.00, 1111.4, 127.5)"></path><path d="M 0.0 0.0 C -9.2 -3.9 -18.6 -7.4 -28.1 -10.6 " fill="none" stroke="#393E50" stroke-width="3.00" stroke-miterlimit="0.00" stroke-linecap="round" stroke-linejoin="round" transform="matrix(2.00, 0.00, 0.00, 2.00, 1109.4, 134.7)"></path><path d="M 0.0 0.0 L 0.0 8.9 C 0.0 11.1 -1.8 12.9 -4.0 12.9 L -4.0 12.9 C -6.3 12.9 -8.1 11.1 -8.1 8.9 L -8.1 0.0 " fill="none" stroke="#393E50" stroke-width="3.00" stroke-miterlimit="0.00" stroke-linecap="round" stroke-linejoin="round" transform="matrix(2.00, 0.00, 0.00, 2.00, 1058.2, 162.2)"></path><path d="M 0.0 0.0 L 8.1 0.6 " fill="none" stroke="#393E50" stroke-width="1.00" stroke-miterlimit="0.00" stroke-linecap="round" stroke-linejoin="round" transform="matrix(2.00, 0.00, 0.00, 2.00, 1042.0, 167.9)"></path><path d="M 0.0 0.0 L 8.1 0.2 " fill="none" stroke="#393E50" stroke-width="1.00" stroke-miterlimit="0.00" stroke-linecap="round" stroke-linejoin="round" transform="matrix(2.00, 0.00, 0.00, 2.00, 1042.0, 176.8)"></path><path d="M 0.0 0.0 L 0.0 15.5 C 0.0 17.8 -1.8 19.6 -4.0 19.6 L -4.0 19.6 C -6.3 19.6 -8.1 17.8 -8.1 15.5 L -8.1 0.0 " fill="none" stroke="#393E50" stroke-width="3.00" stroke-miterlimit="0.00" stroke-linecap="round" stroke-linejoin="round" transform="matrix(2.00, 0.00, 0.00, 2.00, 1080.4, 162.2)"></path><path d="M 0.0 0.0 L 8.1 0.6 " fill="none" stroke="#393E50" stroke-width="1.00" stroke-miterlimit="0.00" stroke-linecap="round" stroke-linejoin="round" transform="matrix(2.00, 0.00, 0.00, 2.00, 1064.2, 170.0)"></path><path d="M 0.0 0.0 L 8.1 0.2 " fill="none" stroke="#393E50" stroke-width="1.00" stroke-miterlimit="0.00" stroke-linecap="round" stroke-linejoin="round" transform="matrix(2.00, 0.00, 0.00, 2.00, 1064.2, 177.5)"></path><path d="M 0.0 0.0 L 8.1 0.6 " fill="none" stroke="#393E50" stroke-width="1.00" stroke-miterlimit="0.00" stroke-linecap="round" stroke-linejoin="round" transform="matrix(2.00, 0.00, 0.00, 2.00, 1064.2, 180.1)"></path><path d="M 0.0 0.0 L 8.1 0.2 " fill="none" stroke="#393E50" stroke-width="1.00" stroke-miterlimit="0.00" stroke-linecap="round" stroke-linejoin="round" transform="matrix(2.00, 0.00, 0.00, 2.00, 1064.2, 187.6)"></path><path d="M 0.0 0.0 L 0.0 12.5 C 0.0 14.8 -1.8 16.6 -4.0 16.6 L -4.0 16.6 C -6.3 16.6 -8.1 14.8 -8.1 12.5 L -8.1 0.0 " fill="none" stroke="#393E50" stroke-width="3.00" stroke-miterlimit="0.00" stroke-linecap="round" stroke-linejoin="round" transform="matrix(2.00, 0.00, 0.00, 2.00, 1102.5, 162.2)"></path><path d="M 0.0 0.0 L 8.1 0.6 " fill="none" stroke="#393E50" stroke-width="1.00" stroke-miterlimit="0.00" stroke-linecap="round" stroke-linejoin="round" transform="matrix(2.00, 0.00, 0.00, 2.00, 1086.3, 164.0)"></path><path d="M 0.0 0.0 L 8.1 0.2 " fill="none" stroke="#393E50" stroke-width="1.00" stroke-miterlimit="0.00" stroke-linecap="round" stroke-linejoin="round" transform="matrix(2.00, 0.00, 0.00, 2.00, 1086.3, 171.5)"></path><path d="M 0.0 0.0 L 8.1 0.6 " fill="none" stroke="#393E50" stroke-width="1.00" stroke-miterlimit="0.00" stroke-linecap="round" stroke-linejoin="round" transform="matrix(2.00, 0.00, 0.00, 2.00, 1086.3, 174.1)"></path><path d="M 0.0 0.0 L 8.1 0.2 " fill="none" stroke="#393E50" stroke-width="1.00" stroke-miterlimit="0.00" stroke-linecap="round" stroke-linejoin="round" transform="matrix(2.00, 0.00, 0.00, 2.00, 1086.3, 181.6)"></path><path d="M 0.0 0.0 L 3.2 1.3 C 5.3 2.1 7.6 1.1 8.4 -1.0 L 8.4 -1.0 C 9.3 -3.1 8.2 -5.4 6.2 -6.3 L -3.0 -9.9 " fill="none" stroke="#393E50" stroke-width="3.00" stroke-miterlimit="0.00" stroke-linecap="round" stroke-linejoin="round" transform="matrix(2.00, 0.00, 0.00, 2.00, 1103.0, 162.2)"></path><path d="M 0.0 0.0 C 4.8 2.0 9.4 4.7 13.5 7.8 " fill="none" stroke="#393E50" stroke-width="1.00" stroke-miterlimit="0.00" stroke-linecap="round" stroke-linejoin="round" transform="matrix(2.00, 0.00, 0.00, 2.00, 1128.6, 0.0)"></path><path d="M 0.0 0.0 C 1.5 1.2 3.0 2.5 4.4 3.8 " fill="none" stroke="#393E50" stroke-width="1.00" stroke-miterlimit="0.00" stroke-linecap="round" stroke-linejoin="round" transform="matrix(2.00, 0.00, 0.00, 2.00, 1151.2, -0.0)"></path><path d="M 0.0 0.0 C 5.0 -3.4 9.8 -7.2 14.2 -11.4 " fill="none" stroke="#393E50" stroke-width="3.00" stroke-miterlimit="0.00" stroke-linecap="round" stroke-linejoin="round" transform="matrix(2.00, 0.00, 0.00, 2.00, 1153.0, 22.7)"></path><path d="M 0.0 0.0 C 0.0 -19.7 -16.0 -35.7 -35.7 -35.7 C -55.4 -35.7 -71.4 -19.7 -71.4 0.0 C -71.4 19.7 -55.4 35.7 -35.7 35.7 C -16.0 35.7 0.0 19.7 0.0 0.0 Z M 0.0 0.0 " fill="none" stroke="#393E50" stroke-width="3.00" stroke-miterlimit="0.00" stroke-linecap="round" stroke-linejoin="round" transform="matrix(2.00, 0.00, 0.00, 2.00, 1483.1, 299.6)"></path><path d="M 0.0 0.0 C -16.5 0.0 -29.9 13.4 -29.9 29.9 C -29.9 46.3 -16.5 59.7 0.0 59.7 C 16.5 59.7 29.9 46.3 29.9 29.9 C 29.9 13.4 16.5 0.0 0.0 0.0 Z M 0.0 0.0 " fill="none" stroke="#393E50" stroke-width="2.00" stroke-miterlimit="0.00" stroke-linecap="round" stroke-linejoin="round" transform="matrix(2.00, 0.00, 0.00, 2.00, 1411.8, 239.9)"></path><path d="M 0.0 0.0 C -13.6 0.0 -24.6 11.1 -24.6 24.6 C -24.6 38.2 -13.6 49.3 0.0 49.3 C 13.6 49.3 24.6 38.2 24.6 24.6 C 24.6 11.1 13.6 0.0 0.0 0.0 Z M 0.0 0.0 " fill="none" stroke="#393E50" stroke-width="6.00" stroke-miterlimit="0.00" stroke-linecap="round" stroke-linejoin="round" transform="matrix(2.00, 0.00, 0.00, 2.00, 1411.8, 250.4)"></path><path d="M 0.0 0.0 C -11.4 0.0 -20.6 9.3 -20.6 20.6 C -20.6 32.0 -11.4 41.3 0.0 41.3 C 11.4 41.3 20.6 32.0 20.6 20.6 C 20.6 9.3 11.4 0.0 0.0 0.0 Z M 0.0 0.0 " fill="none" stroke="#393E50" stroke-width="1.00" stroke-miterlimit="0.00" stroke-linecap="round" stroke-linejoin="round" stroke-dasharray="2.0" transform="matrix(2.00, 0.00, 0.00, 2.00, 1411.8, 258.4)"></path><path d="M 0.0 0.0 C 0.0 -13.8 -11.2 -25.0 -25.0 -25.0 C -38.8 -25.0 -50.0 -13.8 -50.0 0.0 C -50.0 13.8 -38.8 25.0 -25.0 25.0 C -11.2 25.0 0.0 13.8 0.0 0.0 Z M 0.0 0.0 " fill="none" stroke="#393E50" stroke-width="3.00" stroke-miterlimit="0.00" stroke-linecap="round" stroke-linejoin="round" transform="matrix(2.00, 0.00, 0.00, 2.00, 1281.4, 278.2)"></path><path d="M 0.0 0.0 C -10.6 0.0 -19.2 8.6 -19.2 19.2 C -19.2 29.7 -10.6 38.3 0.0 38.3 C 10.6 38.3 19.2 29.7 19.2 19.2 C 19.2 8.6 10.6 0.0 0.0 0.0 Z M 0.0 0.0 " fill="none" stroke="#393E50" stroke-width="2.00" stroke-miterlimit="0.00" stroke-linecap="round" stroke-linejoin="round" transform="matrix(2.00, 0.00, 0.00, 2.00, 1231.5, 239.9)"></path><path d="M 0.0 0.0 C -7.7 0.0 -13.9 6.2 -13.9 13.9 C -13.9 21.6 -7.7 27.9 0.0 27.9 C 7.7 27.9 13.9 21.6 13.9 13.9 C 13.9 6.2 7.7 0.0 0.0 0.0 Z M 0.0 0.0 " fill="none" stroke="#393E50" stroke-width="6.00" stroke-miterlimit="0.00" stroke-linecap="round" stroke-linejoin="round" transform="matrix(2.00, 0.00, 0.00, 2.00, 1231.5, 250.4)"></path><path d="M 0.0 0.0 C -5.5 0.0 -9.9 4.5 -9.9 9.9 C -9.9 15.4 -5.5 19.9 0.0 19.9 C 5.5 19.9 9.9 15.4 9.9 9.9 C 9.9 4.5 5.5 0.0 0.0 0.0 Z M 0.0 0.0 " fill="none" stroke="#393E50" stroke-width="1.00" stroke-linecap="round" stroke-linejoin="round" stroke-dasharray="1.9, 1.9" transform="matrix(2.00, 0.00, 0.00, 2.00, 1231.5, 258.4)"></path><path d="M 0.0 0.0 L 0.0 -51.2 L -150.9 -51.2 L -150.9 -10.7 " fill="none" stroke="#393E50" stroke-width="3.00" stroke-miterlimit="10.00" stroke-linecap="round" stroke-linejoin="round" transform="matrix(2.00, 0.00, 0.00, 2.00, 1483.1, 299.6)"></path><path d="M 0.0 0.0 L -15.1 -18.6 L -35.7 -18.6 " fill="none" stroke="#393E50" stroke-width="3.00" stroke-miterlimit="10.00" stroke-linecap="round" stroke-linejoin="round" transform="matrix(2.00, 0.00, 0.00, 2.00, 1483.1, 197.2)"></path><path d="M 0.0 0.0 L -34.8 0.0 L -50.0 18.6 " fill="none" stroke="#393E50" stroke-width="3.00" stroke-miterlimit="10.00" stroke-linecap="round" stroke-linejoin="round" transform="matrix(2.00, 0.00, 0.00, 2.00, 1281.4, 160.0)"></path><path d="M 0.0 0.0 L 0.0 43.0 L 36.6 43.0 C 33.2 38.2 31.2 32.4 31.2 26.1 C 31.2 14.6 37.8 4.8 47.4 0.0 " fill="none" stroke="#393E50" stroke-width="3.00" stroke-miterlimit="10.00" stroke-linecap="round" stroke-linejoin="round" transform="matrix(2.00, 0.00, 0.00, 2.00, 1211.8, 0.0)"></path><path d="M 0.0 0.0 L 0.0 -43.0 " fill="none" stroke="#393E50" stroke-width="3.00" stroke-miterlimit="10.00" stroke-linecap="round" stroke-linejoin="round" transform="matrix(2.00, 0.00, 0.00, 2.00, 1452.9, 85.9)"></path><path d="M 0.0 0.0 L 38.9 5.4 " fill="none" stroke="#393E50" stroke-width="3.00" stroke-miterlimit="10.00" stroke-linecap="round" stroke-linejoin="round" transform="matrix(2.00, 0.00, 0.00, 2.00, 1267.0, 313.3)"></path><path d="M 0.0 0.0 L -9.1 0.0 L -9.1 -30.4 L 0.0 -30.4 " fill="none" stroke="#393E50" stroke-width="3.00" stroke-miterlimit="10.00" stroke-linecap="round" stroke-linejoin="round" transform="matrix(2.00, 0.00, 0.00, 2.00, 1181.5, 278.2)"></path><path d="M 0.0 0.0 L 9.1 0.0 L 9.1 30.4 L 0.0 30.4 " fill="none" stroke="#393E50" stroke-width="3.00" stroke-miterlimit="10.00" stroke-linecap="round" stroke-linejoin="round" transform="matrix(2.00, 0.00, 0.00, 2.00, 1483.1, 217.4)"></path><path d="M 0.0 0.0 L -30.8 0.0 " fill="none" stroke="#393E50" stroke-width="3.00" stroke-miterlimit="10.00" stroke-linecap="round" stroke-linejoin="round" transform="matrix(2.00, 0.00, 0.00, 2.00, 1163.3, 247.8)"></path><path d="M 0.0 0.0 L 27.5 0.0 " fill="none" stroke="#393E50" stroke-width="3.00" stroke-miterlimit="10.00" stroke-linecap="round" stroke-linejoin="round" transform="matrix(2.00, 0.00, 0.00, 2.00, 1501.4, 247.8)"></path><path d="M 0.0 0.0 C 0.0 2.9 -2.3 5.2 -5.2 5.2 C -8.1 5.2 -10.5 2.9 -10.5 0.0 C -10.5 -2.9 -8.1 -5.2 -5.2 -5.2 C -2.3 -5.2 0.0 -2.9 0.0 0.0 Z M 0.0 0.0 " fill="none" stroke="#393E50" stroke-width="3.00" stroke-miterlimit="10.00" stroke-linecap="round" stroke-linejoin="round" transform="matrix(2.00, 0.00, 0.00, 2.00, 1101.7, 247.8)"></path><path d="M 0.0 0.0 C 0.0 2.9 -2.3 5.2 -5.2 5.2 C -8.1 5.2 -10.5 2.9 -10.5 0.0 C -10.5 -2.9 -8.1 -5.2 -5.2 -5.2 C -2.3 -5.2 0.0 -2.9 0.0 0.0 Z M 0.0 0.0 " fill="none" stroke="#393E50" stroke-width="3.00" stroke-miterlimit="10.00" stroke-linecap="round" stroke-linejoin="round" transform="matrix(2.00, 0.00, 0.00, 2.00, 1577.3, 247.8)"></path><path d="M 0.0 0.0 C 4.1 -4.5 6.5 -10.4 6.5 -16.9 C 6.5 -30.7 -4.7 -42.0 -18.5 -42.0 C -32.4 -42.0 -43.6 -30.7 -43.6 -16.9 C -43.6 -10.4 -41.2 -4.5 -37.1 0.0 " fill="none" stroke="#393E50" stroke-width="1.00" stroke-miterlimit="10.00" stroke-linecap="round" stroke-linejoin="round" transform="matrix(2.00, 0.00, 0.00, 2.00, 1369.4, 85.9)"></path><path d="M 0.0 0.0 L -11.7 0.0 " fill="none" stroke="#393E50" stroke-width="3.00" stroke-miterlimit="10.00" stroke-linecap="round" stroke-linejoin="round" transform="matrix(2.00, 0.00, 0.00, 2.00, 1398.0, 160.0)"></path><path d="M 0.0 0.0 L -5.8 0.0 " fill="none" stroke="#393E50" stroke-width="3.00" stroke-miterlimit="10.00" stroke-linecap="round" stroke-linejoin="round" transform="matrix(2.00, 0.00, 0.00, 2.00, 1360.1, 160.0)"></path><path d="M 0.0 0.0 L 31.3 -2.4 " fill="none" stroke="#393E50" stroke-width="1.00" stroke-miterlimit="10.00" stroke-linecap="round" stroke-linejoin="round" transform="matrix(2.00, 0.00, 0.00, 2.00, 1390.3, 56.9)"></path><path d="M 0.0 0.0 L 120.5 -3.8 " fill="none" stroke="#393E50" stroke-width="1.00" stroke-miterlimit="10.00" stroke-linecap="round" stroke-linejoin="round" transform="matrix(2.00, 0.00, 0.00, 2.00, 1212.0, 78.2)"></path><path d="M 0.0 0.0 L 34.5 3.2 " fill="none" stroke="#393E50" stroke-width="1.00" stroke-miterlimit="10.00" stroke-linecap="round" stroke-linejoin="round" transform="matrix(2.00, 0.00, 0.00, 2.00, 1272.7, 306.3)"></path><path d="M 0.0 0.0 L 145.5 -6.7 " fill="none" stroke="#393E50" stroke-width="1.00" stroke-miterlimit="10.00" stroke-linecap="round" stroke-linejoin="round" transform="matrix(2.00, 0.00, 0.00, 2.00, 1181.5, 197.2)"></path><path d="M 0.0 0.0 C -9.2 27.8 -22.5 54.7 -40.0 80.0 " fill="none" stroke="#393E50" stroke-width="3.00" stroke-miterlimit="10.00" stroke-linecap="round" stroke-linejoin="round" transform="matrix(2.00, 0.00, 0.00, 2.00, 1532.9, 0.0)"></path><path d="M 0.0 0.0 C 3.0 -6.5 5.8 -13.1 8.3 -19.8 " fill="none" stroke="#393E50" stroke-width="3.00" stroke-miterlimit="10.00" stroke-linecap="round" stroke-linejoin="round" transform="matrix(2.00, 0.00, 0.00, 2.00, 1452.9, 39.6)"></path><path d="M 0.0 0.0 C -5.3 -2.2 -10.5 -4.8 -15.5 -7.7 L -47.5 -10.1 " fill="none" stroke="#393E50" stroke-width="1.00" stroke-miterlimit="10.00" stroke-linecap="round" stroke-linejoin="round" transform="matrix(2.00, 0.00, 0.00, 2.00, 1483.9, 85.9)"></path><path d="M 0.0 0.0 C 7.9 4.5 16.1 8.5 24.5 11.9 " fill="none" stroke="#393E50" stroke-width="1.00" stroke-miterlimit="10.00" stroke-linecap="round" stroke-linejoin="round" transform="matrix(2.00, 0.00, 0.00, 2.00, 1452.9, 52.2)"></path><path d="M 0.0 0.0 C 8.7 5.0 17.7 9.4 26.9 13.2 " fill="none" stroke="#393E50" stroke-width="3.00" stroke-miterlimit="10.00" stroke-linecap="round" stroke-linejoin="round" transform="matrix(2.00, 0.00, 0.00, 2.00, 1454.9, 35.2)"></path><path d="M 0.0 0.0 C 8.8 4.8 17.8 9.1 27.1 12.9 " fill="none" stroke="#393E50" stroke-width="1.00" stroke-miterlimit="10.00" stroke-linecap="round" stroke-linejoin="round" transform="matrix(2.00, 0.00, 0.00, 2.00, 1462.2, 18.2)"></path><path d="M 0.0 0.0 C 8.8 4.9 17.6 9.8 26.4 14.8 " fill="none" stroke="#393E50" stroke-width="1.00" stroke-miterlimit="10.00" stroke-linecap="round" stroke-linejoin="round" transform="matrix(2.00, 0.00, 0.00, 2.00, 1466.9, 6.6)"></path><path d="M 0.0 0.0 C 6.5 3.9 13.2 7.6 20.0 11.0 " fill="none" stroke="#393E50" stroke-width="1.00" stroke-miterlimit="10.00" stroke-linecap="round" stroke-linejoin="round" transform="matrix(2.00, 0.00, 0.00, 2.00, 1485.1, 0.0)"></path><path d="M 0.0 0.0 C 2.7 1.4 5.4 2.8 8.2 4.1 " fill="none" stroke="#393E50" stroke-width="3.00" stroke-miterlimit="10.00" stroke-linecap="round" stroke-linejoin="round" transform="matrix(2.00, 0.00, 0.00, 2.00, 1513.7, 0.0)"></path><path d="M 0.0 0.0 L 58.7 0.0 " fill="none" stroke="#393E50" stroke-width="3.00" stroke-miterlimit="10.00" stroke-linecap="round" stroke-linejoin="round" transform="matrix(2.00, 0.00, 0.00, 2.00, 1379.7, 85.9)"></path><path d="M 0.0 0.0 L 3.0 0.0 " fill="none" stroke="#393E50" stroke-width="3.00" stroke-miterlimit="10.00" stroke-linecap="round" stroke-linejoin="round" transform="matrix(2.00, 0.00, 0.00, 2.00, 1058.2, 162.2)"></path><path d="M 0.0 0.0 L 3.0 0.0 " fill="none" stroke="#393E50" stroke-width="3.00" stroke-miterlimit="10.00" stroke-linecap="round" stroke-linejoin="round" transform="matrix(2.00, 0.00, 0.00, 2.00, 1080.4, 162.2)"></path></g></g></g></g><text xml:space="preserve" font-family="Roboto-Light" font-size="112.0" fill="#000000" transform="matrix(1.00, 0.00, -0.00, -1.00, 759.0, 502.0)">П</text><text xml:space="preserve" font-family="Roboto-Light" font-size="112.0" fill="#000000" transform="matrix(1.00, 0.00, -0.00, -1.00, 838.2, 502.0)">р</text><text xml:space="preserve" font-family="Roboto-Light" font-size="112.0" fill="#000000" transform="matrix(1.00, 0.00, -0.00, -1.00, 900.3, 502.0)">и</text><text xml:space="preserve" font-family="Roboto-Light" font-size="112.0" fill="#000000" transform="matrix(1.00, 0.00, -0.00, -1.00, 963.2, 502.0)">в</text><text xml:space="preserve" font-family="Roboto-Light" font-size="112.0" fill="#000000" transform="matrix(1.00, 0.00, -0.00, -1.00, 1025.9, 502.0)">е</text><text xml:space="preserve" font-family="Roboto-Light" font-size="112.0" fill="#000000" transform="matrix(1.00, 0.00, -0.00, -1.00, 1083.1, 502.0)">т</text><text xml:space="preserve" font-family="Roboto-Light" font-size="112.0" fill="#000000" transform="matrix(1.00, 0.00, -0.00, -1.00, 1136.3, 502.0)">!</text></g></svg>