<?xml version="1.0" encoding="UTF-8" standalone="no"?><svg xmlns="http://www.w3.org/2000/svg" xmlns:xlink="http://www.w3.org/1999/xlink" clip-rule="evenodd" stroke-miterlimit="4.00" viewBox="0 0 1920 1080"><desc>SVG generated by Keynote</desc><defs></defs><g transform="matrix(1.00, 0.00, -0.00, -1.00, 0.0, 1080.0)"><path d="M 0.0 1080.0 L 1920.0 1080.0 L 1920.0 0.0 L 0.0 0.0 Z M 0.0 1080.0 " fill="#FECF60"></path><path d="M 366.6 852.8 L 1479.9 852.8 L 1479.9 752.8 L 366.6 752.8 Z M 366.6 852.8 " fill="#FAFAFA"></path><g><clipPath id="clip-1294"><path d="M 463.0 259.0 L 724.0 259.0 L 724.0 555.0 L 463.0 555.0 Z M 463.0 259.0 "></path></clipPath><g clip-path="url(#clip-1294)"><path d="M 35.7 71.4 C 55.4 71.4 71.4 55.4 71.4 35.7 C 71.4 16.0 55.4 0.0 35.7 0.0 C 16.0 0.0 0.0 16.0 0.0 35.7 C 0.0 55.4 16.0 71.4 35.7 71.4 Z M 35.7 71.4 " fill="none" stroke="#575E61" stroke-width="3.00" stroke-miterlimit="0.00" transform="matrix(1.00, 0.00, 0.00, -1.00, 598.0, 553.5)"></path><path d="M 29.9 59.7 C 13.4 59.7 0.0 46.3 0.0 29.9 C 0.0 13.4 13.4 0.0 29.9 0.0 C 46.3 0.0 59.7 13.4 59.7 29.9 C 59.7 46.3 46.3 59.7 29.9 59.7 L 29.9 59.7 Z M 29.9 59.7 " fill="none" stroke="#575E61" stroke-width="2.00" stroke-miterlimit="0.00" transform="matrix(1.00, 0.00, 0.00, -1.00, 603.9, 547.7)"></path><path d="M 24.6 49.3 C 11.1 49.3 0.0 38.2 0.0 24.6 C 0.0 11.1 11.1 0.0 24.6 0.0 C 38.2 0.0 49.3 11.1 49.3 24.6 C 49.3 38.2 38.2 49.3 24.6 49.3 L 24.6 49.3 Z M 24.6 49.3 " fill="none" stroke="#575E61" stroke-width="6.00" stroke-miterlimit="0.00" transform="matrix(1.00, 0.00, 0.00, -1.00, 609.1, 542.4)"></path><path d="M 20.6 41.3 C 9.3 41.3 0.0 32.0 0.0 20.6 C 0.0 9.3 9.3 0.0 20.6 0.0 C 32.0 0.0 41.3 9.3 41.3 20.6 C 41.3 32.0 32.0 41.3 20.6 41.3 L 20.6 41.3 Z M 20.6 41.3 " fill="none" stroke="#575E61" stroke-width="1.00" stroke-miterlimit="0.00" stroke-dasharray="2.0, 2.0" transform="matrix(1.00, 0.00, 0.00, -1.00, 613.1, 538.4)"></path><path d="M 25.0 50.0 C 38.8 50.0 50.0 38.8 50.0 25.0 C 50.0 11.2 38.8 0.0 25.0 0.0 C 11.2 0.0 0.0 11.2 0.0 25.0 C 0.0 38.8 11.2 50.0 25.0 50.0 Z M 25.0 50.0 " fill="none" stroke="#575E61" stroke-width="3.00" stroke-miterlimit="0.00" transform="matrix(1.00, 0.00, 0.00, -1.00, 518.5, 532.1)"></path><path d="M 19.2 38.3 C 8.6 38.3 0.0 29.7 0.0 19.2 C 0.0 8.6 8.6 0.0 19.2 0.0 C 29.7 0.0 38.3 8.6 38.3 19.2 C 38.3 29.7 29.7 38.3 19.2 38.3 L 19.2 38.3 Z M 19.2 38.3 " fill="none" stroke="#575E61" stroke-width="2.00" stroke-miterlimit="0.00" transform="matrix(1.00, 0.00, 0.00, -1.00, 524.3, 526.3)"></path><path d="M 13.9 27.9 C 6.2 27.9 0.0 21.6 0.0 13.9 C 0.0 6.2 6.2 0.0 13.9 0.0 C 21.6 0.0 27.9 6.2 27.9 13.9 C 27.9 21.6 21.6 27.9 13.9 27.9 L 13.9 27.9 Z M 13.9 27.9 " fill="none" stroke="#575E61" stroke-width="6.00" stroke-miterlimit="0.00" transform="matrix(1.00, 0.00, 0.00, -1.00, 529.6, 521.0)"></path><path d="M 9.9 19.9 C 4.5 19.9 0.0 15.4 0.0 9.9 C 0.0 4.5 4.5 0.0 9.9 0.0 C 15.4 0.0 19.9 4.5 19.9 9.9 C 19.9 15.4 15.4 19.9 9.9 19.9 L 9.9 19.9 Z M 9.9 19.9 " fill="none" stroke="#575E61" stroke-width="1.00" stroke-miterlimit="0.00" stroke-dasharray="1.9, 1.9" transform="matrix(1.00, 0.00, 0.00, -1.00, 533.6, 517.0)"></path><path d="M 150.9 0.0 L 150.9 51.2 L 0.0 51.2 L 0.0 10.7 " fill="none" stroke="#575E61" stroke-width="3.00" stroke-miterlimit="0.00" transform="matrix(1.00, 0.00, 0.00, -1.00, 518.5, 517.8)"></path><path d="M 35.7 0.0 L 20.6 18.6 L 0.0 18.6 " fill="none" stroke="#575E61" stroke-width="3.00" stroke-miterlimit="0.00" transform="matrix(1.00, 0.00, 0.00, -1.00, 633.7, 466.6)"></path><path d="M 50.0 18.6 L 15.1 18.6 L 0.0 0.0 " fill="none" stroke="#575E61" stroke-width="3.00" stroke-miterlimit="0.00" transform="matrix(1.00, 0.00, 0.00, -1.00, 518.5, 466.6)"></path><path d="M 120.6 0.0 L 120.6 70.8 L 0.0 70.8 L 0.0 0.0 " fill="none" stroke="#575E61" stroke-width="3.00" stroke-miterlimit="0.00" transform="matrix(1.00, 0.00, 0.00, -1.00, 533.6, 410.9)"></path><path d="M 0.0 5.4 L 38.9 0.0 " fill="none" stroke="#575E61" stroke-width="3.00" stroke-miterlimit="0.00" transform="matrix(1.00, 0.00, 0.00, -1.00, 561.3, 530.0)"></path><path d="M 9.1 0.0 L 0.0 0.0 L 0.0 30.4 L 9.1 30.4 " fill="none" stroke="#575E61" stroke-width="3.00" stroke-miterlimit="0.00" transform="matrix(1.00, 0.00, 0.00, -1.00, 509.4, 507.1)"></path><path d="M 0.0 30.4 L 9.1 30.4 L 9.1 0.0 L 0.0 0.0 " fill="none" stroke="#575E61" stroke-width="3.00" stroke-miterlimit="0.00" transform="matrix(1.00, 0.00, 0.00, -1.00, 669.4, 507.1)"></path><path d="M 30.8 0.0 L 0.0 0.0 " fill="none" stroke="#575E61" stroke-width="3.00" stroke-miterlimit="0.00" transform="matrix(1.00, 0.00, 0.00, -1.00, 478.6, 491.9)"></path><path d="M 0.0 0.0 L 27.5 0.0 " fill="none" stroke="#575E61" stroke-width="3.00" stroke-miterlimit="0.00" transform="matrix(1.00, 0.00, 0.00, -1.00, 678.5, 491.9)"></path><path d="M 5.2 10.5 C 8.1 10.5 10.5 8.1 10.5 5.2 C 10.5 2.3 8.1 0.0 5.2 0.0 C 2.3 0.0 0.0 2.3 0.0 5.2 C 0.0 8.1 2.3 10.5 5.2 10.5 Z M 5.2 10.5 " fill="none" stroke="#575E61" stroke-width="3.00" stroke-miterlimit="0.00" transform="matrix(1.00, 0.00, 0.00, -1.00, 468.1, 497.1)"></path><path d="M 5.2 10.5 C 8.1 10.5 10.5 8.1 10.5 5.2 C 10.5 2.3 8.1 0.0 5.2 0.0 C 2.3 0.0 0.0 2.3 0.0 5.2 C 0.0 8.1 2.3 10.5 5.2 10.5 Z M 5.2 10.5 " fill="none" stroke="#575E61" stroke-width="3.00" stroke-miterlimit="0.00" transform="matrix(1.00, 0.00, 0.00, -1.00, 706.1, 497.1)"></path><path d="M 11.7 0.0 L 0.0 0.0 " fill="none" stroke="#575E61" stroke-width="3.00" stroke-miterlimit="0.00" transform="matrix(1.00, 0.00, 0.00, -1.00, 615.2, 448.0)"></path><path d="M 5.8 0.0 L 0.0 0.0 " fill="none" stroke="#575E61" stroke-width="3.00" stroke-miterlimit="0.00" transform="matrix(1.00, 0.00, 0.00, -1.00, 602.1, 448.0)"></path><path d="M 0.0 3.2 L 34.5 0.0 " fill="none" stroke="#575E61" stroke-width="1.00" stroke-miterlimit="0.00" transform="matrix(1.00, 0.00, 0.00, -1.00, 564.1, 524.3)"></path><path d="M 0.0 0.0 L 145.5 6.7 " fill="none" stroke="#575E61" stroke-width="1.00" stroke-miterlimit="0.00" transform="matrix(1.00, 0.00, 0.00, -1.00, 518.5, 466.6)"></path><path d="M 0.0 0.0 L 51.1 0.0 " fill="none" stroke="#575E61" stroke-width="3.00" stroke-miterlimit="0.00" transform="matrix(1.00, 0.00, 0.00, -1.00, 625.3, 410.9)"></path><path d="M 0.0 0.0 L 30.7 0.0 L 30.7 5.9 L 0.0 5.9 L 0.0 0.0 Z M 0.0 0.0 " fill="none" stroke="#575E61" stroke-width="3.00" stroke-miterlimit="0.00" transform="matrix(0.98, -0.21, -0.21, -0.98, 483.8, 345.9)"></path><path d="M 22.1 0.0 C 13.8 12.0 6.4 24.4 0.0 37.0 L 51.1 37.0 " fill="none" stroke="#575E61" stroke-width="3.00" stroke-miterlimit="0.00" transform="matrix(1.00, 0.00, 0.00, -1.00, 511.5, 448.0)"></path><path d="M 22.1 37.0 C 15.7 24.4 8.3 12.0 0.0 0.0 " fill="none" stroke="#575E61" stroke-width="3.00" stroke-miterlimit="0.00" transform="matrix(1.00, 0.00, 0.00, -1.00, 654.3, 448.0)"></path><path d="M 0.0 65.6 C 5.6 43.2 13.7 21.2 24.5 0.0 " fill="none" stroke="#575E61" stroke-width="3.00" stroke-miterlimit="0.00" transform="matrix(1.00, 0.00, 0.00, -1.00, 487.1, 410.9)"></path><path d="M 0.0 64.1 C 5.0 42.3 12.5 20.8 22.4 0.0 " fill="none" stroke="#575E61" stroke-width="3.00" stroke-miterlimit="0.00" transform="matrix(1.00, 0.00, 0.00, -1.00, 511.2, 404.2)"></path><path d="M 0.0 0.0 L 21.6 8.3 " fill="none" stroke="#575E61" stroke-width="3.00" stroke-miterlimit="0.00" transform="matrix(1.00, 0.00, 0.00, -1.00, 508.6, 405.1)"></path><path d="M 0.0 0.0 L 21.9 8.0 " fill="none" stroke="#575E61" stroke-width="1.00" stroke-miterlimit="0.00" transform="matrix(1.00, 0.00, 0.00, -1.00, 505.6, 398.7)"></path><path d="M 0.0 0.0 L 22.3 7.6 " fill="none" stroke="#575E61" stroke-width="1.00" stroke-miterlimit="0.00" transform="matrix(1.00, 0.00, 0.00, -1.00, 502.8, 392.2)"></path><path d="M 0.0 0.0 L 22.6 7.3 " fill="none" stroke="#575E61" stroke-width="1.00" stroke-miterlimit="0.00" transform="matrix(1.00, 0.00, 0.00, -1.00, 500.1, 385.6)"></path><path d="M 0.0 0.0 L 22.9 7.0 " fill="none" stroke="#575E61" stroke-width="3.00" stroke-miterlimit="0.00" transform="matrix(1.00, 0.00, 0.00, -1.00, 497.5, 379.0)"></path><path d="M 0.0 0.0 L 23.2 6.6 " fill="none" stroke="#575E61" stroke-width="1.00" stroke-miterlimit="0.00" transform="matrix(1.00, 0.00, 0.00, -1.00, 495.1, 372.3)"></path><path d="M 0.0 0.0 L 23.4 6.3 " fill="none" stroke="#575E61" stroke-width="1.00" stroke-miterlimit="0.00" transform="matrix(1.00, 0.00, 0.00, -1.00, 492.9, 365.6)"></path><path d="M 0.0 0.0 L 23.7 5.9 " fill="none" stroke="#575E61" stroke-width="1.00" stroke-miterlimit="0.00" transform="matrix(1.00, 0.00, 0.00, -1.00, 490.8, 358.9)"></path><path d="M 0.0 0.0 L 23.9 5.6 " fill="none" stroke="#575E61" stroke-width="1.00" stroke-miterlimit="0.00" transform="matrix(1.00, 0.00, 0.00, -1.00, 488.8, 352.1)"></path><path d="M 0.0 0.0 L 30.7 0.0 L 30.7 5.9 L 0.0 5.9 L 0.0 0.0 Z M 0.0 0.0 " fill="none" stroke="#575E61" stroke-width="3.00" stroke-miterlimit="0.00" transform="matrix(-0.98, -0.21, -0.21, 0.98, 705.2, 340.4)"></path><path d="M 24.5 65.6 C 18.9 43.2 10.8 21.2 0.0 0.0 " fill="none" stroke="#575E61" stroke-width="3.00" stroke-miterlimit="0.00" transform="matrix(1.00, 0.00, 0.00, -1.00, 676.4, 410.9)"></path><path d="M 22.4 64.1 C 17.4 42.3 9.9 20.8 0.0 0.0 " fill="none" stroke="#575E61" stroke-width="3.00" stroke-miterlimit="0.00" transform="matrix(1.00, 0.00, 0.00, -1.00, 654.3, 404.2)"></path><path d="M 21.6 0.0 L 0.0 8.3 " fill="none" stroke="#575E61" stroke-width="3.00" stroke-miterlimit="0.00" transform="matrix(1.00, 0.00, 0.00, -1.00, 657.7, 405.1)"></path><path d="M 21.9 0.0 L 0.0 8.0 " fill="none" stroke="#575E61" stroke-width="1.00" stroke-miterlimit="0.00" transform="matrix(1.00, 0.00, 0.00, -1.00, 660.4, 398.7)"></path><path d="M 22.3 0.0 L 0.0 7.6 " fill="none" stroke="#575E61" stroke-width="1.00" stroke-miterlimit="0.00" transform="matrix(1.00, 0.00, 0.00, -1.00, 662.9, 392.2)"></path><path d="M 22.6 0.0 L 0.0 7.3 " fill="none" stroke="#575E61" stroke-width="1.00" stroke-miterlimit="0.00" transform="matrix(1.00, 0.00, 0.00, -1.00, 665.3, 385.6)"></path><path d="M 22.9 0.0 L 0.0 7.0 " fill="none" stroke="#575E61" stroke-width="3.00" stroke-miterlimit="0.00" transform="matrix(1.00, 0.00, 0.00, -1.00, 667.5, 379.0)"></path><path d="M 23.2 0.0 L 0.0 6.6 " fill="none" stroke="#575E61" stroke-width="1.00" stroke-miterlimit="0.00" transform="matrix(1.00, 0.00, 0.00, -1.00, 669.6, 372.3)"></path><path d="M 23.4 0.0 L 0.0 6.3 " fill="none" stroke="#575E61" stroke-width="1.00" stroke-miterlimit="0.00" transform="matrix(1.00, 0.00, 0.00, -1.00, 671.6, 365.6)"></path><path d="M 23.7 0.0 L 0.0 5.9 " fill="none" stroke="#575E61" stroke-width="1.00" stroke-miterlimit="0.00" transform="matrix(1.00, 0.00, 0.00, -1.00, 673.4, 358.9)"></path><path d="M 23.9 0.0 L 0.0 5.6 " fill="none" stroke="#575E61" stroke-width="1.00" stroke-miterlimit="0.00" transform="matrix(1.00, 0.00, 0.00, -1.00, 675.1, 352.1)"></path><path d="M 0.0 0.0 L 30.7 0.0 L 30.7 5.9 L 0.0 5.9 L 0.0 0.0 Z M 0.0 0.0 " fill="none" stroke="#575E61" stroke-width="3.00" stroke-miterlimit="0.00" transform="matrix(1.00, 0.00, 0.00, -1.00, 615.5, 340.1)"></path><path d="M 0.0 0.0 L 30.7 0.0 L 30.7 5.9 L 0.0 5.9 L 0.0 0.0 Z M 0.0 0.0 " fill="none" stroke="#575E61" stroke-width="3.00" stroke-miterlimit="0.00" transform="matrix(1.00, 0.00, 0.00, -1.00, 623.6, 266.2)"></path><path d="M 36.5 30.6 L 36.5 0.0 L 0.0 0.0 L 0.0 36.5 L 11.0 36.5 " fill="none" stroke="#575E61" stroke-width="3.00" stroke-miterlimit="0.00" transform="matrix(1.00, 0.00, 0.00, -1.00, 612.5, 296.9)"></path><path d="M 0.0 0.0 L 30.7 0.0 L 30.7 5.9 L 0.0 5.9 L 0.0 0.0 Z M 0.0 0.0 " fill="none" stroke="#575E61" stroke-width="3.00" stroke-miterlimit="0.00" transform="matrix(1.00, 0.00, 0.00, -1.00, 615.4, 302.7)"></path><path d="M 0.0 31.5 L 0.0 0.0 " fill="none" stroke="#575E61" stroke-width="3.00" stroke-miterlimit="0.00" transform="matrix(1.00, 0.00, 0.00, -1.00, 643.5, 334.3)"></path><path d="M 0.0 31.5 L 0.0 0.0 " fill="none" stroke="#575E61" stroke-width="3.00" stroke-miterlimit="0.00" transform="matrix(1.00, 0.00, 0.00, -1.00, 618.1, 334.3)"></path><path d="M 25.5 0.0 L 0.0 0.0 " fill="none" stroke="#575E61" stroke-width="1.00" stroke-miterlimit="0.00" transform="matrix(1.00, 0.00, 0.00, -1.00, 618.0, 309.1)"></path><path d="M 25.5 0.0 L 0.0 0.0 " fill="none" stroke="#575E61" stroke-width="1.00" stroke-miterlimit="0.00" transform="matrix(1.00, 0.00, 0.00, -1.00, 618.0, 315.4)"></path><path d="M 25.4 0.0 L 0.0 0.0 " fill="none" stroke="#575E61" stroke-width="3.00" stroke-miterlimit="0.00" transform="matrix(1.00, 0.00, 0.00, -1.00, 618.1, 321.7)"></path><path d="M 25.5 0.0 L 0.0 0.0 " fill="none" stroke="#575E61" stroke-width="1.00" stroke-miterlimit="0.00" transform="matrix(1.00, 0.00, 0.00, -1.00, 618.0, 328.1)"></path><path d="M 5.2 5.2 L 0.0 0.0 " fill="none" stroke="#575E61" stroke-width="3.00" stroke-miterlimit="0.00" transform="matrix(1.00, 0.00, 0.00, -1.00, 649.0, 271.5)"></path><path d="M 0.0 0.0 L 30.7 0.0 L 30.7 5.9 L 0.0 5.9 L 0.0 0.0 Z M 0.0 0.0 " fill="none" stroke="#575E61" stroke-width="3.00" stroke-miterlimit="0.00" transform="matrix(1.00, 0.00, 0.00, -1.00, 541.7, 340.1)"></path><path d="M 0.0 0.0 L 30.7 0.0 L 30.7 5.9 L 0.0 5.9 L 0.0 0.0 Z M 0.0 0.0 " fill="none" stroke="#575E61" stroke-width="3.00" stroke-miterlimit="0.00" transform="matrix(1.00, 0.00, 0.00, -1.00, 533.6, 266.2)"></path><path d="M 0.0 30.6 L 0.0 0.0 L 36.5 0.0 L 36.5 36.5 L 25.5 36.5 " fill="none" stroke="#575E61" stroke-width="3.00" stroke-miterlimit="0.00" transform="matrix(1.00, 0.00, 0.00, -1.00, 538.9, 296.9)"></path><path d="M 0.0 0.0 L 30.7 0.0 L 30.7 5.9 L 0.0 5.9 L 0.0 0.0 Z M 0.0 0.0 " fill="none" stroke="#575E61" stroke-width="3.00" stroke-miterlimit="0.00" transform="matrix(1.00, 0.00, 0.00, -1.00, 541.8, 302.7)"></path><path d="M 0.0 31.5 L 0.0 0.0 " fill="none" stroke="#575E61" stroke-width="3.00" stroke-miterlimit="0.00" transform="matrix(1.00, 0.00, 0.00, -1.00, 544.4, 334.3)"></path><path d="M 0.0 31.5 L 0.0 0.0 " fill="none" stroke="#575E61" stroke-width="3.00" stroke-miterlimit="0.00" transform="matrix(1.00, 0.00, 0.00, -1.00, 569.8, 334.3)"></path><path d="M 0.0 0.0 L 25.5 0.0 " fill="none" stroke="#575E61" stroke-width="1.00" stroke-miterlimit="0.00" transform="matrix(1.00, 0.00, 0.00, -1.00, 544.4, 309.1)"></path><path d="M 0.0 0.0 L 25.5 0.0 " fill="none" stroke="#575E61" stroke-width="1.00" stroke-miterlimit="0.00" transform="matrix(1.00, 0.00, 0.00, -1.00, 544.4, 315.4)"></path><path d="M 0.0 0.0 L 25.4 0.0 " fill="none" stroke="#575E61" stroke-width="3.00" stroke-miterlimit="0.00" transform="matrix(1.00, 0.00, 0.00, -1.00, 544.4, 321.7)"></path><path d="M 0.0 0.0 L 25.5 0.0 " fill="none" stroke="#575E61" stroke-width="1.00" stroke-miterlimit="0.00" transform="matrix(1.00, 0.00, 0.00, -1.00, 544.4, 328.1)"></path><path d="M 0.0 5.2 L 5.2 0.0 " fill="none" stroke="#575E61" stroke-width="3.00" stroke-miterlimit="0.00" transform="matrix(1.00, 0.00, 0.00, -1.00, 533.6, 271.5)"></path><path d="M 0.0 0.0 L 62.6 0.0 L 62.6 62.6 L 0.0 62.6 L 0.0 0.0 Z M 0.0 0.0 " fill="none" stroke="#575E61" stroke-width="3.00" stroke-miterlimit="0.00" transform="matrix(1.00, 0.00, 0.00, -1.00, 562.7, 423.5)"></path><path d="M 9.3 0.0 L 0.0 9.3 " fill="none" stroke="#575E61" stroke-width="3.00" stroke-miterlimit="0.00" transform="matrix(1.00, 0.00, 0.00, -1.00, 629.1, 522.5)"></path><path d="M 0.0 0.0 L 9.3 9.3 " fill="none" stroke="#575E61" stroke-width="3.00" stroke-miterlimit="0.00" transform="matrix(1.00, 0.00, 0.00, -1.00, 629.1, 522.5)"></path><text xml:space="preserve" font-family="Helvetica" font-size="24.0" fill="#000000" transform="matrix(1.00, 0.00, -0.00, -1.00, 575.7, 384.1)">0</text><text xml:space="preserve" font-family="Helvetica" font-size="24.0" fill="#000000" transform="matrix(1.00, 0.00, -0.00, -1.00, 589.1, 384.1)">0</text><text xml:space="preserve" font-family="Helvetica" font-size="24.0" fill="#000000" transform="matrix(1.00, 0.00, -0.00, -1.00, 602.5, 384.1)">6</text><path d="M 12.5 11.3 L 5.8 14.5 C 3.8 15.5 1.4 14.6 0.4 12.6 C -0.6 10.6 0.3 8.2 2.3 7.2 L 12.5 2.3 L 12.5 0.0 L 49.0 0.0 L 49.0 21.3 L 49.0 38.2 C 49.0 40.4 47.2 42.2 45.0 42.2 C 42.7 42.2 40.9 40.4 40.9 38.2 L 40.9 21.3 L 34.8 21.3 L 34.8 41.2 C 34.8 43.4 33.0 45.2 30.8 45.2 C 28.5 45.2 26.7 43.4 26.7 41.2 L 26.7 21.3 L 20.6 21.3 L 20.6 39.2 C 20.6 41.4 18.8 43.2 16.6 43.2 C 14.3 43.2 12.5 41.4 12.5 39.2 L 12.5 21.3 L 12.5 11.3 L 12.5 11.3 Z M 12.5 11.3 " fill="none" stroke="#575E61" stroke-width="3.00" stroke-miterlimit="0.00" transform="matrix(0.98, -0.19, -0.19, -0.98, 467.4, 341.9)"></path><path d="M 0.0 0.0 L 30.7 0.0 L 30.7 5.9 L 0.0 5.9 L 0.0 0.0 Z M 0.0 0.0 " fill="none" stroke="#575E61" stroke-width="3.00" stroke-miterlimit="0.00" transform="matrix(0.98, -0.19, -0.19, -0.98, 483.7, 344.7)"></path><path d="M 0.0 0.0 L 18.2 0.0 " fill="none" stroke="#575E61" stroke-width="3.00" stroke-miterlimit="0.00" transform="matrix(0.98, -0.19, -0.19, -0.98, 477.5, 328.4)"></path><path d="M 12.5 11.3 L 5.8 14.5 C 3.8 15.5 1.4 14.6 0.4 12.6 C -0.6 10.6 0.3 8.2 2.3 7.2 L 12.5 2.3 L 12.5 0.0 L 49.0 0.0 L 49.0 21.3 L 49.0 38.2 C 49.0 40.4 47.2 42.2 45.0 42.2 C 42.7 42.2 40.9 40.4 40.9 38.2 L 40.9 21.3 L 34.8 21.3 L 34.8 41.2 C 34.8 43.4 33.0 45.2 30.8 45.2 C 28.5 45.2 26.7 43.4 26.7 41.2 L 26.7 21.3 L 20.6 21.3 L 20.6 39.2 C 20.6 41.4 18.8 43.2 16.6 43.2 C 14.3 43.2 12.5 41.4 12.5 39.2 L 12.5 21.3 L 12.5 11.3 L 12.5 11.3 Z M 12.5 11.3 " fill="none" stroke="#575E61" stroke-width="3.00" stroke-miterlimit="0.00" transform="matrix(-0.98, -0.19, 0.19, -0.98, 720.4, 342.9)"></path><path d="M 0.0 0.0 L 30.7 0.0 L 30.7 5.9 L 0.0 5.9 L 0.0 0.0 Z M 0.0 0.0 " fill="none" stroke="#575E61" stroke-width="3.00" stroke-miterlimit="0.00" transform="matrix(-0.98, -0.19, 0.19, -0.98, 704.1, 345.7)"></path><path d="M 0.0 0.0 L 18.2 0.0 " fill="none" stroke="#575E61" stroke-width="3.00" stroke-miterlimit="0.00" transform="matrix(-0.98, -0.19, 0.19, -0.98, 710.3, 329.4)"></path></g></g><g><clipPath id="clip-1295"><path d="M 1134.0 259.0 L 1395.0 259.0 L 1395.0 555.0 L 1134.0 555.0 Z M 1134.0 259.0 "></path></clipPath><g clip-path="url(#clip-1295)"><path d="M 35.7 71.4 C 55.4 71.4 71.4 55.4 71.4 35.7 C 71.4 16.0 55.4 0.0 35.7 0.0 C 16.0 0.0 0.0 16.0 0.0 35.7 C 0.0 55.4 16.0 71.4 35.7 71.4 Z M 35.7 71.4 " fill="none" stroke="#575E61" stroke-width="3.00" stroke-miterlimit="0.00" transform="matrix(1.00, 0.00, 0.00, -1.00, 1269.0, 553.5)"></path><path d="M 29.9 59.7 C 13.4 59.7 0.0 46.3 0.0 29.9 C 0.0 13.4 13.4 0.0 29.9 0.0 C 46.3 0.0 59.7 13.4 59.7 29.9 C 59.7 46.3 46.3 59.7 29.9 59.7 L 29.9 59.7 Z M 29.9 59.7 " fill="none" stroke="#575E61" stroke-width="2.00" stroke-miterlimit="0.00" transform="matrix(1.00, 0.00, 0.00, -1.00, 1274.9, 547.7)"></path><path d="M 24.6 49.3 C 11.1 49.3 0.0 38.2 0.0 24.6 C 0.0 11.1 11.1 0.0 24.6 0.0 C 38.2 0.0 49.3 11.1 49.3 24.6 C 49.3 38.2 38.2 49.3 24.6 49.3 L 24.6 49.3 Z M 24.6 49.3 " fill="none" stroke="#575E61" stroke-width="6.00" stroke-miterlimit="0.00" transform="matrix(1.00, 0.00, 0.00, -1.00, 1280.1, 542.4)"></path><path d="M 20.6 41.3 C 9.3 41.3 0.0 32.0 0.0 20.6 C 0.0 9.3 9.3 0.0 20.6 0.0 C 32.0 0.0 41.3 9.3 41.3 20.6 C 41.3 32.0 32.0 41.3 20.6 41.3 L 20.6 41.3 Z M 20.6 41.3 " fill="none" stroke="#575E61" stroke-width="1.00" stroke-miterlimit="0.00" stroke-dasharray="2.0, 2.0" transform="matrix(1.00, 0.00, 0.00, -1.00, 1284.1, 538.4)"></path><path d="M 25.0 50.0 C 38.8 50.0 50.0 38.8 50.0 25.0 C 50.0 11.2 38.8 0.0 25.0 0.0 C 11.2 0.0 0.0 11.2 0.0 25.0 C 0.0 38.8 11.2 50.0 25.0 50.0 Z M 25.0 50.0 " fill="none" stroke="#575E61" stroke-width="3.00" stroke-miterlimit="0.00" transform="matrix(1.00, 0.00, 0.00, -1.00, 1189.5, 532.1)"></path><path d="M 19.2 38.3 C 8.6 38.3 0.0 29.7 0.0 19.2 C 0.0 8.6 8.6 0.0 19.2 0.0 C 29.7 0.0 38.3 8.6 38.3 19.2 C 38.3 29.7 29.7 38.3 19.2 38.3 L 19.2 38.3 Z M 19.2 38.3 " fill="none" stroke="#575E61" stroke-width="2.00" stroke-miterlimit="0.00" transform="matrix(1.00, 0.00, 0.00, -1.00, 1195.3, 526.3)"></path><path d="M 13.9 27.9 C 6.2 27.9 0.0 21.6 0.0 13.9 C 0.0 6.2 6.2 0.0 13.9 0.0 C 21.6 0.0 27.9 6.2 27.9 13.9 C 27.9 21.6 21.6 27.9 13.9 27.9 L 13.9 27.9 Z M 13.9 27.9 " fill="none" stroke="#575E61" stroke-width="6.00" stroke-miterlimit="0.00" transform="matrix(1.00, 0.00, 0.00, -1.00, 1200.6, 521.0)"></path><path d="M 9.9 19.9 C 4.5 19.9 0.0 15.4 0.0 9.9 C 0.0 4.5 4.5 0.0 9.9 0.0 C 15.4 0.0 19.9 4.5 19.9 9.9 C 19.9 15.4 15.4 19.9 9.9 19.9 L 9.9 19.9 Z M 9.9 19.9 " fill="none" stroke="#575E61" stroke-width="1.00" stroke-miterlimit="0.00" stroke-dasharray="1.9, 1.9" transform="matrix(1.00, 0.00, 0.00, -1.00, 1204.6, 517.0)"></path><path d="M 150.9 0.0 L 150.9 51.2 L 0.0 51.2 L 0.0 10.7 " fill="none" stroke="#575E61" stroke-width="3.00" stroke-miterlimit="0.00" transform="matrix(1.00, 0.00, 0.00, -1.00, 1189.5, 517.8)"></path><path d="M 35.7 0.0 L 20.6 18.6 L 0.0 18.6 " fill="none" stroke="#575E61" stroke-width="3.00" stroke-miterlimit="0.00" transform="matrix(1.00, 0.00, 0.00, -1.00, 1304.7, 466.6)"></path><path d="M 50.0 18.6 L 15.1 18.6 L 0.0 0.0 " fill="none" stroke="#575E61" stroke-width="3.00" stroke-miterlimit="0.00" transform="matrix(1.00, 0.00, 0.00, -1.00, 1189.5, 466.6)"></path><path d="M 120.6 0.0 L 120.6 70.8 L 0.0 70.8 L 0.0 0.0 " fill="none" stroke="#575E61" stroke-width="3.00" stroke-miterlimit="0.00" transform="matrix(1.00, 0.00, 0.00, -1.00, 1204.6, 410.9)"></path><path d="M 0.0 5.4 L 38.9 0.0 " fill="none" stroke="#575E61" stroke-width="3.00" stroke-miterlimit="0.00" transform="matrix(1.00, 0.00, 0.00, -1.00, 1232.3, 530.0)"></path><path d="M 9.1 0.0 L 0.0 0.0 L 0.0 30.4 L 9.1 30.4 " fill="none" stroke="#575E61" stroke-width="3.00" stroke-miterlimit="0.00" transform="matrix(1.00, 0.00, 0.00, -1.00, 1180.4, 507.1)"></path><path d="M 0.0 30.4 L 9.1 30.4 L 9.1 0.0 L 0.0 0.0 " fill="none" stroke="#575E61" stroke-width="3.00" stroke-miterlimit="0.00" transform="matrix(1.00, 0.00, 0.00, -1.00, 1340.4, 507.1)"></path><path d="M 30.8 0.0 L 0.0 0.0 " fill="none" stroke="#575E61" stroke-width="3.00" stroke-miterlimit="0.00" transform="matrix(1.00, 0.00, 0.00, -1.00, 1149.6, 491.9)"></path><path d="M 0.0 0.0 L 27.5 0.0 " fill="none" stroke="#575E61" stroke-width="3.00" stroke-miterlimit="0.00" transform="matrix(1.00, 0.00, 0.00, -1.00, 1349.5, 491.9)"></path><path d="M 5.2 10.5 C 8.1 10.5 10.5 8.1 10.5 5.2 C 10.5 2.3 8.1 0.0 5.2 0.0 C 2.3 0.0 0.0 2.3 0.0 5.2 C 0.0 8.1 2.3 10.5 5.2 10.5 Z M 5.2 10.5 " fill="none" stroke="#575E61" stroke-width="3.00" stroke-miterlimit="0.00" transform="matrix(1.00, 0.00, 0.00, -1.00, 1139.1, 497.1)"></path><path d="M 5.2 10.5 C 8.1 10.5 10.5 8.1 10.5 5.2 C 10.5 2.3 8.1 0.0 5.2 0.0 C 2.3 0.0 0.0 2.3 0.0 5.2 C 0.0 8.1 2.3 10.5 5.2 10.5 Z M 5.2 10.5 " fill="none" stroke="#575E61" stroke-width="3.00" stroke-miterlimit="0.00" transform="matrix(1.00, 0.00, 0.00, -1.00, 1377.1, 497.1)"></path><path d="M 11.7 0.0 L 0.0 0.0 " fill="none" stroke="#575E61" stroke-width="3.00" stroke-miterlimit="0.00" transform="matrix(1.00, 0.00, 0.00, -1.00, 1286.2, 448.0)"></path><path d="M 5.8 0.0 L 0.0 0.0 " fill="none" stroke="#575E61" stroke-width="3.00" stroke-miterlimit="0.00" transform="matrix(1.00, 0.00, 0.00, -1.00, 1273.1, 448.0)"></path><path d="M 0.0 3.2 L 34.5 0.0 " fill="none" stroke="#575E61" stroke-width="1.00" stroke-miterlimit="0.00" transform="matrix(1.00, 0.00, 0.00, -1.00, 1235.1, 524.3)"></path><path d="M 0.0 0.0 L 145.5 6.7 " fill="none" stroke="#575E61" stroke-width="1.00" stroke-miterlimit="0.00" transform="matrix(1.00, 0.00, 0.00, -1.00, 1189.5, 466.6)"></path><path d="M 0.0 0.0 L 51.1 0.0 " fill="none" stroke="#575E61" stroke-width="3.00" stroke-miterlimit="0.00" transform="matrix(1.00, 0.00, 0.00, -1.00, 1296.3, 410.9)"></path><path d="M 0.0 0.0 L 30.7 0.0 L 30.7 5.9 L 0.0 5.9 L 0.0 0.0 Z M 0.0 0.0 " fill="none" stroke="#575E61" stroke-width="3.00" stroke-miterlimit="0.00" transform="matrix(0.98, -0.21, -0.21, -0.98, 1154.8, 345.9)"></path><path d="M 22.1 0.0 C 13.8 12.0 6.4 24.4 0.0 37.0 L 51.1 37.0 " fill="none" stroke="#575E61" stroke-width="3.00" stroke-miterlimit="0.00" transform="matrix(1.00, 0.00, 0.00, -1.00, 1182.5, 448.0)"></path><path d="M 22.1 37.0 C 15.7 24.4 8.3 12.0 0.0 0.0 " fill="none" stroke="#575E61" stroke-width="3.00" stroke-miterlimit="0.00" transform="matrix(1.00, 0.00, 0.00, -1.00, 1325.3, 448.0)"></path><path d="M 0.0 65.6 C 5.6 43.2 13.7 21.2 24.5 0.0 " fill="none" stroke="#575E61" stroke-width="3.00" stroke-miterlimit="0.00" transform="matrix(1.00, 0.00, 0.00, -1.00, 1158.1, 410.9)"></path><path d="M 0.0 64.1 C 5.0 42.3 12.5 20.8 22.4 0.0 " fill="none" stroke="#575E61" stroke-width="3.00" stroke-miterlimit="0.00" transform="matrix(1.00, 0.00, 0.00, -1.00, 1182.2, 404.2)"></path><path d="M 0.0 0.0 L 21.6 8.3 " fill="none" stroke="#575E61" stroke-width="3.00" stroke-miterlimit="0.00" transform="matrix(1.00, 0.00, 0.00, -1.00, 1179.6, 405.1)"></path><path d="M 0.0 0.0 L 21.9 8.0 " fill="none" stroke="#575E61" stroke-width="1.00" stroke-miterlimit="0.00" transform="matrix(1.00, 0.00, 0.00, -1.00, 1176.6, 398.7)"></path><path d="M 0.0 0.0 L 22.3 7.6 " fill="none" stroke="#575E61" stroke-width="1.00" stroke-miterlimit="0.00" transform="matrix(1.00, 0.00, 0.00, -1.00, 1173.8, 392.2)"></path><path d="M 0.0 0.0 L 22.6 7.3 " fill="none" stroke="#575E61" stroke-width="1.00" stroke-miterlimit="0.00" transform="matrix(1.00, 0.00, 0.00, -1.00, 1171.1, 385.6)"></path><path d="M 0.0 0.0 L 22.9 7.0 " fill="none" stroke="#575E61" stroke-width="3.00" stroke-miterlimit="0.00" transform="matrix(1.00, 0.00, 0.00, -1.00, 1168.5, 379.0)"></path><path d="M 0.0 0.0 L 23.2 6.6 " fill="none" stroke="#575E61" stroke-width="1.00" stroke-miterlimit="0.00" transform="matrix(1.00, 0.00, 0.00, -1.00, 1166.1, 372.3)"></path><path d="M 0.0 0.0 L 23.4 6.3 " fill="none" stroke="#575E61" stroke-width="1.00" stroke-miterlimit="0.00" transform="matrix(1.00, 0.00, 0.00, -1.00, 1163.9, 365.6)"></path><path d="M 0.0 0.0 L 23.7 5.9 " fill="none" stroke="#575E61" stroke-width="1.00" stroke-miterlimit="0.00" transform="matrix(1.00, 0.00, 0.00, -1.00, 1161.8, 358.9)"></path><path d="M 0.0 0.0 L 23.9 5.6 " fill="none" stroke="#575E61" stroke-width="1.00" stroke-miterlimit="0.00" transform="matrix(1.00, 0.00, 0.00, -1.00, 1159.8, 352.1)"></path><path d="M 0.0 0.0 L 30.7 0.0 L 30.7 5.9 L 0.0 5.9 L 0.0 0.0 Z M 0.0 0.0 " fill="none" stroke="#575E61" stroke-width="3.00" stroke-miterlimit="0.00" transform="matrix(-0.98, -0.21, -0.21, 0.98, 1376.2, 340.4)"></path><path d="M 24.5 65.6 C 18.9 43.2 10.8 21.2 0.0 0.0 " fill="none" stroke="#575E61" stroke-width="3.00" stroke-miterlimit="0.00" transform="matrix(1.00, 0.00, 0.00, -1.00, 1347.4, 410.9)"></path><path d="M 22.4 64.1 C 17.4 42.3 9.9 20.8 0.0 0.0 " fill="none" stroke="#575E61" stroke-width="3.00" stroke-miterlimit="0.00" transform="matrix(1.00, 0.00, 0.00, -1.00, 1325.3, 404.2)"></path><path d="M 21.6 0.0 L 0.0 8.3 " fill="none" stroke="#575E61" stroke-width="3.00" stroke-miterlimit="0.00" transform="matrix(1.00, 0.00, 0.00, -1.00, 1328.7, 405.1)"></path><path d="M 21.9 0.0 L 0.0 8.0 " fill="none" stroke="#575E61" stroke-width="1.00" stroke-miterlimit="0.00" transform="matrix(1.00, 0.00, 0.00, -1.00, 1331.4, 398.7)"></path><path d="M 22.3 0.0 L 0.0 7.6 " fill="none" stroke="#575E61" stroke-width="1.00" stroke-miterlimit="0.00" transform="matrix(1.00, 0.00, 0.00, -1.00, 1333.9, 392.2)"></path><path d="M 22.6 0.0 L 0.0 7.3 " fill="none" stroke="#575E61" stroke-width="1.00" stroke-miterlimit="0.00" transform="matrix(1.00, 0.00, 0.00, -1.00, 1336.3, 385.6)"></path><path d="M 22.9 0.0 L 0.0 7.0 " fill="none" stroke="#575E61" stroke-width="3.00" stroke-miterlimit="0.00" transform="matrix(1.00, 0.00, 0.00, -1.00, 1338.5, 379.0)"></path><path d="M 23.2 0.0 L 0.0 6.6 " fill="none" stroke="#575E61" stroke-width="1.00" stroke-miterlimit="0.00" transform="matrix(1.00, 0.00, 0.00, -1.00, 1340.6, 372.3)"></path><path d="M 23.4 0.0 L 0.0 6.3 " fill="none" stroke="#575E61" stroke-width="1.00" stroke-miterlimit="0.00" transform="matrix(1.00, 0.00, 0.00, -1.00, 1342.6, 365.6)"></path><path d="M 23.7 0.0 L 0.0 5.9 " fill="none" stroke="#575E61" stroke-width="1.00" stroke-miterlimit="0.00" transform="matrix(1.00, 0.00, 0.00, -1.00, 1344.4, 358.9)"></path><path d="M 23.9 0.0 L 0.0 5.6 " fill="none" stroke="#575E61" stroke-width="1.00" stroke-miterlimit="0.00" transform="matrix(1.00, 0.00, 0.00, -1.00, 1346.1, 352.1)"></path><path d="M 0.0 0.0 L 30.7 0.0 L 30.7 5.9 L 0.0 5.9 L 0.0 0.0 Z M 0.0 0.0 " fill="none" stroke="#575E61" stroke-width="3.00" stroke-miterlimit="0.00" transform="matrix(1.00, 0.00, 0.00, -1.00, 1286.5, 340.1)"></path><path d="M 0.0 0.0 L 30.7 0.0 L 30.7 5.9 L 0.0 5.9 L 0.0 0.0 Z M 0.0 0.0 " fill="none" stroke="#575E61" stroke-width="3.00" stroke-miterlimit="0.00" transform="matrix(1.00, 0.00, 0.00, -1.00, 1294.6, 266.2)"></path><path d="M 36.5 30.6 L 36.5 0.0 L 0.0 0.0 L 0.0 36.5 L 11.0 36.5 " fill="none" stroke="#575E61" stroke-width="3.00" stroke-miterlimit="0.00" transform="matrix(1.00, 0.00, 0.00, -1.00, 1283.5, 296.9)"></path><path d="M 0.0 0.0 L 30.7 0.0 L 30.7 5.9 L 0.0 5.9 L 0.0 0.0 Z M 0.0 0.0 " fill="none" stroke="#575E61" stroke-width="3.00" stroke-miterlimit="0.00" transform="matrix(1.00, 0.00, 0.00, -1.00, 1286.4, 302.7)"></path><path d="M 0.0 31.5 L 0.0 0.0 " fill="none" stroke="#575E61" stroke-width="3.00" stroke-miterlimit="0.00" transform="matrix(1.00, 0.00, 0.00, -1.00, 1314.5, 334.3)"></path><path d="M 0.0 31.5 L 0.0 0.0 " fill="none" stroke="#575E61" stroke-width="3.00" stroke-miterlimit="0.00" transform="matrix(1.00, 0.00, 0.00, -1.00, 1289.1, 334.3)"></path><path d="M 25.5 0.0 L 0.0 0.0 " fill="none" stroke="#575E61" stroke-width="1.00" stroke-miterlimit="0.00" transform="matrix(1.00, 0.00, 0.00, -1.00, 1289.0, 309.1)"></path><path d="M 25.5 0.0 L 0.0 0.0 " fill="none" stroke="#575E61" stroke-width="1.00" stroke-miterlimit="0.00" transform="matrix(1.00, 0.00, 0.00, -1.00, 1289.0, 315.4)"></path><path d="M 25.4 0.0 L 0.0 0.0 " fill="none" stroke="#575E61" stroke-width="3.00" stroke-miterlimit="0.00" transform="matrix(1.00, 0.00, 0.00, -1.00, 1289.1, 321.7)"></path><path d="M 25.5 0.0 L 0.0 0.0 " fill="none" stroke="#575E61" stroke-width="1.00" stroke-miterlimit="0.00" transform="matrix(1.00, 0.00, 0.00, -1.00, 1289.0, 328.1)"></path><path d="M 5.2 5.2 L 0.0 0.0 " fill="none" stroke="#575E61" stroke-width="3.00" stroke-miterlimit="0.00" transform="matrix(1.00, 0.00, 0.00, -1.00, 1320.0, 271.5)"></path><path d="M 0.0 0.0 L 30.7 0.0 L 30.7 5.9 L 0.0 5.9 L 0.0 0.0 Z M 0.0 0.0 " fill="none" stroke="#575E61" stroke-width="3.00" stroke-miterlimit="0.00" transform="matrix(1.00, 0.00, 0.00, -1.00, 1212.7, 340.1)"></path><path d="M 0.0 0.0 L 30.7 0.0 L 30.7 5.9 L 0.0 5.9 L 0.0 0.0 Z M 0.0 0.0 " fill="none" stroke="#575E61" stroke-width="3.00" stroke-miterlimit="0.00" transform="matrix(1.00, 0.00, 0.00, -1.00, 1204.6, 266.2)"></path><path d="M 0.0 30.6 L 0.0 0.0 L 36.5 0.0 L 36.5 36.5 L 25.5 36.5 " fill="none" stroke="#575E61" stroke-width="3.00" stroke-miterlimit="0.00" transform="matrix(1.00, 0.00, 0.00, -1.00, 1209.9, 296.9)"></path><path d="M 0.0 0.0 L 30.7 0.0 L 30.7 5.9 L 0.0 5.9 L 0.0 0.0 Z M 0.0 0.0 " fill="none" stroke="#575E61" stroke-width="3.00" stroke-miterlimit="0.00" transform="matrix(1.00, 0.00, 0.00, -1.00, 1212.8, 302.7)"></path><path d="M 0.0 31.5 L 0.0 0.0 " fill="none" stroke="#575E61" stroke-width="3.00" stroke-miterlimit="0.00" transform="matrix(1.00, 0.00, 0.00, -1.00, 1215.4, 334.3)"></path><path d="M 0.0 31.5 L 0.0 0.0 " fill="none" stroke="#575E61" stroke-width="3.00" stroke-miterlimit="0.00" transform="matrix(1.00, 0.00, 0.00, -1.00, 1240.8, 334.3)"></path><path d="M 0.0 0.0 L 25.5 0.0 " fill="none" stroke="#575E61" stroke-width="1.00" stroke-miterlimit="0.00" transform="matrix(1.00, 0.00, 0.00, -1.00, 1215.4, 309.1)"></path><path d="M 0.0 0.0 L 25.5 0.0 " fill="none" stroke="#575E61" stroke-width="1.00" stroke-miterlimit="0.00" transform="matrix(1.00, 0.00, 0.00, -1.00, 1215.4, 315.4)"></path><path d="M 0.0 0.0 L 25.4 0.0 " fill="none" stroke="#575E61" stroke-width="3.00" stroke-miterlimit="0.00" transform="matrix(1.00, 0.00, 0.00, -1.00, 1215.4, 321.7)"></path><path d="M 0.0 0.0 L 25.5 0.0 " fill="none" stroke="#575E61" stroke-width="1.00" stroke-miterlimit="0.00" transform="matrix(1.00, 0.00, 0.00, -1.00, 1215.4, 328.1)"></path><path d="M 0.0 5.2 L 5.2 0.0 " fill="none" stroke="#575E61" stroke-width="3.00" stroke-miterlimit="0.00" transform="matrix(1.00, 0.00, 0.00, -1.00, 1204.6, 271.5)"></path><path d="M 0.0 0.0 L 62.6 0.0 L 62.6 62.6 L 0.0 62.6 L 0.0 0.0 Z M 0.0 0.0 " fill="none" stroke="#575E61" stroke-width="3.00" stroke-miterlimit="0.00" transform="matrix(1.00, 0.00, 0.00, -1.00, 1233.7, 423.5)"></path><path d="M 9.3 0.0 L 0.0 9.3 " fill="none" stroke="#575E61" stroke-width="3.00" stroke-miterlimit="0.00" transform="matrix(1.00, 0.00, 0.00, -1.00, 1300.1, 522.5)"></path><path d="M 0.0 0.0 L 9.3 9.3 " fill="none" stroke="#575E61" stroke-width="3.00" stroke-miterlimit="0.00" transform="matrix(1.00, 0.00, 0.00, -1.00, 1300.1, 522.5)"></path><text xml:space="preserve" font-family="Helvetica" font-size="24.0" fill="#000000" transform="matrix(1.00, 0.00, -0.00, -1.00, 1246.8, 384.1)">0</text><text xml:space="preserve" font-family="Helvetica" font-size="24.0" fill="#000000" transform="matrix(1.00, 0.00, -0.00, -1.00, 1260.1, 384.1)">0</text><text xml:space="preserve" font-family="Helvetica" font-size="24.0" fill="#000000" transform="matrix(1.00, 0.00, -0.00, -1.00, 1273.5, 384.1)">7</text><path d="M 12.5 11.3 L 5.8 14.5 C 3.8 15.5 1.4 14.6 0.4 12.6 C -0.6 10.6 0.3 8.2 2.3 7.2 L 12.5 2.3 L 12.5 0.0 L 49.0 0.0 L 49.0 21.3 L 49.0 38.2 C 49.0 40.4 47.2 42.2 45.0 42.2 C 42.7 42.2 40.9 40.4 40.9 38.2 L 40.9 21.3 L 34.8 21.3 L 34.8 41.2 C 34.8 43.4 33.0 45.2 30.8 45.2 C 28.5 45.2 26.7 43.4 26.7 41.2 L 26.7 21.3 L 20.6 21.3 L 20.6 39.2 C 20.6 41.4 18.8 43.2 16.6 43.2 C 14.3 43.2 12.5 41.4 12.5 39.2 L 12.5 21.3 L 12.5 11.3 L 12.5 11.3 Z M 12.5 11.3 " fill="none" stroke="#575E61" stroke-width="3.00" stroke-miterlimit="0.00" transform="matrix(0.98, -0.19, -0.19, -0.98, 1138.4, 341.9)"></path><path d="M 0.0 0.0 L 30.7 0.0 L 30.7 5.9 L 0.0 5.9 L 0.0 0.0 Z M 0.0 0.0 " fill="none" stroke="#575E61" stroke-width="3.00" stroke-miterlimit="0.00" transform="matrix(0.98, -0.19, -0.19, -0.98, 1154.7, 344.7)"></path><path d="M 0.0 0.0 L 18.2 0.0 " fill="none" stroke="#575E61" stroke-width="3.00" stroke-miterlimit="0.00" transform="matrix(0.98, -0.19, -0.19, -0.98, 1148.5, 328.4)"></path><path d="M 12.5 11.3 L 5.8 14.5 C 3.8 15.5 1.4 14.6 0.4 12.6 C -0.6 10.6 0.3 8.2 2.3 7.2 L 12.5 2.3 L 12.5 0.0 L 49.0 0.0 L 49.0 21.3 L 49.0 38.2 C 49.0 40.4 47.2 42.2 45.0 42.2 C 42.7 42.2 40.9 40.4 40.9 38.2 L 40.9 21.3 L 34.8 21.3 L 34.8 41.2 C 34.8 43.4 33.0 45.2 30.8 45.2 C 28.5 45.2 26.7 43.4 26.7 41.2 L 26.7 21.3 L 20.6 21.3 L 20.6 39.2 C 20.6 41.4 18.8 43.2 16.6 43.2 C 14.3 43.2 12.5 41.4 12.5 39.2 L 12.5 21.3 L 12.5 11.3 L 12.5 11.3 Z M 12.5 11.3 " fill="none" stroke="#575E61" stroke-width="3.00" stroke-miterlimit="0.00" transform="matrix(-0.98, -0.19, 0.19, -0.98, 1391.4, 342.9)"></path><path d="M 0.0 0.0 L 30.7 0.0 L 30.7 5.9 L 0.0 5.9 L 0.0 0.0 Z M 0.0 0.0 " fill="none" stroke="#575E61" stroke-width="3.00" stroke-miterlimit="0.00" transform="matrix(-0.98, -0.19, 0.19, -0.98, 1375.1, 345.7)"></path><path d="M 0.0 0.0 L 18.2 0.0 " fill="none" stroke="#575E61" stroke-width="3.00" stroke-miterlimit="0.00" transform="matrix(-0.98, -0.19, 0.19, -0.98, 1381.3, 329.4)"></path></g></g><text xml:space="preserve" font-family="Monaco" font-size="50.0" fill="#000000" transform="matrix(1.00, 0.00, -0.00, -1.00, 870.0, 784.0)">д</text><text xml:space="preserve" font-family="Monaco" font-size="50.0" fill="#000000" transform="matrix(1.00, 0.00, -0.00, -1.00, 900.0, 784.0)">а</text><text xml:space="preserve" font-family="Monaco" font-size="50.0" fill="#000000" transform="matrix(1.00, 0.00, -0.00, -1.00, 930.0, 784.0)">н</text><text xml:space="preserve" font-family="Monaco" font-size="50.0" fill="#000000" transform="matrix(1.00, 0.00, -0.00, -1.00, 960.0, 784.0)">н</text><text xml:space="preserve" font-family="Monaco" font-size="50.0" fill="#000000" transform="matrix(1.00, 0.00, -0.00, -1.00, 990.0, 784.0)">ы</text><text xml:space="preserve" font-family="Monaco" font-size="50.0" fill="#000000" transform="matrix(1.00, 0.00, -0.00, -1.00, 1020.0, 784.0)">е</text><text xml:space="preserve" font-family="Roboto-Light" font-size="60.0" fill="#000000" transform="matrix(1.00, 0.00, -0.00, -1.00, 167.0, 885.0)">М</text><text xml:space="preserve" font-family="Roboto-Light" font-size="60.0" fill="#000000" transform="matrix(1.00, 0.00, -0.00, -1.00, 218.9, 885.0)">ы</text><text xml:space="preserve" font-family="Roboto-Light" font-size="60.0" fill="#000000" transform="matrix(1.00, 0.00, -0.00, -1.00, 264.0, 885.0)"> </text><text xml:space="preserve" font-family="Roboto-Light" font-size="60.0" fill="#000000" transform="matrix(1.00, 0.00, -0.00, -1.00, 278.6, 885.0)">х</text><text xml:space="preserve" font-family="Roboto-Light" font-size="60.0" fill="#000000" transform="matrix(1.00, 0.00, -0.00, -1.00, 307.2, 885.0)">о</text><text xml:space="preserve" font-family="Roboto-Light" font-size="60.0" fill="#000000" transform="matrix(1.00, 0.00, -0.00, -1.00, 340.2, 885.0)">т</text><text xml:space="preserve" font-family="Roboto-Light" font-size="60.0" fill="#000000" transform="matrix(1.00, 0.00, -0.00, -1.00, 368.7, 885.0)">и</text><text xml:space="preserve" font-family="Roboto-Light" font-size="60.0" fill="#000000" transform="matrix(1.00, 0.00, -0.00, -1.00, 402.4, 885.0)">м</text><text xml:space="preserve" font-family="Roboto-Light" font-size="60.0" fill="#000000" transform="matrix(1.00, 0.00, -0.00, -1.00, 446.3, 885.0)">,</text><text xml:space="preserve" font-family="Roboto-Light" font-size="60.0" fill="#000000" transform="matrix(1.00, 0.00, -0.00, -1.00, 457.8, 885.0)"> </text><text xml:space="preserve" font-family="Roboto-Light" font-size="60.0" fill="#000000" transform="matrix(1.00, 0.00, -0.00, -1.00, 472.4, 885.0)">ч</text><text xml:space="preserve" font-family="Roboto-Light" font-size="60.0" fill="#000000" transform="matrix(1.00, 0.00, -0.00, -1.00, 504.3, 885.0)">т</text><text xml:space="preserve" font-family="Roboto-Light" font-size="60.0" fill="#000000" transform="matrix(1.00, 0.00, -0.00, -1.00, 531.6, 885.0)">о</text><text xml:space="preserve" font-family="Roboto-Light" font-size="60.0" fill="#000000" transform="matrix(1.00, 0.00, -0.00, -1.00, 565.2, 885.0)">б</text><text xml:space="preserve" font-family="Roboto-Light" font-size="60.0" fill="#000000" transform="matrix(1.00, 0.00, -0.00, -1.00, 598.2, 885.0)">ы</text><text xml:space="preserve" font-family="Roboto-Light" font-size="60.0" fill="#000000" transform="matrix(1.00, 0.00, -0.00, -1.00, 971.0, 644.0)">п</text><text xml:space="preserve" font-family="Roboto-Light" font-size="60.0" fill="#000000" transform="matrix(1.00, 0.00, -0.00, -1.00, 1004.7, 644.0)">о</text><text xml:space="preserve" font-family="Roboto-Light" font-size="60.0" fill="#000000" transform="matrix(1.00, 0.00, -0.00, -1.00, 1036.2, 644.0)">д</text><text xml:space="preserve" font-family="Roboto-Light" font-size="60.0" fill="#000000" transform="matrix(1.00, 0.00, -0.00, -1.00, 1070.6, 644.0)">х</text><text xml:space="preserve" font-family="Roboto-Light" font-size="60.0" fill="#000000" transform="matrix(1.00, 0.00, -0.00, -1.00, 1099.2, 644.0)">о</text><text xml:space="preserve" font-family="Roboto-Light" font-size="60.0" fill="#000000" transform="matrix(1.00, 0.00, -0.00, -1.00, 1130.7, 644.0)">д</text><text xml:space="preserve" font-family="Roboto-Light" font-size="60.0" fill="#000000" transform="matrix(1.00, 0.00, -0.00, -1.00, 1165.1, 644.0)">и</text><text xml:space="preserve" font-family="Roboto-Light" font-size="60.0" fill="#000000" transform="matrix(1.00, 0.00, -0.00, -1.00, 1198.9, 644.0)">л</text><text xml:space="preserve" font-family="Roboto-Light" font-size="60.0" fill="#000000" transform="matrix(1.00, 0.00, -0.00, -1.00, 1232.6, 644.0)">и</text><text xml:space="preserve" font-family="Roboto-Light" font-size="60.0" fill="#000000" transform="matrix(1.00, 0.00, -0.00, -1.00, 1266.4, 644.0)"> </text><text xml:space="preserve" font-family="Roboto-Light" font-size="60.0" fill="#000000" transform="matrix(1.00, 0.00, -0.00, -1.00, 1281.0, 644.0)">о</text><text xml:space="preserve" font-family="Roboto-Light" font-size="60.0" fill="#000000" transform="matrix(1.00, 0.00, -0.00, -1.00, 1312.5, 644.0)">д</text><text xml:space="preserve" font-family="Roboto-Light" font-size="60.0" fill="#000000" transform="matrix(1.00, 0.00, -0.00, -1.00, 1346.9, 644.0)">и</text><text xml:space="preserve" font-family="Roboto-Light" font-size="60.0" fill="#000000" transform="matrix(1.00, 0.00, -0.00, -1.00, 1380.6, 644.0)">н</text><text xml:space="preserve" font-family="Roboto-Light" font-size="60.0" fill="#000000" transform="matrix(1.00, 0.00, -0.00, -1.00, 1414.3, 644.0)">а</text><text xml:space="preserve" font-family="Roboto-Light" font-size="60.0" fill="#000000" transform="matrix(1.00, 0.00, -0.00, -1.00, 1446.4, 644.0)">к</text><text xml:space="preserve" font-family="Roboto-Light" font-size="60.0" fill="#000000" transform="matrix(1.00, 0.00, -0.00, -1.00, 1476.9, 644.0)">о</text><text xml:space="preserve" font-family="Roboto-Light" font-size="60.0" fill="#000000" transform="matrix(1.00, 0.00, -0.00, -1.00, 1510.5, 644.0)">в</text><text xml:space="preserve" font-family="Roboto-Light" font-size="60.0" fill="#000000" transform="matrix(1.00, 0.00, -0.00, -1.00, 1544.1, 644.0)">о</text><text xml:space="preserve" font-family="Roboto-Light" font-size="60.0" fill="#000000" transform="matrix(1.00, 0.00, -0.00, -1.00, 1577.7, 644.0)"> </text><text xml:space="preserve" font-family="Roboto-Light" font-size="60.0" fill="#000000" transform="matrix(1.00, 0.00, -0.00, -1.00, 1592.3, 644.0)">х</text><text xml:space="preserve" font-family="Roboto-Light" font-size="60.0" fill="#000000" transform="matrix(1.00, 0.00, -0.00, -1.00, 1620.9, 644.0)">о</text><text xml:space="preserve" font-family="Roboto-Light" font-size="60.0" fill="#000000" transform="matrix(1.00, 0.00, -0.00, -1.00, 1654.5, 644.0)">р</text><text xml:space="preserve" font-family="Roboto-Light" font-size="60.0" fill="#000000" transform="matrix(1.00, 0.00, -0.00, -1.00, 1687.8, 644.0)">о</text><text xml:space="preserve" font-family="Roboto-Light" font-size="60.0" fill="#000000" transform="matrix(1.00, 0.00, -0.00, -1.00, 1721.4, 644.0)">ш</text><text xml:space="preserve" font-family="Roboto-Light" font-size="60.0" fill="#000000" transform="matrix(1.00, 0.00, -0.00, -1.00, 1769.0, 644.0)">о</text><text xml:space="preserve" font-family="Roboto-Light" font-size="60.0" fill="#000000" transform="matrix(1.00, 0.00, -0.00, -1.00, 1181.0, 113.0)">д</text><text xml:space="preserve" font-family="Roboto-Light" font-size="60.0" fill="#000000" transform="matrix(1.00, 0.00, -0.00, -1.00, 1215.4, 113.0)">л</text><text xml:space="preserve" font-family="Roboto-Light" font-size="60.0" fill="#000000" transform="matrix(1.00, 0.00, -0.00, -1.00, 1249.2, 113.0)">я</text><text xml:space="preserve" font-family="Roboto-Light" font-size="60.0" fill="#000000" transform="matrix(1.00, 0.00, -0.00, -1.00, 1281.8, 113.0)"> </text><text xml:space="preserve" font-family="Roboto-Medium" font-size="60.0" fill="#000000" transform="matrix(1.00, 0.00, -0.00, -1.00, 1296.3, 113.0)">в</text><text xml:space="preserve" font-family="Roboto-Medium" font-size="60.0" fill="#000000" transform="matrix(1.00, 0.00, -0.00, -1.00, 1330.5, 113.0)">с</text><text xml:space="preserve" font-family="Roboto-Medium" font-size="60.0" fill="#000000" transform="matrix(1.00, 0.00, -0.00, -1.00, 1361.9, 113.0)">е</text><text xml:space="preserve" font-family="Roboto-Medium" font-size="60.0" fill="#000000" transform="matrix(1.00, 0.00, -0.00, -1.00, 1394.1, 113.0)">х</text><text xml:space="preserve" font-family="Roboto-Medium" font-size="60.0" fill="#000000" transform="matrix(1.00, 0.00, -0.00, -1.00, 1424.3, 113.0)"> </text><text xml:space="preserve" font-family="Roboto-Medium" font-size="60.0" fill="#000000" transform="matrix(1.00, 0.00, -0.00, -1.00, 1439.2, 113.0)">в</text><text xml:space="preserve" font-family="Roboto-Medium" font-size="60.0" fill="#000000" transform="matrix(1.00, 0.00, -0.00, -1.00, 1473.4, 113.0)">е</text><text xml:space="preserve" font-family="Roboto-Medium" font-size="60.0" fill="#000000" transform="matrix(1.00, 0.00, -0.00, -1.00, 1505.6, 113.0)">р</text><text xml:space="preserve" font-family="Roboto-Medium" font-size="60.0" fill="#000000" transform="matrix(1.00, 0.00, -0.00, -1.00, 1539.4, 113.0)">с</text><text xml:space="preserve" font-family="Roboto-Medium" font-size="60.0" fill="#000000" transform="matrix(1.00, 0.00, -0.00, -1.00, 1570.8, 113.0)">и</text><text xml:space="preserve" font-family="Roboto-Medium" font-size="60.0" fill="#000000" transform="matrix(1.00, 0.00, -0.00, -1.00, 1605.3, 113.0)">й</text><text xml:space="preserve" font-family="Roboto-Medium" font-size="60.0" fill="#000000" transform="matrix(1.00, 0.00, -0.00, -1.00, 1639.7, 113.0)"> </text><text xml:space="preserve" font-family="Roboto-Medium" font-size="60.0" fill="#000000" transform="matrix(1.00, 0.00, -0.00, -1.00, 1654.7, 113.0)">а</text><text xml:space="preserve" font-family="Roboto-Medium" font-size="60.0" fill="#000000" transform="matrix(1.00, 0.00, -0.00, -1.00, 1687.1, 113.0)">к</text><text xml:space="preserve" font-family="Roboto-Medium" font-size="60.0" fill="#000000" transform="matrix(1.00, 0.00, -0.00, -1.00, 1720.3, 113.0)">т</text><text xml:space="preserve" font-family="Roboto-Medium" font-size="60.0" fill="#000000" transform="matrix(1.00, 0.00, -0.00, -1.00, 1749.1, 113.0)">о</text><text xml:space="preserve" font-family="Roboto-Medium" font-size="60.0" fill="#000000" transform="matrix(1.00, 0.00, -0.00, -1.00, 1783.3, 113.0)">р</text><text xml:space="preserve" font-family="Roboto-Medium" font-size="60.0" fill="#000000" transform="matrix(1.00, 0.00, -0.00, -1.00, 1817.1, 113.0)">о</text><text xml:space="preserve" font-family="Roboto-Medium" font-size="60.0" fill="#000000" transform="matrix(1.00, 0.00, -0.00, -1.00, 1851.2, 113.0)">в</text></g></svg>