<?xml version="1.0" encoding="UTF-8" standalone="no"?><svg xmlns="http://www.w3.org/2000/svg" xmlns:xlink="http://www.w3.org/1999/xlink" clip-rule="evenodd" stroke-miterlimit="4.00" viewBox="0 0 1920 1080"><desc>SVG generated by Keynote</desc><defs></defs><g transform="matrix(1.00, 0.00, -0.00, -1.00, 0.0, 1080.0)"><path d="M 0.0 1080.0 L 1920.0 1080.0 L 1920.0 0.0 L 0.0 0.0 Z M 0.0 1080.0 " fill="#FECF60"></path><g><clipPath id="clip-158"><path d="M 1785.0 64.0 L 1906.0 64.0 L 1906.0 -3.0 L 1785.0 -3.0 Z M 1785.0 64.0 "></path></clipPath><g clip-path="url(#clip-158)"><g><clipPath id="clip-159"><path d="M 1785.0 -3.0 L 1905.6 -3.0 L 1905.6 64.0 L 1785.0 64.0 Z M 1785.0 -3.0 "></path></clipPath><g clip-path="url(#clip-159)"><path d="M 1903.6 44.0 C 1902.4 44.0 1901.5 43.2 1901.2 42.1 L 1892.4 42.1 L 1892.4 47.0 C 1892.4 47.3 1892.2 47.5 1891.9 47.5 L 1889.1 47.5 L 1889.1 50.8 L 1889.1 50.8 L 1889.1 50.8 C 1889.1 58.1 1883.2 64.0 1875.8 64.0 C 1870.2 64.0 1865.4 60.5 1863.5 55.6 L 1850.1 53.8 C 1848.4 55.4 1846.1 56.4 1843.6 56.4 C 1838.5 56.4 1834.4 52.5 1834.1 47.5 L 1831.4 47.5 C 1831.1 47.5 1830.8 47.3 1830.8 47.0 L 1830.8 42.1 L 1820.8 42.1 C 1820.5 43.2 1819.6 44.0 1818.4 44.0 C 1817.1 44.0 1816.0 42.9 1816.0 41.6 C 1816.0 40.3 1817.1 39.2 1818.4 39.2 C 1819.6 39.2 1820.5 40.0 1820.8 41.0 L 1830.8 41.0 L 1830.8 36.2 C 1830.8 35.9 1831.1 35.6 1831.4 35.6 L 1834.1 35.6 L 1834.1 32.6 C 1834.1 32.6 1834.1 32.6 1834.1 32.6 C 1834.1 32.5 1834.1 32.5 1834.1 32.5 C 1834.1 32.5 1834.1 32.5 1834.1 32.5 C 1834.1 32.4 1834.1 32.4 1834.1 32.4 C 1834.1 32.4 1834.1 32.4 1834.1 32.4 C 1834.1 32.3 1834.1 32.3 1834.2 32.3 C 1834.2 32.3 1834.2 32.3 1834.2 32.3 C 1834.2 32.3 1834.2 32.3 1834.2 32.3 L 1839.4 25.9 C 1836.5 21.8 1833.9 17.5 1831.7 13.1 C 1831.7 13.1 1831.6 13.0 1831.6 13.0 C 1830.9 11.6 1830.2 10.2 1829.6 8.7 C 1829.6 8.7 1829.5 8.7 1829.5 8.7 C 1829.5 8.7 1829.5 8.7 1829.5 8.7 C 1829.0 7.6 1828.5 6.5 1828.1 5.4 C 1825.4 11.1 1823.3 17.1 1821.8 23.2 L 1823.0 23.6 C 1823.4 23.8 1823.8 24.2 1824.0 24.7 C 1824.3 25.2 1824.3 25.7 1824.1 26.2 C 1823.7 27.2 1822.5 27.7 1821.5 27.3 L 1821.0 27.1 L 1821.0 30.8 C 1821.0 31.9 1820.1 32.8 1819.0 32.8 C 1817.9 32.8 1817.1 31.9 1817.0 30.8 L 1817.0 31.9 C 1817.0 33.0 1816.2 33.8 1815.1 33.8 C 1814.0 33.8 1813.1 33.0 1813.1 31.9 L 1813.1 26.9 L 1813.1 26.9 L 1813.1 29.5 C 1813.1 30.6 1812.2 31.5 1811.1 31.5 C 1810.0 31.5 1809.1 30.6 1809.1 29.5 L 1809.1 26.4 L 1809.1 26.4 L 1809.1 26.4 C 1809.1 26.3 1809.1 26.3 1809.1 26.3 C 1809.1 26.3 1809.1 26.3 1809.1 26.3 C 1809.7 23.3 1810.3 20.5 1811.1 17.6 C 1811.1 17.6 1811.1 17.5 1811.1 17.5 C 1811.1 17.5 1811.1 17.5 1811.1 17.5 C 1811.8 15.1 1812.5 12.7 1813.4 10.4 C 1813.4 10.3 1813.4 10.3 1813.4 10.3 C 1813.4 10.3 1813.4 10.3 1813.4 10.3 C 1814.9 5.8 1816.8 1.5 1818.9 -2.7 C 1818.9 -2.7 1818.9 -2.7 1818.9 -2.7 C 1818.9 -2.8 1818.9 -2.8 1819.0 -2.8 C 1819.0 -2.8 1819.0 -2.8 1819.0 -2.8 C 1819.0 -2.9 1819.0 -2.9 1819.1 -2.9 C 1819.1 -2.9 1819.1 -2.9 1819.1 -2.9 C 1819.1 -2.9 1819.2 -3.0 1819.2 -3.0 C 1819.2 -3.0 1819.2 -3.0 1819.2 -3.0 C 1819.3 -3.0 1819.3 -3.0 1819.4 -3.0 C 1819.4 -3.0 1819.4 -3.0 1819.4 -3.0 C 1819.4 -3.0 1819.4 -3.0 1819.4 -3.0 L 1831.5 -3.0 C 1831.5 -3.0 1831.5 -3.0 1831.5 -3.0 C 1831.5 -3.0 1831.5 -3.0 1831.5 -3.0 L 1837.1 -3.0 C 1837.1 -3.0 1837.1 -3.0 1837.1 -3.0 C 1837.1 -3.0 1837.1 -3.0 1837.1 -3.0 L 1857.0 -3.0 C 1857.0 -3.0 1857.0 -3.0 1857.0 -3.0 C 1857.0 -3.0 1857.0 -3.0 1857.0 -3.0 L 1866.2 -3.0 C 1866.2 -3.0 1866.2 -3.0 1866.2 -3.0 C 1866.2 -3.0 1866.2 -3.0 1866.2 -3.0 L 1886.1 -3.0 C 1886.1 -3.0 1886.1 -3.0 1886.1 -3.0 C 1886.1 -3.0 1886.1 -3.0 1886.1 -3.0 L 1894.1 -3.0 C 1894.1 -3.0 1894.1 -3.0 1894.1 -3.0 C 1894.1 -3.0 1894.1 -3.0 1894.1 -3.0 L 1897.5 -3.0 C 1897.5 -3.0 1897.5 -3.0 1897.5 -3.0 C 1897.5 -3.0 1897.5 -3.0 1897.5 -3.0 C 1897.6 -3.0 1897.6 -3.0 1897.7 -3.0 C 1897.7 -3.0 1897.7 -3.0 1897.7 -3.0 C 1897.7 -3.0 1897.7 -3.0 1897.7 -3.0 C 1897.7 -3.0 1897.7 -2.9 1897.7 -2.9 C 1897.8 -2.9 1897.8 -2.9 1897.8 -2.9 C 1897.8 -2.9 1897.8 -2.9 1897.8 -2.9 C 1897.8 -2.9 1897.9 -2.9 1897.9 -2.9 C 1897.9 -2.8 1897.9 -2.8 1897.9 -2.8 C 1897.9 -2.8 1897.9 -2.8 1897.9 -2.8 C 1897.9 -2.8 1898.0 -2.7 1898.0 -2.7 C 1898.0 -2.7 1898.0 -2.7 1898.0 -2.7 C 1898.0 -2.7 1898.0 -2.7 1898.0 -2.6 C 1898.0 -2.6 1898.0 -2.6 1898.0 -2.6 C 1898.0 -2.6 1898.0 -2.6 1898.0 -2.5 C 1898.0 -2.5 1898.0 -2.5 1898.0 -2.5 C 1898.0 -2.5 1898.0 -2.5 1898.0 -2.5 C 1898.0 -2.5 1898.0 -2.4 1898.0 -2.4 C 1898.0 -2.4 1898.0 -2.4 1898.0 -2.4 C 1898.0 -2.4 1898.0 -2.3 1898.0 -2.3 C 1898.0 -2.3 1898.0 -2.3 1898.0 -2.3 C 1897.9 -1.8 1897.7 -1.4 1897.5 -0.9 C 1897.5 -0.9 1897.5 -0.8 1897.5 -0.8 C 1896.4 2.4 1895.1 5.6 1893.7 8.7 C 1893.7 8.7 1893.7 8.7 1893.7 8.7 C 1893.7 8.7 1893.7 8.7 1893.7 8.7 C 1893.0 10.2 1892.3 11.6 1891.6 13.0 C 1891.6 13.0 1891.6 13.1 1891.5 13.1 C 1889.3 17.5 1886.7 21.8 1883.9 25.9 L 1889.0 32.3 C 1889.0 32.3 1889.0 32.3 1889.0 32.3 C 1889.0 32.3 1889.1 32.3 1889.1 32.3 C 1889.1 32.3 1889.1 32.3 1889.1 32.4 C 1889.1 32.4 1889.1 32.4 1889.1 32.4 C 1889.1 32.4 1889.1 32.4 1889.1 32.5 C 1889.1 32.5 1889.1 32.5 1889.1 32.5 C 1889.1 32.5 1889.1 32.5 1889.1 32.6 C 1889.1 32.6 1889.1 32.6 1889.1 32.6 L 1889.1 35.6 L 1891.9 35.6 C 1892.2 35.6 1892.4 35.9 1892.4 36.2 L 1892.4 41.0 L 1901.2 41.0 C 1901.5 40.0 1902.4 39.2 1903.6 39.2 C 1904.9 39.2 1906.0 40.3 1906.0 41.6 C 1906.0 42.9 1904.9 44.0 1903.6 44.0 " fill="#E9C05A"></path><path d="M 1879.5 44.0 C 1878.3 44.0 1877.4 43.2 1877.1 42.1 L 1868.3 42.1 L 1868.3 47.0 C 1868.3 47.3 1868.1 47.5 1867.8 47.5 L 1865.0 47.5 L 1865.0 50.8 L 1865.0 50.8 L 1865.0 50.8 C 1865.0 58.1 1859.1 64.0 1851.7 64.0 C 1846.1 64.0 1841.3 60.5 1839.4 55.6 L 1826.0 53.8 C 1824.3 55.4 1822.0 56.4 1819.5 56.4 C 1814.4 56.4 1810.3 52.5 1810.0 47.5 L 1807.3 47.5 C 1807.0 47.5 1806.7 47.3 1806.7 47.0 L 1806.7 42.1 L 1796.7 42.1 C 1796.4 43.2 1795.5 44.0 1794.3 44.0 C 1793.0 44.0 1791.9 42.9 1791.9 41.6 C 1791.9 40.3 1793.0 39.2 1794.3 39.2 C 1795.5 39.2 1796.4 40.0 1796.7 41.0 L 1806.7 41.0 L 1806.7 36.2 C 1806.7 35.9 1807.0 35.6 1807.3 35.6 L 1810.0 35.6 L 1810.0 32.6 C 1810.0 32.6 1810.0 32.6 1810.0 32.6 C 1810.0 32.5 1810.0 32.5 1810.0 32.5 C 1810.0 32.5 1810.0 32.5 1810.0 32.5 C 1810.0 32.4 1810.0 32.4 1810.0 32.4 C 1810.0 32.4 1810.0 32.4 1810.0 32.4 C 1810.0 32.3 1810.0 32.3 1810.1 32.3 C 1810.1 32.3 1810.1 32.3 1810.1 32.3 C 1810.1 32.3 1810.1 32.3 1810.1 32.3 L 1815.3 25.9 C 1812.4 21.8 1809.8 17.5 1807.6 13.1 C 1807.5 13.1 1807.5 13.0 1807.5 13.0 C 1806.8 11.6 1806.1 10.2 1805.5 8.7 C 1805.5 8.7 1805.4 8.7 1805.4 8.7 C 1805.4 8.7 1805.4 8.7 1805.4 8.7 C 1804.9 7.6 1804.4 6.5 1804.0 5.4 C 1801.3 11.1 1799.2 17.1 1797.7 23.2 L 1798.9 23.6 C 1799.3 23.8 1799.7 24.2 1799.9 24.7 C 1800.2 25.2 1800.2 25.7 1800.0 26.2 C 1799.6 27.2 1798.4 27.7 1797.4 27.3 L 1796.9 27.1 L 1796.9 30.8 C 1796.9 31.9 1796.0 32.8 1794.9 32.8 C 1793.8 32.8 1793.0 31.9 1792.9 30.8 L 1792.9 31.9 C 1792.9 33.0 1792.0 33.8 1791.0 33.8 C 1789.9 33.8 1789.0 33.0 1789.0 31.9 L 1789.0 26.9 L 1789.0 26.9 L 1789.0 29.5 C 1789.0 30.6 1788.1 31.5 1787.0 31.5 C 1785.9 31.5 1785.0 30.6 1785.0 29.5 L 1785.0 26.4 L 1785.0 26.4 L 1785.0 26.4 C 1785.0 26.3 1785.0 26.3 1785.0 26.3 C 1785.0 26.3 1785.0 26.3 1785.0 26.3 C 1785.6 23.3 1786.2 20.5 1787.0 17.6 C 1787.0 17.6 1787.0 17.5 1787.0 17.5 C 1787.0 17.5 1787.0 17.5 1787.0 17.5 C 1787.7 15.1 1788.4 12.7 1789.3 10.4 C 1789.3 10.3 1789.3 10.3 1789.3 10.3 C 1789.3 10.3 1789.3 10.3 1789.3 10.3 C 1790.8 5.8 1792.7 1.5 1794.8 -2.7 C 1794.8 -2.7 1794.8 -2.7 1794.8 -2.7 C 1794.8 -2.8 1794.8 -2.8 1794.9 -2.8 C 1794.9 -2.8 1794.9 -2.8 1794.9 -2.8 C 1794.9 -2.9 1794.9 -2.9 1795.0 -2.9 C 1795.0 -2.9 1795.0 -2.9 1795.0 -2.9 C 1795.0 -2.9 1795.1 -3.0 1795.1 -3.0 C 1795.1 -3.0 1795.1 -3.0 1795.1 -3.0 C 1795.2 -3.0 1795.2 -3.0 1795.3 -3.0 C 1795.3 -3.0 1795.3 -3.0 1795.3 -3.0 C 1795.3 -3.0 1795.3 -3.0 1795.3 -3.0 L 1807.4 -3.0 C 1807.4 -3.0 1807.4 -3.0 1807.4 -3.0 C 1807.4 -3.0 1807.4 -3.0 1807.4 -3.0 L 1813.0 -3.0 C 1813.0 -3.0 1813.0 -3.0 1813.0 -3.0 C 1813.0 -3.0 1813.0 -3.0 1813.0 -3.0 L 1832.9 -3.0 C 1832.9 -3.0 1832.9 -3.0 1832.9 -3.0 C 1832.9 -3.0 1832.9 -3.0 1832.9 -3.0 L 1842.1 -3.0 C 1842.1 -3.0 1842.1 -3.0 1842.1 -3.0 C 1842.1 -3.0 1842.1 -3.0 1842.1 -3.0 L 1862.0 -3.0 C 1862.0 -3.0 1862.0 -3.0 1862.0 -3.0 C 1862.0 -3.0 1862.0 -3.0 1862.0 -3.0 L 1870.0 -3.0 C 1870.0 -3.0 1870.0 -3.0 1870.0 -3.0 C 1870.0 -3.0 1870.0 -3.0 1870.0 -3.0 L 1873.4 -3.0 C 1873.4 -3.0 1873.4 -3.0 1873.4 -3.0 C 1873.4 -3.0 1873.4 -3.0 1873.4 -3.0 C 1873.5 -3.0 1873.5 -3.0 1873.5 -3.0 C 1873.6 -3.0 1873.6 -3.0 1873.6 -3.0 C 1873.6 -3.0 1873.6 -3.0 1873.6 -3.0 C 1873.6 -3.0 1873.6 -2.9 1873.6 -2.9 C 1873.7 -2.9 1873.7 -2.9 1873.7 -2.9 C 1873.7 -2.9 1873.7 -2.9 1873.7 -2.9 C 1873.7 -2.9 1873.8 -2.9 1873.8 -2.9 C 1873.8 -2.8 1873.8 -2.8 1873.8 -2.8 C 1873.8 -2.8 1873.8 -2.8 1873.8 -2.8 C 1873.8 -2.8 1873.9 -2.7 1873.9 -2.7 C 1873.9 -2.7 1873.9 -2.7 1873.9 -2.7 C 1873.9 -2.7 1873.9 -2.7 1873.9 -2.6 C 1873.9 -2.6 1873.9 -2.6 1873.9 -2.6 C 1873.9 -2.6 1873.9 -2.6 1873.9 -2.5 C 1873.9 -2.5 1873.9 -2.5 1873.9 -2.5 C 1873.9 -2.5 1873.9 -2.5 1873.9 -2.5 C 1873.9 -2.5 1873.9 -2.4 1873.9 -2.4 C 1873.9 -2.4 1873.9 -2.4 1873.9 -2.4 C 1873.9 -2.4 1873.9 -2.3 1873.9 -2.3 C 1873.9 -2.3 1873.9 -2.3 1873.9 -2.3 C 1873.7 -1.8 1873.6 -1.4 1873.4 -0.9 C 1873.4 -0.9 1873.4 -0.8 1873.4 -0.8 C 1872.3 2.4 1871.0 5.6 1869.6 8.7 C 1869.6 8.7 1869.6 8.7 1869.6 8.7 C 1869.6 8.7 1869.6 8.7 1869.6 8.7 C 1868.9 10.2 1868.2 11.6 1867.5 13.0 C 1867.5 13.0 1867.5 13.1 1867.4 13.1 C 1865.2 17.5 1862.6 21.8 1859.8 25.9 L 1864.9 32.3 C 1864.9 32.3 1864.9 32.3 1864.9 32.3 C 1864.9 32.3 1865.0 32.3 1865.0 32.3 C 1865.0 32.3 1865.0 32.3 1865.0 32.4 C 1865.0 32.4 1865.0 32.4 1865.0 32.4 C 1865.0 32.4 1865.0 32.4 1865.0 32.5 C 1865.0 32.5 1865.0 32.5 1865.0 32.5 C 1865.0 32.5 1865.0 32.5 1865.0 32.6 C 1865.0 32.6 1865.0 32.6 1865.0 32.6 L 1865.0 35.6 L 1867.8 35.6 C 1868.1 35.6 1868.3 35.9 1868.3 36.2 L 1868.3 41.0 L 1877.1 41.0 C 1877.4 40.0 1878.3 39.2 1879.5 39.2 C 1880.8 39.2 1881.9 40.3 1881.9 41.6 C 1881.9 42.9 1880.8 44.0 1879.5 44.0 " fill="#FED97B"></path><path d="M 0.0 0.0 L 106.1 0.0 C 109.5 -4.8 111.5 -10.6 111.5 -16.9 C 111.5 -28.3 104.9 -38.2 95.3 -43.0 " fill="none" stroke="#393E50" stroke-width="3.00" stroke-miterlimit="0.00" stroke-linecap="round" stroke-linejoin="round" transform="matrix(0.36, 0.00, 0.00, 0.36, 1808.0, 12.8)"></path><path d="M 0.0 0.0 C 8.6 21.3 19.7 42.0 33.3 61.7 " fill="none" stroke="#393E50" stroke-width="3.00" stroke-miterlimit="0.00" stroke-linecap="round" stroke-linejoin="round" transform="matrix(0.36, 0.00, 0.00, 0.36, 1804.0, 4.0)"></path><path d="M 0.0 0.0 C 5.3 -2.2 10.5 -4.8 15.5 -7.7 L 47.5 -10.1 " fill="none" stroke="#393E50" stroke-width="1.00" stroke-miterlimit="0.00" stroke-linecap="round" stroke-linejoin="round" transform="matrix(0.36, 0.00, 0.00, 0.36, 1810.4, 12.8)"></path><path d="M 0.0 0.0 C -7.9 4.5 -16.1 8.5 -24.5 11.9 " fill="none" stroke="#393E50" stroke-width="1.00" stroke-miterlimit="0.00" stroke-linecap="round" stroke-linejoin="round" transform="matrix(0.36, 0.00, 0.00, 0.36, 1815.9, 6.8)"></path><path d="M 0.0 0.0 C -8.7 5.0 -17.7 9.4 -26.9 13.2 " fill="none" stroke="#393E50" stroke-width="3.00" stroke-miterlimit="0.00" stroke-linecap="round" stroke-linejoin="round" transform="matrix(0.36, 0.00, 0.00, 0.36, 1815.6, 3.8)"></path><path d="M 0.0 0.0 C -8.8 4.8 -17.8 9.1 -27.1 12.9 " fill="none" stroke="#393E50" stroke-width="1.00" stroke-miterlimit="0.00" stroke-linecap="round" stroke-linejoin="round" transform="matrix(0.36, 0.00, 0.00, 0.36, 1814.3, 0.8)"></path><path d="M 0.0 0.0 C 2.5 6.7 5.2 13.3 8.3 19.8 " fill="none" stroke="#393E50" stroke-width="3.00" stroke-miterlimit="0.00" stroke-linecap="round" stroke-linejoin="round" transform="matrix(0.36, 0.00, 0.00, 0.36, 1813.0, -2.5)"></path><path d="M 0.0 0.0 C 5.2 -27.7 14.2 -55.0 27.2 -81.1 " fill="none" stroke="#393E50" stroke-width="3.00" stroke-miterlimit="0.00" stroke-linecap="round" stroke-linejoin="round" transform="matrix(0.36, 0.00, 0.00, 0.36, 1785.5, 26.4)"></path><path d="M 0.0 0.0 C -13.1 23.1 -22.7 47.7 -28.8 73.1 " fill="none" stroke="#393E50" stroke-width="3.00" stroke-miterlimit="0.00" stroke-linecap="round" stroke-linejoin="round" transform="matrix(0.36, 0.00, 0.00, 0.36, 1807.4, -2.5)"></path><path d="M 0.0 0.0 C -8.7 -5.0 -17.6 -9.5 -26.9 -13.3 " fill="none" stroke="#393E50" stroke-width="1.00" stroke-miterlimit="0.00" stroke-linecap="round" stroke-linejoin="round" transform="matrix(0.36, 0.00, 0.00, 0.36, 1804.4, 3.2)"></path><path d="M 0.0 0.0 C -8.7 -5.0 -17.7 -9.4 -26.9 -13.2 " fill="none" stroke="#393E50" stroke-width="3.00" stroke-miterlimit="0.00" stroke-linecap="round" stroke-linejoin="round" transform="matrix(0.36, 0.00, 0.00, 0.36, 1803.2, 5.7)"></path><path d="M 0.0 0.0 C -8.8 -4.8 -17.8 -9.1 -27.1 -12.9 " fill="none" stroke="#393E50" stroke-width="1.00" stroke-miterlimit="0.00" stroke-linecap="round" stroke-linejoin="round" transform="matrix(0.36, 0.00, 0.00, 0.36, 1801.9, 8.7)"></path><path d="M 0.0 0.0 C -8.8 -4.9 -17.6 -9.8 -26.4 -14.8 " fill="none" stroke="#393E50" stroke-width="1.00" stroke-miterlimit="0.00" stroke-linecap="round" stroke-linejoin="round" transform="matrix(0.36, 0.00, 0.00, 0.36, 1801.1, 10.8)"></path><path d="M 0.0 0.0 C -8.5 -5.5 -17.4 -10.5 -26.4 -15.0 " fill="none" stroke="#393E50" stroke-width="1.00" stroke-miterlimit="0.00" stroke-linecap="round" stroke-linejoin="round" transform="matrix(0.36, 0.00, 0.00, 0.36, 1800.1, 13.4)"></path><path d="M 0.0 0.0 C -8.6 -5.5 -17.4 -10.4 -26.6 -14.8 " fill="none" stroke="#393E50" stroke-width="3.00" stroke-miterlimit="0.00" stroke-linecap="round" stroke-linejoin="round" transform="matrix(0.36, 0.00, 0.00, 0.36, 1799.3, 15.7)"></path><path d="M 0.0 0.0 L -27.1 -13.8 " fill="none" stroke="#393E50" stroke-width="1.00" stroke-miterlimit="0.00" stroke-linecap="round" stroke-linejoin="round" transform="matrix(0.36, 0.00, 0.00, 0.36, 1798.6, 17.9)"></path><path d="M 0.0 0.0 C -8.9 -4.9 -18.0 -9.5 -27.2 -13.7 " fill="none" stroke="#393E50" stroke-width="1.00" stroke-miterlimit="0.00" stroke-linecap="round" stroke-linejoin="round" transform="matrix(0.36, 0.00, 0.00, 0.36, 1798.0, 20.2)"></path><path d="M 0.0 0.0 C -9.2 -3.9 -18.6 -7.4 -28.1 -10.6 " fill="none" stroke="#393E50" stroke-width="3.00" stroke-miterlimit="0.00" stroke-linecap="round" stroke-linejoin="round" transform="matrix(0.36, 0.00, 0.00, 0.36, 1797.6, 21.5)"></path><path d="M 0.0 0.0 L 0.0 8.9 C 0.0 11.1 -1.8 12.9 -4.0 12.9 L -4.0 12.9 C -6.3 12.9 -8.1 11.1 -8.1 8.9 L -8.1 0.0 " fill="none" stroke="#393E50" stroke-width="3.00" stroke-miterlimit="0.00" stroke-linecap="round" stroke-linejoin="round" transform="matrix(0.36, 0.00, 0.00, 0.36, 1788.4, 26.4)"></path><path d="M 0.0 0.0 L 8.1 0.6 " fill="none" stroke="#393E50" stroke-width="1.00" stroke-miterlimit="0.00" stroke-linecap="round" stroke-linejoin="round" transform="matrix(0.36, 0.00, 0.00, 0.36, 1785.5, 27.4)"></path><path d="M 0.0 0.0 L 8.1 0.2 " fill="none" stroke="#393E50" stroke-width="1.00" stroke-miterlimit="0.00" stroke-linecap="round" stroke-linejoin="round" transform="matrix(0.36, 0.00, 0.00, 0.36, 1785.5, 29.0)"></path><path d="M 0.0 0.0 L 0.0 15.5 C 0.0 17.8 -1.8 19.6 -4.0 19.6 L -4.0 19.6 C -6.3 19.6 -8.1 17.8 -8.1 15.5 L -8.1 0.0 " fill="none" stroke="#393E50" stroke-width="3.00" stroke-miterlimit="0.00" stroke-linecap="round" stroke-linejoin="round" transform="matrix(0.36, 0.00, 0.00, 0.36, 1792.4, 26.4)"></path><path d="M 0.0 0.0 L 8.1 0.6 " fill="none" stroke="#393E50" stroke-width="1.00" stroke-miterlimit="0.00" stroke-linecap="round" stroke-linejoin="round" transform="matrix(0.36, 0.00, 0.00, 0.36, 1789.5, 27.7)"></path><path d="M 0.0 0.0 L 8.1 0.2 " fill="none" stroke="#393E50" stroke-width="1.00" stroke-miterlimit="0.00" stroke-linecap="round" stroke-linejoin="round" transform="matrix(0.36, 0.00, 0.00, 0.36, 1789.5, 29.1)"></path><path d="M 0.0 0.0 L 8.1 0.6 " fill="none" stroke="#393E50" stroke-width="1.00" stroke-miterlimit="0.00" stroke-linecap="round" stroke-linejoin="round" transform="matrix(0.36, 0.00, 0.00, 0.36, 1789.5, 29.5)"></path><path d="M 0.0 0.0 L 8.1 0.2 " fill="none" stroke="#393E50" stroke-width="1.00" stroke-miterlimit="0.00" stroke-linecap="round" stroke-linejoin="round" transform="matrix(0.36, 0.00, 0.00, 0.36, 1789.5, 30.9)"></path><path d="M 0.0 0.0 L 0.0 12.5 C 0.0 14.8 -1.8 16.6 -4.0 16.6 L -4.0 16.6 C -6.3 16.6 -8.1 14.8 -8.1 12.5 L -8.1 0.0 " fill="none" stroke="#393E50" stroke-width="3.00" stroke-miterlimit="0.00" stroke-linecap="round" stroke-linejoin="round" transform="matrix(0.36, 0.00, 0.00, 0.36, 1796.4, 26.4)"></path><path d="M 0.0 0.0 L 8.1 0.6 " fill="none" stroke="#393E50" stroke-width="1.00" stroke-miterlimit="0.00" stroke-linecap="round" stroke-linejoin="round" transform="matrix(0.36, 0.00, 0.00, 0.36, 1793.5, 26.7)"></path><path d="M 0.0 0.0 L 8.1 0.2 " fill="none" stroke="#393E50" stroke-width="1.00" stroke-miterlimit="0.00" stroke-linecap="round" stroke-linejoin="round" transform="matrix(0.36, 0.00, 0.00, 0.36, 1793.5, 28.0)"></path><path d="M 0.0 0.0 L 8.1 0.6 " fill="none" stroke="#393E50" stroke-width="1.00" stroke-miterlimit="0.00" stroke-linecap="round" stroke-linejoin="round" transform="matrix(0.36, 0.00, 0.00, 0.36, 1793.5, 28.5)"></path><path d="M 0.0 0.0 L 8.1 0.2 " fill="none" stroke="#393E50" stroke-width="1.00" stroke-miterlimit="0.00" stroke-linecap="round" stroke-linejoin="round" transform="matrix(0.36, 0.00, 0.00, 0.36, 1793.5, 29.8)"></path><path d="M 0.0 0.0 L 3.2 1.3 C 5.3 2.1 7.6 1.1 8.4 -1.0 L 8.4 -1.0 C 9.3 -3.1 8.2 -5.4 6.2 -6.3 L -3.0 -9.9 " fill="none" stroke="#393E50" stroke-width="3.00" stroke-miterlimit="0.00" stroke-linecap="round" stroke-linejoin="round" transform="matrix(0.36, 0.00, 0.00, 0.36, 1796.5, 26.4)"></path><path d="M 0.0 0.0 C 4.8 2.0 9.4 4.7 13.5 7.8 " fill="none" stroke="#393E50" stroke-width="1.00" stroke-miterlimit="0.00" stroke-linecap="round" stroke-linejoin="round" transform="matrix(0.36, 0.00, 0.00, 0.36, 1801.0, -2.5)"></path><path d="M 0.0 0.0 C 1.5 1.2 3.0 2.5 4.4 3.8 " fill="none" stroke="#393E50" stroke-width="1.00" stroke-miterlimit="0.00" stroke-linecap="round" stroke-linejoin="round" transform="matrix(0.36, 0.00, 0.00, 0.36, 1805.1, -2.5)"></path><path d="M 0.0 0.0 C 5.0 -3.4 9.8 -7.2 14.2 -11.4 " fill="none" stroke="#393E50" stroke-width="3.00" stroke-miterlimit="0.00" stroke-linecap="round" stroke-linejoin="round" transform="matrix(0.36, 0.00, 0.00, 0.36, 1805.4, 1.6)"></path><path d="M 0.0 0.0 C 0.0 -19.7 -16.0 -35.7 -35.7 -35.7 C -55.4 -35.7 -71.4 -19.7 -71.4 0.0 C -71.4 19.7 -55.4 35.7 -35.7 35.7 C -16.0 35.7 0.0 19.7 0.0 0.0 Z M 0.0 0.0 " fill="none" stroke="#393E50" stroke-width="3.00" stroke-miterlimit="0.00" stroke-linecap="round" stroke-linejoin="round" transform="matrix(0.36, 0.00, 0.00, 0.36, 1864.5, 50.8)"></path><path d="M 0.0 0.0 C -16.5 0.0 -29.9 13.4 -29.9 29.9 C -29.9 46.3 -16.5 59.7 0.0 59.7 C 16.5 59.7 29.9 46.3 29.9 29.9 C 29.9 13.4 16.5 0.0 0.0 0.0 Z M 0.0 0.0 " fill="none" stroke="#393E50" stroke-width="2.00" stroke-miterlimit="0.00" stroke-linecap="round" stroke-linejoin="round" transform="matrix(0.36, 0.00, 0.00, 0.36, 1851.7, 40.2)"></path><path d="M 0.0 0.0 C -13.6 0.0 -24.6 11.1 -24.6 24.6 C -24.6 38.2 -13.6 49.3 0.0 49.3 C 13.6 49.3 24.6 38.2 24.6 24.6 C 24.6 11.1 13.6 0.0 0.0 0.0 Z M 0.0 0.0 " fill="none" stroke="#393E50" stroke-width="6.00" stroke-miterlimit="0.00" stroke-linecap="round" stroke-linejoin="round" transform="matrix(0.36, 0.00, 0.00, 0.36, 1851.7, 42.0)"></path><path d="M 0.0 0.0 C -11.4 0.0 -20.6 9.3 -20.6 20.6 C -20.6 32.0 -11.4 41.3 0.0 41.3 C 11.4 41.3 20.6 32.0 20.6 20.6 C 20.6 9.3 11.4 0.0 0.0 0.0 Z M 0.0 0.0 " fill="none" stroke="#393E50" stroke-width="1.00" stroke-miterlimit="0.00" stroke-linecap="round" stroke-linejoin="round" stroke-dasharray="2.0" transform="matrix(0.36, 0.00, 0.00, 0.36, 1851.7, 43.5)"></path><path d="M 0.0 0.0 C 0.0 -13.8 -11.2 -25.0 -25.0 -25.0 C -38.8 -25.0 -50.0 -13.8 -50.0 0.0 C -50.0 13.8 -38.8 25.0 -25.0 25.0 C -11.2 25.0 0.0 13.8 0.0 0.0 Z M 0.0 0.0 " fill="none" stroke="#393E50" stroke-width="3.00" stroke-miterlimit="0.00" stroke-linecap="round" stroke-linejoin="round" transform="matrix(0.36, 0.00, 0.00, 0.36, 1828.4, 47.0)"></path><path d="M 0.0 0.0 C -10.6 0.0 -19.2 8.6 -19.2 19.2 C -19.2 29.7 -10.6 38.3 0.0 38.3 C 10.6 38.3 19.2 29.7 19.2 19.2 C 19.2 8.6 10.6 0.0 0.0 0.0 Z M 0.0 0.0 " fill="none" stroke="#393E50" stroke-width="2.00" stroke-miterlimit="0.00" stroke-linecap="round" stroke-linejoin="round" transform="matrix(0.36, 0.00, 0.00, 0.36, 1819.5, 40.2)"></path><path d="M 0.0 0.0 C -7.7 0.0 -13.9 6.2 -13.9 13.9 C -13.9 21.6 -7.7 27.9 0.0 27.9 C 7.7 27.9 13.9 21.6 13.9 13.9 C 13.9 6.2 7.7 0.0 0.0 0.0 Z M 0.0 0.0 " fill="none" stroke="#393E50" stroke-width="6.00" stroke-miterlimit="0.00" stroke-linecap="round" stroke-linejoin="round" transform="matrix(0.36, 0.00, 0.00, 0.36, 1819.5, 42.0)"></path><path d="M 0.0 0.0 C -5.5 0.0 -9.9 4.5 -9.9 9.9 C -9.9 15.4 -5.5 19.9 0.0 19.9 C 5.5 19.9 9.9 15.4 9.9 9.9 C 9.9 4.5 5.5 0.0 0.0 0.0 Z M 0.0 0.0 " fill="none" stroke="#393E50" stroke-width="1.00" stroke-linecap="round" stroke-linejoin="round" stroke-dasharray="1.9, 1.9" transform="matrix(0.36, 0.00, 0.00, 0.36, 1819.5, 43.5)"></path><path d="M 0.0 0.0 L 0.0 -51.2 L -150.9 -51.2 L -150.9 -10.7 " fill="none" stroke="#393E50" stroke-width="3.00" stroke-miterlimit="10.00" stroke-linecap="round" stroke-linejoin="round" transform="matrix(0.36, 0.00, 0.00, 0.36, 1864.5, 50.8)"></path><path d="M 0.0 0.0 L -15.1 -18.6 L -35.7 -18.6 " fill="none" stroke="#393E50" stroke-width="3.00" stroke-miterlimit="10.00" stroke-linecap="round" stroke-linejoin="round" transform="matrix(0.36, 0.00, 0.00, 0.36, 1864.5, 32.6)"></path><path d="M 0.0 0.0 L -34.8 0.0 L -50.0 18.6 " fill="none" stroke="#393E50" stroke-width="3.00" stroke-miterlimit="10.00" stroke-linecap="round" stroke-linejoin="round" transform="matrix(0.36, 0.00, 0.00, 0.36, 1828.4, 26.0)"></path><path d="M 0.0 0.0 L 0.0 43.0 L 36.6 43.0 C 33.2 38.2 31.2 32.4 31.2 26.1 C 31.2 14.6 37.8 4.8 47.4 0.0 " fill="none" stroke="#393E50" stroke-width="3.00" stroke-miterlimit="10.00" stroke-linecap="round" stroke-linejoin="round" transform="matrix(0.36, 0.00, 0.00, 0.36, 1815.9, -2.5)"></path><path d="M 0.0 0.0 L 0.0 -43.0 " fill="none" stroke="#393E50" stroke-width="3.00" stroke-miterlimit="10.00" stroke-linecap="round" stroke-linejoin="round" transform="matrix(0.36, 0.00, 0.00, 0.36, 1859.1, 12.8)"></path><path d="M 0.0 0.0 L 38.9 5.4 " fill="none" stroke="#393E50" stroke-width="3.00" stroke-miterlimit="10.00" stroke-linecap="round" stroke-linejoin="round" transform="matrix(0.36, 0.00, 0.00, 0.36, 1825.8, 53.2)"></path><path d="M 0.0 0.0 L -9.1 0.0 L -9.1 -30.4 L 0.0 -30.4 " fill="none" stroke="#393E50" stroke-width="3.00" stroke-miterlimit="10.00" stroke-linecap="round" stroke-linejoin="round" transform="matrix(0.36, 0.00, 0.00, 0.36, 1810.5, 47.0)"></path><path d="M 0.0 0.0 L 9.1 0.0 L 9.1 30.4 L 0.0 30.4 " fill="none" stroke="#393E50" stroke-width="3.00" stroke-miterlimit="10.00" stroke-linecap="round" stroke-linejoin="round" transform="matrix(0.36, 0.00, 0.00, 0.36, 1864.5, 36.2)"></path><path d="M 0.0 0.0 L -30.8 0.0 " fill="none" stroke="#393E50" stroke-width="3.00" stroke-miterlimit="10.00" stroke-linecap="round" stroke-linejoin="round" transform="matrix(0.36, 0.00, 0.00, 0.36, 1807.3, 41.6)"></path><path d="M 0.0 0.0 L 27.5 0.0 " fill="none" stroke="#393E50" stroke-width="3.00" stroke-miterlimit="10.00" stroke-linecap="round" stroke-linejoin="round" transform="matrix(0.36, 0.00, 0.00, 0.36, 1867.8, 41.6)"></path><path d="M 0.0 0.0 C 0.0 2.9 -2.3 5.2 -5.2 5.2 C -8.1 5.2 -10.5 2.9 -10.5 0.0 C -10.5 -2.9 -8.1 -5.2 -5.2 -5.2 C -2.3 -5.2 0.0 -2.9 0.0 0.0 Z M 0.0 0.0 " fill="none" stroke="#393E50" stroke-width="3.00" stroke-miterlimit="10.00" stroke-linecap="round" stroke-linejoin="round" transform="matrix(0.36, 0.00, 0.00, 0.36, 1796.2, 41.6)"></path><path d="M 0.0 0.0 C 0.0 2.9 -2.3 5.2 -5.2 5.2 C -8.1 5.2 -10.5 2.9 -10.5 0.0 C -10.5 -2.9 -8.1 -5.2 -5.2 -5.2 C -2.3 -5.2 0.0 -2.9 0.0 0.0 Z M 0.0 0.0 " fill="none" stroke="#393E50" stroke-width="3.00" stroke-miterlimit="10.00" stroke-linecap="round" stroke-linejoin="round" transform="matrix(0.36, 0.00, 0.00, 0.36, 1881.4, 41.6)"></path><path d="M 0.0 0.0 C 4.1 -4.5 6.5 -10.4 6.5 -16.9 C 6.5 -30.7 -4.7 -42.0 -18.5 -42.0 C -32.4 -42.0 -43.6 -30.7 -43.6 -16.9 C -43.6 -10.4 -41.2 -4.5 -37.1 0.0 " fill="none" stroke="#393E50" stroke-width="1.00" stroke-miterlimit="10.00" stroke-linecap="round" stroke-linejoin="round" transform="matrix(0.36, 0.00, 0.00, 0.36, 1844.1, 12.8)"></path><path d="M 0.0 0.0 L -11.7 0.0 " fill="none" stroke="#393E50" stroke-width="3.00" stroke-miterlimit="10.00" stroke-linecap="round" stroke-linejoin="round" transform="matrix(0.36, 0.00, 0.00, 0.36, 1849.3, 26.0)"></path><path d="M 0.0 0.0 L -5.8 0.0 " fill="none" stroke="#393E50" stroke-width="3.00" stroke-miterlimit="10.00" stroke-linecap="round" stroke-linejoin="round" transform="matrix(0.36, 0.00, 0.00, 0.36, 1842.5, 26.0)"></path><path d="M 0.0 0.0 L 31.3 -2.4 " fill="none" stroke="#393E50" stroke-width="1.00" stroke-miterlimit="10.00" stroke-linecap="round" stroke-linejoin="round" transform="matrix(0.36, 0.00, 0.00, 0.36, 1847.9, 7.7)"></path><path d="M 0.0 0.0 L 120.5 -3.8 " fill="none" stroke="#393E50" stroke-width="1.00" stroke-miterlimit="10.00" stroke-linecap="round" stroke-linejoin="round" transform="matrix(0.36, 0.00, 0.00, 0.36, 1816.0, 11.4)"></path><path d="M 0.0 0.0 L 34.5 3.2 " fill="none" stroke="#393E50" stroke-width="1.00" stroke-miterlimit="10.00" stroke-linecap="round" stroke-linejoin="round" transform="matrix(0.36, 0.00, 0.00, 0.36, 1826.8, 52.0)"></path><path d="M 0.0 0.0 L 145.5 -6.7 " fill="none" stroke="#393E50" stroke-width="1.00" stroke-miterlimit="10.00" stroke-linecap="round" stroke-linejoin="round" transform="matrix(0.36, 0.00, 0.00, 0.36, 1810.5, 32.6)"></path><path d="M 0.0 0.0 C -9.2 27.8 -22.5 54.7 -40.0 80.0 " fill="none" stroke="#393E50" stroke-width="3.00" stroke-miterlimit="10.00" stroke-linecap="round" stroke-linejoin="round" transform="matrix(0.36, 0.00, 0.00, 0.36, 1873.4, -2.5)"></path><path d="M 0.0 0.0 C 3.0 -6.5 5.8 -13.1 8.3 -19.8 " fill="none" stroke="#393E50" stroke-width="3.00" stroke-miterlimit="10.00" stroke-linecap="round" stroke-linejoin="round" transform="matrix(0.36, 0.00, 0.00, 0.36, 1859.1, 4.6)"></path><path d="M 0.0 0.0 C -5.3 -2.2 -10.5 -4.8 -15.5 -7.7 L -47.5 -10.1 " fill="none" stroke="#393E50" stroke-width="1.00" stroke-miterlimit="10.00" stroke-linecap="round" stroke-linejoin="round" transform="matrix(0.36, 0.00, 0.00, 0.36, 1864.6, 12.8)"></path><path d="M 0.0 0.0 C 7.9 4.5 16.1 8.5 24.5 11.9 " fill="none" stroke="#393E50" stroke-width="1.00" stroke-miterlimit="10.00" stroke-linecap="round" stroke-linejoin="round" transform="matrix(0.36, 0.00, 0.00, 0.36, 1859.1, 6.8)"></path><path d="M 0.0 0.0 C 8.7 5.0 17.7 9.4 26.9 13.2 " fill="none" stroke="#393E50" stroke-width="3.00" stroke-miterlimit="10.00" stroke-linecap="round" stroke-linejoin="round" transform="matrix(0.36, 0.00, 0.00, 0.36, 1859.4, 3.8)"></path><path d="M 0.0 0.0 C 8.8 4.8 17.8 9.1 27.1 12.9 " fill="none" stroke="#393E50" stroke-width="1.00" stroke-miterlimit="10.00" stroke-linecap="round" stroke-linejoin="round" transform="matrix(0.36, 0.00, 0.00, 0.36, 1860.8, 0.8)"></path><path d="M 0.0 0.0 C 8.8 4.9 17.6 9.8 26.4 14.8 " fill="none" stroke="#393E50" stroke-width="1.00" stroke-miterlimit="10.00" stroke-linecap="round" stroke-linejoin="round" transform="matrix(0.36, 0.00, 0.00, 0.36, 1861.6, -1.3)"></path><path d="M 0.0 0.0 C 6.5 3.9 13.2 7.6 20.0 11.0 " fill="none" stroke="#393E50" stroke-width="1.00" stroke-miterlimit="10.00" stroke-linecap="round" stroke-linejoin="round" transform="matrix(0.36, 0.00, 0.00, 0.36, 1864.9, -2.5)"></path><path d="M 0.0 0.0 C 2.7 1.4 5.4 2.8 8.2 4.1 " fill="none" stroke="#393E50" stroke-width="3.00" stroke-miterlimit="10.00" stroke-linecap="round" stroke-linejoin="round" transform="matrix(0.36, 0.00, 0.00, 0.36, 1870.0, -2.5)"></path><path d="M 0.0 0.0 L 58.7 0.0 " fill="none" stroke="#393E50" stroke-width="3.00" stroke-miterlimit="10.00" stroke-linecap="round" stroke-linejoin="round" transform="matrix(0.36, 0.00, 0.00, 0.36, 1846.0, 12.8)"></path><path d="M 0.0 0.0 L 3.0 0.0 " fill="none" stroke="#393E50" stroke-width="3.00" stroke-miterlimit="10.00" stroke-linecap="round" stroke-linejoin="round" transform="matrix(0.36, 0.00, 0.00, 0.36, 1788.4, 26.4)"></path><path d="M 0.0 0.0 L 3.0 0.0 " fill="none" stroke="#393E50" stroke-width="3.00" stroke-miterlimit="10.00" stroke-linecap="round" stroke-linejoin="round" transform="matrix(0.36, 0.00, 0.00, 0.36, 1792.4, 26.4)"></path></g></g></g></g><g><clipPath id="clip-160"><path d="M 1681.9 5.9 L 1779.9 5.9 L 1779.9 38.3 L 1681.9 38.3 Z M 1681.9 5.9 "></path></clipPath><g clip-path="url(#clip-160)"><path d="M 1682.9 37.3 L 1778.9 37.3 L 1778.9 6.9 L 1682.9 6.9 Z M 1682.9 37.3 " fill="#FFDA7B"></path></g></g><g><clipPath id="clip-161"><path d="M 1693.0 10.4 L 1772.0 10.4 L 1772.0 29.0 L 1693.0 29.0 Z M 1693.0 10.4 "></path></clipPath><g clip-path="url(#clip-161)"><text xml:space="preserve" font-family="Helvetica" font-size="44.2" fill="#393E50" transform="matrix(0.35, 0.00, -0.00, -0.36, 1693.4, 15.6)">c</text><text xml:space="preserve" font-family="Helvetica" font-size="44.2" fill="#393E50" transform="matrix(0.35, 0.00, -0.00, -0.36, 1701.1, 15.6)">i</text><text xml:space="preserve" font-family="Helvetica" font-size="44.2" fill="#393E50" transform="matrix(0.35, 0.00, -0.00, -0.36, 1704.5, 15.6)">m</text><text xml:space="preserve" font-family="Helvetica" font-size="44.2" fill="#393E50" transform="matrix(0.35, 0.00, -0.00, -0.36, 1717.3, 15.6)">o</text><text xml:space="preserve" font-family="Helvetica" font-size="44.2" fill="#393E50" transform="matrix(0.35, 0.00, -0.00, -0.36, 1725.9, 15.6)">n</text><text xml:space="preserve" font-family="Helvetica" font-size="44.2" fill="#393E50" transform="matrix(0.35, 0.00, -0.00, -0.36, 1734.5, 15.6)">.</text><text xml:space="preserve" font-family="Helvetica" font-size="44.2" fill="#393E50" transform="matrix(0.35, 0.00, -0.00, -0.36, 1738.8, 15.6)">i</text><text xml:space="preserve" font-family="Helvetica" font-size="44.2" fill="#393E50" transform="matrix(0.35, 0.00, -0.00, -0.36, 1742.2, 15.6)">o</text></g></g><g><clipPath id="clip-162"><path d="M 1693.0 29.0 L 1772.0 29.0 L 1772.0 10.0 L 1693.0 10.0 Z M 1693.0 29.0 "></path></clipPath><g clip-path="url(#clip-162)"><g><clipPath id="clip-163"><path d="M 1693.0 10.4 L 1772.0 10.4 L 1772.0 29.0 L 1693.0 29.0 Z M 1693.0 10.4 "></path></clipPath><g clip-path="url(#clip-163)"><path d="M 0.0 0.0 L -221.4 0.0 " fill="none" stroke="#FED97B" stroke-width="5.00" stroke-miterlimit="0.00" stroke-linecap="round" stroke-linejoin="round" transform="matrix(0.35, 0.00, 0.00, 0.36, 1771.1, 10.9)"></path></g></g></g></g><path d="M 949.1 582.4 L 1834.6 582.4 L 1834.6 438.5 L 949.1 438.5 Z M 949.1 582.4 " fill="#FFDA7B"></path><path d="M 1106.5 519.5 L 1677.2 519.5 L 1677.2 364.4 L 1106.5 364.4 Z M 1106.5 519.5 " fill="#FFDA7B"></path><path d="M 906.5 696.5 L 1877.1 696.5 L 1877.1 541.3 L 906.5 541.3 Z M 906.5 696.5 " fill="#FFDA7B"></path><text xml:space="preserve" font-family="Roboto-Light" font-size="110.9" fill="#000000" transform="matrix(1.00, 0.00, -0.00, -1.00, 149.0, 835.0)">К</text><text xml:space="preserve" font-family="Roboto-Light" font-size="110.9" fill="#000000" transform="matrix(1.00, 0.00, -0.00, -1.00, 218.3, 835.0)">о</text><text xml:space="preserve" font-family="Roboto-Light" font-size="110.9" fill="#000000" transform="matrix(1.00, 0.00, -0.00, -1.00, 280.4, 835.0)">г</text><text xml:space="preserve" font-family="Roboto-Light" font-size="110.9" fill="#000000" transform="matrix(1.00, 0.00, -0.00, -1.00, 324.2, 835.0)">д</text><text xml:space="preserve" font-family="Roboto-Light" font-size="110.9" fill="#000000" transform="matrix(1.00, 0.00, -0.00, -1.00, 387.8, 835.0)">а</text><text xml:space="preserve" font-family="Roboto-Light" font-size="110.9" fill="#000000" transform="matrix(1.00, 0.00, -0.00, -1.00, 447.1, 835.0)"> </text><text xml:space="preserve" font-family="Roboto-Light" font-size="110.9" fill="#000000" transform="matrix(1.00, 0.00, -0.00, -1.00, 474.1, 835.0)">с</text><text xml:space="preserve" font-family="Roboto-Light" font-size="110.9" fill="#000000" transform="matrix(1.00, 0.00, -0.00, -1.00, 531.3, 835.0)">л</text><text xml:space="preserve" font-family="Roboto-Light" font-size="110.9" fill="#000000" transform="matrix(1.00, 0.00, -0.00, -1.00, 593.7, 835.0)">е</text><text xml:space="preserve" font-family="Roboto-Light" font-size="110.9" fill="#000000" transform="matrix(1.00, 0.00, -0.00, -1.00, 650.9, 835.0)">д</text><text xml:space="preserve" font-family="Roboto-Light" font-size="110.9" fill="#000000" transform="matrix(1.00, 0.00, -0.00, -1.00, 714.5, 835.0)">у</text><text xml:space="preserve" font-family="Roboto-Light" font-size="110.9" fill="#000000" transform="matrix(1.00, 0.00, -0.00, -1.00, 766.5, 835.0)">е</text><text xml:space="preserve" font-family="Roboto-Light" font-size="110.9" fill="#000000" transform="matrix(1.00, 0.00, -0.00, -1.00, 823.1, 835.0)">т</text><text xml:space="preserve" font-family="Roboto-Light" font-size="110.9" fill="#000000" transform="matrix(1.00, 0.00, -0.00, -1.00, 875.8, 835.0)"> </text><text xml:space="preserve" font-family="Roboto-Light" font-size="110.9" fill="#000000" transform="matrix(1.00, 0.00, -0.00, -1.00, 902.8, 835.0)">п</text><text xml:space="preserve" font-family="Roboto-Light" font-size="110.9" fill="#000000" transform="matrix(1.00, 0.00, -0.00, -1.00, 965.1, 835.0)">и</text><text xml:space="preserve" font-family="Roboto-Light" font-size="110.9" fill="#000000" transform="matrix(1.00, 0.00, -0.00, -1.00, 1027.4, 835.0)">с</text><text xml:space="preserve" font-family="Roboto-Light" font-size="110.9" fill="#000000" transform="matrix(1.00, 0.00, -0.00, -1.00, 1084.6, 835.0)">а</text><text xml:space="preserve" font-family="Roboto-Light" font-size="110.9" fill="#000000" transform="matrix(1.00, 0.00, -0.00, -1.00, 1143.1, 835.0)">т</text><text xml:space="preserve" font-family="Roboto-Light" font-size="110.9" fill="#000000" transform="matrix(1.00, 0.00, -0.00, -1.00, 1195.7, 835.0)">ь</text><text xml:space="preserve" font-family="Roboto-Light" font-size="110.9" fill="#000000" transform="matrix(1.00, 0.00, -0.00, -1.00, 1255.1, 835.0)"> </text><text xml:space="preserve" font-family="Roboto-Light" font-size="110.9" fill="#000000" transform="matrix(1.00, 0.00, -0.00, -1.00, 1282.1, 835.0)">с</text><text xml:space="preserve" font-family="Roboto-Light" font-size="110.9" fill="#000000" transform="matrix(1.00, 0.00, -0.00, -1.00, 1339.2, 835.0)">в</text><text xml:space="preserve" font-family="Roboto-Light" font-size="110.9" fill="#000000" transform="matrix(1.00, 0.00, -0.00, -1.00, 1401.2, 835.0)">о</text><text xml:space="preserve" font-family="Roboto-Light" font-size="110.9" fill="#000000" transform="matrix(1.00, 0.00, -0.00, -1.00, 1463.3, 835.0)">й</text><text xml:space="preserve" font-family="Roboto-Light" font-size="110.9" fill="#000000" transform="matrix(1.00, 0.00, -0.00, -1.00, 1525.6, 835.0)"> </text><text xml:space="preserve" font-family="Roboto-Light" font-size="110.9" fill="#000000" transform="matrix(1.00, 0.00, -0.00, -1.00, 1552.6, 835.0)">П</text><text xml:space="preserve" font-family="Roboto-Light" font-size="110.9" fill="#000000" transform="matrix(1.00, 0.00, -0.00, -1.00, 1631.0, 835.0)">С</text><text xml:space="preserve" font-family="Roboto-Light" font-size="110.9" fill="#000000" transform="matrix(1.00, 0.00, -0.00, -1.00, 1703.1, 835.0)">Я</text><text xml:space="preserve" font-family="Roboto-Light" font-size="70.0" fill="#000000" transform="matrix(1.00, 0.00, -0.00, -1.00, 1456.0, 274.0)">В</text><text xml:space="preserve" font-family="Roboto-Light" font-size="70.0" fill="#000000" transform="matrix(1.00, 0.00, -0.00, -1.00, 1498.9, 274.0)">.</text><text xml:space="preserve" font-family="Roboto-Light" font-size="70.0" fill="#000000" transform="matrix(1.00, 0.00, -0.00, -1.00, 1515.6, 274.0)">И</text><text xml:space="preserve" font-family="Roboto-Light" font-size="70.0" fill="#000000" transform="matrix(1.00, 0.00, -0.00, -1.00, 1565.3, 274.0)">.</text><text xml:space="preserve" font-family="Roboto-Light" font-size="70.0" fill="#000000" transform="matrix(1.00, 0.00, -0.00, -1.00, 1582.0, 274.0)"> </text><text xml:space="preserve" font-family="Roboto-Light" font-size="70.0" fill="#000000" transform="matrix(1.00, 0.00, -0.00, -1.00, 1599.0, 274.0)">Л</text><text xml:space="preserve" font-family="Roboto-Light" font-size="70.0" fill="#000000" transform="matrix(1.00, 0.00, -0.00, -1.00, 1648.2, 274.0)">е</text><text xml:space="preserve" font-family="Roboto-Light" font-size="70.0" fill="#000000" transform="matrix(1.00, 0.00, -0.00, -1.00, 1684.3, 274.0)">н</text><text xml:space="preserve" font-family="Roboto-Light" font-size="70.0" fill="#000000" transform="matrix(1.00, 0.00, -0.00, -1.00, 1723.6, 274.0)">и</text><text xml:space="preserve" font-family="Roboto-Light" font-size="70.0" fill="#000000" transform="matrix(1.00, 0.00, -0.00, -1.00, 1763.0, 274.0)">н</text><g><clipPath id="clip-164"><path d="M 199.9 43.8 L 714.4 43.8 L 714.4 767.9 L 199.9 767.9 Z M 199.9 43.8 "></path></clipPath><g clip-path="url(#clip-164)"><path d="M 200.9 766.9 L 713.4 766.9 L 713.4 44.8 L 200.9 44.8 Z M 200.9 766.9 " fill="#EAC15B"></path></g></g><g><clipPath id="clip-165"><path d="M 241.0 693.0 L 674.0 693.0 L 674.0 76.0 L 241.0 76.0 Z M 240.7 692.8 "></path></clipPath><g clip-path="url(#clip-165)"><g><clipPath id="clip-166"><path d="M 468.8 692.8 L 466.0 687.5 C 462.9 681.8 455.7 682.5 447.9 689.3 C 445.3 691.5 443.1 692.0 442.2 690.4 C 441.3 689.1 436.9 687.2 432.4 686.2 C 427.9 685.2 423.1 683.6 421.7 682.5 C 420.3 681.5 411.2 678.1 401.4 674.9 C 375.7 666.6 367.1 661.6 345.9 643.2 C 345.0 642.5 344.4 641.9 343.6 641.2 C 344.1 640.5 342.2 638.8 339.0 637.0 C 323.9 622.7 321.3 614.3 322.0 592.2 C 322.2 585.0 322.3 580.0 322.3 574.9 C 322.8 571.8 323.2 568.0 323.5 562.7 C 323.5 561.8 323.5 561.4 323.6 560.7 C 324.5 555.9 324.6 551.3 323.7 547.8 C 323.4 543.8 322.2 542.5 319.6 541.8 C 316.7 541.1 314.8 539.2 313.8 536.1 C 313.8 536.1 313.7 536.1 313.7 536.1 C 312.6 532.3 312.9 526.4 314.5 518.2 C 315.1 515.5 315.8 512.5 316.7 509.2 C 319.6 498.8 321.7 486.8 321.2 482.4 C 321.2 481.7 321.2 481.2 321.2 480.6 C 321.1 479.7 321.1 478.8 321.2 478.0 C 321.2 477.9 321.2 477.8 321.2 477.7 C 321.4 476.7 321.7 475.9 322.2 475.1 C 323.2 473.4 325.0 472.0 328.0 470.3 C 329.7 469.4 331.0 468.4 332.2 467.2 C 332.8 466.6 333.4 466.0 333.9 465.2 C 333.9 465.2 333.9 465.2 333.9 465.2 C 334.5 464.4 335.0 463.5 335.5 462.5 C 336.6 460.5 337.6 458.0 338.7 454.7 C 339.9 451.4 341.1 447.3 342.6 442.2 C 347.6 425.4 348.7 419.0 347.7 412.7 C 347.2 405.4 344.3 400.2 338.8 395.2 C 337.6 394.1 335.6 392.8 333.2 391.3 C 330.3 389.3 327.2 387.6 324.0 386.4 C 318.9 383.9 312.7 381.2 306.1 378.4 C 300.4 375.6 285.5 369.9 270.4 365.0 L 268.2 364.0 C 267.7 363.8 267.2 364.0 266.7 363.8 L 250.2 358.5 L 241.0 355.4 L 241.0 215.7 L 241.0 76.0 L 457.1 76.0 L 674.0 76.0 L 674.0 224.1 L 674.0 224.6 C 674.0 225.0 673.6 225.3 673.6 225.7 C 673.6 240.1 673.5 250.5 673.5 262.6 C 673.4 282.5 673.4 300.3 673.2 316.5 C 672.9 350.1 672.2 368.2 671.2 374.1 L 669.1 376.0 L 667.2 376.0 C 661.6 376.3 657.5 377.3 655.3 378.8 C 653.2 378.5 651.6 378.8 649.8 380.0 C 649.2 380.2 648.6 380.3 648.1 380.6 C 648.0 380.7 648.0 380.7 647.9 380.8 C 647.7 380.7 647.4 380.6 647.2 380.6 C 646.3 380.1 645.5 379.8 645.0 379.9 C 644.7 380.0 644.4 380.2 644.1 380.5 C 643.1 380.7 642.0 381.1 640.8 381.7 L 638.8 382.8 C 637.7 382.2 636.9 381.8 636.4 381.8 C 634.8 381.8 633.5 382.4 632.7 383.2 C 630.4 381.9 627.9 382.1 624.3 383.3 C 621.5 382.7 615.9 383.8 604.7 386.6 C 593.8 389.2 587.4 391.6 584.6 394.1 C 584.4 393.8 584.2 393.5 584.1 393.1 C 582.5 389.1 578.3 388.8 565.3 391.8 C 562.5 392.5 557.8 395.5 553.0 399.3 C 553.8 390.8 543.4 392.9 533.8 404.8 C 529.3 410.5 525.5 416.1 525.5 417.2 C 525.5 418.3 524.8 420.0 523.9 420.9 C 520.9 423.8 529.0 448.7 534.4 453.0 C 537.3 455.4 539.4 458.2 539.1 459.4 C 538.8 460.5 540.7 461.8 543.4 462.3 C 546.1 462.8 551.5 466.0 555.4 469.3 C 556.2 469.9 557.1 470.6 558.1 471.2 C 559.1 473.2 560.8 475.7 563.4 478.5 C 568.2 483.7 571.3 487.9 570.5 487.9 C 569.9 487.9 570.5 488.8 571.6 490.1 C 571.2 490.9 571.1 492.0 571.3 493.3 C 570.8 495.7 571.6 501.4 573.1 507.7 C 572.6 510.1 573.1 514.3 574.2 519.0 C 573.4 520.1 572.8 521.9 572.3 524.7 C 571.4 529.8 569.5 532.1 566.2 532.2 C 558.3 532.2 555.3 539.8 560.8 545.8 C 560.8 545.9 560.9 546.0 561.0 546.1 C 560.4 546.7 560.1 548.2 560.1 550.3 C 559.4 553.0 559.8 557.3 561.0 561.6 C 559.8 563.1 559.9 566.8 561.3 572.5 C 560.5 575.3 559.8 579.1 559.4 583.2 C 557.6 599.9 554.2 609.4 546.9 619.0 C 528.4 643.0 519.4 663.6 531.4 654.2 C 535.2 651.3 535.2 651.4 532.2 655.3 C 530.3 657.7 527.5 659.0 526.1 658.1 C 524.6 657.2 522.2 658.2 520.6 660.4 C 519.0 662.6 513.7 665.4 508.9 666.7 C 504.1 667.9 500.1 670.0 500.1 671.3 C 500.0 676.2 487.1 687.4 484.6 684.9 C 482.9 683.2 479.8 684.1 475.4 687.6 L 468.8 692.8 Z M 569.9 440.0 C 568.1 439.5 566.6 438.8 566.0 438.0 C 565.9 437.9 565.8 437.8 565.7 437.8 C 567.3 437.7 568.9 438.5 569.8 439.9 C 569.8 439.9 569.9 439.9 569.9 440.0 Z M 546.6 424.4 C 546.3 423.8 545.9 423.4 545.6 422.9 C 545.6 422.8 545.7 422.8 545.7 422.8 C 546.5 422.1 546.7 423.0 546.6 424.4 Z M 611.3 423.4 C 610.6 421.9 609.6 420.4 608.7 419.4 C 607.6 418.1 606.7 416.7 606.2 415.4 C 608.4 418.0 610.4 421.1 611.3 423.4 Z M 542.8 408.7 C 542.2 407.5 542.5 407.0 544.0 407.4 C 543.6 407.9 543.2 408.3 542.8 408.7 Z M 601.6 405.8 C 600.4 404.5 599.2 403.1 597.8 401.8 C 599.8 403.1 601.4 404.5 601.6 405.8 Z M 601.6 405.8 "></path></clipPath><g clip-path="url(#clip-166)"><g><clipPath id="clip-167"><path d="M 240.7 76.0 L 673.6 76.0 L 673.6 692.8 L 240.7 692.8 Z M 240.7 76.0 "></path></clipPath><g clip-path="url(#clip-167)"><image xlink:href="B684BD4DD71FAA703E02089EEE886AAA.png" width="364.00" height="540.00" transform="matrix(1.19, 0.00, -0.00, -1.19, 241.0, 718.0)"></image></g></g></g></g></g></g><text xml:space="preserve" font-family="Roboto-Light" font-size="84.0" fill="#000000" transform="matrix(1.00, 0.00, -0.00, -1.00, 965.0, 610.0)">«</text><text xml:space="preserve" font-family="Roboto-Light" font-size="84.0" fill="#000000" transform="matrix(1.00, 0.00, -0.00, -1.00, 1003.2, 610.0)">П</text><text xml:space="preserve" font-family="Roboto-Light" font-size="84.0" fill="#000000" transform="matrix(1.00, 0.00, -0.00, -1.00, 1062.6, 610.0)">л</text><text xml:space="preserve" font-family="Roboto-Light" font-size="84.0" fill="#000000" transform="matrix(1.00, 0.00, -0.00, -1.00, 1109.9, 610.0)">о</text><text xml:space="preserve" font-family="Roboto-Light" font-size="84.0" fill="#000000" transform="matrix(1.00, 0.00, -0.00, -1.00, 1156.1, 610.0)">х</text><text xml:space="preserve" font-family="Roboto-Light" font-size="84.0" fill="#000000" transform="matrix(1.00, 0.00, -0.00, -1.00, 1197.0, 610.0)">а</text><text xml:space="preserve" font-family="Roboto-Light" font-size="84.0" fill="#000000" transform="matrix(1.00, 0.00, -0.00, -1.00, 1241.9, 610.0)"> </text><text xml:space="preserve" font-family="Roboto-Light" font-size="84.0" fill="#000000" transform="matrix(1.00, 0.00, -0.00, -1.00, 1262.4, 610.0)">т</text><text xml:space="preserve" font-family="Roboto-Light" font-size="84.0" fill="#000000" transform="matrix(1.00, 0.00, -0.00, -1.00, 1301.6, 610.0)">а</text><text xml:space="preserve" font-family="Roboto-Light" font-size="84.0" fill="#000000" transform="matrix(1.00, 0.00, -0.00, -1.00, 1346.6, 610.0)"> </text><text xml:space="preserve" font-family="Roboto-Light" font-size="84.0" fill="#000000" transform="matrix(1.00, 0.00, -0.00, -1.00, 1367.0, 610.0)">п</text><text xml:space="preserve" font-family="Roboto-Light" font-size="84.0" fill="#000000" transform="matrix(1.00, 0.00, -0.00, -1.00, 1414.3, 610.0)">р</text><text xml:space="preserve" font-family="Roboto-Light" font-size="84.0" fill="#000000" transform="matrix(1.00, 0.00, -0.00, -1.00, 1460.8, 610.0)">о</text><text xml:space="preserve" font-family="Roboto-Light" font-size="84.0" fill="#000000" transform="matrix(1.00, 0.00, -0.00, -1.00, 1507.9, 610.0)">г</text><text xml:space="preserve" font-family="Roboto-Light" font-size="84.0" fill="#000000" transform="matrix(1.00, 0.00, -0.00, -1.00, 1543.3, 610.0)">р</text><text xml:space="preserve" font-family="Roboto-Light" font-size="84.0" fill="#000000" transform="matrix(1.00, 0.00, -0.00, -1.00, 1589.9, 610.0)">а</text><text xml:space="preserve" font-family="Roboto-Light" font-size="84.0" fill="#000000" transform="matrix(1.00, 0.00, -0.00, -1.00, 1634.8, 610.0)">м</text><text xml:space="preserve" font-family="Roboto-Light" font-size="84.0" fill="#000000" transform="matrix(1.00, 0.00, -0.00, -1.00, 1696.2, 610.0)">м</text><text xml:space="preserve" font-family="Roboto-Light" font-size="84.0" fill="#000000" transform="matrix(1.00, 0.00, -0.00, -1.00, 1757.6, 610.0)">а</text><text xml:space="preserve" font-family="Roboto-Light" font-size="84.0" fill="#000000" transform="matrix(1.00, 0.00, -0.00, -1.00, 1802.6, 610.0)">,</text><text xml:space="preserve" font-family="Roboto-Light" font-size="84.0" fill="#000000" transform="matrix(1.00, 0.00, -0.00, -1.00, 1818.7, 610.0)"> </text><text xml:space="preserve" font-family="Roboto-Light" font-size="84.0" fill="#000000" transform="matrix(1.00, 0.00, -0.00, -1.00, 978.0, 511.0)">к</text><text xml:space="preserve" font-family="Roboto-Light" font-size="84.0" fill="#000000" transform="matrix(1.00, 0.00, -0.00, -1.00, 1020.7, 511.0)">о</text><text xml:space="preserve" font-family="Roboto-Light" font-size="84.0" fill="#000000" transform="matrix(1.00, 0.00, -0.00, -1.00, 1066.8, 511.0)">т</text><text xml:space="preserve" font-family="Roboto-Light" font-size="84.0" fill="#000000" transform="matrix(1.00, 0.00, -0.00, -1.00, 1105.0, 511.0)">о</text><text xml:space="preserve" font-family="Roboto-Light" font-size="84.0" fill="#000000" transform="matrix(1.00, 0.00, -0.00, -1.00, 1152.1, 511.0)">р</text><text xml:space="preserve" font-family="Roboto-Light" font-size="84.0" fill="#000000" transform="matrix(1.00, 0.00, -0.00, -1.00, 1198.6, 511.0)">а</text><text xml:space="preserve" font-family="Roboto-Light" font-size="84.0" fill="#000000" transform="matrix(1.00, 0.00, -0.00, -1.00, 1243.6, 511.0)">я</text><text xml:space="preserve" font-family="Roboto-Light" font-size="84.0" fill="#000000" transform="matrix(1.00, 0.00, -0.00, -1.00, 1289.2, 511.0)"> </text><text xml:space="preserve" font-family="Roboto-Light" font-size="84.0" fill="#000000" transform="matrix(1.00, 0.00, -0.00, -1.00, 1309.6, 511.0)">н</text><text xml:space="preserve" font-family="Roboto-Light" font-size="84.0" fill="#000000" transform="matrix(1.00, 0.00, -0.00, -1.00, 1356.8, 511.0)">е</text><text xml:space="preserve" font-family="Roboto-Light" font-size="84.0" fill="#000000" transform="matrix(1.00, 0.00, -0.00, -1.00, 1400.2, 511.0)"> </text><text xml:space="preserve" font-family="Roboto-Light" font-size="84.0" fill="#000000" transform="matrix(1.00, 0.00, -0.00, -1.00, 1420.6, 511.0)">м</text><text xml:space="preserve" font-family="Roboto-Light" font-size="84.0" fill="#000000" transform="matrix(1.00, 0.00, -0.00, -1.00, 1482.0, 511.0)">е</text><text xml:space="preserve" font-family="Roboto-Light" font-size="84.0" fill="#000000" transform="matrix(1.00, 0.00, -0.00, -1.00, 1525.4, 511.0)">ч</text><text xml:space="preserve" font-family="Roboto-Light" font-size="84.0" fill="#000000" transform="matrix(1.00, 0.00, -0.00, -1.00, 1570.1, 511.0)">т</text><text xml:space="preserve" font-family="Roboto-Light" font-size="84.0" fill="#000000" transform="matrix(1.00, 0.00, -0.00, -1.00, 1609.4, 511.0)">а</text><text xml:space="preserve" font-family="Roboto-Light" font-size="84.0" fill="#000000" transform="matrix(1.00, 0.00, -0.00, -1.00, 1654.4, 511.0)">е</text><text xml:space="preserve" font-family="Roboto-Light" font-size="84.0" fill="#000000" transform="matrix(1.00, 0.00, -0.00, -1.00, 1697.3, 511.0)">т</text><text xml:space="preserve" font-family="Roboto-Light" font-size="84.0" fill="#000000" transform="matrix(1.00, 0.00, -0.00, -1.00, 1737.2, 511.0)"> </text><text xml:space="preserve" font-family="Roboto-Light" font-size="84.0" fill="#000000" transform="matrix(1.00, 0.00, -0.00, -1.00, 1757.6, 511.0)">о</text><text xml:space="preserve" font-family="Roboto-Light" font-size="84.0" fill="#000000" transform="matrix(1.00, 0.00, -0.00, -1.00, 1804.7, 511.0)"> </text><text xml:space="preserve" font-family="Roboto-Light" font-size="84.0" fill="#000000" transform="matrix(1.00, 0.00, -0.00, -1.00, 1167.0, 412.0)">с</text><text xml:space="preserve" font-family="Roboto-Light" font-size="84.0" fill="#000000" transform="matrix(1.00, 0.00, -0.00, -1.00, 1210.3, 412.0)">в</text><text xml:space="preserve" font-family="Roboto-Light" font-size="84.0" fill="#000000" transform="matrix(1.00, 0.00, -0.00, -1.00, 1257.3, 412.0)">о</text><text xml:space="preserve" font-family="Roboto-Light" font-size="84.0" fill="#000000" transform="matrix(1.00, 0.00, -0.00, -1.00, 1304.3, 412.0)">е</text><text xml:space="preserve" font-family="Roboto-Light" font-size="84.0" fill="#000000" transform="matrix(1.00, 0.00, -0.00, -1.00, 1347.7, 412.0)">м</text><text xml:space="preserve" font-family="Roboto-Light" font-size="84.0" fill="#000000" transform="matrix(1.00, 0.00, -0.00, -1.00, 1409.1, 412.0)"> </text><text xml:space="preserve" font-family="Roboto-Light" font-size="84.0" fill="#000000" transform="matrix(1.00, 0.00, -0.00, -1.00, 1429.5, 412.0)">D</text><text xml:space="preserve" font-family="Roboto-Light" font-size="84.0" fill="#000000" transform="matrix(1.00, 0.00, -0.00, -1.00, 1484.5, 412.0)">S</text><text xml:space="preserve" font-family="Roboto-Light" font-size="84.0" fill="#000000" transform="matrix(1.00, 0.00, -0.00, -1.00, 1534.3, 412.0)">L</text><text xml:space="preserve" font-family="Roboto-Light" font-size="84.0" fill="#000000" transform="matrix(1.00, 0.00, -0.00, -1.00, 1578.5, 412.0)">»</text></g></svg>