<?xml version="1.0" encoding="UTF-8" standalone="no"?><svg xmlns="http://www.w3.org/2000/svg" xmlns:xlink="http://www.w3.org/1999/xlink" clip-rule="evenodd" stroke-miterlimit="4.00" viewBox="0 0 1920 1080"><desc>SVG generated by Keynote</desc><defs></defs><g transform="matrix(1.00, 0.00, -0.00, -1.00, 0.0, 1080.0)"><path d="M 0.0 1080.0 L 1920.0 1080.0 L 1920.0 0.0 L 0.0 0.0 Z M 0.0 1080.0 " fill="#FAFAFA"></path><path d="M 133.5 980.2 L 627.8 980.2 L 627.8 851.4 L 133.5 851.4 Z M 133.5 980.2 " fill="#FEDF73"></path><text xml:space="preserve" font-family="Roboto-Light" font-size="60.0" fill="#000000" transform="matrix(1.00, 0.00, -0.00, -1.00, 258.0, 895.0)">С</text><text xml:space="preserve" font-family="Roboto-Light" font-size="60.0" fill="#000000" transform="matrix(1.00, 0.00, -0.00, -1.00, 297.0, 895.0)">н</text><text xml:space="preserve" font-family="Roboto-Light" font-size="60.0" fill="#000000" transform="matrix(1.00, 0.00, -0.00, -1.00, 330.7, 895.0)">а</text><text xml:space="preserve" font-family="Roboto-Light" font-size="60.0" fill="#000000" transform="matrix(1.00, 0.00, -0.00, -1.00, 362.8, 895.0)">р</text><text xml:space="preserve" font-family="Roboto-Light" font-size="60.0" fill="#000000" transform="matrix(1.00, 0.00, -0.00, -1.00, 395.8, 895.0)">у</text><text xml:space="preserve" font-family="Roboto-Light" font-size="60.0" fill="#000000" transform="matrix(1.00, 0.00, -0.00, -1.00, 424.3, 895.0)">ж</text><text xml:space="preserve" font-family="Roboto-Light" font-size="60.0" fill="#000000" transform="matrix(1.00, 0.00, -0.00, -1.00, 470.3, 895.0)">и</text><image xlink:href="8BEA4E0940B558D1DD48CECDF720F0E8.png" width="961.00" height="122.00" transform="matrix(1.86, 0.00, -0.00, -1.86, 112.0, 355.0)"></image><text xml:space="preserve" font-family="Roboto-Light" font-size="40.0" fill="#000000" transform="matrix(1.00, 0.00, -0.00, -1.00, 610.0, 778.0)">м</text><text xml:space="preserve" font-family="Roboto-Light" font-size="40.0" fill="#000000" transform="matrix(1.00, 0.00, -0.00, -1.00, 639.2, 778.0)">ы</text><text xml:space="preserve" font-family="Roboto-Light" font-size="40.0" fill="#000000" transform="matrix(1.00, 0.00, -0.00, -1.00, 669.3, 778.0)"> </text><text xml:space="preserve" font-family="Roboto-Medium" font-size="40.0" fill="#000000" transform="matrix(1.00, 0.00, -0.00, -1.00, 679.0, 778.0)">н</text><text xml:space="preserve" font-family="Roboto-Medium" font-size="40.0" fill="#000000" transform="matrix(1.00, 0.00, -0.00, -1.00, 701.9, 778.0)">и</text><text xml:space="preserve" font-family="Roboto-Medium" font-size="40.0" fill="#000000" transform="matrix(1.00, 0.00, -0.00, -1.00, 724.9, 778.0)">ч</text><text xml:space="preserve" font-family="Roboto-Medium" font-size="40.0" fill="#000000" transform="matrix(1.00, 0.00, -0.00, -1.00, 746.9, 778.0)">е</text><text xml:space="preserve" font-family="Roboto-Medium" font-size="40.0" fill="#000000" transform="matrix(1.00, 0.00, -0.00, -1.00, 768.4, 778.0)">г</text><text xml:space="preserve" font-family="Roboto-Medium" font-size="40.0" fill="#000000" transform="matrix(1.00, 0.00, -0.00, -1.00, 784.7, 778.0)">о</text><text xml:space="preserve" font-family="Roboto-Medium" font-size="40.0" fill="#000000" transform="matrix(1.00, 0.00, -0.00, -1.00, 807.5, 778.0)"> </text><text xml:space="preserve" font-family="Roboto-Medium" font-size="40.0" fill="#000000" transform="matrix(1.00, 0.00, -0.00, -1.00, 817.5, 778.0)">н</text><text xml:space="preserve" font-family="Roboto-Medium" font-size="40.0" fill="#000000" transform="matrix(1.00, 0.00, -0.00, -1.00, 840.4, 778.0)">е</text><text xml:space="preserve" font-family="Roboto-Medium" font-size="40.0" fill="#000000" transform="matrix(1.00, 0.00, -0.00, -1.00, 861.8, 778.0)"> </text><text xml:space="preserve" font-family="Roboto-Medium" font-size="40.0" fill="#000000" transform="matrix(1.00, 0.00, -0.00, -1.00, 871.8, 778.0)">з</text><text xml:space="preserve" font-family="Roboto-Medium" font-size="40.0" fill="#000000" transform="matrix(1.00, 0.00, -0.00, -1.00, 892.2, 778.0)">н</text><text xml:space="preserve" font-family="Roboto-Medium" font-size="40.0" fill="#000000" transform="matrix(1.00, 0.00, -0.00, -1.00, 915.2, 778.0)">а</text><text xml:space="preserve" font-family="Roboto-Medium" font-size="40.0" fill="#000000" transform="matrix(1.00, 0.00, -0.00, -1.00, 936.8, 778.0)">е</text><text xml:space="preserve" font-family="Roboto-Medium" font-size="40.0" fill="#000000" transform="matrix(1.00, 0.00, -0.00, -1.00, 958.3, 778.0)">м</text><text xml:space="preserve" font-family="Roboto-Light" font-size="40.0" fill="#000000" transform="matrix(1.00, 0.00, -0.00, -1.00, 988.4, 778.0)"> </text><text xml:space="preserve" font-family="Roboto-Light" font-size="40.0" fill="#000000" transform="matrix(1.00, 0.00, -0.00, -1.00, 998.1, 778.0)">п</text><text xml:space="preserve" font-family="Roboto-Light" font-size="40.0" fill="#000000" transform="matrix(1.00, 0.00, -0.00, -1.00, 1020.6, 778.0)">р</text><text xml:space="preserve" font-family="Roboto-Light" font-size="40.0" fill="#000000" transform="matrix(1.00, 0.00, -0.00, -1.00, 1042.8, 778.0)">о</text><text xml:space="preserve" font-family="Roboto-Medium" font-size="50.0" fill="#000000" transform="matrix(1.00, 0.00, -0.00, -1.00, 958.0, 683.0)">т</text><text xml:space="preserve" font-family="Roboto-Medium" font-size="50.0" fill="#000000" transform="matrix(1.00, 0.00, -0.00, -1.00, 981.2, 683.0)">е</text><text xml:space="preserve" font-family="Roboto-Medium" font-size="50.0" fill="#000000" transform="matrix(1.00, 0.00, -0.00, -1.00, 1008.0, 683.0)">к</text><text xml:space="preserve" font-family="Roboto-Medium" font-size="50.0" fill="#000000" transform="matrix(1.00, 0.00, -0.00, -1.00, 1035.6, 683.0)">у</text><text xml:space="preserve" font-family="Roboto-Medium" font-size="50.0" fill="#000000" transform="matrix(1.00, 0.00, -0.00, -1.00, 1060.0, 683.0)">щ</text><text xml:space="preserve" font-family="Roboto-Medium" font-size="50.0" fill="#000000" transform="matrix(1.00, 0.00, -0.00, -1.00, 1102.8, 683.0)">е</text><text xml:space="preserve" font-family="Roboto-Medium" font-size="50.0" fill="#000000" transform="matrix(1.00, 0.00, -0.00, -1.00, 1129.6, 683.0)">е</text><text xml:space="preserve" font-family="Roboto-Medium" font-size="50.0" fill="#000000" transform="matrix(1.00, 0.00, -0.00, -1.00, 1156.4, 683.0)"> </text><text xml:space="preserve" font-family="Roboto-Medium" font-size="50.0" fill="#000000" transform="matrix(1.00, 0.00, -0.00, -1.00, 1168.9, 683.0)">с</text><text xml:space="preserve" font-family="Roboto-Medium" font-size="50.0" fill="#000000" transform="matrix(1.00, 0.00, -0.00, -1.00, 1195.1, 683.0)">о</text><text xml:space="preserve" font-family="Roboto-Medium" font-size="50.0" fill="#000000" transform="matrix(1.00, 0.00, -0.00, -1.00, 1223.5, 683.0)">с</text><text xml:space="preserve" font-family="Roboto-Medium" font-size="50.0" fill="#000000" transform="matrix(1.00, 0.00, -0.00, -1.00, 1249.7, 683.0)">т</text><text xml:space="preserve" font-family="Roboto-Medium" font-size="50.0" fill="#000000" transform="matrix(1.00, 0.00, -0.00, -1.00, 1273.7, 683.0)">о</text><text xml:space="preserve" font-family="Roboto-Medium" font-size="50.0" fill="#000000" transform="matrix(1.00, 0.00, -0.00, -1.00, 1302.2, 683.0)">я</text><text xml:space="preserve" font-family="Roboto-Medium" font-size="50.0" fill="#000000" transform="matrix(1.00, 0.00, -0.00, -1.00, 1329.9, 683.0)">н</text><text xml:space="preserve" font-family="Roboto-Medium" font-size="50.0" fill="#000000" transform="matrix(1.00, 0.00, -0.00, -1.00, 1358.6, 683.0)">и</text><text xml:space="preserve" font-family="Roboto-Medium" font-size="50.0" fill="#000000" transform="matrix(1.00, 0.00, -0.00, -1.00, 1387.3, 683.0)">е</text></g></svg>