<?xml version="1.0" encoding="UTF-8" standalone="no"?><svg xmlns="http://www.w3.org/2000/svg" xmlns:xlink="http://www.w3.org/1999/xlink" clip-rule="evenodd" stroke-miterlimit="4.00" viewBox="0 0 1920 1080"><desc>SVG generated by Keynote</desc><defs></defs><g transform="matrix(1.00, 0.00, -0.00, -1.00, 0.0, 1080.0)"><path d="M 0.0 1080.0 L 1920.0 1080.0 L 1920.0 0.0 L 0.0 0.0 Z M 0.0 1080.0 " fill="#FECF60"></path><g><clipPath id="clip-71"><path d="M 985.6 84.8 L 1876.7 84.8 L 1876.7 233.8 L 985.6 233.8 Z M 985.6 84.8 "></path></clipPath><g clip-path="url(#clip-71)"><path d="M 986.6 232.8 L 1875.7 232.8 L 1875.7 85.8 L 986.6 85.8 Z M 986.6 232.8 " fill="#EAC15B"></path></g></g><g><clipPath id="clip-72"><path d="M 688.3 122.4 L 1151.9 122.4 L 1151.9 818.1 L 688.3 818.1 Z M 688.3 122.4 "></path></clipPath><g clip-path="url(#clip-72)"><path d="M 689.3 817.1 L 1150.9 817.1 L 1150.9 123.4 L 689.3 123.4 Z M 689.3 817.1 " fill="#EAC15B"></path></g></g><g><clipPath id="clip-73"><path d="M 795.0 32.5 L 1829.6 32.5 L 1829.6 760.8 L 795.0 760.8 Z M 795.0 32.5 "></path></clipPath><g clip-path="url(#clip-73)"><image xlink:href="../../E5EC91DC-9D6D-4BCB-8198-67011182E334/assets/629C23BCA7F4C012376DF1921BEC7673.jpeg" width="800.00" height="562.00" transform="matrix(1.29, 0.00, -0.00, -1.29, 798.0, 758.0)"></image><path d="M 0.5 0.3 L 1029.5 0.3 L 1029.5 723.3 L 0.5 723.3 Z M 0.5 0.3 " fill="none" stroke="#000000" stroke-width="5.00" transform="matrix(1.00, 0.00, 0.00, -1.00, 797.5, 758.3)"></path></g></g><path d="M 72.3 1016.9 L 435.5 1016.9 L 435.5 892.4 L 72.3 892.4 Z M 72.3 1016.9 " fill="#FFDA7B"></path><text xml:space="preserve" font-family="Roboto" font-weight="200" font-size="60.0" fill="#000000" transform="matrix(1.00, 0.00, -0.00, -1.00, 95.0, 934.0)">D</text><text xml:space="preserve" font-family="Roboto" font-weight="200" font-size="60.0" fill="#000000" transform="matrix(1.00, 0.00, -0.00, -1.00, 134.3, 934.0)">r</text><text xml:space="preserve" font-family="Roboto" font-weight="200" font-size="60.0" fill="#000000" transform="matrix(1.00, 0.00, -0.00, -1.00, 153.3, 934.0)">a</text><text xml:space="preserve" font-family="Roboto" font-weight="200" font-size="60.0" fill="#000000" transform="matrix(1.00, 0.00, -0.00, -1.00, 185.4, 934.0)">g</text><text xml:space="preserve" font-family="Roboto" font-weight="200" font-size="60.0" fill="#000000" transform="matrix(1.00, 0.00, -0.00, -1.00, 218.7, 934.0)">o</text><text xml:space="preserve" font-family="Roboto" font-weight="200" font-size="60.0" fill="#000000" transform="matrix(1.00, 0.00, -0.00, -1.00, 252.3, 934.0)">n</text><text xml:space="preserve" font-family="Roboto" font-weight="200" font-size="60.0" fill="#000000" transform="matrix(1.00, 0.00, -0.00, -1.00, 285.3, 934.0)"> </text><text xml:space="preserve" font-family="Roboto" font-weight="200" font-size="60.0" fill="#000000" transform="matrix(1.00, 0.00, -0.00, -1.00, 299.9, 934.0)">A</text><text xml:space="preserve" font-family="Roboto" font-weight="200" font-size="60.0" fill="#000000" transform="matrix(1.00, 0.00, -0.00, -1.00, 337.3, 934.0)">g</text><text xml:space="preserve" font-family="Roboto" font-weight="200" font-size="60.0" fill="#000000" transform="matrix(1.00, 0.00, -0.00, -1.00, 370.6, 934.0)">e</text></g></svg>