<?xml version="1.0" encoding="UTF-8" standalone="no"?><svg xmlns="http://www.w3.org/2000/svg" xmlns:xlink="http://www.w3.org/1999/xlink" clip-rule="evenodd" stroke-miterlimit="4.00" viewBox="0 0 147 138"><desc>SVG generated by Keynote</desc><defs></defs><g transform="matrix(1.00, 0.00, -0.00, -1.00, 0.0, 138.0)"><g><clipPath id="clip-960"><path d="M 0.0 5.5 L 147.0 5.5 L 147.0 33.5 L 0.0 33.5 Z M 0.0 5.5 "></path></clipPath><g clip-path="url(#clip-960)"><text xml:space="preserve" font-family="Helvetica-Light" font-size="28.0" fill="#383E51" transform="matrix(1.00, 0.00, -0.00, -1.00, 9.0, 6.0)">С</text><text xml:space="preserve" font-family="Helvetica-Light" font-size="28.0" fill="#383E51" transform="matrix(1.00, 0.00, -0.00, -1.00, 28.7, 6.0)">т</text><text xml:space="preserve" font-family="Helvetica-Light" font-size="28.0" fill="#383E51" transform="matrix(1.00, 0.00, -0.00, -1.00, 41.1, 6.0)">р</text><text xml:space="preserve" font-family="Helvetica-Light" font-size="28.0" fill="#383E51" transform="matrix(1.00, 0.00, -0.00, -1.00, 57.2, 6.0)">а</text><text xml:space="preserve" font-family="Helvetica-Light" font-size="28.0" fill="#383E51" transform="matrix(1.00, 0.00, -0.00, -1.00, 71.7, 6.0)">ш</text><text xml:space="preserve" font-family="Helvetica-Light" font-size="28.0" fill="#383E51" transform="matrix(1.00, 0.00, -0.00, -1.00, 93.6, 6.0)">н</text><text xml:space="preserve" font-family="Helvetica-Light" font-size="28.0" fill="#383E51" transform="matrix(1.00, 0.00, -0.00, -1.00, 108.7, 6.0)">о</text><text xml:space="preserve" font-family="Helvetica-Light" font-size="28.0" fill="#383E51" transform="matrix(1.00, 0.00, -0.00, -1.00, 124.2, 6.0)">е</text></g></g><g><clipPath id="clip-961"><path d="M 16.6 35.5 L 118.6 35.5 L 118.6 137.5 L 16.6 137.5 Z M 16.6 35.5 "></path></clipPath><g clip-path="url(#clip-961)"><image xlink:href="../../710C39F4-EC0A-40E9-A353-AEDD765AFBFB/assets/071E955644F61C6710E86AE74D5BA9D0.png" width="118.00" height="118.00" transform="matrix(0.86, 0.00, -0.00, -0.86, 17.0, 137.0)"></image></g></g></g></svg>