<?xml version="1.0" encoding="UTF-8" standalone="no"?><svg xmlns="http://www.w3.org/2000/svg" xmlns:xlink="http://www.w3.org/1999/xlink" clip-rule="evenodd" stroke-miterlimit="4.00" viewBox="0 0 225 69"><desc>SVG generated by Keynote</desc><defs></defs><g transform="matrix(1.00, 0.00, -0.00, -1.00, 0.0, 69.0)"><g><clipPath id="clip-930"><path d="M 104.0 68.0 L 225.0 68.0 L 225.0 1.0 L 104.0 1.0 Z M 104.0 68.0 "></path></clipPath><g clip-path="url(#clip-930)"><g><clipPath id="clip-931"><path d="M 104.0 1.0 L 224.6 1.0 L 224.6 68.0 L 104.0 68.0 Z M 104.0 1.0 "></path></clipPath><g clip-path="url(#clip-931)"><path d="M 222.6 48.0 C 221.4 48.0 220.5 47.2 220.2 46.1 L 211.4 46.1 L 211.4 51.0 C 211.4 51.3 211.2 51.5 210.9 51.5 L 208.1 51.5 L 208.1 54.8 L 208.1 54.8 L 208.1 54.8 C 208.1 62.1 202.2 68.0 194.8 68.0 C 189.2 68.0 184.4 64.5 182.5 59.6 L 169.1 57.8 C 167.4 59.4 165.1 60.4 162.6 60.4 C 157.5 60.4 153.4 56.5 153.1 51.5 L 150.4 51.5 C 150.1 51.5 149.8 51.3 149.8 51.0 L 149.8 46.1 L 139.8 46.1 C 139.5 47.2 138.6 48.0 137.4 48.0 C 136.1 48.0 135.0 46.9 135.0 45.6 C 135.0 44.3 136.1 43.2 137.4 43.2 C 138.6 43.2 139.5 44.0 139.8 45.0 L 149.8 45.0 L 149.8 40.2 C 149.8 39.9 150.1 39.6 150.4 39.6 L 153.1 39.6 L 153.1 36.6 C 153.1 36.6 153.1 36.6 153.1 36.6 C 153.1 36.5 153.1 36.5 153.1 36.5 C 153.1 36.5 153.1 36.5 153.1 36.5 C 153.1 36.4 153.1 36.4 153.1 36.4 C 153.1 36.4 153.1 36.4 153.1 36.4 C 153.1 36.3 153.1 36.3 153.2 36.3 C 153.2 36.3 153.2 36.3 153.2 36.3 C 153.2 36.3 153.2 36.3 153.2 36.3 L 158.4 29.9 C 155.5 25.8 152.9 21.5 150.7 17.1 C 150.6 17.1 150.6 17.0 150.6 17.0 C 149.9 15.6 149.2 14.2 148.6 12.7 C 148.6 12.7 148.5 12.7 148.5 12.7 C 148.5 12.7 148.5 12.7 148.5 12.7 C 148.0 11.6 147.5 10.5 147.1 9.4 C 144.4 15.1 142.3 21.1 140.8 27.2 L 142.0 27.6 C 142.4 27.8 142.8 28.2 143.0 28.7 C 143.3 29.2 143.3 29.7 143.1 30.2 C 142.7 31.2 141.5 31.7 140.5 31.3 L 140.0 31.1 L 140.0 34.8 C 140.0 35.9 139.1 36.8 138.0 36.8 C 136.9 36.8 136.1 35.9 136.0 34.8 L 136.0 35.9 C 136.0 37.0 135.2 37.8 134.1 37.8 C 133.0 37.8 132.1 37.0 132.1 35.9 L 132.1 30.9 L 132.1 30.9 L 132.1 33.5 C 132.1 34.6 131.2 35.5 130.1 35.5 C 129.0 35.5 128.1 34.6 128.1 33.5 L 128.1 30.4 L 128.1 30.4 L 128.1 30.4 C 128.1 30.3 128.1 30.3 128.1 30.3 C 128.1 30.3 128.1 30.3 128.1 30.3 C 128.7 27.3 129.3 24.5 130.1 21.6 C 130.1 21.6 130.1 21.5 130.1 21.5 C 130.1 21.5 130.1 21.5 130.1 21.5 C 130.8 19.1 131.5 16.7 132.4 14.4 C 132.4 14.3 132.4 14.3 132.4 14.3 C 132.4 14.3 132.4 14.3 132.4 14.3 C 133.9 9.8 135.8 5.5 137.9 1.3 C 137.9 1.3 137.9 1.3 137.9 1.3 C 137.9 1.2 137.9 1.2 138.0 1.2 C 138.0 1.2 138.0 1.2 138.0 1.2 C 138.0 1.1 138.0 1.1 138.1 1.1 C 138.1 1.1 138.1 1.1 138.1 1.1 C 138.1 1.1 138.2 1.0 138.2 1.0 C 138.2 1.0 138.2 1.0 138.2 1.0 C 138.3 1.0 138.3 1.0 138.4 1.0 C 138.4 1.0 138.4 1.0 138.4 1.0 C 138.4 1.0 138.4 1.0 138.4 1.0 L 150.5 1.0 C 150.5 1.0 150.5 1.0 150.5 1.0 C 150.5 1.0 150.5 1.0 150.5 1.0 L 156.1 1.0 C 156.1 1.0 156.1 1.0 156.1 1.0 C 156.1 1.0 156.1 1.0 156.1 1.0 L 176.0 1.0 C 176.0 1.0 176.0 1.0 176.0 1.0 C 176.0 1.0 176.0 1.0 176.0 1.0 L 185.2 1.0 C 185.2 1.0 185.2 1.0 185.2 1.0 C 185.2 1.0 185.2 1.0 185.2 1.0 L 205.1 1.0 C 205.1 1.0 205.1 1.0 205.1 1.0 C 205.1 1.0 205.1 1.0 205.1 1.0 L 213.1 1.0 C 213.1 1.0 213.1 1.0 213.1 1.0 C 213.1 1.0 213.1 1.0 213.1 1.0 L 216.5 1.0 C 216.5 1.0 216.5 1.0 216.5 1.0 C 216.5 1.0 216.5 1.0 216.5 1.0 C 216.6 1.0 216.6 1.0 216.7 1.0 C 216.7 1.0 216.7 1.0 216.7 1.0 C 216.7 1.0 216.7 1.0 216.7 1.0 C 216.7 1.0 216.7 1.1 216.7 1.1 C 216.8 1.1 216.8 1.1 216.8 1.1 C 216.8 1.1 216.8 1.1 216.8 1.1 C 216.8 1.1 216.9 1.1 216.9 1.1 C 216.9 1.2 216.9 1.2 216.9 1.2 C 216.9 1.2 216.9 1.2 216.9 1.2 C 216.9 1.2 217.0 1.3 217.0 1.3 C 217.0 1.3 217.0 1.3 217.0 1.3 C 217.0 1.3 217.0 1.3 217.0 1.4 C 217.0 1.4 217.0 1.4 217.0 1.4 C 217.0 1.4 217.0 1.4 217.0 1.5 C 217.0 1.5 217.0 1.5 217.0 1.5 C 217.0 1.5 217.0 1.5 217.0 1.5 C 217.0 1.5 217.0 1.6 217.0 1.6 C 217.0 1.6 217.0 1.6 217.0 1.6 C 217.0 1.6 217.0 1.7 217.0 1.7 C 217.0 1.7 217.0 1.7 217.0 1.7 C 216.9 2.2 216.7 2.6 216.5 3.1 C 216.5 3.1 216.5 3.2 216.5 3.2 C 215.4 6.4 214.1 9.6 212.7 12.7 C 212.7 12.7 212.7 12.7 212.7 12.7 C 212.7 12.7 212.7 12.7 212.7 12.7 C 212.0 14.2 211.3 15.6 210.6 17.0 C 210.6 17.0 210.6 17.1 210.5 17.1 C 208.3 21.5 205.7 25.8 202.9 29.9 L 208.0 36.3 C 208.0 36.3 208.0 36.3 208.0 36.3 C 208.0 36.3 208.1 36.3 208.1 36.3 C 208.1 36.3 208.1 36.3 208.1 36.4 C 208.1 36.4 208.1 36.4 208.1 36.4 C 208.1 36.4 208.1 36.4 208.1 36.5 C 208.1 36.5 208.1 36.5 208.1 36.5 C 208.1 36.5 208.1 36.5 208.1 36.6 C 208.1 36.6 208.1 36.6 208.1 36.6 L 208.1 39.6 L 210.9 39.6 C 211.2 39.6 211.4 39.9 211.4 40.2 L 211.4 45.0 L 220.2 45.0 C 220.5 44.0 221.4 43.2 222.6 43.2 C 223.9 43.2 225.0 44.3 225.0 45.6 C 225.0 46.9 223.9 48.0 222.6 48.0 " fill="#E9C05A"></path><path d="M 198.5 48.0 C 197.3 48.0 196.4 47.2 196.1 46.1 L 187.3 46.1 L 187.3 51.0 C 187.3 51.3 187.1 51.5 186.8 51.5 L 184.0 51.5 L 184.0 54.8 L 184.0 54.8 L 184.0 54.8 C 184.0 62.1 178.1 68.0 170.7 68.0 C 165.1 68.0 160.3 64.5 158.3 59.6 L 145.0 57.8 C 143.3 59.4 141.0 60.4 138.5 60.4 C 133.4 60.4 129.3 56.5 129.0 51.5 L 126.3 51.5 C 126.0 51.5 125.7 51.3 125.7 51.0 L 125.7 46.1 L 115.7 46.1 C 115.4 47.2 114.5 48.0 113.3 48.0 C 112.0 48.0 110.9 46.9 110.9 45.6 C 110.9 44.3 112.0 43.2 113.3 43.2 C 114.5 43.2 115.4 44.0 115.7 45.0 L 125.7 45.0 L 125.7 40.2 C 125.7 39.9 126.0 39.6 126.3 39.6 L 129.0 39.6 L 129.0 36.6 C 129.0 36.6 129.0 36.6 129.0 36.6 C 129.0 36.5 129.0 36.5 129.0 36.5 C 129.0 36.5 129.0 36.5 129.0 36.5 C 129.0 36.4 129.0 36.4 129.0 36.4 C 129.0 36.4 129.0 36.4 129.0 36.4 C 129.0 36.3 129.0 36.3 129.1 36.3 C 129.1 36.3 129.1 36.3 129.1 36.3 C 129.1 36.3 129.1 36.3 129.1 36.3 L 134.3 29.9 C 131.4 25.8 128.8 21.5 126.6 17.1 C 126.5 17.1 126.5 17.0 126.5 17.0 C 125.8 15.6 125.1 14.2 124.5 12.7 C 124.5 12.7 124.4 12.7 124.4 12.7 C 124.4 12.7 124.4 12.7 124.4 12.7 C 123.9 11.6 123.4 10.5 123.0 9.4 C 120.3 15.1 118.2 21.1 116.7 27.2 L 117.9 27.6 C 118.3 27.8 118.7 28.2 118.9 28.7 C 119.2 29.2 119.2 29.7 119.0 30.2 C 118.6 31.2 117.4 31.7 116.4 31.3 L 115.9 31.1 L 115.9 34.8 C 115.9 35.9 115.0 36.8 113.9 36.8 C 112.8 36.8 112.0 35.9 111.9 34.8 L 111.9 35.9 C 111.9 37.0 111.0 37.8 110.0 37.8 C 108.9 37.8 108.0 37.0 108.0 35.9 L 108.0 30.9 L 108.0 30.9 L 108.0 33.5 C 108.0 34.6 107.1 35.5 106.0 35.5 C 104.9 35.5 104.0 34.6 104.0 33.5 L 104.0 30.4 L 104.0 30.4 L 104.0 30.4 C 104.0 30.3 104.0 30.3 104.0 30.3 C 104.0 30.3 104.0 30.3 104.0 30.3 C 104.6 27.3 105.2 24.5 106.0 21.6 C 106.0 21.6 106.0 21.5 106.0 21.5 C 106.0 21.5 106.0 21.5 106.0 21.5 C 106.7 19.1 107.4 16.7 108.3 14.4 C 108.3 14.3 108.3 14.3 108.3 14.3 C 108.3 14.3 108.3 14.3 108.3 14.3 C 109.8 9.8 111.7 5.5 113.8 1.3 C 113.8 1.3 113.8 1.3 113.8 1.3 C 113.8 1.2 113.8 1.2 113.9 1.2 C 113.9 1.2 113.9 1.2 113.9 1.2 C 113.9 1.1 113.9 1.1 114.0 1.1 C 114.0 1.1 114.0 1.1 114.0 1.1 C 114.0 1.1 114.1 1.0 114.1 1.0 C 114.1 1.0 114.1 1.0 114.1 1.0 C 114.2 1.0 114.2 1.0 114.3 1.0 C 114.3 1.0 114.3 1.0 114.3 1.0 C 114.3 1.0 114.3 1.0 114.3 1.0 L 126.4 1.0 C 126.4 1.0 126.4 1.0 126.4 1.0 C 126.4 1.0 126.4 1.0 126.4 1.0 L 132.0 1.0 C 132.0 1.0 132.0 1.0 132.0 1.0 C 132.0 1.0 132.0 1.0 132.0 1.0 L 151.9 1.0 C 151.9 1.0 151.9 1.0 151.9 1.0 C 151.9 1.0 151.9 1.0 151.9 1.0 L 161.1 1.0 C 161.1 1.0 161.1 1.0 161.1 1.0 C 161.1 1.0 161.1 1.0 161.1 1.0 L 181.0 1.0 C 181.0 1.0 181.0 1.0 181.0 1.0 C 181.0 1.0 181.0 1.0 181.0 1.0 L 189.0 1.0 C 189.0 1.0 189.0 1.0 189.0 1.0 C 189.0 1.0 189.0 1.0 189.0 1.0 L 192.4 1.0 C 192.4 1.0 192.4 1.0 192.4 1.0 C 192.4 1.0 192.4 1.0 192.4 1.0 C 192.5 1.0 192.5 1.0 192.6 1.0 C 192.6 1.0 192.6 1.0 192.6 1.0 C 192.6 1.0 192.6 1.0 192.6 1.0 C 192.6 1.0 192.6 1.1 192.6 1.1 C 192.7 1.1 192.7 1.1 192.7 1.1 C 192.7 1.1 192.7 1.1 192.7 1.1 C 192.7 1.1 192.8 1.1 192.8 1.1 C 192.8 1.2 192.8 1.2 192.8 1.2 C 192.8 1.2 192.8 1.2 192.8 1.2 C 192.8 1.2 192.9 1.3 192.9 1.3 C 192.9 1.3 192.9 1.3 192.9 1.3 C 192.9 1.3 192.9 1.3 192.9 1.4 C 192.9 1.4 192.9 1.4 192.9 1.4 C 192.9 1.4 192.9 1.4 192.9 1.5 C 192.9 1.5 192.9 1.5 192.9 1.5 C 192.9 1.5 192.9 1.5 192.9 1.5 C 192.9 1.5 192.9 1.6 192.9 1.6 C 192.9 1.6 192.9 1.6 192.9 1.6 C 192.9 1.6 192.9 1.7 192.9 1.7 C 192.9 1.7 192.9 1.7 192.9 1.7 C 192.7 2.2 192.6 2.6 192.4 3.1 C 192.4 3.1 192.4 3.2 192.4 3.2 C 191.3 6.4 190.0 9.6 188.6 12.7 C 188.6 12.7 188.6 12.7 188.6 12.7 C 188.6 12.7 188.6 12.7 188.6 12.7 C 187.9 14.2 187.2 15.6 186.5 17.0 C 186.5 17.0 186.5 17.1 186.4 17.1 C 184.2 21.5 181.6 25.8 178.8 29.9 L 183.9 36.3 C 183.9 36.3 183.9 36.3 183.9 36.3 C 183.9 36.3 183.9 36.3 184.0 36.3 C 184.0 36.3 184.0 36.3 184.0 36.4 C 184.0 36.4 184.0 36.4 184.0 36.4 C 184.0 36.4 184.0 36.4 184.0 36.5 C 184.0 36.5 184.0 36.5 184.0 36.5 C 184.0 36.5 184.0 36.5 184.0 36.6 C 184.0 36.6 184.0 36.6 184.0 36.6 L 184.0 39.6 L 186.8 39.6 C 187.1 39.6 187.3 39.9 187.3 40.2 L 187.3 45.0 L 196.1 45.0 C 196.4 44.0 197.3 43.2 198.5 43.2 C 199.8 43.2 200.9 44.3 200.9 45.6 C 200.9 46.9 199.8 48.0 198.5 48.0 " fill="#FED97B"></path><path d="M 0.0 0.0 L 106.1 0.0 C 109.5 -4.8 111.5 -10.6 111.5 -16.9 C 111.5 -28.3 104.9 -38.2 95.3 -43.0 " fill="none" stroke="#393E50" stroke-width="3.00" stroke-miterlimit="0.00" stroke-linecap="round" stroke-linejoin="round" transform="matrix(0.36, 0.00, 0.00, 0.36, 127.0, 16.8)"></path><path d="M 0.0 0.0 C 8.6 21.3 19.7 42.0 33.3 61.7 " fill="none" stroke="#393E50" stroke-width="3.00" stroke-miterlimit="0.00" stroke-linecap="round" stroke-linejoin="round" transform="matrix(0.36, 0.00, 0.00, 0.36, 123.0, 8.0)"></path><path d="M 0.0 0.0 C 5.3 -2.2 10.5 -4.8 15.5 -7.7 L 47.5 -10.1 " fill="none" stroke="#393E50" stroke-width="1.00" stroke-miterlimit="0.00" stroke-linecap="round" stroke-linejoin="round" transform="matrix(0.36, 0.00, 0.00, 0.36, 129.4, 16.8)"></path><path d="M 0.0 0.0 C -7.9 4.5 -16.1 8.5 -24.5 11.9 " fill="none" stroke="#393E50" stroke-width="1.00" stroke-miterlimit="0.00" stroke-linecap="round" stroke-linejoin="round" transform="matrix(0.36, 0.00, 0.00, 0.36, 134.9, 10.8)"></path><path d="M 0.0 0.0 C -8.7 5.0 -17.7 9.4 -26.9 13.2 " fill="none" stroke="#393E50" stroke-width="3.00" stroke-miterlimit="0.00" stroke-linecap="round" stroke-linejoin="round" transform="matrix(0.36, 0.00, 0.00, 0.36, 134.6, 7.8)"></path><path d="M 0.0 0.0 C -8.8 4.8 -17.8 9.1 -27.1 12.9 " fill="none" stroke="#393E50" stroke-width="1.00" stroke-miterlimit="0.00" stroke-linecap="round" stroke-linejoin="round" transform="matrix(0.36, 0.00, 0.00, 0.36, 133.3, 4.8)"></path><path d="M 0.0 0.0 C 2.5 6.7 5.2 13.3 8.3 19.8 " fill="none" stroke="#393E50" stroke-width="3.00" stroke-miterlimit="0.00" stroke-linecap="round" stroke-linejoin="round" transform="matrix(0.36, 0.00, 0.00, 0.36, 132.0, 1.5)"></path><path d="M 0.0 0.0 C 5.2 -27.7 14.2 -55.0 27.2 -81.1 " fill="none" stroke="#393E50" stroke-width="3.00" stroke-miterlimit="0.00" stroke-linecap="round" stroke-linejoin="round" transform="matrix(0.36, 0.00, 0.00, 0.36, 104.5, 30.4)"></path><path d="M 0.0 0.0 C -13.1 23.1 -22.7 47.7 -28.8 73.1 " fill="none" stroke="#393E50" stroke-width="3.00" stroke-miterlimit="0.00" stroke-linecap="round" stroke-linejoin="round" transform="matrix(0.36, 0.00, 0.00, 0.36, 126.4, 1.5)"></path><path d="M 0.0 0.0 C -8.7 -5.0 -17.6 -9.5 -26.9 -13.3 " fill="none" stroke="#393E50" stroke-width="1.00" stroke-miterlimit="0.00" stroke-linecap="round" stroke-linejoin="round" transform="matrix(0.36, 0.00, 0.00, 0.36, 123.4, 7.2)"></path><path d="M 0.0 0.0 C -8.7 -5.0 -17.7 -9.4 -26.9 -13.2 " fill="none" stroke="#393E50" stroke-width="3.00" stroke-miterlimit="0.00" stroke-linecap="round" stroke-linejoin="round" transform="matrix(0.36, 0.00, 0.00, 0.36, 122.2, 9.7)"></path><path d="M 0.0 0.0 C -8.8 -4.8 -17.8 -9.1 -27.1 -12.9 " fill="none" stroke="#393E50" stroke-width="1.00" stroke-miterlimit="0.00" stroke-linecap="round" stroke-linejoin="round" transform="matrix(0.36, 0.00, 0.00, 0.36, 120.9, 12.7)"></path><path d="M 0.0 0.0 C -8.8 -4.9 -17.6 -9.8 -26.4 -14.8 " fill="none" stroke="#393E50" stroke-width="1.00" stroke-miterlimit="0.00" stroke-linecap="round" stroke-linejoin="round" transform="matrix(0.36, 0.00, 0.00, 0.36, 120.1, 14.8)"></path><path d="M 0.0 0.0 C -8.5 -5.5 -17.4 -10.5 -26.4 -15.0 " fill="none" stroke="#393E50" stroke-width="1.00" stroke-miterlimit="0.00" stroke-linecap="round" stroke-linejoin="round" transform="matrix(0.36, 0.00, 0.00, 0.36, 119.1, 17.4)"></path><path d="M 0.0 0.0 C -8.6 -5.5 -17.4 -10.4 -26.6 -14.8 " fill="none" stroke="#393E50" stroke-width="3.00" stroke-miterlimit="0.00" stroke-linecap="round" stroke-linejoin="round" transform="matrix(0.36, 0.00, 0.00, 0.36, 118.3, 19.7)"></path><path d="M 0.0 0.0 L -27.1 -13.8 " fill="none" stroke="#393E50" stroke-width="1.00" stroke-miterlimit="0.00" stroke-linecap="round" stroke-linejoin="round" transform="matrix(0.36, 0.00, 0.00, 0.36, 117.6, 21.9)"></path><path d="M 0.0 0.0 C -8.9 -4.9 -18.0 -9.5 -27.2 -13.7 " fill="none" stroke="#393E50" stroke-width="1.00" stroke-miterlimit="0.00" stroke-linecap="round" stroke-linejoin="round" transform="matrix(0.36, 0.00, 0.00, 0.36, 117.0, 24.2)"></path><path d="M 0.0 0.0 C -9.2 -3.9 -18.6 -7.4 -28.1 -10.6 " fill="none" stroke="#393E50" stroke-width="3.00" stroke-miterlimit="0.00" stroke-linecap="round" stroke-linejoin="round" transform="matrix(0.36, 0.00, 0.00, 0.36, 116.6, 25.5)"></path><path d="M 0.0 0.0 L 0.0 8.9 C 0.0 11.1 -1.8 12.9 -4.0 12.9 L -4.0 12.9 C -6.3 12.9 -8.1 11.1 -8.1 8.9 L -8.1 0.0 " fill="none" stroke="#393E50" stroke-width="3.00" stroke-miterlimit="0.00" stroke-linecap="round" stroke-linejoin="round" transform="matrix(0.36, 0.00, 0.00, 0.36, 107.4, 30.4)"></path><path d="M 0.0 0.0 L 8.1 0.6 " fill="none" stroke="#393E50" stroke-width="1.00" stroke-miterlimit="0.00" stroke-linecap="round" stroke-linejoin="round" transform="matrix(0.36, 0.00, 0.00, 0.36, 104.5, 31.4)"></path><path d="M 0.0 0.0 L 8.1 0.2 " fill="none" stroke="#393E50" stroke-width="1.00" stroke-miterlimit="0.00" stroke-linecap="round" stroke-linejoin="round" transform="matrix(0.36, 0.00, 0.00, 0.36, 104.5, 33.0)"></path><path d="M 0.0 0.0 L 0.0 15.5 C 0.0 17.8 -1.8 19.6 -4.0 19.6 L -4.0 19.6 C -6.3 19.6 -8.1 17.8 -8.1 15.5 L -8.1 0.0 " fill="none" stroke="#393E50" stroke-width="3.00" stroke-miterlimit="0.00" stroke-linecap="round" stroke-linejoin="round" transform="matrix(0.36, 0.00, 0.00, 0.36, 111.4, 30.4)"></path><path d="M 0.0 0.0 L 8.1 0.6 " fill="none" stroke="#393E50" stroke-width="1.00" stroke-miterlimit="0.00" stroke-linecap="round" stroke-linejoin="round" transform="matrix(0.36, 0.00, 0.00, 0.36, 108.5, 31.7)"></path><path d="M 0.0 0.0 L 8.1 0.2 " fill="none" stroke="#393E50" stroke-width="1.00" stroke-miterlimit="0.00" stroke-linecap="round" stroke-linejoin="round" transform="matrix(0.36, 0.00, 0.00, 0.36, 108.5, 33.1)"></path><path d="M 0.0 0.0 L 8.1 0.6 " fill="none" stroke="#393E50" stroke-width="1.00" stroke-miterlimit="0.00" stroke-linecap="round" stroke-linejoin="round" transform="matrix(0.36, 0.00, 0.00, 0.36, 108.5, 33.5)"></path><path d="M 0.0 0.0 L 8.1 0.2 " fill="none" stroke="#393E50" stroke-width="1.00" stroke-miterlimit="0.00" stroke-linecap="round" stroke-linejoin="round" transform="matrix(0.36, 0.00, 0.00, 0.36, 108.5, 34.9)"></path><path d="M 0.0 0.0 L 0.0 12.5 C 0.0 14.8 -1.8 16.6 -4.0 16.6 L -4.0 16.6 C -6.3 16.6 -8.1 14.8 -8.1 12.5 L -8.1 0.0 " fill="none" stroke="#393E50" stroke-width="3.00" stroke-miterlimit="0.00" stroke-linecap="round" stroke-linejoin="round" transform="matrix(0.36, 0.00, 0.00, 0.36, 115.4, 30.4)"></path><path d="M 0.0 0.0 L 8.1 0.6 " fill="none" stroke="#393E50" stroke-width="1.00" stroke-miterlimit="0.00" stroke-linecap="round" stroke-linejoin="round" transform="matrix(0.36, 0.00, 0.00, 0.36, 112.5, 30.7)"></path><path d="M 0.0 0.0 L 8.1 0.2 " fill="none" stroke="#393E50" stroke-width="1.00" stroke-miterlimit="0.00" stroke-linecap="round" stroke-linejoin="round" transform="matrix(0.36, 0.00, 0.00, 0.36, 112.5, 32.0)"></path><path d="M 0.0 0.0 L 8.1 0.6 " fill="none" stroke="#393E50" stroke-width="1.00" stroke-miterlimit="0.00" stroke-linecap="round" stroke-linejoin="round" transform="matrix(0.36, 0.00, 0.00, 0.36, 112.5, 32.5)"></path><path d="M 0.0 0.0 L 8.1 0.2 " fill="none" stroke="#393E50" stroke-width="1.00" stroke-miterlimit="0.00" stroke-linecap="round" stroke-linejoin="round" transform="matrix(0.36, 0.00, 0.00, 0.36, 112.5, 33.8)"></path><path d="M 0.0 0.0 L 3.2 1.3 C 5.3 2.1 7.6 1.1 8.4 -1.0 L 8.4 -1.0 C 9.3 -3.1 8.2 -5.4 6.2 -6.3 L -3.0 -9.9 " fill="none" stroke="#393E50" stroke-width="3.00" stroke-miterlimit="0.00" stroke-linecap="round" stroke-linejoin="round" transform="matrix(0.36, 0.00, 0.00, 0.36, 115.5, 30.4)"></path><path d="M 0.0 0.0 C 4.8 2.0 9.4 4.7 13.5 7.8 " fill="none" stroke="#393E50" stroke-width="1.00" stroke-miterlimit="0.00" stroke-linecap="round" stroke-linejoin="round" transform="matrix(0.36, 0.00, 0.00, 0.36, 120.0, 1.5)"></path><path d="M 0.0 0.0 C 1.5 1.2 3.0 2.5 4.4 3.8 " fill="none" stroke="#393E50" stroke-width="1.00" stroke-miterlimit="0.00" stroke-linecap="round" stroke-linejoin="round" transform="matrix(0.36, 0.00, 0.00, 0.36, 124.1, 1.5)"></path><path d="M 0.0 0.0 C 5.0 -3.4 9.8 -7.2 14.2 -11.4 " fill="none" stroke="#393E50" stroke-width="3.00" stroke-miterlimit="0.00" stroke-linecap="round" stroke-linejoin="round" transform="matrix(0.36, 0.00, 0.00, 0.36, 124.4, 5.6)"></path><path d="M 0.0 0.0 C 0.0 -19.7 -16.0 -35.7 -35.7 -35.7 C -55.4 -35.7 -71.4 -19.7 -71.4 0.0 C -71.4 19.7 -55.4 35.7 -35.7 35.7 C -16.0 35.7 0.0 19.7 0.0 0.0 Z M 0.0 0.0 " fill="none" stroke="#393E50" stroke-width="3.00" stroke-miterlimit="0.00" stroke-linecap="round" stroke-linejoin="round" transform="matrix(0.36, 0.00, 0.00, 0.36, 183.5, 54.8)"></path><path d="M 0.0 0.0 C -16.5 0.0 -29.9 13.4 -29.9 29.9 C -29.9 46.3 -16.5 59.7 0.0 59.7 C 16.5 59.7 29.9 46.3 29.9 29.9 C 29.9 13.4 16.5 0.0 0.0 0.0 Z M 0.0 0.0 " fill="none" stroke="#393E50" stroke-width="2.00" stroke-miterlimit="0.00" stroke-linecap="round" stroke-linejoin="round" transform="matrix(0.36, 0.00, 0.00, 0.36, 170.7, 44.2)"></path><path d="M 0.0 0.0 C -13.6 0.0 -24.6 11.1 -24.6 24.6 C -24.6 38.2 -13.6 49.3 0.0 49.3 C 13.6 49.3 24.6 38.2 24.6 24.6 C 24.6 11.1 13.6 0.0 0.0 0.0 Z M 0.0 0.0 " fill="none" stroke="#393E50" stroke-width="6.00" stroke-miterlimit="0.00" stroke-linecap="round" stroke-linejoin="round" transform="matrix(0.36, 0.00, 0.00, 0.36, 170.7, 46.0)"></path><path d="M 0.0 0.0 C -11.4 0.0 -20.6 9.3 -20.6 20.6 C -20.6 32.0 -11.4 41.3 0.0 41.3 C 11.4 41.3 20.6 32.0 20.6 20.6 C 20.6 9.3 11.4 0.0 0.0 0.0 Z M 0.0 0.0 " fill="none" stroke="#393E50" stroke-width="1.00" stroke-miterlimit="0.00" stroke-linecap="round" stroke-linejoin="round" stroke-dasharray="2.0" transform="matrix(0.36, 0.00, 0.00, 0.36, 170.7, 47.5)"></path><path d="M 0.0 0.0 C 0.0 -13.8 -11.2 -25.0 -25.0 -25.0 C -38.8 -25.0 -50.0 -13.8 -50.0 0.0 C -50.0 13.8 -38.8 25.0 -25.0 25.0 C -11.2 25.0 0.0 13.8 0.0 0.0 Z M 0.0 0.0 " fill="none" stroke="#393E50" stroke-width="3.00" stroke-miterlimit="0.00" stroke-linecap="round" stroke-linejoin="round" transform="matrix(0.36, 0.00, 0.00, 0.36, 147.4, 51.0)"></path><path d="M 0.0 0.0 C -10.6 0.0 -19.2 8.6 -19.2 19.2 C -19.2 29.7 -10.6 38.3 0.0 38.3 C 10.6 38.3 19.2 29.7 19.2 19.2 C 19.2 8.6 10.6 0.0 0.0 0.0 Z M 0.0 0.0 " fill="none" stroke="#393E50" stroke-width="2.00" stroke-miterlimit="0.00" stroke-linecap="round" stroke-linejoin="round" transform="matrix(0.36, 0.00, 0.00, 0.36, 138.5, 44.2)"></path><path d="M 0.0 0.0 C -7.7 0.0 -13.9 6.2 -13.9 13.9 C -13.9 21.6 -7.7 27.9 0.0 27.9 C 7.7 27.9 13.9 21.6 13.9 13.9 C 13.9 6.2 7.7 0.0 0.0 0.0 Z M 0.0 0.0 " fill="none" stroke="#393E50" stroke-width="6.00" stroke-miterlimit="0.00" stroke-linecap="round" stroke-linejoin="round" transform="matrix(0.36, 0.00, 0.00, 0.36, 138.5, 46.0)"></path><path d="M 0.0 0.0 C -5.5 0.0 -9.9 4.5 -9.9 9.9 C -9.9 15.4 -5.5 19.9 0.0 19.9 C 5.5 19.9 9.9 15.4 9.9 9.9 C 9.9 4.5 5.5 0.0 0.0 0.0 Z M 0.0 0.0 " fill="none" stroke="#393E50" stroke-width="1.00" stroke-linecap="round" stroke-linejoin="round" stroke-dasharray="1.9, 1.9" transform="matrix(0.36, 0.00, 0.00, 0.36, 138.5, 47.5)"></path><path d="M 0.0 0.0 L 0.0 -51.2 L -150.9 -51.2 L -150.9 -10.7 " fill="none" stroke="#393E50" stroke-width="3.00" stroke-miterlimit="10.00" stroke-linecap="round" stroke-linejoin="round" transform="matrix(0.36, 0.00, 0.00, 0.36, 183.5, 54.8)"></path><path d="M 0.0 0.0 L -15.1 -18.6 L -35.7 -18.6 " fill="none" stroke="#393E50" stroke-width="3.00" stroke-miterlimit="10.00" stroke-linecap="round" stroke-linejoin="round" transform="matrix(0.36, 0.00, 0.00, 0.36, 183.5, 36.6)"></path><path d="M 0.0 0.0 L -34.8 0.0 L -50.0 18.6 " fill="none" stroke="#393E50" stroke-width="3.00" stroke-miterlimit="10.00" stroke-linecap="round" stroke-linejoin="round" transform="matrix(0.36, 0.00, 0.00, 0.36, 147.4, 30.0)"></path><path d="M 0.0 0.0 L 0.0 43.0 L 36.6 43.0 C 33.2 38.2 31.2 32.4 31.2 26.1 C 31.2 14.6 37.8 4.8 47.4 0.0 " fill="none" stroke="#393E50" stroke-width="3.00" stroke-miterlimit="10.00" stroke-linecap="round" stroke-linejoin="round" transform="matrix(0.36, 0.00, 0.00, 0.36, 134.9, 1.5)"></path><path d="M 0.0 0.0 L 0.0 -43.0 " fill="none" stroke="#393E50" stroke-width="3.00" stroke-miterlimit="10.00" stroke-linecap="round" stroke-linejoin="round" transform="matrix(0.36, 0.00, 0.00, 0.36, 178.1, 16.8)"></path><path d="M 0.0 0.0 L 38.9 5.4 " fill="none" stroke="#393E50" stroke-width="3.00" stroke-miterlimit="10.00" stroke-linecap="round" stroke-linejoin="round" transform="matrix(0.36, 0.00, 0.00, 0.36, 144.8, 57.2)"></path><path d="M 0.0 0.0 L -9.1 0.0 L -9.1 -30.4 L 0.0 -30.4 " fill="none" stroke="#393E50" stroke-width="3.00" stroke-miterlimit="10.00" stroke-linecap="round" stroke-linejoin="round" transform="matrix(0.36, 0.00, 0.00, 0.36, 129.5, 51.0)"></path><path d="M 0.0 0.0 L 9.1 0.0 L 9.1 30.4 L 0.0 30.4 " fill="none" stroke="#393E50" stroke-width="3.00" stroke-miterlimit="10.00" stroke-linecap="round" stroke-linejoin="round" transform="matrix(0.36, 0.00, 0.00, 0.36, 183.5, 40.2)"></path><path d="M 0.0 0.0 L -30.8 0.0 " fill="none" stroke="#393E50" stroke-width="3.00" stroke-miterlimit="10.00" stroke-linecap="round" stroke-linejoin="round" transform="matrix(0.36, 0.00, 0.00, 0.36, 126.3, 45.6)"></path><path d="M 0.0 0.0 L 27.5 0.0 " fill="none" stroke="#393E50" stroke-width="3.00" stroke-miterlimit="10.00" stroke-linecap="round" stroke-linejoin="round" transform="matrix(0.36, 0.00, 0.00, 0.36, 186.8, 45.6)"></path><path d="M 0.0 0.0 C 0.0 2.9 -2.3 5.2 -5.2 5.2 C -8.1 5.2 -10.5 2.9 -10.5 0.0 C -10.5 -2.9 -8.1 -5.2 -5.2 -5.2 C -2.3 -5.2 0.0 -2.9 0.0 0.0 Z M 0.0 0.0 " fill="none" stroke="#393E50" stroke-width="3.00" stroke-miterlimit="10.00" stroke-linecap="round" stroke-linejoin="round" transform="matrix(0.36, 0.00, 0.00, 0.36, 115.2, 45.6)"></path><path d="M 0.0 0.0 C 0.0 2.9 -2.3 5.2 -5.2 5.2 C -8.1 5.2 -10.5 2.9 -10.5 0.0 C -10.5 -2.9 -8.1 -5.2 -5.2 -5.2 C -2.3 -5.2 0.0 -2.9 0.0 0.0 Z M 0.0 0.0 " fill="none" stroke="#393E50" stroke-width="3.00" stroke-miterlimit="10.00" stroke-linecap="round" stroke-linejoin="round" transform="matrix(0.36, 0.00, 0.00, 0.36, 200.4, 45.6)"></path><path d="M 0.0 0.0 C 4.1 -4.5 6.5 -10.4 6.5 -16.9 C 6.5 -30.7 -4.7 -42.0 -18.5 -42.0 C -32.4 -42.0 -43.6 -30.7 -43.6 -16.9 C -43.6 -10.4 -41.2 -4.5 -37.1 0.0 " fill="none" stroke="#393E50" stroke-width="1.00" stroke-miterlimit="10.00" stroke-linecap="round" stroke-linejoin="round" transform="matrix(0.36, 0.00, 0.00, 0.36, 163.1, 16.8)"></path><path d="M 0.0 0.0 L -11.7 0.0 " fill="none" stroke="#393E50" stroke-width="3.00" stroke-miterlimit="10.00" stroke-linecap="round" stroke-linejoin="round" transform="matrix(0.36, 0.00, 0.00, 0.36, 168.3, 30.0)"></path><path d="M 0.0 0.0 L -5.8 0.0 " fill="none" stroke="#393E50" stroke-width="3.00" stroke-miterlimit="10.00" stroke-linecap="round" stroke-linejoin="round" transform="matrix(0.36, 0.00, 0.00, 0.36, 161.5, 30.0)"></path><path d="M 0.0 0.0 L 31.3 -2.4 " fill="none" stroke="#393E50" stroke-width="1.00" stroke-miterlimit="10.00" stroke-linecap="round" stroke-linejoin="round" transform="matrix(0.36, 0.00, 0.00, 0.36, 166.9, 11.7)"></path><path d="M 0.0 0.0 L 120.5 -3.8 " fill="none" stroke="#393E50" stroke-width="1.00" stroke-miterlimit="10.00" stroke-linecap="round" stroke-linejoin="round" transform="matrix(0.36, 0.00, 0.00, 0.36, 135.0, 15.4)"></path><path d="M 0.0 0.0 L 34.5 3.2 " fill="none" stroke="#393E50" stroke-width="1.00" stroke-miterlimit="10.00" stroke-linecap="round" stroke-linejoin="round" transform="matrix(0.36, 0.00, 0.00, 0.36, 145.8, 56.0)"></path><path d="M 0.0 0.0 L 145.5 -6.7 " fill="none" stroke="#393E50" stroke-width="1.00" stroke-miterlimit="10.00" stroke-linecap="round" stroke-linejoin="round" transform="matrix(0.36, 0.00, 0.00, 0.36, 129.5, 36.6)"></path><path d="M 0.0 0.0 C -9.2 27.8 -22.5 54.7 -40.0 80.0 " fill="none" stroke="#393E50" stroke-width="3.00" stroke-miterlimit="10.00" stroke-linecap="round" stroke-linejoin="round" transform="matrix(0.36, 0.00, 0.00, 0.36, 192.4, 1.5)"></path><path d="M 0.0 0.0 C 3.0 -6.5 5.8 -13.1 8.3 -19.8 " fill="none" stroke="#393E50" stroke-width="3.00" stroke-miterlimit="10.00" stroke-linecap="round" stroke-linejoin="round" transform="matrix(0.36, 0.00, 0.00, 0.36, 178.1, 8.6)"></path><path d="M 0.0 0.0 C -5.3 -2.2 -10.5 -4.8 -15.5 -7.7 L -47.5 -10.1 " fill="none" stroke="#393E50" stroke-width="1.00" stroke-miterlimit="10.00" stroke-linecap="round" stroke-linejoin="round" transform="matrix(0.36, 0.00, 0.00, 0.36, 183.6, 16.8)"></path><path d="M 0.0 0.0 C 7.9 4.5 16.1 8.5 24.5 11.9 " fill="none" stroke="#393E50" stroke-width="1.00" stroke-miterlimit="10.00" stroke-linecap="round" stroke-linejoin="round" transform="matrix(0.36, 0.00, 0.00, 0.36, 178.1, 10.8)"></path><path d="M 0.0 0.0 C 8.7 5.0 17.7 9.4 26.9 13.2 " fill="none" stroke="#393E50" stroke-width="3.00" stroke-miterlimit="10.00" stroke-linecap="round" stroke-linejoin="round" transform="matrix(0.36, 0.00, 0.00, 0.36, 178.4, 7.8)"></path><path d="M 0.0 0.0 C 8.8 4.8 17.8 9.1 27.1 12.9 " fill="none" stroke="#393E50" stroke-width="1.00" stroke-miterlimit="10.00" stroke-linecap="round" stroke-linejoin="round" transform="matrix(0.36, 0.00, 0.00, 0.36, 179.8, 4.8)"></path><path d="M 0.0 0.0 C 8.8 4.9 17.6 9.8 26.4 14.8 " fill="none" stroke="#393E50" stroke-width="1.00" stroke-miterlimit="10.00" stroke-linecap="round" stroke-linejoin="round" transform="matrix(0.36, 0.00, 0.00, 0.36, 180.6, 2.7)"></path><path d="M 0.0 0.0 C 6.5 3.9 13.2 7.6 20.0 11.0 " fill="none" stroke="#393E50" stroke-width="1.00" stroke-miterlimit="10.00" stroke-linecap="round" stroke-linejoin="round" transform="matrix(0.36, 0.00, 0.00, 0.36, 183.9, 1.5)"></path><path d="M 0.0 0.0 C 2.7 1.4 5.4 2.8 8.2 4.1 " fill="none" stroke="#393E50" stroke-width="3.00" stroke-miterlimit="10.00" stroke-linecap="round" stroke-linejoin="round" transform="matrix(0.36, 0.00, 0.00, 0.36, 189.0, 1.5)"></path><path d="M 0.0 0.0 L 58.7 0.0 " fill="none" stroke="#393E50" stroke-width="3.00" stroke-miterlimit="10.00" stroke-linecap="round" stroke-linejoin="round" transform="matrix(0.36, 0.00, 0.00, 0.36, 165.0, 16.8)"></path><path d="M 0.0 0.0 L 3.0 0.0 " fill="none" stroke="#393E50" stroke-width="3.00" stroke-miterlimit="10.00" stroke-linecap="round" stroke-linejoin="round" transform="matrix(0.36, 0.00, 0.00, 0.36, 107.4, 30.4)"></path><path d="M 0.0 0.0 L 3.0 0.0 " fill="none" stroke="#393E50" stroke-width="3.00" stroke-miterlimit="10.00" stroke-linecap="round" stroke-linejoin="round" transform="matrix(0.36, 0.00, 0.00, 0.36, 111.4, 30.4)"></path></g></g></g></g><g><clipPath id="clip-932"><path d="M 0.9 9.9 L 98.9 9.9 L 98.9 42.3 L 0.9 42.3 Z M 0.9 9.9 "></path></clipPath><g clip-path="url(#clip-932)"><path d="M 1.9 41.3 L 97.9 41.3 L 97.9 10.9 L 1.9 10.9 Z M 1.9 41.3 " fill="#FFDA7B"></path></g></g><g><clipPath id="clip-933"><path d="M 12.0 14.4 L 91.0 14.4 L 91.0 33.0 L 12.0 33.0 Z M 12.0 14.4 "></path></clipPath><g clip-path="url(#clip-933)"><text xml:space="preserve" font-family="Helvetica" font-size="44.2" fill="#393E50" transform="matrix(0.35, 0.00, -0.00, -0.36, 12.4, 19.6)">c</text><text xml:space="preserve" font-family="Helvetica" font-size="44.2" fill="#393E50" transform="matrix(0.35, 0.00, -0.00, -0.36, 20.1, 19.6)">i</text><text xml:space="preserve" font-family="Helvetica" font-size="44.2" fill="#393E50" transform="matrix(0.35, 0.00, -0.00, -0.36, 23.5, 19.6)">m</text><text xml:space="preserve" font-family="Helvetica" font-size="44.2" fill="#393E50" transform="matrix(0.35, 0.00, -0.00, -0.36, 36.3, 19.6)">o</text><text xml:space="preserve" font-family="Helvetica" font-size="44.2" fill="#393E50" transform="matrix(0.35, 0.00, -0.00, -0.36, 44.9, 19.6)">n</text><text xml:space="preserve" font-family="Helvetica" font-size="44.2" fill="#393E50" transform="matrix(0.35, 0.00, -0.00, -0.36, 53.5, 19.6)">.</text><text xml:space="preserve" font-family="Helvetica" font-size="44.2" fill="#393E50" transform="matrix(0.35, 0.00, -0.00, -0.36, 57.8, 19.6)">i</text><text xml:space="preserve" font-family="Helvetica" font-size="44.2" fill="#393E50" transform="matrix(0.35, 0.00, -0.00, -0.36, 61.2, 19.6)">o</text></g></g><g><clipPath id="clip-934"><path d="M 12.0 33.0 L 91.0 33.0 L 91.0 14.0 L 12.0 14.0 Z M 12.0 33.0 "></path></clipPath><g clip-path="url(#clip-934)"><g><clipPath id="clip-935"><path d="M 12.0 14.4 L 91.0 14.4 L 91.0 33.0 L 12.0 33.0 Z M 12.0 14.4 "></path></clipPath><g clip-path="url(#clip-935)"><path d="M 0.0 0.0 L -221.4 0.0 " fill="none" stroke="#FED97B" stroke-width="5.00" stroke-miterlimit="0.00" stroke-linecap="round" stroke-linejoin="round" transform="matrix(0.35, 0.00, 0.00, 0.36, 90.1, 14.9)"></path></g></g></g></g></g></svg>