<?xml version="1.0" encoding="UTF-8" standalone="no"?><svg xmlns="http://www.w3.org/2000/svg" xmlns:xlink="http://www.w3.org/1999/xlink" clip-rule="evenodd" stroke-miterlimit="4.00" viewBox="0 0 1920 1080"><desc>SVG generated by Keynote</desc><defs></defs><g transform="matrix(1.00, 0.00, -0.00, -1.00, 0.0, 1080.0)"><path d="M 0.0 1080.0 L 1920.0 1080.0 L 1920.0 0.0 L 0.0 0.0 Z M 0.0 1080.0 " fill="#FECF60"></path><g><clipPath id="clip-964"><path d="M 1785.0 64.0 L 1906.0 64.0 L 1906.0 -3.0 L 1785.0 -3.0 Z M 1785.0 64.0 "></path></clipPath><g clip-path="url(#clip-964)"><g><clipPath id="clip-965"><path d="M 1785.0 -3.0 L 1905.6 -3.0 L 1905.6 64.0 L 1785.0 64.0 Z M 1785.0 -3.0 "></path></clipPath><g clip-path="url(#clip-965)"><path d="M 1903.6 44.0 C 1902.4 44.0 1901.5 43.2 1901.2 42.1 L 1892.4 42.1 L 1892.4 47.0 C 1892.4 47.3 1892.2 47.5 1891.9 47.5 L 1889.1 47.5 L 1889.1 50.8 L 1889.1 50.8 L 1889.1 50.8 C 1889.1 58.1 1883.2 64.0 1875.8 64.0 C 1870.2 64.0 1865.4 60.5 1863.5 55.6 L 1850.1 53.8 C 1848.4 55.4 1846.1 56.4 1843.6 56.4 C 1838.5 56.4 1834.4 52.5 1834.1 47.5 L 1831.4 47.5 C 1831.1 47.5 1830.8 47.3 1830.8 47.0 L 1830.8 42.1 L 1820.8 42.1 C 1820.5 43.2 1819.6 44.0 1818.4 44.0 C 1817.1 44.0 1816.0 42.9 1816.0 41.6 C 1816.0 40.3 1817.1 39.2 1818.4 39.2 C 1819.6 39.2 1820.5 40.0 1820.8 41.0 L 1830.8 41.0 L 1830.8 36.2 C 1830.8 35.9 1831.1 35.6 1831.4 35.6 L 1834.1 35.6 L 1834.1 32.6 C 1834.1 32.6 1834.1 32.6 1834.1 32.6 C 1834.1 32.5 1834.1 32.5 1834.1 32.5 C 1834.1 32.5 1834.1 32.5 1834.1 32.5 C 1834.1 32.4 1834.1 32.4 1834.1 32.4 C 1834.1 32.4 1834.1 32.4 1834.1 32.4 C 1834.1 32.3 1834.1 32.3 1834.2 32.3 C 1834.2 32.3 1834.2 32.3 1834.2 32.3 C 1834.2 32.3 1834.2 32.3 1834.2 32.3 L 1839.4 25.9 C 1836.5 21.8 1833.9 17.5 1831.7 13.1 C 1831.7 13.1 1831.6 13.0 1831.6 13.0 C 1830.9 11.6 1830.2 10.2 1829.6 8.7 C 1829.6 8.7 1829.5 8.7 1829.5 8.7 C 1829.5 8.7 1829.5 8.7 1829.5 8.7 C 1829.0 7.6 1828.5 6.5 1828.1 5.4 C 1825.4 11.1 1823.3 17.1 1821.8 23.2 L 1823.0 23.6 C 1823.4 23.8 1823.8 24.2 1824.0 24.7 C 1824.3 25.2 1824.3 25.7 1824.1 26.2 C 1823.7 27.2 1822.5 27.7 1821.5 27.3 L 1821.0 27.1 L 1821.0 30.8 C 1821.0 31.9 1820.1 32.8 1819.0 32.8 C 1817.9 32.8 1817.1 31.9 1817.0 30.8 L 1817.0 31.9 C 1817.0 33.0 1816.2 33.8 1815.1 33.8 C 1814.0 33.8 1813.1 33.0 1813.1 31.9 L 1813.1 26.9 L 1813.1 26.9 L 1813.1 29.5 C 1813.1 30.6 1812.2 31.5 1811.1 31.5 C 1810.0 31.5 1809.1 30.6 1809.1 29.5 L 1809.1 26.4 L 1809.1 26.4 L 1809.1 26.4 C 1809.1 26.3 1809.1 26.3 1809.1 26.3 C 1809.1 26.3 1809.1 26.3 1809.1 26.3 C 1809.7 23.3 1810.3 20.5 1811.1 17.6 C 1811.1 17.6 1811.1 17.5 1811.1 17.5 C 1811.1 17.5 1811.1 17.5 1811.1 17.5 C 1811.8 15.1 1812.5 12.7 1813.4 10.4 C 1813.4 10.3 1813.4 10.3 1813.4 10.3 C 1813.4 10.3 1813.4 10.3 1813.4 10.3 C 1814.9 5.8 1816.8 1.5 1818.9 -2.7 C 1818.9 -2.7 1818.9 -2.7 1818.9 -2.7 C 1818.9 -2.8 1818.9 -2.8 1819.0 -2.8 C 1819.0 -2.8 1819.0 -2.8 1819.0 -2.8 C 1819.0 -2.9 1819.0 -2.9 1819.1 -2.9 C 1819.1 -2.9 1819.1 -2.9 1819.1 -2.9 C 1819.1 -2.9 1819.2 -3.0 1819.2 -3.0 C 1819.2 -3.0 1819.2 -3.0 1819.2 -3.0 C 1819.3 -3.0 1819.3 -3.0 1819.4 -3.0 C 1819.4 -3.0 1819.4 -3.0 1819.4 -3.0 C 1819.4 -3.0 1819.4 -3.0 1819.4 -3.0 L 1831.5 -3.0 C 1831.5 -3.0 1831.5 -3.0 1831.5 -3.0 C 1831.5 -3.0 1831.5 -3.0 1831.5 -3.0 L 1837.1 -3.0 C 1837.1 -3.0 1837.1 -3.0 1837.1 -3.0 C 1837.1 -3.0 1837.1 -3.0 1837.1 -3.0 L 1857.0 -3.0 C 1857.0 -3.0 1857.0 -3.0 1857.0 -3.0 C 1857.0 -3.0 1857.0 -3.0 1857.0 -3.0 L 1866.2 -3.0 C 1866.2 -3.0 1866.2 -3.0 1866.2 -3.0 C 1866.2 -3.0 1866.2 -3.0 1866.2 -3.0 L 1886.1 -3.0 C 1886.1 -3.0 1886.1 -3.0 1886.1 -3.0 C 1886.1 -3.0 1886.1 -3.0 1886.1 -3.0 L 1894.1 -3.0 C 1894.1 -3.0 1894.1 -3.0 1894.1 -3.0 C 1894.1 -3.0 1894.1 -3.0 1894.1 -3.0 L 1897.5 -3.0 C 1897.5 -3.0 1897.5 -3.0 1897.5 -3.0 C 1897.5 -3.0 1897.5 -3.0 1897.5 -3.0 C 1897.6 -3.0 1897.6 -3.0 1897.7 -3.0 C 1897.7 -3.0 1897.7 -3.0 1897.7 -3.0 C 1897.7 -3.0 1897.7 -3.0 1897.7 -3.0 C 1897.7 -3.0 1897.7 -2.9 1897.7 -2.9 C 1897.8 -2.9 1897.8 -2.9 1897.8 -2.9 C 1897.8 -2.9 1897.8 -2.9 1897.8 -2.9 C 1897.8 -2.9 1897.9 -2.9 1897.9 -2.9 C 1897.9 -2.8 1897.9 -2.8 1897.9 -2.8 C 1897.9 -2.8 1897.9 -2.8 1897.9 -2.8 C 1897.9 -2.8 1898.0 -2.7 1898.0 -2.7 C 1898.0 -2.7 1898.0 -2.7 1898.0 -2.7 C 1898.0 -2.7 1898.0 -2.7 1898.0 -2.6 C 1898.0 -2.6 1898.0 -2.6 1898.0 -2.6 C 1898.0 -2.6 1898.0 -2.6 1898.0 -2.5 C 1898.0 -2.5 1898.0 -2.5 1898.0 -2.5 C 1898.0 -2.5 1898.0 -2.5 1898.0 -2.5 C 1898.0 -2.5 1898.0 -2.4 1898.0 -2.4 C 1898.0 -2.4 1898.0 -2.4 1898.0 -2.4 C 1898.0 -2.4 1898.0 -2.3 1898.0 -2.3 C 1898.0 -2.3 1898.0 -2.3 1898.0 -2.3 C 1897.9 -1.8 1897.7 -1.4 1897.5 -0.9 C 1897.5 -0.9 1897.5 -0.8 1897.5 -0.8 C 1896.4 2.4 1895.1 5.6 1893.7 8.7 C 1893.7 8.7 1893.7 8.7 1893.7 8.7 C 1893.7 8.7 1893.7 8.7 1893.7 8.7 C 1893.0 10.2 1892.3 11.6 1891.6 13.0 C 1891.6 13.0 1891.6 13.1 1891.5 13.1 C 1889.3 17.5 1886.7 21.8 1883.9 25.9 L 1889.0 32.3 C 1889.0 32.3 1889.0 32.3 1889.0 32.3 C 1889.0 32.3 1889.1 32.3 1889.1 32.3 C 1889.1 32.3 1889.1 32.3 1889.1 32.4 C 1889.1 32.4 1889.1 32.4 1889.1 32.4 C 1889.1 32.4 1889.1 32.4 1889.1 32.5 C 1889.1 32.5 1889.1 32.5 1889.1 32.5 C 1889.1 32.5 1889.1 32.5 1889.1 32.6 C 1889.1 32.6 1889.1 32.6 1889.1 32.6 L 1889.1 35.6 L 1891.9 35.6 C 1892.2 35.6 1892.4 35.9 1892.4 36.2 L 1892.4 41.0 L 1901.2 41.0 C 1901.5 40.0 1902.4 39.2 1903.6 39.2 C 1904.9 39.2 1906.0 40.3 1906.0 41.6 C 1906.0 42.9 1904.9 44.0 1903.6 44.0 " fill="#E9C05A"></path><path d="M 1879.5 44.0 C 1878.3 44.0 1877.4 43.2 1877.1 42.1 L 1868.3 42.1 L 1868.3 47.0 C 1868.3 47.3 1868.1 47.5 1867.8 47.5 L 1865.0 47.5 L 1865.0 50.8 L 1865.0 50.8 L 1865.0 50.8 C 1865.0 58.1 1859.1 64.0 1851.7 64.0 C 1846.1 64.0 1841.3 60.5 1839.4 55.6 L 1826.0 53.8 C 1824.3 55.4 1822.0 56.4 1819.5 56.4 C 1814.4 56.4 1810.3 52.5 1810.0 47.5 L 1807.3 47.5 C 1807.0 47.5 1806.7 47.3 1806.7 47.0 L 1806.7 42.1 L 1796.7 42.1 C 1796.4 43.2 1795.5 44.0 1794.3 44.0 C 1793.0 44.0 1791.9 42.9 1791.9 41.6 C 1791.9 40.3 1793.0 39.2 1794.3 39.2 C 1795.5 39.2 1796.4 40.0 1796.7 41.0 L 1806.7 41.0 L 1806.7 36.2 C 1806.7 35.9 1807.0 35.6 1807.3 35.6 L 1810.0 35.6 L 1810.0 32.6 C 1810.0 32.6 1810.0 32.6 1810.0 32.6 C 1810.0 32.5 1810.0 32.5 1810.0 32.5 C 1810.0 32.5 1810.0 32.5 1810.0 32.5 C 1810.0 32.4 1810.0 32.4 1810.0 32.4 C 1810.0 32.4 1810.0 32.4 1810.0 32.4 C 1810.0 32.3 1810.0 32.3 1810.1 32.3 C 1810.1 32.3 1810.1 32.3 1810.1 32.3 C 1810.1 32.3 1810.1 32.3 1810.1 32.3 L 1815.3 25.9 C 1812.4 21.8 1809.8 17.5 1807.6 13.1 C 1807.5 13.1 1807.5 13.0 1807.5 13.0 C 1806.8 11.6 1806.1 10.2 1805.5 8.7 C 1805.5 8.7 1805.4 8.7 1805.4 8.7 C 1805.4 8.7 1805.4 8.7 1805.4 8.7 C 1804.9 7.6 1804.4 6.5 1804.0 5.4 C 1801.3 11.1 1799.2 17.1 1797.7 23.2 L 1798.9 23.6 C 1799.3 23.8 1799.7 24.2 1799.9 24.7 C 1800.2 25.2 1800.2 25.7 1800.0 26.2 C 1799.6 27.2 1798.4 27.7 1797.4 27.3 L 1796.9 27.1 L 1796.9 30.8 C 1796.9 31.9 1796.0 32.8 1794.9 32.8 C 1793.8 32.8 1793.0 31.9 1792.9 30.8 L 1792.9 31.9 C 1792.9 33.0 1792.0 33.8 1791.0 33.8 C 1789.9 33.8 1789.0 33.0 1789.0 31.9 L 1789.0 26.9 L 1789.0 26.9 L 1789.0 29.5 C 1789.0 30.6 1788.1 31.5 1787.0 31.5 C 1785.9 31.5 1785.0 30.6 1785.0 29.5 L 1785.0 26.4 L 1785.0 26.4 L 1785.0 26.4 C 1785.0 26.3 1785.0 26.3 1785.0 26.3 C 1785.0 26.3 1785.0 26.3 1785.0 26.3 C 1785.6 23.3 1786.2 20.5 1787.0 17.6 C 1787.0 17.6 1787.0 17.5 1787.0 17.5 C 1787.0 17.5 1787.0 17.5 1787.0 17.5 C 1787.7 15.1 1788.4 12.7 1789.3 10.4 C 1789.3 10.3 1789.3 10.3 1789.3 10.3 C 1789.3 10.3 1789.3 10.3 1789.3 10.3 C 1790.8 5.8 1792.7 1.5 1794.8 -2.7 C 1794.8 -2.7 1794.8 -2.7 1794.8 -2.7 C 1794.8 -2.8 1794.8 -2.8 1794.9 -2.8 C 1794.9 -2.8 1794.9 -2.8 1794.9 -2.8 C 1794.9 -2.9 1794.9 -2.9 1795.0 -2.9 C 1795.0 -2.9 1795.0 -2.9 1795.0 -2.9 C 1795.0 -2.9 1795.1 -3.0 1795.1 -3.0 C 1795.1 -3.0 1795.1 -3.0 1795.1 -3.0 C 1795.2 -3.0 1795.2 -3.0 1795.3 -3.0 C 1795.3 -3.0 1795.3 -3.0 1795.3 -3.0 C 1795.3 -3.0 1795.3 -3.0 1795.3 -3.0 L 1807.4 -3.0 C 1807.4 -3.0 1807.4 -3.0 1807.4 -3.0 C 1807.4 -3.0 1807.4 -3.0 1807.4 -3.0 L 1813.0 -3.0 C 1813.0 -3.0 1813.0 -3.0 1813.0 -3.0 C 1813.0 -3.0 1813.0 -3.0 1813.0 -3.0 L 1832.9 -3.0 C 1832.9 -3.0 1832.9 -3.0 1832.9 -3.0 C 1832.9 -3.0 1832.9 -3.0 1832.9 -3.0 L 1842.1 -3.0 C 1842.1 -3.0 1842.1 -3.0 1842.1 -3.0 C 1842.1 -3.0 1842.1 -3.0 1842.1 -3.0 L 1862.0 -3.0 C 1862.0 -3.0 1862.0 -3.0 1862.0 -3.0 C 1862.0 -3.0 1862.0 -3.0 1862.0 -3.0 L 1870.0 -3.0 C 1870.0 -3.0 1870.0 -3.0 1870.0 -3.0 C 1870.0 -3.0 1870.0 -3.0 1870.0 -3.0 L 1873.4 -3.0 C 1873.4 -3.0 1873.4 -3.0 1873.4 -3.0 C 1873.4 -3.0 1873.4 -3.0 1873.4 -3.0 C 1873.5 -3.0 1873.5 -3.0 1873.5 -3.0 C 1873.6 -3.0 1873.6 -3.0 1873.6 -3.0 C 1873.6 -3.0 1873.6 -3.0 1873.6 -3.0 C 1873.6 -3.0 1873.6 -2.9 1873.6 -2.9 C 1873.7 -2.9 1873.7 -2.9 1873.7 -2.9 C 1873.7 -2.9 1873.7 -2.9 1873.7 -2.9 C 1873.7 -2.9 1873.8 -2.9 1873.8 -2.9 C 1873.8 -2.8 1873.8 -2.8 1873.8 -2.8 C 1873.8 -2.8 1873.8 -2.8 1873.8 -2.8 C 1873.8 -2.8 1873.9 -2.7 1873.9 -2.7 C 1873.9 -2.7 1873.9 -2.7 1873.9 -2.7 C 1873.9 -2.7 1873.9 -2.7 1873.9 -2.6 C 1873.9 -2.6 1873.9 -2.6 1873.9 -2.6 C 1873.9 -2.6 1873.9 -2.6 1873.9 -2.5 C 1873.9 -2.5 1873.9 -2.5 1873.9 -2.5 C 1873.9 -2.5 1873.9 -2.5 1873.9 -2.5 C 1873.9 -2.5 1873.9 -2.4 1873.9 -2.4 C 1873.9 -2.4 1873.9 -2.4 1873.9 -2.4 C 1873.9 -2.4 1873.9 -2.3 1873.9 -2.3 C 1873.9 -2.3 1873.9 -2.3 1873.9 -2.3 C 1873.7 -1.8 1873.6 -1.4 1873.4 -0.9 C 1873.4 -0.9 1873.4 -0.8 1873.4 -0.8 C 1872.3 2.4 1871.0 5.6 1869.6 8.7 C 1869.6 8.7 1869.6 8.7 1869.6 8.7 C 1869.6 8.7 1869.6 8.7 1869.6 8.7 C 1868.9 10.2 1868.2 11.6 1867.5 13.0 C 1867.5 13.0 1867.5 13.1 1867.4 13.1 C 1865.2 17.5 1862.6 21.8 1859.8 25.9 L 1864.9 32.3 C 1864.9 32.3 1864.9 32.3 1864.9 32.3 C 1864.9 32.3 1865.0 32.3 1865.0 32.3 C 1865.0 32.3 1865.0 32.3 1865.0 32.4 C 1865.0 32.4 1865.0 32.4 1865.0 32.4 C 1865.0 32.4 1865.0 32.4 1865.0 32.5 C 1865.0 32.5 1865.0 32.5 1865.0 32.5 C 1865.0 32.5 1865.0 32.5 1865.0 32.6 C 1865.0 32.6 1865.0 32.6 1865.0 32.6 L 1865.0 35.6 L 1867.8 35.6 C 1868.1 35.6 1868.3 35.9 1868.3 36.2 L 1868.3 41.0 L 1877.1 41.0 C 1877.4 40.0 1878.3 39.2 1879.5 39.2 C 1880.8 39.2 1881.9 40.3 1881.9 41.6 C 1881.9 42.9 1880.8 44.0 1879.5 44.0 " fill="#FED97B"></path><path d="M 0.0 0.0 L 106.1 0.0 C 109.5 -4.8 111.5 -10.6 111.5 -16.9 C 111.5 -28.3 104.9 -38.2 95.3 -43.0 " fill="none" stroke="#393E50" stroke-width="3.00" stroke-miterlimit="0.00" stroke-linecap="round" stroke-linejoin="round" transform="matrix(0.36, 0.00, 0.00, 0.36, 1808.0, 12.8)"></path><path d="M 0.0 0.0 C 8.6 21.3 19.7 42.0 33.3 61.7 " fill="none" stroke="#393E50" stroke-width="3.00" stroke-miterlimit="0.00" stroke-linecap="round" stroke-linejoin="round" transform="matrix(0.36, 0.00, 0.00, 0.36, 1804.0, 4.0)"></path><path d="M 0.0 0.0 C 5.3 -2.2 10.5 -4.8 15.5 -7.7 L 47.5 -10.1 " fill="none" stroke="#393E50" stroke-width="1.00" stroke-miterlimit="0.00" stroke-linecap="round" stroke-linejoin="round" transform="matrix(0.36, 0.00, 0.00, 0.36, 1810.4, 12.8)"></path><path d="M 0.0 0.0 C -7.9 4.5 -16.1 8.5 -24.5 11.9 " fill="none" stroke="#393E50" stroke-width="1.00" stroke-miterlimit="0.00" stroke-linecap="round" stroke-linejoin="round" transform="matrix(0.36, 0.00, 0.00, 0.36, 1815.9, 6.8)"></path><path d="M 0.0 0.0 C -8.7 5.0 -17.7 9.4 -26.9 13.2 " fill="none" stroke="#393E50" stroke-width="3.00" stroke-miterlimit="0.00" stroke-linecap="round" stroke-linejoin="round" transform="matrix(0.36, 0.00, 0.00, 0.36, 1815.6, 3.8)"></path><path d="M 0.0 0.0 C -8.8 4.8 -17.8 9.1 -27.1 12.9 " fill="none" stroke="#393E50" stroke-width="1.00" stroke-miterlimit="0.00" stroke-linecap="round" stroke-linejoin="round" transform="matrix(0.36, 0.00, 0.00, 0.36, 1814.3, 0.8)"></path><path d="M 0.0 0.0 C 2.5 6.7 5.2 13.3 8.3 19.8 " fill="none" stroke="#393E50" stroke-width="3.00" stroke-miterlimit="0.00" stroke-linecap="round" stroke-linejoin="round" transform="matrix(0.36, 0.00, 0.00, 0.36, 1813.0, -2.5)"></path><path d="M 0.0 0.0 C 5.2 -27.7 14.2 -55.0 27.2 -81.1 " fill="none" stroke="#393E50" stroke-width="3.00" stroke-miterlimit="0.00" stroke-linecap="round" stroke-linejoin="round" transform="matrix(0.36, 0.00, 0.00, 0.36, 1785.5, 26.4)"></path><path d="M 0.0 0.0 C -13.1 23.1 -22.7 47.7 -28.8 73.1 " fill="none" stroke="#393E50" stroke-width="3.00" stroke-miterlimit="0.00" stroke-linecap="round" stroke-linejoin="round" transform="matrix(0.36, 0.00, 0.00, 0.36, 1807.4, -2.5)"></path><path d="M 0.0 0.0 C -8.7 -5.0 -17.6 -9.5 -26.9 -13.3 " fill="none" stroke="#393E50" stroke-width="1.00" stroke-miterlimit="0.00" stroke-linecap="round" stroke-linejoin="round" transform="matrix(0.36, 0.00, 0.00, 0.36, 1804.4, 3.2)"></path><path d="M 0.0 0.0 C -8.7 -5.0 -17.7 -9.4 -26.9 -13.2 " fill="none" stroke="#393E50" stroke-width="3.00" stroke-miterlimit="0.00" stroke-linecap="round" stroke-linejoin="round" transform="matrix(0.36, 0.00, 0.00, 0.36, 1803.2, 5.7)"></path><path d="M 0.0 0.0 C -8.8 -4.8 -17.8 -9.1 -27.1 -12.9 " fill="none" stroke="#393E50" stroke-width="1.00" stroke-miterlimit="0.00" stroke-linecap="round" stroke-linejoin="round" transform="matrix(0.36, 0.00, 0.00, 0.36, 1801.9, 8.7)"></path><path d="M 0.0 0.0 C -8.8 -4.9 -17.6 -9.8 -26.4 -14.8 " fill="none" stroke="#393E50" stroke-width="1.00" stroke-miterlimit="0.00" stroke-linecap="round" stroke-linejoin="round" transform="matrix(0.36, 0.00, 0.00, 0.36, 1801.1, 10.8)"></path><path d="M 0.0 0.0 C -8.5 -5.5 -17.4 -10.5 -26.4 -15.0 " fill="none" stroke="#393E50" stroke-width="1.00" stroke-miterlimit="0.00" stroke-linecap="round" stroke-linejoin="round" transform="matrix(0.36, 0.00, 0.00, 0.36, 1800.1, 13.4)"></path><path d="M 0.0 0.0 C -8.6 -5.5 -17.4 -10.4 -26.6 -14.8 " fill="none" stroke="#393E50" stroke-width="3.00" stroke-miterlimit="0.00" stroke-linecap="round" stroke-linejoin="round" transform="matrix(0.36, 0.00, 0.00, 0.36, 1799.3, 15.7)"></path><path d="M 0.0 0.0 L -27.1 -13.8 " fill="none" stroke="#393E50" stroke-width="1.00" stroke-miterlimit="0.00" stroke-linecap="round" stroke-linejoin="round" transform="matrix(0.36, 0.00, 0.00, 0.36, 1798.6, 17.9)"></path><path d="M 0.0 0.0 C -8.9 -4.9 -18.0 -9.5 -27.2 -13.7 " fill="none" stroke="#393E50" stroke-width="1.00" stroke-miterlimit="0.00" stroke-linecap="round" stroke-linejoin="round" transform="matrix(0.36, 0.00, 0.00, 0.36, 1798.0, 20.2)"></path><path d="M 0.0 0.0 C -9.2 -3.9 -18.6 -7.4 -28.1 -10.6 " fill="none" stroke="#393E50" stroke-width="3.00" stroke-miterlimit="0.00" stroke-linecap="round" stroke-linejoin="round" transform="matrix(0.36, 0.00, 0.00, 0.36, 1797.6, 21.5)"></path><path d="M 0.0 0.0 L 0.0 8.9 C 0.0 11.1 -1.8 12.9 -4.0 12.9 L -4.0 12.9 C -6.3 12.9 -8.1 11.1 -8.1 8.9 L -8.1 0.0 " fill="none" stroke="#393E50" stroke-width="3.00" stroke-miterlimit="0.00" stroke-linecap="round" stroke-linejoin="round" transform="matrix(0.36, 0.00, 0.00, 0.36, 1788.4, 26.4)"></path><path d="M 0.0 0.0 L 8.1 0.6 " fill="none" stroke="#393E50" stroke-width="1.00" stroke-miterlimit="0.00" stroke-linecap="round" stroke-linejoin="round" transform="matrix(0.36, 0.00, 0.00, 0.36, 1785.5, 27.4)"></path><path d="M 0.0 0.0 L 8.1 0.2 " fill="none" stroke="#393E50" stroke-width="1.00" stroke-miterlimit="0.00" stroke-linecap="round" stroke-linejoin="round" transform="matrix(0.36, 0.00, 0.00, 0.36, 1785.5, 29.0)"></path><path d="M 0.0 0.0 L 0.0 15.5 C 0.0 17.8 -1.8 19.6 -4.0 19.6 L -4.0 19.6 C -6.3 19.6 -8.1 17.8 -8.1 15.5 L -8.1 0.0 " fill="none" stroke="#393E50" stroke-width="3.00" stroke-miterlimit="0.00" stroke-linecap="round" stroke-linejoin="round" transform="matrix(0.36, 0.00, 0.00, 0.36, 1792.4, 26.4)"></path><path d="M 0.0 0.0 L 8.1 0.6 " fill="none" stroke="#393E50" stroke-width="1.00" stroke-miterlimit="0.00" stroke-linecap="round" stroke-linejoin="round" transform="matrix(0.36, 0.00, 0.00, 0.36, 1789.5, 27.7)"></path><path d="M 0.0 0.0 L 8.1 0.2 " fill="none" stroke="#393E50" stroke-width="1.00" stroke-miterlimit="0.00" stroke-linecap="round" stroke-linejoin="round" transform="matrix(0.36, 0.00, 0.00, 0.36, 1789.5, 29.1)"></path><path d="M 0.0 0.0 L 8.1 0.6 " fill="none" stroke="#393E50" stroke-width="1.00" stroke-miterlimit="0.00" stroke-linecap="round" stroke-linejoin="round" transform="matrix(0.36, 0.00, 0.00, 0.36, 1789.5, 29.5)"></path><path d="M 0.0 0.0 L 8.1 0.2 " fill="none" stroke="#393E50" stroke-width="1.00" stroke-miterlimit="0.00" stroke-linecap="round" stroke-linejoin="round" transform="matrix(0.36, 0.00, 0.00, 0.36, 1789.5, 30.9)"></path><path d="M 0.0 0.0 L 0.0 12.5 C 0.0 14.8 -1.8 16.6 -4.0 16.6 L -4.0 16.6 C -6.3 16.6 -8.1 14.8 -8.1 12.5 L -8.1 0.0 " fill="none" stroke="#393E50" stroke-width="3.00" stroke-miterlimit="0.00" stroke-linecap="round" stroke-linejoin="round" transform="matrix(0.36, 0.00, 0.00, 0.36, 1796.4, 26.4)"></path><path d="M 0.0 0.0 L 8.1 0.6 " fill="none" stroke="#393E50" stroke-width="1.00" stroke-miterlimit="0.00" stroke-linecap="round" stroke-linejoin="round" transform="matrix(0.36, 0.00, 0.00, 0.36, 1793.5, 26.7)"></path><path d="M 0.0 0.0 L 8.1 0.2 " fill="none" stroke="#393E50" stroke-width="1.00" stroke-miterlimit="0.00" stroke-linecap="round" stroke-linejoin="round" transform="matrix(0.36, 0.00, 0.00, 0.36, 1793.5, 28.0)"></path><path d="M 0.0 0.0 L 8.1 0.6 " fill="none" stroke="#393E50" stroke-width="1.00" stroke-miterlimit="0.00" stroke-linecap="round" stroke-linejoin="round" transform="matrix(0.36, 0.00, 0.00, 0.36, 1793.5, 28.5)"></path><path d="M 0.0 0.0 L 8.1 0.2 " fill="none" stroke="#393E50" stroke-width="1.00" stroke-miterlimit="0.00" stroke-linecap="round" stroke-linejoin="round" transform="matrix(0.36, 0.00, 0.00, 0.36, 1793.5, 29.8)"></path><path d="M 0.0 0.0 L 3.2 1.3 C 5.3 2.1 7.6 1.1 8.4 -1.0 L 8.4 -1.0 C 9.3 -3.1 8.2 -5.4 6.2 -6.3 L -3.0 -9.9 " fill="none" stroke="#393E50" stroke-width="3.00" stroke-miterlimit="0.00" stroke-linecap="round" stroke-linejoin="round" transform="matrix(0.36, 0.00, 0.00, 0.36, 1796.5, 26.4)"></path><path d="M 0.0 0.0 C 4.8 2.0 9.4 4.7 13.5 7.8 " fill="none" stroke="#393E50" stroke-width="1.00" stroke-miterlimit="0.00" stroke-linecap="round" stroke-linejoin="round" transform="matrix(0.36, 0.00, 0.00, 0.36, 1801.0, -2.5)"></path><path d="M 0.0 0.0 C 1.5 1.2 3.0 2.5 4.4 3.8 " fill="none" stroke="#393E50" stroke-width="1.00" stroke-miterlimit="0.00" stroke-linecap="round" stroke-linejoin="round" transform="matrix(0.36, 0.00, 0.00, 0.36, 1805.1, -2.5)"></path><path d="M 0.0 0.0 C 5.0 -3.4 9.8 -7.2 14.2 -11.4 " fill="none" stroke="#393E50" stroke-width="3.00" stroke-miterlimit="0.00" stroke-linecap="round" stroke-linejoin="round" transform="matrix(0.36, 0.00, 0.00, 0.36, 1805.4, 1.6)"></path><path d="M 0.0 0.0 C 0.0 -19.7 -16.0 -35.7 -35.7 -35.7 C -55.4 -35.7 -71.4 -19.7 -71.4 0.0 C -71.4 19.7 -55.4 35.7 -35.7 35.7 C -16.0 35.7 0.0 19.7 0.0 0.0 Z M 0.0 0.0 " fill="none" stroke="#393E50" stroke-width="3.00" stroke-miterlimit="0.00" stroke-linecap="round" stroke-linejoin="round" transform="matrix(0.36, 0.00, 0.00, 0.36, 1864.5, 50.8)"></path><path d="M 0.0 0.0 C -16.5 0.0 -29.9 13.4 -29.9 29.9 C -29.9 46.3 -16.5 59.7 0.0 59.7 C 16.5 59.7 29.9 46.3 29.9 29.9 C 29.9 13.4 16.5 0.0 0.0 0.0 Z M 0.0 0.0 " fill="none" stroke="#393E50" stroke-width="2.00" stroke-miterlimit="0.00" stroke-linecap="round" stroke-linejoin="round" transform="matrix(0.36, 0.00, 0.00, 0.36, 1851.7, 40.2)"></path><path d="M 0.0 0.0 C -13.6 0.0 -24.6 11.1 -24.6 24.6 C -24.6 38.2 -13.6 49.3 0.0 49.3 C 13.6 49.3 24.6 38.2 24.6 24.6 C 24.6 11.1 13.6 0.0 0.0 0.0 Z M 0.0 0.0 " fill="none" stroke="#393E50" stroke-width="6.00" stroke-miterlimit="0.00" stroke-linecap="round" stroke-linejoin="round" transform="matrix(0.36, 0.00, 0.00, 0.36, 1851.7, 42.0)"></path><path d="M 0.0 0.0 C -11.4 0.0 -20.6 9.3 -20.6 20.6 C -20.6 32.0 -11.4 41.3 0.0 41.3 C 11.4 41.3 20.6 32.0 20.6 20.6 C 20.6 9.3 11.4 0.0 0.0 0.0 Z M 0.0 0.0 " fill="none" stroke="#393E50" stroke-width="1.00" stroke-miterlimit="0.00" stroke-linecap="round" stroke-linejoin="round" stroke-dasharray="2.0" transform="matrix(0.36, 0.00, 0.00, 0.36, 1851.7, 43.5)"></path><path d="M 0.0 0.0 C 0.0 -13.8 -11.2 -25.0 -25.0 -25.0 C -38.8 -25.0 -50.0 -13.8 -50.0 0.0 C -50.0 13.8 -38.8 25.0 -25.0 25.0 C -11.2 25.0 0.0 13.8 0.0 0.0 Z M 0.0 0.0 " fill="none" stroke="#393E50" stroke-width="3.00" stroke-miterlimit="0.00" stroke-linecap="round" stroke-linejoin="round" transform="matrix(0.36, 0.00, 0.00, 0.36, 1828.4, 47.0)"></path><path d="M 0.0 0.0 C -10.6 0.0 -19.2 8.6 -19.2 19.2 C -19.2 29.7 -10.6 38.3 0.0 38.3 C 10.6 38.3 19.2 29.7 19.2 19.2 C 19.2 8.6 10.6 0.0 0.0 0.0 Z M 0.0 0.0 " fill="none" stroke="#393E50" stroke-width="2.00" stroke-miterlimit="0.00" stroke-linecap="round" stroke-linejoin="round" transform="matrix(0.36, 0.00, 0.00, 0.36, 1819.5, 40.2)"></path><path d="M 0.0 0.0 C -7.7 0.0 -13.9 6.2 -13.9 13.9 C -13.9 21.6 -7.7 27.9 0.0 27.9 C 7.7 27.9 13.9 21.6 13.9 13.9 C 13.9 6.2 7.7 0.0 0.0 0.0 Z M 0.0 0.0 " fill="none" stroke="#393E50" stroke-width="6.00" stroke-miterlimit="0.00" stroke-linecap="round" stroke-linejoin="round" transform="matrix(0.36, 0.00, 0.00, 0.36, 1819.5, 42.0)"></path><path d="M 0.0 0.0 C -5.5 0.0 -9.9 4.5 -9.9 9.9 C -9.9 15.4 -5.5 19.9 0.0 19.9 C 5.5 19.9 9.9 15.4 9.9 9.9 C 9.9 4.5 5.5 0.0 0.0 0.0 Z M 0.0 0.0 " fill="none" stroke="#393E50" stroke-width="1.00" stroke-linecap="round" stroke-linejoin="round" stroke-dasharray="1.9, 1.9" transform="matrix(0.36, 0.00, 0.00, 0.36, 1819.5, 43.5)"></path><path d="M 0.0 0.0 L 0.0 -51.2 L -150.9 -51.2 L -150.9 -10.7 " fill="none" stroke="#393E50" stroke-width="3.00" stroke-miterlimit="10.00" stroke-linecap="round" stroke-linejoin="round" transform="matrix(0.36, 0.00, 0.00, 0.36, 1864.5, 50.8)"></path><path d="M 0.0 0.0 L -15.1 -18.6 L -35.7 -18.6 " fill="none" stroke="#393E50" stroke-width="3.00" stroke-miterlimit="10.00" stroke-linecap="round" stroke-linejoin="round" transform="matrix(0.36, 0.00, 0.00, 0.36, 1864.5, 32.6)"></path><path d="M 0.0 0.0 L -34.8 0.0 L -50.0 18.6 " fill="none" stroke="#393E50" stroke-width="3.00" stroke-miterlimit="10.00" stroke-linecap="round" stroke-linejoin="round" transform="matrix(0.36, 0.00, 0.00, 0.36, 1828.4, 26.0)"></path><path d="M 0.0 0.0 L 0.0 43.0 L 36.6 43.0 C 33.2 38.2 31.2 32.4 31.2 26.1 C 31.2 14.6 37.8 4.8 47.4 0.0 " fill="none" stroke="#393E50" stroke-width="3.00" stroke-miterlimit="10.00" stroke-linecap="round" stroke-linejoin="round" transform="matrix(0.36, 0.00, 0.00, 0.36, 1815.9, -2.5)"></path><path d="M 0.0 0.0 L 0.0 -43.0 " fill="none" stroke="#393E50" stroke-width="3.00" stroke-miterlimit="10.00" stroke-linecap="round" stroke-linejoin="round" transform="matrix(0.36, 0.00, 0.00, 0.36, 1859.1, 12.8)"></path><path d="M 0.0 0.0 L 38.9 5.4 " fill="none" stroke="#393E50" stroke-width="3.00" stroke-miterlimit="10.00" stroke-linecap="round" stroke-linejoin="round" transform="matrix(0.36, 0.00, 0.00, 0.36, 1825.8, 53.2)"></path><path d="M 0.0 0.0 L -9.1 0.0 L -9.1 -30.4 L 0.0 -30.4 " fill="none" stroke="#393E50" stroke-width="3.00" stroke-miterlimit="10.00" stroke-linecap="round" stroke-linejoin="round" transform="matrix(0.36, 0.00, 0.00, 0.36, 1810.5, 47.0)"></path><path d="M 0.0 0.0 L 9.1 0.0 L 9.1 30.4 L 0.0 30.4 " fill="none" stroke="#393E50" stroke-width="3.00" stroke-miterlimit="10.00" stroke-linecap="round" stroke-linejoin="round" transform="matrix(0.36, 0.00, 0.00, 0.36, 1864.5, 36.2)"></path><path d="M 0.0 0.0 L -30.8 0.0 " fill="none" stroke="#393E50" stroke-width="3.00" stroke-miterlimit="10.00" stroke-linecap="round" stroke-linejoin="round" transform="matrix(0.36, 0.00, 0.00, 0.36, 1807.3, 41.6)"></path><path d="M 0.0 0.0 L 27.5 0.0 " fill="none" stroke="#393E50" stroke-width="3.00" stroke-miterlimit="10.00" stroke-linecap="round" stroke-linejoin="round" transform="matrix(0.36, 0.00, 0.00, 0.36, 1867.8, 41.6)"></path><path d="M 0.0 0.0 C 0.0 2.9 -2.3 5.2 -5.2 5.2 C -8.1 5.2 -10.5 2.9 -10.5 0.0 C -10.5 -2.9 -8.1 -5.2 -5.2 -5.2 C -2.3 -5.2 0.0 -2.9 0.0 0.0 Z M 0.0 0.0 " fill="none" stroke="#393E50" stroke-width="3.00" stroke-miterlimit="10.00" stroke-linecap="round" stroke-linejoin="round" transform="matrix(0.36, 0.00, 0.00, 0.36, 1796.2, 41.6)"></path><path d="M 0.0 0.0 C 0.0 2.9 -2.3 5.2 -5.2 5.2 C -8.1 5.2 -10.5 2.9 -10.5 0.0 C -10.5 -2.9 -8.1 -5.2 -5.2 -5.2 C -2.3 -5.2 0.0 -2.9 0.0 0.0 Z M 0.0 0.0 " fill="none" stroke="#393E50" stroke-width="3.00" stroke-miterlimit="10.00" stroke-linecap="round" stroke-linejoin="round" transform="matrix(0.36, 0.00, 0.00, 0.36, 1881.4, 41.6)"></path><path d="M 0.0 0.0 C 4.1 -4.5 6.5 -10.4 6.5 -16.9 C 6.5 -30.7 -4.7 -42.0 -18.5 -42.0 C -32.4 -42.0 -43.6 -30.7 -43.6 -16.9 C -43.6 -10.4 -41.2 -4.5 -37.1 0.0 " fill="none" stroke="#393E50" stroke-width="1.00" stroke-miterlimit="10.00" stroke-linecap="round" stroke-linejoin="round" transform="matrix(0.36, 0.00, 0.00, 0.36, 1844.1, 12.8)"></path><path d="M 0.0 0.0 L -11.7 0.0 " fill="none" stroke="#393E50" stroke-width="3.00" stroke-miterlimit="10.00" stroke-linecap="round" stroke-linejoin="round" transform="matrix(0.36, 0.00, 0.00, 0.36, 1849.3, 26.0)"></path><path d="M 0.0 0.0 L -5.8 0.0 " fill="none" stroke="#393E50" stroke-width="3.00" stroke-miterlimit="10.00" stroke-linecap="round" stroke-linejoin="round" transform="matrix(0.36, 0.00, 0.00, 0.36, 1842.5, 26.0)"></path><path d="M 0.0 0.0 L 31.3 -2.4 " fill="none" stroke="#393E50" stroke-width="1.00" stroke-miterlimit="10.00" stroke-linecap="round" stroke-linejoin="round" transform="matrix(0.36, 0.00, 0.00, 0.36, 1847.9, 7.7)"></path><path d="M 0.0 0.0 L 120.5 -3.8 " fill="none" stroke="#393E50" stroke-width="1.00" stroke-miterlimit="10.00" stroke-linecap="round" stroke-linejoin="round" transform="matrix(0.36, 0.00, 0.00, 0.36, 1816.0, 11.4)"></path><path d="M 0.0 0.0 L 34.5 3.2 " fill="none" stroke="#393E50" stroke-width="1.00" stroke-miterlimit="10.00" stroke-linecap="round" stroke-linejoin="round" transform="matrix(0.36, 0.00, 0.00, 0.36, 1826.8, 52.0)"></path><path d="M 0.0 0.0 L 145.5 -6.7 " fill="none" stroke="#393E50" stroke-width="1.00" stroke-miterlimit="10.00" stroke-linecap="round" stroke-linejoin="round" transform="matrix(0.36, 0.00, 0.00, 0.36, 1810.5, 32.6)"></path><path d="M 0.0 0.0 C -9.2 27.8 -22.5 54.7 -40.0 80.0 " fill="none" stroke="#393E50" stroke-width="3.00" stroke-miterlimit="10.00" stroke-linecap="round" stroke-linejoin="round" transform="matrix(0.36, 0.00, 0.00, 0.36, 1873.4, -2.5)"></path><path d="M 0.0 0.0 C 3.0 -6.5 5.8 -13.1 8.3 -19.8 " fill="none" stroke="#393E50" stroke-width="3.00" stroke-miterlimit="10.00" stroke-linecap="round" stroke-linejoin="round" transform="matrix(0.36, 0.00, 0.00, 0.36, 1859.1, 4.6)"></path><path d="M 0.0 0.0 C -5.3 -2.2 -10.5 -4.8 -15.5 -7.7 L -47.5 -10.1 " fill="none" stroke="#393E50" stroke-width="1.00" stroke-miterlimit="10.00" stroke-linecap="round" stroke-linejoin="round" transform="matrix(0.36, 0.00, 0.00, 0.36, 1864.6, 12.8)"></path><path d="M 0.0 0.0 C 7.9 4.5 16.1 8.5 24.5 11.9 " fill="none" stroke="#393E50" stroke-width="1.00" stroke-miterlimit="10.00" stroke-linecap="round" stroke-linejoin="round" transform="matrix(0.36, 0.00, 0.00, 0.36, 1859.1, 6.8)"></path><path d="M 0.0 0.0 C 8.7 5.0 17.7 9.4 26.9 13.2 " fill="none" stroke="#393E50" stroke-width="3.00" stroke-miterlimit="10.00" stroke-linecap="round" stroke-linejoin="round" transform="matrix(0.36, 0.00, 0.00, 0.36, 1859.4, 3.8)"></path><path d="M 0.0 0.0 C 8.8 4.8 17.8 9.1 27.1 12.9 " fill="none" stroke="#393E50" stroke-width="1.00" stroke-miterlimit="10.00" stroke-linecap="round" stroke-linejoin="round" transform="matrix(0.36, 0.00, 0.00, 0.36, 1860.8, 0.8)"></path><path d="M 0.0 0.0 C 8.8 4.9 17.6 9.8 26.4 14.8 " fill="none" stroke="#393E50" stroke-width="1.00" stroke-miterlimit="10.00" stroke-linecap="round" stroke-linejoin="round" transform="matrix(0.36, 0.00, 0.00, 0.36, 1861.6, -1.3)"></path><path d="M 0.0 0.0 C 6.5 3.9 13.2 7.6 20.0 11.0 " fill="none" stroke="#393E50" stroke-width="1.00" stroke-miterlimit="10.00" stroke-linecap="round" stroke-linejoin="round" transform="matrix(0.36, 0.00, 0.00, 0.36, 1864.9, -2.5)"></path><path d="M 0.0 0.0 C 2.7 1.4 5.4 2.8 8.2 4.1 " fill="none" stroke="#393E50" stroke-width="3.00" stroke-miterlimit="10.00" stroke-linecap="round" stroke-linejoin="round" transform="matrix(0.36, 0.00, 0.00, 0.36, 1870.0, -2.5)"></path><path d="M 0.0 0.0 L 58.7 0.0 " fill="none" stroke="#393E50" stroke-width="3.00" stroke-miterlimit="10.00" stroke-linecap="round" stroke-linejoin="round" transform="matrix(0.36, 0.00, 0.00, 0.36, 1846.0, 12.8)"></path><path d="M 0.0 0.0 L 3.0 0.0 " fill="none" stroke="#393E50" stroke-width="3.00" stroke-miterlimit="10.00" stroke-linecap="round" stroke-linejoin="round" transform="matrix(0.36, 0.00, 0.00, 0.36, 1788.4, 26.4)"></path><path d="M 0.0 0.0 L 3.0 0.0 " fill="none" stroke="#393E50" stroke-width="3.00" stroke-miterlimit="10.00" stroke-linecap="round" stroke-linejoin="round" transform="matrix(0.36, 0.00, 0.00, 0.36, 1792.4, 26.4)"></path></g></g></g></g><g><clipPath id="clip-966"><path d="M 1681.9 5.9 L 1779.9 5.9 L 1779.9 38.3 L 1681.9 38.3 Z M 1681.9 5.9 "></path></clipPath><g clip-path="url(#clip-966)"><path d="M 1682.9 37.3 L 1778.9 37.3 L 1778.9 6.9 L 1682.9 6.9 Z M 1682.9 37.3 " fill="#FFDA7B"></path></g></g><g><clipPath id="clip-967"><path d="M 1693.0 10.4 L 1772.0 10.4 L 1772.0 29.0 L 1693.0 29.0 Z M 1693.0 10.4 "></path></clipPath><g clip-path="url(#clip-967)"><text xml:space="preserve" font-family="Helvetica" font-size="44.2" fill="#393E50" transform="matrix(0.35, 0.00, -0.00, -0.36, 1693.4, 15.6)">c</text><text xml:space="preserve" font-family="Helvetica" font-size="44.2" fill="#393E50" transform="matrix(0.35, 0.00, -0.00, -0.36, 1701.1, 15.6)">i</text><text xml:space="preserve" font-family="Helvetica" font-size="44.2" fill="#393E50" transform="matrix(0.35, 0.00, -0.00, -0.36, 1704.5, 15.6)">m</text><text xml:space="preserve" font-family="Helvetica" font-size="44.2" fill="#393E50" transform="matrix(0.35, 0.00, -0.00, -0.36, 1717.3, 15.6)">o</text><text xml:space="preserve" font-family="Helvetica" font-size="44.2" fill="#393E50" transform="matrix(0.35, 0.00, -0.00, -0.36, 1725.9, 15.6)">n</text><text xml:space="preserve" font-family="Helvetica" font-size="44.2" fill="#393E50" transform="matrix(0.35, 0.00, -0.00, -0.36, 1734.5, 15.6)">.</text><text xml:space="preserve" font-family="Helvetica" font-size="44.2" fill="#393E50" transform="matrix(0.35, 0.00, -0.00, -0.36, 1738.8, 15.6)">i</text><text xml:space="preserve" font-family="Helvetica" font-size="44.2" fill="#393E50" transform="matrix(0.35, 0.00, -0.00, -0.36, 1742.2, 15.6)">o</text></g></g><g><clipPath id="clip-968"><path d="M 1693.0 29.0 L 1772.0 29.0 L 1772.0 10.0 L 1693.0 10.0 Z M 1693.0 29.0 "></path></clipPath><g clip-path="url(#clip-968)"><g><clipPath id="clip-969"><path d="M 1693.0 10.4 L 1772.0 10.4 L 1772.0 29.0 L 1693.0 29.0 Z M 1693.0 10.4 "></path></clipPath><g clip-path="url(#clip-969)"><path d="M 0.0 0.0 L -221.4 0.0 " fill="none" stroke="#FED97B" stroke-width="5.00" stroke-miterlimit="0.00" stroke-linecap="round" stroke-linejoin="round" transform="matrix(0.35, 0.00, 0.00, 0.36, 1771.1, 10.9)"></path></g></g></g></g><path d="M 202.4 973.5 L 885.3 973.5 L 885.3 199.4 L 202.4 199.4 Z M 202.4 973.5 " fill="#FFDA7B"></path><path d="M 1130.0 983.5 L 1812.8 983.5 L 1812.8 194.7 L 1130.0 194.7 Z M 1130.0 983.5 " fill="#FFDA7B"></path><image xlink:href="../../710C39F4-EC0A-40E9-A353-AEDD765AFBFB/assets/29C8E4661B7D256866379C0BE6A49530.png" width="500.00" height="332.00" transform="matrix(1.03, 0.00, -0.00, -1.03, 1214.0, 954.0)"></image><path d="M 987.5 1049.1 L 1501.5 1049.1 L 1501.5 924.6 L 987.5 924.6 Z M 987.5 1049.1 " fill="#FFDA7B"></path><text xml:space="preserve" font-family="Roboto" font-weight="200" font-size="71.0" fill="#383E51" transform="matrix(1.00, 0.00, -0.00, -1.00, 1028.0, 962.0)">Л</text><text xml:space="preserve" font-family="Roboto" font-weight="200" font-size="71.0" fill="#383E51" transform="matrix(1.00, 0.00, -0.00, -1.00, 1077.9, 962.0)">е</text><text xml:space="preserve" font-family="Roboto" font-weight="200" font-size="71.0" fill="#383E51" transform="matrix(1.00, 0.00, -0.00, -1.00, 1114.5, 962.0)">с</text><text xml:space="preserve" font-family="Roboto" font-weight="200" font-size="71.0" fill="#383E51" transform="matrix(1.00, 0.00, -0.00, -1.00, 1151.1, 962.0)">н</text><text xml:space="preserve" font-family="Roboto" font-weight="200" font-size="71.0" fill="#383E51" transform="matrix(1.00, 0.00, -0.00, -1.00, 1191.0, 962.0)">а</text><text xml:space="preserve" font-family="Roboto" font-weight="200" font-size="71.0" fill="#383E51" transform="matrix(1.00, 0.00, -0.00, -1.00, 1229.0, 962.0)">я</text><text xml:space="preserve" font-family="Roboto" font-weight="200" font-size="71.0" fill="#383E51" transform="matrix(1.00, 0.00, -0.00, -1.00, 1267.5, 962.0)"> </text><text xml:space="preserve" font-family="Roboto" font-weight="200" font-size="71.0" fill="#383E51" transform="matrix(1.00, 0.00, -0.00, -1.00, 1284.8, 962.0)">ж</text><text xml:space="preserve" font-family="Roboto" font-weight="200" font-size="71.0" fill="#383E51" transform="matrix(1.00, 0.00, -0.00, -1.00, 1339.3, 962.0)">а</text><text xml:space="preserve" font-family="Roboto" font-weight="200" font-size="71.0" fill="#383E51" transform="matrix(1.00, 0.00, -0.00, -1.00, 1377.3, 962.0)">б</text><text xml:space="preserve" font-family="Roboto" font-weight="200" font-size="71.0" fill="#383E51" transform="matrix(1.00, 0.00, -0.00, -1.00, 1416.4, 962.0)">а</text><path d="M 886.4 790.8 L 1128.8 790.8 L 1128.8 666.2 L 886.4 666.2 Z M 886.4 790.8 " fill="#FFDA7B"></path><path d="M 0.0 0.0 L 242.4 0.0 L 242.4 124.5 L 0.0 124.5 Z M 0.0 0.0 " fill="none" stroke="#000000" stroke-width="5.00" transform="matrix(1.00, 0.00, 0.00, -1.00, 886.4, 790.8)"></path><text xml:space="preserve" font-family="Helvetica-Light" font-size="50.0" fill="#383E51" transform="matrix(1.00, 0.00, -0.00, -1.00, 943.0, 710.0)">7</text><text xml:space="preserve" font-family="Helvetica-Light" font-size="50.0" fill="#383E51" transform="matrix(1.00, 0.00, -0.00, -1.00, 970.8, 710.0)"> </text><text xml:space="preserve" font-family="ZapfDingbatsITC" font-size="50.0" fill="#383E51" transform="matrix(1.00, 0.00, -0.00, -1.00, 984.7, 710.0)">➝</text><text xml:space="preserve" font-family="Helvetica-Light" font-size="50.0" fill="#383E51" transform="matrix(1.00, 0.00, -0.00, -1.00, 1031.1, 710.0)"> </text><text xml:space="preserve" font-family="Helvetica-Light" font-size="50.0" fill="#383E51" transform="matrix(1.00, 0.00, -0.00, -1.00, 1045.0, 710.0)">8</text><g><clipPath id="clip-970"><path d="M 1258.3 240.5 L 1347.2 240.5 L 1347.2 327.9 L 1258.3 327.9 Z M 1258.3 240.5 "></path></clipPath><g clip-path="url(#clip-970)"><image xlink:href="../../63D7FFC8-C2C1-4797-A657-50AFBA060BB8/assets/D4C45C3B7614E0904E522D32C8D7D96C.png" width="89.00" height="87.00" transform="matrix(1.00, 0.00, -0.00, -1.01, 1258.0, 328.0)"></image></g></g><g><clipPath id="clip-971"><path d="M 1338.8 196.4 L 1456.3 196.4 L 1456.3 372.0 L 1338.8 372.0 Z M 1338.8 196.4 "></path></clipPath><g clip-path="url(#clip-971)"><text xml:space="preserve" font-family="Roboto" font-weight="bold" font-size="100.0" fill="#000000" transform="matrix(1.00, 0.00, -0.00, -1.00, 1369.0, 250.0)">5</text></g></g><g><clipPath id="clip-972"><path d="M 1503.0 329.0 L 1600.0 329.0 L 1600.0 233.0 L 1503.0 233.0 Z M 1503.3 329.2 "></path></clipPath><g clip-path="url(#clip-972)"><g><clipPath id="clip-973"><path d="M 1512.1 329.0 L 1510.0 327.9 C 1507.6 326.3 1505.9 324.5 1504.4 322.1 L 1503.0 320.5 L 1503.0 320.0 L 1504.8 320.0 C 1505.6 319.7 1506.7 319.3 1507.3 319.4 C 1508.2 319.6 1508.8 319.2 1511.1 316.9 L 1513.8 314.2 L 1512.3 313.0 C 1511.0 312.0 1510.4 311.9 1508.1 311.9 C 1505.4 311.9 1505.4 311.9 1505.2 310.7 C 1504.9 309.3 1505.5 306.9 1506.5 305.6 C 1507.6 304.2 1510.5 302.7 1512.2 303.0 L 1514.0 304.0 L 1514.0 306.4 C 1514.0 308.6 1513.7 309.3 1514.5 310.4 C 1515.0 311.1 1515.6 311.7 1515.9 311.7 C 1516.5 311.7 1522.6 305.5 1522.2 305.2 C 1522.1 305.0 1521.3 305.0 1520.6 305.0 L 1519.0 305.0 L 1519.0 298.3 C 1519.6 284.8 1522.3 274.5 1526.8 265.5 L 1528.4 262.4 L 1517.3 251.3 L 1506.2 240.2 L 1505.1 237.0 C 1504.6 235.3 1504.0 233.8 1503.7 233.4 C 1503.7 233.3 1503.7 233.2 1503.8 233.2 C 1503.8 233.1 1503.9 233.1 1504.0 233.1 C 1504.4 233.4 1505.9 233.9 1507.5 234.5 L 1510.7 235.5 L 1521.4 246.2 L 1532.0 256.8 L 1534.9 253.8 C 1538.6 250.0 1542.1 247.5 1546.4 245.4 C 1550.9 243.2 1552.3 243.2 1556.8 245.4 C 1561.1 247.5 1564.5 250.0 1568.2 253.8 L 1571.1 256.8 L 1581.8 246.2 L 1592.4 235.5 L 1595.6 234.5 C 1597.3 233.9 1598.7 233.4 1599.2 233.1 C 1599.3 233.1 1599.3 233.1 1599.4 233.2 C 1599.4 233.2 1599.4 233.3 1599.4 233.4 C 1599.2 233.8 1598.6 235.3 1598.0 237.0 L 1596.9 240.2 L 1585.8 251.3 L 1574.8 262.4 L 1576.3 265.5 C 1580.9 274.5 1583.4 284.8 1584.0 298.5 L 1584.0 305.0 L 1582.6 305.0 C 1581.8 305.0 1581.0 305.0 1580.9 305.2 C 1580.8 305.4 1582.1 307.0 1583.9 308.7 C 1587.4 312.2 1587.7 312.3 1589.1 309.7 C 1589.7 308.6 1590.1 307.8 1590.0 306.0 L 1590.0 304.0 L 1590.9 303.0 C 1592.7 302.7 1595.5 304.2 1596.6 305.6 C 1597.7 306.9 1598.3 309.3 1598.0 310.7 C 1597.8 311.9 1597.7 311.9 1595.1 311.9 C 1592.7 311.9 1592.2 312.0 1590.9 313.0 L 1589.4 314.2 L 1592.1 316.9 C 1594.4 319.2 1594.9 319.6 1595.9 319.4 C 1596.5 319.3 1597.6 319.7 1598.4 320.0 L 1600.0 320.0 L 1600.0 320.5 L 1598.5 322.6 C 1596.9 324.9 1595.1 326.7 1592.7 328.2 L 1591.1 329.0 L 1591.0 329.0 L 1590.0 327.8 C 1589.7 327.0 1589.9 325.9 1590.0 325.3 C 1590.2 324.4 1589.9 323.8 1587.5 321.5 L 1585.0 318.8 L 1584.0 319.7 C 1582.6 321.3 1581.9 322.4 1582.0 324.8 L 1582.0 327.0 L 1580.7 327.0 C 1578.6 327.2 1577.1 326.7 1575.7 325.2 C 1574.7 324.2 1574.1 323.6 1574.0 321.5 L 1574.0 319.0 L 1577.0 319.0 C 1579.4 319.0 1579.9 318.9 1581.2 317.9 L 1582.8 316.8 L 1577.4 311.4 C 1571.3 305.2 1572.0 305.4 1566.1 308.2 C 1560.8 310.8 1556.5 314.3 1552.7 319.3 L 1551.6 320.6 L 1550.5 319.3 C 1546.5 314.0 1539.5 308.9 1534.1 307.0 L 1531.2 306.0 L 1525.8 311.3 L 1520.4 316.8 L 1521.9 317.9 C 1523.2 318.9 1523.7 319.0 1526.2 319.0 L 1529.0 319.0 L 1529.0 321.5 C 1528.9 323.6 1528.4 324.2 1527.5 325.2 C 1526.0 326.7 1524.6 327.2 1522.4 327.0 L 1521.0 327.0 L 1521.0 324.8 C 1521.1 322.4 1520.4 321.3 1519.0 319.7 L 1518.0 318.8 L 1515.6 321.5 C 1513.3 323.8 1512.9 324.4 1513.1 325.3 C 1513.3 325.9 1513.3 327.0 1513.0 327.8 L 1512.0 329.0 L 1512.1 329.0 Z M 1551.6 311.8 L 1553.7 309.9 C 1557.5 306.4 1563.1 303.1 1567.7 301.5 C 1570.7 300.5 1574.3 299.7 1575.9 299.7 C 1578.3 299.7 1578.5 299.2 1577.9 293.2 C 1576.7 280.1 1573.5 270.3 1567.9 262.3 C 1564.2 257.1 1558.6 252.2 1553.8 250.1 C 1552.6 249.5 1551.5 249.1 1551.5 249.1 C 1550.3 249.4 1546.5 251.5 1544.6 252.9 C 1533.4 260.9 1527.0 274.2 1525.2 293.2 C 1524.7 299.2 1524.8 299.7 1527.2 299.7 C 1529.4 299.7 1534.7 301.1 1538.3 302.6 C 1542.1 304.2 1546.3 306.9 1549.4 309.8 L 1551.6 311.8 Z M 1551.6 311.8 "></path></clipPath><g clip-path="url(#clip-973)"><g><clipPath id="clip-974"><path d="M 1503.3 233.1 L 1599.8 233.1 L 1599.8 329.2 L 1503.3 329.2 Z M 1503.3 233.1 "></path></clipPath><g clip-path="url(#clip-974)"><image xlink:href="../../63D7FFC8-C2C1-4797-A657-50AFBA060BB8/assets/DD7F7FCD5A532E6314C749E9C98A253A.png" width="97.00" height="97.00" transform="matrix(1.00, 0.00, -0.00, -0.99, 1503.0, 329.0)"></image></g></g></g></g></g></g><g><clipPath id="clip-975"><path d="M 1592.3 193.4 L 1709.8 193.4 L 1709.8 369.0 L 1592.3 369.0 Z M 1592.3 193.4 "></path></clipPath><g clip-path="url(#clip-975)"><text xml:space="preserve" font-family="Roboto" font-weight="bold" font-size="100.0" fill="#000000" transform="matrix(1.00, 0.00, -0.00, -1.00, 1622.0, 247.0)">8</text></g></g><g><clipPath id="clip-976"><path d="M 1186.7 428.1 L 1320.7 428.1 L 1320.7 455.1 L 1186.7 455.1 Z M 1186.7 428.1 "></path></clipPath><g clip-path="url(#clip-976)"><text xml:space="preserve" font-family="Helvetica-Light" font-size="28.0" fill="#383E51" transform="matrix(1.00, 0.00, -0.00, -1.00, 1199.0, 428.0)">С</text><text xml:space="preserve" font-family="Helvetica-Light" font-size="28.0" fill="#383E51" transform="matrix(1.00, 0.00, -0.00, -1.00, 1218.7, 428.0)">и</text><text xml:space="preserve" font-family="Helvetica-Light" font-size="28.0" fill="#383E51" transform="matrix(1.00, 0.00, -0.00, -1.00, 1233.9, 428.0)">л</text><text xml:space="preserve" font-family="Helvetica-Light" font-size="28.0" fill="#383E51" transform="matrix(1.00, 0.00, -0.00, -1.00, 1249.8, 428.0)">ь</text><text xml:space="preserve" font-family="Helvetica-Light" font-size="28.0" fill="#383E51" transform="matrix(1.00, 0.00, -0.00, -1.00, 1263.8, 428.0)">н</text><text xml:space="preserve" font-family="Helvetica-Light" font-size="28.0" fill="#383E51" transform="matrix(1.00, 0.00, -0.00, -1.00, 1278.8, 428.0)">о</text><text xml:space="preserve" font-family="Helvetica-Light" font-size="28.0" fill="#383E51" transform="matrix(1.00, 0.00, -0.00, -1.00, 1294.4, 428.0)">е</text></g></g><g><clipPath id="clip-977"><path d="M 1202.3 457.2 L 1309.2 457.2 L 1309.2 564.1 L 1202.3 564.1 Z M 1202.3 457.2 "></path></clipPath><g clip-path="url(#clip-977)"><image xlink:href="../../63D7FFC8-C2C1-4797-A657-50AFBA060BB8/assets/342BF0D44941A8895A3AC45041D92E9C.png" width="128.00" height="128.00" transform="matrix(0.84, 0.00, -0.00, -0.84, 1202.0, 564.0)"></image></g></g><g><clipPath id="clip-978"><path d="M 1397.0 456.6 L 1505.5 456.6 L 1505.5 565.1 L 1397.0 565.1 Z M 1397.0 456.6 "></path></clipPath><g clip-path="url(#clip-978)"><image xlink:href="../../63D7FFC8-C2C1-4797-A657-50AFBA060BB8/assets/326DE6D2C499EE42417C82E567127FB3.png" width="128.00" height="128.00" transform="matrix(0.84, 0.00, -0.00, -0.84, 1397.0, 565.0)"></image></g></g><g><clipPath id="clip-979"><path d="M 1360.2 424.6 L 1542.3 424.6 L 1542.3 454.6 L 1360.2 454.6 Z M 1360.2 424.6 "></path></clipPath><g clip-path="url(#clip-979)"><text xml:space="preserve" font-family="Helvetica-Light" font-size="28.0" fill="#383E51" transform="matrix(1.00, 0.00, -0.00, -1.00, 1376.0, 427.0)">П</text><text xml:space="preserve" font-family="Helvetica-Light" font-size="28.0" fill="#383E51" transform="matrix(1.00, 0.00, -0.00, -1.00, 1395.4, 427.0)">л</text><text xml:space="preserve" font-family="Helvetica-Light" font-size="28.0" fill="#383E51" transform="matrix(1.00, 0.00, -0.00, -1.00, 1411.3, 427.0)">а</text><text xml:space="preserve" font-family="Helvetica-Light" font-size="28.0" fill="#383E51" transform="matrix(1.00, 0.00, -0.00, -1.00, 1425.8, 427.0)">в</text><text xml:space="preserve" font-family="Helvetica-Light" font-size="28.0" fill="#383E51" transform="matrix(1.00, 0.00, -0.00, -1.00, 1440.3, 427.0)">а</text><text xml:space="preserve" font-family="Helvetica-Light" font-size="28.0" fill="#383E51" transform="matrix(1.00, 0.00, -0.00, -1.00, 1454.8, 427.0)">ю</text><text xml:space="preserve" font-family="Helvetica-Light" font-size="28.0" fill="#383E51" transform="matrix(1.00, 0.00, -0.00, -1.00, 1475.7, 427.0)">щ</text><text xml:space="preserve" font-family="Helvetica-Light" font-size="28.0" fill="#383E51" transform="matrix(1.00, 0.00, -0.00, -1.00, 1498.3, 427.0)">е</text><text xml:space="preserve" font-family="Helvetica-Light" font-size="28.0" fill="#383E51" transform="matrix(1.00, 0.00, -0.00, -1.00, 1512.8, 427.0)">е</text></g></g><g><clipPath id="clip-980"><path d="M 1594.7 454.9 L 1704.2 454.9 L 1704.2 564.5 L 1594.7 564.5 Z M 1594.7 454.9 "></path></clipPath><g clip-path="url(#clip-980)"><image xlink:href="../../63D7FFC8-C2C1-4797-A657-50AFBA060BB8/assets/438BF8EC13C23FF9BBCCD6C2CFCEF06E.png" width="128.00" height="128.00" transform="matrix(0.85, 0.00, -0.00, -0.85, 1595.0, 564.0)"></image></g></g><g><clipPath id="clip-981"><path d="M 1562.7 425.0 L 1736.1 425.0 L 1736.1 453.0 L 1562.7 453.0 Z M 1562.7 425.0 "></path></clipPath><g clip-path="url(#clip-981)"><text xml:space="preserve" font-family="Helvetica-Light" font-size="28.0" fill="#383E51" transform="matrix(1.00, 0.00, -0.00, -1.00, 1573.0, 425.0)">П</text><text xml:space="preserve" font-family="Helvetica-Light" font-size="28.0" fill="#383E51" transform="matrix(1.00, 0.00, -0.00, -1.00, 1592.4, 425.0)">р</text><text xml:space="preserve" font-family="Helvetica-Light" font-size="28.0" fill="#383E51" transform="matrix(1.00, 0.00, -0.00, -1.00, 1608.5, 425.0)">ы</text><text xml:space="preserve" font-family="Helvetica-Light" font-size="28.0" fill="#383E51" transform="matrix(1.00, 0.00, -0.00, -1.00, 1627.3, 425.0)">г</text><text xml:space="preserve" font-family="Helvetica-Light" font-size="28.0" fill="#383E51" transform="matrix(1.00, 0.00, -0.00, -1.00, 1638.5, 425.0)">а</text><text xml:space="preserve" font-family="Helvetica-Light" font-size="28.0" fill="#383E51" transform="matrix(1.00, 0.00, -0.00, -1.00, 1653.0, 425.0)">ю</text><text xml:space="preserve" font-family="Helvetica-Light" font-size="28.0" fill="#383E51" transform="matrix(1.00, 0.00, -0.00, -1.00, 1673.9, 425.0)">щ</text><text xml:space="preserve" font-family="Helvetica-Light" font-size="28.0" fill="#383E51" transform="matrix(1.00, 0.00, -0.00, -1.00, 1696.5, 425.0)">е</text><text xml:space="preserve" font-family="Helvetica-Light" font-size="28.0" fill="#383E51" transform="matrix(1.00, 0.00, -0.00, -1.00, 1711.0, 425.0)">е</text></g></g><g><clipPath id="clip-982"><path d="M 312.2 241.6 L 401.1 241.6 L 401.1 329.0 L 312.2 329.0 Z M 312.2 241.6 "></path></clipPath><g clip-path="url(#clip-982)"><image xlink:href="../../63D7FFC8-C2C1-4797-A657-50AFBA060BB8/assets/D4C45C3B7614E0904E522D32C8D7D96C.png" width="89.00" height="87.00" transform="matrix(1.00, 0.00, -0.00, -1.00, 312.0, 329.0)"></image></g></g><g><clipPath id="clip-983"><path d="M 392.7 197.5 L 510.2 197.5 L 510.2 373.1 L 392.7 373.1 Z M 392.7 197.5 "></path></clipPath><g clip-path="url(#clip-983)"><text xml:space="preserve" font-family="Roboto" font-weight="bold" font-size="100.0" fill="#000000" transform="matrix(1.00, 0.00, -0.00, -1.00, 423.0, 251.0)">4</text></g></g><g><clipPath id="clip-984"><path d="M 594.0 333.0 L 690.0 333.0 L 690.0 237.0 L 594.0 237.0 Z M 593.5 333.3 "></path></clipPath><g clip-path="url(#clip-984)"><g><clipPath id="clip-985"><path d="M 602.2 333.0 L 600.2 332.0 C 597.8 330.4 596.0 328.6 594.6 326.2 L 594.0 324.6 L 594.0 324.0 L 594.9 324.0 C 595.7 323.7 596.9 323.4 597.5 323.5 C 598.4 323.7 598.9 323.3 601.3 321.0 L 604.0 318.3 L 602.5 317.1 C 601.1 316.1 600.6 316.0 598.3 316.0 C 595.6 316.0 595.6 316.0 595.3 314.8 C 595.0 313.4 595.7 311.0 596.7 309.7 C 597.8 308.3 600.7 307.7 602.4 308.0 L 604.0 308.0 L 604.0 310.5 C 604.0 312.7 603.8 313.4 604.7 314.5 C 605.2 315.2 605.8 315.8 606.1 315.8 C 606.7 315.8 612.7 309.6 612.4 309.3 C 612.2 309.1 611.5 309.0 610.7 309.0 L 609.0 309.0 L 610.0 302.4 C 610.6 288.9 612.5 278.6 617.0 269.6 L 618.6 266.5 L 607.5 255.4 L 596.4 244.3 L 595.3 241.1 C 594.7 239.4 594.1 237.9 593.9 237.5 C 593.9 237.4 593.9 237.3 593.9 237.3 C 594.0 237.2 594.1 237.2 594.2 237.2 C 594.6 237.5 596.1 238.0 597.7 238.6 L 600.9 239.6 L 611.5 250.3 L 622.2 260.9 L 625.1 257.9 C 628.8 254.1 632.2 251.6 636.5 249.5 C 641.0 247.3 642.5 247.3 647.0 249.5 C 651.3 251.6 654.7 254.1 658.4 257.9 L 661.3 260.9 L 671.9 250.3 L 682.6 239.6 L 685.8 238.6 C 687.4 238.0 688.9 237.5 689.3 237.2 C 689.4 237.2 689.5 237.2 689.6 237.3 C 689.6 237.3 689.6 237.4 689.6 237.5 C 689.4 237.9 688.8 239.4 688.2 241.1 L 687.1 244.3 L 676.0 255.4 L 664.9 266.5 L 666.5 269.6 C 671.0 278.6 673.4 288.9 674.0 302.6 L 674.0 309.0 L 672.7 309.0 C 671.9 309.0 671.2 309.1 671.1 309.3 C 671.0 309.5 672.3 311.1 674.1 312.8 C 677.6 316.3 677.9 316.3 679.3 313.8 C 679.9 312.7 680.1 311.9 680.0 310.1 L 680.0 308.0 L 681.1 308.0 C 682.8 307.7 685.7 308.3 686.8 309.7 C 687.8 311.0 688.4 313.4 688.2 314.8 C 687.9 316.0 687.9 316.0 685.2 316.0 C 682.9 316.0 682.4 316.1 681.0 317.1 L 679.5 318.3 L 682.2 321.0 C 684.6 323.3 685.1 323.7 686.0 323.5 C 686.6 323.4 687.8 323.7 688.5 324.0 L 690.0 324.0 L 690.0 324.6 L 688.6 326.6 C 687.1 329.0 685.3 330.8 682.9 332.3 L 681.2 333.0 L 681.0 333.0 L 681.0 331.9 C 680.7 331.1 680.1 330.0 680.2 329.4 C 680.4 328.5 680.0 327.9 677.7 325.6 L 675.0 322.9 L 674.0 323.8 C 672.6 325.4 672.9 326.5 673.0 328.9 L 673.0 331.0 L 670.9 331.0 C 668.8 331.2 667.3 330.8 665.8 329.3 C 664.9 328.3 665.1 327.7 665.0 325.6 L 664.0 323.0 L 667.1 323.0 C 669.6 323.0 670.1 323.0 671.4 322.0 L 672.9 320.8 L 667.6 315.5 C 661.4 309.3 662.1 309.5 656.3 312.3 C 651.0 314.9 646.7 318.4 642.8 323.3 L 641.7 324.7 L 640.7 323.3 C 636.7 318.1 629.7 312.9 624.2 311.0 L 621.4 310.0 L 616.0 315.4 L 610.6 320.8 L 612.1 322.0 C 613.4 323.0 613.9 323.0 616.3 323.0 L 619.0 323.0 L 619.0 325.6 C 618.9 327.7 618.6 328.3 617.7 329.3 C 616.2 330.8 614.7 331.2 612.6 331.0 L 611.0 331.0 L 611.0 328.9 C 611.1 326.5 610.4 325.4 609.0 323.8 L 609.0 322.9 L 605.8 325.6 C 603.4 327.9 603.1 328.5 603.3 329.4 C 603.4 330.0 603.3 331.1 603.0 331.9 L 602.0 333.0 L 602.2 333.0 Z M 641.7 315.8 L 643.8 314.0 C 647.7 310.5 653.3 307.2 657.9 305.6 C 660.9 304.6 664.5 303.8 666.1 303.8 C 668.5 303.8 668.6 303.3 668.1 297.3 C 666.9 284.2 663.7 274.4 658.1 266.4 C 654.4 261.2 648.8 256.3 644.0 254.2 C 642.7 253.6 641.7 253.2 641.6 253.2 C 640.5 253.5 636.7 255.6 634.7 257.0 C 623.5 265.0 617.1 278.3 615.4 297.3 C 614.9 303.3 615.0 303.8 617.4 303.8 C 619.6 303.8 624.8 305.2 628.5 306.7 C 632.3 308.3 636.5 311.0 639.6 313.8 L 641.7 315.8 Z M 641.7 315.8 "></path></clipPath><g clip-path="url(#clip-985)"><g><clipPath id="clip-986"><path d="M 593.5 237.2 L 690.0 237.2 L 690.0 333.3 L 593.5 333.3 Z M 593.5 237.2 "></path></clipPath><g clip-path="url(#clip-986)"><image xlink:href="../../63D7FFC8-C2C1-4797-A657-50AFBA060BB8/assets/DD7F7FCD5A532E6314C749E9C98A253A.png" width="97.00" height="97.00" transform="matrix(0.99, 0.00, -0.00, -0.99, 594.0, 333.0)"></image></g></g></g></g></g></g><g><clipPath id="clip-987"><path d="M 682.4 197.5 L 799.9 197.5 L 799.9 373.1 L 682.4 373.1 Z M 682.4 197.5 "></path></clipPath><g clip-path="url(#clip-987)"><text xml:space="preserve" font-family="Roboto" font-weight="bold" font-size="100.0" fill="#000000" transform="matrix(1.00, 0.00, -0.00, -1.00, 712.0, 251.0)">6</text></g></g><g><clipPath id="clip-988"><path d="M 666.3 404.4 L 829.3 404.4 L 829.3 432.4 L 666.3 432.4 Z M 666.3 404.4 "></path></clipPath><g clip-path="url(#clip-988)"><text xml:space="preserve" font-family="Helvetica-Light" font-size="28.0" fill="#383E51" transform="matrix(1.00, 0.00, -0.00, -1.00, 693.0, 405.0)">Б</text><text xml:space="preserve" font-family="Helvetica-Light" font-size="28.0" fill="#383E51" transform="matrix(1.00, 0.00, -0.00, -1.00, 711.7, 405.0)">ы</text><text xml:space="preserve" font-family="Helvetica-Light" font-size="28.0" fill="#383E51" transform="matrix(1.00, 0.00, -0.00, -1.00, 730.5, 405.0)">с</text><text xml:space="preserve" font-family="Helvetica-Light" font-size="28.0" fill="#383E51" transform="matrix(1.00, 0.00, -0.00, -1.00, 745.0, 405.0)">т</text><text xml:space="preserve" font-family="Helvetica-Light" font-size="28.0" fill="#383E51" transform="matrix(1.00, 0.00, -0.00, -1.00, 757.4, 405.0)">р</text><text xml:space="preserve" font-family="Helvetica-Light" font-size="28.0" fill="#383E51" transform="matrix(1.00, 0.00, -0.00, -1.00, 773.5, 405.0)">о</text><text xml:space="preserve" font-family="Helvetica-Light" font-size="28.0" fill="#383E51" transform="matrix(1.00, 0.00, -0.00, -1.00, 789.0, 405.0)">е</text></g></g><g><clipPath id="clip-989"><path d="M 692.4 427.8 L 803.3 427.8 L 803.3 538.7 L 692.4 538.7 Z M 692.4 427.8 "></path></clipPath><g clip-path="url(#clip-989)"><image xlink:href="../../710C39F4-EC0A-40E9-A353-AEDD765AFBFB/assets/526BDD1E11BC234894C6C67901C3B63A.png" width="128.00" height="128.00" transform="matrix(0.87, 0.00, -0.00, -0.87, 692.0, 539.0)"></image></g></g><text xml:space="preserve" font-family="Roboto" font-weight="300" font-size="30.0" fill="#383E51" transform="matrix(1.00, 0.00, -0.00, -1.00, 1109.0, 139.0)">-</text><text xml:space="preserve" font-family="Roboto" font-weight="300" font-size="30.0" fill="#383E51" transform="matrix(1.00, 0.00, -0.00, -1.00, 1117.3, 139.0)">1</text><text xml:space="preserve" font-family="Roboto" font-weight="300" font-size="30.0" fill="#383E51" transform="matrix(1.00, 0.00, -0.00, -1.00, 1134.1, 139.0)"> </text><text xml:space="preserve" font-family="Roboto" font-weight="300" font-size="30.0" fill="#383E51" transform="matrix(1.00, 0.00, -0.00, -1.00, 1141.5, 139.0)">к</text><text xml:space="preserve" font-family="Roboto" font-weight="300" font-size="30.0" fill="#383E51" transform="matrix(1.00, 0.00, -0.00, -1.00, 1157.7, 139.0)"> </text><text xml:space="preserve" font-family="Roboto" font-weight="300" font-size="30.0" fill="#383E51" transform="matrix(1.00, 0.00, -0.00, -1.00, 1165.1, 139.0)">з</text><text xml:space="preserve" font-family="Roboto" font-weight="300" font-size="30.0" fill="#383E51" transform="matrix(1.00, 0.00, -0.00, -1.00, 1180.4, 139.0)">а</text><text xml:space="preserve" font-family="Roboto" font-weight="300" font-size="30.0" fill="#383E51" transform="matrix(1.00, 0.00, -0.00, -1.00, 1196.7, 139.0)">щ</text><text xml:space="preserve" font-family="Roboto" font-weight="300" font-size="30.0" fill="#383E51" transform="matrix(1.00, 0.00, -0.00, -1.00, 1221.5, 139.0)">и</text><text xml:space="preserve" font-family="Roboto" font-weight="300" font-size="30.0" fill="#383E51" transform="matrix(1.00, 0.00, -0.00, -1.00, 1238.8, 139.0)">т</text><text xml:space="preserve" font-family="Roboto" font-weight="300" font-size="30.0" fill="#383E51" transform="matrix(1.00, 0.00, -0.00, -1.00, 1252.1, 139.0)">е</text><text xml:space="preserve" font-family="Roboto" font-weight="300" font-size="30.0" fill="#383E51" transform="matrix(1.00, 0.00, -0.00, -1.00, 1268.0, 139.0)"> </text><text xml:space="preserve" font-family="Roboto" font-weight="300" font-size="30.0" fill="#383E51" transform="matrix(1.00, 0.00, -0.00, -1.00, 1275.4, 139.0)">п</text><text xml:space="preserve" font-family="Roboto" font-weight="300" font-size="30.0" fill="#383E51" transform="matrix(1.00, 0.00, -0.00, -1.00, 1292.7, 139.0)">р</text><text xml:space="preserve" font-family="Roboto" font-weight="300" font-size="30.0" fill="#383E51" transform="matrix(1.00, 0.00, -0.00, -1.00, 1309.5, 139.0)">о</text><text xml:space="preserve" font-family="Roboto" font-weight="300" font-size="30.0" fill="#383E51" transform="matrix(1.00, 0.00, -0.00, -1.00, 1326.3, 139.0)">т</text><text xml:space="preserve" font-family="Roboto" font-weight="300" font-size="30.0" fill="#383E51" transform="matrix(1.00, 0.00, -0.00, -1.00, 1340.7, 139.0)">и</text><text xml:space="preserve" font-family="Roboto" font-weight="300" font-size="30.0" fill="#383E51" transform="matrix(1.00, 0.00, -0.00, -1.00, 1358.1, 139.0)">в</text><text xml:space="preserve" font-family="Roboto" font-weight="300" font-size="30.0" fill="#383E51" transform="matrix(1.00, 0.00, -0.00, -1.00, 1375.2, 139.0)">н</text><text xml:space="preserve" font-family="Roboto" font-weight="300" font-size="30.0" fill="#383E51" transform="matrix(1.00, 0.00, -0.00, -1.00, 1392.5, 139.0)">и</text><text xml:space="preserve" font-family="Roboto" font-weight="300" font-size="30.0" fill="#383E51" transform="matrix(1.00, 0.00, -0.00, -1.00, 1409.8, 139.0)">к</text><text xml:space="preserve" font-family="Roboto" font-weight="300" font-size="30.0" fill="#383E51" transform="matrix(1.00, 0.00, -0.00, -1.00, 1426.0, 139.0)">а</text><text xml:space="preserve" font-family="Roboto" font-weight="300" font-size="30.0" fill="#383E51" transform="matrix(1.00, 0.00, -0.00, -1.00, 1442.3, 139.0)">,</text><text xml:space="preserve" font-family="Roboto" font-weight="300" font-size="30.0" fill="#383E51" transform="matrix(1.00, 0.00, -0.00, -1.00, 1448.2, 139.0)"> </text><text xml:space="preserve" font-family="Roboto" font-weight="300" font-size="30.0" fill="#383E51" transform="matrix(1.00, 0.00, -0.00, -1.00, 1455.6, 139.0)">е</text><text xml:space="preserve" font-family="Roboto" font-weight="300" font-size="30.0" fill="#383E51" transform="matrix(1.00, 0.00, -0.00, -1.00, 1471.5, 139.0)">с</text><text xml:space="preserve" font-family="Roboto" font-weight="300" font-size="30.0" fill="#383E51" transform="matrix(1.00, 0.00, -0.00, -1.00, 1487.3, 139.0)">л</text><text xml:space="preserve" font-family="Roboto" font-weight="300" font-size="30.0" fill="#383E51" transform="matrix(1.00, 0.00, -0.00, -1.00, 1504.6, 139.0)">и</text><text xml:space="preserve" font-family="Roboto" font-weight="300" font-size="30.0" fill="#383E51" transform="matrix(1.00, 0.00, -0.00, -1.00, 1521.9, 139.0)"> </text><text xml:space="preserve" font-family="Roboto" font-weight="300" font-size="30.0" fill="#383E51" transform="matrix(1.00, 0.00, -0.00, -1.00, 1529.3, 139.0)">п</text><text xml:space="preserve" font-family="Roboto" font-weight="300" font-size="30.0" fill="#383E51" transform="matrix(1.00, 0.00, -0.00, -1.00, 1546.6, 139.0)">р</text><text xml:space="preserve" font-family="Roboto" font-weight="300" font-size="30.0" fill="#383E51" transform="matrix(1.00, 0.00, -0.00, -1.00, 1563.5, 139.0)">о</text><text xml:space="preserve" font-family="Roboto" font-weight="300" font-size="30.0" fill="#383E51" transform="matrix(1.00, 0.00, -0.00, -1.00, 1580.3, 139.0)">т</text><text xml:space="preserve" font-family="Roboto" font-weight="300" font-size="30.0" fill="#383E51" transform="matrix(1.00, 0.00, -0.00, -1.00, 1594.7, 139.0)">и</text><text xml:space="preserve" font-family="Roboto" font-weight="300" font-size="30.0" fill="#383E51" transform="matrix(1.00, 0.00, -0.00, -1.00, 1612.0, 139.0)">в</text><text xml:space="preserve" font-family="Roboto" font-weight="300" font-size="30.0" fill="#383E51" transform="matrix(1.00, 0.00, -0.00, -1.00, 1629.2, 139.0)">н</text><text xml:space="preserve" font-family="Roboto" font-weight="300" font-size="30.0" fill="#383E51" transform="matrix(1.00, 0.00, -0.00, -1.00, 1646.5, 139.0)">и</text><text xml:space="preserve" font-family="Roboto" font-weight="300" font-size="30.0" fill="#383E51" transform="matrix(1.00, 0.00, -0.00, -1.00, 1663.8, 139.0)">к</text><text xml:space="preserve" font-family="Roboto" font-weight="300" font-size="30.0" fill="#383E51" transform="matrix(1.00, 0.00, -0.00, -1.00, 1680.0, 139.0)"> </text><text xml:space="preserve" font-family="Roboto" font-weight="300" font-size="30.0" fill="#383E51" transform="matrix(1.00, 0.00, -0.00, -1.00, 1687.4, 139.0)">я</text><text xml:space="preserve" font-family="Roboto" font-weight="300" font-size="30.0" fill="#383E51" transform="matrix(1.00, 0.00, -0.00, -1.00, 1703.9, 139.0)">д</text><text xml:space="preserve" font-family="Roboto" font-weight="300" font-size="30.0" fill="#383E51" transform="matrix(1.00, 0.00, -0.00, -1.00, 1722.0, 139.0)">о</text><text xml:space="preserve" font-family="Roboto" font-weight="300" font-size="30.0" fill="#383E51" transform="matrix(1.00, 0.00, -0.00, -1.00, 1739.1, 139.0)">в</text><text xml:space="preserve" font-family="Roboto" font-weight="300" font-size="30.0" fill="#383E51" transform="matrix(1.00, 0.00, -0.00, -1.00, 1756.2, 139.0)">и</text><text xml:space="preserve" font-family="Roboto" font-weight="300" font-size="30.0" fill="#383E51" transform="matrix(1.00, 0.00, -0.00, -1.00, 1773.6, 139.0)">т</text><text xml:space="preserve" font-family="Roboto" font-weight="300" font-size="30.0" fill="#383E51" transform="matrix(1.00, 0.00, -0.00, -1.00, 1787.4, 139.0)">о</text><text xml:space="preserve" font-family="Roboto" font-weight="300" font-size="30.0" fill="#383E51" transform="matrix(1.00, 0.00, -0.00, -1.00, 1804.5, 139.0)">е</text><g><clipPath id="clip-990"><path d="M 1108.3 145.4 L 1820.6 145.4 L 1820.6 148.9 L 1108.3 148.9 Z M 1108.3 145.4 "></path></clipPath><g clip-path="url(#clip-990)"><path d="M 4.0 23.6 L 715.3 23.6 " fill="none" stroke="#383E51" stroke-width="1.54" stroke-miterlimit="0.00" transform="matrix(1.00, 0.00, 0.00, -1.00, 1105.3, 170.7)"></path></g></g><text xml:space="preserve" font-family="Roboto" font-weight="bold" font-size="30.0" fill="#383E51" transform="matrix(1.00, 0.00, -0.00, -1.00, 255.0, 139.0)">+</text><text xml:space="preserve" font-family="Roboto" font-weight="bold" font-size="30.0" fill="#383E51" transform="matrix(1.00, 0.00, -0.00, -1.00, 271.0, 139.0)">3</text><text xml:space="preserve" font-family="Roboto" font-weight="bold" font-size="30.0" fill="#383E51" transform="matrix(1.00, 0.00, -0.00, -1.00, 288.4, 139.0)"> </text><text xml:space="preserve" font-family="Roboto" font-weight="bold" font-size="30.0" fill="#383E51" transform="matrix(1.00, 0.00, -0.00, -1.00, 295.9, 139.0)">к</text><text xml:space="preserve" font-family="Roboto" font-weight="bold" font-size="30.0" fill="#383E51" transform="matrix(1.00, 0.00, -0.00, -1.00, 313.1, 139.0)"> </text><text xml:space="preserve" font-family="Roboto" font-weight="bold" font-size="30.0" fill="#383E51" transform="matrix(1.00, 0.00, -0.00, -1.00, 320.6, 139.0)">а</text><text xml:space="preserve" font-family="Roboto" font-weight="bold" font-size="30.0" fill="#383E51" transform="matrix(1.00, 0.00, -0.00, -1.00, 336.2, 139.0)">т</text><text xml:space="preserve" font-family="Roboto" font-weight="bold" font-size="30.0" fill="#383E51" transform="matrix(1.00, 0.00, -0.00, -1.00, 351.7, 139.0)">а</text><text xml:space="preserve" font-family="Roboto" font-weight="bold" font-size="30.0" fill="#383E51" transform="matrix(1.00, 0.00, -0.00, -1.00, 367.6, 139.0)">к</text><text xml:space="preserve" font-family="Roboto" font-weight="bold" font-size="30.0" fill="#383E51" transform="matrix(1.00, 0.00, -0.00, -1.00, 384.6, 139.0)">е</text><text xml:space="preserve" font-family="Roboto" font-weight="bold" font-size="30.0" fill="#383E51" transform="matrix(1.00, 0.00, -0.00, -1.00, 400.9, 139.0)">,</text><text xml:space="preserve" font-family="Roboto" font-weight="bold" font-size="30.0" fill="#383E51" transform="matrix(1.00, 0.00, -0.00, -1.00, 409.0, 139.0)"> </text><text xml:space="preserve" font-family="Roboto" font-weight="bold" font-size="30.0" fill="#383E51" transform="matrix(1.00, 0.00, -0.00, -1.00, 416.5, 139.0)">е</text><text xml:space="preserve" font-family="Roboto" font-weight="bold" font-size="30.0" fill="#383E51" transform="matrix(1.00, 0.00, -0.00, -1.00, 432.8, 139.0)">с</text><text xml:space="preserve" font-family="Roboto" font-weight="bold" font-size="30.0" fill="#383E51" transform="matrix(1.00, 0.00, -0.00, -1.00, 448.4, 139.0)">л</text><text xml:space="preserve" font-family="Roboto" font-weight="bold" font-size="30.0" fill="#383E51" transform="matrix(1.00, 0.00, -0.00, -1.00, 465.2, 139.0)">и</text><text xml:space="preserve" font-family="Roboto" font-weight="bold" font-size="30.0" fill="#383E51" transform="matrix(1.00, 0.00, -0.00, -1.00, 482.0, 139.0)"> </text><text xml:space="preserve" font-family="Roboto" font-weight="bold" font-size="30.0" fill="#383E51" transform="matrix(1.00, 0.00, -0.00, -1.00, 489.5, 139.0)">п</text><text xml:space="preserve" font-family="Roboto" font-weight="bold" font-size="30.0" fill="#383E51" transform="matrix(1.00, 0.00, -0.00, -1.00, 506.3, 139.0)">р</text><text xml:space="preserve" font-family="Roboto" font-weight="bold" font-size="30.0" fill="#383E51" transform="matrix(1.00, 0.00, -0.00, -1.00, 523.2, 139.0)">о</text><text xml:space="preserve" font-family="Roboto" font-weight="bold" font-size="30.0" fill="#383E51" transform="matrix(1.00, 0.00, -0.00, -1.00, 539.6, 139.0)">т</text><text xml:space="preserve" font-family="Roboto" font-weight="bold" font-size="30.0" fill="#383E51" transform="matrix(1.00, 0.00, -0.00, -1.00, 555.3, 139.0)">и</text><text xml:space="preserve" font-family="Roboto" font-weight="bold" font-size="30.0" fill="#383E51" transform="matrix(1.00, 0.00, -0.00, -1.00, 572.1, 139.0)">в</text><text xml:space="preserve" font-family="Roboto" font-weight="bold" font-size="30.0" fill="#383E51" transform="matrix(1.00, 0.00, -0.00, -1.00, 588.9, 139.0)">н</text><text xml:space="preserve" font-family="Roboto" font-weight="bold" font-size="30.0" fill="#383E51" transform="matrix(1.00, 0.00, -0.00, -1.00, 605.7, 139.0)">и</text><text xml:space="preserve" font-family="Roboto" font-weight="bold" font-size="30.0" fill="#383E51" transform="matrix(1.00, 0.00, -0.00, -1.00, 622.5, 139.0)">к</text><text xml:space="preserve" font-family="Roboto" font-weight="bold" font-size="30.0" fill="#383E51" transform="matrix(1.00, 0.00, -0.00, -1.00, 639.7, 139.0)"> </text><text xml:space="preserve" font-family="Roboto" font-weight="bold" font-size="30.0" fill="#383E51" transform="matrix(1.00, 0.00, -0.00, -1.00, 647.3, 139.0)">п</text><text xml:space="preserve" font-family="Roboto" font-weight="bold" font-size="30.0" fill="#383E51" transform="matrix(1.00, 0.00, -0.00, -1.00, 664.1, 139.0)">л</text><text xml:space="preserve" font-family="Roboto" font-weight="bold" font-size="30.0" fill="#383E51" transform="matrix(1.00, 0.00, -0.00, -1.00, 681.0, 139.0)">а</text><text xml:space="preserve" font-family="Roboto" font-weight="bold" font-size="30.0" fill="#383E51" transform="matrix(1.00, 0.00, -0.00, -1.00, 696.9, 139.0)">в</text><text xml:space="preserve" font-family="Roboto" font-weight="bold" font-size="30.0" fill="#383E51" transform="matrix(1.00, 0.00, -0.00, -1.00, 713.7, 139.0)">а</text><text xml:space="preserve" font-family="Roboto" font-weight="bold" font-size="30.0" fill="#383E51" transform="matrix(1.00, 0.00, -0.00, -1.00, 729.6, 139.0)">ю</text><text xml:space="preserve" font-family="Roboto" font-weight="bold" font-size="30.0" fill="#383E51" transform="matrix(1.00, 0.00, -0.00, -1.00, 753.9, 139.0)">щ</text><text xml:space="preserve" font-family="Roboto" font-weight="bold" font-size="30.0" fill="#383E51" transform="matrix(1.00, 0.00, -0.00, -1.00, 781.7, 139.0)">е</text><text xml:space="preserve" font-family="Roboto" font-weight="bold" font-size="30.0" fill="#383E51" transform="matrix(1.00, 0.00, -0.00, -1.00, 798.1, 139.0)">е</text><text xml:space="preserve" font-family="Roboto" font-weight="300" font-size="30.0" fill="#383E51" transform="matrix(1.00, 0.00, -0.00, -1.00, 266.0, 87.0)">-</text><text xml:space="preserve" font-family="Roboto" font-weight="300" font-size="30.0" fill="#383E51" transform="matrix(1.00, 0.00, -0.00, -1.00, 274.3, 87.0)">1</text><text xml:space="preserve" font-family="Roboto" font-weight="300" font-size="30.0" fill="#383E51" transform="matrix(1.00, 0.00, -0.00, -1.00, 291.1, 87.0)"> </text><text xml:space="preserve" font-family="Roboto" font-weight="300" font-size="30.0" fill="#383E51" transform="matrix(1.00, 0.00, -0.00, -1.00, 298.5, 87.0)">к</text><text xml:space="preserve" font-family="Roboto" font-weight="300" font-size="30.0" fill="#383E51" transform="matrix(1.00, 0.00, -0.00, -1.00, 314.7, 87.0)"> </text><text xml:space="preserve" font-family="Roboto" font-weight="300" font-size="30.0" fill="#383E51" transform="matrix(1.00, 0.00, -0.00, -1.00, 322.1, 87.0)">з</text><text xml:space="preserve" font-family="Roboto" font-weight="300" font-size="30.0" fill="#383E51" transform="matrix(1.00, 0.00, -0.00, -1.00, 337.4, 87.0)">а</text><text xml:space="preserve" font-family="Roboto" font-weight="300" font-size="30.0" fill="#383E51" transform="matrix(1.00, 0.00, -0.00, -1.00, 353.7, 87.0)">щ</text><text xml:space="preserve" font-family="Roboto" font-weight="300" font-size="30.0" fill="#383E51" transform="matrix(1.00, 0.00, -0.00, -1.00, 378.5, 87.0)">и</text><text xml:space="preserve" font-family="Roboto" font-weight="300" font-size="30.0" fill="#383E51" transform="matrix(1.00, 0.00, -0.00, -1.00, 395.8, 87.0)">т</text><text xml:space="preserve" font-family="Roboto" font-weight="300" font-size="30.0" fill="#383E51" transform="matrix(1.00, 0.00, -0.00, -1.00, 409.1, 87.0)">е</text><text xml:space="preserve" font-family="Roboto" font-weight="300" font-size="30.0" fill="#383E51" transform="matrix(1.00, 0.00, -0.00, -1.00, 425.0, 87.0)">,</text><text xml:space="preserve" font-family="Roboto" font-weight="300" font-size="30.0" fill="#383E51" transform="matrix(1.00, 0.00, -0.00, -1.00, 430.9, 87.0)"> </text><text xml:space="preserve" font-family="Roboto" font-weight="300" font-size="30.0" fill="#383E51" transform="matrix(1.00, 0.00, -0.00, -1.00, 438.3, 87.0)">е</text><text xml:space="preserve" font-family="Roboto" font-weight="300" font-size="30.0" fill="#383E51" transform="matrix(1.00, 0.00, -0.00, -1.00, 454.2, 87.0)">с</text><text xml:space="preserve" font-family="Roboto" font-weight="300" font-size="30.0" fill="#383E51" transform="matrix(1.00, 0.00, -0.00, -1.00, 469.9, 87.0)">л</text><text xml:space="preserve" font-family="Roboto" font-weight="300" font-size="30.0" fill="#383E51" transform="matrix(1.00, 0.00, -0.00, -1.00, 487.2, 87.0)">и</text><text xml:space="preserve" font-family="Roboto" font-weight="300" font-size="30.0" fill="#383E51" transform="matrix(1.00, 0.00, -0.00, -1.00, 504.5, 87.0)"> </text><text xml:space="preserve" font-family="Roboto" font-weight="300" font-size="30.0" fill="#383E51" transform="matrix(1.00, 0.00, -0.00, -1.00, 512.0, 87.0)">п</text><text xml:space="preserve" font-family="Roboto" font-weight="300" font-size="30.0" fill="#383E51" transform="matrix(1.00, 0.00, -0.00, -1.00, 529.3, 87.0)">р</text><text xml:space="preserve" font-family="Roboto" font-weight="300" font-size="30.0" fill="#383E51" transform="matrix(1.00, 0.00, -0.00, -1.00, 546.1, 87.0)">о</text><text xml:space="preserve" font-family="Roboto" font-weight="300" font-size="30.0" fill="#383E51" transform="matrix(1.00, 0.00, -0.00, -1.00, 562.9, 87.0)">т</text><text xml:space="preserve" font-family="Roboto" font-weight="300" font-size="30.0" fill="#383E51" transform="matrix(1.00, 0.00, -0.00, -1.00, 577.3, 87.0)">и</text><text xml:space="preserve" font-family="Roboto" font-weight="300" font-size="30.0" fill="#383E51" transform="matrix(1.00, 0.00, -0.00, -1.00, 594.6, 87.0)">в</text><text xml:space="preserve" font-family="Roboto" font-weight="300" font-size="30.0" fill="#383E51" transform="matrix(1.00, 0.00, -0.00, -1.00, 611.8, 87.0)">н</text><text xml:space="preserve" font-family="Roboto" font-weight="300" font-size="30.0" fill="#383E51" transform="matrix(1.00, 0.00, -0.00, -1.00, 629.1, 87.0)">и</text><text xml:space="preserve" font-family="Roboto" font-weight="300" font-size="30.0" fill="#383E51" transform="matrix(1.00, 0.00, -0.00, -1.00, 646.4, 87.0)">к</text><text xml:space="preserve" font-family="Roboto" font-weight="300" font-size="30.0" fill="#383E51" transform="matrix(1.00, 0.00, -0.00, -1.00, 662.6, 87.0)"> </text><text xml:space="preserve" font-family="Roboto" font-weight="300" font-size="30.0" fill="#383E51" transform="matrix(1.00, 0.00, -0.00, -1.00, 670.0, 87.0)">п</text><text xml:space="preserve" font-family="Roboto" font-weight="300" font-size="30.0" fill="#383E51" transform="matrix(1.00, 0.00, -0.00, -1.00, 687.4, 87.0)">р</text><text xml:space="preserve" font-family="Roboto" font-weight="300" font-size="30.0" fill="#383E51" transform="matrix(1.00, 0.00, -0.00, -1.00, 704.2, 87.0)">ы</text><text xml:space="preserve" font-family="Roboto" font-weight="300" font-size="30.0" fill="#383E51" transform="matrix(1.00, 0.00, -0.00, -1.00, 727.5, 87.0)">г</text><text xml:space="preserve" font-family="Roboto" font-weight="300" font-size="30.0" fill="#383E51" transform="matrix(1.00, 0.00, -0.00, -1.00, 740.1, 87.0)">а</text><text xml:space="preserve" font-family="Roboto" font-weight="300" font-size="30.0" fill="#383E51" transform="matrix(1.00, 0.00, -0.00, -1.00, 756.4, 87.0)">ю</text><text xml:space="preserve" font-family="Roboto" font-weight="300" font-size="30.0" fill="#383E51" transform="matrix(1.00, 0.00, -0.00, -1.00, 780.9, 87.0)">щ</text><text xml:space="preserve" font-family="Roboto" font-weight="300" font-size="30.0" fill="#383E51" transform="matrix(1.00, 0.00, -0.00, -1.00, 805.7, 87.0)">и</text><text xml:space="preserve" font-family="Roboto" font-weight="300" font-size="30.0" fill="#383E51" transform="matrix(1.00, 0.00, -0.00, -1.00, 823.0, 87.0)">й</text><g><clipPath id="clip-991"><path d="M 264.6 92.8 L 839.9 92.8 L 839.9 96.4 L 264.6 96.4 Z M 264.6 92.8 "></path></clipPath><g clip-path="url(#clip-991)"><path d="M 4.0 23.6 L 578.3 23.6 " fill="none" stroke="#383E51" stroke-width="1.54" stroke-miterlimit="0.00" transform="matrix(1.00, 0.00, 0.00, -1.00, 261.6, 118.2)"></path></g></g><image xlink:href="../../710C39F4-EC0A-40E9-A353-AEDD765AFBFB/assets/62C0226E6826F5336F0D2D81CFF325BD.png" width="500.00" height="269.00" transform="matrix(1.10, 0.00, -0.00, -1.10, 275.0, 912.0)"></image><g><clipPath id="clip-992"><path d="M 37.5 895.1 L 589.4 895.1 L 589.4 1021.7 L 37.5 1021.7 Z M 37.5 895.1 "></path></clipPath><g clip-path="url(#clip-992)"><path d="M 38.5 1020.7 L 588.4 1020.7 L 588.4 896.1 L 38.5 896.1 Z M 38.5 1020.7 " fill="#FFDA7B"></path></g></g><g><clipPath id="clip-993"><path d="M 52.0 900.1 L 574.9 900.1 L 574.9 1015.8 L 52.0 1015.8 Z M 52.0 900.1 "></path></clipPath><g clip-path="url(#clip-993)"><text xml:space="preserve" font-family="Roboto" font-weight="200" font-size="66.0" fill="#383E51" transform="matrix(1.00, 0.00, -0.00, -1.00, 72.0, 936.0)">Р</text><text xml:space="preserve" font-family="Roboto" font-weight="200" font-size="66.0" fill="#383E51" transform="matrix(1.00, 0.00, -0.00, -1.00, 112.2, 936.0)">о</text><text xml:space="preserve" font-family="Roboto" font-weight="200" font-size="66.0" fill="#383E51" transform="matrix(1.00, 0.00, -0.00, -1.00, 149.2, 936.0)">г</text><text xml:space="preserve" font-family="Roboto" font-weight="200" font-size="66.0" fill="#383E51" transform="matrix(1.00, 0.00, -0.00, -1.00, 177.1, 936.0)">а</text><text xml:space="preserve" font-family="Roboto" font-weight="200" font-size="66.0" fill="#383E51" transform="matrix(1.00, 0.00, -0.00, -1.00, 211.9, 936.0)">т</text><text xml:space="preserve" font-family="Roboto" font-weight="200" font-size="66.0" fill="#383E51" transform="matrix(1.00, 0.00, -0.00, -1.00, 242.7, 936.0)">а</text><text xml:space="preserve" font-family="Roboto" font-weight="200" font-size="66.0" fill="#383E51" transform="matrix(1.00, 0.00, -0.00, -1.00, 278.1, 936.0)">я</text><text xml:space="preserve" font-family="Roboto" font-weight="200" font-size="66.0" fill="#383E51" transform="matrix(1.00, 0.00, -0.00, -1.00, 313.9, 936.0)"> </text><text xml:space="preserve" font-family="Roboto" font-weight="200" font-size="66.0" fill="#383E51" transform="matrix(1.00, 0.00, -0.00, -1.00, 330.0, 936.0)">г</text><text xml:space="preserve" font-family="Roboto" font-weight="200" font-size="66.0" fill="#383E51" transform="matrix(1.00, 0.00, -0.00, -1.00, 357.9, 936.0)">а</text><text xml:space="preserve" font-family="Roboto" font-weight="200" font-size="66.0" fill="#383E51" transform="matrix(1.00, 0.00, -0.00, -1.00, 393.2, 936.0)">д</text><text xml:space="preserve" font-family="Roboto" font-weight="200" font-size="66.0" fill="#383E51" transform="matrix(1.00, 0.00, -0.00, -1.00, 431.1, 936.0)">ю</text><text xml:space="preserve" font-family="Roboto" font-weight="200" font-size="66.0" fill="#383E51" transform="matrix(1.00, 0.00, -0.00, -1.00, 484.8, 936.0)">к</text><text xml:space="preserve" font-family="Roboto" font-weight="200" font-size="66.0" fill="#383E51" transform="matrix(1.00, 0.00, -0.00, -1.00, 519.0, 936.0)">а</text></g></g><g><clipPath id="clip-994"><path d="M 279.4 405.5 L 429.4 405.5 L 429.4 433.5 L 279.4 433.5 Z M 279.4 405.5 "></path></clipPath><g clip-path="url(#clip-994)"><text xml:space="preserve" font-family="Helvetica-Light" font-size="28.0" fill="#383E51" transform="matrix(1.00, 0.00, -0.00, -1.00, 290.0, 406.0)">С</text><text xml:space="preserve" font-family="Helvetica-Light" font-size="28.0" fill="#383E51" transform="matrix(1.00, 0.00, -0.00, -1.00, 309.7, 406.0)">т</text><text xml:space="preserve" font-family="Helvetica-Light" font-size="28.0" fill="#383E51" transform="matrix(1.00, 0.00, -0.00, -1.00, 322.1, 406.0)">р</text><text xml:space="preserve" font-family="Helvetica-Light" font-size="28.0" fill="#383E51" transform="matrix(1.00, 0.00, -0.00, -1.00, 338.2, 406.0)">а</text><text xml:space="preserve" font-family="Helvetica-Light" font-size="28.0" fill="#383E51" transform="matrix(1.00, 0.00, -0.00, -1.00, 352.7, 406.0)">ш</text><text xml:space="preserve" font-family="Helvetica-Light" font-size="28.0" fill="#383E51" transform="matrix(1.00, 0.00, -0.00, -1.00, 374.6, 406.0)">н</text><text xml:space="preserve" font-family="Helvetica-Light" font-size="28.0" fill="#383E51" transform="matrix(1.00, 0.00, -0.00, -1.00, 389.7, 406.0)">о</text><text xml:space="preserve" font-family="Helvetica-Light" font-size="28.0" fill="#383E51" transform="matrix(1.00, 0.00, -0.00, -1.00, 405.2, 406.0)">е</text></g></g><g><clipPath id="clip-995"><path d="M 297.6 435.5 L 399.6 435.5 L 399.6 537.5 L 297.6 537.5 Z M 297.6 435.5 "></path></clipPath><g clip-path="url(#clip-995)"><image xlink:href="../../710C39F4-EC0A-40E9-A353-AEDD765AFBFB/assets/071E955644F61C6710E86AE74D5BA9D0.png" width="118.00" height="118.00" transform="matrix(0.86, 0.00, -0.00, -0.86, 298.0, 537.0)"></image></g></g><g><clipPath id="clip-996"><path d="M 470.1 400.2 L 630.5 400.2 L 630.5 430.2 L 470.1 430.2 Z M 470.1 400.2 "></path></clipPath><g clip-path="url(#clip-996)"><text xml:space="preserve" font-family="Helvetica-Light" font-size="28.0" fill="#383E51" transform="matrix(1.00, 0.00, -0.00, -1.00, 490.0, 403.0)">Я</text><text xml:space="preserve" font-family="Helvetica-Light" font-size="28.0" fill="#383E51" transform="matrix(1.00, 0.00, -0.00, -1.00, 507.6, 403.0)">д</text><text xml:space="preserve" font-family="Helvetica-Light" font-size="28.0" fill="#383E51" transform="matrix(1.00, 0.00, -0.00, -1.00, 523.6, 403.0)">о</text><text xml:space="preserve" font-family="Helvetica-Light" font-size="28.0" fill="#383E51" transform="matrix(1.00, 0.00, -0.00, -1.00, 539.2, 403.0)">в</text><text xml:space="preserve" font-family="Helvetica-Light" font-size="28.0" fill="#383E51" transform="matrix(1.00, 0.00, -0.00, -1.00, 553.6, 403.0)">и</text><text xml:space="preserve" font-family="Helvetica-Light" font-size="28.0" fill="#383E51" transform="matrix(1.00, 0.00, -0.00, -1.00, 568.9, 403.0)">т</text><text xml:space="preserve" font-family="Helvetica-Light" font-size="28.0" fill="#383E51" transform="matrix(1.00, 0.00, -0.00, -1.00, 581.3, 403.0)">о</text><text xml:space="preserve" font-family="Helvetica-Light" font-size="28.0" fill="#383E51" transform="matrix(1.00, 0.00, -0.00, -1.00, 596.8, 403.0)">е</text></g></g><g><clipPath id="clip-997"><path d="M 493.1 427.7 L 607.5 427.7 L 607.5 542.0 L 493.1 542.0 Z M 493.1 427.7 "></path></clipPath><g clip-path="url(#clip-997)"><image xlink:href="../../710C39F4-EC0A-40E9-A353-AEDD765AFBFB/assets/EEEC1EEC368994E9F2D2CCE931C89B1B.png" width="128.00" height="128.00" transform="matrix(0.89, 0.00, -0.00, -0.89, 493.0, 542.0)"></image></g></g></g></svg>