<?xml version="1.0" encoding="UTF-8" standalone="no"?><svg xmlns="http://www.w3.org/2000/svg" xmlns:xlink="http://www.w3.org/1999/xlink" clip-rule="evenodd" stroke-miterlimit="4.00" viewBox="0 0 562 31"><desc>SVG generated by Keynote</desc><defs></defs><g transform="matrix(1.00, 0.00, -0.00, -1.00, 0.0, 31.0)"><text xml:space="preserve" font-family="Roboto" font-weight="bold" font-size="30.0" fill="#383E51" transform="matrix(1.00, 0.00, -0.00, -1.00, 1.0, 8.0)">+</text><text xml:space="preserve" font-family="Roboto" font-weight="bold" font-size="30.0" fill="#383E51" transform="matrix(1.00, 0.00, -0.00, -1.00, 17.0, 8.0)">3</text><text xml:space="preserve" font-family="Roboto" font-weight="bold" font-size="30.0" fill="#383E51" transform="matrix(1.00, 0.00, -0.00, -1.00, 34.4, 8.0)"> </text><text xml:space="preserve" font-family="Roboto" font-weight="bold" font-size="30.0" fill="#383E51" transform="matrix(1.00, 0.00, -0.00, -1.00, 41.9, 8.0)">к</text><text xml:space="preserve" font-family="Roboto" font-weight="bold" font-size="30.0" fill="#383E51" transform="matrix(1.00, 0.00, -0.00, -1.00, 59.1, 8.0)"> </text><text xml:space="preserve" font-family="Roboto" font-weight="bold" font-size="30.0" fill="#383E51" transform="matrix(1.00, 0.00, -0.00, -1.00, 66.6, 8.0)">а</text><text xml:space="preserve" font-family="Roboto" font-weight="bold" font-size="30.0" fill="#383E51" transform="matrix(1.00, 0.00, -0.00, -1.00, 82.2, 8.0)">т</text><text xml:space="preserve" font-family="Roboto" font-weight="bold" font-size="30.0" fill="#383E51" transform="matrix(1.00, 0.00, -0.00, -1.00, 97.7, 8.0)">а</text><text xml:space="preserve" font-family="Roboto" font-weight="bold" font-size="30.0" fill="#383E51" transform="matrix(1.00, 0.00, -0.00, -1.00, 113.6, 8.0)">к</text><text xml:space="preserve" font-family="Roboto" font-weight="bold" font-size="30.0" fill="#383E51" transform="matrix(1.00, 0.00, -0.00, -1.00, 130.6, 8.0)">е</text><text xml:space="preserve" font-family="Roboto" font-weight="bold" font-size="30.0" fill="#383E51" transform="matrix(1.00, 0.00, -0.00, -1.00, 146.9, 8.0)">,</text><text xml:space="preserve" font-family="Roboto" font-weight="bold" font-size="30.0" fill="#383E51" transform="matrix(1.00, 0.00, -0.00, -1.00, 155.0, 8.0)"> </text><text xml:space="preserve" font-family="Roboto" font-weight="bold" font-size="30.0" fill="#383E51" transform="matrix(1.00, 0.00, -0.00, -1.00, 162.5, 8.0)">е</text><text xml:space="preserve" font-family="Roboto" font-weight="bold" font-size="30.0" fill="#383E51" transform="matrix(1.00, 0.00, -0.00, -1.00, 178.8, 8.0)">с</text><text xml:space="preserve" font-family="Roboto" font-weight="bold" font-size="30.0" fill="#383E51" transform="matrix(1.00, 0.00, -0.00, -1.00, 194.4, 8.0)">л</text><text xml:space="preserve" font-family="Roboto" font-weight="bold" font-size="30.0" fill="#383E51" transform="matrix(1.00, 0.00, -0.00, -1.00, 211.2, 8.0)">и</text><text xml:space="preserve" font-family="Roboto" font-weight="bold" font-size="30.0" fill="#383E51" transform="matrix(1.00, 0.00, -0.00, -1.00, 228.0, 8.0)"> </text><text xml:space="preserve" font-family="Roboto" font-weight="bold" font-size="30.0" fill="#383E51" transform="matrix(1.00, 0.00, -0.00, -1.00, 235.5, 8.0)">п</text><text xml:space="preserve" font-family="Roboto" font-weight="bold" font-size="30.0" fill="#383E51" transform="matrix(1.00, 0.00, -0.00, -1.00, 252.3, 8.0)">р</text><text xml:space="preserve" font-family="Roboto" font-weight="bold" font-size="30.0" fill="#383E51" transform="matrix(1.00, 0.00, -0.00, -1.00, 269.2, 8.0)">о</text><text xml:space="preserve" font-family="Roboto" font-weight="bold" font-size="30.0" fill="#383E51" transform="matrix(1.00, 0.00, -0.00, -1.00, 285.6, 8.0)">т</text><text xml:space="preserve" font-family="Roboto" font-weight="bold" font-size="30.0" fill="#383E51" transform="matrix(1.00, 0.00, -0.00, -1.00, 301.3, 8.0)">и</text><text xml:space="preserve" font-family="Roboto" font-weight="bold" font-size="30.0" fill="#383E51" transform="matrix(1.00, 0.00, -0.00, -1.00, 318.1, 8.0)">в</text><text xml:space="preserve" font-family="Roboto" font-weight="bold" font-size="30.0" fill="#383E51" transform="matrix(1.00, 0.00, -0.00, -1.00, 334.9, 8.0)">н</text><text xml:space="preserve" font-family="Roboto" font-weight="bold" font-size="30.0" fill="#383E51" transform="matrix(1.00, 0.00, -0.00, -1.00, 351.7, 8.0)">и</text><text xml:space="preserve" font-family="Roboto" font-weight="bold" font-size="30.0" fill="#383E51" transform="matrix(1.00, 0.00, -0.00, -1.00, 368.5, 8.0)">к</text><text xml:space="preserve" font-family="Roboto" font-weight="bold" font-size="30.0" fill="#383E51" transform="matrix(1.00, 0.00, -0.00, -1.00, 385.7, 8.0)"> </text><text xml:space="preserve" font-family="Roboto" font-weight="bold" font-size="30.0" fill="#383E51" transform="matrix(1.00, 0.00, -0.00, -1.00, 393.3, 8.0)">п</text><text xml:space="preserve" font-family="Roboto" font-weight="bold" font-size="30.0" fill="#383E51" transform="matrix(1.00, 0.00, -0.00, -1.00, 410.1, 8.0)">л</text><text xml:space="preserve" font-family="Roboto" font-weight="bold" font-size="30.0" fill="#383E51" transform="matrix(1.00, 0.00, -0.00, -1.00, 427.0, 8.0)">а</text><text xml:space="preserve" font-family="Roboto" font-weight="bold" font-size="30.0" fill="#383E51" transform="matrix(1.00, 0.00, -0.00, -1.00, 442.9, 8.0)">в</text><text xml:space="preserve" font-family="Roboto" font-weight="bold" font-size="30.0" fill="#383E51" transform="matrix(1.00, 0.00, -0.00, -1.00, 459.7, 8.0)">а</text><text xml:space="preserve" font-family="Roboto" font-weight="bold" font-size="30.0" fill="#383E51" transform="matrix(1.00, 0.00, -0.00, -1.00, 475.6, 8.0)">ю</text><text xml:space="preserve" font-family="Roboto" font-weight="bold" font-size="30.0" fill="#383E51" transform="matrix(1.00, 0.00, -0.00, -1.00, 499.9, 8.0)">щ</text><text xml:space="preserve" font-family="Roboto" font-weight="bold" font-size="30.0" fill="#383E51" transform="matrix(1.00, 0.00, -0.00, -1.00, 527.7, 8.0)">е</text><text xml:space="preserve" font-family="Roboto" font-weight="bold" font-size="30.0" fill="#383E51" transform="matrix(1.00, 0.00, -0.00, -1.00, 544.1, 8.0)">е</text></g></svg>