<?xml version="1.0" encoding="UTF-8" standalone="no"?><svg xmlns="http://www.w3.org/2000/svg" xmlns:xlink="http://www.w3.org/1999/xlink" clip-rule="evenodd" stroke-miterlimit="4.00" viewBox="0 0 556 36"><desc>SVG generated by Keynote</desc><defs></defs><g transform="matrix(1.00, 0.00, -0.00, -1.00, 0.0, 36.0)"><text xml:space="preserve" font-family="Roboto" font-weight="300" font-size="30.0" fill="#383E51" transform="matrix(1.00, 0.00, -0.00, -1.00, 0.0, 8.0)">+</text><text xml:space="preserve" font-family="Roboto" font-weight="300" font-size="30.0" fill="#383E51" transform="matrix(1.00, 0.00, -0.00, -1.00, 17.0, 8.0)">3</text><text xml:space="preserve" font-family="Roboto" font-weight="300" font-size="30.0" fill="#383E51" transform="matrix(1.00, 0.00, -0.00, -1.00, 33.8, 8.0)"> </text><text xml:space="preserve" font-family="Roboto" font-weight="300" font-size="30.0" fill="#383E51" transform="matrix(1.00, 0.00, -0.00, -1.00, 41.2, 8.0)">к</text><text xml:space="preserve" font-family="Roboto" font-weight="300" font-size="30.0" fill="#383E51" transform="matrix(1.00, 0.00, -0.00, -1.00, 57.5, 8.0)"> </text><text xml:space="preserve" font-family="Roboto" font-weight="300" font-size="30.0" fill="#383E51" transform="matrix(1.00, 0.00, -0.00, -1.00, 64.9, 8.0)">а</text><text xml:space="preserve" font-family="Roboto" font-weight="300" font-size="30.0" fill="#383E51" transform="matrix(1.00, 0.00, -0.00, -1.00, 80.9, 8.0)">т</text><text xml:space="preserve" font-family="Roboto" font-weight="300" font-size="30.0" fill="#383E51" transform="matrix(1.00, 0.00, -0.00, -1.00, 95.1, 8.0)">а</text><text xml:space="preserve" font-family="Roboto" font-weight="300" font-size="30.0" fill="#383E51" transform="matrix(1.00, 0.00, -0.00, -1.00, 111.5, 8.0)">к</text><text xml:space="preserve" font-family="Roboto" font-weight="300" font-size="30.0" fill="#383E51" transform="matrix(1.00, 0.00, -0.00, -1.00, 127.4, 8.0)">е</text><text xml:space="preserve" font-family="Roboto" font-weight="300" font-size="30.0" fill="#383E51" transform="matrix(1.00, 0.00, -0.00, -1.00, 143.3, 8.0)">,</text><text xml:space="preserve" font-family="Roboto" font-weight="300" font-size="30.0" fill="#383E51" transform="matrix(1.00, 0.00, -0.00, -1.00, 149.2, 8.0)"> </text><text xml:space="preserve" font-family="Roboto" font-weight="300" font-size="30.0" fill="#383E51" transform="matrix(1.00, 0.00, -0.00, -1.00, 156.6, 8.0)">е</text><text xml:space="preserve" font-family="Roboto" font-weight="300" font-size="30.0" fill="#383E51" transform="matrix(1.00, 0.00, -0.00, -1.00, 172.5, 8.0)">с</text><text xml:space="preserve" font-family="Roboto" font-weight="300" font-size="30.0" fill="#383E51" transform="matrix(1.00, 0.00, -0.00, -1.00, 188.2, 8.0)">л</text><text xml:space="preserve" font-family="Roboto" font-weight="300" font-size="30.0" fill="#383E51" transform="matrix(1.00, 0.00, -0.00, -1.00, 205.6, 8.0)">и</text><text xml:space="preserve" font-family="Roboto" font-weight="300" font-size="30.0" fill="#383E51" transform="matrix(1.00, 0.00, -0.00, -1.00, 222.9, 8.0)"> </text><text xml:space="preserve" font-family="Roboto" font-weight="300" font-size="30.0" fill="#383E51" transform="matrix(1.00, 0.00, -0.00, -1.00, 230.3, 8.0)">п</text><text xml:space="preserve" font-family="Roboto" font-weight="300" font-size="30.0" fill="#383E51" transform="matrix(1.00, 0.00, -0.00, -1.00, 247.6, 8.0)">р</text><text xml:space="preserve" font-family="Roboto" font-weight="300" font-size="30.0" fill="#383E51" transform="matrix(1.00, 0.00, -0.00, -1.00, 264.5, 8.0)">о</text><text xml:space="preserve" font-family="Roboto" font-weight="300" font-size="30.0" fill="#383E51" transform="matrix(1.00, 0.00, -0.00, -1.00, 281.3, 8.0)">т</text><text xml:space="preserve" font-family="Roboto" font-weight="300" font-size="30.0" fill="#383E51" transform="matrix(1.00, 0.00, -0.00, -1.00, 295.7, 8.0)">и</text><text xml:space="preserve" font-family="Roboto" font-weight="300" font-size="30.0" fill="#383E51" transform="matrix(1.00, 0.00, -0.00, -1.00, 313.0, 8.0)">в</text><text xml:space="preserve" font-family="Roboto" font-weight="300" font-size="30.0" fill="#383E51" transform="matrix(1.00, 0.00, -0.00, -1.00, 330.1, 8.0)">н</text><text xml:space="preserve" font-family="Roboto" font-weight="300" font-size="30.0" fill="#383E51" transform="matrix(1.00, 0.00, -0.00, -1.00, 347.4, 8.0)">и</text><text xml:space="preserve" font-family="Roboto" font-weight="300" font-size="30.0" fill="#383E51" transform="matrix(1.00, 0.00, -0.00, -1.00, 364.8, 8.0)">к</text><text xml:space="preserve" font-family="Roboto" font-weight="300" font-size="30.0" fill="#383E51" transform="matrix(1.00, 0.00, -0.00, -1.00, 381.0, 8.0)"> </text><text xml:space="preserve" font-family="Roboto" font-weight="300" font-size="30.0" fill="#383E51" transform="matrix(1.00, 0.00, -0.00, -1.00, 388.4, 8.0)">п</text><text xml:space="preserve" font-family="Roboto" font-weight="300" font-size="30.0" fill="#383E51" transform="matrix(1.00, 0.00, -0.00, -1.00, 405.7, 8.0)">л</text><text xml:space="preserve" font-family="Roboto" font-weight="300" font-size="30.0" fill="#383E51" transform="matrix(1.00, 0.00, -0.00, -1.00, 423.1, 8.0)">а</text><text xml:space="preserve" font-family="Roboto" font-weight="300" font-size="30.0" fill="#383E51" transform="matrix(1.00, 0.00, -0.00, -1.00, 439.4, 8.0)">в</text><text xml:space="preserve" font-family="Roboto" font-weight="300" font-size="30.0" fill="#383E51" transform="matrix(1.00, 0.00, -0.00, -1.00, 456.5, 8.0)">а</text><text xml:space="preserve" font-family="Roboto" font-weight="300" font-size="30.0" fill="#383E51" transform="matrix(1.00, 0.00, -0.00, -1.00, 472.8, 8.0)">ю</text><text xml:space="preserve" font-family="Roboto" font-weight="300" font-size="30.0" fill="#383E51" transform="matrix(1.00, 0.00, -0.00, -1.00, 497.3, 8.0)">щ</text><text xml:space="preserve" font-family="Roboto" font-weight="300" font-size="30.0" fill="#383E51" transform="matrix(1.00, 0.00, -0.00, -1.00, 522.3, 8.0)">е</text><text xml:space="preserve" font-family="Roboto" font-weight="300" font-size="30.0" fill="#383E51" transform="matrix(1.00, 0.00, -0.00, -1.00, 538.2, 8.0)">е</text><g><clipPath id="clip-1357"><path d="M -0.9 14.2 L 554.2 14.2 L 554.2 17.7 L -0.9 17.7 Z M -0.9 14.2 "></path></clipPath><g clip-path="url(#clip-1357)"><path d="M 4.0 23.6 L 558.1 23.6 " fill="none" stroke="#383E51" stroke-width="1.54" stroke-miterlimit="0.00" transform="matrix(1.00, 0.00, 0.00, -1.00, -3.9, 39.5)"></path></g></g></g></svg>