<?xml version="1.0" encoding="UTF-8" standalone="no"?><svg xmlns="http://www.w3.org/2000/svg" xmlns:xlink="http://www.w3.org/1999/xlink" clip-rule="evenodd" stroke-miterlimit="4.00" viewBox="0 0 1920 1080"><desc>SVG generated by Keynote</desc><defs></defs><g transform="matrix(1.00, 0.00, -0.00, -1.00, 0.0, 1080.0)"><path d="M 0.0 1080.0 L 1920.0 1080.0 L 1920.0 0.0 L 0.0 0.0 Z M 0.0 1080.0 " fill="#FECF60"></path><g><clipPath id="clip-2594"><path d="M 1785.0 64.0 L 1906.0 64.0 L 1906.0 -3.0 L 1785.0 -3.0 Z M 1785.0 64.0 "></path></clipPath><g clip-path="url(#clip-2594)"><g><clipPath id="clip-2595"><path d="M 1785.0 -3.0 L 1905.6 -3.0 L 1905.6 64.0 L 1785.0 64.0 Z M 1785.0 -3.0 "></path></clipPath><g clip-path="url(#clip-2595)"><path d="M 1903.6 44.0 C 1902.4 44.0 1901.5 43.2 1901.2 42.1 L 1892.4 42.1 L 1892.4 47.0 C 1892.4 47.3 1892.2 47.5 1891.9 47.5 L 1889.1 47.5 L 1889.1 50.8 L 1889.1 50.8 L 1889.1 50.8 C 1889.1 58.1 1883.2 64.0 1875.8 64.0 C 1870.2 64.0 1865.4 60.5 1863.5 55.6 L 1850.1 53.8 C 1848.4 55.4 1846.1 56.4 1843.6 56.4 C 1838.5 56.4 1834.4 52.5 1834.1 47.5 L 1831.4 47.5 C 1831.1 47.5 1830.8 47.3 1830.8 47.0 L 1830.8 42.1 L 1820.8 42.1 C 1820.5 43.2 1819.6 44.0 1818.4 44.0 C 1817.1 44.0 1816.0 42.9 1816.0 41.6 C 1816.0 40.3 1817.1 39.2 1818.4 39.2 C 1819.6 39.2 1820.5 40.0 1820.8 41.0 L 1830.8 41.0 L 1830.8 36.2 C 1830.8 35.9 1831.1 35.6 1831.4 35.6 L 1834.1 35.6 L 1834.1 32.6 C 1834.1 32.6 1834.1 32.6 1834.1 32.6 C 1834.1 32.5 1834.1 32.5 1834.1 32.5 C 1834.1 32.5 1834.1 32.5 1834.1 32.5 C 1834.1 32.4 1834.1 32.4 1834.1 32.4 C 1834.1 32.4 1834.1 32.4 1834.1 32.4 C 1834.1 32.3 1834.1 32.3 1834.2 32.3 C 1834.2 32.3 1834.2 32.3 1834.2 32.3 C 1834.2 32.3 1834.2 32.3 1834.2 32.3 L 1839.4 25.9 C 1836.5 21.8 1833.9 17.5 1831.7 13.1 C 1831.7 13.1 1831.6 13.0 1831.6 13.0 C 1830.9 11.6 1830.2 10.2 1829.6 8.7 C 1829.6 8.7 1829.5 8.7 1829.5 8.7 C 1829.5 8.7 1829.5 8.7 1829.5 8.7 C 1829.0 7.6 1828.5 6.5 1828.1 5.4 C 1825.4 11.1 1823.3 17.1 1821.8 23.2 L 1823.0 23.6 C 1823.4 23.8 1823.8 24.2 1824.0 24.7 C 1824.3 25.2 1824.3 25.7 1824.1 26.2 C 1823.7 27.2 1822.5 27.7 1821.5 27.3 L 1821.0 27.1 L 1821.0 30.8 C 1821.0 31.9 1820.1 32.8 1819.0 32.8 C 1817.9 32.8 1817.1 31.9 1817.0 30.8 L 1817.0 31.9 C 1817.0 33.0 1816.2 33.8 1815.1 33.8 C 1814.0 33.8 1813.1 33.0 1813.1 31.9 L 1813.1 26.9 L 1813.1 26.9 L 1813.1 29.5 C 1813.1 30.6 1812.2 31.5 1811.1 31.5 C 1810.0 31.5 1809.1 30.6 1809.1 29.5 L 1809.1 26.4 L 1809.1 26.4 L 1809.1 26.4 C 1809.1 26.3 1809.1 26.3 1809.1 26.3 C 1809.1 26.3 1809.1 26.3 1809.1 26.3 C 1809.7 23.3 1810.3 20.5 1811.1 17.6 C 1811.1 17.6 1811.1 17.5 1811.1 17.5 C 1811.1 17.5 1811.1 17.5 1811.1 17.5 C 1811.8 15.1 1812.5 12.7 1813.4 10.4 C 1813.4 10.3 1813.4 10.3 1813.4 10.3 C 1813.4 10.3 1813.4 10.3 1813.4 10.3 C 1814.9 5.8 1816.8 1.5 1818.9 -2.7 C 1818.9 -2.7 1818.9 -2.7 1818.9 -2.7 C 1818.9 -2.8 1818.9 -2.8 1819.0 -2.8 C 1819.0 -2.8 1819.0 -2.8 1819.0 -2.8 C 1819.0 -2.9 1819.0 -2.9 1819.1 -2.9 C 1819.1 -2.9 1819.1 -2.9 1819.1 -2.9 C 1819.1 -2.9 1819.2 -3.0 1819.2 -3.0 C 1819.2 -3.0 1819.2 -3.0 1819.2 -3.0 C 1819.3 -3.0 1819.3 -3.0 1819.4 -3.0 C 1819.4 -3.0 1819.4 -3.0 1819.4 -3.0 C 1819.4 -3.0 1819.4 -3.0 1819.4 -3.0 L 1831.5 -3.0 C 1831.5 -3.0 1831.5 -3.0 1831.5 -3.0 C 1831.5 -3.0 1831.5 -3.0 1831.5 -3.0 L 1837.1 -3.0 C 1837.1 -3.0 1837.1 -3.0 1837.1 -3.0 C 1837.1 -3.0 1837.1 -3.0 1837.1 -3.0 L 1857.0 -3.0 C 1857.0 -3.0 1857.0 -3.0 1857.0 -3.0 C 1857.0 -3.0 1857.0 -3.0 1857.0 -3.0 L 1866.2 -3.0 C 1866.2 -3.0 1866.2 -3.0 1866.2 -3.0 C 1866.2 -3.0 1866.2 -3.0 1866.2 -3.0 L 1886.1 -3.0 C 1886.1 -3.0 1886.1 -3.0 1886.1 -3.0 C 1886.1 -3.0 1886.1 -3.0 1886.1 -3.0 L 1894.1 -3.0 C 1894.1 -3.0 1894.1 -3.0 1894.1 -3.0 C 1894.1 -3.0 1894.1 -3.0 1894.1 -3.0 L 1897.5 -3.0 C 1897.5 -3.0 1897.5 -3.0 1897.5 -3.0 C 1897.5 -3.0 1897.5 -3.0 1897.5 -3.0 C 1897.6 -3.0 1897.6 -3.0 1897.7 -3.0 C 1897.7 -3.0 1897.7 -3.0 1897.7 -3.0 C 1897.7 -3.0 1897.7 -3.0 1897.7 -3.0 C 1897.7 -3.0 1897.7 -2.9 1897.7 -2.9 C 1897.8 -2.9 1897.8 -2.9 1897.8 -2.9 C 1897.8 -2.9 1897.8 -2.9 1897.8 -2.9 C 1897.8 -2.9 1897.9 -2.9 1897.9 -2.9 C 1897.9 -2.8 1897.9 -2.8 1897.9 -2.8 C 1897.9 -2.8 1897.9 -2.8 1897.9 -2.8 C 1897.9 -2.8 1898.0 -2.7 1898.0 -2.7 C 1898.0 -2.7 1898.0 -2.7 1898.0 -2.7 C 1898.0 -2.7 1898.0 -2.7 1898.0 -2.6 C 1898.0 -2.6 1898.0 -2.6 1898.0 -2.6 C 1898.0 -2.6 1898.0 -2.6 1898.0 -2.5 C 1898.0 -2.5 1898.0 -2.5 1898.0 -2.5 C 1898.0 -2.5 1898.0 -2.5 1898.0 -2.5 C 1898.0 -2.5 1898.0 -2.4 1898.0 -2.4 C 1898.0 -2.4 1898.0 -2.4 1898.0 -2.4 C 1898.0 -2.4 1898.0 -2.3 1898.0 -2.3 C 1898.0 -2.3 1898.0 -2.3 1898.0 -2.3 C 1897.9 -1.8 1897.7 -1.4 1897.5 -0.9 C 1897.5 -0.9 1897.5 -0.8 1897.5 -0.8 C 1896.4 2.4 1895.1 5.6 1893.7 8.7 C 1893.7 8.7 1893.7 8.7 1893.7 8.7 C 1893.7 8.7 1893.7 8.7 1893.7 8.7 C 1893.0 10.2 1892.3 11.6 1891.6 13.0 C 1891.6 13.0 1891.6 13.1 1891.5 13.1 C 1889.3 17.5 1886.7 21.8 1883.9 25.9 L 1889.0 32.3 C 1889.0 32.3 1889.0 32.3 1889.0 32.3 C 1889.0 32.3 1889.1 32.3 1889.1 32.3 C 1889.1 32.3 1889.1 32.3 1889.1 32.4 C 1889.1 32.4 1889.1 32.4 1889.1 32.4 C 1889.1 32.4 1889.1 32.4 1889.1 32.5 C 1889.1 32.5 1889.1 32.5 1889.1 32.5 C 1889.1 32.5 1889.1 32.5 1889.1 32.6 C 1889.1 32.6 1889.1 32.6 1889.1 32.6 L 1889.1 35.6 L 1891.9 35.6 C 1892.2 35.6 1892.4 35.9 1892.4 36.2 L 1892.4 41.0 L 1901.2 41.0 C 1901.5 40.0 1902.4 39.2 1903.6 39.2 C 1904.9 39.2 1906.0 40.3 1906.0 41.6 C 1906.0 42.9 1904.9 44.0 1903.6 44.0 " fill="#E9C05A"></path><path d="M 1879.5 44.0 C 1878.3 44.0 1877.4 43.2 1877.1 42.1 L 1868.3 42.1 L 1868.3 47.0 C 1868.3 47.3 1868.1 47.5 1867.8 47.5 L 1865.0 47.5 L 1865.0 50.8 L 1865.0 50.8 L 1865.0 50.8 C 1865.0 58.1 1859.1 64.0 1851.7 64.0 C 1846.1 64.0 1841.3 60.5 1839.4 55.6 L 1826.0 53.8 C 1824.3 55.4 1822.0 56.4 1819.5 56.4 C 1814.4 56.4 1810.3 52.5 1810.0 47.5 L 1807.3 47.5 C 1807.0 47.5 1806.7 47.3 1806.7 47.0 L 1806.7 42.1 L 1796.7 42.1 C 1796.4 43.2 1795.5 44.0 1794.3 44.0 C 1793.0 44.0 1791.9 42.9 1791.9 41.6 C 1791.9 40.3 1793.0 39.2 1794.3 39.2 C 1795.5 39.2 1796.4 40.0 1796.7 41.0 L 1806.7 41.0 L 1806.7 36.2 C 1806.7 35.9 1807.0 35.6 1807.3 35.6 L 1810.0 35.6 L 1810.0 32.6 C 1810.0 32.6 1810.0 32.6 1810.0 32.6 C 1810.0 32.5 1810.0 32.5 1810.0 32.5 C 1810.0 32.5 1810.0 32.5 1810.0 32.5 C 1810.0 32.4 1810.0 32.4 1810.0 32.4 C 1810.0 32.4 1810.0 32.4 1810.0 32.4 C 1810.0 32.3 1810.0 32.3 1810.1 32.3 C 1810.1 32.3 1810.1 32.3 1810.1 32.3 C 1810.1 32.3 1810.1 32.3 1810.1 32.3 L 1815.3 25.9 C 1812.4 21.8 1809.8 17.5 1807.6 13.1 C 1807.5 13.1 1807.5 13.0 1807.5 13.0 C 1806.8 11.6 1806.1 10.2 1805.5 8.7 C 1805.5 8.7 1805.4 8.7 1805.4 8.7 C 1805.4 8.7 1805.4 8.7 1805.4 8.7 C 1804.9 7.6 1804.4 6.5 1804.0 5.4 C 1801.3 11.1 1799.2 17.1 1797.7 23.2 L 1798.9 23.6 C 1799.3 23.8 1799.7 24.2 1799.9 24.7 C 1800.2 25.2 1800.2 25.7 1800.0 26.2 C 1799.6 27.2 1798.4 27.7 1797.4 27.3 L 1796.9 27.1 L 1796.9 30.8 C 1796.9 31.9 1796.0 32.8 1794.9 32.8 C 1793.8 32.8 1793.0 31.9 1792.9 30.8 L 1792.9 31.9 C 1792.9 33.0 1792.0 33.8 1791.0 33.8 C 1789.9 33.8 1789.0 33.0 1789.0 31.9 L 1789.0 26.9 L 1789.0 26.9 L 1789.0 29.5 C 1789.0 30.6 1788.1 31.5 1787.0 31.5 C 1785.9 31.5 1785.0 30.6 1785.0 29.5 L 1785.0 26.4 L 1785.0 26.4 L 1785.0 26.4 C 1785.0 26.3 1785.0 26.3 1785.0 26.3 C 1785.0 26.3 1785.0 26.3 1785.0 26.3 C 1785.6 23.3 1786.2 20.5 1787.0 17.6 C 1787.0 17.6 1787.0 17.5 1787.0 17.5 C 1787.0 17.5 1787.0 17.5 1787.0 17.5 C 1787.7 15.1 1788.4 12.7 1789.3 10.4 C 1789.3 10.3 1789.3 10.3 1789.3 10.3 C 1789.3 10.3 1789.3 10.3 1789.3 10.3 C 1790.8 5.8 1792.7 1.5 1794.8 -2.7 C 1794.8 -2.7 1794.8 -2.7 1794.8 -2.7 C 1794.8 -2.8 1794.8 -2.8 1794.9 -2.8 C 1794.9 -2.8 1794.9 -2.8 1794.9 -2.8 C 1794.9 -2.9 1794.9 -2.9 1795.0 -2.9 C 1795.0 -2.9 1795.0 -2.9 1795.0 -2.9 C 1795.0 -2.9 1795.1 -3.0 1795.1 -3.0 C 1795.1 -3.0 1795.1 -3.0 1795.1 -3.0 C 1795.2 -3.0 1795.2 -3.0 1795.3 -3.0 C 1795.3 -3.0 1795.3 -3.0 1795.3 -3.0 C 1795.3 -3.0 1795.3 -3.0 1795.3 -3.0 L 1807.4 -3.0 C 1807.4 -3.0 1807.4 -3.0 1807.4 -3.0 C 1807.4 -3.0 1807.4 -3.0 1807.4 -3.0 L 1813.0 -3.0 C 1813.0 -3.0 1813.0 -3.0 1813.0 -3.0 C 1813.0 -3.0 1813.0 -3.0 1813.0 -3.0 L 1832.9 -3.0 C 1832.9 -3.0 1832.9 -3.0 1832.9 -3.0 C 1832.9 -3.0 1832.9 -3.0 1832.9 -3.0 L 1842.1 -3.0 C 1842.1 -3.0 1842.1 -3.0 1842.1 -3.0 C 1842.1 -3.0 1842.1 -3.0 1842.1 -3.0 L 1862.0 -3.0 C 1862.0 -3.0 1862.0 -3.0 1862.0 -3.0 C 1862.0 -3.0 1862.0 -3.0 1862.0 -3.0 L 1870.0 -3.0 C 1870.0 -3.0 1870.0 -3.0 1870.0 -3.0 C 1870.0 -3.0 1870.0 -3.0 1870.0 -3.0 L 1873.4 -3.0 C 1873.4 -3.0 1873.4 -3.0 1873.4 -3.0 C 1873.4 -3.0 1873.4 -3.0 1873.4 -3.0 C 1873.5 -3.0 1873.5 -3.0 1873.5 -3.0 C 1873.6 -3.0 1873.6 -3.0 1873.6 -3.0 C 1873.6 -3.0 1873.6 -3.0 1873.6 -3.0 C 1873.6 -3.0 1873.6 -2.9 1873.6 -2.9 C 1873.7 -2.9 1873.7 -2.9 1873.7 -2.9 C 1873.7 -2.9 1873.7 -2.9 1873.7 -2.9 C 1873.7 -2.9 1873.8 -2.9 1873.8 -2.9 C 1873.8 -2.8 1873.8 -2.8 1873.8 -2.8 C 1873.8 -2.8 1873.8 -2.8 1873.8 -2.8 C 1873.8 -2.8 1873.9 -2.7 1873.9 -2.7 C 1873.9 -2.7 1873.9 -2.7 1873.9 -2.7 C 1873.9 -2.7 1873.9 -2.7 1873.9 -2.6 C 1873.9 -2.6 1873.9 -2.6 1873.9 -2.6 C 1873.9 -2.6 1873.9 -2.6 1873.9 -2.5 C 1873.9 -2.5 1873.9 -2.5 1873.9 -2.5 C 1873.9 -2.5 1873.9 -2.5 1873.9 -2.5 C 1873.9 -2.5 1873.9 -2.4 1873.9 -2.4 C 1873.9 -2.4 1873.9 -2.4 1873.9 -2.4 C 1873.9 -2.4 1873.9 -2.3 1873.9 -2.3 C 1873.9 -2.3 1873.9 -2.3 1873.9 -2.3 C 1873.7 -1.8 1873.6 -1.4 1873.4 -0.9 C 1873.4 -0.9 1873.4 -0.8 1873.4 -0.8 C 1872.3 2.4 1871.0 5.6 1869.6 8.7 C 1869.6 8.7 1869.6 8.7 1869.6 8.7 C 1869.6 8.7 1869.6 8.7 1869.6 8.7 C 1868.9 10.2 1868.2 11.6 1867.5 13.0 C 1867.5 13.0 1867.5 13.1 1867.4 13.1 C 1865.2 17.5 1862.6 21.8 1859.8 25.9 L 1864.9 32.3 C 1864.9 32.3 1864.9 32.3 1864.9 32.3 C 1864.9 32.3 1865.0 32.3 1865.0 32.3 C 1865.0 32.3 1865.0 32.3 1865.0 32.4 C 1865.0 32.4 1865.0 32.4 1865.0 32.4 C 1865.0 32.4 1865.0 32.4 1865.0 32.5 C 1865.0 32.5 1865.0 32.5 1865.0 32.5 C 1865.0 32.5 1865.0 32.5 1865.0 32.6 C 1865.0 32.6 1865.0 32.6 1865.0 32.6 L 1865.0 35.6 L 1867.8 35.6 C 1868.1 35.6 1868.3 35.9 1868.3 36.2 L 1868.3 41.0 L 1877.1 41.0 C 1877.4 40.0 1878.3 39.2 1879.5 39.2 C 1880.8 39.2 1881.9 40.3 1881.9 41.6 C 1881.9 42.9 1880.8 44.0 1879.5 44.0 " fill="#FED97B"></path><path d="M 0.0 0.0 L 106.1 0.0 C 109.5 -4.8 111.5 -10.6 111.5 -16.9 C 111.5 -28.3 104.9 -38.2 95.3 -43.0 " fill="none" stroke="#393E50" stroke-width="3.00" stroke-miterlimit="0.00" stroke-linecap="round" stroke-linejoin="round" transform="matrix(0.36, 0.00, 0.00, 0.36, 1808.0, 12.8)"></path><path d="M 0.0 0.0 C 8.6 21.3 19.7 42.0 33.3 61.7 " fill="none" stroke="#393E50" stroke-width="3.00" stroke-miterlimit="0.00" stroke-linecap="round" stroke-linejoin="round" transform="matrix(0.36, 0.00, 0.00, 0.36, 1804.0, 4.0)"></path><path d="M 0.0 0.0 C 5.3 -2.2 10.5 -4.8 15.5 -7.7 L 47.5 -10.1 " fill="none" stroke="#393E50" stroke-width="1.00" stroke-miterlimit="0.00" stroke-linecap="round" stroke-linejoin="round" transform="matrix(0.36, 0.00, 0.00, 0.36, 1810.4, 12.8)"></path><path d="M 0.0 0.0 C -7.9 4.5 -16.1 8.5 -24.5 11.9 " fill="none" stroke="#393E50" stroke-width="1.00" stroke-miterlimit="0.00" stroke-linecap="round" stroke-linejoin="round" transform="matrix(0.36, 0.00, 0.00, 0.36, 1815.9, 6.8)"></path><path d="M 0.0 0.0 C -8.7 5.0 -17.7 9.4 -26.9 13.2 " fill="none" stroke="#393E50" stroke-width="3.00" stroke-miterlimit="0.00" stroke-linecap="round" stroke-linejoin="round" transform="matrix(0.36, 0.00, 0.00, 0.36, 1815.6, 3.8)"></path><path d="M 0.0 0.0 C -8.8 4.8 -17.8 9.1 -27.1 12.9 " fill="none" stroke="#393E50" stroke-width="1.00" stroke-miterlimit="0.00" stroke-linecap="round" stroke-linejoin="round" transform="matrix(0.36, 0.00, 0.00, 0.36, 1814.3, 0.8)"></path><path d="M 0.0 0.0 C 2.5 6.7 5.2 13.3 8.3 19.8 " fill="none" stroke="#393E50" stroke-width="3.00" stroke-miterlimit="0.00" stroke-linecap="round" stroke-linejoin="round" transform="matrix(0.36, 0.00, 0.00, 0.36, 1813.0, -2.5)"></path><path d="M 0.0 0.0 C 5.2 -27.7 14.2 -55.0 27.2 -81.1 " fill="none" stroke="#393E50" stroke-width="3.00" stroke-miterlimit="0.00" stroke-linecap="round" stroke-linejoin="round" transform="matrix(0.36, 0.00, 0.00, 0.36, 1785.5, 26.4)"></path><path d="M 0.0 0.0 C -13.1 23.1 -22.7 47.7 -28.8 73.1 " fill="none" stroke="#393E50" stroke-width="3.00" stroke-miterlimit="0.00" stroke-linecap="round" stroke-linejoin="round" transform="matrix(0.36, 0.00, 0.00, 0.36, 1807.4, -2.5)"></path><path d="M 0.0 0.0 C -8.7 -5.0 -17.6 -9.5 -26.9 -13.3 " fill="none" stroke="#393E50" stroke-width="1.00" stroke-miterlimit="0.00" stroke-linecap="round" stroke-linejoin="round" transform="matrix(0.36, 0.00, 0.00, 0.36, 1804.4, 3.2)"></path><path d="M 0.0 0.0 C -8.7 -5.0 -17.7 -9.4 -26.9 -13.2 " fill="none" stroke="#393E50" stroke-width="3.00" stroke-miterlimit="0.00" stroke-linecap="round" stroke-linejoin="round" transform="matrix(0.36, 0.00, 0.00, 0.36, 1803.2, 5.7)"></path><path d="M 0.0 0.0 C -8.8 -4.8 -17.8 -9.1 -27.1 -12.9 " fill="none" stroke="#393E50" stroke-width="1.00" stroke-miterlimit="0.00" stroke-linecap="round" stroke-linejoin="round" transform="matrix(0.36, 0.00, 0.00, 0.36, 1801.9, 8.7)"></path><path d="M 0.0 0.0 C -8.8 -4.9 -17.6 -9.8 -26.4 -14.8 " fill="none" stroke="#393E50" stroke-width="1.00" stroke-miterlimit="0.00" stroke-linecap="round" stroke-linejoin="round" transform="matrix(0.36, 0.00, 0.00, 0.36, 1801.1, 10.8)"></path><path d="M 0.0 0.0 C -8.5 -5.5 -17.4 -10.5 -26.4 -15.0 " fill="none" stroke="#393E50" stroke-width="1.00" stroke-miterlimit="0.00" stroke-linecap="round" stroke-linejoin="round" transform="matrix(0.36, 0.00, 0.00, 0.36, 1800.1, 13.4)"></path><path d="M 0.0 0.0 C -8.6 -5.5 -17.4 -10.4 -26.6 -14.8 " fill="none" stroke="#393E50" stroke-width="3.00" stroke-miterlimit="0.00" stroke-linecap="round" stroke-linejoin="round" transform="matrix(0.36, 0.00, 0.00, 0.36, 1799.3, 15.7)"></path><path d="M 0.0 0.0 L -27.1 -13.8 " fill="none" stroke="#393E50" stroke-width="1.00" stroke-miterlimit="0.00" stroke-linecap="round" stroke-linejoin="round" transform="matrix(0.36, 0.00, 0.00, 0.36, 1798.6, 17.9)"></path><path d="M 0.0 0.0 C -8.9 -4.9 -18.0 -9.5 -27.2 -13.7 " fill="none" stroke="#393E50" stroke-width="1.00" stroke-miterlimit="0.00" stroke-linecap="round" stroke-linejoin="round" transform="matrix(0.36, 0.00, 0.00, 0.36, 1798.0, 20.2)"></path><path d="M 0.0 0.0 C -9.2 -3.9 -18.6 -7.4 -28.1 -10.6 " fill="none" stroke="#393E50" stroke-width="3.00" stroke-miterlimit="0.00" stroke-linecap="round" stroke-linejoin="round" transform="matrix(0.36, 0.00, 0.00, 0.36, 1797.6, 21.5)"></path><path d="M 0.0 0.0 L 0.0 8.9 C 0.0 11.1 -1.8 12.9 -4.0 12.9 L -4.0 12.9 C -6.3 12.9 -8.1 11.1 -8.1 8.9 L -8.1 0.0 " fill="none" stroke="#393E50" stroke-width="3.00" stroke-miterlimit="0.00" stroke-linecap="round" stroke-linejoin="round" transform="matrix(0.36, 0.00, 0.00, 0.36, 1788.4, 26.4)"></path><path d="M 0.0 0.0 L 8.1 0.6 " fill="none" stroke="#393E50" stroke-width="1.00" stroke-miterlimit="0.00" stroke-linecap="round" stroke-linejoin="round" transform="matrix(0.36, 0.00, 0.00, 0.36, 1785.5, 27.4)"></path><path d="M 0.0 0.0 L 8.1 0.2 " fill="none" stroke="#393E50" stroke-width="1.00" stroke-miterlimit="0.00" stroke-linecap="round" stroke-linejoin="round" transform="matrix(0.36, 0.00, 0.00, 0.36, 1785.5, 29.0)"></path><path d="M 0.0 0.0 L 0.0 15.5 C 0.0 17.8 -1.8 19.6 -4.0 19.6 L -4.0 19.6 C -6.3 19.6 -8.1 17.8 -8.1 15.5 L -8.1 0.0 " fill="none" stroke="#393E50" stroke-width="3.00" stroke-miterlimit="0.00" stroke-linecap="round" stroke-linejoin="round" transform="matrix(0.36, 0.00, 0.00, 0.36, 1792.4, 26.4)"></path><path d="M 0.0 0.0 L 8.1 0.6 " fill="none" stroke="#393E50" stroke-width="1.00" stroke-miterlimit="0.00" stroke-linecap="round" stroke-linejoin="round" transform="matrix(0.36, 0.00, 0.00, 0.36, 1789.5, 27.7)"></path><path d="M 0.0 0.0 L 8.1 0.2 " fill="none" stroke="#393E50" stroke-width="1.00" stroke-miterlimit="0.00" stroke-linecap="round" stroke-linejoin="round" transform="matrix(0.36, 0.00, 0.00, 0.36, 1789.5, 29.1)"></path><path d="M 0.0 0.0 L 8.1 0.6 " fill="none" stroke="#393E50" stroke-width="1.00" stroke-miterlimit="0.00" stroke-linecap="round" stroke-linejoin="round" transform="matrix(0.36, 0.00, 0.00, 0.36, 1789.5, 29.5)"></path><path d="M 0.0 0.0 L 8.1 0.2 " fill="none" stroke="#393E50" stroke-width="1.00" stroke-miterlimit="0.00" stroke-linecap="round" stroke-linejoin="round" transform="matrix(0.36, 0.00, 0.00, 0.36, 1789.5, 30.9)"></path><path d="M 0.0 0.0 L 0.0 12.5 C 0.0 14.8 -1.8 16.6 -4.0 16.6 L -4.0 16.6 C -6.3 16.6 -8.1 14.8 -8.1 12.5 L -8.1 0.0 " fill="none" stroke="#393E50" stroke-width="3.00" stroke-miterlimit="0.00" stroke-linecap="round" stroke-linejoin="round" transform="matrix(0.36, 0.00, 0.00, 0.36, 1796.4, 26.4)"></path><path d="M 0.0 0.0 L 8.1 0.6 " fill="none" stroke="#393E50" stroke-width="1.00" stroke-miterlimit="0.00" stroke-linecap="round" stroke-linejoin="round" transform="matrix(0.36, 0.00, 0.00, 0.36, 1793.5, 26.7)"></path><path d="M 0.0 0.0 L 8.1 0.2 " fill="none" stroke="#393E50" stroke-width="1.00" stroke-miterlimit="0.00" stroke-linecap="round" stroke-linejoin="round" transform="matrix(0.36, 0.00, 0.00, 0.36, 1793.5, 28.0)"></path><path d="M 0.0 0.0 L 8.1 0.6 " fill="none" stroke="#393E50" stroke-width="1.00" stroke-miterlimit="0.00" stroke-linecap="round" stroke-linejoin="round" transform="matrix(0.36, 0.00, 0.00, 0.36, 1793.5, 28.5)"></path><path d="M 0.0 0.0 L 8.1 0.2 " fill="none" stroke="#393E50" stroke-width="1.00" stroke-miterlimit="0.00" stroke-linecap="round" stroke-linejoin="round" transform="matrix(0.36, 0.00, 0.00, 0.36, 1793.5, 29.8)"></path><path d="M 0.0 0.0 L 3.2 1.3 C 5.3 2.1 7.6 1.1 8.4 -1.0 L 8.4 -1.0 C 9.3 -3.1 8.2 -5.4 6.2 -6.3 L -3.0 -9.9 " fill="none" stroke="#393E50" stroke-width="3.00" stroke-miterlimit="0.00" stroke-linecap="round" stroke-linejoin="round" transform="matrix(0.36, 0.00, 0.00, 0.36, 1796.5, 26.4)"></path><path d="M 0.0 0.0 C 4.8 2.0 9.4 4.7 13.5 7.8 " fill="none" stroke="#393E50" stroke-width="1.00" stroke-miterlimit="0.00" stroke-linecap="round" stroke-linejoin="round" transform="matrix(0.36, 0.00, 0.00, 0.36, 1801.0, -2.5)"></path><path d="M 0.0 0.0 C 1.5 1.2 3.0 2.5 4.4 3.8 " fill="none" stroke="#393E50" stroke-width="1.00" stroke-miterlimit="0.00" stroke-linecap="round" stroke-linejoin="round" transform="matrix(0.36, 0.00, 0.00, 0.36, 1805.1, -2.5)"></path><path d="M 0.0 0.0 C 5.0 -3.4 9.8 -7.2 14.2 -11.4 " fill="none" stroke="#393E50" stroke-width="3.00" stroke-miterlimit="0.00" stroke-linecap="round" stroke-linejoin="round" transform="matrix(0.36, 0.00, 0.00, 0.36, 1805.4, 1.6)"></path><path d="M 0.0 0.0 C 0.0 -19.7 -16.0 -35.7 -35.7 -35.7 C -55.4 -35.7 -71.4 -19.7 -71.4 0.0 C -71.4 19.7 -55.4 35.7 -35.7 35.7 C -16.0 35.7 0.0 19.7 0.0 0.0 Z M 0.0 0.0 " fill="none" stroke="#393E50" stroke-width="3.00" stroke-miterlimit="0.00" stroke-linecap="round" stroke-linejoin="round" transform="matrix(0.36, 0.00, 0.00, 0.36, 1864.5, 50.8)"></path><path d="M 0.0 0.0 C -16.5 0.0 -29.9 13.4 -29.9 29.9 C -29.9 46.3 -16.5 59.7 0.0 59.7 C 16.5 59.7 29.9 46.3 29.9 29.9 C 29.9 13.4 16.5 0.0 0.0 0.0 Z M 0.0 0.0 " fill="none" stroke="#393E50" stroke-width="2.00" stroke-miterlimit="0.00" stroke-linecap="round" stroke-linejoin="round" transform="matrix(0.36, 0.00, 0.00, 0.36, 1851.7, 40.2)"></path><path d="M 0.0 0.0 C -13.6 0.0 -24.6 11.1 -24.6 24.6 C -24.6 38.2 -13.6 49.3 0.0 49.3 C 13.6 49.3 24.6 38.2 24.6 24.6 C 24.6 11.1 13.6 0.0 0.0 0.0 Z M 0.0 0.0 " fill="none" stroke="#393E50" stroke-width="6.00" stroke-miterlimit="0.00" stroke-linecap="round" stroke-linejoin="round" transform="matrix(0.36, 0.00, 0.00, 0.36, 1851.7, 42.0)"></path><path d="M 0.0 0.0 C -11.4 0.0 -20.6 9.3 -20.6 20.6 C -20.6 32.0 -11.4 41.3 0.0 41.3 C 11.4 41.3 20.6 32.0 20.6 20.6 C 20.6 9.3 11.4 0.0 0.0 0.0 Z M 0.0 0.0 " fill="none" stroke="#393E50" stroke-width="1.00" stroke-miterlimit="0.00" stroke-linecap="round" stroke-linejoin="round" stroke-dasharray="2.0" transform="matrix(0.36, 0.00, 0.00, 0.36, 1851.7, 43.5)"></path><path d="M 0.0 0.0 C 0.0 -13.8 -11.2 -25.0 -25.0 -25.0 C -38.8 -25.0 -50.0 -13.8 -50.0 0.0 C -50.0 13.8 -38.8 25.0 -25.0 25.0 C -11.2 25.0 0.0 13.8 0.0 0.0 Z M 0.0 0.0 " fill="none" stroke="#393E50" stroke-width="3.00" stroke-miterlimit="0.00" stroke-linecap="round" stroke-linejoin="round" transform="matrix(0.36, 0.00, 0.00, 0.36, 1828.4, 47.0)"></path><path d="M 0.0 0.0 C -10.6 0.0 -19.2 8.6 -19.2 19.2 C -19.2 29.7 -10.6 38.3 0.0 38.3 C 10.6 38.3 19.2 29.7 19.2 19.2 C 19.2 8.6 10.6 0.0 0.0 0.0 Z M 0.0 0.0 " fill="none" stroke="#393E50" stroke-width="2.00" stroke-miterlimit="0.00" stroke-linecap="round" stroke-linejoin="round" transform="matrix(0.36, 0.00, 0.00, 0.36, 1819.5, 40.2)"></path><path d="M 0.0 0.0 C -7.7 0.0 -13.9 6.2 -13.9 13.9 C -13.9 21.6 -7.7 27.9 0.0 27.9 C 7.7 27.9 13.9 21.6 13.9 13.9 C 13.9 6.2 7.7 0.0 0.0 0.0 Z M 0.0 0.0 " fill="none" stroke="#393E50" stroke-width="6.00" stroke-miterlimit="0.00" stroke-linecap="round" stroke-linejoin="round" transform="matrix(0.36, 0.00, 0.00, 0.36, 1819.5, 42.0)"></path><path d="M 0.0 0.0 C -5.5 0.0 -9.9 4.5 -9.9 9.9 C -9.9 15.4 -5.5 19.9 0.0 19.9 C 5.5 19.9 9.9 15.4 9.9 9.9 C 9.9 4.5 5.5 0.0 0.0 0.0 Z M 0.0 0.0 " fill="none" stroke="#393E50" stroke-width="1.00" stroke-linecap="round" stroke-linejoin="round" stroke-dasharray="1.9, 1.9" transform="matrix(0.36, 0.00, 0.00, 0.36, 1819.5, 43.5)"></path><path d="M 0.0 0.0 L 0.0 -51.2 L -150.9 -51.2 L -150.9 -10.7 " fill="none" stroke="#393E50" stroke-width="3.00" stroke-miterlimit="10.00" stroke-linecap="round" stroke-linejoin="round" transform="matrix(0.36, 0.00, 0.00, 0.36, 1864.5, 50.8)"></path><path d="M 0.0 0.0 L -15.1 -18.6 L -35.7 -18.6 " fill="none" stroke="#393E50" stroke-width="3.00" stroke-miterlimit="10.00" stroke-linecap="round" stroke-linejoin="round" transform="matrix(0.36, 0.00, 0.00, 0.36, 1864.5, 32.6)"></path><path d="M 0.0 0.0 L -34.8 0.0 L -50.0 18.6 " fill="none" stroke="#393E50" stroke-width="3.00" stroke-miterlimit="10.00" stroke-linecap="round" stroke-linejoin="round" transform="matrix(0.36, 0.00, 0.00, 0.36, 1828.4, 26.0)"></path><path d="M 0.0 0.0 L 0.0 43.0 L 36.6 43.0 C 33.2 38.2 31.2 32.4 31.2 26.1 C 31.2 14.6 37.8 4.8 47.4 0.0 " fill="none" stroke="#393E50" stroke-width="3.00" stroke-miterlimit="10.00" stroke-linecap="round" stroke-linejoin="round" transform="matrix(0.36, 0.00, 0.00, 0.36, 1815.9, -2.5)"></path><path d="M 0.0 0.0 L 0.0 -43.0 " fill="none" stroke="#393E50" stroke-width="3.00" stroke-miterlimit="10.00" stroke-linecap="round" stroke-linejoin="round" transform="matrix(0.36, 0.00, 0.00, 0.36, 1859.1, 12.8)"></path><path d="M 0.0 0.0 L 38.9 5.4 " fill="none" stroke="#393E50" stroke-width="3.00" stroke-miterlimit="10.00" stroke-linecap="round" stroke-linejoin="round" transform="matrix(0.36, 0.00, 0.00, 0.36, 1825.8, 53.2)"></path><path d="M 0.0 0.0 L -9.1 0.0 L -9.1 -30.4 L 0.0 -30.4 " fill="none" stroke="#393E50" stroke-width="3.00" stroke-miterlimit="10.00" stroke-linecap="round" stroke-linejoin="round" transform="matrix(0.36, 0.00, 0.00, 0.36, 1810.5, 47.0)"></path><path d="M 0.0 0.0 L 9.1 0.0 L 9.1 30.4 L 0.0 30.4 " fill="none" stroke="#393E50" stroke-width="3.00" stroke-miterlimit="10.00" stroke-linecap="round" stroke-linejoin="round" transform="matrix(0.36, 0.00, 0.00, 0.36, 1864.5, 36.2)"></path><path d="M 0.0 0.0 L -30.8 0.0 " fill="none" stroke="#393E50" stroke-width="3.00" stroke-miterlimit="10.00" stroke-linecap="round" stroke-linejoin="round" transform="matrix(0.36, 0.00, 0.00, 0.36, 1807.3, 41.6)"></path><path d="M 0.0 0.0 L 27.5 0.0 " fill="none" stroke="#393E50" stroke-width="3.00" stroke-miterlimit="10.00" stroke-linecap="round" stroke-linejoin="round" transform="matrix(0.36, 0.00, 0.00, 0.36, 1867.8, 41.6)"></path><path d="M 0.0 0.0 C 0.0 2.9 -2.3 5.2 -5.2 5.2 C -8.1 5.2 -10.5 2.9 -10.5 0.0 C -10.5 -2.9 -8.1 -5.2 -5.2 -5.2 C -2.3 -5.2 0.0 -2.9 0.0 0.0 Z M 0.0 0.0 " fill="none" stroke="#393E50" stroke-width="3.00" stroke-miterlimit="10.00" stroke-linecap="round" stroke-linejoin="round" transform="matrix(0.36, 0.00, 0.00, 0.36, 1796.2, 41.6)"></path><path d="M 0.0 0.0 C 0.0 2.9 -2.3 5.2 -5.2 5.2 C -8.1 5.2 -10.5 2.9 -10.5 0.0 C -10.5 -2.9 -8.1 -5.2 -5.2 -5.2 C -2.3 -5.2 0.0 -2.9 0.0 0.0 Z M 0.0 0.0 " fill="none" stroke="#393E50" stroke-width="3.00" stroke-miterlimit="10.00" stroke-linecap="round" stroke-linejoin="round" transform="matrix(0.36, 0.00, 0.00, 0.36, 1881.4, 41.6)"></path><path d="M 0.0 0.0 C 4.1 -4.5 6.5 -10.4 6.5 -16.9 C 6.5 -30.7 -4.7 -42.0 -18.5 -42.0 C -32.4 -42.0 -43.6 -30.7 -43.6 -16.9 C -43.6 -10.4 -41.2 -4.5 -37.1 0.0 " fill="none" stroke="#393E50" stroke-width="1.00" stroke-miterlimit="10.00" stroke-linecap="round" stroke-linejoin="round" transform="matrix(0.36, 0.00, 0.00, 0.36, 1844.1, 12.8)"></path><path d="M 0.0 0.0 L -11.7 0.0 " fill="none" stroke="#393E50" stroke-width="3.00" stroke-miterlimit="10.00" stroke-linecap="round" stroke-linejoin="round" transform="matrix(0.36, 0.00, 0.00, 0.36, 1849.3, 26.0)"></path><path d="M 0.0 0.0 L -5.8 0.0 " fill="none" stroke="#393E50" stroke-width="3.00" stroke-miterlimit="10.00" stroke-linecap="round" stroke-linejoin="round" transform="matrix(0.36, 0.00, 0.00, 0.36, 1842.5, 26.0)"></path><path d="M 0.0 0.0 L 31.3 -2.4 " fill="none" stroke="#393E50" stroke-width="1.00" stroke-miterlimit="10.00" stroke-linecap="round" stroke-linejoin="round" transform="matrix(0.36, 0.00, 0.00, 0.36, 1847.9, 7.7)"></path><path d="M 0.0 0.0 L 120.5 -3.8 " fill="none" stroke="#393E50" stroke-width="1.00" stroke-miterlimit="10.00" stroke-linecap="round" stroke-linejoin="round" transform="matrix(0.36, 0.00, 0.00, 0.36, 1816.0, 11.4)"></path><path d="M 0.0 0.0 L 34.5 3.2 " fill="none" stroke="#393E50" stroke-width="1.00" stroke-miterlimit="10.00" stroke-linecap="round" stroke-linejoin="round" transform="matrix(0.36, 0.00, 0.00, 0.36, 1826.8, 52.0)"></path><path d="M 0.0 0.0 L 145.5 -6.7 " fill="none" stroke="#393E50" stroke-width="1.00" stroke-miterlimit="10.00" stroke-linecap="round" stroke-linejoin="round" transform="matrix(0.36, 0.00, 0.00, 0.36, 1810.5, 32.6)"></path><path d="M 0.0 0.0 C -9.2 27.8 -22.5 54.7 -40.0 80.0 " fill="none" stroke="#393E50" stroke-width="3.00" stroke-miterlimit="10.00" stroke-linecap="round" stroke-linejoin="round" transform="matrix(0.36, 0.00, 0.00, 0.36, 1873.4, -2.5)"></path><path d="M 0.0 0.0 C 3.0 -6.5 5.8 -13.1 8.3 -19.8 " fill="none" stroke="#393E50" stroke-width="3.00" stroke-miterlimit="10.00" stroke-linecap="round" stroke-linejoin="round" transform="matrix(0.36, 0.00, 0.00, 0.36, 1859.1, 4.6)"></path><path d="M 0.0 0.0 C -5.3 -2.2 -10.5 -4.8 -15.5 -7.7 L -47.5 -10.1 " fill="none" stroke="#393E50" stroke-width="1.00" stroke-miterlimit="10.00" stroke-linecap="round" stroke-linejoin="round" transform="matrix(0.36, 0.00, 0.00, 0.36, 1864.6, 12.8)"></path><path d="M 0.0 0.0 C 7.9 4.5 16.1 8.5 24.5 11.9 " fill="none" stroke="#393E50" stroke-width="1.00" stroke-miterlimit="10.00" stroke-linecap="round" stroke-linejoin="round" transform="matrix(0.36, 0.00, 0.00, 0.36, 1859.1, 6.8)"></path><path d="M 0.0 0.0 C 8.7 5.0 17.7 9.4 26.9 13.2 " fill="none" stroke="#393E50" stroke-width="3.00" stroke-miterlimit="10.00" stroke-linecap="round" stroke-linejoin="round" transform="matrix(0.36, 0.00, 0.00, 0.36, 1859.4, 3.8)"></path><path d="M 0.0 0.0 C 8.8 4.8 17.8 9.1 27.1 12.9 " fill="none" stroke="#393E50" stroke-width="1.00" stroke-miterlimit="10.00" stroke-linecap="round" stroke-linejoin="round" transform="matrix(0.36, 0.00, 0.00, 0.36, 1860.8, 0.8)"></path><path d="M 0.0 0.0 C 8.8 4.9 17.6 9.8 26.4 14.8 " fill="none" stroke="#393E50" stroke-width="1.00" stroke-miterlimit="10.00" stroke-linecap="round" stroke-linejoin="round" transform="matrix(0.36, 0.00, 0.00, 0.36, 1861.6, -1.3)"></path><path d="M 0.0 0.0 C 6.5 3.9 13.2 7.6 20.0 11.0 " fill="none" stroke="#393E50" stroke-width="1.00" stroke-miterlimit="10.00" stroke-linecap="round" stroke-linejoin="round" transform="matrix(0.36, 0.00, 0.00, 0.36, 1864.9, -2.5)"></path><path d="M 0.0 0.0 C 2.7 1.4 5.4 2.8 8.2 4.1 " fill="none" stroke="#393E50" stroke-width="3.00" stroke-miterlimit="10.00" stroke-linecap="round" stroke-linejoin="round" transform="matrix(0.36, 0.00, 0.00, 0.36, 1870.0, -2.5)"></path><path d="M 0.0 0.0 L 58.7 0.0 " fill="none" stroke="#393E50" stroke-width="3.00" stroke-miterlimit="10.00" stroke-linecap="round" stroke-linejoin="round" transform="matrix(0.36, 0.00, 0.00, 0.36, 1846.0, 12.8)"></path><path d="M 0.0 0.0 L 3.0 0.0 " fill="none" stroke="#393E50" stroke-width="3.00" stroke-miterlimit="10.00" stroke-linecap="round" stroke-linejoin="round" transform="matrix(0.36, 0.00, 0.00, 0.36, 1788.4, 26.4)"></path><path d="M 0.0 0.0 L 3.0 0.0 " fill="none" stroke="#393E50" stroke-width="3.00" stroke-miterlimit="10.00" stroke-linecap="round" stroke-linejoin="round" transform="matrix(0.36, 0.00, 0.00, 0.36, 1792.4, 26.4)"></path></g></g></g></g><g><clipPath id="clip-2596"><path d="M 1681.9 5.9 L 1779.9 5.9 L 1779.9 38.3 L 1681.9 38.3 Z M 1681.9 5.9 "></path></clipPath><g clip-path="url(#clip-2596)"><path d="M 1682.9 37.3 L 1778.9 37.3 L 1778.9 6.9 L 1682.9 6.9 Z M 1682.9 37.3 " fill="#FFDA7B"></path></g></g><g><clipPath id="clip-2597"><path d="M 1693.0 10.4 L 1772.0 10.4 L 1772.0 29.0 L 1693.0 29.0 Z M 1693.0 10.4 "></path></clipPath><g clip-path="url(#clip-2597)"><text xml:space="preserve" font-family="Helvetica" font-size="44.2" fill="#393E50" transform="matrix(0.35, 0.00, -0.00, -0.36, 1693.4, 15.6)">c</text><text xml:space="preserve" font-family="Helvetica" font-size="44.2" fill="#393E50" transform="matrix(0.35, 0.00, -0.00, -0.36, 1701.1, 15.6)">i</text><text xml:space="preserve" font-family="Helvetica" font-size="44.2" fill="#393E50" transform="matrix(0.35, 0.00, -0.00, -0.36, 1704.5, 15.6)">m</text><text xml:space="preserve" font-family="Helvetica" font-size="44.2" fill="#393E50" transform="matrix(0.35, 0.00, -0.00, -0.36, 1717.3, 15.6)">o</text><text xml:space="preserve" font-family="Helvetica" font-size="44.2" fill="#393E50" transform="matrix(0.35, 0.00, -0.00, -0.36, 1725.9, 15.6)">n</text><text xml:space="preserve" font-family="Helvetica" font-size="44.2" fill="#393E50" transform="matrix(0.35, 0.00, -0.00, -0.36, 1734.5, 15.6)">.</text><text xml:space="preserve" font-family="Helvetica" font-size="44.2" fill="#393E50" transform="matrix(0.35, 0.00, -0.00, -0.36, 1738.8, 15.6)">i</text><text xml:space="preserve" font-family="Helvetica" font-size="44.2" fill="#393E50" transform="matrix(0.35, 0.00, -0.00, -0.36, 1742.2, 15.6)">o</text></g></g><g><clipPath id="clip-2598"><path d="M 1693.0 29.0 L 1772.0 29.0 L 1772.0 10.0 L 1693.0 10.0 Z M 1693.0 29.0 "></path></clipPath><g clip-path="url(#clip-2598)"><g><clipPath id="clip-2599"><path d="M 1693.0 10.4 L 1772.0 10.4 L 1772.0 29.0 L 1693.0 29.0 Z M 1693.0 10.4 "></path></clipPath><g clip-path="url(#clip-2599)"><path d="M 0.0 0.0 L -221.4 0.0 " fill="none" stroke="#FED97B" stroke-width="5.00" stroke-miterlimit="0.00" stroke-linecap="round" stroke-linejoin="round" transform="matrix(0.35, 0.00, 0.00, 0.36, 1771.1, 10.9)"></path></g></g></g></g><path d="M 1058.6 600.9 L 1431.4 600.9 L 1431.4 431.3 L 1058.6 431.3 Z M 1058.6 600.9 " fill="#FEDF73"></path><text xml:space="preserve" font-family="Roboto" font-weight="300" font-size="100.0" fill="#000000" transform="matrix(1.00, 0.00, -0.00, -1.00, 1111.0, 482.0)">B</text><text xml:space="preserve" font-family="Roboto" font-weight="300" font-size="100.0" fill="#000000" transform="matrix(1.00, 0.00, -0.00, -1.00, 1172.3, 482.0)">E</text><text xml:space="preserve" font-family="Roboto" font-weight="300" font-size="100.0" fill="#000000" transform="matrix(1.00, 0.00, -0.00, -1.00, 1229.1, 482.0)">A</text><text xml:space="preserve" font-family="Roboto" font-weight="300" font-size="100.0" fill="#000000" transform="matrix(1.00, 0.00, -0.00, -1.00, 1291.6, 482.0)">M</text><text xml:space="preserve" font-family="Roboto" font-weight="300" font-size="60.0" fill="#000000" transform="matrix(1.00, 0.00, -0.00, -1.00, 492.0, 655.0)">А</text><text xml:space="preserve" font-family="Roboto" font-weight="300" font-size="60.0" fill="#000000" transform="matrix(1.00, 0.00, -0.00, -1.00, 529.4, 655.0)"> </text><text xml:space="preserve" font-family="Roboto" font-weight="300" font-size="60.0" fill="#000000" transform="matrix(1.00, 0.00, -0.00, -1.00, 544.0, 655.0)">з</text><text xml:space="preserve" font-family="Roboto" font-weight="300" font-size="60.0" fill="#000000" transform="matrix(1.00, 0.00, -0.00, -1.00, 574.4, 655.0)">а</text><text xml:space="preserve" font-family="Roboto" font-weight="300" font-size="60.0" fill="#000000" transform="matrix(1.00, 0.00, -0.00, -1.00, 606.6, 655.0)">с</text><text xml:space="preserve" font-family="Roboto" font-weight="300" font-size="60.0" fill="#000000" transform="matrix(1.00, 0.00, -0.00, -1.00, 637.5, 655.0)">л</text><text xml:space="preserve" font-family="Roboto" font-weight="300" font-size="60.0" fill="#000000" transform="matrix(1.00, 0.00, -0.00, -1.00, 671.2, 655.0)">у</text><text xml:space="preserve" font-family="Roboto" font-weight="300" font-size="60.0" fill="#000000" transform="matrix(1.00, 0.00, -0.00, -1.00, 699.8, 655.0)">г</text><text xml:space="preserve" font-family="Roboto" font-weight="300" font-size="60.0" fill="#000000" transform="matrix(1.00, 0.00, -0.00, -1.00, 725.1, 655.0)">а</text><text xml:space="preserve" font-family="Roboto" font-weight="300" font-size="60.0" fill="#000000" transform="matrix(1.00, 0.00, -0.00, -1.00, 757.2, 655.0)"> </text><text xml:space="preserve" font-family="Roboto" font-weight="500" font-size="60.0" fill="#000000" transform="matrix(1.00, 0.00, -0.00, -1.00, 771.8, 655.0)">э</text><text xml:space="preserve" font-family="Roboto" font-weight="500" font-size="60.0" fill="#000000" transform="matrix(1.00, 0.00, -0.00, -1.00, 803.6, 655.0)">р</text><text xml:space="preserve" font-family="Roboto" font-weight="500" font-size="60.0" fill="#000000" transform="matrix(1.00, 0.00, -0.00, -1.00, 836.9, 655.0)">л</text><text xml:space="preserve" font-family="Roboto" font-weight="500" font-size="60.0" fill="#000000" transform="matrix(1.00, 0.00, -0.00, -1.00, 871.5, 655.0)">а</text><text xml:space="preserve" font-family="Roboto" font-weight="500" font-size="60.0" fill="#000000" transform="matrix(1.00, 0.00, -0.00, -1.00, 903.9, 655.0)">н</text><text xml:space="preserve" font-family="Roboto" font-weight="500" font-size="60.0" fill="#000000" transform="matrix(1.00, 0.00, -0.00, -1.00, 938.3, 655.0)">г</text><text xml:space="preserve" font-family="Roboto" font-weight="500" font-size="60.0" fill="#000000" transform="matrix(1.00, 0.00, -0.00, -1.00, 963.5, 655.0)">а</text><text xml:space="preserve" font-family="Roboto" font-weight="300" font-size="60.0" fill="#000000" transform="matrix(1.00, 0.00, -0.00, -1.00, 995.9, 655.0)"> </text><text xml:space="preserve" font-family="Roboto" font-weight="300" font-size="60.0" fill="#000000" transform="matrix(1.00, 0.00, -0.00, -1.00, 1010.5, 655.0)">–</text><text xml:space="preserve" font-family="Roboto" font-weight="300" font-size="60.0" fill="#000000" transform="matrix(1.00, 0.00, -0.00, -1.00, 1049.6, 655.0)"> </text><text xml:space="preserve" font-family="Roboto" font-weight="300" font-size="60.0" fill="#000000" transform="matrix(1.00, 0.00, -0.00, -1.00, 1064.2, 655.0)">э</text><text xml:space="preserve" font-family="Roboto" font-weight="300" font-size="60.0" fill="#000000" transform="matrix(1.00, 0.00, -0.00, -1.00, 1093.9, 655.0)">т</text><text xml:space="preserve" font-family="Roboto" font-weight="300" font-size="60.0" fill="#000000" transform="matrix(1.00, 0.00, -0.00, -1.00, 1121.2, 655.0)">о</text><text xml:space="preserve" font-family="Roboto" font-weight="300" font-size="60.0" fill="#000000" transform="matrix(1.00, 0.00, -0.00, -1.00, 1154.8, 655.0)"> </text><text xml:space="preserve" font-family="Roboto" font-weight="300" font-size="60.0" fill="#000000" transform="matrix(1.00, 0.00, -0.00, -1.00, 1169.4, 655.0)">е</text><text xml:space="preserve" font-family="Roboto" font-weight="300" font-size="60.0" fill="#000000" transform="matrix(1.00, 0.00, -0.00, -1.00, 1200.3, 655.0)">г</text><text xml:space="preserve" font-family="Roboto" font-weight="300" font-size="60.0" fill="#000000" transform="matrix(1.00, 0.00, -0.00, -1.00, 1225.0, 655.0)">о</text></g></svg>