<?xml version="1.0" encoding="UTF-8" standalone="no"?><svg xmlns="http://www.w3.org/2000/svg" xmlns:xlink="http://www.w3.org/1999/xlink" clip-rule="evenodd" stroke-miterlimit="4.00" viewBox="0 0 1920 1080"><desc>SVG generated by Keynote</desc><defs></defs><g transform="matrix(1.00, 0.00, -0.00, -1.00, 0.0, 1080.0)"><path d="M 0.0 1080.0 L 1920.0 1080.0 L 1920.0 0.0 L 0.0 0.0 Z M 0.0 1080.0 " fill="#FAFAFA"></path><path d="M 918.8 1022.7 L 1440.4 1022.7 L 1440.4 843.3 L 918.8 843.3 Z M 918.8 1022.7 " fill="#FFDA7B"></path><path d="M 1268.3 236.5 L 1549.3 236.5 L 1549.3 113.6 L 1268.3 113.6 Z M 1268.3 236.5 " fill="#FFDA7B"></path><path d="M 314.3 232.7 L 824.7 232.7 L 824.7 57.3 L 314.3 57.3 Z M 314.3 232.7 " fill="#FFDA7B"></path><image xlink:href="../../22A60371-49E3-486A-9886-D1E8D5A35E52/assets/25DAC32C9013AB3143612E7286770C12.png" width="516.00" height="76.00" transform="matrix(2.41, 0.00, -0.00, -2.41, 580.0, 627.0)"></image><g><clipPath id="clip-1796"><path d="M 131.0 843.2 L 541.8 843.2 L 541.8 960.5 L 131.0 960.5 Z M 131.0 843.2 "></path></clipPath><g clip-path="url(#clip-1796)"><path d="M 132.0 959.5 L 540.8 959.5 L 540.8 844.2 L 132.0 844.2 Z M 132.0 959.5 " fill="#FFDA7B"></path></g></g><g><clipPath id="clip-1797"><path d="M 197.0 840.4 L 475.8 840.4 L 475.8 963.4 L 197.0 963.4 Z M 197.0 840.4 "></path></clipPath><g clip-path="url(#clip-1797)"><text xml:space="preserve" font-family="Roboto-Light" font-size="70.0" fill="#383E51" transform="matrix(1.00, 0.00, -0.00, -1.00, 217.0, 878.0)">П</text><text xml:space="preserve" font-family="Roboto-Light" font-size="70.0" fill="#383E51" transform="matrix(1.00, 0.00, -0.00, -1.00, 266.5, 878.0)">а</text><text xml:space="preserve" font-family="Roboto-Light" font-size="70.0" fill="#383E51" transform="matrix(1.00, 0.00, -0.00, -1.00, 304.0, 878.0)">р</text><text xml:space="preserve" font-family="Roboto-Light" font-size="70.0" fill="#383E51" transform="matrix(1.00, 0.00, -0.00, -1.00, 342.8, 878.0)">с</text><text xml:space="preserve" font-family="Roboto-Light" font-size="70.0" fill="#383E51" transform="matrix(1.00, 0.00, -0.00, -1.00, 378.9, 878.0)">е</text><text xml:space="preserve" font-family="Roboto-Light" font-size="70.0" fill="#383E51" transform="matrix(1.00, 0.00, -0.00, -1.00, 415.1, 878.0)">р</text></g></g><path d="M 0.0 0.0 L 312.4 0.0 L 312.4 115.3 L 0.0 115.3 Z M 0.0 0.0 " fill="none" stroke="#000000" stroke-width="5.00" transform="matrix(1.00, 0.00, 0.00, -1.00, 1464.8, 594.4)"></path><path d="M 0.0 0.0 L 312.4 0.0 L 312.4 115.3 L 0.0 115.3 Z M 0.0 0.0 " fill="none" stroke="#000000" stroke-width="5.00" transform="matrix(1.00, 0.00, 0.00, -1.00, 1045.8, 594.4)"></path><path d="M 0.0 0.0 L 312.4 0.0 L 312.4 115.3 L 0.0 115.3 Z M 0.0 0.0 " fill="none" stroke="#000000" stroke-width="5.00" transform="matrix(1.00, 0.00, 0.00, -1.00, 611.5, 594.4)"></path><path d="M 0.0 0.0 L 231.8 0.0 L 241.8 0.0 " fill="none" stroke="#000000" stroke-width="20.00" transform="matrix(0.71, 0.71, 0.71, -0.71, 493.7, 239.9)"></path><path d="M 683.9 377.5 L 710.2 456.5 L 631.2 430.1 Z M 683.9 377.5 " fill="#000000"></path><text xml:space="preserve" font-family="Roboto-Light" font-size="60.0" fill="#000000" transform="matrix(1.00, 0.00, -0.00, -1.00, 344.0, 152.0)">Х</text><text xml:space="preserve" font-family="Roboto-Light" font-size="60.0" fill="#000000" transform="matrix(1.00, 0.00, -0.00, -1.00, 380.7, 152.0)">а</text><text xml:space="preserve" font-family="Roboto-Light" font-size="60.0" fill="#000000" transform="matrix(1.00, 0.00, -0.00, -1.00, 412.8, 152.0)">р</text><text xml:space="preserve" font-family="Roboto-Light" font-size="60.0" fill="#000000" transform="matrix(1.00, 0.00, -0.00, -1.00, 446.1, 152.0)">а</text><text xml:space="preserve" font-family="Roboto-Light" font-size="60.0" fill="#000000" transform="matrix(1.00, 0.00, -0.00, -1.00, 478.2, 152.0)">к</text><text xml:space="preserve" font-family="Roboto-Light" font-size="60.0" fill="#000000" transform="matrix(1.00, 0.00, -0.00, -1.00, 509.3, 152.0)">т</text><text xml:space="preserve" font-family="Roboto-Light" font-size="60.0" fill="#000000" transform="matrix(1.00, 0.00, -0.00, -1.00, 535.4, 152.0)">е</text><text xml:space="preserve" font-family="Roboto-Light" font-size="60.0" fill="#000000" transform="matrix(1.00, 0.00, -0.00, -1.00, 566.4, 152.0)">р</text><text xml:space="preserve" font-family="Roboto-Light" font-size="60.0" fill="#000000" transform="matrix(1.00, 0.00, -0.00, -1.00, 599.7, 152.0)">и</text><text xml:space="preserve" font-family="Roboto-Light" font-size="60.0" fill="#000000" transform="matrix(1.00, 0.00, -0.00, -1.00, 633.4, 152.0)">с</text><text xml:space="preserve" font-family="Roboto-Light" font-size="60.0" fill="#000000" transform="matrix(1.00, 0.00, -0.00, -1.00, 664.3, 152.0)">т</text><text xml:space="preserve" font-family="Roboto-Light" font-size="60.0" fill="#000000" transform="matrix(1.00, 0.00, -0.00, -1.00, 692.8, 152.0)">и</text><text xml:space="preserve" font-family="Roboto-Light" font-size="60.0" fill="#000000" transform="matrix(1.00, 0.00, -0.00, -1.00, 726.5, 152.0)">к</text><text xml:space="preserve" font-family="Roboto-Light" font-size="60.0" fill="#000000" transform="matrix(1.00, 0.00, -0.00, -1.00, 757.6, 152.0)">а</text><text xml:space="preserve" font-family="Roboto-Light" font-size="60.0" fill="#000000" transform="matrix(1.00, 0.00, -0.00, -1.00, 789.8, 152.0)"> </text><text xml:space="preserve" font-family="Roboto-Light" font-size="60.0" fill="#000000" transform="matrix(1.00, 0.00, -0.00, -1.00, 375.0, 81.0)">н</text><text xml:space="preserve" font-family="Roboto-Light" font-size="60.0" fill="#000000" transform="matrix(1.00, 0.00, -0.00, -1.00, 408.7, 81.0)">а</text><text xml:space="preserve" font-family="Roboto-Light" font-size="60.0" fill="#000000" transform="matrix(1.00, 0.00, -0.00, -1.00, 440.8, 81.0)">п</text><text xml:space="preserve" font-family="Roboto-Light" font-size="60.0" fill="#000000" transform="matrix(1.00, 0.00, -0.00, -1.00, 474.6, 81.0)">а</text><text xml:space="preserve" font-family="Roboto-Light" font-size="60.0" fill="#000000" transform="matrix(1.00, 0.00, -0.00, -1.00, 506.7, 81.0)">д</text><text xml:space="preserve" font-family="Roboto-Light" font-size="60.0" fill="#000000" transform="matrix(1.00, 0.00, -0.00, -1.00, 541.1, 81.0)">а</text><text xml:space="preserve" font-family="Roboto-Light" font-size="60.0" fill="#000000" transform="matrix(1.00, 0.00, -0.00, -1.00, 573.2, 81.0)">ю</text><text xml:space="preserve" font-family="Roboto-Light" font-size="60.0" fill="#000000" transform="matrix(1.00, 0.00, -0.00, -1.00, 622.0, 81.0)">щ</text><text xml:space="preserve" font-family="Roboto-Light" font-size="60.0" fill="#000000" transform="matrix(1.00, 0.00, -0.00, -1.00, 670.5, 81.0)">е</text><text xml:space="preserve" font-family="Roboto-Light" font-size="60.0" fill="#000000" transform="matrix(1.00, 0.00, -0.00, -1.00, 701.4, 81.0)">г</text><text xml:space="preserve" font-family="Roboto-Light" font-size="60.0" fill="#000000" transform="matrix(1.00, 0.00, -0.00, -1.00, 726.2, 81.0)">о</text><path d="M 0.0 0.0 L 146.9 0.0 L 156.9 0.0 " fill="none" stroke="#000000" stroke-width="20.00" transform="matrix(-0.28, -0.96, -0.96, 0.28, 1176.9, 832.7)"></path><path d="M 1100.5 701.9 L 1115.6 620.1 L 1172.0 681.3 Z M 1100.5 701.9 " fill="#000000"></path><text xml:space="preserve" font-family="Roboto-Light" font-size="60.0" fill="#000000" transform="matrix(1.00, 0.00, -0.00, -1.00, 1047.0, 949.0)">л</text><text xml:space="preserve" font-family="Roboto-Light" font-size="60.0" fill="#000000" transform="matrix(1.00, 0.00, -0.00, -1.00, 1080.8, 949.0)">о</text><text xml:space="preserve" font-family="Roboto-Light" font-size="60.0" fill="#000000" transform="matrix(1.00, 0.00, -0.00, -1.00, 1114.4, 949.0)">в</text><text xml:space="preserve" font-family="Roboto-Light" font-size="60.0" fill="#000000" transform="matrix(1.00, 0.00, -0.00, -1.00, 1147.9, 949.0)">к</text><text xml:space="preserve" font-family="Roboto-Light" font-size="60.0" fill="#000000" transform="matrix(1.00, 0.00, -0.00, -1.00, 1178.4, 949.0)">о</text><text xml:space="preserve" font-family="Roboto-Light" font-size="60.0" fill="#000000" transform="matrix(1.00, 0.00, -0.00, -1.00, 1212.0, 949.0)">с</text><text xml:space="preserve" font-family="Roboto-Light" font-size="60.0" fill="#000000" transform="matrix(1.00, 0.00, -0.00, -1.00, 1242.9, 949.0)">т</text><text xml:space="preserve" font-family="Roboto-Light" font-size="60.0" fill="#000000" transform="matrix(1.00, 0.00, -0.00, -1.00, 1271.4, 949.0)">ь</text><text xml:space="preserve" font-family="Roboto-Light" font-size="60.0" fill="#000000" transform="matrix(1.00, 0.00, -0.00, -1.00, 1303.6, 949.0)"> </text><text xml:space="preserve" font-family="Roboto-Light" font-size="60.0" fill="#000000" transform="matrix(1.00, 0.00, -0.00, -1.00, 938.0, 878.0)">з</text><text xml:space="preserve" font-family="Roboto-Light" font-size="60.0" fill="#000000" transform="matrix(1.00, 0.00, -0.00, -1.00, 968.4, 878.0)">а</text><text xml:space="preserve" font-family="Roboto-Light" font-size="60.0" fill="#000000" transform="matrix(1.00, 0.00, -0.00, -1.00, 1000.5, 878.0)">щ</text><text xml:space="preserve" font-family="Roboto-Light" font-size="60.0" fill="#000000" transform="matrix(1.00, 0.00, -0.00, -1.00, 1048.7, 878.0)">и</text><text xml:space="preserve" font-family="Roboto-Light" font-size="60.0" fill="#000000" transform="matrix(1.00, 0.00, -0.00, -1.00, 1082.4, 878.0)">щ</text><text xml:space="preserve" font-family="Roboto-Light" font-size="60.0" fill="#000000" transform="matrix(1.00, 0.00, -0.00, -1.00, 1130.5, 878.0)">а</text><text xml:space="preserve" font-family="Roboto-Light" font-size="60.0" fill="#000000" transform="matrix(1.00, 0.00, -0.00, -1.00, 1162.6, 878.0)">ю</text><text xml:space="preserve" font-family="Roboto-Light" font-size="60.0" fill="#000000" transform="matrix(1.00, 0.00, -0.00, -1.00, 1211.4, 878.0)">щ</text><text xml:space="preserve" font-family="Roboto-Light" font-size="60.0" fill="#000000" transform="matrix(1.00, 0.00, -0.00, -1.00, 1259.9, 878.0)">е</text><text xml:space="preserve" font-family="Roboto-Light" font-size="60.0" fill="#000000" transform="matrix(1.00, 0.00, -0.00, -1.00, 1290.9, 878.0)">г</text><text xml:space="preserve" font-family="Roboto-Light" font-size="60.0" fill="#000000" transform="matrix(1.00, 0.00, -0.00, -1.00, 1315.6, 878.0)">о</text><text xml:space="preserve" font-family="Roboto-Light" font-size="60.0" fill="#000000" transform="matrix(1.00, 0.00, -0.00, -1.00, 1349.2, 878.0)">с</text><text xml:space="preserve" font-family="Roboto-Light" font-size="60.0" fill="#000000" transform="matrix(1.00, 0.00, -0.00, -1.00, 1380.1, 878.0)">я</text><path d="M 0.0 0.0 L 156.4 0.0 L 166.4 0.0 " fill="none" stroke="#000000" stroke-width="20.00" transform="matrix(0.41, -0.91, -0.91, -0.41, 1412.9, 831.3)"></path><path d="M 1442.5 673.3 L 1506.7 620.4 L 1510.5 703.5 Z M 1442.5 673.3 " fill="#000000"></path><path d="M 0.0 0.0 L 125.4 0.0 L 135.4 0.0 " fill="none" stroke="#000000" stroke-width="20.00" transform="matrix(0.00, 1.00, 1.00, 0.00, 1408.8, 262.4)"></path><path d="M 1446.0 387.8 L 1408.8 462.2 L 1371.6 387.8 Z M 1446.0 387.8 " fill="#000000"></path><text xml:space="preserve" font-family="Roboto-Light" font-size="60.0" fill="#000000" transform="matrix(1.00, 0.00, -0.00, -1.00, 1343.0, 154.0)">Е</text><text xml:space="preserve" font-family="Roboto-Light" font-size="60.0" fill="#000000" transform="matrix(1.00, 0.00, -0.00, -1.00, 1376.6, 154.0)">с</text><text xml:space="preserve" font-family="Roboto-Light" font-size="60.0" fill="#000000" transform="matrix(1.00, 0.00, -0.00, -1.00, 1407.5, 154.0)">л</text><text xml:space="preserve" font-family="Roboto-Light" font-size="60.0" fill="#000000" transform="matrix(1.00, 0.00, -0.00, -1.00, 1441.3, 154.0)">и</text></g></svg>