<?xml version="1.0" encoding="UTF-8" standalone="no"?><svg xmlns="http://www.w3.org/2000/svg" xmlns:xlink="http://www.w3.org/1999/xlink" clip-rule="evenodd" stroke-miterlimit="4.00" viewBox="0 0 1920 1080"><desc>SVG generated by Keynote</desc><defs></defs><g transform="matrix(1.00, 0.00, -0.00, -1.00, 0.0, 1080.0)"><path d="M 0.0 1080.0 L 1920.0 1080.0 L 1920.0 0.0 L 0.0 0.0 Z M 0.0 1080.0 " fill="#FECF60"></path><path d="M 1004.1 610.9 L 1630.9 610.9 L 1630.9 455.2 L 1004.1 455.2 Z M 1004.1 610.9 " fill="#FEDF73"></path><g><clipPath id="clip-124"><path d="M 273.0 166.0 L 885.0 166.0 L 885.0 838.0 L 273.0 838.0 Z M 273.0 166.0 "></path></clipPath><g clip-path="url(#clip-124)"><path d="M 0.0 0.0 L 30.7 0.0 L 30.7 5.9 L 0.0 5.9 L 0.0 0.0 Z M 0.0 0.0 " fill="none" stroke="#575E61" stroke-width="3.00" stroke-miterlimit="0.00" transform="matrix(2.27, 0.00, 0.00, -2.27, 652.6, 350.2)"></path><path d="M 0.0 0.0 L 30.7 0.0 L 30.7 5.9 L 0.0 5.9 L 0.0 0.0 Z M 0.0 0.0 " fill="none" stroke="#575E61" stroke-width="3.00" stroke-miterlimit="0.00" transform="matrix(2.27, 0.00, 0.00, -2.27, 671.0, 182.4)"></path><path d="M 36.5 30.6 L 36.5 0.0 L 0.0 0.0 L 0.0 36.5 L 11.0 36.5 " fill="none" stroke="#575E61" stroke-width="3.00" stroke-miterlimit="0.00" transform="matrix(2.27, 0.00, 0.00, -2.27, 645.9, 251.9)"></path><path d="M 0.0 0.0 L 30.7 0.0 L 30.7 5.9 L 0.0 5.9 L 0.0 0.0 Z M 0.0 0.0 " fill="none" stroke="#575E61" stroke-width="3.00" stroke-miterlimit="0.00" transform="matrix(2.27, 0.00, 0.00, -2.27, 652.5, 265.2)"></path><path d="M 0.0 31.5 L 0.0 0.0 " fill="none" stroke="#575E61" stroke-width="3.00" stroke-miterlimit="0.00" transform="matrix(2.27, 0.00, 0.00, -2.27, 716.2, 336.9)"></path><path d="M 0.0 31.5 L 0.0 0.0 " fill="none" stroke="#575E61" stroke-width="3.00" stroke-miterlimit="0.00" transform="matrix(2.27, 0.00, 0.00, -2.27, 658.6, 336.9)"></path><path d="M 25.5 0.0 L 0.0 0.0 " fill="none" stroke="#575E61" stroke-width="1.00" stroke-miterlimit="0.00" transform="matrix(2.27, 0.00, 0.00, -2.27, 658.4, 279.6)"></path><path d="M 25.5 0.0 L 0.0 0.0 " fill="none" stroke="#575E61" stroke-width="1.00" stroke-miterlimit="0.00" transform="matrix(2.27, 0.00, 0.00, -2.27, 658.4, 294.0)"></path><path d="M 25.4 0.0 L 0.0 0.0 " fill="none" stroke="#575E61" stroke-width="3.00" stroke-miterlimit="0.00" transform="matrix(2.27, 0.00, 0.00, -2.27, 658.6, 308.4)"></path><path d="M 25.5 0.0 L 0.0 0.0 " fill="none" stroke="#575E61" stroke-width="1.00" stroke-miterlimit="0.00" transform="matrix(2.27, 0.00, 0.00, -2.27, 658.4, 322.8)"></path><path d="M 5.2 5.2 L 0.0 0.0 " fill="none" stroke="#575E61" stroke-width="3.00" stroke-miterlimit="0.00" transform="matrix(2.27, 0.00, 0.00, -2.27, 728.7, 194.3)"></path><path d="M 0.0 0.0 L 30.7 0.0 L 30.7 5.9 L 0.0 5.9 L 0.0 0.0 Z M 0.0 0.0 " fill="none" stroke="#575E61" stroke-width="3.00" stroke-miterlimit="0.00" transform="matrix(2.27, 0.00, 0.00, -2.27, 485.4, 350.2)"></path><path d="M 0.0 0.0 L 30.7 0.0 L 30.7 5.9 L 0.0 5.9 L 0.0 0.0 Z M 0.0 0.0 " fill="none" stroke="#575E61" stroke-width="3.00" stroke-miterlimit="0.00" transform="matrix(2.27, 0.00, 0.00, -2.27, 467.1, 182.4)"></path><path d="M 0.0 30.6 L 0.0 0.0 L 36.5 0.0 L 36.5 36.5 L 25.5 36.5 " fill="none" stroke="#575E61" stroke-width="3.00" stroke-miterlimit="0.00" transform="matrix(2.27, 0.00, 0.00, -2.27, 479.0, 251.9)"></path><path d="M 0.0 0.0 L 30.7 0.0 L 30.7 5.9 L 0.0 5.9 L 0.0 0.0 Z M 0.0 0.0 " fill="none" stroke="#575E61" stroke-width="3.00" stroke-miterlimit="0.00" transform="matrix(2.27, 0.00, 0.00, -2.27, 485.5, 265.2)"></path><path d="M 0.0 31.5 L 0.0 0.0 " fill="none" stroke="#575E61" stroke-width="3.00" stroke-miterlimit="0.00" transform="matrix(2.27, 0.00, 0.00, -2.27, 491.4, 336.9)"></path><path d="M 0.0 31.5 L 0.0 0.0 " fill="none" stroke="#575E61" stroke-width="3.00" stroke-miterlimit="0.00" transform="matrix(2.27, 0.00, 0.00, -2.27, 549.0, 336.9)"></path><path d="M 0.0 0.0 L 25.5 0.0 " fill="none" stroke="#575E61" stroke-width="1.00" stroke-miterlimit="0.00" transform="matrix(2.27, 0.00, 0.00, -2.27, 491.4, 279.6)"></path><path d="M 0.0 0.0 L 25.5 0.0 " fill="none" stroke="#575E61" stroke-width="1.00" stroke-miterlimit="0.00" transform="matrix(2.27, 0.00, 0.00, -2.27, 491.4, 294.0)"></path><path d="M 0.0 0.0 L 25.4 0.0 " fill="none" stroke="#575E61" stroke-width="3.00" stroke-miterlimit="0.00" transform="matrix(2.27, 0.00, 0.00, -2.27, 491.4, 308.4)"></path><path d="M 0.0 0.0 L 25.5 0.0 " fill="none" stroke="#575E61" stroke-width="1.00" stroke-miterlimit="0.00" transform="matrix(2.27, 0.00, 0.00, -2.27, 491.4, 322.8)"></path><path d="M 0.0 5.2 L 5.2 0.0 " fill="none" stroke="#575E61" stroke-width="3.00" stroke-miterlimit="0.00" transform="matrix(2.27, 0.00, 0.00, -2.27, 467.1, 194.3)"></path><path d="M 120.6 0.0 L 120.6 70.8 L 0.0 70.8 L 0.0 57.9 " fill="none" stroke="#575E61" stroke-width="3.00" stroke-miterlimit="0.00" transform="matrix(2.27, 0.00, 0.00, -2.27, 467.1, 510.9)"></path><path d="M 1.0 63.7 L 1.0 0.0 " fill="none" stroke="#575E61" stroke-width="3.00" stroke-miterlimit="0.00" transform="matrix(2.27, 0.00, 0.00, -2.27, 464.8, 510.9)"></path><path d="M 35.7 71.4 C 55.4 71.4 71.4 55.4 71.4 35.7 C 71.4 16.0 55.4 0.0 35.7 0.0 C 16.0 0.0 0.0 16.0 0.0 35.7 C 0.0 55.4 16.0 71.4 35.7 71.4 Z M 35.7 71.4 " fill="none" stroke="#575E61" stroke-width="3.00" stroke-miterlimit="0.00" transform="matrix(2.27, 0.00, 0.00, -2.27, 613.0, 834.6)"></path><path d="M 29.9 59.7 C 13.4 59.7 0.0 46.3 0.0 29.9 C 0.0 13.4 13.4 0.0 29.9 0.0 C 46.3 0.0 59.7 13.4 59.7 29.9 C 59.7 46.3 46.3 59.7 29.9 59.7 L 29.9 59.7 Z M 29.9 59.7 " fill="none" stroke="#575E61" stroke-width="2.00" stroke-miterlimit="0.00" transform="matrix(2.27, 0.00, 0.00, -2.27, 626.2, 821.4)"></path><path d="M 24.6 49.3 C 11.1 49.3 0.0 38.2 0.0 24.6 C 0.0 11.1 11.1 0.0 24.6 0.0 C 38.2 0.0 49.3 11.1 49.3 24.6 C 49.3 38.2 38.2 49.3 24.6 49.3 L 24.6 49.3 Z M 24.6 49.3 " fill="none" stroke="#575E61" stroke-width="6.00" stroke-miterlimit="0.00" transform="matrix(2.27, 0.00, 0.00, -2.27, 638.1, 809.5)"></path><path d="M 20.6 41.3 C 9.3 41.3 0.0 32.0 0.0 20.6 C 0.0 9.3 9.3 0.0 20.6 0.0 C 32.0 0.0 41.3 9.3 41.3 20.6 C 41.3 32.0 32.0 41.3 20.6 41.3 L 20.6 41.3 Z M 20.6 41.3 " fill="none" stroke="#575E61" stroke-width="1.00" stroke-miterlimit="0.00" stroke-dasharray="2.0, 2.0" transform="matrix(2.27, 0.00, 0.00, -2.27, 647.2, 800.4)"></path><path d="M 25.0 50.0 C 38.8 50.0 50.0 38.8 50.0 25.0 C 50.0 11.2 38.8 0.0 25.0 0.0 C 11.2 0.0 0.0 11.2 0.0 25.0 C 0.0 38.8 11.2 50.0 25.0 50.0 Z M 25.0 50.0 " fill="none" stroke="#575E61" stroke-width="3.00" stroke-miterlimit="0.00" transform="matrix(2.27, 0.00, 0.00, -2.27, 432.8, 786.0)"></path><path d="M 19.2 38.3 C 8.6 38.3 0.0 29.7 0.0 19.2 C 0.0 8.6 8.6 0.0 19.2 0.0 C 29.7 0.0 38.3 8.6 38.3 19.2 C 38.3 29.7 29.7 38.3 19.2 38.3 L 19.2 38.3 Z M 19.2 38.3 " fill="none" stroke="#575E61" stroke-width="2.00" stroke-miterlimit="0.00" transform="matrix(2.27, 0.00, 0.00, -2.27, 446.0, 772.8)"></path><path d="M 13.9 27.9 C 6.2 27.9 0.0 21.6 0.0 13.9 C 0.0 6.2 6.2 0.0 13.9 0.0 C 21.6 0.0 27.9 6.2 27.9 13.9 C 27.9 21.6 21.6 27.9 13.9 27.9 L 13.9 27.9 Z M 13.9 27.9 " fill="none" stroke="#575E61" stroke-width="6.00" stroke-miterlimit="0.00" transform="matrix(2.27, 0.00, 0.00, -2.27, 457.8, 760.9)"></path><path d="M 9.9 19.9 C 4.5 19.9 0.0 15.4 0.0 9.9 C 0.0 4.5 4.5 0.0 9.9 0.0 C 15.4 0.0 19.9 4.5 19.9 9.9 C 19.9 15.4 15.4 19.9 9.9 19.9 L 9.9 19.9 Z M 9.9 19.9 " fill="none" stroke="#575E61" stroke-width="1.00" stroke-miterlimit="0.00" stroke-dasharray="1.9, 1.9" transform="matrix(2.27, 0.00, 0.00, -2.27, 466.9, 751.8)"></path><path d="M 150.9 0.0 L 150.9 51.2 L 0.0 51.2 L 0.0 10.7 " fill="none" stroke="#575E61" stroke-width="3.00" stroke-miterlimit="0.00" transform="matrix(2.27, 0.00, 0.00, -2.27, 432.8, 753.6)"></path><path d="M 35.7 0.0 L 20.6 18.6 L 0.0 18.6 " fill="none" stroke="#575E61" stroke-width="3.00" stroke-miterlimit="0.00" transform="matrix(2.27, 0.00, 0.00, -2.27, 693.9, 637.3)"></path><path d="M 50.0 18.6 L 15.1 18.6 L 0.0 0.0 " fill="none" stroke="#575E61" stroke-width="3.00" stroke-miterlimit="0.00" transform="matrix(2.27, 0.00, 0.00, -2.27, 432.8, 637.3)"></path><path d="M 0.0 5.4 L 38.9 0.0 " fill="none" stroke="#575E61" stroke-width="3.00" stroke-miterlimit="0.00" transform="matrix(2.27, 0.00, 0.00, -2.27, 529.7, 781.3)"></path><path d="M 9.1 0.0 L 0.0 0.0 L 0.0 30.4 L 9.1 30.4 " fill="none" stroke="#575E61" stroke-width="3.00" stroke-miterlimit="0.00" transform="matrix(2.27, 0.00, 0.00, -2.27, 412.1, 729.3)"></path><path d="M 0.0 30.4 L 9.1 30.4 L 9.1 0.0 L 0.0 0.0 " fill="none" stroke="#575E61" stroke-width="3.00" stroke-miterlimit="0.00" transform="matrix(2.27, 0.00, 0.00, -2.27, 774.8, 729.3)"></path><path d="M 0.0 0.0 L 27.5 0.0 " fill="none" stroke="#575E61" stroke-width="3.00" stroke-miterlimit="0.00" transform="matrix(2.27, 0.00, 0.00, -2.27, 795.5, 694.7)"></path><path d="M 5.2 10.5 C 8.1 10.5 10.5 8.1 10.5 5.2 C 10.5 2.3 8.1 0.0 5.2 0.0 C 2.3 0.0 0.0 2.3 0.0 5.2 C 0.0 8.1 2.3 10.5 5.2 10.5 Z M 5.2 10.5 " fill="none" stroke="#575E61" stroke-width="3.00" stroke-miterlimit="0.00" transform="matrix(2.27, 0.00, 0.00, -2.27, 857.9, 706.6)"></path><path d="M 27.5 0.0 L 0.0 0.0 " fill="none" stroke="#575E61" stroke-width="3.00" stroke-miterlimit="0.00" transform="matrix(2.27, 0.00, 0.00, -2.27, 349.7, 694.7)"></path><path d="M 5.2 10.5 C 8.1 10.5 10.5 8.1 10.5 5.2 C 10.5 2.3 8.1 0.0 5.2 0.0 C 2.3 0.0 0.0 2.3 0.0 5.2 C 0.0 8.1 2.3 10.5 5.2 10.5 Z M 5.2 10.5 " fill="none" stroke="#575E61" stroke-width="3.00" stroke-miterlimit="0.00" transform="matrix(2.27, 0.00, 0.00, -2.27, 325.9, 706.6)"></path><path d="M 11.7 0.0 L 0.0 0.0 " fill="none" stroke="#575E61" stroke-width="3.00" stroke-miterlimit="0.00" transform="matrix(2.27, 0.00, 0.00, -2.27, 651.9, 595.0)"></path><path d="M 5.8 0.0 L 0.0 0.0 " fill="none" stroke="#575E61" stroke-width="3.00" stroke-miterlimit="0.00" transform="matrix(2.27, 0.00, 0.00, -2.27, 622.2, 595.0)"></path><path d="M 0.0 3.2 L 34.5 0.0 " fill="none" stroke="#575E61" stroke-width="1.00" stroke-miterlimit="0.00" transform="matrix(2.27, 0.00, 0.00, -2.27, 536.2, 768.4)"></path><path d="M 0.0 0.0 L 145.5 6.7 " fill="none" stroke="#575E61" stroke-width="1.00" stroke-miterlimit="0.00" transform="matrix(2.27, 0.00, 0.00, -2.27, 432.8, 637.3)"></path><path d="M 0.0 0.0 L 164.8 0.0 " fill="none" stroke="#575E61" stroke-width="3.00" stroke-miterlimit="0.00" transform="matrix(2.27, 0.00, 0.00, -2.27, 417.0, 510.9)"></path><path d="M 0.0 37.0 C 6.4 24.4 13.8 12.0 22.1 0.0 " fill="none" stroke="#575E61" stroke-width="3.00" stroke-miterlimit="0.00" transform="matrix(2.27, 0.00, 0.00, -2.27, 417.0, 595.0)"></path><path d="M 22.1 37.0 C 15.7 24.4 8.3 12.0 0.0 0.0 " fill="none" stroke="#575E61" stroke-width="3.00" stroke-miterlimit="0.00" transform="matrix(2.27, 0.00, 0.00, -2.27, 740.5, 595.0)"></path><path d="M 0.0 26.6 C 2.9 17.6 6.3 8.8 10.0 0.0 " fill="none" stroke="#575E61" stroke-width="3.00" stroke-miterlimit="0.00" transform="matrix(-1.57, 1.63, -1.63, -1.58, 433.0, 503.5)"></path><path d="M 0.0 0.0 L 21.9 8.0 " fill="none" stroke="#575E61" stroke-width="1.00" stroke-miterlimit="0.00" transform="matrix(-1.57, 1.63, -1.63, -1.58, 462.3, 491.0)"></path><path d="M 0.0 0.0 L 22.3 7.6 " fill="none" stroke="#575E61" stroke-width="1.00" stroke-miterlimit="0.00" transform="matrix(-1.57, 1.63, -1.63, -1.58, 456.2, 476.1)"></path><path d="M 0.0 0.0 L 22.6 7.3 " fill="none" stroke="#575E61" stroke-width="1.00" stroke-miterlimit="0.00" transform="matrix(-1.57, 1.63, -1.63, -1.58, 449.8, 461.3)"></path><path d="M 0.0 0.0 L 22.9 7.0 " fill="none" stroke="#575E61" stroke-width="3.00" stroke-miterlimit="0.00" transform="matrix(-1.57, 1.63, -1.63, -1.58, 443.0, 446.7)"></path><path d="M 0.0 0.0 L 23.2 6.6 " fill="none" stroke="#575E61" stroke-width="1.00" stroke-miterlimit="0.00" transform="matrix(-1.57, 1.63, -1.63, -1.58, 435.9, 432.3)"></path><path d="M 0.0 0.0 L 13.3 3.6 " fill="none" stroke="#575E61" stroke-width="1.00" stroke-miterlimit="0.00" transform="matrix(-1.57, 1.63, -1.63, -1.58, 428.5, 418.0)"></path><path d="M 61.2 50.7 L 15.5 67.6 C 6.8 70.8 -1.9 62.9 0.4 53.9 C 5.1 35.6 11.5 17.5 19.6 0.0 " fill="none" stroke="#575E61" stroke-width="3.00" stroke-miterlimit="0.00" transform="matrix(-1.57, 1.63, -1.63, -1.58, 495.6, 465.1)"></path><path d="M 41.6 0.0 L 0.0 15.4 " fill="none" stroke="#575E61" stroke-width="3.00" stroke-miterlimit="0.00" transform="matrix(-1.57, 1.63, -1.63, -1.58, 434.7, 440.2)"></path><path d="M 8.8 23.9 L 0.0 0.0 " fill="none" stroke="#575E61" stroke-width="1.00" stroke-miterlimit="0.00" transform="matrix(-1.57, 1.63, -1.63, -1.58, 375.2, 495.1)"></path><path d="M 8.8 23.9 L 0.0 0.0 " fill="none" stroke="#575E61" stroke-width="1.00" stroke-miterlimit="0.00" transform="matrix(-1.57, 1.63, -1.63, -1.58, 381.0, 481.9)"></path><path d="M 8.8 23.9 L 0.0 0.0 " fill="none" stroke="#575E61" stroke-width="1.00" stroke-miterlimit="0.00" transform="matrix(-1.57, 1.63, -1.63, -1.58, 386.7, 468.7)"></path><path d="M 8.8 23.9 L 0.0 0.0 " fill="none" stroke="#575E61" stroke-width="1.00" stroke-miterlimit="0.00" transform="matrix(-1.57, 1.63, -1.63, -1.58, 392.5, 455.6)"></path><path d="M 8.8 23.9 L 0.0 0.0 " fill="none" stroke="#575E61" stroke-width="1.00" stroke-miterlimit="0.00" transform="matrix(-1.57, 1.63, -1.63, -1.58, 398.3, 442.4)"></path><path d="M 8.8 23.9 L 0.0 0.0 " fill="none" stroke="#575E61" stroke-width="1.00" stroke-miterlimit="0.00" transform="matrix(-1.57, 1.63, -1.63, -1.58, 404.1, 429.2)"></path><path d="M 8.8 23.9 L 0.0 0.0 " fill="none" stroke="#575E61" stroke-width="1.00" stroke-miterlimit="0.00" transform="matrix(-1.57, 1.63, -1.63, -1.58, 409.9, 416.1)"></path><path d="M 0.0 0.0 C 2.4 0.6 4.7 1.6 6.8 2.9 " fill="none" stroke="#575E61" stroke-width="1.00" stroke-miterlimit="0.00" transform="matrix(-1.57, 1.63, -1.63, -1.58, 425.4, 409.2)"></path><path d="M 0.0 0.0 C 5.8 5.3 9.3 12.8 9.7 20.6 " fill="none" stroke="#575E61" stroke-width="1.00" stroke-miterlimit="0.00" transform="matrix(-1.57, 1.63, -1.63, -1.58, 415.1, 394.2)"></path><path d="M 14.0 31.9 C 10.0 21.1 5.3 10.5 0.0 0.0 " fill="none" stroke="#575E61" stroke-width="3.00" stroke-miterlimit="0.00" transform="matrix(2.27, 0.00, 0.00, -2.27, 790.6, 510.9)"></path><path d="M 13.2 32.2 C 9.5 21.3 5.0 10.6 0.0 0.0 " fill="none" stroke="#575E61" stroke-width="3.00" stroke-miterlimit="0.00" transform="matrix(2.27, 0.00, 0.00, -2.27, 740.5, 495.7)"></path><path d="M 21.6 0.0 L 0.0 8.3 " fill="none" stroke="#575E61" stroke-width="3.00" stroke-miterlimit="0.00" transform="matrix(2.27, 0.00, 0.00, -2.27, 748.3, 497.6)"></path><path d="M 21.9 0.0 L 0.0 8.0 " fill="none" stroke="#575E61" stroke-width="1.00" stroke-miterlimit="0.00" transform="matrix(2.27, 0.00, 0.00, -2.27, 754.3, 483.1)"></path><path d="M 22.3 0.0 L 0.0 7.6 " fill="none" stroke="#575E61" stroke-width="1.00" stroke-miterlimit="0.00" transform="matrix(2.27, 0.00, 0.00, -2.27, 760.0, 468.3)"></path><path d="M 22.6 0.0 L 0.0 7.3 " fill="none" stroke="#575E61" stroke-width="1.00" stroke-miterlimit="0.00" transform="matrix(2.27, 0.00, 0.00, -2.27, 765.4, 453.4)"></path><path d="M 22.9 0.0 L 0.0 7.0 " fill="none" stroke="#575E61" stroke-width="3.00" stroke-miterlimit="0.00" transform="matrix(2.27, 0.00, 0.00, -2.27, 770.5, 438.4)"></path><path d="M 38.2 10.8 L 45.6 11.8 C 47.8 12.1 49.9 10.6 50.2 8.4 C 50.5 6.2 48.9 4.1 46.7 3.8 L 35.5 2.2 L 34.8 0.0 L 0.0 11.0 L 6.4 31.3 L 11.5 47.4 C 12.2 49.6 14.5 50.7 16.6 50.1 C 18.7 49.4 19.9 47.1 19.2 45.0 L 14.1 28.9 L 20.0 27.0 L 26.0 46.0 C 26.6 48.1 28.9 49.3 31.1 48.6 C 33.2 48.0 34.4 45.7 33.7 43.6 L 27.7 24.6 L 33.5 22.8 L 38.9 39.8 C 39.6 41.9 41.9 43.1 44.0 42.5 C 46.1 41.8 47.3 39.5 46.6 37.4 L 41.2 20.3 L 38.2 10.8 L 38.2 10.8 Z M 38.2 10.8 " fill="none" stroke="#575E61" stroke-width="3.00" stroke-miterlimit="0.00" transform="matrix(2.27, 0.00, 0.00, -2.27, 762.9, 428.4)"></path><path d="M 0.0 0.0 L 30.7 0.0 L 30.7 5.9 L 0.0 5.9 L 0.0 0.0 Z M 0.0 0.0 " fill="none" stroke="#575E61" stroke-width="3.00" stroke-miterlimit="0.00" transform="matrix(2.16, 0.69, 0.68, -2.16, 765.4, 418.3)"></path><path d="M 17.4 0.0 L 0.0 5.5 " fill="none" stroke="#575E61" stroke-width="3.00" stroke-miterlimit="0.00" transform="matrix(2.27, 0.00, 0.00, -2.27, 810.1, 403.9)"></path><path d="M 52.8 0.0 C 56.2 4.8 58.2 10.6 58.2 16.9 C 58.2 33.0 45.2 46.0 29.1 46.0 C 13.0 46.0 0.0 33.0 0.0 16.9 C 0.0 10.6 2.0 4.8 5.4 0.0 " fill="none" stroke="#575E61" stroke-width="3.00" stroke-miterlimit="0.00" transform="matrix(2.27, 0.00, 0.00, -2.27, 540.4, 511.8)"></path><path d="M 0.0 9.0 L 6.7 12.2 C 8.7 13.2 11.2 12.3 12.1 10.3 L 12.1 10.3 C 13.1 8.3 12.2 5.9 10.2 4.9 L 0.0 0.0 " fill="none" stroke="#575E61" stroke-width="3.00" stroke-miterlimit="0.00" transform="matrix(-2.05, -0.96, -0.96, 2.06, 373.5, 525.1)"></path><path d="M 0.0 21.3 L 0.0 11.3 L 0.0 2.3 L 0.0 0.0 L 36.5 0.0 L 36.5 21.3 " fill="none" stroke="#575E61" stroke-width="3.00" stroke-miterlimit="0.00" transform="matrix(-2.05, -0.96, -0.96, 2.06, 373.6, 524.9)"></path><path d="M 0.0 0.0 L 30.7 0.0 L 30.7 5.9 L 0.0 5.9 L 0.0 0.0 Z M 0.0 0.0 " fill="none" stroke="#575E61" stroke-width="3.00" stroke-miterlimit="0.00" transform="matrix(-2.05, -0.96, -0.96, 2.06, 373.3, 510.1)"></path><path d="M 8.1 0.0 C 8.1 2.2 6.3 4.0 4.0 4.0 L 4.0 4.0 C 1.8 4.0 0.0 2.2 0.0 0.0 " fill="none" stroke="#575E61" stroke-width="3.00" stroke-miterlimit="0.00" transform="matrix(-2.05, -0.96, -0.96, 2.06, 294.9, 541.5)"></path><path d="M 8.1 11.0 L 8.1 4.0 C 8.1 1.8 6.3 0.0 4.0 0.0 L 4.0 0.0 C 1.8 0.0 0.0 1.8 0.0 4.0 L 0.0 11.0 " fill="none" stroke="#575E61" stroke-width="3.00" stroke-miterlimit="0.00" transform="matrix(-2.05, -0.96, -0.96, 2.06, 305.4, 518.9)"></path><path d="M 0.0 0.0 L 0.0 8.9 " fill="none" stroke="#575E61" stroke-width="3.00" stroke-miterlimit="0.00" transform="matrix(-2.05, -0.96, -0.96, 2.06, 360.8, 552.4)"></path><path d="M 0.0 9.7 L 0.0 0.0 " fill="none" stroke="#575E61" stroke-width="3.00" stroke-miterlimit="0.00" transform="matrix(-2.05, -0.96, -0.96, 2.06, 344.9, 543.2)"></path><path d="M 3.0 0.1 C 3.3 0.1 3.7 0.0 4.0 0.0 C 6.3 0.0 8.1 1.8 8.1 4.0 L 8.1 13.0 C 8.1 15.2 6.3 17.0 4.0 17.0 C 1.8 17.0 0.0 15.2 0.0 13.0 L 0.0 4.0 C 0.0 3.8 0.0 3.5 0.1 3.2 " fill="none" stroke="#575E61" stroke-width="3.00" stroke-miterlimit="0.00" transform="matrix(-2.05, -0.96, -0.96, 2.06, 345.2, 535.0)"></path><path d="M 8.1 0.0 C 8.1 2.2 6.3 4.0 4.0 4.0 L 4.0 4.0 C 1.8 4.0 0.0 2.2 0.0 0.0 " fill="none" stroke="#575E61" stroke-width="3.00" stroke-miterlimit="0.00" transform="matrix(-2.05, -0.96, -0.96, 2.06, 314.3, 550.6)"></path><path d="M 8.1 13.0 L 8.1 4.0 C 8.1 1.8 6.3 0.0 4.0 0.0 L 4.0 0.0 C 1.8 0.0 0.0 1.8 0.0 4.0 L 0.0 13.0 " fill="none" stroke="#575E61" stroke-width="3.00" stroke-miterlimit="0.00" transform="matrix(-2.05, -0.96, -0.96, 2.06, 326.8, 523.8)"></path><path d="M 2.8 14.0 L 19.6 7.8 C 21.7 7.1 22.8 4.7 22.0 2.6 C 21.2 0.6 18.9 -0.5 16.8 0.3 L 0.0 6.4 " fill="none" stroke="#575E61" stroke-width="3.00" stroke-miterlimit="0.00" transform="matrix(-0.16, 2.26, 2.26, 0.16, 324.6, 555.6)"></path><path d="M 43.6 0.0 C 47.7 4.5 50.2 10.4 50.2 16.9 C 50.2 30.7 38.9 42.0 25.1 42.0 C 11.3 42.0 0.0 30.7 0.0 16.9 C 0.0 10.4 2.5 4.5 6.5 0.0 " fill="none" stroke="#575E61" stroke-width="1.00" stroke-miterlimit="0.00" transform="matrix(2.27, 0.00, 0.00, -2.27, 549.5, 511.8)"></path></g></g><text xml:space="preserve" font-family="Roboto-Light" font-size="60.0" fill="#000000" transform="matrix(1.00, 0.00, -0.00, -1.00, 1051.0, 519.0)">Н</text><text xml:space="preserve" font-family="Roboto-Light" font-size="60.0" fill="#000000" transform="matrix(1.00, 0.00, -0.00, -1.00, 1093.4, 519.0)">о</text><text xml:space="preserve" font-family="Roboto-Light" font-size="60.0" fill="#000000" transform="matrix(1.00, 0.00, -0.00, -1.00, 1127.0, 519.0)"> </text><text xml:space="preserve" font-family="Roboto-Light" font-size="60.0" fill="#000000" transform="matrix(1.00, 0.00, -0.00, -1.00, 1141.6, 519.0)">в</text><text xml:space="preserve" font-family="Roboto-Light" font-size="60.0" fill="#000000" transform="matrix(1.00, 0.00, -0.00, -1.00, 1175.2, 519.0)">е</text><text xml:space="preserve" font-family="Roboto-Light" font-size="60.0" fill="#000000" transform="matrix(1.00, 0.00, -0.00, -1.00, 1206.2, 519.0)">д</text><text xml:space="preserve" font-family="Roboto-Light" font-size="60.0" fill="#000000" transform="matrix(1.00, 0.00, -0.00, -1.00, 1240.6, 519.0)">ь</text><text xml:space="preserve" font-family="Roboto-Light" font-size="60.0" fill="#000000" transform="matrix(1.00, 0.00, -0.00, -1.00, 1272.7, 519.0)">,</text><text xml:space="preserve" font-family="Roboto-Light" font-size="60.0" fill="#000000" transform="matrix(1.00, 0.00, -0.00, -1.00, 1284.2, 519.0)"> </text><text xml:space="preserve" font-family="Roboto-Light" font-size="60.0" fill="#000000" transform="matrix(1.00, 0.00, -0.00, -1.00, 1298.8, 519.0)">м</text><text xml:space="preserve" font-family="Roboto-Light" font-size="60.0" fill="#000000" transform="matrix(1.00, 0.00, -0.00, -1.00, 1342.7, 519.0)">о</text><text xml:space="preserve" font-family="Roboto-Light" font-size="60.0" fill="#000000" transform="matrix(1.00, 0.00, -0.00, -1.00, 1375.6, 519.0)">ж</text><text xml:space="preserve" font-family="Roboto-Light" font-size="60.0" fill="#000000" transform="matrix(1.00, 0.00, -0.00, -1.00, 1421.7, 519.0)">н</text><text xml:space="preserve" font-family="Roboto-Light" font-size="60.0" fill="#000000" transform="matrix(1.00, 0.00, -0.00, -1.00, 1455.4, 519.0)">о</text><text xml:space="preserve" font-family="Roboto-Light" font-size="60.0" fill="#000000" transform="matrix(1.00, 0.00, -0.00, -1.00, 1489.0, 519.0)"> </text><text xml:space="preserve" font-family="Roboto-Light" font-size="60.0" fill="#000000" transform="matrix(1.00, 0.00, -0.00, -1.00, 1503.6, 519.0)">ж</text><text xml:space="preserve" font-family="Roboto-Light" font-size="60.0" fill="#000000" transform="matrix(1.00, 0.00, -0.00, -1.00, 1549.0, 519.0)">е</text></g></svg>