<?xml version="1.0" encoding="UTF-8" standalone="no"?><svg xmlns="http://www.w3.org/2000/svg" xmlns:xlink="http://www.w3.org/1999/xlink" clip-rule="evenodd" stroke-miterlimit="4.00" viewBox="0 0 488 63"><desc>SVG generated by Keynote</desc><defs></defs><g transform="matrix(1.00, 0.00, -0.00, -1.00, 0.0, 63.0)"><text xml:space="preserve" font-family="Roboto-Light" font-size="60.0" fill="#000000" transform="matrix(1.00, 0.00, -0.00, -1.00, -3.0, 15.0)">В</text><text xml:space="preserve" font-family="Roboto-Light" font-size="60.0" fill="#000000" transform="matrix(1.00, 0.00, -0.00, -1.00, 33.8, 15.0)">с</text><text xml:space="preserve" font-family="Roboto-Light" font-size="60.0" fill="#000000" transform="matrix(1.00, 0.00, -0.00, -1.00, 64.7, 15.0)">е</text><text xml:space="preserve" font-family="Roboto-Light" font-size="60.0" fill="#000000" transform="matrix(1.00, 0.00, -0.00, -1.00, 95.6, 15.0)"> </text><text xml:space="preserve" font-family="Roboto-Light" font-size="60.0" fill="#000000" transform="matrix(1.00, 0.00, -0.00, -1.00, 110.2, 15.0)">б</text><text xml:space="preserve" font-family="Roboto-Light" font-size="60.0" fill="#000000" transform="matrix(1.00, 0.00, -0.00, -1.00, 143.3, 15.0)">у</text><text xml:space="preserve" font-family="Roboto-Light" font-size="60.0" fill="#000000" transform="matrix(1.00, 0.00, -0.00, -1.00, 170.2, 15.0)">д</text><text xml:space="preserve" font-family="Roboto-Light" font-size="60.0" fill="#000000" transform="matrix(1.00, 0.00, -0.00, -1.00, 204.5, 15.0)">е</text><text xml:space="preserve" font-family="Roboto-Light" font-size="60.0" fill="#000000" transform="matrix(1.00, 0.00, -0.00, -1.00, 235.2, 15.0)">т</text><text xml:space="preserve" font-family="Roboto-Light" font-size="60.0" fill="#000000" transform="matrix(1.00, 0.00, -0.00, -1.00, 263.7, 15.0)"> </text><text xml:space="preserve" font-family="Roboto-Light" font-size="60.0" fill="#000000" transform="matrix(1.00, 0.00, -0.00, -1.00, 278.2, 15.0)">х</text><text xml:space="preserve" font-family="Roboto-Light" font-size="60.0" fill="#000000" transform="matrix(1.00, 0.00, -0.00, -1.00, 306.9, 15.0)">о</text><text xml:space="preserve" font-family="Roboto-Light" font-size="60.0" fill="#000000" transform="matrix(1.00, 0.00, -0.00, -1.00, 340.5, 15.0)">р</text><text xml:space="preserve" font-family="Roboto-Light" font-size="60.0" fill="#000000" transform="matrix(1.00, 0.00, -0.00, -1.00, 373.7, 15.0)">о</text><text xml:space="preserve" font-family="Roboto-Light" font-size="60.0" fill="#000000" transform="matrix(1.00, 0.00, -0.00, -1.00, 407.3, 15.0)">ш</text><text xml:space="preserve" font-family="Roboto-Light" font-size="60.0" fill="#000000" transform="matrix(1.00, 0.00, -0.00, -1.00, 454.9, 15.0)">о</text></g></svg>