<?xml version="1.0" encoding="UTF-8" standalone="no"?>
<svg width="1883px" height="268px" viewBox="0 0 1883 268" version="1.1" xmlns="http://www.w3.org/2000/svg" xmlns:xlink="http://www.w3.org/1999/xlink" xmlns:sketch="http://www.bohemiancoding.com/sketch/ns">
    <!-- Generator: Sketch 3.2.2 (9983) - http://www.bohemiancoding.com/sketch -->
    <title>Group + Group</title>
    <desc>Created with Sketch.</desc>
    <defs></defs>
    <g id="Page-1" stroke="none" stroke-width="1" fill="none" fill-rule="evenodd" sketch:type="MSPage">
        <g id="Group-+-Group" sketch:type="MSLayerGroup">
            <g id="Group" transform="translate(594.000000, 0.000000)" sketch:type="MSShapeGroup">
                <path d="M36,16.737 L133.319,16.737 L133.319,36.036 C133.319,36.588 133.766,37.036 134.319,37.036 L152.318,37.036 C152.871,37.036 153.318,36.588 153.318,36.036 L153.318,16.737 L163.457,16.737 C163.64,16.961 163.908,17.113 164.221,17.113 C164.534,17.113 164.801,16.961 164.985,16.737 L275.94,16.737 C276.046,16.993 276.151,17.246 276.261,17.508 L276.261,36.036 C276.261,36.588 276.708,37.036 277.261,37.036 L295.26,37.036 C295.813,37.036 296.26,36.588 296.26,36.036 L296.26,16.737 L419.201,16.737 L419.201,36.036 C419.201,36.588 419.648,37.036 420.201,37.036 L438.2,37.036 C438.753,37.036 439.2,36.588 439.2,36.036 L439.2,32.51 C439.206,32.479 439.223,32.452 439.225,32.419 C439.232,32.342 439.21,32.272 439.2,32.198 L439.2,16.735 L465.615,16.735 C465.785,16.868 465.989,16.96 466.221,16.96 C466.453,16.96 466.657,16.868 466.827,16.735 L562.142,16.735 L562.142,36.034 C562.142,36.586 562.589,37.034 563.142,37.034 L581.141,37.034 C581.694,37.034 582.141,36.586 582.141,36.034 L582.141,28.583 C582.161,28.468 582.161,28.357 582.141,28.246 L582.141,16.735 L683,16.735 L683,8.518 L588.12,8.518 C587.96,8.179 587.621,7.94 587.221,7.94 C586.821,7.94 586.482,8.179 586.322,8.518 L582.141,8.518 L582.141,1.747 C582.141,1.195 581.694,0.747 581.141,0.747 L563.142,0.747 C562.589,0.747 562.142,1.195 562.142,1.747 L562.142,7.857 C562.022,8.041 561.949,8.259 561.972,8.495 C561.973,8.503 561.975,8.511 561.976,8.518 L466.606,8.518 C466.487,8.469 466.358,8.44 466.221,8.44 C466.084,8.44 465.955,8.468 465.836,8.518 L456.62,8.518 C456.46,8.179 456.121,7.94 455.721,7.94 C455.321,7.94 454.982,8.179 454.822,8.518 L444.106,8.518 C443.987,8.469 443.858,8.44 443.721,8.44 C443.584,8.44 443.455,8.468 443.336,8.518 L439.2,8.518 L439.2,1.747 C439.2,1.195 438.753,0.747 438.2,0.747 L420.201,0.747 C419.648,0.747 419.201,1.195 419.201,1.747 L419.201,5.607 C418.919,5.784 418.721,6.083 418.721,6.441 C418.721,6.799 418.919,7.098 419.201,7.275 L419.201,8.519 L416.105,8.519 C415.986,8.47 415.857,8.441 415.72,8.441 C415.583,8.441 415.454,8.469 415.335,8.519 L299.605,8.519 C299.486,8.47 299.357,8.441 299.22,8.441 C299.083,8.441 298.954,8.469 298.835,8.519 L296.259,8.519 L296.259,1.748 C296.259,1.196 295.812,0.748 295.259,0.748 L277.26,0.748 C276.707,0.748 276.26,1.196 276.26,1.748 L276.26,8.519 L272.605,8.519 C272.486,8.47 272.357,8.441 272.22,8.441 C272.083,8.441 271.954,8.469 271.835,8.519 L267.104,8.519 C266.985,8.47 266.856,8.441 266.719,8.441 C266.582,8.441 266.453,8.469 266.334,8.519 L262.103,8.519 C261.984,8.47 261.855,8.441 261.718,8.441 C261.581,8.441 261.452,8.469 261.333,8.519 L164.602,8.519 C164.483,8.47 164.354,8.441 164.217,8.441 C164.08,8.441 163.951,8.469 163.832,8.519 L156.101,8.519 C155.982,8.47 155.853,8.441 155.716,8.441 C155.579,8.441 155.45,8.469 155.331,8.519 L153.313,8.519 L153.313,1.748 C153.313,1.196 152.866,0.748 152.313,0.748 L134.319,0.748 C133.766,0.748 133.319,1.196 133.319,1.748 L133.319,5.023 C133.259,5.151 133.22,5.291 133.22,5.442 C133.22,5.593 133.259,5.733 133.319,5.861 L133.319,7.135 C133.319,7.151 133.318,7.166 133.319,7.182 L133.319,8.519 L130.105,8.519 C129.986,8.47 129.857,8.441 129.72,8.441 C129.583,8.441 129.454,8.469 129.335,8.519 L36,8.519 C35.447,8.519 35,8.967 35,9.519 L35,15.736 C35,16.289 35.447,16.737 36,16.737 L36,16.737 Z" id="Shape" fill="#F8E7A9"></path>
                <g transform="translate(35.000000, 1.000000)" stroke="#867F5E" stroke-width="2">
                    <path d="M648,8.52 L545.141,8.52" id="Shape"></path>
                    <path d="M527.142,8.52 L402.2,8.52" id="Shape"></path>
                    <path d="M384.201,8.52 L259.26,8.52" id="Shape"></path>
                    <path d="M241.26,8.52 L116.319,8.52" id="Shape"></path>
                    <path d="M98.32,8.52 L0,8.52" id="Shape"></path>
                    <path d="M648,14.737 L545.141,14.737" id="Shape"></path>
                    <path d="M527.142,14.737 L402.2,14.737" id="Shape"></path>
                    <path d="M384.201,14.737 L259.26,14.737" id="Shape"></path>
                    <path d="M241.26,14.737 L116.319,14.737" id="Shape"></path>
                    <path d="M98.32,14.737 L0,14.737" id="Shape"></path>
                    <rect id="Rectangle-path" x="98.32" y="0.749" width="17.999" height="34.288"></rect>
                    <rect id="Rectangle-path" x="241.26" y="0.749" width="17.999" height="34.288"></rect>
                    <rect id="Rectangle-path" x="384.201" y="0.749" width="17.999" height="34.288"></rect>
                    <rect id="Rectangle-path" x="527.142" y="0.749" width="17.999" height="34.288"></rect>
                </g>
                <path d="M152.554688,32.978 C152.581687,32.818 176.489377,55.1250027 214.407345,55.1249996 C224.532597,55.1249988 266.809,37.769 276.26,32.978" id="Shape" stroke="#867F5E" stroke-width="2"></path>
                <path d="M294.26,31.346 C310.866,36.59 326.004,46.296 343.032,50.04 C356.692,53.044 371.216,52.001 384.307,47.076 C396.441,42.511 407.259,34.749 419.202,29.889" id="Shape" stroke="#867F5E" stroke-width="2"></path>
                <path d="M437.2,27.301 C446.253,26.628 455.266,29.883 464.004,32.66 C492.057,41.578 523.253,45.789 550.474,34.585 C554.321,33.002 558.174,31.099 562.142,29.939" id="Shape" stroke="#867F5E" stroke-width="2"></path>
                <path d="M580.141,28.903 C596.418,29.511 612.376,34.042 628.522,36.551 C647.139,39.444 738.845236,30.824816 726.68789,28.903" id="Shape" stroke="#867F5E" stroke-width="2"></path>
                <path d="M151.319,27.104 C164.077,29.295 176.366,35.018 189.125,37.931 C204.76,41.5 221.354,40.773 236.617,35.85 C249.902,31.565 262.509,24.116 276.261,22.702" id="Shape" stroke="#867F5E" stroke-width="2"></path>
                <path d="M133.32,30.881 C125.225,31.471 108.421131,44.4986483 86.2304923,44.4986643 C42.7339827,44.4986958 29.9896784,30.946 0.919678375,30.881" id="Shape" stroke="#867F5E" stroke-width="2"></path>
                <path d="M294.26,25.359 C299.042,26.475 303.657,28.391 308.309,30.031 C329.261,37.418 352.1,39.378 374.004,35.669 C389.284,33.081 404.005,27.812 419.201,24.825" id="Shape" stroke="#867F5E" stroke-width="2"></path>
                <path d="M437.24,23.496 C442.679,22.831 448.181,22.679 453.648,23.044 C462.669,23.648 471.543,25.65 480.543,26.51 C490.537,27.466 500.606,27.008 510.635,26.541 C527.805,25.742 544.974,24.919 562.142,24.073" id="Shape" stroke="#867F5E" stroke-width="2"></path>
                <path d="M580.141,23.416 C588.173,22.524 596.396,24.274 604.402,25.816 C630.472,30.837 702.160197,27.5457015 726.936197,18.2067015" id="Shape" stroke="#867F5E" stroke-width="2"></path>
                <path d="M2.55257439,21.1102652 C21.2815744,26.4122652 61.262,40.117 80.238,35.783 C97.9,31.749 115.341,26.245 133.319,24.289" id="Shape" stroke="#867F5E" stroke-width="2"></path>
                <path d="M414.72,9.443 L414.72,14.965" id="Shape" stroke="#867F5E" stroke-width="2"></path>
                <path d="M442.72,9.443 L442.72,13.97" id="Shape" stroke="#867F5E" stroke-width="2"></path>
                <path d="M447.72,9.943 L447.72,14.943" id="Shape" stroke="#867F5E" stroke-width="2"></path>
                <path d="M557.72,10.443 L557.72,14.943" id="Shape" stroke="#867F5E" stroke-width="2"></path>
                <path d="M586.22,8.943 L586.22,15.025" id="Shape" stroke="#867F5E" stroke-width="2"></path>
                <path d="M418.72,6.443 L435.75,6.443" id="Shape" stroke="#867F5E" stroke-width="2"></path>
                <path d="M562.22,4.943 L578.414,4.943" id="Shape" stroke="#867F5E" stroke-width="2"></path>
                <path d="M133.22,5.443 L151.248,5.443" id="Shape" stroke="#867F5E" stroke-width="2"></path>
                <path d="M276.72,6.443 L292.728,6.443" id="Shape" stroke="#867F5E" stroke-width="2"></path>
                <path d="M154.72,9.443 L154.72,15.627" id="Shape" stroke="#867F5E" stroke-width="2"></path>
                <path d="M158.22,9.943 L158.22,14.552" id="Shape" stroke="#867F5E" stroke-width="2"></path>
                <path d="M163.22,9.443 L163.22,16.113" id="Shape" stroke="#867F5E" stroke-width="2"></path>
                <path d="M173.22,10.443 L173.22,15.052" id="Shape" stroke="#867F5E" stroke-width="2"></path>
                <path d="M128.72,9.443 L128.72,13.443" id="Shape" stroke="#867F5E" stroke-width="2"></path>
                <path d="M124.72,9.943 L124.72,14.443" id="Shape" stroke="#867F5E" stroke-width="2"></path>
                <path d="M118.72,9.943 L118.72,14.443" id="Shape" stroke="#867F5E" stroke-width="2"></path>
                <path d="M271.22,9.443 L271.22,14.443" id="Shape" stroke="#867F5E" stroke-width="2"></path>
                <path d="M265.72,9.443 L265.72,14.468" id="Shape" stroke="#867F5E" stroke-width="2"></path>
                <path d="M260.72,9.443 L260.72,15.033" id="Shape" stroke="#867F5E" stroke-width="2"></path>
                <path d="M298.22,9.443 L298.22,15.033" id="Shape" stroke="#867F5E" stroke-width="2"></path>
                <path d="M302.22,10.443 L302.22,15.542" id="Shape" stroke="#867F5E" stroke-width="2"></path>
                <path d="M313.22,10.443 L313.22,15.186" id="Shape" stroke="#867F5E" stroke-width="2"></path>
                <path d="M322.72,10.443 L322.72,15.468" id="Shape" stroke="#867F5E" stroke-width="2"></path>
                <path d="M454.72,8.943 L454.72,15.519" id="Shape" stroke="#867F5E" stroke-width="2"></path>
                <path d="M465.22,9.443 L465.22,15.962" id="Shape" stroke="#867F5E" stroke-width="2"></path>
                <path d="M133.314,7.101 C134.354,9.167 135.394,11.233 136.434,13.299 C137.233,14.886 138.085,16.536 139.533,17.565 C141.265,18.796 143.629,18.91 145.633,18.203 C147.637,17.496 149.312,16.056 150.662,14.416" id="Shape" stroke="#867F5E" stroke-width="2"></path>
                <path d="M133.58,16.501 C135.216,20.124 135.259,24.689 138.245,27.313 C141.663,30.316 147.303,28.955 150.546,25.764" id="Shape" stroke="#867F5E" stroke-width="2"></path>
                <path d="M276.291,10.73 C277.922,11.488 278.946,13.109 280.272,14.324 C282.391,16.265 285.424,17.162 288.257,16.685 C291.091,16.208 293.663,14.368 295.03,11.841" id="Shape" stroke="#867F5E" stroke-width="2"></path>
                <path d="M275.648,15.834 C277.259,19.739 279.01,23.83 282.366,26.396 C285.722,28.962 291.206,29.257 293.741,25.878" id="Shape" stroke="#867F5E" stroke-width="2"></path>
                <path d="M419.281,11.384 C420.86,14.941 423.427,18.334 427.109,19.594 C430.791,20.854 435.605,19.148 436.65,15.399" id="Shape" stroke="#867F5E" stroke-width="2"></path>
                <path d="M419.579,17.352 C421.593,25.337 429.024,31.645 437.23,32.336" id="Shape" stroke="#867F5E" stroke-width="2"></path>
                <path d="M561.967,8.397 C562.338,12.085 565.087,15.284 568.488,16.758 C571.889,18.231 575.822,18.138 579.379,17.096" id="Shape" stroke="#867F5E" stroke-width="2"></path>
                <path d="M562.608,17.766 C565.206,23.582 570.701,28.016 576.935,29.327 C578.128,29.578 579.692,29.538 580.174,28.418" id="Shape" stroke="#867F5E" stroke-width="2"></path>
            </g>
            <g id="Group" transform="translate(1223.000000, 0.000000)" sketch:type="MSShapeGroup">
                <path d="M179.853834,207.442152 L170.103225,207.442152 C169.541023,207.442152 169.086584,207.896939 169.086584,208.457303 L169.086584,211.600212 L168.011994,211.600212 C167.449791,211.600212 166.995352,212.055 166.995352,212.615364 L166.995352,227.689348 L163.979994,227.689348 C163.417791,227.689348 162.963352,228.144136 162.963352,228.7045 L162.963352,237.522106 L162.963352,247.693924 C162.963352,258.724561 171.950463,267.6985 182.996272,267.6985 C194.043098,267.6985 203.030209,258.724561 203.030209,247.693924 L203.030209,237.522106 L203.030209,228.7045 C203.030209,228.144136 202.57577,227.689348 202.013567,227.689348 L198.998209,227.689348 L198.998209,212.615364 C198.998209,212.055 198.54377,211.600212 197.981567,211.600212 L196.906977,211.600212 L196.906977,208.457303 C196.906977,207.896939 196.452539,207.442152 195.890336,207.442152 L186.139728,207.442152 C185.577525,207.442152 185.123086,207.896939 185.123086,208.457303 L185.123086,211.600212 L180.868442,211.600212 L180.868442,208.457303 C180.870475,207.896939 180.416036,207.442152 179.853834,207.442152 L179.853834,207.442152 Z" id="Shape" fill="#F8E7A9"></path>
                <path d="M1.23298033,16.9905909 L100.17151,16.9905909 L100.17151,36.582 C100.17151,37.1423636 100.625949,37.5971515 101.188151,37.5971515 L119.486681,37.5971515 C120.048884,37.5971515 120.503322,37.1423636 120.503322,36.582 L120.503322,16.9905909 L130.81105,16.9905909 C130.997095,17.2179848 131.269555,17.3722879 131.587764,17.3722879 C131.905973,17.3722879 132.177416,17.2179848 132.364478,16.9905909 L245.16593,16.9905909 C245.273694,17.2504697 245.380442,17.507303 245.492272,17.7732727 L245.492272,36.582 C245.492272,37.1423636 245.946711,37.5971515 246.508914,37.5971515 L264.807443,37.5971515 C265.369646,37.5971515 265.824085,37.1423636 265.824085,36.582 L265.824085,16.9905909 L390.811002,16.9905909 L390.811002,36.582 C390.811002,37.1423636 391.26544,37.5971515 391.827643,37.5971515 L410.126172,37.5971515 C410.688375,37.5971515 411.142814,37.1423636 411.142814,36.582 L411.142814,33.0025758 C411.148914,32.9711061 411.166197,32.943697 411.16823,32.910197 C411.175346,32.8320303 411.15298,32.7609697 411.142814,32.6858485 L411.142814,16.9885606 L437.997398,16.9885606 C438.170227,17.1235758 438.377622,17.2169697 438.613483,17.2169697 C438.849343,17.2169697 439.056738,17.1235758 439.229567,16.9885606 L536.130747,16.9885606 L536.130747,36.5799697 C536.130747,37.1403333 536.585186,37.5951212 537.147389,37.5951212 L555.445918,37.5951212 C556.008121,37.5951212 556.46256,37.1403333 556.46256,36.5799697 L556.46256,29.0160758 C556.482893,28.8993333 556.482893,28.7866515 556.46256,28.6739697 L556.46256,16.9885606 L659,16.9885606 L659,8.64706061 L562.541059,8.64706061 C562.378396,8.30292424 562.033755,8.06030303 561.627098,8.06030303 C561.220442,8.06030303 560.8758,8.30292424 560.713138,8.64706061 L556.46256,8.64706061 L556.46256,1.7734697 C556.46256,1.21310606 556.008121,0.758318182 555.445918,0.758318182 L537.147389,0.758318182 C536.585186,0.758318182 536.130747,1.21310606 536.130747,1.7734697 L536.130747,7.97604545 C536.00875,8.16283333 535.934536,8.38413636 535.957918,8.62371212 C535.958935,8.63183333 535.960968,8.63995455 535.961985,8.64706061 L439.00489,8.64706061 C438.883909,8.59731818 438.752762,8.56787879 438.613483,8.56787879 C438.474203,8.56787879 438.343056,8.59630303 438.222076,8.64706061 L428.852708,8.64706061 C428.690045,8.30292424 428.345404,8.06030303 427.938747,8.06030303 C427.532091,8.06030303 427.187449,8.30292424 427.024787,8.64706061 L416.130457,8.64706061 C416.009477,8.59731818 415.87833,8.56787879 415.73905,8.56787879 C415.59977,8.56787879 415.468623,8.59630303 415.347643,8.64706061 L411.142814,8.64706061 L411.142814,1.7734697 C411.142814,1.21310606 410.688375,0.758318182 410.126172,0.758318182 L391.827643,0.758318182 C391.26544,0.758318182 390.811002,1.21310606 390.811002,1.7734697 L390.811002,5.69195455 C390.524309,5.87163636 390.323014,6.17516667 390.323014,6.53859091 C390.323014,6.90201515 390.524309,7.20554545 390.811002,7.38522727 L390.811002,8.64807576 L387.66348,8.64807576 C387.542499,8.59833333 387.411352,8.56889394 387.272073,8.56889394 C387.132793,8.56889394 387.001646,8.59731818 386.880666,8.64807576 L269.22475,8.64807576 C269.10377,8.59833333 268.972623,8.56889394 268.833343,8.56889394 C268.694064,8.56889394 268.562917,8.59731818 268.441936,8.64807576 L265.823068,8.64807576 L265.823068,1.77448485 C265.823068,1.21412121 265.368629,0.759333333 264.806427,0.759333333 L246.507897,0.759333333 C245.945694,0.759333333 245.491256,1.21412121 245.491256,1.77448485 L245.491256,8.64807576 L241.775431,8.64807576 C241.654451,8.59833333 241.523304,8.56889394 241.384024,8.56889394 C241.244744,8.56889394 241.113598,8.59731818 240.992617,8.64807576 L236.182887,8.64807576 C236.061906,8.59833333 235.930759,8.56889394 235.79148,8.56889394 C235.6522,8.56889394 235.521053,8.59731818 235.400073,8.64807576 L231.098663,8.64807576 C230.977682,8.59833333 230.846536,8.56889394 230.707256,8.56889394 C230.567976,8.56889394 230.436829,8.59731818 230.315849,8.64807576 L131.975104,8.64807576 C131.854124,8.59833333 131.722977,8.56889394 131.583697,8.56889394 C131.444418,8.56889394 131.313271,8.59731818 131.19229,8.64807576 L123.332635,8.64807576 C123.211655,8.59833333 123.080508,8.56889394 122.941228,8.56889394 C122.801949,8.56889394 122.670802,8.59731818 122.549821,8.64807576 L120.498239,8.64807576 L120.498239,1.77448485 C120.498239,1.21412121 120.0438,0.759333333 119.481598,0.759333333 L101.188151,0.759333333 C100.625949,0.759333333 100.17151,1.21412121 100.17151,1.77448485 L100.17151,5.09910606 C100.110511,5.22904545 100.070862,5.37116667 100.070862,5.52445455 C100.070862,5.67774242 100.110511,5.81986364 100.17151,5.94980303 L100.17151,7.24310606 C100.17151,7.25934848 100.170493,7.27457576 100.17151,7.29081818 L100.17151,8.64807576 L96.9040242,8.64807576 C96.7830439,8.59833333 96.6518971,8.56889394 96.5126172,8.56889394 C96.3733374,8.56889394 96.2421906,8.59731818 96.1212103,8.64807576 L1.23298033,8.64807576 C0.67077761,8.64807576 0.21633888,9.10286364 0.21633888,9.66322727 L0.21633888,15.9744242 C0.21633888,16.535803 0.67077761,16.9905909 1.23298033,16.9905909 L1.23298033,16.9905909 Z" id="Shape" fill="#F8E7A9"></path>
                <g transform="translate(0.216339, 1.015152)" stroke="#867F5E" stroke-width="2">
                    <path d="M658.783661,8.64909091 L554.212938,8.64909091" id="Shape"></path>
                    <path d="M535.914408,8.64909091 L408.893192,8.64909091" id="Shape"></path>
                    <path d="M390.594663,8.64909091 L263.574463,8.64909091" id="Shape"></path>
                    <path d="M245.274917,8.64909091 L118.254717,8.64909091" id="Shape"></path>
                    <path d="M99.9561876,8.64909091 L0,8.64909091" id="Shape"></path>
                    <path d="M658.783661,14.9602879 L554.212938,14.9602879" id="Shape"></path>
                    <path d="M535.914408,14.9602879 L408.893192,14.9602879" id="Shape"></path>
                    <path d="M390.594663,14.9602879 L263.574463,14.9602879" id="Shape"></path>
                    <path d="M245.274917,14.9602879 L118.254717,14.9602879" id="Shape"></path>
                    <path d="M99.9561876,14.9602879 L0,14.9602879" id="Shape"></path>
                    <rect id="Rectangle-path" x="99.9561876" y="0.760348485" width="18.2985295" height="34.8075152"></rect>
                    <rect id="Rectangle-path" x="245.274917" y="0.760348485" width="18.2985295" height="34.8075152"></rect>
                    <rect id="Rectangle-path" x="390.594663" y="0.760348485" width="18.2985295" height="34.8075152"></rect>
                    <rect id="Rectangle-path" x="535.914408" y="0.760348485" width="18.2985295" height="34.8075152"></rect>
                </g>
                <path d="M195.030257,131.153515 C195.057707,130.991091 195.086172,130.829682 195.113622,130.667258 C199.63666,104.502742 208.173398,78.7737273 222.565991,56.4475 C228.486911,47.2634242 235.882977,38.3412576 245.491256,33.4776667" id="Shape" stroke="#867F5E" stroke-width="2"></path>
                <path d="M118.471056,29.3409242 C143.104278,49.5099545 158.728024,79.2579545 166.661894,110.135818 C168.4461,117.08047 169.873464,124.092121 171.006003,131.1525" id="Shape" stroke="#867F5E" stroke-width="2"></path>
                <path d="M263.790802,31.8209394 C280.67315,37.1443939 296.063068,46.9974545 313.374439,50.7981818 C327.261761,53.847697 342.027461,52.7888939 355.336315,47.7892727 C367.672242,43.1551061 378.670269,35.2755 390.812018,30.3418636" id="Shape" stroke="#867F5E" stroke-width="2"></path>
                <path d="M409.109531,27.7146515 C418.313186,27.0314545 427.476175,30.3357727 436.359589,33.1548485 C464.879431,42.2079697 496.594578,46.4827727 524.268575,35.1090152 C528.179595,33.5020303 532.096714,31.570197 536.130747,30.3926212" id="Shape" stroke="#867F5E" stroke-width="2"></path>
                <path d="M554.429277,29.3409242 C570.97715,29.9581364 587.200714,34.5577879 603.615407,37.104803 C622.542221,40.0416364 643.204442,39.9157576 659,28.6973182" id="Shape" stroke="#867F5E" stroke-width="2"></path>
                <path d="M118.471056,27.5146667 C131.441368,29.7388636 143.934874,35.5485758 156.906203,38.5057121 C172.801392,42.1287879 189.67154,41.3907727 205.188539,36.3931818 C218.69462,32.0432576 231.511419,24.4813939 245.492272,23.0459697" id="Shape" stroke="#867F5E" stroke-width="2"></path>
                <path d="M263.790802,25.7432273 C268.652381,26.8761364 273.344182,28.8211667 278.073598,30.4860152 C299.374269,37.9849394 322.593343,39.9746364 344.861858,36.2094394 C360.396139,33.5822273 375.362118,28.2333939 390.811002,25.2011364" id="Shape" stroke="#867F5E" stroke-width="2"></path>
                <path d="M409.150197,23.852 C414.67971,23.1769242 420.273271,23.0226212 425.83125,23.3931515 C435.002372,24.006303 444.024048,26.0386364 453.173821,26.9116667 C463.334136,27.8821515 473.570699,27.4172121 483.766596,26.9431364 C501.22233,26.1320303 518.677047,25.2965606 536.130747,24.4377424" id="Shape" stroke="#867F5E" stroke-width="2"></path>
                <path d="M554.429277,23.7707879 C562.594941,22.8652727 570.954784,24.6417879 579.094015,26.2071515 C605.597858,31.3042273 633.811691,34.0177273 659,24.5372273" id="Shape" stroke="#867F5E" stroke-width="2"></path>
                <path d="M386.255431,9.58607576 L386.255431,15.1917424" id="Shape" stroke="#867F5E" stroke-width="2"></path>
                <path d="M414.721392,9.58607576 L414.721392,14.1816667" id="Shape" stroke="#867F5E" stroke-width="2"></path>
                <path d="M419.804599,10.0936515 L419.804599,15.1694091" id="Shape" stroke="#867F5E" stroke-width="2"></path>
                <path d="M531.635159,10.6012273 L531.635159,15.1694091" id="Shape" stroke="#867F5E" stroke-width="2"></path>
                <path d="M560.60944,9.0785 L560.60944,15.2526515" id="Shape" stroke="#867F5E" stroke-width="2"></path>
                <path d="M390.321997,6.54062121 L407.635401,6.54062121" id="Shape" stroke="#867F5E" stroke-width="2"></path>
                <path d="M536.210045,5.01789394 L552.673537,5.01789394" id="Shape" stroke="#867F5E" stroke-width="2"></path>
                <g transform="translate(162.878971, 129.318182)" stroke="#867F5E" stroke-width="2">
                    <g transform="translate(0.000000, 78.787879)">
                        <path d="M0.085397882,29.4150303 L0.085397882,39.5868485 C0.085397882,50.0743788 8.59977005,58.5762727 19.1026929,58.5762727 L19.1026929,58.5762727 C29.6056157,58.5762727 38.1199879,50.0743788 38.1199879,39.5868485 L38.1199879,29.4150303" id="Shape"></path>
                        <rect id="Rectangle-path" x="0.085397882" y="20.5984394" width="38.0335734" height="8.81760606"></rect>
                        <path d="M15.5037821,29.4160455 L15.5037821,44.3448636 C15.5037821,46.3294848 17.1151589,47.9385 19.1026929,47.9385 L19.1026929,47.9385 C21.0902269,47.9385 22.7016036,46.3294848 22.7016036,44.3448636 L22.7016036,29.4160455" id="Shape"></path>
                        <rect id="Rectangle-path" x="4.11739788" y="4.50930303" width="29.97059" height="16.0891364"></rect>
                        <rect id="Rectangle-path" x="6.20761271" y="0.352257576" width="9.75060817" height="4.15704545"></rect>
                        <rect id="Rectangle-path" x="22.2451316" y="0.352257576" width="9.75060817" height="4.15704545"></rect>
                    </g>
                    <path d="M27.5591165,79.1401364 C27.2541241,61.4836061 32.2310868,0.484163652 32.2310868,0.484163652" id="Shape"></path>
                    <path d="M7.91481964,0.125440523 C9.25983628,17.7007587 12.3196611,61.5120303 11.9618033,79.1391212" id="Shape"></path>
                    <path d="M28.1813011,84.8209242 L28.1813011,100.555773" id="Shape"></path>
                    <path d="M19.5398487,84.8209242 L19.5398487,98.0564697" id="Shape"></path>
                    <path d="M24.1147352,98.5254697 L24.1147352,106.661909" id="Shape"></path>
                    <path d="M30.214584,99.5406212 L30.214584,107.677061" id="Shape"></path>
                    <path d="M8.86511346,100.048197 L8.86511346,106.723833" id="Shape"></path>
                </g>
                <path d="M100.070862,5.5254697 L118.398874,5.5254697" id="Shape" stroke="#867F5E" stroke-width="2"></path>
                <path d="M245.958911,6.54062121 L262.233307,6.54062121" id="Shape" stroke="#867F5E" stroke-width="2"></path>
                <path d="M121.928654,9.58607576 L121.928654,15.8637727" id="Shape" stroke="#867F5E" stroke-width="2"></path>
                <path d="M125.486899,10.0936515 L125.486899,14.7724848" id="Shape" stroke="#867F5E" stroke-width="2"></path>
                <path d="M130.570106,9.58607576 L130.570106,16.3571364" id="Shape" stroke="#867F5E" stroke-width="2"></path>
                <path d="M140.73652,10.6012273 L140.73652,15.2800606" id="Shape" stroke="#867F5E" stroke-width="2"></path>
                <path d="M95.4959758,9.58607576 L95.4959758,13.6466818" id="Shape" stroke="#867F5E" stroke-width="2"></path>
                <path d="M91.42941,10.0936515 L91.42941,14.6618333" id="Shape" stroke="#867F5E" stroke-width="2"></path>
                <path d="M85.3295613,10.0936515 L85.3295613,14.6618333" id="Shape" stroke="#867F5E" stroke-width="2"></path>
                <path d="M240.367383,9.58607576 L240.367383,14.6618333" id="Shape" stroke="#867F5E" stroke-width="2"></path>
                <path d="M234.775855,9.58607576 L234.775855,14.6872121" id="Shape" stroke="#867F5E" stroke-width="2"></path>
                <path d="M229.692648,9.58607576 L229.692648,15.2607727" id="Shape" stroke="#867F5E" stroke-width="2"></path>
                <path d="M267.816702,9.58607576 L267.816702,15.2607727" id="Shape" stroke="#867F5E" stroke-width="2"></path>
                <path d="M271.883268,10.6012273 L271.883268,15.7774848" id="Shape" stroke="#867F5E" stroke-width="2"></path>
                <path d="M283.066324,10.6012273 L283.066324,15.4160909" id="Shape" stroke="#867F5E" stroke-width="2"></path>
                <path d="M292.724418,10.6012273 L292.724418,15.7023636" id="Shape" stroke="#867F5E" stroke-width="2"></path>
                <path d="M426.921089,9.0785 L426.921089,15.7541364" id="Shape" stroke="#867F5E" stroke-width="2"></path>
                <path d="M437.595825,9.58607576 L437.595825,16.2038485" id="Shape" stroke="#867F5E" stroke-width="2"></path>
                <path d="M100.166427,7.20859091 C101.223734,9.30589394 102.281041,11.403197 103.338348,13.5005 C104.150644,15.1115455 105.016823,16.7865455 106.48892,17.8311364 C108.249743,19.0807879 110.653083,19.1965152 112.690433,18.478803 C114.727782,17.7610909 116.430657,16.2992727 117.803123,14.6344242" id="Shape" stroke="#867F5E" stroke-width="2"></path>
                <path d="M100.436853,16.7510152 C102.100079,20.4289091 102.143794,25.0630758 105.179486,27.7268333 C108.654366,30.7753333 114.388224,29.3937121 117.685192,26.1543636" id="Shape" stroke="#867F5E" stroke-width="2"></path>
                <path d="M245.522772,10.8925758 C247.180914,11.6620606 248.221955,13.3076212 249.570021,14.5410303 C251.724284,16.5114394 254.807758,17.4220303 257.687903,16.937803 C260.569065,16.4535758 263.183867,14.585697 264.573616,12.0204091" id="Shape" stroke="#867F5E" stroke-width="2"></path>
                <path d="M244.869071,16.0739091 C246.50688,20.0380758 248.28702,24.1910606 251.698868,26.7959394 C255.110717,29.4008182 260.685979,29.7002879 263.263165,26.2700909" id="Shape" stroke="#867F5E" stroke-width="2"></path>
                <path d="M390.892333,11.5564848 C392.49761,15.1673788 395.107328,18.6117879 398.850602,19.8908788 C402.593876,21.1699697 407.487988,19.4381212 408.550378,15.6323182" id="Shape" stroke="#867F5E" stroke-width="2"></path>
                <path d="M391.195292,17.6149091 C393.242808,25.7208939 400.79747,32.1244697 409.14003,32.8259394" id="Shape" stroke="#867F5E" stroke-width="2"></path>
                <path d="M535.952835,8.52422727 C536.330009,12.2681061 539.124756,15.5155758 542.582354,17.0119091 C546.039952,18.5072273 550.038402,18.4128182 553.654596,17.3550303" id="Shape" stroke="#867F5E" stroke-width="2"></path>
                <path d="M536.604502,18.0351818 C539.245737,23.939303 544.832182,28.4404848 551.169924,29.7713485 C552.382778,30.0261515 553.972805,29.9855455 554.462826,28.8485758" id="Shape" stroke="#867F5E" stroke-width="2"></path>
            </g>
            <g id="Group-3" transform="translate(347.000000, 28.000000) scale(-1, 1) translate(-347.000000, -28.000000) " sketch:type="MSShapeGroup">
                <path d="M98.319,16.737 L98.319,36.036 C98.319,36.588 98.766,37.036 99.319,37.036 L117.318,37.036 C117.871,37.036 118.318,36.588 118.318,36.036 L118.318,16.737 L128.457,16.737 C128.64,16.961 128.908,17.113 129.221,17.113 C129.534,17.113 129.801,16.961 129.985,16.737 L240.94,16.737 C241.046,16.993 241.151,17.246 241.261,17.508 L241.261,36.036 C241.261,36.588 241.708,37.036 242.261,37.036 L260.26,37.036 C260.813,37.036 261.26,36.588 261.26,36.036 L261.26,16.737 L384.201,16.737 L384.201,36.036 C384.201,36.588 384.648,37.036 385.201,37.036 L403.2,37.036 C403.753,37.036 404.2,36.588 404.2,36.036 L404.2,32.51 C404.232,32.342 404.21,32.272 404.2,32.198 L404.2,16.735 L430.615,16.735 C430.785,16.868 430.989,16.96 431.221,16.96 C431.453,16.96 431.657,16.868 431.827,16.735 L527.142,16.735 L527.142,36.034 C527.142,36.586 527.589,37.034 528.142,37.034 L546.141,37.034 C546.694,37.034 547.141,36.586 547.141,36.034 L547.141,28.583 C547.161,28.468 547.161,28.357 547.141,28.246 L547.141,16.735 L693.006958,16.7369998 L693.006958,8.51999977 L553.12,8.518 C552.96,8.179 552.621,7.94 552.221,7.94 C551.821,7.94 551.482,8.179 551.322,8.518 L547.141,8.518 L547.141,1.747 C547.141,1.195 546.694,0.747 546.141,0.747 L528.142,0.747 C527.589,0.747 527.142,1.195 527.142,1.747 L527.142,7.857 C527.022,8.041 526.949,8.259 526.972,8.495 C526.973,8.503 431.606,8.518 431.606,8.518 C431.084,8.44 421.62,8.518 421.62,8.518 C421.46,8.179 421.121,7.94 420.721,7.94 C420.321,7.94 419.982,8.179 419.822,8.518 L409.106,8.518 C408.584,8.44 404.2,8.518 404.2,8.518 L404.2,1.747 C404.2,1.195 403.753,0.747 403.2,0.747 L385.201,0.747 C384.648,0.747 384.201,1.195 384.201,1.747 L384.201,5.607 C383.919,5.784 383.721,6.083 383.721,6.441 C383.721,6.799 383.919,7.098 384.201,7.275 L384.201,8.519 L381.105,8.519 C380.583,8.441 264.605,8.519 264.605,8.519 C264.083,8.441 261.259,8.519 261.259,8.519 L261.259,1.748 C261.259,1.196 260.812,0.748 260.259,0.748 L242.26,0.748 C241.707,0.748 241.26,1.196 241.26,1.748 L241.26,8.519 L237.605,8.519 C237.083,8.441 232.104,8.519 232.104,8.519 C231.582,8.441 227.103,8.519 227.103,8.519 C226.581,8.441 129.602,8.519 129.602,8.519 C129.08,8.441 121.101,8.519 121.101,8.519 C120.579,8.441 118.313,8.519 118.313,8.519 L118.313,1.748 C118.313,1.196 117.866,0.748 117.313,0.748 L99.319,0.748 C98.766,0.748 98.319,1.196 98.319,1.748 L98.319,5.023 C98.259,5.151 98.22,5.291 98.22,5.442 C98.22,5.593 98.259,5.733 98.319,5.861 L98.319,7.135 L98.319,8.519 L95.105,8.519 C94.583,8.441 1,8.519 1,8.519 C0.447,8.519 0,8.967 0,9.519 L0,15.736 C0,16.289 0.447,16.737 1,16.737 L98.319,16.737 Z" id="Shape" fill="#F8E7A9"></path>
                <g id="Group" transform="translate(0.000000, 1.000000)" stroke="#867F5E" stroke-width="2">
                    <path d="M693.000772,8.52 L545.141,8.52" id="Shape"></path>
                    <path d="M527.142,8.52 L402.2,8.52" id="Shape"></path>
                    <path d="M384.201,8.52 L259.26,8.52" id="Shape"></path>
                    <path d="M241.26,8.52 L116.319,8.52" id="Shape"></path>
                    <path d="M98.32,8.52 L0,8.52" id="Shape"></path>
                    <path d="M692.999994,14.737 L545.141,14.737" id="Shape"></path>
                    <path d="M527.142,14.737 L402.2,14.737" id="Shape"></path>
                    <path d="M384.201,14.737 L259.26,14.737" id="Shape"></path>
                    <path d="M241.26,14.737 L116.319,14.737" id="Shape"></path>
                    <path d="M98.32,14.737 L0,14.737" id="Shape"></path>
                    <rect id="Rectangle-path" x="98.32" y="0.749" width="17.999" height="34.288"></rect>
                    <rect id="Rectangle-path" x="241.26" y="0.749" width="17.999" height="34.288"></rect>
                    <rect id="Rectangle-path" x="384.201" y="0.749" width="17.999" height="34.288"></rect>
                    <rect id="Rectangle-path" x="527.142" y="0.749" width="17.999" height="34.288"></rect>
                </g>
                <path d="M117.554688,32.978 C117.581687,32.818 141.489377,55.1250027 179.407345,55.1249996 C189.532597,55.1249988 231.809,37.769 241.26,32.978" id="Shape" stroke="#867F5E" stroke-width="2"></path>
                <path d="M259.26,31.346 C275.866,36.59 291.004,46.296 308.032,50.04 C321.692,53.044 336.216,52.001 349.307,47.076 C361.441,42.511 372.259,34.749 384.202,29.889" id="Shape" stroke="#867F5E" stroke-width="2"></path>
                <path d="M402.2,27.301 C411.253,26.628 420.266,29.883 429.004,32.66 C457.057,41.578 488.253,45.789 515.474,34.585 C519.321,33.002 523.174,31.099 527.142,29.939" id="Shape" stroke="#867F5E" stroke-width="2"></path>
                <path d="M545.141,28.903 C561.418,29.511 577.376,34.042 593.522,36.551 C612.139,39.444 703.845236,30.824816 691.68789,28.903" id="Shape" stroke="#867F5E" stroke-width="2"></path>
                <path d="M116.319,27.104 C129.077,29.295 141.366,35.018 154.125,37.931 C169.76,41.5 186.354,40.773 201.617,35.85 C214.902,31.565 227.509,24.116 241.261,22.702" id="Shape" stroke="#867F5E" stroke-width="2"></path>
                <path d="M259.26,25.359 C264.042,26.475 268.657,28.391 273.309,30.031 C294.261,37.418 317.1,39.378 339.004,35.669 C354.284,33.081 369.005,27.812 384.201,24.825" id="Shape" stroke="#867F5E" stroke-width="2"></path>
                <path d="M402.24,23.496 C407.679,22.831 413.181,22.679 418.648,23.044 C427.669,23.648 436.543,25.65 445.543,26.51 C455.537,27.466 465.606,27.008 475.635,26.541 C492.805,25.742 509.974,24.919 527.142,24.073" id="Shape" stroke="#867F5E" stroke-width="2"></path>
                <path d="M545.141,23.416 C553.173,22.524 561.396,24.274 569.402,25.816 C595.472,30.837 667.160197,27.5457015 691.936197,18.2067015" id="Shape" stroke="#867F5E" stroke-width="2"></path>
                <path d="M379.72,9.443 L379.72,14.965" id="Shape" stroke="#867F5E" stroke-width="2"></path>
                <path d="M407.72,9.443 L407.72,13.97" id="Shape" stroke="#867F5E" stroke-width="2"></path>
                <path d="M412.72,9.943 L412.72,14.943" id="Shape" stroke="#867F5E" stroke-width="2"></path>
                <path d="M522.72,10.443 L522.72,14.943" id="Shape" stroke="#867F5E" stroke-width="2"></path>
                <path d="M551.22,8.943 L551.22,15.025" id="Shape" stroke="#867F5E" stroke-width="2"></path>
                <path d="M383.72,6.443 L400.75,6.443" id="Shape" stroke="#867F5E" stroke-width="2"></path>
                <path d="M527.22,4.943 L543.414,4.943" id="Shape" stroke="#867F5E" stroke-width="2"></path>
                <path d="M98.22,5.443 L116.248,5.443" id="Shape" stroke="#867F5E" stroke-width="2"></path>
                <path d="M241.72,6.443 L257.728,6.443" id="Shape" stroke="#867F5E" stroke-width="2"></path>
                <path d="M119.72,9.443 L119.72,15.627" id="Shape" stroke="#867F5E" stroke-width="2"></path>
                <path d="M123.22,9.943 L123.22,14.552" id="Shape" stroke="#867F5E" stroke-width="2"></path>
                <path d="M128.22,9.443 L128.22,16.113" id="Shape" stroke="#867F5E" stroke-width="2"></path>
                <path d="M138.22,10.443 L138.22,15.052" id="Shape" stroke="#867F5E" stroke-width="2"></path>
                <path d="M93.72,9.443 L93.72,13.443" id="Shape" stroke="#867F5E" stroke-width="2"></path>
                <path d="M89.72,9.943 L89.72,14.443" id="Shape" stroke="#867F5E" stroke-width="2"></path>
                <path d="M83.72,9.943 L83.72,14.443" id="Shape" stroke="#867F5E" stroke-width="2"></path>
                <path d="M236.22,9.443 L236.22,14.443" id="Shape" stroke="#867F5E" stroke-width="2"></path>
                <path d="M230.72,9.443 L230.72,14.468" id="Shape" stroke="#867F5E" stroke-width="2"></path>
                <path d="M225.72,9.443 L225.72,15.033" id="Shape" stroke="#867F5E" stroke-width="2"></path>
                <path d="M263.22,9.443 L263.22,15.033" id="Shape" stroke="#867F5E" stroke-width="2"></path>
                <path d="M267.22,10.443 L267.22,15.542" id="Shape" stroke="#867F5E" stroke-width="2"></path>
                <path d="M278.22,10.443 L278.22,15.186" id="Shape" stroke="#867F5E" stroke-width="2"></path>
                <path d="M287.72,10.443 L287.72,15.468" id="Shape" stroke="#867F5E" stroke-width="2"></path>
                <path d="M419.72,8.943 L419.72,15.519" id="Shape" stroke="#867F5E" stroke-width="2"></path>
                <path d="M430.22,9.443 L430.22,15.962" id="Shape" stroke="#867F5E" stroke-width="2"></path>
                <path d="M98.314,7.101 C99.354,9.167 100.394,11.233 101.434,13.299 C102.233,14.886 103.085,16.536 104.533,17.565 C106.265,18.796 108.629,18.91 110.633,18.203 C112.637,17.496 114.312,16.056 115.662,14.416" id="Shape" stroke="#867F5E" stroke-width="2"></path>
                <path d="M98.58,16.501 C100.216,20.124 100.259,24.689 103.245,27.313 C106.663,30.316 112.303,28.955 115.546,25.764" id="Shape" stroke="#867F5E" stroke-width="2"></path>
                <path d="M241.291,10.73 C242.922,11.488 243.946,13.109 245.272,14.324 C247.391,16.265 250.424,17.162 253.257,16.685 C256.091,16.208 258.663,14.368 260.03,11.841" id="Shape" stroke="#867F5E" stroke-width="2"></path>
                <path d="M240.648,15.834 C242.259,19.739 244.01,23.83 247.366,26.396 C250.722,28.962 256.206,29.257 258.741,25.878" id="Shape" stroke="#867F5E" stroke-width="2"></path>
                <path d="M384.281,11.384 C385.86,14.941 388.427,18.334 392.109,19.594 C395.791,20.854 400.605,19.148 401.65,15.399" id="Shape" stroke="#867F5E" stroke-width="2"></path>
                <path d="M384.579,17.352 C386.593,25.337 394.024,31.645 402.23,32.336" id="Shape" stroke="#867F5E" stroke-width="2"></path>
                <path d="M526.967,8.397 C527.338,12.085 530.087,15.284 533.488,16.758 C536.889,18.231 540.822,18.138 544.379,17.096" id="Shape" stroke="#867F5E" stroke-width="2"></path>
                <path d="M527.608,17.766 C530.206,23.582 535.701,28.016 541.935,29.327 C543.128,29.578 544.692,29.538 545.174,28.418" id="Shape" stroke="#867F5E" stroke-width="2"></path>
            </g>
        </g>
    </g>
</svg>