<?xml version="1.0" encoding="UTF-8" standalone="no"?>
<svg width="363px" height="482px" viewBox="0 0 363 482" version="1.1" xmlns="http://www.w3.org/2000/svg" xmlns:xlink="http://www.w3.org/1999/xlink" xmlns:sketch="http://www.bohemiancoding.com/sketch/ns">
  <style>
    @keyframes speedometer-animation {
        0% {fill: #fff0c1;}
        50% {fill: #FFC204;}
        100% {fill: #fff0c1;}
    }

    @keyframes circle1-animation {
        0% {fill: transparent;}
        79% {fill: transparent;}
        80% {fill: #FD7C7C;}
        82% {fill: #FD7C7C;}
        83% {fill: transparent;}
        100% {fill: transparent;}
    }

    @keyframes circle2-animation {
        0% {fill: transparent;}
        79% {fill: transparent;}
        80% {fill: #98DC56;}
        82% {fill: #98DC56;}
        83% {fill: transparent;}
        100% {fill: transparent;}
    }

    @keyframes circle3-animation {
        0% {fill: transparent;}
        79% {fill: transparent;}
        80% {fill: #BCC3F0;}
        82% {fill: #BCC3F0;}
        83% {fill: transparent;}
        100% {fill: transparent;}
    }

    @keyframes circle4-animation  {
        0% {fill: transparent;}
        79% {fill: transparent;}
        80% {fill: #66D2D9;}
        82% {fill: #66D2D9;}
        83% {fill: transparent;}
        100% {fill: transparent;}
    }

    #oval1 {
      fill: transparent;
      animation-name: circle1-animation;
      animation-duration: 3.5s;
      animation-delay: 1s;
      animation-iteration-count: infinite;
    }

    #oval2 {
      fill: transparent;
      animation-name: circle2-animation;
      animation-duration: 4.5s;
      animation-delay: 2s;
      animation-iteration-count: infinite;
    }

    #oval3 {
      fill: transparent;
      animation-name: circle3-animation;
      animation-duration: 7,5s;
      animation-delay: 3s;
      animation-iteration-count: infinite;
    }

    #oval4 {
      fill: transparent;
      animation-name: circle4-animation;
      animation-duration: 5.25s;
      animation-delay: 5s;
      animation-iteration-count: infinite;
    }

    #speedometer {
      fill: #fff0c1;
      animation-name: speedometer-animation;
      animation-duration: 3s;
      animation-delay: 2s;
      animation-iteration-count: infinite;
    }
  </style>
    <title>Group</title>
    <defs></defs>
    <g id="Page-1" stroke="none" stroke-width="1" fill="none" fill-rule="evenodd" sketch:type="MSPage">
        <g id="_x31_6" sketch:type="MSLayerGroup" transform="translate(-790.000000, 0.000000)">
            <g id="Group" transform="translate(790.000000, 0.000000)" sketch:type="MSShapeGroup">
                <path d="M361.285,37.661 L338.258,37.661 C338.178,37.572 338.07,37.509 337.942,37.495 C337.775,37.478 337.628,37.548 337.525,37.661 L200.083,37.661 L200.083,28.729 C200.083,28.177 199.635,27.729 199.083,27.729 L189.15,27.729 C188.598,27.729 188.15,28.177 188.15,28.729 L188.15,37.661 L182.088,37.661 L182.088,28.729 C182.088,28.177 181.64,27.729 181.088,27.729 L171.156,27.729 C170.604,27.729 170.156,28.177 170.156,28.729 L170.156,37.661 L154.683,37.661 L154.683,29.975 C154.683,29.423 154.235,28.975 153.683,28.975 L145.026,28.975 L145.026,19.955 C145.026,9.089 136.186,0.249 125.32,0.249 C114.454,0.249 105.614,9.089 105.614,19.955 L105.614,28.975 L96.957,28.975 C96.405,28.975 95.957,29.423 95.957,29.975 L95.957,37.661 L13.114,37.661 C12.562,37.661 12.114,38.109 12.114,38.661 L12.114,60.38 C12.114,60.932 12.562,61.38 13.114,61.38 L43.239,61.38 L43.239,71.698 L20.243,71.698 L13.114,71.698 C12.562,71.698 12.114,72.146 12.114,72.698 L12.114,157.772 L6.72,157.772 C6.168,157.772 5.72,158.22 5.72,158.772 L5.72,164.023 C2.625,164.506 0.247,167.182 0.247,170.41 C0.247,173.639 2.625,176.315 5.72,176.798 L5.72,191.626 C2.625,192.109 0.247,194.785 0.247,198.013 C0.247,201.242 2.625,203.918 5.72,204.401 L5.72,209.651 C5.72,210.203 6.168,210.651 6.72,210.651 L12.114,210.651 L12.114,384.081 C12.114,384.47 12.342,384.798 12.666,384.963 C12.843,385.245 13.142,385.443 13.499,385.443 L43.496,385.443 C43.499,403.879 43.499,422.23 43.499,440.437 C41.874,440.437 40.244,440.436 38.61,440.436 L38.61,440.436 C38.058,440.436 37.61,440.883 37.61,441.436 C37.61,441.989 38.057,442.436 38.61,442.436 C40.544,442.436 42.47,442.437 44.391,442.438 C44.427,442.442 44.463,442.444 44.5,442.444 C64.173,442.444 82.886,442.444 102.79,442.436 L102.79,471.428 L98.77,480.011 C98.625,480.321 98.648,480.683 98.832,480.972 C99.016,481.261 99.334,481.435 99.676,481.435 L132.566,481.435 C132.908,481.435 133.226,481.26 133.41,480.972 C133.594,480.684 133.617,480.321 133.472,480.011 L129.452,471.428 L129.452,442.435 L330.16,442.435 C330.712,442.435 331.16,441.987 331.16,441.435 L331.16,137.548 L341.106,137.548 C341.658,137.548 342.106,137.1 342.106,136.548 L342.106,91.335 C342.106,90.783 341.658,90.335 341.106,90.335 L331.186,90.335 C331.719,74.28 345.011,61.38 361.285,61.38 C361.837,61.38 362.285,60.932 362.285,60.38 L362.285,38.661 C362.285,38.109 361.837,37.661 361.285,37.661 L361.285,37.661 Z" id="Shape" fill="#F8E7A9"></path>
                <path d="M13.114,203.485 C13.5,263.442 13.5,324.442 13.5,384.442 L44.5,384.442 C44.5,324.442 44.5,263.442 44.239,203.528 C44.239,207.207 44.239,203.574 44.239,203.528 C44.5,282.442 44.5,362.442 44.5,441.442 C64.5,441.442 83.5,441.442 103.775,441.434 C102.758,441.434 103.464,441.434 103.775,441.434 C81.5,441.442 60.5,441.442 38.61,441.434" id="Shape" stroke="#867F5E" stroke-width="2"></path>
                <path d="M13.114,164.937 L13.114,72.698 L44.239,72.698 L44.239,164.937 L44.239,60.38" id="Shape" stroke="#867F5E" stroke-width="2"></path>
                <rect id="Rectangle-path" stroke="#867F5E" stroke-width="2" x="273.325" y="91.335" width="67.782" height="45.213"></rect>
                <path d="M316.459,136.548 L316.459,427.733 L128.452,427.733" id="Shape" stroke="#867F5E" stroke-width="2"></path>
                <path d="M103.79,427.733 L57.94,427.733 L57.94,203.485" id="Shape" stroke="#867F5E" stroke-width="2"></path>
                <path d="M57.94,164.937 L57.94,74.081 L316.459,74.081 L316.459,91.335" id="Shape" stroke="#867F5E" stroke-width="2"></path>
                <path d="M6.72,203.485 C3.697,203.485 1.247,201.035 1.247,198.012 C1.247,194.989 3.697,192.539 6.72,192.539" id="Shape" stroke="#867F5E" stroke-width="2"></path>
                <path d="M6.72,175.882 C3.697,175.882 1.247,173.432 1.247,170.409 C1.247,167.386 3.697,164.936 6.72,164.936" id="Shape" stroke="#867F5E" stroke-width="2"></path>
                <g transform="translate(81.000000, 350.000000)" stroke="#867F5E" stroke-width="2">
                    <rect id="Rectangle-path" x="15.847" y="0.365" width="38.548" height="10.946"></rect>
                    <path d="M11.035,0.365 C11.035,3.388 8.585,5.838 5.562,5.838 C2.539,5.838 0.089,3.388 0.089,0.365" id="Shape"></path>
                    <path d="M70.153,0.365 C70.153,3.388 67.703,5.838 64.68,5.838 C61.657,5.838 59.207,3.388 59.207,0.365" id="Shape"></path>
                </g>
                <rect id="Rectangle-path" stroke="#867F5E" stroke-width="2" x="13.114" y="38.661" width="348.171" height="21.719"></rect>
                <rect id="Rectangle-path" stroke="#867F5E" stroke-width="2" x="198.498" y="91.335" width="17.626" height="45.213"></rect>
                <rect id="Rectangle-path" stroke="#867F5E" stroke-width="2" x="216.125" y="100.422" width="9.932" height="9.932"></rect>
                <rect id="Rectangle-path" stroke="#867F5E" stroke-width="2" x="216.125" y="118.417" width="9.932" height="9.932"></rect>
                <rect id="Rectangle-path" stroke="#867F5E" stroke-width="2" x="188.566" y="100.422" width="9.932" height="9.932"></rect>
                <rect id="Rectangle-path" stroke="#867F5E" stroke-width="2" x="188.566" y="118.417" width="9.932" height="9.932"></rect>
                <rect id="Rectangle-path" stroke="#867F5E" stroke-width="2" x="57.94" y="91.335" width="17.626" height="45.213"></rect>
                <rect id="Rectangle-path" stroke="#867F5E" stroke-width="2" x="75.567" y="100.422" width="9.932" height="9.932"></rect>
                <rect id="Rectangle-path" stroke="#867F5E" stroke-width="2" x="75.567" y="118.417" width="9.932" height="9.932"></rect>
                <path d="M26.637,164.937 L167.925,164.937 C178.57,164.937 187.199,173.566 187.199,184.211 L187.199,184.211 C187.199,194.856 178.57,203.485 167.925,203.485 L26.637,203.485 L26.637,164.937 L26.637,164.937 Z" id="Shape" stroke="#867F5E" stroke-width="2"></path>
                <path d="M186.811,180.339 C185.019,189.128 177.245,195.742 167.926,195.742 L26.637,195.742" id="Shape" stroke="#867F5E" stroke-width="2"></path>
                <path d="M149.314,203.485 C154.134,208.14 160.695,211.004 167.925,211.004 C182.722,211.004 194.718,199.008 194.718,184.211 C194.718,169.414 182.722,157.418 167.925,157.418 C160.695,157.418 154.134,160.282 149.314,164.937" id="Shape" stroke="#867F5E" stroke-width="2"></path>
                <path d="M141.192,203.485 C147.177,211.772 156.921,217.165 167.925,217.165 C186.125,217.165 200.879,202.411 200.88,184.211 C200.88,166.011 186.126,151.257 167.926,151.257 C156.922,151.257 147.178,156.65 141.193,164.937" id="Shape" stroke="#867F5E" stroke-width="2"></path>
                <path d="M361.285,60.38 C344.189,60.38 330.16,74.239 330.16,91.335" id="Shape" stroke="#867F5E" stroke-width="2"></path>
                <path d="M57.94,235.5 L316.459,235.5" id="Shape" stroke="#867F5E" stroke-width="2"></path>
                <path d="M174.302,337.344 L57.94,337.344" id="Shape" stroke="#867F5E" stroke-width="2"></path>
                <path d="M174.302,350.365 L57.94,350.365" id="Shape" stroke="#867F5E" stroke-width="2"></path>
                <path d="M276.946,337.344 L316.459,337.344" id="Shape" stroke="#867F5E" stroke-width="2"></path>
                <rect id="Rectangle-path" stroke="#867F5E" stroke-width="2" x="39.41" y="84.517" width="4.828" height="69.835"></rect>
                <rect id="Rectangle-path" stroke="#867F5E" stroke-width="2" x="35.315" y="122.805" width="4.095" height="9.591"></rect>
                <rect id="Rectangle-path" stroke="#867F5E" stroke-width="2" x="35.315" y="106.02" width="4.095" height="9.591"></rect>
                <rect id="Rectangle-path" stroke="#867F5E" stroke-width="2" x="35.315" y="89.234" width="4.095" height="9.591"></rect>
                <rect id="Rectangle-path" stroke="#867F5E" stroke-width="2" x="13.114" y="72.698" width="7.129" height="311.382"></rect>
                <path id="Rectangle-path" stroke="#867F5E" stroke-width="2"></path>
                <rect id="Rectangle-path" stroke="#867F5E" stroke-width="2" x="20.243" y="158.771" width="6.394" height="50.879"></rect>
                <rect id="Rectangle-path" stroke="#867F5E" stroke-width="2" x="6.72" y="158.771" width="6.394" height="50.879"></rect>
                <path d="M128.452,441.435 L330.161,441.435 L330.161,136.548" id="Shape" stroke="#867F5E" stroke-width="2"></path>
                <circle id="Oval" stroke="#867F5E" stroke-width="2" cx="280.181" cy="98.191" r="2.234"></circle>
                <circle id="Oval" stroke="#867F5E" stroke-width="2" cx="280.181" cy="129.692" r="2.234"></circle>
                <path d="M20.243,259.198 L44.239,259.198" id="Shape" stroke="#867F5E" stroke-width="2"></path>
                <path d="M20.243,272.451 L44.239,272.451" id="Shape" stroke="#867F5E" stroke-width="2"></path>
                <path d="M20.243,285.705 L44.239,285.705" id="Shape" stroke="#867F5E" stroke-width="2"></path>
                <path d="M20.243,298.958 L44.239,298.958" id="Shape" stroke="#867F5E" stroke-width="2"></path>
                <path d="M20.243,312.211 L44.239,312.211" id="Shape" stroke="#867F5E" stroke-width="2"></path>
                <path d="M20.243,370.827 L44.239,370.827" id="Shape" stroke="#867F5E" stroke-width="2"></path>
                <g transform="translate(99.000000, 361.000000)" stroke="#867F5E" stroke-width="2">
                    <path d="M4.79,103.487 L29.452,103.487" id="Shape"></path>
                    <rect id="Rectangle-path" x="0.89" y="0.311" width="32.462" height="7.021"></rect>
                    <path d="M4.79,110.651 L4.79,7.332" id="Shape"></path>
                    <path d="M29.452,110.651 L29.452,7.332" id="Shape"></path>
                </g>
                <path d="M226.057,107.254 C227.951,107.457 229.86,107.55 231.763,107.642 C245.695,108.319 260.085,108.922 273.325,104.908" id="Shape" stroke="#867F5E" stroke-width="2"></path>
                <path d="M226.057,124.365 C241.715,126.764 257.788,126.394 273.325,123.314" id="Shape" stroke="#867F5E" stroke-width="2"></path>
                <path d="M85.499,106.815 C119.444,113.422 154.706,113.205 188.566,106.169" id="Shape" stroke="#867F5E" stroke-width="2"></path>
                <path d="M85.499,125.067 C119.927,130.116 155.746,134.411 188.566,123.829" id="Shape" stroke="#867F5E" stroke-width="2"></path>
                <path d="M226.057,103.968 C236.152,104.113 246.255,103.703 256.305,102.74 C262.179,102.177 268.316,101.312 273.327,98.352" id="Shape" stroke="#867F5E" stroke-width="2"></path>
                <path d="M132.566,480.434 L99.676,480.434 L103.79,471.651 L128.452,471.651 L132.566,480.434 Z" id="Shape" stroke="#867F5E" stroke-width="2"></path>
                <path d="M121.556,368.332 L121.556,464.487" id="Shape" stroke="#867F5E" stroke-width="2"></path>
                <g transform="translate(78.000000, 248.000000)" stroke-width="2" stroke="#867F5E">
                    <g>
                        <rect id="Rectangle-path" x="0.67" y="0.971" width="74.902" height="74.902"></rect>
                        <path d="M53.563,65.647 L22.679,65.647 C16.172,65.647 10.896,60.372 10.896,53.864 L10.896,22.98 C10.896,16.473 16.171,11.197 22.679,11.197 L53.563,11.197 C60.07,11.197 65.346,16.472 65.346,22.98 L65.346,53.864 C65.346,60.371 60.07,65.647 53.563,65.647 L53.563,65.647 Z" id="Shape"></path>
                        <circle id="Oval" cx="7.526" cy="7.827" r="2.234"></circle>
                        <circle id="Oval" cx="68.716" cy="7.827" r="2.234"></circle>
                        <circle id="Oval" cx="7.526" cy="69.017" r="2.234"></circle>
                        <circle id="Oval" cx="68.716" cy="69.017" r="2.234"></circle>
                    </g>
                    <path d="M11.588,37.555 C15.792,34.222 19.997,30.89 24.201,27.557 C25.856,28.678 25.074,32.214 27.058,32.458 C27.902,32.562 28.613,31.867 29.164,31.218 C33.445,26.177 36.903,20.319 42.144,16.285 C44.357,14.582 46.85,13.244 49.492,12.342" id="Shape"></path>
                    <path d="M11.398,45.829 C13.879,43.537 16.949,41.888 20.23,41.085 C20.192,44.362 24.654,46.024 27.665,44.728 C30.676,43.432 32.539,40.463 34.539,37.867 C40.409,30.246 48.657,24.879 56.74,19.661 C58.741,18.369 61.558,17.131 63.271,18.786" id="Shape"></path>
                    <path d="M38.503,64.36 C41.937,64.787 44.809,61.863 46.805,59.037 C52.043,51.62 56.149,42.508 64.434,38.793" id="Shape"></path>
                </g>
                <g transform="translate(231.000000, 154.000000)" stroke="#867F5E">
                    <g stroke-width="2">
                        <path d="M45.276,14.361 C53.57,22.19 53.57,34.882 45.276,42.711 C36.982,50.54 23.535,50.54 15.242,42.711 C6.948,34.882 6.948,22.19 15.242,14.361 C23.535,6.533 36.982,6.533 45.276,14.361 L45.276,14.361 Z" id="Shape"></path>
                        <path d="M48.03,28.536 L12.488,28.536 C12.488,19.272 20.444,11.762 30.259,11.762 C40.073,11.762 48.03,19.272 48.03,28.536 L48.03,28.536 Z" id="speedometer"></path>
                        <path d="M47.523,0.352 L41.078,6.436 C34.232,3.451 26.286,3.451 19.441,6.436 L12.996,0.352 L0.4,12.24 L6.845,18.324 C3.683,24.786 3.683,32.286 6.845,38.747 L0.4,44.831 L12.995,56.72 L19.44,50.636 C26.286,53.621 34.232,53.621 41.077,50.636 L47.522,56.72 L60.117,44.831 L53.672,38.747 C56.834,32.285 56.834,24.785 53.672,18.324 L60.117,12.24 L47.523,0.352 L47.523,0.352 Z" id="Shape"></path>
                        <path d="M12.635,45.171 C13.508,45.995 13.508,47.33 12.635,48.154 C11.762,48.978 10.348,48.978 9.475,48.154 C8.602,47.33 8.602,45.995 9.475,45.171 C10.348,44.347 11.763,44.347 12.635,45.171 L12.635,45.171 Z" id="Shape"></path>
                        <path d="M12.635,8.919 C13.508,9.743 13.508,11.078 12.635,11.902 C11.762,12.726 10.348,12.726 9.475,11.902 C8.602,11.078 8.602,9.743 9.475,8.919 C10.348,8.095 11.763,8.095 12.635,8.919 L12.635,8.919 Z" id="Shape"></path>
                        <path d="M51.042,45.171 C51.915,45.995 51.915,47.33 51.042,48.154 C50.169,48.978 48.755,48.978 47.882,48.154 C47.009,47.33 47.009,45.995 47.882,45.171 C48.755,44.347 50.169,44.347 51.042,45.171 L51.042,45.171 Z" id="Shape"></path>
                        <path d="M51.042,8.919 C51.915,9.743 51.915,11.078 51.042,11.902 C50.169,12.726 48.755,12.726 47.882,11.902 C47.009,11.078 47.009,9.743 47.882,8.919 C48.755,8.095 50.169,8.095 51.042,8.919 L51.042,8.919 Z" id="Shape"></path>
                        <path d="M30.259,28.536 L35.511,17.173" id="Shape"></path>
                        <path d="M12.488,28.536 L48.03,28.536" id="Shape"></path>
                    </g>
                    <path d="M13.479,23.641 C14.286,24.005 15.092,24.37 15.899,24.734" id="Shape"></path>
                    <path d="M15.43,20.537 C16.37,21 17.257,21.569 18.07,22.23" id="Shape"></path>
                    <path d="M18.28,17.225 C18.779,17.754 19.279,18.282 19.778,18.811" id="Shape"></path>
                    <path d="M21.585,14.825 C21.995,15.782 22.493,16.702 23.07,17.568" id="Shape"></path>
                    <path d="M26.03,13.432 C26.228,14.541 26.426,15.65 26.624,16.759" id="Shape"></path>
                    <path d="M30.868,12.878 C30.835,14.049 30.598,15.215 30.172,16.306" id="Shape"></path>
                    <path d="M35.135,13.913 C35.026,14.769 34.816,15.613 34.511,16.42" id="Shape"></path>
                    <path d="M39.396,15.953 C38.972,16.853 38.453,17.708 37.85,18.5" id="Shape"></path>
                    <path d="M42.766,17.936 C42.173,18.679 41.579,19.422 40.986,20.166" id="Shape"></path>
                    <path d="M42.968,22.985 C43.884,22.741 44.743,22.286 45.46,21.665" id="Shape"></path>
                    <path d="M43.983,25.693 C45.023,25.573 46.057,25.393 47.077,25.155" id="Shape"></path>
                </g>
                <path d="M195.06,100.424 C195.54,103.69 196.02,106.955 196.5,110.22 C196.513,110.114 196.525,110.008 196.538,109.902" id="Shape" stroke="#867F5E"></path>
                <path id="Shape" stroke="#867F5E" d="M193.577,100.881 C193.54,103.928 193.558,106.976 193.631,110.022 C193.633,110.088 193.642,110.167 193.702,110.196 C193.762,110.225 193.833,110.116 193.769,110.097"></path>
                <path d="M196.22,119.119 C196.325,119.251 196.311,119.438 196.292,119.606 C195.992,122.266 195.692,124.926 195.391,127.586" id="Shape" stroke="#867F5E"></path>
                <path d="M194.526,119.043 C194.011,122.072 193.606,125.12 193.314,128.178" id="Shape" stroke="#867F5E"></path>
                <path id="Shape" stroke="#867F5E" d="M218.013,118.694 C217.972,121.891 217.981,125.089 218.041,128.286"></path>
                <path d="M219.715,118.798 C219.99,122.067 220.266,125.336 220.541,128.605 C220.542,128.615 220.545,128.626 220.55,128.635" id="Shape" stroke="#867F5E"></path>
                <path id="Shape" stroke="#867F5E" d="M218.47,100.653 C218.412,103.81 218.456,106.97 218.601,110.124 C218.691,110.043 218.723,109.903 218.676,109.791"></path>
                <path d="M220.649,101.111 C220.457,104.162 220.182,107.208 219.823,110.243" id="Shape" stroke="#867F5E"></path>
                <path id="Shape" stroke="#867F5E" d="M221.829,100.997 C221.738,104.183 221.646,107.368 221.554,110.554 C221.55,110.451 221.547,110.348 221.543,110.244"></path>
                <path id="Shape" stroke="#867F5E" d="M78.014,100.536 C78.15,103.773 78.252,107.012 78.32,110.252 C78.315,110.04 78.309,109.828 78.304,109.616"></path>
                <path d="M80.302,100.91 L79.438,110.63 C79.425,110.776 79.438,110.964 79.576,111.012 C79.714,111.06 79.751,110.744 79.622,110.815" id="Shape" stroke="#867F5E"></path>
                <path id="Shape" stroke="#867F5E" d="M81.729,101.053 L81.729,109.617"></path>
                <path d="M77.828,118.354 C77.562,121.605 77.296,124.856 77.03,128.107" id="Shape" stroke="#867F5E"></path>
                <path id="Shape" stroke="#867F5E" d="M79.196,119.038 C79.062,122.347 79.004,125.659 79.023,128.971"></path>
                <path d="M80.757,118.18 C80.76,121.515 81.033,124.849 81.572,128.139" id="Shape" stroke="#867F5E"></path>
                <path d="M149.906,204.293 C148.348,205.633 146.789,206.973 145.231,208.313 C145.32,208.241 145.41,208.169 145.499,208.096" id="Shape" stroke="#867F5E"></path>
                <path d="M151.648,205.684 C150.311,207.161 149.115,208.765 148.08,210.467" id="Shape" stroke="#867F5E"></path>
                <path d="M154.499,207.641 C153.553,209.072 152.606,210.504 151.66,211.935 C151.627,211.985 151.57,212.042 151.517,212.012 C151.465,211.983 151.578,211.909 151.561,211.967" id="Shape" stroke="#867F5E"></path>
                <path d="M156.251,208.675 C155.606,210.389 155.055,212.138 154.602,213.912" id="Shape" stroke="#867F5E"></path>
                <path d="M160.383,210.514 C159.595,212.129 159.048,213.861 158.765,215.636" id="Shape" stroke="#867F5E"></path>
                <path d="M163.011,211.073 C162.704,212.785 162.396,214.497 162.089,216.21" id="Shape" stroke="#867F5E"></path>
                <path id="Shape" stroke="#867F5E" d="M166.505,211.18 C166.548,212.893 166.511,214.608 166.395,216.318"></path>
                <path id="Shape" stroke="#867F5E" d="M169.496,211.18 C169.604,213.118 169.712,215.057 169.82,216.995 C169.823,217.056 169.838,217.131 169.896,217.147 C169.954,217.163 169.978,217.038 169.92,217.056"></path>
                <path d="M172.829,210.945 C173.09,212.701 173.512,214.434 174.09,216.113" id="Shape" stroke="#867F5E"></path>
                <path d="M176.975,209.254 C177.71,211.016 178.519,212.747 179.4,214.441 C179.404,214.343 179.407,214.246 179.411,214.148" id="Shape" stroke="#867F5E"></path>
                <path d="M180.606,208.195 C181.111,209.954 181.616,211.712 182.121,213.471" id="Shape" stroke="#867F5E"></path>
                <path d="M183.21,206.766 C184.116,208.219 185.048,209.657 186.004,211.077 C186.052,211.149 186.109,211.226 186.193,211.247 C186.277,211.267 186.383,211.185 186.348,211.106" id="Shape" stroke="#867F5E"></path>
                <path d="M185.671,204.576 C186.923,205.881 188.114,207.245 189.238,208.661" id="Shape" stroke="#867F5E"></path>
                <path d="M188.221,202.134 C189.752,203.259 191.36,204.279 193.03,205.184" id="Shape" stroke="#867F5E"></path>
                <path d="M189.994,199.605 C191.236,200.258 192.477,200.911 193.719,201.564 C194.254,201.845 194.802,202.136 195.205,202.587" id="Shape" stroke="#867F5E"></path>
                <path d="M191.945,196.875 C193.868,197.467 195.728,198.263 197.484,199.247" id="Shape" stroke="#867F5E"></path>
                <path d="M192.878,193.957 C194.742,194.533 196.659,194.936 198.597,195.159" id="Shape" stroke="#867F5E"></path>
                <path d="M193.906,191.339 C196.096,191.786 198.311,192.106 200.538,192.296" id="Shape" stroke="#867F5E"></path>
                <path id="Shape" stroke="#867F5E" d="M195.053,187.887 C194.948,187.879 194.843,187.871 194.738,187.864 C196.594,187.916 198.45,187.968 200.305,188.021"></path>
                <path id="Shape" stroke="#867F5E" d="M194.935,183.961 C196.948,183.794 198.97,183.733 200.99,183.78"></path>
                <path d="M194.616,181.108 C194.511,180.992 194.681,180.83 194.825,180.769 C196.501,180.062 198.281,179.6 200.09,179.404" id="Shape" stroke="#867F5E"></path>
                <path d="M194.081,176.693 C195.686,175.857 197.379,175.189 199.123,174.703 C199.022,174.721 198.922,174.739 198.821,174.757" id="Shape" stroke="#867F5E"></path>
                <path d="M192.628,173.256 C192.487,173.013 192.754,172.741 192.989,172.587 C194.349,171.696 195.708,170.805 197.068,169.914" id="Shape" stroke="#867F5E"></path>
                <path d="M190.557,169.341 C192.065,167.998 193.573,166.654 195.082,165.311" id="Shape" stroke="#867F5E"></path>
                <path d="M187.925,165.926 C189.057,164.478 190.262,163.086 191.532,161.757" id="Shape" stroke="#867F5E"></path>
                <path d="M187.824,158.152 C186.645,159.534 185.542,160.981 184.523,162.484" id="Shape" stroke="#867F5E"></path>
                <path d="M184.108,156.317 C184.152,156.352 184.174,156.236 184.118,156.23 C184.062,156.224 184.024,156.284 184,156.335 C183.201,158.045 182.502,159.801 181.907,161.592 C181.912,161.489 181.918,161.386 181.923,161.283" id="Shape" stroke="#867F5E"></path>
                <path d="M180.746,154.242 C179.933,155.953 179.212,157.708 178.59,159.497 C178.569,159.558 178.548,159.431 178.61,159.412" id="Shape" stroke="#867F5E"></path>
                <path d="M176.882,152.872 C176.231,154.525 175.529,156.157 174.775,157.765" id="Shape" stroke="#867F5E"></path>
                <path d="M172.898,151.919 C172.655,153.725 172.275,155.513 171.76,157.262 L171.76,156.944" id="Shape" stroke="#867F5E"></path>
                <path id="Shape" stroke="#867F5E" d="M167.911,151.693 C167.865,153.406 167.818,155.118 167.772,156.83"></path>
                <path d="M163.766,151.691 C163.892,153.511 164.027,155.33 164.17,157.149 C164.176,157.227 164.273,157.277 164.275,157.355 C164.277,157.433 164.138,157.33 164.214,157.351" id="Shape" stroke="#867F5E"></path>
                <path d="M159.979,152.839 C160.445,154.587 160.912,156.335 161.378,158.083" id="Shape" stroke="#867F5E"></path>
                <path d="M155.792,154.086 C156.221,156.04 156.814,157.959 157.561,159.815" id="Shape" stroke="#867F5E"></path>
                <path d="M152.234,155.917 C153.226,157.652 154.37,159.3 155.647,160.838" id="Shape" stroke="#867F5E"></path>
                <path d="M149.331,157.764 C150.023,159.41 150.962,160.952 152.107,162.322" id="Shape" stroke="#867F5E"></path>
                <path d="M146.175,160.037 C147.48,161.167 148.676,162.422 149.742,163.78" id="Shape" stroke="#867F5E"></path>
                <path d="M144.287,161.914 C145.339,162.779 146.416,163.615 147.514,164.42" id="Shape" stroke="#867F5E"></path>
                <path d="M60.741,91.292 C60.413,106.26 61.047,121.249 62.639,136.135" id="Shape" stroke="#867F5E"></path>
                <path d="M30.259,164.884 C30.522,168.376 30.745,171.871 30.969,175.366 C31.565,184.674 32.16,193.982 32.756,203.29" id="Shape" stroke="#867F5E"></path>
                <path d="M34.332,165.278 C34.678,178.151 35.024,191.025 35.37,203.898 C35.352,203.357 35.333,202.815 35.315,202.274" id="Shape" stroke="#867F5E"></path>
                <path id="Shape" stroke="#867F5E" d="M22.877,259.469 C23.041,263.694 23.069,267.925 22.958,272.152"></path>
                <path d="M25.748,260.164 C25.542,264.285 25.698,268.425 26.213,272.519" id="Shape" stroke="#867F5E"></path>
                <path d="M23.321,285.855 C23.412,289.856 23.745,293.851 24.315,297.812 C24.347,298.034 24.432,298.31 24.655,298.334 C24.878,298.358 24.83,297.875 24.659,298.02" id="Shape" stroke="#867F5E"></path>
                <path id="Shape" stroke="#867F5E" d="M25.962,286.885 C26.093,291.051 26.224,295.218 26.355,299.384 C26.373,298.87 26.391,298.357 26.409,297.843"></path>
                <path id="Shape" stroke="#867F5E" d="M28.854,286.884 C28.615,290.879 28.691,294.893 29.081,298.877"></path>
                <path d="M131.084,350.423 C131.033,353.82 130.762,357.213 130.273,360.574 C130.257,360.685 130.219,360.821 130.108,360.842 C129.998,360.863 129.969,360.63 130.074,360.67" id="Shape" stroke="#867F5E"></path>
                <path id="Shape" stroke="#867F5E" d="M129.213,350.937 C129.167,354.42 129.121,357.902 129.075,361.385"></path>
                <path id="Shape" stroke="#867F5E" d="M126.103,350.765 C126.035,354.247 125.968,357.73 125.9,361.212"></path>
                <path id="Shape" stroke="#867F5E" d="M127.51,361.553 C127.469,363.553 127.428,365.552 127.386,367.552"></path>
                <path d="M123.86,464.55 C124.05,467.135 124.241,469.721 124.431,472.306" id="Shape" stroke="#867F5E"></path>
                <path d="M123.025,471.164 C124.075,474.139 125.126,477.114 126.176,480.09 C126.22,480.214 126.296,480.362 126.428,480.36 C126.56,480.357 126.526,480.081 126.419,480.159" id="Shape" stroke="#867F5E"></path>
                <path d="M121.639,471.853 C122.079,474.748 122.518,477.643 122.958,480.538" id="Shape" stroke="#867F5E"></path>
                <path d="M105.78,480.509 C106.493,477.426 107.385,474.383 108.449,471.403 C108.596,471.592 108.655,471.846 108.606,472.08" id="Shape" stroke="#867F5E"></path>
                <g transform="translate(174.000000, 250.000000)" stroke="#867F5E">
                    <g stroke-width="2">
                        <g transform="translate(0.000000, 33.000000)" id="Shape">
                            <g transform="translate(6.000000, 7.000000)">
                                <g>
                                    <path d="M45.624,26.162 L25.452,26.162 L25.452,10.807 L8.858,10.807 L8.858,26.162 L0.181,26.162 L0.181,0.302 L45.624,0.302"></path>
                                    <path d="M45.624,65.613 L42.656,65.613 L42.656,56.479 L45.624,56.479 L13.501,56.479 L13.501,51.457 L13.501,15.974 L20.809,15.974 L20.809,51.457 L45.624,51.457"></path>
                                    <path d="M45.624,123.16 L45.624,123.16 C39.727,123.16 35.315,117.772 36.449,111.986 C40.087,93.436 40.914,75.962 33.977,65.613 L45.623,65.613"></path>
                                </g>
                                <g transform="translate(45.000000, 0.000000)">
                                    <path d="M0.624,26.162 L20.797,26.162 L20.797,10.807 L37.39,10.807 L37.39,26.162 L46.068,26.162 L46.068,0.302 L0.624,0.302"></path>
                                    <path d="M0.624,65.613 L3.593,65.613 L3.593,56.479 L0.624,56.479 L32.747,56.479 L32.747,51.457 L32.747,15.974 L25.44,15.974 L25.44,51.457 L0.624,51.457"></path>
                                    <path d="M0.624,123.16 L0.624,123.16 C6.521,123.16 10.933,117.772 9.798,111.986 C6.16,93.436 5.333,75.962 12.27,65.613 L0.624,65.613"></path>
                                </g>
                            </g>
                            <path d="M26.809,54.344 L76.44,54.344"></path>
                            <path d="M45.165,97.163 L0.302,97.163 L0.302,0.223 L102.946,0.223 L102.946,97.163 L58.084,97.163"></path>
                        </g>
                        <g>
                            <circle id="Oval" cx="11.119" cy="11.634" r="10.817"></circle>
                            <circle id="oval1" cx="11.119" cy="11.634" r="6.851"></circle>
                        </g>
                        <g transform="translate(81.000000, 0.000000)">
                            <circle id="Oval" cx="11.13" cy="11.634" r="10.817"></circle>
                            <circle id="oval4" cx="11.13" cy="11.634" r="6.851"></circle>
                        </g>
                        <g transform="translate(27.000000, 0.000000)">
                            <circle id="Oval" cx="11.122" cy="11.634" r="10.817"></circle>
                            <circle id="oval2" cx="11.122" cy="11.634" r="6.851"></circle>
                        </g>
                        <g transform="translate(54.000000, 0.000000)">
                            <circle id="Oval" cx="11.126" cy="11.634" r="10.817"></circle>
                            <circle id="oval3" cx="11.126" cy="11.634" r="6.851"></circle>
                        </g>
                    </g>
                    <path d="M42.299,109.024 C43.46,110.339 44.622,111.654 45.783,112.969 C46.461,113.736 47.154,114.517 48.04,115.03 C48.926,115.543 50.052,115.751 50.978,115.314 C52.61,114.543 52.978,112.185 54.599,111.391 C55.422,110.988 56.391,111.082 57.29,110.902 C59.042,110.553 60.398,109.205 61.64,107.921" id="Shape"></path>
                    <path d="M44.021,114.039 C45.483,117.028 46.945,120.017 48.407,123.006 C48.861,123.934 49.377,124.927 50.307,125.378 C51.387,125.903 52.735,125.506 53.643,124.721 C54.552,123.936 55.113,122.833 55.633,121.751 C56.154,120.669 56.674,119.554 57.53,118.712 C57.978,118.271 58.555,117.821 58.545,117.193" id="Shape"></path>
                    <path d="M45.643,123.541 C46.459,126.612 47.465,129.955 50.117,131.705 C50.277,131.811 50.449,131.912 50.64,131.934 C50.86,131.96 51.078,131.877 51.28,131.787 C54.274,130.46 56.039,127.41 57.859,124.688 C57.901,124.625 57.968,124.552 58.04,124.577 C58.112,124.602 58.03,124.744 57.996,124.676" id="Shape"></path>
                    <path d="M45.925,131.089 C48.337,137.271 50.777,143.57 51.241,150.189 C51.373,152.073 51.341,153.981 50.953,155.83 C50.482,158.074 49.481,160.205 48.056,162" id="Shape"></path>
                    <path d="M45.023,139.165 C46.902,142.886 47.886,147.055 47.868,151.224 C47.855,154.32 47.051,157.789 44.408,159.402" id="Shape"></path>
                    <path d="M42.512,155.898 C43.525,155.512 43.887,154.276 44.003,153.199 C44.171,151.645 44.11,150.066 43.824,148.529" id="Shape"></path>
                    <path d="M50.829,162.525 C53.653,159.233 54.26,154.595 54.209,150.259 C54.158,145.922 53.576,141.524 54.505,137.287 C54.85,135.712 55.748,133.903 57.359,133.821" id="Shape"></path>
                    <path d="M54.543,162.47 C54.893,160.825 55.242,159.18 55.592,157.535 C55.924,155.971 56.26,154.396 56.886,152.924 C57.511,151.452 58.452,150.074 59.779,149.182" id="Shape"></path>
                    <path d="M59.038,138.347 C57.483,139.941 56.614,142.183 56.689,144.409 C56.699,144.692 56.725,144.983 56.85,145.237 C57.277,146.102 58.5,146.077 59.453,145.923" id="Shape"></path>
                    <path d="M44.5,105.731 C44.921,107.287 45.657,108.757 46.651,110.025 C46.913,110.36 47.2,110.686 47.564,110.904 C48.684,111.576 50.219,110.988 51.015,109.952 C51.81,108.916 52.044,107.566 52.222,106.272" id="Shape"></path>
                    <path d="M7.711,5.895 C8.567,8.387 9.424,10.88 10.28,13.372" id="Shape"></path>
                    <path d="M38.81,5.372 C38.629,7.994 38.448,10.615 38.266,13.237" id="Shape"></path>
                    <path d="M61.393,17.379 C62.755,15.319 64.118,13.258 65.48,11.198" id="Shape"></path>
                    <path id="Shape" d="M85.674,12.848 C88.075,12.948 90.485,12.846 92.87,12.543"></path>
                    <path d="M19.475,57.179 C22.038,58.363 24.6,59.549 27.161,60.737" id="Shape"></path>
                    <path d="M19.781,60.768 C22.349,61.075 24.894,61.576 27.387,62.264" id="Shape"></path>
                    <path d="M20.021,63.42 C22.381,63.645 24.741,63.87 27.101,64.095" id="Shape"></path>
                    <path d="M76.89,59.075 C79.041,58.934 81.178,58.594 83.266,58.06" id="Shape"></path>
                    <path id="Shape" d="M76.659,60.173 C78.866,60.086 81.073,60 83.28,59.913"></path>
                    <path d="M76.888,62.448 C79.344,62.539 81.793,62.852 84.193,63.382" id="Shape"></path>
                    <path id="Shape" d="M29.388,87.577 L29.388,91.231"></path>
                    <path id="Shape" d="M31.444,88.034 C31.465,89.19 31.311,90.349 30.987,91.459"></path>
                    <path d="M33.927,88.025 C33.565,89.214 33.351,90.447 33.289,91.688" id="Shape"></path>
                    <path d="M36.216,87.807 C36.314,89.27 36.561,90.723 36.953,92.136" id="Shape"></path>
                </g>
                <path d="M316.541,138.39 C320.885,138.286 325.236,138.452 329.559,138.885" id="Shape" stroke="#867F5E"></path>
                <path d="M316.541,140.721 C320.501,140.809 324.461,140.897 328.421,140.986 C329.019,140.999 329.676,141.035 330.112,141.444" id="Shape" stroke="#867F5E"></path>
                <g transform="translate(96.000000, 1.000000)" stroke="#867F5E">
                    <rect id="Rectangle-path" stroke-width="2" x="93.15" y="27.729" width="9.932" height="9.932"></rect>
                    <rect id="Rectangle-path" stroke-width="2" x="75.155" y="27.729" width="9.932" height="9.932"></rect>
                    <path d="M48.025,28.975 L48.025,18.955 C48.025,8.624 39.65,0.249 29.319,0.249 L29.319,0.249 C18.988,0.249 10.613,8.624 10.613,18.955 L10.613,28.975" id="Shape" stroke-width="2"></path>
                    <rect id="Rectangle-path" stroke-width="2" x="0.957" y="28.975" width="56.725" height="8.686"></rect>
                    <path d="M32.859,28.975 L32.859,14.269 C32.859,12.314 31.274,10.729 29.319,10.729 L29.319,10.729 C27.364,10.729 25.779,12.314 25.779,14.269 L25.779,28.975" id="Shape" stroke-width="2"></path>
                    <path d="M74.96,35.432 C78.413,35.367 81.86,35.008 85.252,34.36" id="Shape"></path>
                    <path id="Shape" d="M75.312,33.095 C78.629,33.255 81.96,33.119 85.253,32.687"></path>
                    <path d="M92.925,34.315 C93.718,34.96 94.815,35.043 95.836,35.099 C98.355,35.235 100.873,35.371 103.392,35.507" id="Shape"></path>
                    <path d="M93.288,33.42 C96.505,33.616 99.75,33.348 102.891,32.626" id="Shape"></path>
                    <path id="Shape" d="M52.064,29.319 C52.01,32.059 51.955,34.8 51.901,37.54"></path>
                    <path d="M44.634,29.49 C44.838,31.89 45.043,34.29 45.247,36.689" id="Shape"></path>
                    <path id="Shape" d="M42.043,29.663 C42.197,32.062 42.351,34.461 42.506,36.86"></path>
                    <path d="M6.109,28.975 C6.007,31.719 5.827,34.46 5.57,37.194" id="Shape"></path>
                </g>
                <path d="M337.889,37.992 C337.095,45.375 336.473,52.777 336.024,60.19 C336.038,59.862 336.052,59.534 336.066,59.206" id="Shape" stroke="#867F5E"></path>
                <path id="Shape" stroke="#867F5E" d="M330.976,38.88 C331.056,45.96 331.137,53.04 331.217,60.12"></path>
                <path d="M302.251,38.885 C302.132,45.887 301.961,52.889 301.74,59.888" id="Shape" stroke="#867F5E"></path>
                <path id="Shape" stroke="#867F5E" d="M298.839,38.653 C298.745,45.791 298.651,52.928 298.556,60.066 C298.575,59.855 298.595,59.645 298.614,59.434"></path>
                <path d="M285.902,38.197 C285.807,45.294 286.257,52.398 287.247,59.426" id="Shape" stroke="#867F5E"></path>
                <path d="M342.567,39.224 C342.759,46.193 342.515,53.175 341.836,60.114" id="Shape" stroke="#867F5E"></path>
                <path d="M344.71,39.221 C344.959,46.185 345.208,53.15 345.456,60.114" id="Shape" stroke="#867F5E"></path>
                <path d="M233.509,38.531 C233.067,45.697 232.74,52.87 232.526,60.046 C232.557,59.728 232.587,59.41 232.618,59.092" id="Shape" stroke="#867F5E"></path>
            </g>
        </g>
    </g>
</svg>
