<?xml version="1.0" encoding="UTF-8" standalone="no"?>
<svg width="585px" height="651px" viewBox="0 0 585 651" version="1.1" xmlns="http://www.w3.org/2000/svg" xmlns:xlink="http://www.w3.org/1999/xlink" xmlns:sketch="http://www.bohemiancoding.com/sketch/ns">
    <style>
      @keyframes speedometer-animation {
          0% {fill: #fff0c1;}
          50% {fill: #FFC204;}
          100% {fill: #fff0c1;}
      }

      @keyframes circle1-animation {
          0% {fill: transparent;}
          79% {fill: transparent;}
          80% {fill: #FD7C7C;}
          82% {fill: #FD7C7C;}
          83% {fill: transparent;}
          100% {fill: transparent;}
      }

      @keyframes circle2-animation {
          0% {fill: transparent;}
          79% {fill: transparent;}
          80% {fill: #98DC56;}
          82% {fill: #98DC56;}
          83% {fill: transparent;}
          100% {fill: transparent;}
      }

      @keyframes circle3-animation {
          0% {fill: transparent;}
          79% {fill: transparent;}
          80% {fill: #BCC3F0;}
          82% {fill: #BCC3F0;}
          83% {fill: transparent;}
          100% {fill: transparent;}
      }

      @keyframes circle4-animation  {
          0% {fill: transparent;}
          79% {fill: transparent;}
          80% {fill: #66D2D9;}
          82% {fill: #66D2D9;}
          83% {fill: transparent;}
          100% {fill: transparent;}
      }

      #circle1 {
        fill: transparent;
        animation-name: circle1-animation;
        animation-duration: 3.5s;
        animation-delay: 1s;
        animation-iteration-count: infinite;
      }

      #circle2 {
        fill: transparent;
        animation-name: circle2-animation;
        animation-duration: 4.5s;
        animation-delay: 2s;
        animation-iteration-count: infinite;
      }

      #circle3 {
        fill: transparent;
        animation-name: circle3-animation;
        animation-duration: 7,5s;
        animation-delay: 3s;
        animation-iteration-count: infinite;
      }

      #circle4 {
        fill: transparent;
        animation-name: circle4-animation;
        animation-duration: 5.25s;
        animation-delay: 5s;
        animation-iteration-count: infinite;
      }

      #speedometer {
        fill: #fff0c1;
        animation-name: speedometer-animation;
        animation-duration: 3s;
        animation-delay: 2s;
        animation-iteration-count: infinite;
      }
    </style>
    <title>cimon server</title>
    <defs></defs>
    <g id="Page-1" stroke="none" stroke-width="1" fill="none" fill-rule="evenodd" sketch:type="MSPage">
        <g id="server-2" sketch:type="MSLayerGroup" transform="translate(2.000000, 1.000000)" stroke="#575E62" stroke-width="3">
            <path d="M17.73106,295.7827 L17.73106,559.3927 L63.16306,559.3927 L63.16306,295.7827 L63.16306,643.1127 L146.11936,643.1127" id="Stroke-1" sketch:type="MSShapeGroup"></path>
            <path d="M17.73106,239.5137 L17.73106,104.8747 L63.16306,104.8747 L63.16306,239.5137 L63.16306,86.8937" id="Stroke-3" sketch:type="MSShapeGroup"></path>
            <path d="M397.5551,132.0787 L496.4951,132.0787 L496.4951,198.0757 L397.5551,198.0757 L397.5551,132.0787 L397.5551,132.0787 Z" id="Stroke-5" sketch:type="MSShapeGroup"></path>
            <path d="M460.5181,198.0757 L460.5181,623.1127 L186.0871,623.1127" id="Stroke-7" sketch:type="MSShapeGroup"></path>
            <path d="M150.08906,623.1127 L83.16306,623.1127 L83.16306,295.7827" id="Stroke-9" sketch:type="MSShapeGroup"></path>
            <path d="M83.16306,239.5137 L83.16306,106.8937 L460.51806,106.8937 L460.51806,132.0787" id="Stroke-11" sketch:type="MSShapeGroup"></path>
            <path d="M480.5171,239.5137 L496.4941,239.5137 L496.4941,295.7817 L480.5171,295.7817 L480.5171,239.5137 L480.5171,239.5137 Z" id="Stroke-13" sketch:type="MSShapeGroup"></path>
            <path d="M379.9431,298.6477 C397.06393,298.6477 410.9431,284.76853 410.9431,267.6477 C410.9431,250.52687 397.06393,236.6477 379.9431,236.6477 C362.82227,236.6477 348.9431,250.52687 348.9431,267.6477 C348.9431,284.76853 362.82227,298.6477 379.9431,298.6477 L379.9431,298.6477 Z" id="Stroke-15" sketch:type="MSShapeGroup"></path>
            <path d="M405.8821,267.6477 L354.0031,267.6477 C354.0031,253.3217 365.6171,241.7087 379.9431,241.7087 C394.2691,241.7087 405.8821,253.3217 405.8821,267.6477 L405.8821,267.6477 L405.8821,267.6477 Z" id="speedometer" sketch:type="MSShapeGroup"></path>
            <path d="M405.1431,224.0627 L395.7351,233.4717 C385.7431,228.8557 374.1441,228.8557 364.1521,233.4717 L354.7441,224.0637 L336.3591,242.4487 L345.7671,251.8567 C341.1511,261.8487 341.1511,273.4477 345.7671,283.4397 L336.3591,292.8477 L354.7441,311.2327 L364.1521,301.8247 C374.1441,306.4407 385.7431,306.4407 395.7351,301.8247 L405.1431,311.2327 L423.5281,292.8477 L414.1201,283.4397 C418.7361,273.4477 418.7361,261.8487 414.1201,251.8567 L423.5281,242.4487 L405.1431,224.0627 L405.1431,224.0627 Z" id="Stroke-19" sketch:type="MSShapeGroup"></path>
            <path d="M351.9121,298.9397 C353.713101,298.9397 355.1731,297.479701 355.1731,295.6787 C355.1731,293.877699 353.713101,292.4177 351.9121,292.4177 C350.111099,292.4177 348.6511,293.877699 348.6511,295.6787 C348.6511,297.479701 350.111099,298.9397 351.9121,298.9397 L351.9121,298.9397 Z" id="Stroke-21" sketch:type="MSShapeGroup"></path>
            <path d="M351.9121,242.8787 C353.713101,242.8787 355.1731,241.418701 355.1731,239.6177 C355.1731,237.816699 353.713101,236.3567 351.9121,236.3567 C350.111099,236.3567 348.6511,237.816699 348.6511,239.6177 C348.6511,241.418701 350.111099,242.8787 351.9121,242.8787 L351.9121,242.8787 Z" id="Stroke-23" sketch:type="MSShapeGroup"></path>
            <path d="M407.9731,298.9397 C409.774101,298.9397 411.2341,297.479701 411.2341,295.6787 C411.2341,293.877699 409.774101,292.4177 407.9731,292.4177 C406.172099,292.4177 404.7121,293.877699 404.7121,295.6787 C404.7121,297.479701 406.172099,298.9397 407.9731,298.9397 L407.9731,298.9397 Z" id="Stroke-25" sketch:type="MSShapeGroup"></path>
            <path d="M407.9731,242.8787 C409.774101,242.8787 411.2341,241.418701 411.2341,239.6177 C411.2341,237.816699 409.774101,236.3567 407.9731,236.3567 C406.172099,236.3567 404.7121,237.816699 404.7121,239.6177 C404.7121,241.418701 406.172099,242.8787 407.9731,242.8787 L407.9731,242.8787 Z" id="Stroke-27" sketch:type="MSShapeGroup"></path>
            <path d="M379.9431,267.6477 L387.6091,250.0757" id="speedometer-cursor" sketch:type="MSShapeGroup"></path>
            <path d="M354.0031,267.6477 L405.8821,267.6477" id="Stroke-31" sketch:type="MSShapeGroup"></path>
            <path d="M480.5171,302.8057 C484.9291,302.8057 488.5061,306.3827 488.5061,310.7947 C488.5061,315.2067 484.9291,318.7837 480.5171,318.7837" id="Stroke-33" sketch:type="MSShapeGroup"></path>
            <path d="M8.398058,295.7827 C3.986058,295.7827 0.409058,292.2057 0.409058,287.7937 C0.409058,283.3817 3.986058,279.8047 8.398058,279.8047" id="Stroke-35" sketch:type="MSShapeGroup"></path>
            <path d="M8.398058,255.4917 C3.986058,255.4917 0.409058,251.9147 0.409058,247.5027 C0.409058,243.0907 3.986058,239.5137 8.398058,239.5137" id="Stroke-37" sketch:type="MSShapeGroup"></path>
            <path d="M480.5171,216.5137 C484.9291,216.5137 488.5061,220.0907 488.5061,224.5017 C488.5061,228.9137 484.9291,232.4907 480.5171,232.4907" id="Stroke-39" sketch:type="MSShapeGroup"></path>
            <path d="M139.9541,510.1807 L196.2221,510.1807 L196.2221,526.1577 L139.9541,526.1577 L139.9541,510.1807 L139.9541,510.1807 Z" id="Stroke-41" sketch:type="MSShapeGroup"></path>
            <path d="M132.9311,510.1807 C132.9311,514.5927 129.3541,518.1697 124.9421,518.1697 C120.5301,518.1697 116.9531,514.5927 116.9531,510.1807" id="Stroke-43" sketch:type="MSShapeGroup"></path>
            <path d="M219.2231,510.1807 C219.2231,514.5927 215.6461,518.1697 211.2341,518.1697 C206.8221,518.1697 203.2451,514.5927 203.2451,510.1807" id="Stroke-45" sketch:type="MSShapeGroup"></path>
            <path d="M17.73106,55.1917 L525.94906,55.1917 L525.94906,86.8937 L17.73106,86.8937 L17.73106,55.1917 L17.73106,55.1917 Z" id="Stroke-47" sketch:type="MSShapeGroup"></path>
            <path d="M496.4951,145.3437 L510.9931,145.3437 L510.9931,159.8417 L496.4951,159.8417 L496.4951,145.3437 L496.4951,145.3437 Z" id="Stroke-49" sketch:type="MSShapeGroup"></path>
            <path d="M496.4951,171.6097 L510.9931,171.6097 L510.9931,186.1077 L496.4951,186.1077 L496.4951,171.6097 L496.4951,171.6097 Z" id="Stroke-51" sketch:type="MSShapeGroup"></path>
            <path d="M480.5171,598.0767 L496.4951,598.0767 L496.4951,532.0807 L480.5171,532.0807" id="Stroke-53" sketch:type="MSShapeGroup"></path>
            <path d="M496.4951,545.3457 L510.9931,545.3457 L510.9931,559.8437 L496.4951,559.8437 L496.4951,545.3457 L496.4951,545.3457 Z" id="Stroke-55" sketch:type="MSShapeGroup"></path>
            <path d="M496.4951,571.6117 L510.9931,571.6117 L510.9931,586.1097 L496.4951,586.1097 L496.4951,571.6117 L496.4951,571.6117 Z" id="Stroke-57" sketch:type="MSShapeGroup"></path>
            <path d="M288.3321,132.0787 L314.0611,132.0787 L314.0611,198.0757 L288.3321,198.0757 L288.3321,132.0787 L288.3321,132.0787 Z" id="Stroke-59" sketch:type="MSShapeGroup"></path>
            <path d="M314.0611,145.3437 L328.5591,145.3437 L328.5591,159.8417 L314.0611,159.8417 L314.0611,145.3437 L314.0611,145.3437 Z" id="Stroke-61" sketch:type="MSShapeGroup"></path>
            <path d="M314.0611,171.6097 L328.5591,171.6097 L328.5591,186.1077 L314.0611,186.1077 L314.0611,171.6097 L314.0611,171.6097 Z" id="Stroke-63" sketch:type="MSShapeGroup"></path>
            <path d="M273.8341,145.3437 L288.3321,145.3437 L288.3321,159.8417 L273.8341,159.8417 L273.8341,145.3437 L273.8341,145.3437 Z" id="Stroke-65" sketch:type="MSShapeGroup"></path>
            <path d="M273.8341,171.6097 L288.3321,171.6097 L288.3321,186.1077 L273.8341,186.1077 L273.8341,171.6097 L273.8341,171.6097 Z" id="Stroke-67" sketch:type="MSShapeGroup"></path>
            <path d="M274.6871,40.6937 L289.1851,40.6937 L289.1851,55.1917 L274.6871,55.1917 L274.6871,40.6937 L274.6871,40.6937 Z" id="Stroke-69" sketch:type="MSShapeGroup"></path>
            <path d="M248.4201,40.6937 L262.9181,40.6937 L262.9181,55.1917 L248.4201,55.1917 L248.4201,40.6937 L248.4201,40.6937 Z" id="Stroke-71" sketch:type="MSShapeGroup"></path>
            <path d="M83.16306,132.0787 L108.89206,132.0787 L108.89206,198.0757 L83.16306,198.0757 L83.16306,132.0787 L83.16306,132.0787 Z" id="Stroke-73" sketch:type="MSShapeGroup"></path>
            <path d="M108.8921,145.3437 L123.3901,145.3437 L123.3901,159.8417 L108.8921,159.8417 L108.8921,145.3437 L108.8921,145.3437 Z" id="Stroke-75" sketch:type="MSShapeGroup"></path>
            <path d="M108.8921,171.6097 L123.3901,171.6097 L123.3901,186.1077 L108.8921,186.1077 L108.8921,171.6097 L108.8921,171.6097 Z" id="Stroke-77" sketch:type="MSShapeGroup"></path>
            <path d="M37.47006,239.5137 L243.70606,239.5137 C259.24406,239.5137 271.84006,252.1097 271.84006,267.6477 L271.84006,267.6477 C271.84006,283.1857 259.24406,295.7817 243.70606,295.7817 L37.47006,295.7817 L37.47006,239.5137 L37.47006,239.5137 Z" id="Stroke-79" sketch:type="MSShapeGroup"></path>
            <path d="M271.27206,261.9967 C268.65606,274.8267 257.30806,284.4797 243.70606,284.4797 L37.47006,284.4797" id="Stroke-81" sketch:type="MSShapeGroup"></path>
            <path d="M216.5401,295.7827 C223.5751,302.5777 233.1531,306.7577 243.7061,306.7577 C265.3061,306.7577 282.8151,289.2477 282.8151,267.6487 C282.8151,246.0497 265.3051,228.5397 243.7061,228.5397 C233.1531,228.5397 223.5751,232.7197 216.5401,239.5147" id="Stroke-83" sketch:type="MSShapeGroup"></path>
            <path d="M204.6841,295.7827 C213.4211,307.8787 227.6441,315.7517 243.7061,315.7517 C270.2721,315.7517 291.8091,294.2147 291.8091,267.6487 C291.8091,241.0827 270.2721,219.5457 243.7061,219.5457 C227.6441,219.5457 213.4211,227.4177 204.6841,239.5147" id="Stroke-85" sketch:type="MSShapeGroup"></path>
            <path d="M525.9491,86.8937 C500.9941,86.8937 480.5171,107.1237 480.5171,132.0787" id="Stroke-87" sketch:type="MSShapeGroup"></path>
            <path d="M327.9281,460.2537 L298.4821,460.2537 L298.4821,437.8407 L274.2611,437.8407 L274.2611,460.2537 L261.5941,460.2537 L261.5941,422.5067 L327.9281,422.5067" id="Stroke-89" sketch:type="MSShapeGroup"></path>
            <path d="M327.9281,517.8407 L323.5941,517.8407 L323.5941,504.5067 L327.9281,504.5067 L281.0381,504.5067 L281.0381,497.1767 L281.0381,445.3837 L291.7051,445.3837 L291.7051,497.1767 L327.9281,497.1767" id="Stroke-91" sketch:type="MSShapeGroup"></path>
            <path d="M327.9281,601.8407 L327.9281,601.8407 C319.3211,601.8407 312.8791,593.9767 314.5361,585.5297 C319.8471,558.4527 321.0531,532.9467 310.9281,517.8407 L327.9281,517.8407" id="Stroke-93" sketch:type="MSShapeGroup"></path>
            <path d="M327.9281,460.2537 L357.3731,460.2537 L357.3731,437.8407 L381.5941,437.8407 L381.5941,460.2537 L394.2611,460.2537 L394.2611,422.5067 L327.9281,422.5067" id="Stroke-95" sketch:type="MSShapeGroup"></path>
            <path d="M327.9271,517.8407 L332.2611,517.8407 L332.2611,504.5067 L327.9271,504.5067 L374.8171,504.5067 L374.8171,497.1767 L374.8171,445.3837 L364.1501,445.3837 L364.1501,497.1767 L327.9281,497.1767" id="Stroke-97" sketch:type="MSShapeGroup"></path>
            <path d="M327.9271,601.8407 L327.9271,601.8407 C336.5341,601.8407 342.9751,593.9767 341.3191,585.5297 C336.0081,558.4527 334.8021,532.9467 344.9271,517.8407 L327.9271,517.8407" id="Stroke-99" sketch:type="MSShapeGroup"></path>
            <path d="M291.7051,491.1737 L364.1501,491.1737" id="Stroke-101" sketch:type="MSShapeGroup"></path>
            <path d="M318.4991,553.6747 L253.0131,553.6747 L253.0131,412.1747 L402.8421,412.1747 L402.8421,553.6747 L337.3561,553.6747" id="Stroke-103" sketch:type="MSShapeGroup"></path>
            <path d="M268.8031,396.4497 C277.52312,396.4497 284.5921,389.38072 284.5921,380.6607 C284.5921,371.940676 277.52312,364.8717 268.8031,364.8717 C260.083076,364.8717 253.0141,371.940676 253.0141,380.6607 C253.0141,389.38072 260.083076,396.4497 268.8031,396.4497 L268.8031,396.4497 Z" id="Stroke-105" sketch:type="MSShapeGroup"></path>
            <path d="M268.8031,390.6607 C274.32595,390.6607 278.8031,386.18355 278.8031,380.6607 C278.8031,375.137853 274.32595,370.6607 268.8031,370.6607 C263.280253,370.6607 258.8031,375.137853 258.8031,380.6607 C258.8031,386.18355 263.280253,390.6607 268.8031,390.6607 L268.8031,390.6607 Z" id="circle1" sketch:type="MSShapeGroup"></path>
            <path d="M387.0531,396.4497 C395.77312,396.4497 402.8421,389.38072 402.8421,380.6607 C402.8421,371.940676 395.77312,364.8717 387.0531,364.8717 C378.333076,364.8717 371.2641,371.940676 371.2641,380.6607 C371.2641,389.38072 378.333076,396.4497 387.0531,396.4497 L387.0531,396.4497 Z" id="Stroke-109" sketch:type="MSShapeGroup"></path>
            <path d="M387.0531,390.6607 C392.57595,390.6607 397.0531,386.18355 397.0531,380.6607 C397.0531,375.137853 392.57595,370.6607 387.0531,370.6607 C381.530253,370.6607 377.0531,375.137853 377.0531,380.6607 C377.0531,386.18355 381.530253,390.6607 387.0531,390.6607 L387.0531,390.6607 Z" id="circle4" sketch:type="MSShapeGroup"></path>
            <path d="M308.2191,396.4497 C316.93912,396.4497 324.0081,389.38072 324.0081,380.6607 C324.0081,371.940676 316.93912,364.8717 308.2191,364.8717 C299.499076,364.8717 292.4301,371.940676 292.4301,380.6607 C292.4301,389.38072 299.499076,396.4497 308.2191,396.4497 L308.2191,396.4497 Z" id="Stroke-113" sketch:type="MSShapeGroup"></path>
            <path d="M308.2191,390.6607 C313.74195,390.6607 318.2191,386.18355 318.2191,380.6607 C318.2191,375.137853 313.74195,370.6607 308.2191,370.6607 C302.696253,370.6607 298.2191,375.137853 298.2191,380.6607 C298.2191,386.18355 302.696253,390.6607 308.2191,390.6607 L308.2191,390.6607 Z" id="circle2" sketch:type="MSShapeGroup"></path>
            <path d="M347.6361,396.4497 C356.35612,396.4497 363.4251,389.38072 363.4251,380.6607 C363.4251,371.940676 356.35612,364.8717 347.6361,364.8717 C338.916076,364.8717 331.8471,371.940676 331.8471,380.6607 C331.8471,389.38072 338.916076,396.4497 347.6361,396.4497 L347.6361,396.4497 Z" id="Stroke-117" sketch:type="MSShapeGroup"></path>
            <path d="M347.6361,390.6607 C353.15895,390.6607 357.6361,386.18355 357.6361,380.6607 C357.6361,375.137853 353.15895,370.6607 347.6361,370.6607 C342.113253,370.6607 337.6361,375.137853 337.6361,380.6607 C337.6361,386.18355 342.113253,390.6607 347.6361,390.6607 L347.6361,390.6607 Z" id="circle3" sketch:type="MSShapeGroup"></path>
            <path d="M83.16306,342.5137 L460.51806,342.5137" id="Stroke-121" sketch:type="MSShapeGroup"></path>
            <path d="M253.01306,491.1737 L83.16306,491.1737" id="Stroke-123" sketch:type="MSShapeGroup"></path>
            <path d="M253.01306,510.1807 L83.16306,510.1807" id="Stroke-125" sketch:type="MSShapeGroup"></path>
            <path d="M402.8421,491.1737 L460.5181,491.1737" id="Stroke-127" sketch:type="MSShapeGroup"></path>
            <path d="M56.11506,122.1267 L63.16306,122.1267 L63.16306,224.0637 L56.11506,224.0637 L56.11506,122.1267 L56.11506,122.1267 Z" id="Stroke-129" sketch:type="MSShapeGroup"></path>
            <path d="M50.13706,178.0147 L56.11506,178.0147 L56.11506,192.0147 L50.13706,192.0147 L50.13706,178.0147 L50.13706,178.0147 Z" id="Stroke-131" sketch:type="MSShapeGroup"></path>
            <path d="M50.13706,153.5137 L56.11506,153.5137 L56.11506,167.5137 L50.13706,167.5137 L50.13706,153.5137 L50.13706,153.5137 Z" id="Stroke-133" sketch:type="MSShapeGroup"></path>
            <path d="M50.13706,129.0127 L56.11506,129.0127 L56.11506,143.0127 L50.13706,143.0127 L50.13706,129.0127 L50.13706,129.0127 Z" id="Stroke-135" sketch:type="MSShapeGroup"></path>
            <path d="M17.73106,104.8747 L28.13706,104.8747 L28.13706,559.3927 L17.73106,559.3927 L17.73106,104.8747 L17.73106,104.8747 Z" id="Stroke-137" sketch:type="MSShapeGroup"></path>
            <path d="M28.13706,230.5147 L37.47006,230.5147 L37.47006,304.7817 L28.13706,304.7817 L28.13706,230.5147 L28.13706,230.5147 Z" id="Stroke-139" sketch:type="MSShapeGroup"></path>
            <path d="M8.398058,230.5147 L17.731058,230.5147 L17.731058,304.7817 L8.398058,304.7817 L8.398058,230.5147 L8.398058,230.5147 Z" id="Stroke-141" sketch:type="MSShapeGroup"></path>
            <path d="M113.4221,362.1777 L222.7551,362.1777 L222.7551,471.5107 L113.4221,471.5107 L113.4221,362.1777 L113.4221,362.1777 Z" id="Stroke-143" sketch:type="MSShapeGroup"></path>
            <path d="M190.6281,456.5827 L145.5481,456.5827 C136.0491,456.5827 128.3491,448.8827 128.3491,439.3837 L128.3491,394.3037 C128.3491,384.8047 136.0491,377.1047 145.5481,377.1047 L190.6281,377.1047 C200.1271,377.1047 207.8271,384.8047 207.8271,394.3037 L207.8271,439.3837 C207.8271,448.8827 200.1271,456.5827 190.6281,456.5827 L190.6281,456.5827 L190.6281,456.5827 Z" id="Stroke-145" sketch:type="MSShapeGroup"></path>
            <path d="M123.4301,375.4457 C125.231101,375.4457 126.6911,373.985701 126.6911,372.1847 C126.6911,370.383699 125.231101,368.9237 123.4301,368.9237 C121.629099,368.9237 120.1691,370.383699 120.1691,372.1847 C120.1691,373.985701 121.629099,375.4457 123.4301,375.4457 L123.4301,375.4457 Z" id="Stroke-147" sketch:type="MSShapeGroup"></path>
            <path d="M212.7471,375.4457 C214.548101,375.4457 216.0081,373.985701 216.0081,372.1847 C216.0081,370.383699 214.548101,368.9237 212.7471,368.9237 C210.946099,368.9237 209.4861,370.383699 209.4861,372.1847 C209.4861,373.985701 210.946099,375.4457 212.7471,375.4457 L212.7471,375.4457 Z" id="Stroke-149" sketch:type="MSShapeGroup"></path>
            <path d="M123.4301,464.7637 C125.231101,464.7637 126.6911,463.303701 126.6911,461.5027 C126.6911,459.701699 125.231101,458.2417 123.4301,458.2417 C121.629099,458.2417 120.1691,459.701699 120.1691,461.5027 C120.1691,463.303701 121.629099,464.7637 123.4301,464.7637 L123.4301,464.7637 Z" id="Stroke-151" sketch:type="MSShapeGroup"></path>
            <path d="M212.7471,464.7637 C214.548101,464.7637 216.0081,463.303701 216.0081,461.5027 C216.0081,459.701699 214.548101,458.2417 212.7471,458.2417 C210.946099,458.2417 209.4861,459.701699 209.4861,461.5027 C209.4861,463.303701 210.946099,464.7637 212.7471,464.7637 L212.7471,464.7637 Z" id="Stroke-153" sketch:type="MSShapeGroup"></path>
            <path d="M208.8191,42.5137 L208.8191,27.8877 C208.8191,12.8077 196.5941,0.5837 181.5151,0.5837 L181.5151,0.5837 C166.4351,0.5837 154.2111,12.8077 154.2111,27.8877 L154.2111,42.5137" id="lamp" fill="#FEDE7B" sketch:type="MSShapeGroup"></path>
            <path d="M140.1151,42.5137 L222.9161,42.5137 L222.9161,55.1917 L140.1151,55.1917 L140.1151,42.5137 L140.1151,42.5137 Z" id="Stroke-157" sketch:type="MSShapeGroup"></path>
            <path d="M189.921,643.1127 L480.5171,643.1127 L480.5171,198.0757" id="Stroke-159" sketch:type="MSShapeGroup"></path>
            <path d="M186.6821,42.5137 L186.6821,21.0477 C186.6821,18.1947 184.3691,15.8807 181.5151,15.8807 C178.6611,15.8807 176.3481,18.1937 176.3481,21.0477 L176.3481,42.5137" id="Stroke-161" fill="#FFFFFF" sketch:type="MSShapeGroup"></path>
            <path d="M407.5631,145.3477 C409.364101,145.3477 410.8241,143.887701 410.8241,142.0867 C410.8241,140.285699 409.364101,138.8257 407.5631,138.8257 C405.762099,138.8257 404.3021,140.285699 404.3021,142.0867 C404.3021,143.887701 405.762099,145.3477 407.5631,145.3477 L407.5631,145.3477 Z" id="Stroke-163" sketch:type="MSShapeGroup"></path>
            <path d="M407.5631,191.3287 C409.364101,191.3287 410.8241,189.868701 410.8241,188.0677 C410.8241,186.266699 409.364101,184.8067 407.5631,184.8067 C405.762099,184.8067 404.3021,186.266699 404.3021,188.0677 C404.3021,189.868701 405.762099,191.3287 407.5631,191.3287 L407.5631,191.3287 Z" id="Stroke-165" sketch:type="MSShapeGroup"></path>
            <path d="M28.13706,377.1047 L63.16306,377.1047" id="Stroke-167" sketch:type="MSShapeGroup"></path>
            <path d="M28.13706,396.4507 L63.16306,396.4507" id="Stroke-169" sketch:type="MSShapeGroup"></path>
            <path d="M28.13706,415.7967 L63.16306,415.7967" id="Stroke-171" sketch:type="MSShapeGroup"></path>
            <path d="M28.13706,435.1417 L63.16306,435.1417" id="Stroke-173" sketch:type="MSShapeGroup"></path>
            <path d="M28.13706,454.4877 L63.16306,454.4877" id="Stroke-175" sketch:type="MSShapeGroup"></path>
            <path d="M28.13706,540.0477 L63.16306,540.0477" id="Stroke-177" sketch:type="MSShapeGroup"></path>
            <path d="M150.0891,628.2129 L186.0871,628.2129" id="Stroke-179" sketch:type="MSShapeGroup"></path>
            <path d="M144.3961,525.951 L191.7801,525.951 L191.7801,532.909519 L144.3961,532.909519 L144.3961,525.951 L144.3961,525.951 Z" id="Stroke-181" sketch:type="MSShapeGroup"></path>
            <path d="M150.0891,635.3134 L150.0891,532.9095" id="Stroke-183" sketch:type="MSShapeGroup"></path>
            <path d="M186.0871,635.3134 L186.0871,532.9095" id="Stroke-185" sketch:type="MSShapeGroup"></path>
            <path d="M511.9931,179.5087 C545.1371,195.0087 531.7001,240.3807 530.7211,272.4527 C529.7061,305.6797 525.4861,339.3637 532.4401,371.8697 C534.3701,380.8947 537.2561,389.9417 542.8631,397.2717 C548.4701,404.6027 557.2091,410.0137 566.4341,409.7137 C570.9391,409.5677 575.6031,407.9107 578.3871,404.3657 C581.1721,400.8217 581.4741,395.2057 578.3201,391.9857 C573.7981,387.3677 565.8991,389.9087 560.6461,393.6747 C536.7871,410.7817 531.0381,444.3117 534.9791,473.4037 C537.2341,490.0487 541.9801,506.7727 539.4371,523.3757 C537.1471,538.3287 526.3741,549.4127 511.9941,551.8037" id="Stroke-187" sketch:type="MSShapeGroup"></path>
            <path d="M328.5591,155.3157 C331.3231,155.6117 334.1101,155.7477 336.8881,155.8817 C357.2241,156.8697 378.2291,157.7507 397.5551,151.8917" id="Stroke-189" sketch:type="MSShapeGroup"></path>
            <path d="M328.5591,180.2917 C351.4141,183.7927 374.8761,183.2527 397.5551,178.7587" id="Stroke-191" sketch:type="MSShapeGroup"></path>
            <path d="M123.3901,154.6747 C172.9391,164.3197 224.4111,164.0017 273.8351,153.7317" id="Stroke-193" sketch:type="MSShapeGroup"></path>
            <path d="M123.3901,181.3167 C173.6441,188.6857 225.9271,194.9557 273.8351,179.5087" id="Stroke-195" sketch:type="MSShapeGroup"></path>
            <path d="M328.5591,150.5197 C343.2941,150.7307 358.0421,150.1327 372.7121,148.7277 C381.2861,147.9067 390.2441,146.6437 397.5581,142.3217" id="Stroke-197" sketch:type="MSShapeGroup"></path>
            <path d="M192.0921,647.7007 L144.0841,647.7007 L150.0891,634.8807 L186.0871,634.8807 L192.0921,647.7007 L192.0921,647.7007 Z" id="Stroke-199" sketch:type="MSShapeGroup"></path>
            <path d="M176.0211,536.4057 L176.0211,628.2392" id="Stroke-201" sketch:type="MSShapeGroup"></path>
        </g>
    </g>
</svg>
