<?xml version="1.0" encoding="UTF-8" standalone="no"?>
<svg width="532px" height="428px" viewBox="0 0 532 428" version="1.1" xmlns="http://www.w3.org/2000/svg" xmlns:xlink="http://www.w3.org/1999/xlink" xmlns:sketch="http://www.bohemiancoding.com/sketch/ns">
    <!-- Generator: Sketch 3.2.2 (9983) - http://www.bohemiancoding.com/sketch -->
    <title>Group</title>
    <desc>Created with Sketch.</desc>
    <defs></defs>
    <g id="Page-1" stroke="none" stroke-width="1" fill="none" fill-rule="evenodd" sketch:type="MSPage">
        <g id="Group" sketch:type="MSLayerGroup" transform="translate(0.000000, 1.000000)">
            <g transform="translate(294.000000, 125.000000)" sketch:type="MSShapeGroup">
                <rect id="Rectangle-path" fill="#FFF3B0" x="0.607" y="75.317" width="72.084" height="15.241"></rect>
                <path d="M175.373,34.558 C173.455,34.558 171.852,35.905 171.44,37.701 L156.605,37.701 L156.605,29.476 C156.605,28.979 156.202,28.576 155.705,28.576 L151.136,28.576 L151.136,23.052 C151.136,10.748 141.125,0.738 128.822,0.738 C119.395,0.738 111.32,6.617 108.057,14.899 L85.637,17.995 C82.783,15.271 78.929,13.586 74.681,13.586 C66.223,13.586 59.308,20.233 58.837,28.576 L54.222,28.576 C53.725,28.576 53.322,28.979 53.322,29.476 L53.322,37.701 L36.509,37.701 C36.098,35.905 34.494,34.558 32.575,34.558 C30.346,34.558 28.533,36.371 28.533,38.6 C28.533,40.829 30.346,42.642 32.575,42.642 C34.494,42.642 36.097,41.296 36.509,39.5 L53.322,39.5 L53.322,47.724 C53.322,48.221 53.725,48.624 54.222,48.624 L58.791,48.624 L58.791,53.776 C58.791,53.819 58.81,53.856 58.815,53.897 C58.823,53.957 58.83,54.014 58.85,54.072 C58.872,54.134 58.905,54.187 58.94,54.242 C58.96,54.275 58.968,54.312 58.993,54.343 L68.073,65.52 C68.244,65.73 68.5,65.853 68.771,65.853 L75.494,65.853 C70.934,72.563 66.762,79.583 63.115,86.77 C63.11,86.78 63.111,86.791 63.106,86.801 C63.083,86.852 63.075,86.907 63.061,86.962 C63.046,87.025 63.025,87.085 63.023,87.148 C63.023,87.158 63.017,87.166 63.017,87.176 C63.017,87.218 63.035,87.254 63.041,87.294 C63.05,87.361 63.057,87.427 63.081,87.491 C63.101,87.543 63.131,87.586 63.16,87.632 C63.191,87.684 63.219,87.736 63.261,87.782 C63.303,87.827 63.353,87.858 63.403,87.894 C63.44,87.921 63.468,87.957 63.51,87.979 C63.519,87.984 63.53,87.982 63.539,87.986 C63.648,88.037 63.767,88.068 63.893,88.071 C63.901,88.071 63.908,88.076 63.916,88.076 L63.919,88.076 L69.646,88.076 L69.646,114.767 C69.646,115.219 69.986,115.578 70.42,115.642 C70.535,116.152 70.755,116.635 71.101,117.048 C71.671,117.73 72.473,118.149 73.359,118.228 L76.396,118.498 L74.069,122.427 L68.599,131.663 C68.146,132.428 68.018,133.324 68.238,134.185 C68.459,135.046 69.002,135.77 69.766,136.223 C70.287,136.531 70.868,136.689 71.457,136.689 C71.733,136.689 72.013,136.654 72.288,136.584 C73.149,136.363 73.873,135.82 74.326,135.055 L79.338,126.593 L80.942,127.543 L75.318,137.038 C74.865,137.803 74.737,138.699 74.958,139.56 C75.179,140.422 75.722,141.145 76.486,141.598 C77.007,141.906 77.588,142.064 78.176,142.064 C78.453,142.064 78.732,142.029 79.007,141.959 C79.869,141.738 80.593,141.195 81.046,140.43 L86.669,130.935 L88.273,131.885 L83.567,139.83 C83.114,140.595 82.986,141.491 83.207,142.352 C83.428,143.213 83.971,143.937 84.735,144.39 C85.256,144.698 85.836,144.856 86.425,144.856 C86.702,144.856 86.981,144.821 87.257,144.751 C88.118,144.53 88.842,143.988 89.295,143.223 L94.458,134.505 C94.458,134.504 94.459,134.504 94.459,134.504 L96.79,130.569 L100.317,130.569 L100.317,133.184 C100.317,133.681 100.72,134.084 101.217,134.084 L101.904,134.084 L101.904,151.211 L101.247,151.211 C100.75,151.211 100.347,151.614 100.347,152.111 L100.347,154.727 L99.505,154.727 C99.008,154.727 98.605,155.13 98.605,155.627 L98.605,170.294 L92.378,173.196 C92.337,173.215 92.31,173.249 92.274,173.273 C92.216,173.311 92.156,173.345 92.109,173.394 C92.07,173.436 92.046,173.486 92.015,173.533 C91.983,173.583 91.946,173.628 91.924,173.685 C91.901,173.745 91.897,173.809 91.886,173.872 C91.878,173.919 91.858,173.962 91.858,174.012 L91.858,177.527 C91.858,178.024 92.261,178.427 92.758,178.427 L110.455,178.427 L121.405,178.427 C121.902,178.427 122.305,178.024 122.305,177.527 L122.305,155.627 C122.305,155.13 121.902,154.727 121.405,154.727 L120.562,154.727 L120.562,152.111 C120.562,151.614 120.159,151.211 119.662,151.211 L118.946,151.211 L118.946,134.084 L119.633,134.084 C120.13,134.084 120.533,133.681 120.533,133.184 L120.533,130.569 L141.152,130.569 C141.649,130.569 142.052,130.166 142.052,129.669 L142.052,115.669 L144.602,115.669 C145.099,115.669 145.502,115.266 145.502,114.769 L145.502,76.589 C145.502,76.092 145.099,75.689 144.602,75.689 L142.052,75.689 L142.052,65.272 L150.93,54.344 C150.955,54.313 150.963,54.276 150.983,54.243 C151.017,54.188 151.05,54.135 151.072,54.073 C151.092,54.015 151.099,53.958 151.107,53.898 C151.113,53.857 151.131,53.82 151.131,53.777 L151.131,48.625 L155.7,48.625 C156.197,48.625 156.6,48.222 156.6,47.725 L156.6,39.501 L171.435,39.501 C171.846,41.297 173.45,42.643 175.368,42.643 C177.597,42.643 179.411,40.83 179.411,38.601 C179.411,36.372 177.602,34.558 175.373,34.558 L175.373,34.558 Z" id="Shape" fill="#FFF3B0"></path>
                <g transform="translate(0.000000, 1.000000)" stroke="#272724">
                    <g transform="translate(0.000000, 74.000000)" id="Shape">
                        <path d="M70.482,0.317 L0.607,0.317" stroke-width="1.8"></path>
                        <path d="M70.548,15.557 L0.607,15.557" stroke-width="1.8"></path>
                        <path d="M46.067,0.317 L46.067,15.617" stroke-width="0.6"></path>
                        <path d="M42.264,0.317 L42.264,15.617" stroke-width="0.6"></path>
                        <path d="M34.659,0.317 L34.659,15.617" stroke-width="0.6"></path>
                        <path d="M38.462,0.317 L38.462,15.617" stroke-width="0.6"></path>
                        <path d="M57.389,0.317 L57.389,15.617" stroke-width="0.6"></path>
                        <path d="M53.587,0.317 L53.587,15.617" stroke-width="0.6"></path>
                        <path d="M49.784,0.317 L49.784,15.617" stroke-width="0.6"></path>
                        <path d="M30.942,0.317 L30.942,15.617" stroke-width="0.6"></path>
                        <path d="M27.139,0.317 L27.139,15.617" stroke-width="0.6"></path>
                        <path d="M19.534,0.317 L19.534,15.617" stroke-width="0.6"></path>
                        <path d="M23.337,0.317 L23.337,15.617" stroke-width="0.6"></path>
                        <path d="M11.929,0.317 L11.929,15.617" stroke-width="0.6"></path>
                        <path d="M15.732,0.317 L15.732,15.617" stroke-width="0.6"></path>
                        <path d="M8.212,0.317 L8.212,15.617" stroke-width="0.6"></path>
                        <path d="M4.409,0.317 L4.409,15.617" stroke-width="0.6"></path>
                        <path d="M0.607,0.317 L0.607,15.617" stroke-width="0.6"></path>
                        <path d="M68.712,12.178 L68.712,15.617" stroke-width="0.6"></path>
                        <path d="M64.909,0.317 L64.909,15.617" stroke-width="0.6"></path>
                        <path d="M61.107,0.317 L61.107,15.617" stroke-width="0.6"></path>
                    </g>
                    <g transform="translate(29.000000, 0.000000)">
                        <g>
                            <g transform="translate(78.000000, 0.000000)">
                                <circle id="Oval" stroke-width="1.8" cx="21.821" cy="22.052" r="21.414"></circle>
                                <path d="M21.821,39.975 C11.938,39.975 3.898,31.935 3.898,22.053 C3.898,12.17 11.938,4.13 21.821,4.13 C31.703,4.13 39.743,12.17 39.743,22.053 C39.744,31.935 31.703,39.975 21.821,39.975 L21.821,39.975 Z" id="Shape" stroke-width="1.2"></path>
                                <path d="M21.821,36.832 C13.671,36.832 7.04,30.202 7.04,22.052 C7.04,13.902 13.671,7.272 21.821,7.272 C29.971,7.272 36.601,13.902 36.601,22.052 C36.601,30.202 29.971,36.832 21.821,36.832 L21.821,36.832 Z" id="Shape" stroke-width="3.6"></path>
                                <path d="M21.821,34.432 C14.994,34.432 9.441,28.878 9.441,22.052 C9.441,15.226 14.994,9.672 21.821,9.672 C28.648,9.672 34.201,15.226 34.201,22.052 C34.201,28.878 28.648,34.432 21.821,34.432 L21.821,34.432 Z" id="Shape" stroke-width="0.6" stroke-dasharray="1.2"></path>
                            </g>
                            <circle id="Oval" stroke-width="1.8" cx="45.681" cy="28.476" r="14.99"></circle>
                            <path d="M45.681,39.975 C39.341,39.975 34.183,34.817 34.183,28.477 C34.183,22.137 39.341,16.979 45.681,16.979 C52.021,16.979 57.179,22.137 57.179,28.477 C57.179,34.817 52.021,39.975 45.681,39.975 L45.681,39.975 Z" id="Shape" stroke-width="1.2"></path>
                            <path d="M45.681,36.832 C41.074,36.832 37.325,33.083 37.325,28.476 C37.325,23.869 41.074,20.12 45.681,20.12 C50.289,20.12 54.037,23.869 54.037,28.476 C54.037,33.083 50.288,36.832 45.681,36.832 L45.681,36.832 Z" id="Shape" stroke-width="3.6"></path>
                            <path d="M45.68,34.432 C42.396,34.432 39.725,31.76 39.725,28.476 C39.725,25.192 42.397,22.52 45.68,22.52 C48.965,22.52 51.637,25.192 51.637,28.476 C51.637,31.76 48.965,34.432 45.68,34.432 L45.68,34.432 Z" id="Shape" stroke-width="0.6" stroke-dasharray="1.1675,1.1675"></path>
                            <path d="M121.235,22.053 L121.235,52.777 L30.691,52.777 L30.691,28.476" id="Shape" stroke-width="1.8"></path>
                            <path d="M121.235,52.777 L112.155,63.954 L99.821,63.954" id="Shape" stroke-width="1.8"></path>
                            <path d="M60.67,63.954 L39.771,63.954 L30.691,52.777" id="Shape" stroke-width="1.8"></path>
                            <path d="M56.346,17.944 L79.696,14.72" id="Shape" stroke-width="1.8"></path>
                            <path d="M30.691,28.476 L25.221,28.476 L25.221,46.725 L30.691,46.725" id="Shape" stroke-width="1.8"></path>
                            <path d="M121.235,46.725 L126.705,46.725 L126.705,28.476 L121.235,28.476" id="Shape" stroke-width="1.8"></path>
                            <path d="M25.221,37.601 L6.716,37.601" id="Shape" stroke-width="1.8"></path>
                            <path d="M126.705,37.601 L143.231,37.601" id="Shape" stroke-width="1.8"></path>
                            <circle id="Oval" stroke-width="1.8" cx="3.574" cy="37.601" r="3.142"></circle>
                            <circle id="Oval" stroke-width="1.8" cx="146.373" cy="37.601" r="3.142"></circle>
                            <path d="M95.682,63.954 L88.688,63.954" id="Shape" stroke-width="1.8"></path>
                            <path d="M84.287,63.954 L80.836,63.954" id="Shape" stroke-width="1.8"></path>
                            <path d="M58.072,20.038 L78.764,18.134" id="Shape" stroke-width="0.6"></path>
                            <path d="M30.691,52.777 L117.983,56.78" id="Shape" stroke-width="0.6"></path>
                        </g>
                        <g transform="translate(63.000000, 128.000000)">
                            <rect id="Rectangle-path" stroke-width="1.8" x="9.22" y="0.669" width="18.415" height="3.515"></rect>
                            <rect id="Rectangle-path" stroke-width="1.8" x="0.76" y="45.011" width="17.698" height="3.515"></rect>
                            <g transform="translate(7.000000, 4.000000)">
                                <path d="M0.507,41.011 L0.507,22.626 L22.407,22.626 L22.407,44.526 L11.457,44.526" id="Shape" stroke-width="1.8"></path>
                                <rect id="Rectangle-path" stroke-width="1.8" x="2.25" y="19.111" width="18.415" height="3.515"></rect>
                                <g transform="translate(3.000000, 0.000000)" id="Shape">
                                    <path d="M0.807,19.111 L0.807,0.184" stroke-width="1.8"></path>
                                    <path d="M16.048,19.111 L16.048,0.184" stroke-width="1.8"></path>
                                    <path d="M0.807,15.302 L16.108,15.302" stroke-width="0.6"></path>
                                    <path d="M0.807,11.5 L16.108,11.5" stroke-width="0.6"></path>
                                    <path d="M0.807,7.697 L16.048,7.697" stroke-width="1.8"></path>
                                    <path d="M0.807,3.895 L16.108,3.895" stroke-width="0.6"></path>
                                </g>
                            </g>
                            <path d="M0.76,45.011 L7.507,41.867" id="Shape" stroke-width="1.8"></path>
                        </g>
                        <path d="M112.154,63.954 L48.177,63.954" id="Shape" stroke-width="1.8"></path>
                        <g transform="translate(40.000000, 79.000000)">
                            <path d="M39.438,7.178 C39.438,3.391 36.368,0.321 32.581,0.321 C28.794,0.321 25.724,3.391 25.724,7.178" id="Shape" stroke-width="1.8"></path>
                            <g transform="translate(0.000000, 4.000000)">
                                <g transform="translate(0.000000, 26.000000)">
                                    <path d="M10.024,15.361 L4.554,24.598 C3.871,25.752 2.381,26.134 1.227,25.45 L1.227,25.45 C0.073,24.767 -0.309,23.277 0.375,22.123 L5.845,12.886" id="Shape" stroke-width="1.8"></path>
                                    <path d="M8.899,7.729 L4.44,7.333 C3.104,7.214 2.117,6.035 2.236,4.699 L2.236,4.699 C2.355,3.363 3.534,2.376 4.87,2.495 L11.642,3.097" id="Shape" stroke-width="1.8"></path>
                                    <path d="M24.687,24.046 L19.523,32.765 C18.84,33.919 17.35,34.301 16.196,33.617 L16.196,33.617 C15.042,32.934 14.66,31.444 15.344,30.29 L20.508,21.57" id="Shape" stroke-width="1.8"></path>
                                    <path d="M17.355,19.704 L11.273,29.973 C10.59,31.127 9.1,31.509 7.946,30.825 L7.946,30.825 C6.792,30.142 6.41,28.652 7.094,27.498 L13.176,17.229" id="Shape" stroke-width="1.8"></path>
                                    <rect id="Rectangle-path" stroke-width="1.79998229" transform="translate(18.055484, 13.557872) rotate(30.637524) translate(-18.055484, -13.557872) " x="7.10559215" y="7.86892838" width="21.8997845" height="11.377888"></rect>
                                    <rect id="Rectangle-path" stroke-width="1.79998229" transform="translate(22.068566, 7.176163) rotate(210.637524) translate(-22.068566, -7.176163) " x="12.8611564" y="5.41868069" width="18.4148188" height="3.51496541"></rect>
                                </g>
                                <g transform="translate(16.000000, 0.000000)" id="Shape">
                                    <path d="M13.042,34.657 C17.004,27.111 20.486,19.227 23.438,11.033" stroke-width="1.8"></path>
                                    <path d="M0.768,27.21 C4.062,21.284 7.056,15.139 9.724,8.79" stroke-width="1.8"></path>
                                    <g>
                                        <path d="M20.259,19.249 L7.93,12.92" stroke-width="1.8"></path>
                                        <path d="M18.588,23.158 L6.257,16.543" stroke-width="0.6"></path>
                                        <path d="M16.827,27.032 L4.505,20.135" stroke-width="0.6"></path>
                                        <path d="M14.978,30.867 L2.674,23.693" stroke-width="0.6"></path>
                                        <path d="M13.042,34.657 L0.768,27.21" stroke-width="1.8"></path>
                                        <path d="M9.156,10.127 C13.639,11.07 18.026,12.473 22.224,14.306" stroke-width="0.6"></path>
                                        <path d="M9.299,8.727 C14.325,9.289 19.38,9.856 24.241,11.254" stroke-width="0.6"></path>
                                        <path d="M9.695,5.826 C14.216,4.966 18.838,4.642 23.435,4.864" stroke-width="0.6"></path>
                                        <path d="M9.815,2.058 C14.181,1.275 18.619,0.891 23.055,0.912" stroke-width="0.6"></path>
                                    </g>
                                </g>
                            </g>
                            <path d="M25.724,7.178 L25.724,12.775" id="Shape" stroke-width="1.8"></path>
                            <path d="M39.438,7.178 L39.438,15.033" id="Shape" stroke-width="1.8"></path>
                        </g>
                        <g transform="translate(34.000000, 63.000000)" stroke-width="1.8">
                            <path d="M78.155,50.768 L78.155,65.669 L45.095,65.669" id="Shape"></path>
                            <path d="M14.177,48.788 L14.177,23.178" id="Shape"></path>
                            <path d="M49.17,23.178 L60.809,23.178" id="Shape"></path>
                            <path d="M0.918,23.178 L27.991,23.178" id="Shape"></path>
                            <path d="M0.918,23.178 C4.773,15.58 9.189,8.154 14.178,0.954" id="Shape"></path>
                            <path d="M8.23,50.768 L7.548,50.768 L7.548,23.178 L14.177,23.178 L14.177,48.788" id="Shape"></path>
                            <rect id="Rectangle-path" x="60.809" y="12.589" width="20.796" height="38.18"></rect>
                            <path d="M78.155,12.589 L78.155,0.954" id="Shape"></path>
                            <path d="M30.975,30.546 C29.128,28.64 27.991,26.042 27.991,23.178 C27.991,17.33 32.732,12.589 38.58,12.589 C44.428,12.589 49.169,17.33 49.169,23.178 C49.169,26.268 47.846,29.049 45.735,30.984" id="Shape"></path>
                            <path d="M27.992,23.178 L27.992,12.589" id="Shape"></path>
                            <path d="M27.992,12.589 L78.155,12.589" id="Shape"></path>
                            <path d="M38.22,65.669 L33.28,65.669" id="Shape"></path>
                        </g>
                    </g>
                </g>
            </g>
            <g transform="translate(3.000000, 51.000000)" sketch:type="MSShapeGroup">
                <path d="M22.995,31.603 C23.833,31.307 24.506,30.703 24.89,29.901 L27.578,24.279 L28.418,24.279 C28.915,24.279 29.318,23.876 29.318,23.379 L29.318,22.537 L31.933,22.537 C32.43,22.537 32.833,22.134 32.833,21.637 L32.833,20.92 L37.071,20.92 C37.539,21.515 38.064,22.062 38.648,22.543 L38.648,25.78 C38.648,26.277 39.051,26.68 39.548,26.68 L50.956,26.68 C51.453,26.68 51.856,26.277 51.856,25.78 L51.856,22.539 C52.438,22.06 52.961,21.514 53.427,20.921 L57.658,20.921 L57.658,21.638 C57.658,22.135 58.061,22.538 58.558,22.538 L69.966,22.538 C70.463,22.538 70.866,22.135 70.866,21.638 L70.866,20.921 L103.118,20.921 C103.615,20.921 104.018,20.518 104.018,20.021 L104.018,4.781 C104.018,4.284 103.615,3.881 103.118,3.881 L70.866,3.881 L70.866,3.224 C70.866,2.727 70.463,2.324 69.966,2.324 L58.558,2.324 C58.061,2.324 57.658,2.727 57.658,3.224 L57.658,3.881 L51.856,3.881 L51.856,3.224 C51.856,2.727 51.453,2.324 50.956,2.324 L39.548,2.324 C39.051,2.324 38.648,2.727 38.648,3.224 L38.648,3.881 L32.833,3.881 L32.833,3.224 C32.833,2.727 32.43,2.324 31.933,2.324 L29.318,2.324 L29.318,1.482 C29.318,0.985 28.915,0.582 28.418,0.582 L15.633,0.582 L15.633,0.582 L5.5,0.582 C3.665,0.582 2.171,2.075 2.171,3.91 C2.171,5.746 3.664,7.239 5.5,7.239 L14.734,7.239 L14.734,9.103 L3.698,9.103 C1.863,9.103 0.369,10.596 0.369,12.431 C0.369,14.267 1.862,15.76 3.698,15.76 L14.734,15.76 L14.734,17.623 L4.899,17.623 C3.064,17.623 1.57,19.116 1.57,20.952 C1.57,22.788 3.063,24.281 4.899,24.281 L15.634,24.281 L20.199,24.281 L18.884,27.031 C18.666,27.487 18.557,27.974 18.557,28.465 C18.557,28.839 18.62,29.213 18.748,29.575 C19.044,30.414 19.648,31.087 20.45,31.47 C21.253,31.851 22.157,31.9 22.995,31.603 L22.995,31.603 Z" id="Shape" fill="#FFF3B0"></path>
                <g transform="translate(1.000000, 1.000000)" stroke="#272724">
                    <g>
                        <g transform="translate(30.000000, 3.000000)" id="Shape">
                            <path d="M0.934,0.778 L8.549,0.778" stroke-width="1.8"></path>
                            <path d="M19.956,0.778 L27.558,0.778" stroke-width="1.8"></path>
                            <path d="M38.966,0.778 L73.018,0.778" stroke-width="1.8"></path>
                            <path d="M61.696,16.079 L61.696,0.778" stroke-width="0.6"></path>
                            <path d="M57.893,16.079 L57.893,0.778" stroke-width="0.6"></path>
                            <path d="M65.413,16.079 L65.413,0.778" stroke-width="0.6"></path>
                            <path d="M69.216,16.079 L69.216,0.778" stroke-width="0.6"></path>
                            <path d="M73.018,16.079 L73.018,0.778" stroke-width="0.6"></path>
                            <path d="M42.683,16.079 L42.683,0.778" stroke-width="0.6"></path>
                            <path d="M46.486,16.079 L46.486,0.778" stroke-width="0.6"></path>
                            <path d="M54.091,16.079 L54.091,0.778" stroke-width="0.6"></path>
                            <path d="M50.288,16.079 L50.288,0.778" stroke-width="0.6"></path>
                            <path d="M0.934,16.019 L6.505,16.019" stroke-width="1.8"></path>
                            <path d="M21.994,16.019 L27.558,16.019" stroke-width="1.8"></path>
                            <path d="M38.966,16.019 L73.018,16.019" stroke-width="1.8"></path>
                            <path d="M23.756,0.778 L23.756,16.079" stroke-width="0.6"></path>
                        </g>
                        <path d="M14.634,17.521 L3.899,17.521 C2.558,17.521 1.47,18.608 1.47,19.95 L1.47,19.95 C1.47,21.291 2.557,22.379 3.899,22.379 L14.634,22.379" id="Shape" stroke-width="1.8"></path>
                        <path d="M20.628,22.379 L18.697,26.418 C18.118,27.628 18.63,29.078 19.84,29.657 L19.84,29.657 C21.05,30.236 22.5,29.724 23.079,28.514 L26.012,22.38" id="Shape" stroke-width="1.8"></path>
                        <path d="M14.633,0.479 L4.5,0.479 C3.159,0.479 2.071,1.566 2.071,2.908 L2.071,2.908 C2.071,4.249 3.158,5.337 4.5,5.337 L14.634,5.337" id="Shape" stroke-width="1.8"></path>
                        <path d="M14.633,9 L2.698,9 C1.357,9 0.269,10.087 0.269,11.429 L0.269,11.429 C0.269,12.77 1.356,13.858 2.698,13.858 L14.633,13.858" id="Shape" stroke-width="1.8"></path>
                        <rect id="Rectangle-path" stroke-width="1.8" x="14.634" y="0.479" width="12.785" height="21.9"></rect>
                        <rect id="Rectangle-path" stroke-width="1.8" x="27.419" y="2.221" width="3.515" height="18.415"></rect>
                    </g>
                    <circle id="Oval" stroke-width="1.8" cx="44.249" cy="13.5" r="9.51"></circle>
                    <path d="M38.549,5.888 L38.549,2.221 L49.956,2.221 L49.956,5.892" id="Shape" stroke-width="1.8"></path>
                    <path d="M49.956,21.107 L49.956,24.779 L38.549,24.779 L38.549,21.112" id="Shape" stroke-width="1.8"></path>
                    <circle id="Oval" stroke-width="0.6" cx="44.249" cy="13.5" r="7.412"></circle>
                    <path d="M44.249,13.5 L41.734,10.984" id="Shape" stroke-width="1.8"></path>
                    <path d="M44.249,13.5 L48.78,8.969" id="Shape" stroke-width="0.6"></path>
                    <rect id="Rectangle-path" stroke-width="1.8" x="57.558" y="2.221" width="11.408" height="18.415"></rect>
                    <rect id="Rectangle-path" stroke-width="1.8" x="57.558" y="5.531" width="11.408" height="11.408"></rect>
                    <g transform="translate(59.000000, 8.000000)" id="Shape" stroke-width="0.6">
                        <path d="M1.375,5.549 C1.375,5.608 1.354,5.657 1.311,5.697 C1.271,5.739 1.222,5.761 1.163,5.761 C1.104,5.761 1.055,5.74 1.015,5.697 C0.973,5.657 0.951,5.607 0.951,5.549 L0.951,0.92 C0.951,0.861 0.972,0.812 1.015,0.772 C1.055,0.73 1.104,0.708 1.163,0.708 C1.222,0.708 1.271,0.729 1.311,0.772 C1.353,0.812 1.375,0.862 1.375,0.92 L1.375,5.549 L1.375,5.549 Z"></path>
                        <path d="M2.933,5.549 C2.933,5.608 2.912,5.657 2.869,5.697 C2.829,5.739 2.78,5.761 2.721,5.761 C2.662,5.761 2.613,5.74 2.573,5.697 C2.531,5.657 2.509,5.607 2.509,5.549 L2.509,0.92 C2.509,0.861 2.53,0.812 2.573,0.772 C2.613,0.73 2.662,0.708 2.721,0.708 C2.78,0.708 2.829,0.729 2.869,0.772 C2.911,0.812 2.933,0.862 2.933,0.92 L2.933,5.549 L2.933,5.549 Z"></path>
                        <path></path>
                        <path d="M6.015,5.549 C6.015,5.608 5.994,5.657 5.951,5.697 C5.911,5.739 5.861,5.761 5.803,5.761 C5.745,5.761 5.695,5.74 5.655,5.697 C5.613,5.657 5.591,5.607 5.591,5.549 L5.591,0.92 C5.591,0.861 5.612,0.812 5.655,0.772 C5.695,0.73 5.745,0.708 5.803,0.708 C5.861,0.708 5.911,0.729 5.951,0.772 C5.993,0.812 6.015,0.862 6.015,0.92 L6.015,5.549 L6.015,5.549 Z"></path>
                        <path d="M7.573,5.549 C7.573,5.608 7.552,5.657 7.509,5.697 C7.469,5.739 7.419,5.761 7.361,5.761 C7.303,5.761 7.253,5.74 7.213,5.697 C7.171,5.657 7.149,5.607 7.149,5.549 L7.149,0.92 C7.149,0.861 7.17,0.812 7.213,0.772 C7.253,0.73 7.303,0.708 7.361,0.708 C7.419,0.708 7.469,0.729 7.509,0.772 C7.551,0.812 7.573,0.862 7.573,0.92 L7.573,5.549 L7.573,5.549 Z"></path>
                    </g>
                </g>
            </g>
            <g transform="translate(4.000000, 332.000000)" sketch:type="MSShapeGroup">
                <path d="M28.319,30.452 L28.319,29.61 L30.934,29.61 C31.431,29.61 31.834,29.207 31.834,28.71 L31.834,28.053 L34.743,28.053 L40.467,28.053 C41.083,29.736 43.367,30.843 43.882,31.074 C44.116,31.178 44.383,31.178 44.617,31.074 C45.132,30.844 47.416,29.736 48.032,28.053 L53.756,28.053 L102.119,28.053 C102.616,28.053 103.019,27.65 103.019,27.153 L103.019,11.912 C103.019,11.415 102.616,11.012 102.119,11.012 L53.756,11.012 L48.008,11.012 C47.36,9.363 45.127,8.278 44.618,8.051 C44.384,7.947 44.117,7.947 43.883,8.051 C43.374,8.278 41.141,9.363 40.493,11.012 L34.745,11.012 L31.836,11.012 L31.836,10.296 C31.836,9.799 31.433,9.396 30.936,9.396 L28.321,9.396 L28.321,8.553 C28.321,8.056 27.918,7.653 27.421,7.653 L26.581,7.653 L23.893,2.031 C23.509,1.229 22.836,0.625 21.998,0.329 C21.159,0.033 20.256,0.082 19.454,0.465 C18.652,0.849 18.047,1.522 17.751,2.361 C17.623,2.723 17.56,3.097 17.56,3.471 C17.56,3.961 17.669,4.449 17.887,4.905 L19.202,7.654 L3.902,7.654 C2.067,7.654 0.573,9.147 0.573,10.983 C0.573,12.819 2.066,14.312 3.902,14.312 L12.283,14.312 C11.68,14.915 11.307,15.747 11.307,16.665 C11.307,17.872 11.96,18.921 12.925,19.505 C11.96,20.088 11.307,21.138 11.307,22.346 C11.307,23.263 11.68,24.095 12.282,24.698 L4.502,24.698 C2.667,24.698 1.173,26.191 1.173,28.027 C1.173,29.863 2.666,31.356 4.502,31.356 L14.635,31.356 L14.635,31.356 L14.635,31.356 L27.42,31.356 C27.916,31.352 28.319,30.949 28.319,30.452 L28.319,30.452 Z" id="Shape" fill="#FFF3B0"></path>
                <g transform="translate(1.000000, 1.000000)" stroke="#272724">
                    <path d="M19.628,7.552 L19.628,18.502" id="Shape" stroke-width="1.8"></path>
                    <g transform="translate(29.000000, 10.000000)" id="Shape">
                        <path d="M0.934,16.152 L73.018,16.152" stroke-width="1.8"></path>
                        <path d="M61.696,16.152 L61.696,0.851" stroke-width="0.6"></path>
                        <path d="M57.893,16.152 L57.893,0.851" stroke-width="0.6"></path>
                        <path d="M65.413,16.152 L65.413,0.851" stroke-width="0.6"></path>
                        <path d="M69.216,16.152 L69.216,0.851" stroke-width="0.6"></path>
                        <path d="M73.018,16.152 L73.018,0.851" stroke-width="0.6"></path>
                        <path d="M0.934,0.911 L73.018,0.911" stroke-width="1.8"></path>
                        <path d="M38.966,16.211 L38.966,0.911" stroke-width="0.6"></path>
                        <path d="M42.683,16.211 L42.683,0.911" stroke-width="0.6"></path>
                        <path d="M46.486,16.211 L46.486,0.911" stroke-width="0.6"></path>
                        <path d="M54.091,16.211 L54.091,0.911" stroke-width="0.6"></path>
                        <path d="M50.288,16.211 L50.288,0.911" stroke-width="0.6"></path>
                        <path d="M27.558,16.152 L27.558,0.851" stroke-width="0.6"></path>
                        <path d="M31.361,16.152 L31.361,0.851" stroke-width="0.6"></path>
                        <path d="M35.163,16.152 L35.163,0.851" stroke-width="0.6"></path>
                    </g>
                    <path d="M13.634,12.409 L2.899,12.409 C1.558,12.409 0.47,11.322 0.47,9.981 L0.47,9.981 C0.47,8.64 1.557,7.552 2.899,7.552 L19.627,7.552" id="Shape" stroke-width="1.8"></path>
                    <path d="M19.628,7.552 L17.697,3.514 C17.118,2.304 17.63,0.854 18.84,0.275 L18.84,0.275 C20.05,-0.304 21.5,0.208 22.079,1.418 L25.012,7.552" id="Shape" stroke-width="1.8"></path>
                    <path d="M13.633,29.452 L3.5,29.452 C2.159,29.452 1.071,28.365 1.071,27.023 L1.071,27.023 C1.071,25.682 2.158,24.595 3.5,24.595 L13.634,24.595" id="Shape" stroke-width="1.8"></path>
                    <path d="M13.633,18.09 C12.292,18.09 11.204,17.003 11.204,15.661 L11.204,15.661 C11.204,14.32 12.291,13.233 13.633,13.233" id="Shape" stroke-width="1.8"></path>
                    <path d="M13.633,23.771 C12.292,23.771 11.204,22.684 11.204,21.342 L11.204,21.342 C11.204,20.001 12.291,18.914 13.633,18.914" id="Shape" stroke-width="1.8"></path>
                    <path d="M13.634,29.452 L26.419,29.452 L26.419,7.552 L25.012,7.552" id="Shape" stroke-width="1.8"></path>
                    <rect id="Rectangle-path" stroke-width="1.8" x="26.419" y="9.294" width="3.515" height="18.415"></rect>
                    <rect id="Rectangle-path" stroke-width="1.8" x="33.743" y="10.911" width="19.013" height="15.241"></rect>
                    <circle id="Oval" stroke-width="1.8" cx="43.249" cy="18.531" r="3.04"></circle>
                    <path d="M40.209,26.211 C40.209,27.89 43.249,29.251 43.249,29.251 C43.249,29.251 46.289,27.89 46.289,26.211" id="Shape" stroke-width="1.8"></path>
                    <path d="M46.289,10.911 C46.289,9.232 43.249,7.871 43.249,7.871 C43.249,7.871 40.209,9.232 40.209,10.911" id="Shape" stroke-width="1.8"></path>
                    <path d="M13.633,18.09 L17.199,18.09 C18.54,18.09 19.628,17.003 19.628,15.661 L19.628,15.661 C19.628,14.32 18.541,13.233 17.199,13.233 L13.633,13.233" id="Shape" stroke-width="1.8"></path>
                    <path d="M13.633,23.771 L19,23.771 C20.341,23.771 21.429,22.684 21.429,21.342 L21.429,21.342 C21.429,20.001 20.342,18.914 19,18.914 L13.633,18.914" id="Shape" stroke-width="1.8"></path>
                </g>
            </g>
            <g transform="translate(0.000000, 191.000000)" sketch:type="MSShapeGroup">
                <path d="M32.318,30.922 L32.318,30.08 L34.933,30.08 C35.43,30.08 35.833,29.677 35.833,29.18 L35.833,28.523 L106.118,28.523 C106.615,28.523 107.018,28.12 107.018,27.623 L107.018,12.382 C107.018,11.885 106.615,11.482 106.118,11.482 L35.833,11.482 L35.833,10.765 C35.833,10.268 35.43,9.865 34.933,9.865 L32.318,9.865 L32.318,9.023 C32.318,8.526 31.915,8.123 31.418,8.123 L30.578,8.123 L27.89,2.501 C27.098,0.846 25.107,0.143 23.451,0.935 C21.795,1.728 21.094,3.72 21.885,5.374 L23.2,8.123 L4.897,8.123 C3.062,8.123 1.569,9.616 1.569,11.452 C1.569,12.571 2.124,13.563 2.974,14.167 C1.485,14.498 0.368,15.83 0.368,17.417 C0.368,19.253 1.861,20.746 3.697,20.746 L17.735,20.746 L17.735,30.924 C17.735,31.421 18.138,31.824 18.635,31.824 L28.991,31.824 L31.42,31.824 C31.916,31.823 32.318,31.42 32.318,30.922 L32.318,30.922 Z" id="Shape" fill="#FFF3B0"></path>
                <g transform="translate(1.000000, 1.000000)" stroke="#272724">
                    <g transform="translate(33.000000, 11.000000)" id="Shape">
                        <path d="M0.934,15.622 L73.018,15.622" stroke-width="1.8"></path>
                        <path d="M0.934,0.382 L73.018,0.382" stroke-width="1.8"></path>
                        <path d="M27.558,15.622 L27.558,0.322" stroke-width="0.6"></path>
                        <path d="M31.361,15.622 L31.361,0.322" stroke-width="0.6"></path>
                        <path d="M38.966,15.622 L38.966,0.322" stroke-width="0.6"></path>
                        <path d="M35.163,15.622 L35.163,0.322" stroke-width="0.6"></path>
                        <path d="M16.236,15.622 L16.236,0.322" stroke-width="0.6"></path>
                        <path d="M20.038,15.622 L20.038,0.322" stroke-width="0.6"></path>
                        <path d="M23.841,15.622 L23.841,0.322" stroke-width="0.6"></path>
                        <path d="M42.683,15.622 L42.683,0.322" stroke-width="0.6"></path>
                        <path d="M46.486,15.622 L46.486,0.322" stroke-width="0.6"></path>
                        <path d="M54.091,15.622 L54.091,0.322" stroke-width="0.6"></path>
                        <path d="M50.288,15.622 L50.288,0.322" stroke-width="0.6"></path>
                        <path d="M61.696,15.622 L61.696,0.322" stroke-width="0.6"></path>
                        <path d="M57.893,15.622 L57.893,0.322" stroke-width="0.6"></path>
                        <path d="M65.413,15.622 L65.413,0.322" stroke-width="0.6"></path>
                        <path d="M69.216,15.622 L69.216,0.322" stroke-width="0.6"></path>
                        <path d="M73.018,15.622 L73.018,0.322" stroke-width="0.6"></path>
                        <path d="M4.913,15.622 L4.913,0.322" stroke-width="0.6"></path>
                        <path d="M8.716,15.622 L8.716,0.322" stroke-width="0.6"></path>
                        <path d="M12.518,15.622 L12.518,0.322" stroke-width="0.6"></path>
                    </g>
                    <g stroke-width="1.8">
                        <path d="M17.634,29.922 L27.99,29.922 C29.331,29.922 30.419,28.835 30.419,27.493 L30.419,27.493 C30.419,26.152 29.332,25.064 27.99,25.064 L17.634,25.064" id="Shape"></path>
                        <path d="M17.634,25.065 L27.99,25.065 C29.331,25.065 30.419,23.978 30.419,22.636 L30.419,22.636 C30.419,21.295 29.332,20.207 27.99,20.207 L17.634,20.207" id="Shape"></path>
                        <g>
                            <g>
                                <path d="M23.628,8.022 L21.697,3.984 C21.118,2.774 21.63,1.324 22.84,0.745 C24.05,0.166 25.5,0.678 26.079,1.888 L29.012,8.022 L30.419,8.022 L30.419,29.922 L17.634,29.922 L17.634,25.065 L17.634,18.844 L2.696,18.844 C1.355,18.844 0.267,17.757 0.267,16.415 C0.267,15.073 1.354,13.986 2.696,13.986 L17.633,13.986 L17.634,12.878 L3.897,12.878 C2.556,12.878 1.468,11.791 1.468,10.449 C1.468,9.108 2.555,8.02 3.897,8.02 L17.634,8.02 L23.628,8.02 L23.628,8.022 Z" id="Shape"></path>
                                <rect id="Rectangle-path" x="30.419" y="9.765" width="3.515" height="18.415"></rect>
                            </g>
                            <path d="M23.628,8.022 L23.628,18.972" id="Shape"></path>
                        </g>
                    </g>
                </g>
            </g>
            <g transform="translate(179.000000, 304.000000)" sketch:type="MSShapeGroup">
                <path d="M323.302,36.516 L323.302,7.838 L247.011,7.838 L247.011,0.426 L0.496,0.426 L0.496,7.838 L0.496,65.193 L236.13,65.193 L260.792,65.193 L351.979,65.193 L351.979,36.516 L323.302,36.516 Z" id="Shape" fill="#F8E7A9"></path>
                <rect id="Rectangle-path" stroke="#867F5E" stroke-width="2" x="0.496" y="0.426" width="246.515" height="7.412"></rect>
                <path d="M351.979,65.193 L351.979,36.516 L323.302,36.516 L323.302,7.838 L0.496,7.838 L0.496,65.193 L236.13,65.193" id="Shape" stroke="#867F5E" stroke-width="2"></path>
                <path d="M49.792,65.193 L353.003,65.193" id="Shape" stroke="#867F5E" stroke-width="2"></path>
                <g transform="translate(189.000000, 33.000000)" stroke="#867F5E" id="Oval" stroke-width="2">
                    <g transform="translate(54.000000, 0.000000)">
                        <circle cx="11.592" cy="10.999" r="10.817"></circle>
                        <circle cx="11.592" cy="10.999" r="6.851"></circle>
                    </g>
                    <g>
                        <circle cx="11.585" cy="10.999" r="10.817"></circle>
                        <circle cx="11.585" cy="10.999" r="6.851"></circle>
                    </g>
                </g>
                <path d="M323.302,22.237 L0.496,22.237" id="Shape" stroke="#867F5E" stroke-width="2"></path>
            </g>
            <g id="_x30_1" transform="translate(99.000000, 0.000000)" sketch:type="MSShapeGroup">
                <g id="Group" transform="translate(221.000000, 37.000000)">
                    <rect id="Rectangle-path" fill="#F8E7A9" x="12.38" y="12.534" width="10.778" height="40.024"></rect>
                    <path d="M0.496,0.613 L5.904,0.613 C12.488,0.613 17.825,5.95 17.825,12.534 L17.825,12.534" id="Shape" stroke="#867F5E" stroke-width="2"></path>
                    <path d="M17.824,52.557 L17.824,52.557 C17.824,59.141 12.487,64.478 5.903,64.478 L0.495,64.478" id="Shape" stroke="#867F5E" stroke-width="2"></path>
                    <rect id="Rectangle-path" stroke="#867F5E" stroke-width="2" x="12.38" y="12.534" width="10.778" height="40.024"></rect>
                    <path d="M23.158,20.309 L12.38,20.309" id="Shape" stroke="#867F5E" stroke-width="2"></path>
                    <path d="M23.158,44.782 L12.38,44.782" id="Shape" stroke="#867F5E" stroke-width="2"></path>
                </g>
                <g id="Group" transform="translate(0.000000, 139.000000)">
                    <g fill="#F8E7A9">
                        <rect id="Rectangle-path" x="221.496" y="32.536" width="17.889" height="82.566"></rect>
                        <path d="M18.775,19.94 L0.886,19.94 L0.886,102.506 L18.775,102.506 L18.775,132.442 L221.494,132.443 L221.496,0.443 L18.775,0.442 L18.775,19.94 Z" id="Shape"></path>
                    </g>
                    <rect id="Rectangle-path" stroke="#867F5E" stroke-width="2" x="221.496" y="32.536" width="17.889" height="82.566"></rect>
                    <rect id="Rectangle-path" stroke="#867F5E" stroke-width="2" x="0.886" y="19.94" width="17.889" height="82.566"></rect>
                    <g transform="translate(92.000000, 23.000000)" stroke="#867F5E" stroke-width="2">
                        <rect id="Rectangle-path" x="0.692" y="0.772" width="74.902" height="74.902"></rect>
                        <path d="M53.585,65.448 L22.701,65.448 C16.194,65.448 10.918,60.173 10.918,53.665 L10.918,22.781 C10.918,16.274 16.193,10.998 22.701,10.998 L53.585,10.998 C60.092,10.998 65.368,16.273 65.368,22.781 L65.368,53.665 C65.368,60.172 60.093,65.448 53.585,65.448 L53.585,65.448 Z" id="Shape"></path>
                        <circle id="Oval" cx="7.549" cy="7.628" r="2.234"></circle>
                        <circle id="Oval" cx="68.738" cy="7.628" r="2.234"></circle>
                        <circle id="Oval" cx="7.549" cy="68.818" r="2.234"></circle>
                        <circle id="Oval" cx="68.738" cy="68.818" r="2.234"></circle>
                    </g>
                    <path d="M214.5,0.443 L214.5,132.443" id="Shape" stroke="#867F5E" stroke-width="2"></path>
                    <g transform="translate(48.000000, 23.000000)" stroke="#867F5E" id="Oval" stroke-width="2">
                        <g transform="translate(0.000000, 54.000000)">
                            <circle cx="11.642" cy="11.227" r="10.817"></circle>
                            <circle cx="11.642" cy="11.227" r="6.851"></circle>
                        </g>
                        <g>
                            <circle cx="11.642" cy="11.22" r="10.817"></circle>
                            <circle cx="11.642" cy="11.22" r="6.851"></circle>
                        </g>
                        <g transform="translate(0.000000, 27.000000)">
                            <circle cx="11.642" cy="11.223" r="10.817"></circle>
                            <circle cx="11.642" cy="11.223" r="6.851"></circle>
                        </g>
                    </g>
                    <path d="M10.5,21.443 L10.5,102.506" id="Shape" stroke="#867F5E" stroke-width="2"></path>
                    <path d="M229.5,32.536 L229.5,114.468" id="Shape" stroke="#867F5E" stroke-width="2"></path>
                    <rect id="Rectangle-path" stroke="#867F5E" stroke-width="2" x="18.776" y="0.443" width="202.718" height="132"></rect>
                    <path d="M146.167,98.443 L146.167,131.116" id="Shape" stroke="#867F5E" stroke-width="2"></path>
                    <path d="M140.833,101.109 L140.833,131.117" id="Shape" stroke="#867F5E" stroke-width="2"></path>
                    <path d="M116.167,98.443 L116.167,131.17" id="Shape" stroke="#867F5E" stroke-width="2"></path>
                    <path d="M108.833,0.443 L108.833,21.786" id="Shape" stroke="#867F5E" stroke-width="2"></path>
                    <path id="Shape" stroke="#867F5E" stroke-width="2" d="M167.5,44.443 L169.5,44.443 L212.512,44.443"></path>
                    <path d="M167.5,53.443 L213.511,53.443" id="Shape" stroke="#867F5E" stroke-width="2"></path>
                    <path d="M167.5,79.443 L213.511,79.443" id="Shape" stroke="#867F5E" stroke-width="2"></path>
                    <path d="M0.833,25.776 L9.833,25.776" id="Shape" stroke="#867F5E" stroke-width="2"></path>
                    <path d="M0.833,32.443 L10.19,32.443" id="Shape" stroke="#867F5E" stroke-width="2"></path>
                    <path d="M0.886,39.776 L10.5,39.776" id="Shape" stroke="#867F5E" stroke-width="2"></path>
                    <path d="M0.833,48.443 L9.858,48.443" id="Shape" stroke="#867F5E" stroke-width="2"></path>
                    <path d="M0.886,55.776 L9.5,55.776" id="Shape" stroke="#867F5E" stroke-width="2"></path>
                    <path d="M0.886,62.776 L10.218,62.776" id="Shape" stroke="#867F5E" stroke-width="2"></path>
                    <path d="M1.5,69.109 L10.506,69.109" id="Shape" stroke="#867F5E" stroke-width="2"></path>
                    <path d="M0.833,75.443 L10.314,75.443" id="Shape" stroke="#867F5E" stroke-width="2"></path>
                    <path d="M1.5,82.109 L9.528,82.109" id="Shape" stroke="#867F5E" stroke-width="2"></path>
                    <path d="M1.5,90.443 L9.174,90.443" id="Shape" stroke="#867F5E" stroke-width="2"></path>
                    <path d="M1.167,97.109 L9.84,97.109" id="Shape" stroke="#867F5E" stroke-width="2"></path>
                    <path d="M229.833,39.109 L239.173,39.109" id="Shape" stroke="#867F5E" stroke-width="2"></path>
                    <path d="M171.167,45.443 L171.167,52.783" id="Shape" stroke="#867F5E" stroke-width="2"></path>
                    <path d="M174.833,46.109 L174.833,53.141" id="Shape" stroke="#867F5E" stroke-width="2"></path>
                    <path d="M181.5,45.443 L181.5,52.142" id="Shape" stroke="#867F5E" stroke-width="2"></path>
                    <path d="M140.833,103.109 L145.05,103.109" id="Shape" stroke="#867F5E" stroke-width="2"></path>
                    <path d="M141.167,111.776 L146.167,111.776" id="Shape" stroke="#867F5E" stroke-width="2"></path>
                    <path d="M230.167,45.776 L237.862,45.776" id="Shape" stroke="#867F5E" stroke-width="2"></path>
                    <path d="M229.833,53.109 L238.526,53.109" id="Shape" stroke="#867F5E" stroke-width="2"></path>
                    <path d="M230.167,60.109 L238.56,60.109" id="Shape" stroke="#867F5E" stroke-width="2"></path>
                    <path d="M230.167,67.443 L238.277,67.443" id="Shape" stroke="#867F5E" stroke-width="2"></path>
                    <path d="M230.167,73.776 L237.833,73.776" id="Shape" stroke="#867F5E" stroke-width="2"></path>
                    <path d="M230.167,79.776 L238.229,79.776" id="Shape" stroke="#867F5E" stroke-width="2"></path>
                    <path d="M230.167,87.443 L238.507,87.443" id="Shape" stroke="#867F5E" stroke-width="2"></path>
                    <path d="M230.167,93.776 L238.527,93.776" id="Shape" stroke="#867F5E" stroke-width="2"></path>
                    <path d="M229.833,100.109 L238.167,100.109" id="Shape" stroke="#867F5E" stroke-width="2"></path>
                    <path d="M230.167,107.776 L238.167,107.776" id="Shape" stroke="#867F5E" stroke-width="2"></path>
                    <path d="M103.147,65.159 C107.7,68.215 112.518,70.977 117.764,72.573 C123.01,74.169 128.741,74.545 133.959,72.859 C136.198,72.136 138.308,71.048 140.564,70.381 C145.99,68.777 152.133,69.817 156.729,73.117" id="Shape" stroke="#867F5E" stroke-width="2"></path>
                    <path d="M102.952,49.008 C104.906,52.752 109.662,53.832 113.83,54.508 C119.395,55.41 125.045,56.315 130.645,55.664 C135.471,55.103 140.155,53.396 145.013,53.336 C149.262,53.284 153.519,54.538 157.061,56.886" id="Shape" stroke="#867F5E" stroke-width="2"></path>
                    <path d="M103.319,45.027 C110.458,47.454 118.108,48.368 125.618,47.691 C128.425,47.438 132.028,45.943 131.598,43.157 C131.413,41.961 130.476,41.043 129.59,40.219 C127.774,38.529 125.958,36.838 124.142,35.148" id="Shape" stroke="#867F5E" stroke-width="2"></path>
                </g>
                <g id="Group" transform="translate(0.000000, 277.000000)">
                    <path d="M221.496,134.594 L221.496,0.443 L18.775,0.443 L18.775,21.968 L0.886,21.968 L0.886,104.535 L18.775,104.535 L18.775,134.594 L18.775,148.443 L221.496,148.443 L221.496,134.594 L221.496,134.594 Z" id="Shape" fill="#F8E7A9"></path>
                    <rect id="Rectangle-path" stroke="#867F5E" stroke-width="2" x="0.886" y="21.968" width="17.889" height="82.566"></rect>
                    <g transform="translate(92.000000, 25.000000)" stroke="#867F5E" stroke-width="2">
                        <rect id="Rectangle-path" x="0.692" y="0.8" width="74.902" height="74.902"></rect>
                        <path d="M53.585,65.476 L22.701,65.476 C16.194,65.476 10.918,60.201 10.918,53.693 L10.918,22.809 C10.918,16.302 16.193,11.026 22.701,11.026 L53.585,11.026 C60.092,11.026 65.368,16.301 65.368,22.809 L65.368,53.693 C65.368,60.201 60.093,65.476 53.585,65.476 L53.585,65.476 Z" id="Shape"></path>
                        <circle id="Oval" cx="7.549" cy="7.657" r="2.234"></circle>
                        <circle id="Oval" cx="68.738" cy="7.657" r="2.234"></circle>
                        <circle id="Oval" cx="7.549" cy="68.846" r="2.234"></circle>
                        <circle id="Oval" cx="68.738" cy="68.846" r="2.234"></circle>
                    </g>
                    <rect id="Rectangle-path" stroke="#867F5E" stroke-width="2" x="18.775" y="134.594" width="202.72" height="13.849"></rect>
                    <path d="M214.5,0.443 L214.5,134.594" id="Shape" stroke="#867F5E" stroke-width="2"></path>
                    <g transform="translate(48.000000, 25.000000)" stroke="#867F5E" id="Oval" stroke-width="2">
                        <g transform="translate(0.000000, 54.000000)">
                            <circle cx="11.642" cy="11.255" r="10.817"></circle>
                            <circle cx="11.642" cy="11.255" r="6.851"></circle>
                        </g>
                        <g>
                            <circle cx="11.642" cy="11.248" r="10.817"></circle>
                            <circle cx="11.642" cy="11.248" r="6.851"></circle>
                        </g>
                    </g>
                    <path d="M13.5,22.443 L13.5,103.467" id="Shape" stroke="#867F5E" stroke-width="2"></path>
                    <rect id="Rectangle-path" stroke="#867F5E" stroke-width="2" x="18.775" y="0.443" width="202.72" height="148"></rect>
                    <path d="M112.167,100.443 L112.167,134.594" id="Shape" stroke="#867F5E" stroke-width="2"></path>
                    <path d="M120.833,101.776 L120.833,133.804" id="Shape" stroke="#867F5E" stroke-width="2"></path>
                    <path d="M129.5,1.776 L129.5,23.786" id="Shape" stroke="#867F5E" stroke-width="2"></path>
                    <path d="M167.5,83.443 L167.5,82.443 L214.542,82.443" id="Shape" stroke="#867F5E" stroke-width="2"></path>
                    <path d="M19.5,55.443 L91.507,55.443" id="Shape" stroke="#867F5E" stroke-width="2"></path>
                    <path d="M1.833,28.443 L12.854,28.443" id="Shape" stroke="#867F5E" stroke-width="2"></path>
                    <path d="M1.833,35.109 L13.172,35.109" id="Shape" stroke="#867F5E" stroke-width="2"></path>
                    <path d="M2.167,42.443 L13.172,42.443" id="Shape" stroke="#867F5E" stroke-width="2"></path>
                    <path d="M1.833,49.776 L12.854,49.776" id="Shape" stroke="#867F5E" stroke-width="2"></path>
                    <path d="M1.5,56.443 L12.853,56.443" id="Shape" stroke="#867F5E" stroke-width="2"></path>
                    <path d="M1.833,63.443 L12.854,63.443" id="Shape" stroke="#867F5E" stroke-width="2"></path>
                    <path d="M1.833,69.443 L12.879,69.443" id="Shape" stroke="#867F5E" stroke-width="2"></path>
                    <path d="M1.167,76.443 L12.52,76.443" id="Shape" stroke="#867F5E" stroke-width="2"></path>
                    <path d="M1.5,82.776 L12.833,82.776" id="Shape" stroke="#867F5E" stroke-width="2"></path>
                    <path d="M1.833,88.776 L12.172,88.776" id="Shape" stroke="#867F5E" stroke-width="2"></path>
                    <path d="M1.5,95.109 L12.838,95.109" id="Shape" stroke="#867F5E" stroke-width="2"></path>
                    <path d="M112.5,106.443 L120.833,106.443" id="Shape" stroke="#867F5E" stroke-width="2"></path>
                    <path d="M113.167,111.109 L120.833,111.109" id="Shape" stroke="#867F5E" stroke-width="2"></path>
                    <path d="M112.833,129.109 L120.896,129.109" id="Shape" stroke="#867F5E" stroke-width="2"></path>
                    <path d="M103.315,76.091 C112.374,80.73 124.435,78.482 131.213,70.89 C133.267,68.589 135,65.772 137.839,64.565 C141.131,63.166 144.946,64.348 148.467,63.719 C152.059,63.078 155.216,60.402 156.437,56.964" id="Shape" stroke="#867F5E" stroke-width="2"></path>
                    <path d="M103.013,63.443 C110.231,63.933 117.599,60.564 121.95,54.784 C123.66,52.512 125.006,49.827 127.409,48.306 C131.443,45.751 136.709,47.407 141.461,46.943 C145.843,46.516 149.992,44.1 152.528,40.5" id="Shape" stroke="#867F5E" stroke-width="2"></path>
                    <path d="M157.419,74.62 C153.167,72.679 147.786,73.549 144.363,76.731 C140.94,79.913 139.681,85.217 141.308,89.599" id="Shape" stroke="#867F5E" stroke-width="2"></path>
                </g>
                <g id="Group">
                    <path d="M18.775,0.195 L18.775,18.912 L0.886,18.912 L0.886,101.478 L18.775,101.478 L18.775,124.774 L221.496,124.776 L221.496,0.195 L18.775,0.195 Z" id="Shape" fill="#F8E7A9"></path>
                    <rect id="Rectangle-path" stroke="#867F5E" stroke-width="2" x="0.886" y="18.912" width="17.889" height="82.566"></rect>
                    <g transform="translate(92.000000, 22.000000)" stroke="#867F5E" stroke-width="2">
                        <rect id="Rectangle-path" x="0.692" y="0.744" width="74.902" height="74.902"></rect>
                        <path d="M53.585,65.419 L22.701,65.419 C16.194,65.419 10.918,60.144 10.918,53.636 L10.918,22.753 C10.918,16.246 16.193,10.97 22.701,10.97 L53.585,10.97 C60.092,10.97 65.368,16.245 65.368,22.753 L65.368,53.636 C65.368,60.144 60.093,65.419 53.585,65.419 L53.585,65.419 Z" id="Shape"></path>
                        <circle id="Oval" cx="7.549" cy="7.6" r="2.234"></circle>
                        <circle id="Oval" cx="68.738" cy="7.6" r="2.234"></circle>
                        <circle id="Oval" cx="7.549" cy="68.79" r="2.234"></circle>
                        <circle id="Oval" cx="68.738" cy="68.79" r="2.234"></circle>
                    </g>
                    <path d="M214.5,0.195 L214.5,124.776" id="Shape" stroke="#867F5E" stroke-width="2"></path>
                    <g transform="translate(48.000000, 49.000000)" stroke="#867F5E" id="Oval" stroke-width="2">
                        <g transform="translate(0.000000, 27.000000)">
                            <circle cx="11.642" cy="11.198" r="10.817"></circle>
                            <circle cx="11.642" cy="11.198" r="6.851"></circle>
                        </g>
                        <g>
                            <circle cx="11.642" cy="11.195" r="10.817"></circle>
                            <circle cx="11.642" cy="11.195" r="6.851"></circle>
                        </g>
                    </g>
                    <path d="M11.5,19.443 L11.5,100.597" id="Shape" stroke="#867F5E" stroke-width="2"></path>
                    <rect id="Rectangle-path" stroke="#867F5E" stroke-width="2" x="18.775" y="0.194" width="202.72" height="124.581"></rect>
                    <path d="M121.5,98.109 L121.5,124.415" id="Shape" stroke="#867F5E" stroke-width="2"></path>
                    <path d="M154.167,97.443 L154.167,124.142" id="Shape" stroke="#867F5E" stroke-width="2"></path>
                    <path d="M111.5,1.443 L111.5,22.776" id="Shape" stroke="#867F5E" stroke-width="2"></path>
                    <path d="M169.5,57.443 L212.674,57.443" id="Shape" stroke="#867F5E" stroke-width="2"></path>
                    <path id="Shape" stroke="#867F5E" stroke-width="2" d="M18.775,34.443 L22.5,34.443 L89.768,34.443"></path>
                    <path d="M1.167,25.443 L10.925,25.443" id="Shape" stroke="#867F5E" stroke-width="2"></path>
                    <path d="M0.833,33.776 L11.547,33.776" id="Shape" stroke="#867F5E" stroke-width="2"></path>
                    <path d="M0.833,39.776 L10.5,39.776" id="Shape" stroke="#867F5E" stroke-width="2"></path>
                    <path d="M0.833,46.776 L11.5,46.776" id="Shape" stroke="#867F5E" stroke-width="2"></path>
                    <path d="M1.167,53.776 L10.839,53.776" id="Shape" stroke="#867F5E" stroke-width="2"></path>
                    <path d="M1.167,60.776 L10.506,60.776" id="Shape" stroke="#867F5E" stroke-width="2"></path>
                    <path d="M1.5,67.776 L11.5,67.776" id="Shape" stroke="#867F5E" stroke-width="2"></path>
                    <path d="M1.5,74.443 L11.5,74.443" id="Shape" stroke="#867F5E" stroke-width="2"></path>
                    <path d="M0.833,80.443 L11.5,80.443" id="Shape" stroke="#867F5E" stroke-width="2"></path>
                    <path d="M1.167,86.443 L10.839,86.443" id="Shape" stroke="#867F5E" stroke-width="2"></path>
                    <path d="M1.167,94.109 L10.839,94.109" id="Shape" stroke="#867F5E" stroke-width="2"></path>
                    <path d="M136.468,85.851 C132.241,80.045 127.299,73.779 120.216,72.596 C118.32,72.279 116.238,72.312 114.699,71.16 C113.915,70.574 113.364,69.739 112.754,68.974 C110.466,66.102 107.149,64.068 103.552,63.331" id="Shape" stroke="#867F5E" stroke-width="2"></path>
                    <path d="M103.095,47.774 C106.584,47.21 110.024,49.041 112.764,51.274 C115.504,53.506 117.893,56.217 120.972,57.951 C124.602,59.996 128.868,60.506 132.833,61.787 C142.473,64.901 150.363,72.973 153.255,82.683" id="Shape" stroke="#867F5E" stroke-width="2"></path>
                    <path d="M116.737,34.12 C116.878,39.267 118.045,45.048 122.379,47.827 C127.02,50.803 133.288,48.981 137.874,45.922 C142.18,43.049 145.887,39.023 147.503,34.105" id="Shape" stroke="#867F5E" stroke-width="2"></path>
                </g>
                <g id="Group" transform="translate(18.000000, 124.000000)" stroke="#867F5E" stroke-width="2">
                    <path d="M0.775,0.775 L0.775,15.442" id="Shape"></path>
                    <path d="M203.496,0.776 L203.496,15.443" id="Shape"></path>
                    <path d="M0.775,147.442 L0.775,153.443" id="Shape"></path>
                    <path d="M203.494,147.443 L203.494,153.443" id="Shape"></path>
                </g>
            </g>
        </g>
    </g>
</svg>