<?xml version="1.0" encoding="UTF-8" standalone="no"?><svg xmlns="http://www.w3.org/2000/svg" xmlns:xlink="http://www.w3.org/1999/xlink" clip-rule="evenodd" stroke-miterlimit="4.00" viewBox="0 0 1920 1080"><desc>SVG generated by Keynote</desc><defs></defs><g transform="matrix(1.00, 0.00, -0.00, -1.00, 0.0, 1080.0)"><path d="M 0.0 1080.0 L 1920.0 1080.0 L 1920.0 0.0 L 0.0 0.0 Z M 0.0 1080.0 " fill="#FAFAFA"></path><image xlink:href="56BFAA827877406AC9ACB71700E7CD58.png" width="762.00" height="540.00" transform="matrix(1.44, 0.00, -0.00, -1.44, 47.0, 799.0)"></image><path d="M 57.7 1040.3 L 616.1 1040.3 L 616.1 968.8 L 57.7 968.8 Z M 57.7 1040.3 " fill="#FFDA7B"></path><text xml:space="preserve" font-family="Roboto" font-weight="200" font-size="30.0" fill="#000000" transform="matrix(1.00, 0.00, -0.00, -1.00, 81.0, 994.0)">А</text><text xml:space="preserve" font-family="Roboto" font-weight="200" font-size="30.0" fill="#000000" transform="matrix(1.00, 0.00, -0.00, -1.00, 99.7, 994.0)">б</text><text xml:space="preserve" font-family="Roboto" font-weight="200" font-size="30.0" fill="#000000" transform="matrix(1.00, 0.00, -0.00, -1.00, 116.2, 994.0)">с</text><text xml:space="preserve" font-family="Roboto" font-weight="200" font-size="30.0" fill="#000000" transform="matrix(1.00, 0.00, -0.00, -1.00, 131.7, 994.0)">т</text><text xml:space="preserve" font-family="Roboto" font-weight="200" font-size="30.0" fill="#000000" transform="matrix(1.00, 0.00, -0.00, -1.00, 146.0, 994.0)">р</text><text xml:space="preserve" font-family="Roboto" font-weight="200" font-size="30.0" fill="#000000" transform="matrix(1.00, 0.00, -0.00, -1.00, 162.6, 994.0)">а</text><text xml:space="preserve" font-family="Roboto" font-weight="200" font-size="30.0" fill="#000000" transform="matrix(1.00, 0.00, -0.00, -1.00, 178.6, 994.0)">к</text><text xml:space="preserve" font-family="Roboto" font-weight="200" font-size="30.0" fill="#000000" transform="matrix(1.00, 0.00, -0.00, -1.00, 194.2, 994.0)">т</text><text xml:space="preserve" font-family="Roboto" font-weight="200" font-size="30.0" fill="#000000" transform="matrix(1.00, 0.00, -0.00, -1.00, 208.4, 994.0)">н</text><text xml:space="preserve" font-family="Roboto" font-weight="200" font-size="30.0" fill="#000000" transform="matrix(1.00, 0.00, -0.00, -1.00, 225.3, 994.0)">о</text><text xml:space="preserve" font-family="Roboto" font-weight="200" font-size="30.0" fill="#000000" transform="matrix(1.00, 0.00, -0.00, -1.00, 242.1, 994.0)">е</text><text xml:space="preserve" font-family="Roboto" font-weight="200" font-size="30.0" fill="#000000" transform="matrix(1.00, 0.00, -0.00, -1.00, 257.6, 994.0)"> </text><text xml:space="preserve" font-family="Roboto" font-weight="200" font-size="30.0" fill="#000000" transform="matrix(1.00, 0.00, -0.00, -1.00, 264.9, 994.0)">с</text><text xml:space="preserve" font-family="Roboto" font-weight="200" font-size="30.0" fill="#000000" transform="matrix(1.00, 0.00, -0.00, -1.00, 280.4, 994.0)">и</text><text xml:space="preserve" font-family="Roboto" font-weight="200" font-size="30.0" fill="#000000" transform="matrix(1.00, 0.00, -0.00, -1.00, 297.2, 994.0)">н</text><text xml:space="preserve" font-family="Roboto" font-weight="200" font-size="30.0" fill="#000000" transform="matrix(1.00, 0.00, -0.00, -1.00, 314.1, 994.0)">т</text><text xml:space="preserve" font-family="Roboto" font-weight="200" font-size="30.0" fill="#000000" transform="matrix(1.00, 0.00, -0.00, -1.00, 328.1, 994.0)">а</text><text xml:space="preserve" font-family="Roboto" font-weight="200" font-size="30.0" fill="#000000" transform="matrix(1.00, 0.00, -0.00, -1.00, 344.2, 994.0)">к</text><text xml:space="preserve" font-family="Roboto" font-weight="200" font-size="30.0" fill="#000000" transform="matrix(1.00, 0.00, -0.00, -1.00, 359.5, 994.0)">с</text><text xml:space="preserve" font-family="Roboto" font-weight="200" font-size="30.0" fill="#000000" transform="matrix(1.00, 0.00, -0.00, -1.00, 374.9, 994.0)">и</text><text xml:space="preserve" font-family="Roboto" font-weight="200" font-size="30.0" fill="#000000" transform="matrix(1.00, 0.00, -0.00, -1.00, 391.8, 994.0)">ч</text><text xml:space="preserve" font-family="Roboto" font-weight="200" font-size="30.0" fill="#000000" transform="matrix(1.00, 0.00, -0.00, -1.00, 407.8, 994.0)">е</text><text xml:space="preserve" font-family="Roboto" font-weight="200" font-size="30.0" fill="#000000" transform="matrix(1.00, 0.00, -0.00, -1.00, 423.2, 994.0)">с</text><text xml:space="preserve" font-family="Roboto" font-weight="200" font-size="30.0" fill="#000000" transform="matrix(1.00, 0.00, -0.00, -1.00, 438.7, 994.0)">к</text><text xml:space="preserve" font-family="Roboto" font-weight="200" font-size="30.0" fill="#000000" transform="matrix(1.00, 0.00, -0.00, -1.00, 453.9, 994.0)">о</text><text xml:space="preserve" font-family="Roboto" font-weight="200" font-size="30.0" fill="#000000" transform="matrix(1.00, 0.00, -0.00, -1.00, 470.7, 994.0)">е</text><text xml:space="preserve" font-family="Roboto" font-weight="200" font-size="30.0" fill="#000000" transform="matrix(1.00, 0.00, -0.00, -1.00, 486.2, 994.0)"> </text><text xml:space="preserve" font-family="Roboto" font-weight="200" font-size="30.0" fill="#000000" transform="matrix(1.00, 0.00, -0.00, -1.00, 493.5, 994.0)">д</text><text xml:space="preserve" font-family="Roboto" font-weight="200" font-size="30.0" fill="#000000" transform="matrix(1.00, 0.00, -0.00, -1.00, 510.7, 994.0)">е</text><text xml:space="preserve" font-family="Roboto" font-weight="200" font-size="30.0" fill="#000000" transform="matrix(1.00, 0.00, -0.00, -1.00, 526.2, 994.0)">р</text><text xml:space="preserve" font-family="Roboto" font-weight="200" font-size="30.0" fill="#000000" transform="matrix(1.00, 0.00, -0.00, -1.00, 542.8, 994.0)">е</text><text xml:space="preserve" font-family="Roboto" font-weight="200" font-size="30.0" fill="#000000" transform="matrix(1.00, 0.00, -0.00, -1.00, 558.3, 994.0)">в</text><text xml:space="preserve" font-family="Roboto" font-weight="200" font-size="30.0" fill="#000000" transform="matrix(1.00, 0.00, -0.00, -1.00, 575.1, 994.0)">о</text><image xlink:href="../../5FE4ACBA-4031-4D1B-8AB6-13D0AE887BFA/assets/1756A060E0732BA57740FE7C84AD0DDF.png" width="960.00" height="203.00" transform="matrix(1.18, 0.00, -0.00, -1.18, 725.0, 1008.0)"></image></g></svg>