<?xml version="1.0" encoding="UTF-8" standalone="no"?><svg xmlns="http://www.w3.org/2000/svg" xmlns:xlink="http://www.w3.org/1999/xlink" clip-rule="evenodd" stroke-miterlimit="4.00" viewBox="0 0 1920 1080"><desc>SVG generated by Keynote</desc><defs></defs><g transform="matrix(1.00, 0.00, -0.00, -1.00, 0.0, 1080.0)"><path d="M 0.0 1080.0 L 1920.0 1080.0 L 1920.0 0.0 L 0.0 0.0 Z M 0.0 1080.0 " fill="#FAFAFA"></path><image xlink:href="../../99C65227-B374-401D-A6FF-4113182B64D3/assets/56B0201BEDF9AB603862A74B84041A5E.png" width="834.00" height="540.00" transform="matrix(1.33, 0.00, -0.00, -1.33, 57.0, 796.0)"></image><path d="M 57.7 1040.3 L 616.1 1040.3 L 616.1 968.8 L 57.7 968.8 Z M 57.7 1040.3 " fill="#FFDA7B"></path><text xml:space="preserve" font-family="Roboto-Light" font-size="30.0" fill="#000000" transform="matrix(1.00, 0.00, -0.00, -1.00, 104.0, 994.0)">Д</text><text xml:space="preserve" font-family="Roboto-Light" font-size="30.0" fill="#000000" transform="matrix(1.00, 0.00, -0.00, -1.00, 125.7, 994.0)">е</text><text xml:space="preserve" font-family="Roboto-Light" font-size="30.0" fill="#000000" transform="matrix(1.00, 0.00, -0.00, -1.00, 141.2, 994.0)">р</text><text xml:space="preserve" font-family="Roboto-Light" font-size="30.0" fill="#000000" transform="matrix(1.00, 0.00, -0.00, -1.00, 157.8, 994.0)">е</text><text xml:space="preserve" font-family="Roboto-Light" font-size="30.0" fill="#000000" transform="matrix(1.00, 0.00, -0.00, -1.00, 173.3, 994.0)">в</text><text xml:space="preserve" font-family="Roboto-Light" font-size="30.0" fill="#000000" transform="matrix(1.00, 0.00, -0.00, -1.00, 190.1, 994.0)">о</text><text xml:space="preserve" font-family="Roboto-Light" font-size="30.0" fill="#000000" transform="matrix(1.00, 0.00, -0.00, -1.00, 206.9, 994.0)"> </text><text xml:space="preserve" font-family="Roboto-Light" font-size="30.0" fill="#000000" transform="matrix(1.00, 0.00, -0.00, -1.00, 214.2, 994.0)">с</text><text xml:space="preserve" font-family="Roboto-Light" font-size="30.0" fill="#000000" transform="matrix(1.00, 0.00, -0.00, -1.00, 229.6, 994.0)">и</text><text xml:space="preserve" font-family="Roboto-Light" font-size="30.0" fill="#000000" transform="matrix(1.00, 0.00, -0.00, -1.00, 246.5, 994.0)">н</text><text xml:space="preserve" font-family="Roboto-Light" font-size="30.0" fill="#000000" transform="matrix(1.00, 0.00, -0.00, -1.00, 263.4, 994.0)">т</text><text xml:space="preserve" font-family="Roboto-Light" font-size="30.0" fill="#000000" transform="matrix(1.00, 0.00, -0.00, -1.00, 277.4, 994.0)">а</text><text xml:space="preserve" font-family="Roboto-Light" font-size="30.0" fill="#000000" transform="matrix(1.00, 0.00, -0.00, -1.00, 293.4, 994.0)">к</text><text xml:space="preserve" font-family="Roboto-Light" font-size="30.0" fill="#000000" transform="matrix(1.00, 0.00, -0.00, -1.00, 308.8, 994.0)">с</text><text xml:space="preserve" font-family="Roboto-Light" font-size="30.0" fill="#000000" transform="matrix(1.00, 0.00, -0.00, -1.00, 324.2, 994.0)">и</text><text xml:space="preserve" font-family="Roboto-Light" font-size="30.0" fill="#000000" transform="matrix(1.00, 0.00, -0.00, -1.00, 341.1, 994.0)">ч</text><text xml:space="preserve" font-family="Roboto-Light" font-size="30.0" fill="#000000" transform="matrix(1.00, 0.00, -0.00, -1.00, 357.0, 994.0)">е</text><text xml:space="preserve" font-family="Roboto-Light" font-size="30.0" fill="#000000" transform="matrix(1.00, 0.00, -0.00, -1.00, 372.5, 994.0)">с</text><text xml:space="preserve" font-family="Roboto-Light" font-size="30.0" fill="#000000" transform="matrix(1.00, 0.00, -0.00, -1.00, 388.0, 994.0)">к</text><text xml:space="preserve" font-family="Roboto-Light" font-size="30.0" fill="#000000" transform="matrix(1.00, 0.00, -0.00, -1.00, 403.2, 994.0)">о</text><text xml:space="preserve" font-family="Roboto-Light" font-size="30.0" fill="#000000" transform="matrix(1.00, 0.00, -0.00, -1.00, 420.0, 994.0)">г</text><text xml:space="preserve" font-family="Roboto-Light" font-size="30.0" fill="#000000" transform="matrix(1.00, 0.00, -0.00, -1.00, 432.4, 994.0)">о</text><text xml:space="preserve" font-family="Roboto-Light" font-size="30.0" fill="#000000" transform="matrix(1.00, 0.00, -0.00, -1.00, 449.2, 994.0)"> </text><text xml:space="preserve" font-family="Roboto-Light" font-size="30.0" fill="#000000" transform="matrix(1.00, 0.00, -0.00, -1.00, 456.5, 994.0)">р</text><text xml:space="preserve" font-family="Roboto-Light" font-size="30.0" fill="#000000" transform="matrix(1.00, 0.00, -0.00, -1.00, 473.1, 994.0)">а</text><text xml:space="preserve" font-family="Roboto-Light" font-size="30.0" fill="#000000" transform="matrix(1.00, 0.00, -0.00, -1.00, 489.2, 994.0)">з</text><text xml:space="preserve" font-family="Roboto-Light" font-size="30.0" fill="#000000" transform="matrix(1.00, 0.00, -0.00, -1.00, 504.4, 994.0)">б</text><text xml:space="preserve" font-family="Roboto-Light" font-size="30.0" fill="#000000" transform="matrix(1.00, 0.00, -0.00, -1.00, 520.9, 994.0)">о</text><text xml:space="preserve" font-family="Roboto-Light" font-size="30.0" fill="#000000" transform="matrix(1.00, 0.00, -0.00, -1.00, 537.7, 994.0)">р</text><text xml:space="preserve" font-family="Roboto-Light" font-size="30.0" fill="#000000" transform="matrix(1.00, 0.00, -0.00, -1.00, 554.3, 994.0)">а</text><image xlink:href="../../5FE4ACBA-4031-4D1B-8AB6-13D0AE887BFA/assets/1756A060E0732BA57740FE7C84AD0DDF.png" width="960.00" height="203.00" transform="matrix(1.18, 0.00, -0.00, -1.18, 725.0, 1008.0)"></image></g></svg>