<?xml version="1.0" encoding="UTF-8" standalone="no"?><svg xmlns="http://www.w3.org/2000/svg" xmlns:xlink="http://www.w3.org/1999/xlink" clip-rule="evenodd" stroke-miterlimit="4.00" viewBox="0 0 1920 1080"><desc>SVG generated by Keynote</desc><defs></defs><g transform="matrix(1.00, 0.00, -0.00, -1.00, 0.0, 1080.0)"><path d="M 0.0 1080.0 L 1920.0 1080.0 L 1920.0 0.0 L 0.0 0.0 Z M 0.0 1080.0 " fill="#FAFAFA"></path><g><clipPath id="clip-1558"><path d="M 1343.5 858.2 L 1842.3 858.2 L 1842.3 1018.7 L 1343.5 1018.7 Z M 1343.5 858.2 "></path></clipPath><g clip-path="url(#clip-1558)"><path d="M 1344.5 1017.7 L 1841.3 1017.7 L 1841.3 859.2 L 1344.5 859.2 Z M 1344.5 1017.7 " fill="#FFDA7B"></path></g></g><g><clipPath id="clip-1559"><path d="M 1429.2 864.3 L 1756.5 864.3 L 1756.5 1012.6 L 1429.2 1012.6 Z M 1429.2 864.3 "></path></clipPath><g clip-path="url(#clip-1559)"><text xml:space="preserve" font-family="Roboto-Light" font-size="84.0" fill="#000000" transform="matrix(1.00, 0.00, -0.00, -1.00, 1454.0, 909.0)">Л</text><text xml:space="preserve" font-family="Roboto-Light" font-size="84.0" fill="#000000" transform="matrix(1.00, 0.00, -0.00, -1.00, 1513.0, 909.0)">о</text><text xml:space="preserve" font-family="Roboto-Light" font-size="84.0" fill="#000000" transform="matrix(1.00, 0.00, -0.00, -1.00, 1560.0, 909.0)">г</text><text xml:space="preserve" font-family="Roboto-Light" font-size="84.0" fill="#000000" transform="matrix(1.00, 0.00, -0.00, -1.00, 1595.5, 909.0)">и</text><text xml:space="preserve" font-family="Roboto-Light" font-size="84.0" fill="#000000" transform="matrix(1.00, 0.00, -0.00, -1.00, 1642.7, 909.0)">к</text><text xml:space="preserve" font-family="Roboto-Light" font-size="84.0" fill="#000000" transform="matrix(1.00, 0.00, -0.00, -1.00, 1686.2, 909.0)">а</text></g></g><g><clipPath id="clip-1560"><path d="M 58.0 1014.0 L 792.0 1014.0 L 792.0 260.0 L 58.0 260.0 Z M 57.6 1013.8 "></path></clipPath><g clip-path="url(#clip-1560)"><image xlink:href="1026FDE741FDCCFF6495BCF189989FF4.png" width="527.00" height="541.00" transform="matrix(1.39, 0.00, -0.00, -1.39, 58.0, 1014.0)"></image></g></g></g></svg>