<?xml version="1.0" encoding="UTF-8" standalone="no"?><svg xmlns="http://www.w3.org/2000/svg" xmlns:xlink="http://www.w3.org/1999/xlink" clip-rule="evenodd" stroke-miterlimit="4.00" viewBox="0 0 1920 1080"><desc>SVG generated by Keynote</desc><defs></defs><g transform="matrix(1.00, 0.00, -0.00, -1.00, 0.0, 1080.0)"><path d="M 0.0 1080.0 L 1920.0 1080.0 L 1920.0 0.0 L 0.0 0.0 Z M 0.0 1080.0 " fill="#FAFAFA"></path><g><clipPath id="clip-1544"><path d="M 1343.5 858.2 L 1842.3 858.2 L 1842.3 1018.7 L 1343.5 1018.7 Z M 1343.5 858.2 "></path></clipPath><g clip-path="url(#clip-1544)"><path d="M 1344.5 1017.7 L 1841.3 1017.7 L 1841.3 859.2 L 1344.5 859.2 Z M 1344.5 1017.7 " fill="#FFDA7B"></path></g></g><g><clipPath id="clip-1545"><path d="M 1429.2 864.3 L 1756.5 864.3 L 1756.5 1012.6 L 1429.2 1012.6 Z M 1429.2 864.3 "></path></clipPath><g clip-path="url(#clip-1545)"><text xml:space="preserve" font-family="Roboto-Light" font-size="84.0" fill="#000000" transform="matrix(1.00, 0.00, -0.00, -1.00, 1454.0, 909.0)">Л</text><text xml:space="preserve" font-family="Roboto-Light" font-size="84.0" fill="#000000" transform="matrix(1.00, 0.00, -0.00, -1.00, 1513.0, 909.0)">о</text><text xml:space="preserve" font-family="Roboto-Light" font-size="84.0" fill="#000000" transform="matrix(1.00, 0.00, -0.00, -1.00, 1560.0, 909.0)">г</text><text xml:space="preserve" font-family="Roboto-Light" font-size="84.0" fill="#000000" transform="matrix(1.00, 0.00, -0.00, -1.00, 1595.5, 909.0)">и</text><text xml:space="preserve" font-family="Roboto-Light" font-size="84.0" fill="#000000" transform="matrix(1.00, 0.00, -0.00, -1.00, 1642.7, 909.0)">к</text><text xml:space="preserve" font-family="Roboto-Light" font-size="84.0" fill="#000000" transform="matrix(1.00, 0.00, -0.00, -1.00, 1686.2, 909.0)">а</text></g></g><g><clipPath id="clip-1546"><path d="M 89.7 36.9 L 666.8 36.9 L 666.8 706.9 L 89.7 706.9 Z M 89.7 36.9 "></path></clipPath><g clip-path="url(#clip-1546)"><path d="M 90.7 705.9 L 665.8 705.9 L 665.8 37.9 L 90.7 37.9 Z M 90.7 705.9 " fill="#FFDA7B"></path></g></g><g><clipPath id="clip-1547"><path d="M 89.7 698.1 L 666.8 698.1 L 666.8 850.4 L 89.7 850.4 Z M 89.7 698.1 "></path></clipPath><g clip-path="url(#clip-1547)"><path d="M 90.7 849.4 L 665.8 849.4 L 665.8 699.1 L 90.7 699.1 Z M 90.7 849.4 " fill="#FEDB7B"></path></g></g><g><clipPath id="clip-1548"><path d="M 82.2 699.1 L 674.3 699.1 L 674.3 849.4 L 82.2 849.4 Z M 82.2 699.1 "></path></clipPath><g clip-path="url(#clip-1548)"><text xml:space="preserve" font-family="Courier-Bold" font-weight="bold" font-size="50.0" fill="#000000" transform="matrix(1.00, 0.00, -0.00, -1.00, 273.0, 757.0)">M</text><text xml:space="preserve" font-family="Courier-Bold" font-weight="bold" font-size="50.0" fill="#000000" transform="matrix(1.00, 0.00, -0.00, -1.00, 303.0, 757.0)">o</text><text xml:space="preserve" font-family="Courier-Bold" font-weight="bold" font-size="50.0" fill="#000000" transform="matrix(1.00, 0.00, -0.00, -1.00, 333.0, 757.0)">n</text><text xml:space="preserve" font-family="Courier-Bold" font-weight="bold" font-size="50.0" fill="#000000" transform="matrix(1.00, 0.00, -0.00, -1.00, 363.0, 757.0)">s</text><text xml:space="preserve" font-family="Courier-Bold" font-weight="bold" font-size="50.0" fill="#000000" transform="matrix(1.00, 0.00, -0.00, -1.00, 393.0, 757.0)">t</text><text xml:space="preserve" font-family="Courier-Bold" font-weight="bold" font-size="50.0" fill="#000000" transform="matrix(1.00, 0.00, -0.00, -1.00, 423.0, 757.0)">e</text><text xml:space="preserve" font-family="Courier-Bold" font-weight="bold" font-size="50.0" fill="#000000" transform="matrix(1.00, 0.00, -0.00, -1.00, 453.1, 757.0)">r</text></g></g><g><clipPath id="clip-1549"><path d="M 110.2 59.4 L 1131.6 59.4 L 1131.6 684.4 L 110.2 684.4 Z M 110.2 59.4 "></path></clipPath><g clip-path="url(#clip-1549)"><text xml:space="preserve" font-family="Courier" font-size="50.0" fill="#000000" transform="matrix(1.00, 0.00, -0.00, -1.00, 123.0, 624.0)">#</text><text xml:space="preserve" font-family="Courier" font-size="50.0" fill="#000000" transform="matrix(1.00, 0.00, -0.00, -1.00, 153.0, 624.0)">c</text><text xml:space="preserve" font-family="Courier" font-size="50.0" fill="#000000" transform="matrix(1.00, 0.00, -0.00, -1.00, 183.0, 624.0)">h</text><text xml:space="preserve" font-family="Courier" font-size="50.0" fill="#000000" transform="matrix(1.00, 0.00, -0.00, -1.00, 213.0, 624.0)">a</text><text xml:space="preserve" font-family="Courier" font-size="50.0" fill="#000000" transform="matrix(1.00, 0.00, -0.00, -1.00, 243.0, 624.0)">r</text><text xml:space="preserve" font-family="Courier" font-size="50.0" fill="#000000" transform="matrix(1.00, 0.00, -0.00, -1.00, 273.0, 624.0)">a</text><text xml:space="preserve" font-family="Courier" font-size="50.0" fill="#000000" transform="matrix(1.00, 0.00, -0.00, -1.00, 303.1, 624.0)">c</text><text xml:space="preserve" font-family="Courier" font-size="50.0" fill="#000000" transform="matrix(1.00, 0.00, -0.00, -1.00, 333.1, 624.0)">t</text><text xml:space="preserve" font-family="Courier" font-size="50.0" fill="#000000" transform="matrix(1.00, 0.00, -0.00, -1.00, 363.1, 624.0)">e</text><text xml:space="preserve" font-family="Courier" font-size="50.0" fill="#000000" transform="matrix(1.00, 0.00, -0.00, -1.00, 393.1, 624.0)">r</text><text xml:space="preserve" font-family="Courier" font-size="50.0" fill="#000000" transform="matrix(1.00, 0.00, -0.00, -1.00, 423.1, 624.0)">i</text><text xml:space="preserve" font-family="Courier" font-size="50.0" fill="#000000" transform="matrix(1.00, 0.00, -0.00, -1.00, 453.1, 624.0)">s</text><text xml:space="preserve" font-family="Courier" font-size="50.0" fill="#000000" transform="matrix(1.00, 0.00, -0.00, -1.00, 483.1, 624.0)">t</text><text xml:space="preserve" font-family="Courier" font-size="50.0" fill="#000000" transform="matrix(1.00, 0.00, -0.00, -1.00, 513.1, 624.0)">i</text><text xml:space="preserve" font-family="Courier" font-size="50.0" fill="#000000" transform="matrix(1.00, 0.00, -0.00, -1.00, 543.1, 624.0)">c</text><text xml:space="preserve" font-family="Courier" font-size="50.0" fill="#000000" transform="matrix(1.00, 0.00, -0.00, -1.00, 573.1, 624.0)">s</text><text xml:space="preserve" font-family="Courier" font-size="50.0" fill="#000000" transform="matrix(1.00, 0.00, -0.00, -1.00, 123.0, 564.0)">#</text><text xml:space="preserve" font-family="Courier" font-size="50.0" fill="#000000" transform="matrix(1.00, 0.00, -0.00, -1.00, 153.0, 564.0)">m</text><text xml:space="preserve" font-family="Courier" font-size="50.0" fill="#000000" transform="matrix(1.00, 0.00, -0.00, -1.00, 183.0, 564.0)">o</text><text xml:space="preserve" font-family="Courier" font-size="50.0" fill="#000000" transform="matrix(1.00, 0.00, -0.00, -1.00, 213.0, 564.0)">d</text><text xml:space="preserve" font-family="Courier" font-size="50.0" fill="#000000" transform="matrix(1.00, 0.00, -0.00, -1.00, 243.0, 564.0)">i</text><text xml:space="preserve" font-family="Courier" font-size="50.0" fill="#000000" transform="matrix(1.00, 0.00, -0.00, -1.00, 273.0, 564.0)">f</text><text xml:space="preserve" font-family="Courier" font-size="50.0" fill="#000000" transform="matrix(1.00, 0.00, -0.00, -1.00, 303.1, 564.0)">i</text><text xml:space="preserve" font-family="Courier" font-size="50.0" fill="#000000" transform="matrix(1.00, 0.00, -0.00, -1.00, 333.1, 564.0)">c</text><text xml:space="preserve" font-family="Courier" font-size="50.0" fill="#000000" transform="matrix(1.00, 0.00, -0.00, -1.00, 363.1, 564.0)">a</text><text xml:space="preserve" font-family="Courier" font-size="50.0" fill="#000000" transform="matrix(1.00, 0.00, -0.00, -1.00, 393.1, 564.0)">t</text><text xml:space="preserve" font-family="Courier" font-size="50.0" fill="#000000" transform="matrix(1.00, 0.00, -0.00, -1.00, 423.1, 564.0)">o</text><text xml:space="preserve" font-family="Courier" font-size="50.0" fill="#000000" transform="matrix(1.00, 0.00, -0.00, -1.00, 453.1, 564.0)">r</text><text xml:space="preserve" font-family="Courier" font-size="50.0" fill="#000000" transform="matrix(1.00, 0.00, -0.00, -1.00, 483.1, 564.0)">s</text><text xml:space="preserve" font-family="Courier" font-size="50.0" fill="#000000" transform="matrix(1.00, 0.00, -0.00, -1.00, 123.0, 444.0)">#</text><text xml:space="preserve" font-family="Courier" font-size="50.0" fill="#000000" transform="matrix(1.00, 0.00, -0.00, -1.00, 153.0, 444.0)">s</text><text xml:space="preserve" font-family="Courier" font-size="50.0" fill="#000000" transform="matrix(1.00, 0.00, -0.00, -1.00, 183.0, 444.0)">t</text><text xml:space="preserve" font-family="Courier" font-size="50.0" fill="#000000" transform="matrix(1.00, 0.00, -0.00, -1.00, 213.0, 444.0)">r</text><text xml:space="preserve" font-family="Courier" font-size="50.0" fill="#000000" transform="matrix(1.00, 0.00, -0.00, -1.00, 243.0, 444.0)">e</text><text xml:space="preserve" font-family="Courier" font-size="50.0" fill="#000000" transform="matrix(1.00, 0.00, -0.00, -1.00, 273.0, 444.0)">n</text><text xml:space="preserve" font-family="Courier" font-size="50.0" fill="#000000" transform="matrix(1.00, 0.00, -0.00, -1.00, 303.1, 444.0)">g</text><text xml:space="preserve" font-family="Courier" font-size="50.0" fill="#000000" transform="matrix(1.00, 0.00, -0.00, -1.00, 333.1, 444.0)">t</text><text xml:space="preserve" font-family="Courier" font-size="50.0" fill="#000000" transform="matrix(1.00, 0.00, -0.00, -1.00, 363.1, 444.0)">h</text><text xml:space="preserve" font-family="Courier" font-size="50.0" fill="#000000" transform="matrix(1.00, 0.00, -0.00, -1.00, 123.0, 384.0)">#</text><text xml:space="preserve" font-family="Courier" font-size="50.0" fill="#000000" transform="matrix(1.00, 0.00, -0.00, -1.00, 153.0, 384.0)">d</text><text xml:space="preserve" font-family="Courier" font-size="50.0" fill="#000000" transform="matrix(1.00, 0.00, -0.00, -1.00, 183.0, 384.0)">e</text><text xml:space="preserve" font-family="Courier" font-size="50.0" fill="#000000" transform="matrix(1.00, 0.00, -0.00, -1.00, 213.0, 384.0)">x</text><text xml:space="preserve" font-family="Courier" font-size="50.0" fill="#000000" transform="matrix(1.00, 0.00, -0.00, -1.00, 243.0, 384.0)">t</text><text xml:space="preserve" font-family="Courier" font-size="50.0" fill="#000000" transform="matrix(1.00, 0.00, -0.00, -1.00, 273.0, 384.0)">e</text><text xml:space="preserve" font-family="Courier" font-size="50.0" fill="#000000" transform="matrix(1.00, 0.00, -0.00, -1.00, 303.1, 384.0)">r</text><text xml:space="preserve" font-family="Courier" font-size="50.0" fill="#000000" transform="matrix(1.00, 0.00, -0.00, -1.00, 333.1, 384.0)">i</text><text xml:space="preserve" font-family="Courier" font-size="50.0" fill="#000000" transform="matrix(1.00, 0.00, -0.00, -1.00, 363.1, 384.0)">t</text><text xml:space="preserve" font-family="Courier" font-size="50.0" fill="#000000" transform="matrix(1.00, 0.00, -0.00, -1.00, 393.1, 384.0)">y</text><text xml:space="preserve" font-family="Courier" font-size="50.0" fill="#000000" transform="matrix(1.00, 0.00, -0.00, -1.00, 123.0, 264.0)">#</text><text xml:space="preserve" font-family="Courier" font-size="50.0" fill="#000000" transform="matrix(1.00, 0.00, -0.00, -1.00, 153.0, 264.0)">a</text><text xml:space="preserve" font-family="Courier" font-size="50.0" fill="#000000" transform="matrix(1.00, 0.00, -0.00, -1.00, 183.0, 264.0)">t</text><text xml:space="preserve" font-family="Courier" font-size="50.0" fill="#000000" transform="matrix(1.00, 0.00, -0.00, -1.00, 213.0, 264.0)">t</text><text xml:space="preserve" font-family="Courier" font-size="50.0" fill="#000000" transform="matrix(1.00, 0.00, -0.00, -1.00, 243.0, 264.0)">a</text><text xml:space="preserve" font-family="Courier" font-size="50.0" fill="#000000" transform="matrix(1.00, 0.00, -0.00, -1.00, 273.0, 264.0)">c</text><text xml:space="preserve" font-family="Courier" font-size="50.0" fill="#000000" transform="matrix(1.00, 0.00, -0.00, -1.00, 303.1, 264.0)">k</text><text xml:space="preserve" font-family="Courier" font-size="50.0" fill="#000000" transform="matrix(1.00, 0.00, -0.00, -1.00, 123.0, 204.0)">#</text><text xml:space="preserve" font-family="Courier" font-size="50.0" fill="#000000" transform="matrix(1.00, 0.00, -0.00, -1.00, 153.0, 204.0)">d</text><text xml:space="preserve" font-family="Courier" font-size="50.0" fill="#000000" transform="matrix(1.00, 0.00, -0.00, -1.00, 183.0, 204.0)">e</text><text xml:space="preserve" font-family="Courier" font-size="50.0" fill="#000000" transform="matrix(1.00, 0.00, -0.00, -1.00, 213.0, 204.0)">f</text><text xml:space="preserve" font-family="Courier" font-size="50.0" fill="#000000" transform="matrix(1.00, 0.00, -0.00, -1.00, 243.0, 204.0)">e</text><text xml:space="preserve" font-family="Courier" font-size="50.0" fill="#000000" transform="matrix(1.00, 0.00, -0.00, -1.00, 273.0, 204.0)">n</text><text xml:space="preserve" font-family="Courier" font-size="50.0" fill="#000000" transform="matrix(1.00, 0.00, -0.00, -1.00, 303.1, 204.0)">c</text><text xml:space="preserve" font-family="Courier" font-size="50.0" fill="#000000" transform="matrix(1.00, 0.00, -0.00, -1.00, 333.1, 204.0)">e</text><text xml:space="preserve" font-family="Courier" font-size="50.0" fill="#000000" transform="matrix(1.00, 0.00, -0.00, -1.00, 123.0, 84.0)">#</text><text xml:space="preserve" font-family="Courier" font-size="50.0" fill="#000000" transform="matrix(1.00, 0.00, -0.00, -1.00, 153.0, 84.0)">a</text><text xml:space="preserve" font-family="Courier" font-size="50.0" fill="#000000" transform="matrix(1.00, 0.00, -0.00, -1.00, 183.0, 84.0)">t</text><text xml:space="preserve" font-family="Courier" font-size="50.0" fill="#000000" transform="matrix(1.00, 0.00, -0.00, -1.00, 213.0, 84.0)">t</text><text xml:space="preserve" font-family="Courier" font-size="50.0" fill="#000000" transform="matrix(1.00, 0.00, -0.00, -1.00, 243.0, 84.0)">a</text><text xml:space="preserve" font-family="Courier" font-size="50.0" fill="#000000" transform="matrix(1.00, 0.00, -0.00, -1.00, 273.0, 84.0)">c</text><text xml:space="preserve" font-family="Courier" font-size="50.0" fill="#000000" transform="matrix(1.00, 0.00, -0.00, -1.00, 303.1, 84.0)">k</text><text xml:space="preserve" font-family="Courier" font-size="50.0" fill="#000000" transform="matrix(1.00, 0.00, -0.00, -1.00, 333.1, 84.0)">!</text></g></g><g><clipPath id="clip-1550"><path d="M 706.1 718.5 L 1283.2 718.5 L 1283.2 847.7 L 706.1 847.7 Z M 706.1 718.5 "></path></clipPath><g clip-path="url(#clip-1550)"><path d="M 707.1 846.7 L 1282.2 846.7 L 1282.2 719.5 L 707.1 719.5 Z M 707.1 846.7 " fill="#FEDB7B"></path></g></g><g><clipPath id="clip-1551"><path d="M 698.6 719.5 L 1290.7 719.5 L 1290.7 846.7 L 698.6 846.7 Z M 698.6 719.5 "></path></clipPath><g clip-path="url(#clip-1551)"><text xml:space="preserve" font-family="Courier-Bold" font-weight="bold" font-size="50.0" fill="#000000" transform="matrix(1.00, 0.00, -0.00, -1.00, 830.0, 765.0)">M</text><text xml:space="preserve" font-family="Courier-Bold" font-weight="bold" font-size="50.0" fill="#000000" transform="matrix(1.00, 0.00, -0.00, -1.00, 860.0, 765.0)">o</text><text xml:space="preserve" font-family="Courier-Bold" font-weight="bold" font-size="50.0" fill="#000000" transform="matrix(1.00, 0.00, -0.00, -1.00, 890.0, 765.0)">d</text><text xml:space="preserve" font-family="Courier-Bold" font-weight="bold" font-size="50.0" fill="#000000" transform="matrix(1.00, 0.00, -0.00, -1.00, 920.0, 765.0)">i</text><text xml:space="preserve" font-family="Courier-Bold" font-weight="bold" font-size="50.0" fill="#000000" transform="matrix(1.00, 0.00, -0.00, -1.00, 950.0, 765.0)">f</text><text xml:space="preserve" font-family="Courier-Bold" font-weight="bold" font-size="50.0" fill="#000000" transform="matrix(1.00, 0.00, -0.00, -1.00, 980.0, 765.0)">i</text><text xml:space="preserve" font-family="Courier-Bold" font-weight="bold" font-size="50.0" fill="#000000" transform="matrix(1.00, 0.00, -0.00, -1.00, 1010.1, 765.0)">c</text><text xml:space="preserve" font-family="Courier-Bold" font-weight="bold" font-size="50.0" fill="#000000" transform="matrix(1.00, 0.00, -0.00, -1.00, 1040.1, 765.0)">a</text><text xml:space="preserve" font-family="Courier-Bold" font-weight="bold" font-size="50.0" fill="#000000" transform="matrix(1.00, 0.00, -0.00, -1.00, 1070.1, 765.0)">t</text><text xml:space="preserve" font-family="Courier-Bold" font-weight="bold" font-size="50.0" fill="#000000" transform="matrix(1.00, 0.00, -0.00, -1.00, 1100.1, 765.0)">o</text><text xml:space="preserve" font-family="Courier-Bold" font-weight="bold" font-size="50.0" fill="#000000" transform="matrix(1.00, 0.00, -0.00, -1.00, 1130.1, 765.0)">r</text></g></g><g><clipPath id="clip-1552"><path d="M 706.3 39.6 L 1283.0 39.6 L 1283.0 722.7 L 706.3 722.7 Z M 706.3 39.6 "></path></clipPath><g clip-path="url(#clip-1552)"><path d="M 707.3 721.7 L 1282.0 721.7 L 1282.0 40.6 L 707.3 40.6 Z M 707.3 721.7 " fill="#FFDA7B"></path></g></g><g><clipPath id="clip-1553"><path d="M 726.6 228.5 L 1627.9 228.5 L 1627.9 673.5 L 726.6 673.5 Z M 726.6 228.5 "></path></clipPath><g clip-path="url(#clip-1553)"><text xml:space="preserve" font-family="Courier" font-size="50.0" fill="#000000" transform="matrix(1.00, 0.00, -0.00, -1.00, 739.0, 613.0)">#</text><text xml:space="preserve" font-family="Courier" font-size="50.0" fill="#000000" transform="matrix(1.00, 0.00, -0.00, -1.00, 769.0, 613.0)">s</text><text xml:space="preserve" font-family="Courier" font-size="50.0" fill="#000000" transform="matrix(1.00, 0.00, -0.00, -1.00, 799.0, 613.0)">t</text><text xml:space="preserve" font-family="Courier" font-size="50.0" fill="#000000" transform="matrix(1.00, 0.00, -0.00, -1.00, 829.0, 613.0)">r</text><text xml:space="preserve" font-family="Courier" font-size="50.0" fill="#000000" transform="matrix(1.00, 0.00, -0.00, -1.00, 739.0, 493.0)">#</text><text xml:space="preserve" font-family="Courier" font-size="50.0" fill="#000000" transform="matrix(1.00, 0.00, -0.00, -1.00, 769.0, 493.0)">a</text><text xml:space="preserve" font-family="Courier" font-size="50.0" fill="#000000" transform="matrix(1.00, 0.00, -0.00, -1.00, 799.0, 493.0)">p</text><text xml:space="preserve" font-family="Courier" font-size="50.0" fill="#000000" transform="matrix(1.00, 0.00, -0.00, -1.00, 829.0, 493.0)">p</text><text xml:space="preserve" font-family="Courier" font-size="50.0" fill="#000000" transform="matrix(1.00, 0.00, -0.00, -1.00, 859.0, 493.0)">l</text><text xml:space="preserve" font-family="Courier" font-size="50.0" fill="#000000" transform="matrix(1.00, 0.00, -0.00, -1.00, 889.0, 493.0)">y</text><text xml:space="preserve" font-family="Courier" font-size="50.0" fill="#000000" transform="matrix(1.00, 0.00, -0.00, -1.00, 739.0, 373.0)">m</text><text xml:space="preserve" font-family="Courier" font-size="50.0" fill="#000000" transform="matrix(1.00, 0.00, -0.00, -1.00, 769.0, 373.0)">o</text><text xml:space="preserve" font-family="Courier" font-size="50.0" fill="#000000" transform="matrix(1.00, 0.00, -0.00, -1.00, 799.0, 373.0)">d</text><text xml:space="preserve" font-family="Courier" font-size="50.0" fill="#000000" transform="matrix(1.00, 0.00, -0.00, -1.00, 829.0, 373.0)">u</text><text xml:space="preserve" font-family="Courier" font-size="50.0" fill="#000000" transform="matrix(1.00, 0.00, -0.00, -1.00, 859.0, 373.0)">l</text><text xml:space="preserve" font-family="Courier" font-size="50.0" fill="#000000" transform="matrix(1.00, 0.00, -0.00, -1.00, 889.0, 373.0)">e</text><text xml:space="preserve" font-family="Courier" font-size="50.0" fill="#000000" transform="matrix(1.00, 0.00, -0.00, -1.00, 739.0, 313.0)"> </text><text xml:space="preserve" font-family="Courier" font-size="50.0" fill="#000000" transform="matrix(1.00, 0.00, -0.00, -1.00, 769.0, 313.0)"> </text><text xml:space="preserve" font-family="Courier" font-size="50.0" fill="#000000" transform="matrix(1.00, 0.00, -0.00, -1.00, 799.0, 313.0)">M</text><text xml:space="preserve" font-family="Courier" font-size="50.0" fill="#000000" transform="matrix(1.00, 0.00, -0.00, -1.00, 829.0, 313.0)">o</text><text xml:space="preserve" font-family="Courier" font-size="50.0" fill="#000000" transform="matrix(1.00, 0.00, -0.00, -1.00, 859.0, 313.0)">d</text><text xml:space="preserve" font-family="Courier" font-size="50.0" fill="#000000" transform="matrix(1.00, 0.00, -0.00, -1.00, 889.0, 313.0)">i</text><text xml:space="preserve" font-family="Courier" font-size="50.0" fill="#000000" transform="matrix(1.00, 0.00, -0.00, -1.00, 919.1, 313.0)">f</text><text xml:space="preserve" font-family="Courier" font-size="50.0" fill="#000000" transform="matrix(1.00, 0.00, -0.00, -1.00, 949.1, 313.0)">i</text><text xml:space="preserve" font-family="Courier" font-size="50.0" fill="#000000" transform="matrix(1.00, 0.00, -0.00, -1.00, 979.1, 313.0)">c</text><text xml:space="preserve" font-family="Courier" font-size="50.0" fill="#000000" transform="matrix(1.00, 0.00, -0.00, -1.00, 1009.1, 313.0)">a</text><text xml:space="preserve" font-family="Courier" font-size="50.0" fill="#000000" transform="matrix(1.00, 0.00, -0.00, -1.00, 1039.1, 313.0)">t</text><text xml:space="preserve" font-family="Courier" font-size="50.0" fill="#000000" transform="matrix(1.00, 0.00, -0.00, -1.00, 1069.1, 313.0)">o</text><text xml:space="preserve" font-family="Courier" font-size="50.0" fill="#000000" transform="matrix(1.00, 0.00, -0.00, -1.00, 1099.1, 313.0)">r</text><text xml:space="preserve" font-family="Courier" font-size="50.0" fill="#000000" transform="matrix(1.00, 0.00, -0.00, -1.00, 1129.1, 313.0)">s</text></g></g><g><clipPath id="clip-1554"><path d="M 1322.4 718.5 L 1899.6 718.5 L 1899.6 847.7 L 1322.4 847.7 Z M 1322.4 718.5 "></path></clipPath><g clip-path="url(#clip-1554)"><path d="M 1323.4 846.7 L 1898.6 846.7 L 1898.6 719.5 L 1323.4 719.5 Z M 1323.4 846.7 " fill="#FEDB7B"></path></g></g><g><clipPath id="clip-1555"><path d="M 1314.9 719.5 L 1907.1 719.5 L 1907.1 846.7 L 1314.9 846.7 Z M 1314.9 719.5 "></path></clipPath><g clip-path="url(#clip-1555)"><text xml:space="preserve" font-family="Courier-Bold" font-weight="bold" font-size="50.0" fill="#000000" transform="matrix(1.00, 0.00, -0.00, -1.00, 1401.0, 765.0)">C</text><text xml:space="preserve" font-family="Courier-Bold" font-weight="bold" font-size="50.0" fill="#000000" transform="matrix(1.00, 0.00, -0.00, -1.00, 1431.0, 765.0)">h</text><text xml:space="preserve" font-family="Courier-Bold" font-weight="bold" font-size="50.0" fill="#000000" transform="matrix(1.00, 0.00, -0.00, -1.00, 1461.0, 765.0)">a</text><text xml:space="preserve" font-family="Courier-Bold" font-weight="bold" font-size="50.0" fill="#000000" transform="matrix(1.00, 0.00, -0.00, -1.00, 1491.0, 765.0)">r</text><text xml:space="preserve" font-family="Courier-Bold" font-weight="bold" font-size="50.0" fill="#000000" transform="matrix(1.00, 0.00, -0.00, -1.00, 1521.0, 765.0)">a</text><text xml:space="preserve" font-family="Courier-Bold" font-weight="bold" font-size="50.0" fill="#000000" transform="matrix(1.00, 0.00, -0.00, -1.00, 1551.0, 765.0)">c</text><text xml:space="preserve" font-family="Courier-Bold" font-weight="bold" font-size="50.0" fill="#000000" transform="matrix(1.00, 0.00, -0.00, -1.00, 1581.1, 765.0)">t</text><text xml:space="preserve" font-family="Courier-Bold" font-weight="bold" font-size="50.0" fill="#000000" transform="matrix(1.00, 0.00, -0.00, -1.00, 1611.1, 765.0)">e</text><text xml:space="preserve" font-family="Courier-Bold" font-weight="bold" font-size="50.0" fill="#000000" transform="matrix(1.00, 0.00, -0.00, -1.00, 1641.1, 765.0)">r</text><text xml:space="preserve" font-family="Courier-Bold" font-weight="bold" font-size="50.0" fill="#000000" transform="matrix(1.00, 0.00, -0.00, -1.00, 1671.1, 765.0)">i</text><text xml:space="preserve" font-family="Courier-Bold" font-weight="bold" font-size="50.0" fill="#000000" transform="matrix(1.00, 0.00, -0.00, -1.00, 1701.1, 765.0)">s</text><text xml:space="preserve" font-family="Courier-Bold" font-weight="bold" font-size="50.0" fill="#000000" transform="matrix(1.00, 0.00, -0.00, -1.00, 1731.1, 765.0)">t</text><text xml:space="preserve" font-family="Courier-Bold" font-weight="bold" font-size="50.0" fill="#000000" transform="matrix(1.00, 0.00, -0.00, -1.00, 1761.1, 765.0)">i</text><text xml:space="preserve" font-family="Courier-Bold" font-weight="bold" font-size="50.0" fill="#000000" transform="matrix(1.00, 0.00, -0.00, -1.00, 1791.1, 765.0)">c</text></g></g><g><clipPath id="clip-1556"><path d="M 1322.6 39.6 L 1899.4 39.6 L 1899.4 722.7 L 1322.6 722.7 Z M 1322.6 39.6 "></path></clipPath><g clip-path="url(#clip-1556)"><path d="M 1323.6 721.7 L 1898.4 721.7 L 1898.4 40.6 L 1323.6 40.6 Z M 1323.6 721.7 " fill="#FFDA7B"></path></g></g><g><clipPath id="clip-1557"><path d="M 1343.0 528.5 L 1704.2 528.5 L 1704.2 673.5 L 1343.0 673.5 Z M 1343.0 528.5 "></path></clipPath><g clip-path="url(#clip-1557)"><text xml:space="preserve" font-family="Courier" font-size="50.0" fill="#000000" transform="matrix(1.00, 0.00, -0.00, -1.00, 1355.0, 613.0)">#</text><text xml:space="preserve" font-family="Courier" font-size="50.0" fill="#000000" transform="matrix(1.00, 0.00, -0.00, -1.00, 1385.0, 613.0)">n</text><text xml:space="preserve" font-family="Courier" font-size="50.0" fill="#000000" transform="matrix(1.00, 0.00, -0.00, -1.00, 1415.0, 613.0)">a</text><text xml:space="preserve" font-family="Courier" font-size="50.0" fill="#000000" transform="matrix(1.00, 0.00, -0.00, -1.00, 1445.0, 613.0)">m</text><text xml:space="preserve" font-family="Courier" font-size="50.0" fill="#000000" transform="matrix(1.00, 0.00, -0.00, -1.00, 1475.0, 613.0)">e</text></g></g></g></svg>