<?xml version="1.0" encoding="UTF-8" standalone="no"?><svg xmlns="http://www.w3.org/2000/svg" xmlns:xlink="http://www.w3.org/1999/xlink" clip-rule="evenodd" stroke-miterlimit="4.00" viewBox="0 0 1920 1080"><desc>SVG generated by Keynote</desc><defs></defs><g transform="matrix(1.00, 0.00, -0.00, -1.00, 0.0, 1080.0)"><path d="M 0.0 1080.0 L 1920.0 1080.0 L 1920.0 0.0 L 0.0 0.0 Z M 0.0 1080.0 " fill="#FAFAFA"></path><g><clipPath id="clip-1637"><path d="M 166.1 745.7 L 709.8 745.7 L 709.8 863.0 L 166.1 863.0 Z M 166.1 745.7 "></path></clipPath><g clip-path="url(#clip-1637)"><path d="M 167.1 862.0 L 708.8 862.0 L 708.8 746.7 L 167.1 746.7 Z M 167.1 862.0 " fill="#FFDA7B"></path></g></g><g><clipPath id="clip-1638"><path d="M 131.0 843.2 L 541.8 843.2 L 541.8 960.5 L 131.0 960.5 Z M 131.0 843.2 "></path></clipPath><g clip-path="url(#clip-1638)"><path d="M 132.0 959.5 L 540.8 959.5 L 540.8 844.2 L 132.0 844.2 Z M 132.0 959.5 " fill="#FFDA7B"></path></g></g><g><clipPath id="clip-1639"><path d="M 183.5 751.9 L 902.9 751.9 L 902.9 956.9 L 183.5 956.9 Z M 183.5 751.9 "></path></clipPath><g clip-path="url(#clip-1639)"><text xml:space="preserve" font-family="Roboto-Light" font-size="70.0" fill="#383E51" transform="matrix(1.00, 0.00, -0.00, -1.00, 204.0, 871.0)">П</text><text xml:space="preserve" font-family="Roboto-Light" font-size="70.0" fill="#383E51" transform="matrix(1.00, 0.00, -0.00, -1.00, 253.5, 871.0)">и</text><text xml:space="preserve" font-family="Roboto-Light" font-size="70.0" fill="#383E51" transform="matrix(1.00, 0.00, -0.00, -1.00, 292.8, 871.0)">ш</text><text xml:space="preserve" font-family="Roboto-Light" font-size="70.0" fill="#383E51" transform="matrix(1.00, 0.00, -0.00, -1.00, 348.4, 871.0)">е</text><text xml:space="preserve" font-family="Roboto-Light" font-size="70.0" fill="#383E51" transform="matrix(1.00, 0.00, -0.00, -1.00, 384.5, 871.0)">м</text><text xml:space="preserve" font-family="Roboto-Light" font-size="70.0" fill="#383E51" transform="matrix(1.00, 0.00, -0.00, -1.00, 435.7, 871.0)"> </text><text xml:space="preserve" font-family="Roboto-Light" font-size="70.0" fill="#383E51" transform="matrix(1.00, 0.00, -0.00, -1.00, 204.0, 789.0)">м</text><text xml:space="preserve" font-family="Roboto-Light" font-size="70.0" fill="#383E51" transform="matrix(1.00, 0.00, -0.00, -1.00, 255.2, 789.0)">о</text><text xml:space="preserve" font-family="Roboto-Light" font-size="70.0" fill="#383E51" transform="matrix(1.00, 0.00, -0.00, -1.00, 291.9, 789.0)">д</text><text xml:space="preserve" font-family="Roboto-Light" font-size="70.0" fill="#383E51" transform="matrix(1.00, 0.00, -0.00, -1.00, 332.1, 789.0)">и</text><text xml:space="preserve" font-family="Roboto-Light" font-size="70.0" fill="#383E51" transform="matrix(1.00, 0.00, -0.00, -1.00, 371.4, 789.0)">ф</text><text xml:space="preserve" font-family="Roboto-Light" font-size="70.0" fill="#383E51" transform="matrix(1.00, 0.00, -0.00, -1.00, 422.1, 789.0)">и</text><text xml:space="preserve" font-family="Roboto-Light" font-size="70.0" fill="#383E51" transform="matrix(1.00, 0.00, -0.00, -1.00, 461.4, 789.0)">к</text><text xml:space="preserve" font-family="Roboto-Light" font-size="70.0" fill="#383E51" transform="matrix(1.00, 0.00, -0.00, -1.00, 497.7, 789.0)">а</text><text xml:space="preserve" font-family="Roboto-Light" font-size="70.0" fill="#383E51" transform="matrix(1.00, 0.00, -0.00, -1.00, 534.6, 789.0)">т</text><text xml:space="preserve" font-family="Roboto-Light" font-size="70.0" fill="#383E51" transform="matrix(1.00, 0.00, -0.00, -1.00, 566.5, 789.0)">о</text><text xml:space="preserve" font-family="Roboto-Light" font-size="70.0" fill="#383E51" transform="matrix(1.00, 0.00, -0.00, -1.00, 605.7, 789.0)">р</text></g></g><image xlink:href="../../495F67C1-EA28-4CD7-96C3-E69069ECE790/assets/148C63AA18DF4B78E836DE7DF4A7FC95.png" width="961.00" height="77.00" transform="matrix(1.68, 0.00, -0.00, -1.70, 152.0, 402.0)"></image></g></svg>