<?xml version="1.0" encoding="UTF-8" standalone="no"?><svg xmlns="http://www.w3.org/2000/svg" xmlns:xlink="http://www.w3.org/1999/xlink" clip-rule="evenodd" stroke-miterlimit="4.00" viewBox="0 0 1920 1080"><desc>SVG generated by Keynote</desc><defs></defs><g transform="matrix(1.00, 0.00, -0.00, -1.00, 0.0, 1080.0)"><path d="M 0.0 1080.0 L 1920.0 1080.0 L 1920.0 0.0 L 0.0 0.0 Z M 0.0 1080.0 " fill="#FAFAFA"></path><path d="M 305.3 949.1 L 1645.2 949.1 L 1645.2 775.1 L 305.3 775.1 Z M 305.3 949.1 " fill="#FFDA7B"></path><g><clipPath id="clip-294"><path d="M 784.0 716.0 L 1878.0 716.0 L 1878.0 67.0 L 784.0 67.0 Z M 784.2 716.2 "></path></clipPath><g clip-path="url(#clip-294)"><image xlink:href="87DB3FFDF75850B8C30AEAB8856509DF.png" width="393.00" height="541.00" transform="matrix(2.78, 0.00, -0.00, -2.78, 784.0, 963.0)"></image></g></g><text xml:space="preserve" font-family="Roboto" font-weight="200" font-size="84.0" fill="#000000" transform="matrix(1.00, 0.00, -0.00, -1.00, 336.0, 833.0)">В</text><text xml:space="preserve" font-family="Roboto" font-weight="200" font-size="84.0" fill="#000000" transform="matrix(1.00, 0.00, -0.00, -1.00, 387.5, 833.0)">з</text><text xml:space="preserve" font-family="Roboto" font-weight="200" font-size="84.0" fill="#000000" transform="matrix(1.00, 0.00, -0.00, -1.00, 430.0, 833.0)">а</text><text xml:space="preserve" font-family="Roboto" font-weight="200" font-size="84.0" fill="#000000" transform="matrix(1.00, 0.00, -0.00, -1.00, 475.0, 833.0)">и</text><text xml:space="preserve" font-family="Roboto" font-weight="200" font-size="84.0" fill="#000000" transform="matrix(1.00, 0.00, -0.00, -1.00, 522.2, 833.0)">м</text><text xml:space="preserve" font-family="Roboto" font-weight="200" font-size="84.0" fill="#000000" transform="matrix(1.00, 0.00, -0.00, -1.00, 583.6, 833.0)">о</text><text xml:space="preserve" font-family="Roboto" font-weight="200" font-size="84.0" fill="#000000" transform="matrix(1.00, 0.00, -0.00, -1.00, 627.7, 833.0)">д</text><text xml:space="preserve" font-family="Roboto" font-weight="200" font-size="84.0" fill="#000000" transform="matrix(1.00, 0.00, -0.00, -1.00, 675.9, 833.0)">е</text><text xml:space="preserve" font-family="Roboto" font-weight="200" font-size="84.0" fill="#000000" transform="matrix(1.00, 0.00, -0.00, -1.00, 719.2, 833.0)">й</text><text xml:space="preserve" font-family="Roboto" font-weight="200" font-size="84.0" fill="#000000" transform="matrix(1.00, 0.00, -0.00, -1.00, 766.4, 833.0)">с</text><text xml:space="preserve" font-family="Roboto" font-weight="200" font-size="84.0" fill="#000000" transform="matrix(1.00, 0.00, -0.00, -1.00, 809.7, 833.0)">т</text><text xml:space="preserve" font-family="Roboto" font-weight="200" font-size="84.0" fill="#000000" transform="matrix(1.00, 0.00, -0.00, -1.00, 849.6, 833.0)">в</text><text xml:space="preserve" font-family="Roboto" font-weight="200" font-size="84.0" fill="#000000" transform="matrix(1.00, 0.00, -0.00, -1.00, 896.6, 833.0)">и</text><text xml:space="preserve" font-family="Roboto" font-weight="200" font-size="84.0" fill="#000000" transform="matrix(1.00, 0.00, -0.00, -1.00, 943.8, 833.0)">е</text><text xml:space="preserve" font-family="Roboto" font-weight="200" font-size="84.0" fill="#000000" transform="matrix(1.00, 0.00, -0.00, -1.00, 987.2, 833.0)"> </text><text xml:space="preserve" font-family="Roboto" font-weight="200" font-size="84.0" fill="#000000" transform="matrix(1.00, 0.00, -0.00, -1.00, 1007.6, 833.0)">и</text><text xml:space="preserve" font-family="Roboto" font-weight="200" font-size="84.0" fill="#000000" transform="matrix(1.00, 0.00, -0.00, -1.00, 1054.8, 833.0)"> </text><text xml:space="preserve" font-family="Roboto" font-weight="200" font-size="84.0" fill="#000000" transform="matrix(1.00, 0.00, -0.00, -1.00, 1075.3, 833.0)">в</text><text xml:space="preserve" font-family="Roboto" font-weight="200" font-size="84.0" fill="#000000" transform="matrix(1.00, 0.00, -0.00, -1.00, 1122.2, 833.0)">н</text><text xml:space="preserve" font-family="Roboto" font-weight="200" font-size="84.0" fill="#000000" transform="matrix(1.00, 0.00, -0.00, -1.00, 1169.4, 833.0)">е</text><text xml:space="preserve" font-family="Roboto" font-weight="200" font-size="84.0" fill="#000000" transform="matrix(1.00, 0.00, -0.00, -1.00, 1212.8, 833.0)">ш</text><text xml:space="preserve" font-family="Roboto" font-weight="200" font-size="84.0" fill="#000000" transform="matrix(1.00, 0.00, -0.00, -1.00, 1279.5, 833.0)">н</text><text xml:space="preserve" font-family="Roboto" font-weight="200" font-size="84.0" fill="#000000" transform="matrix(1.00, 0.00, -0.00, -1.00, 1326.7, 833.0)">и</text><text xml:space="preserve" font-family="Roboto" font-weight="200" font-size="84.0" fill="#000000" transform="matrix(1.00, 0.00, -0.00, -1.00, 1373.9, 833.0)">й</text><text xml:space="preserve" font-family="Roboto" font-weight="200" font-size="84.0" fill="#000000" transform="matrix(1.00, 0.00, -0.00, -1.00, 1421.1, 833.0)"> </text><text xml:space="preserve" font-family="Roboto" font-weight="200" font-size="84.0" fill="#000000" transform="matrix(1.00, 0.00, -0.00, -1.00, 1441.6, 833.0)">в</text><text xml:space="preserve" font-family="Roboto" font-weight="200" font-size="84.0" fill="#000000" transform="matrix(1.00, 0.00, -0.00, -1.00, 1488.5, 833.0)">и</text><text xml:space="preserve" font-family="Roboto" font-weight="200" font-size="84.0" fill="#000000" transform="matrix(1.00, 0.00, -0.00, -1.00, 1535.7, 833.0)">д</text></g></svg>