<?xml version="1.0" encoding="UTF-8" standalone="no"?><svg xmlns="http://www.w3.org/2000/svg" xmlns:xlink="http://www.w3.org/1999/xlink" clip-rule="evenodd" stroke-miterlimit="4.00" viewBox="0 0 1920 1080"><desc>SVG generated by Keynote</desc><defs></defs><g transform="matrix(1.00, 0.00, -0.00, -1.00, 0.0, 1080.0)"><path d="M 0.0 1080.0 L 1920.0 1080.0 L 1920.0 0.0 L 0.0 0.0 Z M 0.0 1080.0 " fill="#FECF60"></path><path d="M 692.5 643.1 L 1671.4 643.1 L 1671.4 436.9 L 692.5 436.9 Z M 692.5 643.1 " fill="#FEDF73"></path><text xml:space="preserve" font-family="Monaco" font-size="140.0" fill="#000000" transform="matrix(1.00, 0.00, -0.00, -1.00, 796.0, 487.0)">/</text><text xml:space="preserve" font-family="Monaco" font-size="140.0" fill="#000000" transform="matrix(1.00, 0.00, -0.00, -1.00, 880.0, 487.0)">R</text><text xml:space="preserve" font-family="Monaco" font-size="140.0" fill="#000000" transform="matrix(1.00, 0.00, -0.00, -1.00, 964.0, 487.0)">E</text><text xml:space="preserve" font-family="Monaco" font-size="140.0" fill="#000000" transform="matrix(1.00, 0.00, -0.00, -1.00, 1048.1, 487.0)">A</text><text xml:space="preserve" font-family="Monaco" font-size="140.0" fill="#000000" transform="matrix(1.00, 0.00, -0.00, -1.00, 1132.1, 487.0)">D</text><text xml:space="preserve" font-family="Monaco" font-size="140.0" fill="#000000" transform="matrix(1.00, 0.00, -0.00, -1.00, 1216.1, 487.0)">M</text><text xml:space="preserve" font-family="Monaco" font-size="140.0" fill="#000000" transform="matrix(1.00, 0.00, -0.00, -1.00, 1300.2, 487.0)">E</text><text xml:space="preserve" font-family="Monaco" font-size="140.0" fill="#000000" transform="matrix(1.00, 0.00, -0.00, -1.00, 1384.2, 487.0)">.</text><text xml:space="preserve" font-family="Monaco" font-size="140.0" fill="#000000" transform="matrix(1.00, 0.00, -0.00, -1.00, 1468.2, 487.0)">m</text><text xml:space="preserve" font-family="Monaco" font-size="140.0" fill="#000000" transform="matrix(1.00, 0.00, -0.00, -1.00, 1552.2, 487.0)">d</text></g></svg>