<?xml version="1.0" encoding="UTF-8" standalone="no"?><svg xmlns="http://www.w3.org/2000/svg" xmlns:xlink="http://www.w3.org/1999/xlink" clip-rule="evenodd" stroke-miterlimit="4.00" viewBox="0 0 508 100"><desc>SVG generated by Keynote</desc><defs></defs><g transform="matrix(1.00, 0.00, -0.00, -1.00, 0.0, 100.0)"><text xml:space="preserve" font-family="Roboto-Light" font-size="100.0" fill="#000000" transform="matrix(1.00, 0.00, -0.00, -1.00, -7.0, 22.0)">П</text><text xml:space="preserve" font-family="Roboto-Light" font-size="100.0" fill="#000000" transform="matrix(1.00, 0.00, -0.00, -1.00, 63.7, 22.0)">р</text><text xml:space="preserve" font-family="Roboto-Light" font-size="100.0" fill="#000000" transform="matrix(1.00, 0.00, -0.00, -1.00, 119.1, 22.0)">о</text><text xml:space="preserve" font-family="Roboto-Light" font-size="100.0" fill="#000000" transform="matrix(1.00, 0.00, -0.00, -1.00, 175.2, 22.0)">б</text><text xml:space="preserve" font-family="Roboto-Light" font-size="100.0" fill="#000000" transform="matrix(1.00, 0.00, -0.00, -1.00, 230.2, 22.0)">л</text><text xml:space="preserve" font-family="Roboto-Light" font-size="100.0" fill="#000000" transform="matrix(1.00, 0.00, -0.00, -1.00, 286.5, 22.0)">е</text><text xml:space="preserve" font-family="Roboto-Light" font-size="100.0" fill="#000000" transform="matrix(1.00, 0.00, -0.00, -1.00, 338.1, 22.0)">м</text><text xml:space="preserve" font-family="Roboto-Light" font-size="100.0" fill="#000000" transform="matrix(1.00, 0.00, -0.00, -1.00, 411.2, 22.0)">а</text><text xml:space="preserve" font-family="Roboto-Light" font-size="100.0" fill="#000000" transform="matrix(1.00, 0.00, -0.00, -1.00, 464.8, 22.0)">?</text></g></svg>