<?xml version="1.0" encoding="UTF-8" standalone="no"?><svg xmlns="http://www.w3.org/2000/svg" xmlns:xlink="http://www.w3.org/1999/xlink" clip-rule="evenodd" stroke-miterlimit="4.00" viewBox="0 0 1920 1080"><desc>SVG generated by Keynote</desc><defs></defs><g transform="matrix(1.00, 0.00, -0.00, -1.00, 0.0, 1080.0)"><path d="M 0.0 1080.0 L 1920.0 1080.0 L 1920.0 0.0 L 0.0 0.0 Z M 0.0 1080.0 " fill="#FAFAFA"></path><path d="M 88.2 979.5 L 1008.3 979.5 L 1008.3 869.3 L 88.2 869.3 Z M 88.2 979.5 " fill="#FFDA7B"></path><text xml:space="preserve" font-family="Roboto-Light" font-size="50.0" fill="#000000" transform="matrix(1.00, 0.00, -0.00, -1.00, 124.0, 904.0)">А</text><text xml:space="preserve" font-family="Roboto-Light" font-size="50.0" fill="#000000" transform="matrix(1.00, 0.00, -0.00, -1.00, 155.2, 904.0)">б</text><text xml:space="preserve" font-family="Roboto-Light" font-size="50.0" fill="#000000" transform="matrix(1.00, 0.00, -0.00, -1.00, 182.7, 904.0)">с</text><text xml:space="preserve" font-family="Roboto-Light" font-size="50.0" fill="#000000" transform="matrix(1.00, 0.00, -0.00, -1.00, 208.5, 904.0)">т</text><text xml:space="preserve" font-family="Roboto-Light" font-size="50.0" fill="#000000" transform="matrix(1.00, 0.00, -0.00, -1.00, 232.3, 904.0)">р</text><text xml:space="preserve" font-family="Roboto-Light" font-size="50.0" fill="#000000" transform="matrix(1.00, 0.00, -0.00, -1.00, 260.0, 904.0)">а</text><text xml:space="preserve" font-family="Roboto-Light" font-size="50.0" fill="#000000" transform="matrix(1.00, 0.00, -0.00, -1.00, 286.7, 904.0)">к</text><text xml:space="preserve" font-family="Roboto-Light" font-size="50.0" fill="#000000" transform="matrix(1.00, 0.00, -0.00, -1.00, 312.6, 904.0)">т</text><text xml:space="preserve" font-family="Roboto-Light" font-size="50.0" fill="#000000" transform="matrix(1.00, 0.00, -0.00, -1.00, 336.4, 904.0)">н</text><text xml:space="preserve" font-family="Roboto-Light" font-size="50.0" fill="#000000" transform="matrix(1.00, 0.00, -0.00, -1.00, 364.5, 904.0)">о</text><text xml:space="preserve" font-family="Roboto-Light" font-size="50.0" fill="#000000" transform="matrix(1.00, 0.00, -0.00, -1.00, 392.5, 904.0)">е</text><text xml:space="preserve" font-family="Roboto-Light" font-size="50.0" fill="#000000" transform="matrix(1.00, 0.00, -0.00, -1.00, 418.3, 904.0)"> </text><text xml:space="preserve" font-family="Roboto-Light" font-size="50.0" fill="#000000" transform="matrix(1.00, 0.00, -0.00, -1.00, 430.5, 904.0)">с</text><text xml:space="preserve" font-family="Roboto-Light" font-size="50.0" fill="#000000" transform="matrix(1.00, 0.00, -0.00, -1.00, 456.3, 904.0)">и</text><text xml:space="preserve" font-family="Roboto-Light" font-size="50.0" fill="#000000" transform="matrix(1.00, 0.00, -0.00, -1.00, 484.4, 904.0)">н</text><text xml:space="preserve" font-family="Roboto-Light" font-size="50.0" fill="#000000" transform="matrix(1.00, 0.00, -0.00, -1.00, 512.5, 904.0)">т</text><text xml:space="preserve" font-family="Roboto-Light" font-size="50.0" fill="#000000" transform="matrix(1.00, 0.00, -0.00, -1.00, 535.8, 904.0)">а</text><text xml:space="preserve" font-family="Roboto-Light" font-size="50.0" fill="#000000" transform="matrix(1.00, 0.00, -0.00, -1.00, 562.6, 904.0)">к</text><text xml:space="preserve" font-family="Roboto-Light" font-size="50.0" fill="#000000" transform="matrix(1.00, 0.00, -0.00, -1.00, 588.1, 904.0)">с</text><text xml:space="preserve" font-family="Roboto-Light" font-size="50.0" fill="#000000" transform="matrix(1.00, 0.00, -0.00, -1.00, 613.9, 904.0)">и</text><text xml:space="preserve" font-family="Roboto-Light" font-size="50.0" fill="#000000" transform="matrix(1.00, 0.00, -0.00, -1.00, 642.0, 904.0)">ч</text><text xml:space="preserve" font-family="Roboto-Light" font-size="50.0" fill="#000000" transform="matrix(1.00, 0.00, -0.00, -1.00, 668.6, 904.0)">е</text><text xml:space="preserve" font-family="Roboto-Light" font-size="50.0" fill="#000000" transform="matrix(1.00, 0.00, -0.00, -1.00, 694.4, 904.0)">с</text><text xml:space="preserve" font-family="Roboto-Light" font-size="50.0" fill="#000000" transform="matrix(1.00, 0.00, -0.00, -1.00, 720.2, 904.0)">к</text><text xml:space="preserve" font-family="Roboto-Light" font-size="50.0" fill="#000000" transform="matrix(1.00, 0.00, -0.00, -1.00, 745.6, 904.0)">о</text><text xml:space="preserve" font-family="Roboto-Light" font-size="50.0" fill="#000000" transform="matrix(1.00, 0.00, -0.00, -1.00, 773.6, 904.0)">е</text><text xml:space="preserve" font-family="Roboto-Light" font-size="50.0" fill="#000000" transform="matrix(1.00, 0.00, -0.00, -1.00, 799.4, 904.0)"> </text><text xml:space="preserve" font-family="Roboto-Light" font-size="50.0" fill="#000000" transform="matrix(1.00, 0.00, -0.00, -1.00, 811.5, 904.0)">д</text><text xml:space="preserve" font-family="Roboto-Light" font-size="50.0" fill="#000000" transform="matrix(1.00, 0.00, -0.00, -1.00, 840.2, 904.0)">е</text><text xml:space="preserve" font-family="Roboto-Light" font-size="50.0" fill="#000000" transform="matrix(1.00, 0.00, -0.00, -1.00, 866.0, 904.0)">р</text><text xml:space="preserve" font-family="Roboto-Light" font-size="50.0" fill="#000000" transform="matrix(1.00, 0.00, -0.00, -1.00, 893.7, 904.0)">е</text><text xml:space="preserve" font-family="Roboto-Light" font-size="50.0" fill="#000000" transform="matrix(1.00, 0.00, -0.00, -1.00, 919.6, 904.0)">в</text><text xml:space="preserve" font-family="Roboto-Light" font-size="50.0" fill="#000000" transform="matrix(1.00, 0.00, -0.00, -1.00, 947.5, 904.0)">о</text><image xlink:href="../../5FE4ACBA-4031-4D1B-8AB6-13D0AE887BFA/assets/1756A060E0732BA57740FE7C84AD0DDF.png" width="960.00" height="203.00" transform="matrix(1.44, 0.00, -0.00, -1.44, 439.0, 656.0)"></image></g></svg>