<?xml version="1.0" encoding="UTF-8" standalone="no"?><svg xmlns="http://www.w3.org/2000/svg" xmlns:xlink="http://www.w3.org/1999/xlink" clip-rule="evenodd" stroke-miterlimit="4.00" viewBox="0 0 1920 1080"><desc>SVG generated by Keynote</desc><defs></defs><g transform="matrix(1.00, 0.00, -0.00, -1.00, 0.0, 1080.0)"><path d="M 0.0 1080.0 L 1920.0 1080.0 L 1920.0 0.0 L 0.0 0.0 Z M 0.0 1080.0 " fill="#FECF60"></path><g><clipPath id="clip-2203"><path d="M 785.9 85.0 L 1190.8 85.0 L 1190.8 247.7 L 785.9 247.7 Z M 785.9 85.0 "></path></clipPath><g clip-path="url(#clip-2203)"><path d="M 786.9 246.7 L 1189.8 246.7 L 1189.8 86.0 L 786.9 86.0 Z M 786.9 246.7 " fill="#ECC159"></path></g></g><g><clipPath id="clip-2204"><path d="M 767.8 442.1 L 1246.6 442.1 L 1246.6 764.4 L 767.8 764.4 Z M 767.8 442.1 "></path></clipPath><g clip-path="url(#clip-2204)"><path d="M 768.8 763.4 L 1245.6 763.4 L 1245.6 443.1 L 768.8 443.1 Z M 768.8 763.4 " fill="#ECC159"></path></g></g><g><clipPath id="clip-2205"><path d="M 1548.3 48.1 L 1842.8 48.1 L 1842.8 210.8 L 1548.3 210.8 Z M 1548.3 48.1 "></path></clipPath><g clip-path="url(#clip-2205)"><path d="M 1549.3 209.8 L 1841.8 209.8 L 1841.8 49.1 L 1549.3 49.1 Z M 1549.3 209.8 " fill="#ECC159"></path></g></g><g><clipPath id="clip-2206"><path d="M 1663.3 458.8 L 1852.0 458.8 L 1852.0 788.0 L 1663.3 788.0 Z M 1663.3 458.8 "></path></clipPath><g clip-path="url(#clip-2206)"><path d="M 1664.3 787.0 L 1851.0 787.0 L 1851.0 459.8 L 1664.3 459.8 Z M 1664.3 787.0 " fill="#ECC159"></path></g></g><g><clipPath id="clip-2207"><path d="M 809.0 118.5 L 1814.8 118.5 L 1814.8 769.3 L 809.0 769.3 Z M 809.0 118.5 "></path></clipPath><g clip-path="url(#clip-2207)"><path d="M 810.0 768.3 L 1813.8 768.3 L 1813.8 119.5 L 810.0 119.5 Z M 810.0 768.3 " fill="#FAFAFA"></path></g></g><text xml:space="preserve" font-family="Monaco" font-size="50.0" fill="#A6AAA8" transform="matrix(1.00, 0.00, -0.00, -1.00, 863.0, 655.0)">$</text><text xml:space="preserve" font-family="Monaco" font-size="50.0" fill="#A6AAA8" transform="matrix(1.00, 0.00, -0.00, -1.00, 893.0, 655.0)"> </text><text xml:space="preserve" font-family="Monaco" font-size="50.0" fill="#000000" transform="matrix(1.00, 0.00, -0.00, -1.00, 923.0, 655.0)">m</text><text xml:space="preserve" font-family="Monaco" font-size="50.0" fill="#000000" transform="matrix(1.00, 0.00, -0.00, -1.00, 953.0, 655.0)">i</text><text xml:space="preserve" font-family="Monaco" font-size="50.0" fill="#000000" transform="matrix(1.00, 0.00, -0.00, -1.00, 983.0, 655.0)">x</text><text xml:space="preserve" font-family="Monaco" font-size="50.0" fill="#000000" transform="matrix(1.00, 0.00, -0.00, -1.00, 1013.0, 655.0)"> </text><text xml:space="preserve" font-family="Monaco" font-size="50.0" fill="#000000" transform="matrix(1.00, 0.00, -0.00, -1.00, 1043.0, 655.0)">d</text><text xml:space="preserve" font-family="Monaco" font-size="50.0" fill="#000000" transform="matrix(1.00, 0.00, -0.00, -1.00, 1073.1, 655.0)">e</text><text xml:space="preserve" font-family="Monaco" font-size="50.0" fill="#000000" transform="matrix(1.00, 0.00, -0.00, -1.00, 1103.1, 655.0)">p</text><text xml:space="preserve" font-family="Monaco" font-size="50.0" fill="#000000" transform="matrix(1.00, 0.00, -0.00, -1.00, 1133.1, 655.0)">s</text><text xml:space="preserve" font-family="Monaco" font-size="50.0" fill="#000000" transform="matrix(1.00, 0.00, -0.00, -1.00, 1163.1, 655.0)">.</text><text xml:space="preserve" font-family="Monaco" font-size="50.0" fill="#000000" transform="matrix(1.00, 0.00, -0.00, -1.00, 1193.1, 655.0)">g</text><text xml:space="preserve" font-family="Monaco" font-size="50.0" fill="#000000" transform="matrix(1.00, 0.00, -0.00, -1.00, 1223.1, 655.0)">e</text><text xml:space="preserve" font-family="Monaco" font-size="50.0" fill="#000000" transform="matrix(1.00, 0.00, -0.00, -1.00, 1253.1, 655.0)">t</text><text xml:space="preserve" font-family="Monaco" font-size="50.0" fill="#A6AAA8" transform="matrix(1.00, 0.00, -0.00, -1.00, 863.0, 588.0)">$</text><text xml:space="preserve" font-family="Monaco" font-size="50.0" fill="#A6AAA8" transform="matrix(1.00, 0.00, -0.00, -1.00, 893.0, 588.0)"> </text><text xml:space="preserve" font-family="Monaco" font-size="50.0" fill="#000000" transform="matrix(1.00, 0.00, -0.00, -1.00, 923.0, 588.0)">m</text><text xml:space="preserve" font-family="Monaco" font-size="50.0" fill="#000000" transform="matrix(1.00, 0.00, -0.00, -1.00, 953.0, 588.0)">i</text><text xml:space="preserve" font-family="Monaco" font-size="50.0" fill="#000000" transform="matrix(1.00, 0.00, -0.00, -1.00, 983.0, 588.0)">x</text><text xml:space="preserve" font-family="Monaco" font-size="50.0" fill="#000000" transform="matrix(1.00, 0.00, -0.00, -1.00, 1013.0, 588.0)"> </text><text xml:space="preserve" font-family="Monaco" font-size="50.0" fill="#000000" transform="matrix(1.00, 0.00, -0.00, -1.00, 1043.0, 588.0)">p</text><text xml:space="preserve" font-family="Monaco" font-size="50.0" fill="#000000" transform="matrix(1.00, 0.00, -0.00, -1.00, 1073.1, 588.0)">h</text><text xml:space="preserve" font-family="Monaco" font-size="50.0" fill="#000000" transform="matrix(1.00, 0.00, -0.00, -1.00, 1103.1, 588.0)">o</text><text xml:space="preserve" font-family="Monaco" font-size="50.0" fill="#000000" transform="matrix(1.00, 0.00, -0.00, -1.00, 1133.1, 588.0)">e</text><text xml:space="preserve" font-family="Monaco" font-size="50.0" fill="#000000" transform="matrix(1.00, 0.00, -0.00, -1.00, 1163.1, 588.0)">n</text><text xml:space="preserve" font-family="Monaco" font-size="50.0" fill="#000000" transform="matrix(1.00, 0.00, -0.00, -1.00, 1193.1, 588.0)">i</text><text xml:space="preserve" font-family="Monaco" font-size="50.0" fill="#000000" transform="matrix(1.00, 0.00, -0.00, -1.00, 1223.1, 588.0)">x</text><text xml:space="preserve" font-family="Monaco" font-size="50.0" fill="#000000" transform="matrix(1.00, 0.00, -0.00, -1.00, 1253.1, 588.0)">.</text><text xml:space="preserve" font-family="Monaco" font-size="50.0" fill="#000000" transform="matrix(1.00, 0.00, -0.00, -1.00, 1283.1, 588.0)">d</text><text xml:space="preserve" font-family="Monaco" font-size="50.0" fill="#000000" transform="matrix(1.00, 0.00, -0.00, -1.00, 1313.1, 588.0)">i</text><text xml:space="preserve" font-family="Monaco" font-size="50.0" fill="#000000" transform="matrix(1.00, 0.00, -0.00, -1.00, 1343.1, 588.0)">g</text><text xml:space="preserve" font-family="Monaco" font-size="50.0" fill="#000000" transform="matrix(1.00, 0.00, -0.00, -1.00, 1373.2, 588.0)">e</text><text xml:space="preserve" font-family="Monaco" font-size="50.0" fill="#000000" transform="matrix(1.00, 0.00, -0.00, -1.00, 1403.2, 588.0)">s</text><text xml:space="preserve" font-family="Monaco" font-size="50.0" fill="#000000" transform="matrix(1.00, 0.00, -0.00, -1.00, 1433.2, 588.0)">t</text><text xml:space="preserve" font-family="Monaco" font-size="50.0" fill="#A6AAA8" transform="matrix(1.00, 0.00, -0.00, -1.00, 863.0, 521.0)">$</text><text xml:space="preserve" font-family="Monaco" font-size="50.0" fill="#A6AAA8" transform="matrix(1.00, 0.00, -0.00, -1.00, 893.0, 521.0)"> </text><text xml:space="preserve" font-family="Monaco" font-size="50.0" fill="#000000" transform="matrix(1.00, 0.00, -0.00, -1.00, 923.0, 521.0)">m</text><text xml:space="preserve" font-family="Monaco" font-size="50.0" fill="#000000" transform="matrix(1.00, 0.00, -0.00, -1.00, 953.0, 521.0)">i</text><text xml:space="preserve" font-family="Monaco" font-size="50.0" fill="#000000" transform="matrix(1.00, 0.00, -0.00, -1.00, 983.0, 521.0)">x</text><text xml:space="preserve" font-family="Monaco" font-size="50.0" fill="#000000" transform="matrix(1.00, 0.00, -0.00, -1.00, 1013.0, 521.0)"> </text><text xml:space="preserve" font-family="Monaco" font-size="50.0" fill="#000000" transform="matrix(1.00, 0.00, -0.00, -1.00, 1043.0, 521.0)">c</text><text xml:space="preserve" font-family="Monaco" font-size="50.0" fill="#000000" transform="matrix(1.00, 0.00, -0.00, -1.00, 1073.1, 521.0)">o</text><text xml:space="preserve" font-family="Monaco" font-size="50.0" fill="#000000" transform="matrix(1.00, 0.00, -0.00, -1.00, 1103.1, 521.0)">m</text><text xml:space="preserve" font-family="Monaco" font-size="50.0" fill="#000000" transform="matrix(1.00, 0.00, -0.00, -1.00, 1133.1, 521.0)">p</text><text xml:space="preserve" font-family="Monaco" font-size="50.0" fill="#000000" transform="matrix(1.00, 0.00, -0.00, -1.00, 1163.1, 521.0)">i</text><text xml:space="preserve" font-family="Monaco" font-size="50.0" fill="#000000" transform="matrix(1.00, 0.00, -0.00, -1.00, 1193.1, 521.0)">l</text><text xml:space="preserve" font-family="Monaco" font-size="50.0" fill="#000000" transform="matrix(1.00, 0.00, -0.00, -1.00, 1223.1, 521.0)">e</text><text xml:space="preserve" font-family="Monaco" font-size="50.0" fill="#A6AAA8" transform="matrix(1.00, 0.00, -0.00, -1.00, 863.0, 454.0)">$</text><text xml:space="preserve" font-family="Monaco" font-size="50.0" fill="#A6AAA8" transform="matrix(1.00, 0.00, -0.00, -1.00, 893.0, 454.0)"> </text><text xml:space="preserve" font-family="Monaco" font-size="50.0" fill="#000000" transform="matrix(1.00, 0.00, -0.00, -1.00, 923.0, 454.0)">m</text><text xml:space="preserve" font-family="Monaco" font-size="50.0" fill="#000000" transform="matrix(1.00, 0.00, -0.00, -1.00, 953.0, 454.0)">i</text><text xml:space="preserve" font-family="Monaco" font-size="50.0" fill="#000000" transform="matrix(1.00, 0.00, -0.00, -1.00, 983.0, 454.0)">x</text><text xml:space="preserve" font-family="Monaco" font-size="50.0" fill="#000000" transform="matrix(1.00, 0.00, -0.00, -1.00, 1013.0, 454.0)"> </text><text xml:space="preserve" font-family="Monaco" font-size="50.0" fill="#000000" transform="matrix(1.00, 0.00, -0.00, -1.00, 1043.0, 454.0)">r</text><text xml:space="preserve" font-family="Monaco" font-size="50.0" fill="#000000" transform="matrix(1.00, 0.00, -0.00, -1.00, 1073.1, 454.0)">e</text><text xml:space="preserve" font-family="Monaco" font-size="50.0" fill="#000000" transform="matrix(1.00, 0.00, -0.00, -1.00, 1103.1, 454.0)">l</text><text xml:space="preserve" font-family="Monaco" font-size="50.0" fill="#000000" transform="matrix(1.00, 0.00, -0.00, -1.00, 1133.1, 454.0)">e</text><text xml:space="preserve" font-family="Monaco" font-size="50.0" fill="#000000" transform="matrix(1.00, 0.00, -0.00, -1.00, 1163.1, 454.0)">a</text><text xml:space="preserve" font-family="Monaco" font-size="50.0" fill="#000000" transform="matrix(1.00, 0.00, -0.00, -1.00, 1193.1, 454.0)">s</text><text xml:space="preserve" font-family="Monaco" font-size="50.0" fill="#000000" transform="matrix(1.00, 0.00, -0.00, -1.00, 1223.1, 454.0)">e</text><text xml:space="preserve" font-family="Monaco" font-size="50.0" fill="#A6AAA8" transform="matrix(1.00, 0.00, -0.00, -1.00, 863.0, 387.0)">$</text><text xml:space="preserve" font-family="Monaco" font-size="50.0" fill="#A6AAA8" transform="matrix(1.00, 0.00, -0.00, -1.00, 893.0, 387.0)"> </text><text xml:space="preserve" font-family="Monaco" font-size="50.0" fill="#000000" transform="matrix(1.00, 0.00, -0.00, -1.00, 923.0, 387.0)">r</text><text xml:space="preserve" font-family="Monaco" font-size="50.0" fill="#000000" transform="matrix(1.00, 0.00, -0.00, -1.00, 953.0, 387.0)">e</text><text xml:space="preserve" font-family="Monaco" font-size="50.0" fill="#000000" transform="matrix(1.00, 0.00, -0.00, -1.00, 983.0, 387.0)">l</text><text xml:space="preserve" font-family="Monaco" font-size="50.0" fill="#000000" transform="matrix(1.00, 0.00, -0.00, -1.00, 1013.0, 387.0)">/</text><text xml:space="preserve" font-family="Monaco" font-size="50.0" fill="#000000" transform="matrix(1.00, 0.00, -0.00, -1.00, 1043.0, 387.0)">p</text><text xml:space="preserve" font-family="Monaco" font-size="50.0" fill="#000000" transform="matrix(1.00, 0.00, -0.00, -1.00, 1073.1, 387.0)">r</text><text xml:space="preserve" font-family="Monaco" font-size="50.0" fill="#000000" transform="matrix(1.00, 0.00, -0.00, -1.00, 1103.1, 387.0)">o</text><text xml:space="preserve" font-family="Monaco" font-size="50.0" fill="#000000" transform="matrix(1.00, 0.00, -0.00, -1.00, 1133.1, 387.0)">j</text><text xml:space="preserve" font-family="Monaco" font-size="50.0" fill="#000000" transform="matrix(1.00, 0.00, -0.00, -1.00, 1163.1, 387.0)">n</text><text xml:space="preserve" font-family="Monaco" font-size="50.0" fill="#000000" transform="matrix(1.00, 0.00, -0.00, -1.00, 1193.1, 387.0)">a</text><text xml:space="preserve" font-family="Monaco" font-size="50.0" fill="#000000" transform="matrix(1.00, 0.00, -0.00, -1.00, 1223.1, 387.0)">m</text><text xml:space="preserve" font-family="Monaco" font-size="50.0" fill="#000000" transform="matrix(1.00, 0.00, -0.00, -1.00, 1253.1, 387.0)">e</text><text xml:space="preserve" font-family="Monaco" font-size="50.0" fill="#000000" transform="matrix(1.00, 0.00, -0.00, -1.00, 1283.1, 387.0)">/</text><text xml:space="preserve" font-family="Monaco" font-size="50.0" fill="#000000" transform="matrix(1.00, 0.00, -0.00, -1.00, 1313.1, 387.0)">b</text><text xml:space="preserve" font-family="Monaco" font-size="50.0" fill="#000000" transform="matrix(1.00, 0.00, -0.00, -1.00, 1343.1, 387.0)">i</text><text xml:space="preserve" font-family="Monaco" font-size="50.0" fill="#000000" transform="matrix(1.00, 0.00, -0.00, -1.00, 1373.1, 387.0)">n</text><text xml:space="preserve" font-family="Monaco" font-size="50.0" fill="#000000" transform="matrix(1.00, 0.00, -0.00, -1.00, 1403.1, 387.0)">/</text><text xml:space="preserve" font-family="Monaco" font-size="50.0" fill="#000000" transform="matrix(1.00, 0.00, -0.00, -1.00, 1433.1, 387.0)">p</text><text xml:space="preserve" font-family="Monaco" font-size="50.0" fill="#000000" transform="matrix(1.00, 0.00, -0.00, -1.00, 1463.1, 387.0)">r</text><text xml:space="preserve" font-family="Monaco" font-size="50.0" fill="#000000" transform="matrix(1.00, 0.00, -0.00, -1.00, 1493.1, 387.0)">o</text><text xml:space="preserve" font-family="Monaco" font-size="50.0" fill="#000000" transform="matrix(1.00, 0.00, -0.00, -1.00, 1523.1, 387.0)">j</text><text xml:space="preserve" font-family="Monaco" font-size="50.0" fill="#000000" transform="matrix(1.00, 0.00, -0.00, -1.00, 1553.2, 387.0)">n</text><text xml:space="preserve" font-family="Monaco" font-size="50.0" fill="#000000" transform="matrix(1.00, 0.00, -0.00, -1.00, 1583.2, 387.0)">a</text><text xml:space="preserve" font-family="Monaco" font-size="50.0" fill="#000000" transform="matrix(1.00, 0.00, -0.00, -1.00, 1613.2, 387.0)">m</text><text xml:space="preserve" font-family="Monaco" font-size="50.0" fill="#000000" transform="matrix(1.00, 0.00, -0.00, -1.00, 1643.2, 387.0)">e</text><path d="M 37.9 1024.1 L 578.8 1024.1 L 578.8 870.3 L 37.9 870.3 Z M 37.9 1024.1 " fill="#FEDF73"></path><text xml:space="preserve" font-family="Roboto-Light" font-size="60.0" fill="#000000" transform="matrix(1.00, 0.00, -0.00, -1.00, 85.0, 926.0)">П</text><text xml:space="preserve" font-family="Roboto-Light" font-size="60.0" fill="#000000" transform="matrix(1.00, 0.00, -0.00, -1.00, 127.4, 926.0)">р</text><text xml:space="preserve" font-family="Roboto-Light" font-size="60.0" fill="#000000" transform="matrix(1.00, 0.00, -0.00, -1.00, 160.7, 926.0)">о</text><text xml:space="preserve" font-family="Roboto-Light" font-size="60.0" fill="#000000" transform="matrix(1.00, 0.00, -0.00, -1.00, 194.3, 926.0)">ц</text><text xml:space="preserve" font-family="Roboto-Light" font-size="60.0" fill="#000000" transform="matrix(1.00, 0.00, -0.00, -1.00, 228.5, 926.0)">е</text><text xml:space="preserve" font-family="Roboto-Light" font-size="60.0" fill="#000000" transform="matrix(1.00, 0.00, -0.00, -1.00, 259.4, 926.0)">с</text><text xml:space="preserve" font-family="Roboto-Light" font-size="60.0" fill="#000000" transform="matrix(1.00, 0.00, -0.00, -1.00, 290.4, 926.0)">с</text><text xml:space="preserve" font-family="Roboto-Light" font-size="60.0" fill="#000000" transform="matrix(1.00, 0.00, -0.00, -1.00, 321.3, 926.0)"> </text><text xml:space="preserve" font-family="Roboto-Light" font-size="60.0" fill="#000000" transform="matrix(1.00, 0.00, -0.00, -1.00, 335.9, 926.0)">р</text><text xml:space="preserve" font-family="Roboto-Light" font-size="60.0" fill="#000000" transform="matrix(1.00, 0.00, -0.00, -1.00, 369.1, 926.0)">е</text><text xml:space="preserve" font-family="Roboto-Light" font-size="60.0" fill="#000000" transform="matrix(1.00, 0.00, -0.00, -1.00, 400.1, 926.0)">л</text><text xml:space="preserve" font-family="Roboto-Light" font-size="60.0" fill="#000000" transform="matrix(1.00, 0.00, -0.00, -1.00, 433.9, 926.0)">и</text><text xml:space="preserve" font-family="Roboto-Light" font-size="60.0" fill="#000000" transform="matrix(1.00, 0.00, -0.00, -1.00, 467.6, 926.0)">з</text><text xml:space="preserve" font-family="Roboto-Light" font-size="60.0" fill="#000000" transform="matrix(1.00, 0.00, -0.00, -1.00, 498.0, 926.0)">а</text><g><clipPath id="clip-2208"><path d="M 342.0 35.2 L 324.6 461.0 L 324.5 462.3 L 325.5 463.2 L 387.6 525.3 L 406.0 594.0 L 406.0 645.6 L 397.1 645.6 L 397.1 602.9 L 397.1 601.7 L 396.2 600.8 L 294.6 499.2 L 292.5 497.1 L 290.4 499.2 L 188.7 600.8 L 187.9 601.7 L 187.9 602.9 L 187.9 645.6 L 179.0 645.6 L 179.0 594.0 L 197.4 525.3 L 259.5 463.2 L 260.4 462.3 L 260.4 461.0 L 243.0 35.2 L 342.0 35.2 L 342.0 35.2 Z M 330.6 459.9 L 348.0 32.3 L 348.2 29.3 L 345.1 29.3 L 239.9 29.3 L 236.8 29.3 L 236.9 32.3 L 254.4 459.9 L 192.6 521.6 L 191.8 523.0 L 173.1 592.8 L 173.0 593.6 L 173.0 648.5 L 173.0 651.5 L 176.0 651.5 L 190.8 651.5 L 193.8 651.5 L 193.8 648.5 L 193.8 604.1 L 292.5 505.5 L 391.2 604.1 L 391.2 648.5 L 391.2 651.5 L 394.1 651.5 L 409.0 651.5 L 412.0 651.5 L 412.0 648.5 L 412.0 593.6 L 411.9 592.8 L 393.1 523.0 L 392.4 521.6 L 330.6 459.9 L 330.6 459.9 Z M 330.6 459.9 "></path></clipPath><g clip-path="url(#clip-2208)"><g><clipPath id="clip-2209"><path d="M -529.0 -4.0 L 476.0 -4.0 L 476.0 689.0 L -529.0 689.0 Z M -529.0 -4.0 "></path></clipPath><g clip-path="url(#clip-2209)"><path d="M 163.4 661.1 L 421.6 661.1 L 421.6 19.7 L 163.4 19.7 Z M 163.4 661.1 " fill="#575E61"></path></g></g></g></g><g><clipPath id="clip-2210"><path d="M 245.8 133.7 L 347.1 34.2 L 343.0 30.0 L 241.7 129.5 L 245.8 133.7 Z M 245.8 133.7 "></path></clipPath><g clip-path="url(#clip-2210)"><g><clipPath id="clip-2211"><path d="M -529.0 -4.0 L 476.0 -4.0 L 476.0 689.0 L -529.0 689.0 Z M -529.0 -4.0 "></path></clipPath><g clip-path="url(#clip-2211)"><path d="M 245.7 147.3 L 360.7 34.3 L 343.1 16.4 L 228.1 129.4 Z M 245.7 147.3 " fill="#575E61"></path></g></g></g></g><g><clipPath id="clip-2212"><path d="M 237.8 34.3 L 339.1 133.8 L 343.3 129.6 L 242.0 30.1 L 237.8 34.3 Z M 237.8 34.3 "></path></clipPath><g clip-path="url(#clip-2212)"><g><clipPath id="clip-2213"><path d="M -529.0 -4.0 L 476.0 -4.0 L 476.0 689.0 L -529.0 689.0 Z M -529.0 -4.0 "></path></clipPath><g clip-path="url(#clip-2213)"><path d="M 228.2 143.4 L 352.9 143.4 L 352.9 20.5 L 228.2 20.5 Z M 228.2 143.4 " fill="#575E61"></path></g></g></g></g><g><clipPath id="clip-2214"><path d="M 241.9 133.7 L 335.6 225.8 L 339.8 221.5 L 246.0 129.4 L 241.9 133.7 Z M 241.9 133.7 "></path></clipPath><g clip-path="url(#clip-2214)"><g><clipPath id="clip-2215"><path d="M -529.0 -4.0 L 476.0 -4.0 L 476.0 689.0 L -529.0 689.0 Z M -529.0 -4.0 "></path></clipPath><g clip-path="url(#clip-2215)"><path d="M 228.3 133.8 L 335.7 239.3 L 353.4 221.4 L 245.9 115.9 Z M 228.3 133.8 " fill="#575E61"></path></g></g></g></g><g><clipPath id="clip-2216"><path d="M 339.1 129.7 L 245.3 221.8 L 249.5 226.0 L 343.2 133.9 L 339.1 129.7 Z M 339.1 129.7 "></path></clipPath><g clip-path="url(#clip-2216)"><g><clipPath id="clip-2217"><path d="M -529.0 -4.0 L 476.0 -4.0 L 476.0 689.0 L -529.0 689.0 Z M -529.0 -4.0 "></path></clipPath><g clip-path="url(#clip-2217)"><path d="M 339.2 116.1 L 231.7 221.7 L 249.3 239.6 L 356.8 134.0 Z M 339.2 116.1 " fill="#575E61"></path></g></g></g></g><g><clipPath id="clip-2218"><path d="M 252.7 311.3 L 339.5 226.1 L 335.3 221.9 L 248.5 307.1 L 252.7 311.3 Z M 252.7 311.3 "></path></clipPath><g clip-path="url(#clip-2218)"><g><clipPath id="clip-2219"><path d="M -529.0 -4.0 L 476.0 -4.0 L 476.0 689.0 L -529.0 689.0 Z M -529.0 -4.0 "></path></clipPath><g clip-path="url(#clip-2219)"><path d="M 252.6 324.9 L 353.1 226.2 L 335.5 208.3 L 235.0 307.0 Z M 252.6 324.9 " fill="#575E61"></path></g></g></g></g><g><clipPath id="clip-2220"><path d="M 336.5 307.0 L 249.7 221.7 L 245.5 225.9 L 332.3 311.2 L 336.5 307.0 Z M 336.5 307.0 "></path></clipPath><g clip-path="url(#clip-2220)"><g><clipPath id="clip-2221"><path d="M -529.0 -4.0 L 476.0 -4.0 L 476.0 689.0 L -529.0 689.0 Z M -529.0 -4.0 "></path></clipPath><g clip-path="url(#clip-2221)"><path d="M 350.1 306.9 L 249.6 208.1 L 231.9 226.0 L 332.4 324.8 Z M 350.1 306.9 " fill="#575E61"></path></g></g></g></g><g><clipPath id="clip-2222"><path d="M 248.5 311.1 L 328.9 390.1 L 333.0 385.8 L 252.7 306.9 L 248.5 311.1 Z M 248.5 311.1 "></path></clipPath><g clip-path="url(#clip-2222)"><g><clipPath id="clip-2223"><path d="M -529.0 -4.0 L 476.0 -4.0 L 476.0 689.0 L -529.0 689.0 Z M -529.0 -4.0 "></path></clipPath><g clip-path="url(#clip-2223)"><path d="M 234.9 311.2 L 329.0 403.6 L 346.6 385.7 L 252.5 293.3 Z M 234.9 311.2 " fill="#575E61"></path></g></g></g></g><g><clipPath id="clip-2224"><path d="M 332.2 306.8 L 251.9 385.7 L 256.0 390.0 L 336.4 311.0 L 332.2 306.8 Z M 332.2 306.8 "></path></clipPath><g clip-path="url(#clip-2224)"><g><clipPath id="clip-2225"><path d="M -529.0 -4.0 L 476.0 -4.0 L 476.0 689.0 L -529.0 689.0 Z M -529.0 -4.0 "></path></clipPath><g clip-path="url(#clip-2225)"><path d="M 332.3 293.2 L 238.3 385.6 L 255.9 403.5 L 350.0 311.1 Z M 332.3 293.2 " fill="#575E61"></path></g></g></g></g><g><clipPath id="clip-2226"><path d="M 258.8 463.1 L 333.2 390.0 L 329.0 385.8 L 254.6 458.9 L 258.8 463.1 Z M 258.8 463.1 "></path></clipPath><g clip-path="url(#clip-2226)"><g><clipPath id="clip-2227"><path d="M -529.0 -4.0 L 476.0 -4.0 L 476.0 689.0 L -529.0 689.0 Z M -529.0 -4.0 "></path></clipPath><g clip-path="url(#clip-2227)"><path d="M 258.7 476.7 L 346.8 390.1 L 329.1 372.2 L 241.0 458.8 Z M 258.7 476.7 " fill="#575E61"></path></g></g></g></g><g><clipPath id="clip-2228"><path d="M 330.3 458.8 L 255.9 385.7 L 251.7 389.9 L 326.1 463.0 L 330.3 458.8 Z M 330.3 458.8 "></path></clipPath><g clip-path="url(#clip-2228)"><g><clipPath id="clip-2229"><path d="M -529.0 -4.0 L 476.0 -4.0 L 476.0 689.0 L -529.0 689.0 Z M -529.0 -4.0 "></path></clipPath><g clip-path="url(#clip-2229)"><path d="M 343.9 458.7 L 255.7 372.1 L 238.1 390.1 L 326.2 476.6 Z M 343.9 458.7 " fill="#575E61"></path></g></g></g></g><g><clipPath id="clip-2230"><path d="M 294.7 499.4 L 258.9 459.1 L 254.5 463.1 L 290.3 503.3 L 294.7 499.4 Z M 294.7 499.4 "></path></clipPath><g clip-path="url(#clip-2230)"><g><clipPath id="clip-2231"><path d="M -529.0 -4.0 L 476.0 -4.0 L 476.0 689.0 L -529.0 689.0 Z M -529.0 -4.0 "></path></clipPath><g clip-path="url(#clip-2231)"><path d="M 244.9 512.9 L 304.3 512.9 L 304.3 449.6 L 244.9 449.6 Z M 244.9 512.9 " fill="#575E61"></path></g></g></g></g><g><clipPath id="clip-2232"><path d="M 294.7 503.3 L 330.5 463.1 L 326.0 459.1 L 290.3 499.4 L 294.7 503.3 Z M 294.7 503.3 "></path></clipPath><g clip-path="url(#clip-2232)"><g><clipPath id="clip-2233"><path d="M -529.0 -4.0 L 476.0 -4.0 L 476.0 689.0 L -529.0 689.0 Z M -529.0 -4.0 "></path></clipPath><g clip-path="url(#clip-2233)"><path d="M 280.7 512.9 L 340.1 512.9 L 340.1 449.5 L 280.7 449.5 Z M 280.7 512.9 " fill="#575E61"></path></g></g></g></g><g><clipPath id="clip-2234"><path d="M 292.8 504.3 L 361.8 498.0 L 361.2 492.1 L 292.2 498.4 L 292.8 504.3 Z M 292.8 504.3 "></path></clipPath><g clip-path="url(#clip-2234)"><g><clipPath id="clip-2235"><path d="M -529.0 -4.0 L 476.0 -4.0 L 476.0 689.0 L -529.0 689.0 Z M -529.0 -4.0 "></path></clipPath><g clip-path="url(#clip-2235)"><path d="M 282.6 513.9 L 371.4 513.9 L 371.4 482.5 L 282.6 482.5 Z M 282.6 513.9 " fill="#575E61"></path></g></g></g></g><g><clipPath id="clip-2236"><path d="M 292.8 498.4 L 223.7 492.1 L 223.2 498.0 L 292.2 504.3 L 292.8 498.4 Z M 292.8 498.4 "></path></clipPath><g clip-path="url(#clip-2236)"><g><clipPath id="clip-2237"><path d="M -529.0 -4.0 L 476.0 -4.0 L 476.0 689.0 L -529.0 689.0 Z M -529.0 -4.0 "></path></clipPath><g clip-path="url(#clip-2237)"><path d="M 213.6 513.9 L 302.4 513.9 L 302.4 482.5 L 213.6 482.5 Z M 213.6 513.9 " fill="#575E61"></path></g></g></g></g><g><clipPath id="clip-2238"><path d="M 358.3 564.3 L 364.5 495.3 L 358.6 494.8 L 352.3 563.8 L 358.3 564.3 Z M 358.3 564.3 "></path></clipPath><g clip-path="url(#clip-2238)"><g><clipPath id="clip-2239"><path d="M -529.0 -4.0 L 476.0 -4.0 L 476.0 689.0 L -529.0 689.0 Z M -529.0 -4.0 "></path></clipPath><g clip-path="url(#clip-2239)"><path d="M 342.7 573.9 L 374.1 573.9 L 374.1 485.2 L 342.7 485.2 Z M 342.7 573.9 " fill="#575E61"></path></g></g></g></g><g><clipPath id="clip-2240"><path d="M 232.6 563.8 L 226.4 494.8 L 220.5 495.3 L 226.7 564.3 L 232.6 563.8 Z M 232.6 563.8 "></path></clipPath><g clip-path="url(#clip-2240)"><g><clipPath id="clip-2241"><path d="M -529.0 -4.0 L 476.0 -4.0 L 476.0 689.0 L -529.0 689.0 Z M -529.0 -4.0 "></path></clipPath><g clip-path="url(#clip-2241)"><path d="M 210.9 573.9 L 242.2 573.9 L 242.2 485.2 L 210.9 485.2 Z M 210.9 573.9 " fill="#575E61"></path></g></g></g></g><g><clipPath id="clip-2242"><path d="M 401.4 561.7 L 355.4 561.1 L 355.4 567.0 L 401.3 567.6 L 401.4 561.7 Z M 401.4 561.7 "></path></clipPath><g clip-path="url(#clip-2242)"><g><clipPath id="clip-2243"><path d="M -529.0 -4.0 L 476.0 -4.0 L 476.0 689.0 L -529.0 689.0 Z M -529.0 -4.0 "></path></clipPath><g clip-path="url(#clip-2243)"><path d="M 411.1 552.2 L 346.0 551.4 L 345.7 576.5 L 410.8 577.3 Z M 411.1 552.2 " fill="#575E61"></path></g></g></g></g><g><clipPath id="clip-2244"><path d="M 183.7 567.7 L 229.7 567.1 L 229.6 561.2 L 183.7 561.8 L 183.7 567.7 Z M 183.7 567.7 "></path></clipPath><g clip-path="url(#clip-2244)"><g><clipPath id="clip-2245"><path d="M -529.0 -4.0 L 476.0 -4.0 L 476.0 689.0 L -529.0 689.0 Z M -529.0 -4.0 "></path></clipPath><g clip-path="url(#clip-2245)"><path d="M 174.2 577.4 L 239.4 576.6 L 239.1 551.5 L 173.9 552.3 Z M 174.2 577.4 " fill="#575E61"></path></g></g></g></g><g><clipPath id="clip-2246"><path d="M 397.0 603.4 L 404.1 565.2 L 398.3 564.1 L 391.2 602.4 L 397.0 603.4 Z M 397.0 603.4 "></path></clipPath><g clip-path="url(#clip-2246)"><g><clipPath id="clip-2247"><path d="M -529.0 -4.0 L 476.0 -4.0 L 476.0 689.0 L -529.0 689.0 Z M -529.0 -4.0 "></path></clipPath><g clip-path="url(#clip-2247)"><path d="M 381.6 613.0 L 413.8 613.0 L 413.8 554.5 L 381.6 554.5 Z M 381.6 613.0 " fill="#575E61"></path></g></g></g></g><g><clipPath id="clip-2248"><path d="M 193.8 602.4 L 186.7 564.1 L 180.8 565.2 L 187.9 603.4 L 193.8 602.4 Z M 193.8 602.4 "></path></clipPath><g clip-path="url(#clip-2248)"><g><clipPath id="clip-2249"><path d="M -529.0 -4.0 L 476.0 -4.0 L 476.0 689.0 L -529.0 689.0 Z M -529.0 -4.0 "></path></clipPath><g clip-path="url(#clip-2249)"><path d="M 171.2 613.0 L 203.4 613.0 L 203.4 554.5 L 171.2 554.5 Z M 171.2 613.0 " fill="#575E61"></path></g></g></g></g><g><clipPath id="clip-2250"><path d="M 389.8 520.8 L 325.3 531.7 L 326.2 537.5 L 390.8 526.7 L 389.8 520.8 Z M 389.8 520.8 "></path></clipPath><g clip-path="url(#clip-2250)"><g><clipPath id="clip-2251"><path d="M -529.0 -4.0 L 476.0 -4.0 L 476.0 689.0 L -529.0 689.0 Z M -529.0 -4.0 "></path></clipPath><g clip-path="url(#clip-2251)"><path d="M 315.7 547.1 L 400.4 547.1 L 400.4 511.2 L 315.7 511.2 Z M 315.7 547.1 " fill="#575E61"></path></g></g></g></g><g><clipPath id="clip-2252"><path d="M 259.6 531.8 L 195.1 520.9 L 194.1 526.8 L 258.6 537.6 L 259.6 531.8 Z M 259.6 531.8 "></path></clipPath><g clip-path="url(#clip-2252)"><g><clipPath id="clip-2253"><path d="M -529.0 -4.0 L 476.0 -4.0 L 476.0 689.0 L -529.0 689.0 Z M -529.0 -4.0 "></path></clipPath><g clip-path="url(#clip-2253)"><path d="M 270.6 523.9 L 187.2 509.9 L 183.0 534.7 L 266.5 548.7 Z M 270.6 523.9 " fill="#575E61"></path></g></g></g></g><g><clipPath id="clip-2254"><path d="M 387.3 523.2 L 375.2 586.4 L 381.1 587.5 L 393.2 524.3 L 387.3 523.2 Z M 387.3 523.2 "></path></clipPath><g clip-path="url(#clip-2254)"><g><clipPath id="clip-2255"><path d="M -529.0 -4.0 L 476.0 -4.0 L 476.0 689.0 L -529.0 689.0 Z M -529.0 -4.0 "></path></clipPath><g clip-path="url(#clip-2255)"><path d="M 365.6 597.1 L 402.8 597.1 L 402.8 513.6 L 365.6 513.6 Z M 365.6 597.1 " fill="#575E61"></path></g></g></g></g><g><clipPath id="clip-2256"><path d="M 209.7 586.5 L 197.6 523.4 L 191.8 524.5 L 203.9 587.6 L 209.7 586.5 Z M 209.7 586.5 "></path></clipPath><g clip-path="url(#clip-2256)"><g><clipPath id="clip-2257"><path d="M -529.0 -4.0 L 476.0 -4.0 L 476.0 689.0 L -529.0 689.0 Z M -529.0 -4.0 "></path></clipPath><g clip-path="url(#clip-2257)"><path d="M 221.0 594.1 L 205.3 512.1 L 180.6 516.8 L 196.3 598.9 Z M 221.0 594.1 " fill="#575E61"></path></g></g></g></g><g><clipPath id="clip-2258"><path d="M 377.4 589.7 L 408.3 596.4 L 409.5 590.6 L 378.7 583.9 L 377.4 589.7 Z M 377.4 589.7 "></path></clipPath><g clip-path="url(#clip-2258)"><g><clipPath id="clip-2259"><path d="M -529.0 -4.0 L 476.0 -4.0 L 476.0 689.0 L -529.0 689.0 Z M -529.0 -4.0 "></path></clipPath><g clip-path="url(#clip-2259)"><path d="M 366.0 597.0 L 415.6 607.8 L 420.9 583.2 L 371.3 572.5 Z M 366.0 597.0 " fill="#575E61"></path></g></g></g></g><g><clipPath id="clip-2260"><path d="M 206.2 584.2 L 175.4 590.9 L 176.6 596.7 L 207.5 590.0 L 206.2 584.2 Z M 206.2 584.2 "></path></clipPath><g clip-path="url(#clip-2260)"><g><clipPath id="clip-2261"><path d="M -529.0 -4.0 L 476.0 -4.0 L 476.0 689.0 L -529.0 689.0 Z M -529.0 -4.0 "></path></clipPath><g clip-path="url(#clip-2261)"><path d="M 213.6 572.8 L 164.0 583.5 L 169.3 608.1 L 218.9 597.4 Z M 213.6 572.8 " fill="#575E61"></path></g></g></g></g><g><clipPath id="clip-2262"><path d="M 328.8 534.6 L 330.6 461.1 L 324.7 461.0 L 322.9 534.5 L 328.8 534.6 Z M 328.8 534.6 "></path></clipPath><g clip-path="url(#clip-2262)"><g><clipPath id="clip-2263"><path d="M -529.0 -4.0 L 476.0 -4.0 L 476.0 689.0 L -529.0 689.0 Z M -529.0 -4.0 "></path></clipPath><g clip-path="url(#clip-2263)"><path d="M 338.2 544.4 L 340.5 451.8 L 315.3 451.2 L 313.1 543.8 Z M 338.2 544.4 " fill="#575E61"></path></g></g></g></g><g><clipPath id="clip-2264"><path d="M 262.1 534.6 L 260.3 461.1 L 254.4 461.2 L 256.2 534.7 L 262.1 534.6 Z M 262.1 534.6 "></path></clipPath><g clip-path="url(#clip-2264)"><g><clipPath id="clip-2265"><path d="M -529.0 -4.0 L 476.0 -4.0 L 476.0 689.0 L -529.0 689.0 Z M -529.0 -4.0 "></path></clipPath><g clip-path="url(#clip-2265)"><path d="M 272.0 543.9 L 269.7 451.3 L 244.6 451.9 L 246.8 544.5 Z M 272.0 543.9 " fill="#575E61"></path></g></g></g></g><g><clipPath id="clip-2266"><path d="M 469.6 643.8 L 115.4 643.8 C 112.8 643.8 110.7 645.9 110.7 648.5 C 110.7 650.5 111.8 652.1 113.4 652.9 L 181.3 687.4 C 182.0 687.8 182.7 687.9 183.4 687.9 L 183.4 687.9 L 401.6 687.9 C 402.4 687.9 403.2 687.7 403.9 687.3 L 471.7 652.8 C 474.0 651.6 475.0 648.7 473.8 646.4 C 472.9 644.7 471.3 643.8 469.6 643.8 L 469.6 643.8 L 469.6 643.8 Z M 135.2 653.3 L 449.8 653.3 L 400.4 678.4 L 184.5 678.4 L 135.2 653.3 L 135.2 653.3 Z M 135.2 653.3 "></path></clipPath><g clip-path="url(#clip-2266)"><g><clipPath id="clip-2267"><path d="M -529.0 -4.0 L 476.0 -4.0 L 476.0 689.0 L -529.0 689.0 Z M -529.0 -4.0 "></path></clipPath><g clip-path="url(#clip-2267)"><path d="M 101.1 697.5 L 483.9 697.5 L 483.9 634.2 L 101.1 634.2 Z M 101.1 697.5 " fill="#575E61"></path></g></g></g></g><g><clipPath id="clip-2268"><path d="M 396.8 683.2 L 406.3 683.2 L 406.3 646.1 L 396.8 646.1 L 396.8 683.2 Z M 396.8 683.2 "></path></clipPath><g clip-path="url(#clip-2268)"><g><clipPath id="clip-2269"><path d="M -529.0 -4.0 L 476.0 -4.0 L 476.0 689.0 L -529.0 689.0 Z M -529.0 -4.0 "></path></clipPath><g clip-path="url(#clip-2269)"><path d="M 387.2 692.8 L 415.9 692.8 L 415.9 636.5 L 387.2 636.5 Z M 387.2 692.8 " fill="#575E61"></path></g></g></g></g><g><clipPath id="clip-2270"><path d="M 178.7 683.2 L 188.2 683.2 L 188.2 646.1 L 178.7 646.1 L 178.7 683.2 Z M 178.7 683.2 "></path></clipPath><g clip-path="url(#clip-2270)"><g><clipPath id="clip-2271"><path d="M -529.0 -4.0 L 476.0 -4.0 L 476.0 689.0 L -529.0 689.0 Z M -529.0 -4.0 "></path></clipPath><g clip-path="url(#clip-2271)"><path d="M 169.0 692.8 L 197.8 692.8 L 197.8 636.5 L 169.0 636.5 Z M 169.0 692.8 " fill="#575E61"></path></g></g></g></g><g><clipPath id="clip-2272"><path d="M 122.6 653.5 L 122.6 653.5 C 126.6 653.5 129.9 650.2 129.9 646.3 L 129.9 579.1 C 129.9 575.1 126.6 571.9 122.6 571.9 L 122.6 571.9 C 118.7 571.9 115.4 575.1 115.4 579.1 L 115.4 646.3 C 115.4 650.2 118.7 653.5 122.6 653.5 L 122.6 653.5 Z M 122.6 653.5 "></path></clipPath><g clip-path="url(#clip-2272)"><g><clipPath id="clip-2273"><path d="M -529.0 -4.0 L 476.0 -4.0 L 476.0 689.0 L -529.0 689.0 Z M -529.0 -4.0 "></path></clipPath><g clip-path="url(#clip-2273)"><path d="M 105.8 663.1 L 139.5 663.1 L 139.5 562.3 L 105.8 562.3 Z M 105.8 663.1 " fill="#575E61"></path></g></g></g></g><g><clipPath id="clip-2274"><path d="M 292.5 653.5 L 292.5 653.5 C 296.5 653.5 299.7 650.2 299.7 646.3 L 299.7 579.1 C 299.7 575.1 296.5 571.9 292.5 571.9 L 292.5 571.9 C 288.5 571.9 285.3 575.1 285.3 579.1 L 285.3 646.3 C 285.3 650.2 288.5 653.5 292.5 653.5 L 292.5 653.5 Z M 292.5 653.5 "></path></clipPath><g clip-path="url(#clip-2274)"><g><clipPath id="clip-2275"><path d="M -529.0 -4.0 L 476.0 -4.0 L 476.0 689.0 L -529.0 689.0 Z M -529.0 -4.0 "></path></clipPath><g clip-path="url(#clip-2275)"><path d="M 275.7 663.1 L 309.3 663.1 L 309.3 562.3 L 275.7 562.3 Z M 275.7 663.1 " fill="#575E61"></path></g></g></g></g><g><clipPath id="clip-2276"><path d="M 462.3 653.5 L 462.3 653.5 C 466.3 653.5 469.6 650.2 469.6 646.3 L 469.6 579.1 C 469.6 575.1 466.3 571.9 462.3 571.9 L 462.3 571.9 C 458.4 571.9 455.1 575.1 455.1 579.1 L 455.1 646.3 C 455.1 650.2 458.4 653.5 462.3 653.5 L 462.3 653.5 Z M 462.3 653.5 "></path></clipPath><g clip-path="url(#clip-2276)"><g><clipPath id="clip-2277"><path d="M -529.0 -4.0 L 476.0 -4.0 L 476.0 689.0 L -529.0 689.0 Z M -529.0 -4.0 "></path></clipPath><g clip-path="url(#clip-2277)"><path d="M 445.5 663.1 L 479.2 663.1 L 479.2 562.3 L 445.5 562.3 Z M 445.5 663.1 " fill="#575E61"></path></g></g></g></g><g><clipPath id="clip-2278"><path d="M 236.4 32.2 L 348.6 32.2 C 358.2 32.2 366.1 24.4 366.1 14.8 L 366.1 -2.6 L 218.9 -2.6 L 218.9 14.8 C 218.9 24.4 226.8 32.2 236.4 32.2 L 236.4 32.2 Z M 236.4 32.2 "></path></clipPath><g clip-path="url(#clip-2278)"><g><clipPath id="clip-2279"><path d="M -529.0 -4.0 L 476.0 -4.0 L 476.0 689.0 L -529.0 689.0 Z M -529.0 -4.0 "></path></clipPath><g clip-path="url(#clip-2279)"><path d="M 209.3 41.8 L 375.7 41.8 L 375.7 -12.2 L 209.3 -12.2 Z M 209.3 41.8 " fill="#575E61"></path></g></g></g></g><g><clipPath id="clip-2280"><path d="M 253.8 391.0 L 329.0 391.0 L 329.0 385.0 L 253.8 385.0 L 253.8 391.0 Z M 253.8 391.0 "></path></clipPath><g clip-path="url(#clip-2280)"><g><clipPath id="clip-2281"><path d="M -529.0 -4.0 L 476.0 -4.0 L 476.0 689.0 L -529.0 689.0 Z M -529.0 -4.0 "></path></clipPath><g clip-path="url(#clip-2281)"><path d="M 244.2 400.6 L 338.6 400.6 L 338.6 375.4 L 244.2 375.4 Z M 244.2 400.6 " fill="#575E61"></path></g></g></g></g><g><clipPath id="clip-2282"><path d="M 253.8 311.9 L 330.8 311.9 L 330.8 305.9 L 253.8 305.9 L 253.8 311.9 Z M 253.8 311.9 "></path></clipPath><g clip-path="url(#clip-2282)"><g><clipPath id="clip-2283"><path d="M -529.0 -4.0 L 476.0 -4.0 L 476.0 689.0 L -529.0 689.0 Z M -529.0 -4.0 "></path></clipPath><g clip-path="url(#clip-2283)"><path d="M 244.2 321.5 L 340.4 321.5 L 340.4 296.3 L 244.2 296.3 Z M 244.2 321.5 " fill="#575E61"></path></g></g></g></g><g><clipPath id="clip-2284"><path d="M 248.1 226.5 L 334.2 226.5 L 334.2 220.5 L 248.1 220.5 L 248.1 226.5 Z M 248.1 226.5 "></path></clipPath><g clip-path="url(#clip-2284)"><g><clipPath id="clip-2285"><path d="M -529.0 -4.0 L 476.0 -4.0 L 476.0 689.0 L -529.0 689.0 Z M -529.0 -4.0 "></path></clipPath><g clip-path="url(#clip-2285)"><path d="M 238.5 236.1 L 343.9 236.1 L 343.9 210.9 L 238.5 210.9 Z M 238.5 236.1 " fill="#575E61"></path></g></g></g></g><g><clipPath id="clip-2286"><path d="M 245.9 134.6 L 339.1 134.6 L 339.1 128.6 L 245.9 128.6 L 245.9 134.6 Z M 245.9 134.6 "></path></clipPath><g clip-path="url(#clip-2286)"><g><clipPath id="clip-2287"><path d="M -529.0 -4.0 L 476.0 -4.0 L 476.0 689.0 L -529.0 689.0 Z M -529.0 -4.0 "></path></clipPath><g clip-path="url(#clip-2287)"><path d="M 236.3 144.2 L 348.7 144.2 L 348.7 119.0 L 236.3 119.0 Z M 236.3 144.2 " fill="#575E61"></path></g></g></g></g><g><clipPath id="clip-2288"><path d="M -529.0 -4.0 L 476.0 -4.0 L 476.0 689.0 L -529.0 689.0 Z M -529.0 -4.0 "></path></clipPath><g clip-path="url(#clip-2288)"><path d="M 338.9 6.0 C 338.9 6.0 269.3 98.7 169.5 98.7 C 69.7 98.7 26.5 49.4 0.0 0.0 " fill="none" stroke="#969696" stroke-width="1.00" stroke-miterlimit="0.00" transform="matrix(1.92, 0.00, 0.00, -1.92, -528.0, 591.0)"></path><path d="M 338.9 6.0 C 338.9 6.0 269.3 98.7 169.5 98.7 C 69.7 98.7 26.5 49.4 0.0 0.0 " fill="none" stroke="#969696" stroke-width="1.00" stroke-miterlimit="0.00" transform="matrix(1.92, 0.00, 0.00, -1.92, -352.0, 585.3)"></path><path d="M 338.9 6.0 C 338.9 6.0 269.3 98.7 169.5 98.7 C 69.7 98.7 26.5 49.4 0.0 0.0 " fill="none" stroke="#969696" stroke-width="1.00" stroke-miterlimit="0.00" transform="matrix(1.92, 0.00, 0.00, -1.92, -188.6, 585.3)"></path></g></g><text xml:space="preserve" font-family="Roboto-Light" font-size="40.0" fill="#000000" transform="matrix(1.00, 0.00, -0.00, -1.00, 605.0, 885.0)">п</text><text xml:space="preserve" font-family="Roboto-Light" font-size="40.0" fill="#000000" transform="matrix(1.00, 0.00, -0.00, -1.00, 627.5, 885.0)">р</text><text xml:space="preserve" font-family="Roboto-Light" font-size="40.0" fill="#000000" transform="matrix(1.00, 0.00, -0.00, -1.00, 649.7, 885.0)">о</text><text xml:space="preserve" font-family="Roboto-Light" font-size="40.0" fill="#000000" transform="matrix(1.00, 0.00, -0.00, -1.00, 672.1, 885.0)">с</text><text xml:space="preserve" font-family="Roboto-Light" font-size="40.0" fill="#000000" transform="matrix(1.00, 0.00, -0.00, -1.00, 692.7, 885.0)">т</text><text xml:space="preserve" font-family="Roboto-Light" font-size="40.0" fill="#000000" transform="matrix(1.00, 0.00, -0.00, -1.00, 711.7, 885.0)">,</text><text xml:space="preserve" font-family="Roboto-Light" font-size="40.0" fill="#000000" transform="matrix(1.00, 0.00, -0.00, -1.00, 719.4, 885.0)"> </text><text xml:space="preserve" font-family="Roboto-Light" font-size="40.0" fill="#000000" transform="matrix(1.00, 0.00, -0.00, -1.00, 729.1, 885.0)">к</text><text xml:space="preserve" font-family="Roboto-Light" font-size="40.0" fill="#000000" transform="matrix(1.00, 0.00, -0.00, -1.00, 749.8, 885.0)">а</text><text xml:space="preserve" font-family="Roboto-Light" font-size="40.0" fill="#000000" transform="matrix(1.00, 0.00, -0.00, -1.00, 771.2, 885.0)">к</text><text xml:space="preserve" font-family="Roboto-Light" font-size="40.0" fill="#000000" transform="matrix(1.00, 0.00, -0.00, -1.00, 792.0, 885.0)"> </text><text xml:space="preserve" font-family="Roboto-Light" font-size="40.0" fill="#000000" transform="matrix(1.00, 0.00, -0.00, -1.00, 801.7, 885.0)">с</text><text xml:space="preserve" font-family="Roboto-Light" font-size="40.0" fill="#000000" transform="matrix(1.00, 0.00, -0.00, -1.00, 822.3, 885.0)">т</text><text xml:space="preserve" font-family="Roboto-Light" font-size="40.0" fill="#000000" transform="matrix(1.00, 0.00, -0.00, -1.00, 840.5, 885.0)">о</text><text xml:space="preserve" font-family="Roboto-Light" font-size="40.0" fill="#000000" transform="matrix(1.00, 0.00, -0.00, -1.00, 862.6, 885.0)">л</text><text xml:space="preserve" font-family="Roboto-Light" font-size="40.0" fill="#000000" transform="matrix(1.00, 0.00, -0.00, -1.00, 885.1, 885.0)">б</text></g></svg>