<?xml version="1.0" encoding="UTF-8" standalone="no"?><svg xmlns="http://www.w3.org/2000/svg" xmlns:xlink="http://www.w3.org/1999/xlink" clip-rule="evenodd" stroke-miterlimit="4.00" viewBox="0 0 477 62"><desc>SVG generated by Keynote</desc><defs></defs><g transform="matrix(1.00, 0.00, -0.00, -1.00, 0.0, 62.0)"><text xml:space="preserve" font-family="Roboto" font-weight="200" font-size="66.0" fill="#383E51" transform="matrix(1.00, 0.00, -0.00, -1.00, -3.0, 12.0)">Р</text><text xml:space="preserve" font-family="Roboto" font-weight="200" font-size="66.0" fill="#383E51" transform="matrix(1.00, 0.00, -0.00, -1.00, 37.2, 12.0)">о</text><text xml:space="preserve" font-family="Roboto" font-weight="200" font-size="66.0" fill="#383E51" transform="matrix(1.00, 0.00, -0.00, -1.00, 74.2, 12.0)">г</text><text xml:space="preserve" font-family="Roboto" font-weight="200" font-size="66.0" fill="#383E51" transform="matrix(1.00, 0.00, -0.00, -1.00, 102.1, 12.0)">а</text><text xml:space="preserve" font-family="Roboto" font-weight="200" font-size="66.0" fill="#383E51" transform="matrix(1.00, 0.00, -0.00, -1.00, 136.9, 12.0)">т</text><text xml:space="preserve" font-family="Roboto" font-weight="200" font-size="66.0" fill="#383E51" transform="matrix(1.00, 0.00, -0.00, -1.00, 167.7, 12.0)">а</text><text xml:space="preserve" font-family="Roboto" font-weight="200" font-size="66.0" fill="#383E51" transform="matrix(1.00, 0.00, -0.00, -1.00, 203.1, 12.0)">я</text><text xml:space="preserve" font-family="Roboto" font-weight="200" font-size="66.0" fill="#383E51" transform="matrix(1.00, 0.00, -0.00, -1.00, 238.9, 12.0)"> </text><text xml:space="preserve" font-family="Roboto" font-weight="200" font-size="66.0" fill="#383E51" transform="matrix(1.00, 0.00, -0.00, -1.00, 255.0, 12.0)">г</text><text xml:space="preserve" font-family="Roboto" font-weight="200" font-size="66.0" fill="#383E51" transform="matrix(1.00, 0.00, -0.00, -1.00, 282.9, 12.0)">а</text><text xml:space="preserve" font-family="Roboto" font-weight="200" font-size="66.0" fill="#383E51" transform="matrix(1.00, 0.00, -0.00, -1.00, 318.2, 12.0)">д</text><text xml:space="preserve" font-family="Roboto" font-weight="200" font-size="66.0" fill="#383E51" transform="matrix(1.00, 0.00, -0.00, -1.00, 356.1, 12.0)">ю</text><text xml:space="preserve" font-family="Roboto" font-weight="200" font-size="66.0" fill="#383E51" transform="matrix(1.00, 0.00, -0.00, -1.00, 409.8, 12.0)">к</text><text xml:space="preserve" font-family="Roboto" font-weight="200" font-size="66.0" fill="#383E51" transform="matrix(1.00, 0.00, -0.00, -1.00, 444.0, 12.0)">а</text></g></svg>