<?xml version="1.0" encoding="UTF-8" standalone="no"?><svg xmlns="http://www.w3.org/2000/svg" xmlns:xlink="http://www.w3.org/1999/xlink" clip-rule="evenodd" stroke-miterlimit="4.00" viewBox="0 0 1920 1080"><desc>SVG generated by Keynote</desc><defs></defs><g transform="matrix(1.00, 0.00, -0.00, -1.00, 0.0, 1080.0)"><path d="M 0.0 1080.0 L 1920.0 1080.0 L 1920.0 0.0 L 0.0 0.0 Z M 0.0 1080.0 " fill="#FAFAFA"></path><image xlink:href="../../7A306E4F-800A-493F-8A59-9906FE24A4F6/assets/4693BF60447D92505D19B5EB5C44698A.png" width="428.00" height="100.00" transform="matrix(2.35, 0.00, -0.00, -2.34, 808.0, 987.0)"></image><image xlink:href="../../7A306E4F-800A-493F-8A59-9906FE24A4F6/assets/FB944670104ED8CA3FFCD1000F185563.png" width="258.00" height="106.00" transform="matrix(1.98, 0.00, -0.00, -1.98, 343.0, 678.0)"></image><image xlink:href="../../7A306E4F-800A-493F-8A59-9906FE24A4F6/assets/63FD7E84D83E92C3A66F1C589C25FA3E.png" width="408.00" height="98.00" transform="matrix(2.02, 0.00, -0.00, -2.03, 1009.0, 544.0)"></image><image xlink:href="../../7A306E4F-800A-493F-8A59-9906FE24A4F6/assets/2332C98EA8D934FB71A7A1456F388114.png" width="252.00" height="82.00" transform="matrix(2.13, 0.00, -0.00, -2.13, 466.0, 270.0)"></image><g><clipPath id="clip-1782"><path d="M 131.0 843.2 L 541.8 843.2 L 541.8 960.5 L 131.0 960.5 Z M 131.0 843.2 "></path></clipPath><g clip-path="url(#clip-1782)"><path d="M 132.0 959.5 L 540.8 959.5 L 540.8 844.2 L 132.0 844.2 Z M 132.0 959.5 " fill="#FFDA7B"></path></g></g><g><clipPath id="clip-1783"><path d="M 197.0 840.4 L 475.8 840.4 L 475.8 963.4 L 197.0 963.4 Z M 197.0 840.4 "></path></clipPath><g clip-path="url(#clip-1783)"><text xml:space="preserve" font-family="Roboto-Light" font-size="70.0" fill="#383E51" transform="matrix(1.00, 0.00, -0.00, -1.00, 217.0, 878.0)">П</text><text xml:space="preserve" font-family="Roboto-Light" font-size="70.0" fill="#383E51" transform="matrix(1.00, 0.00, -0.00, -1.00, 266.5, 878.0)">а</text><text xml:space="preserve" font-family="Roboto-Light" font-size="70.0" fill="#383E51" transform="matrix(1.00, 0.00, -0.00, -1.00, 304.0, 878.0)">р</text><text xml:space="preserve" font-family="Roboto-Light" font-size="70.0" fill="#383E51" transform="matrix(1.00, 0.00, -0.00, -1.00, 342.8, 878.0)">с</text><text xml:space="preserve" font-family="Roboto-Light" font-size="70.0" fill="#383E51" transform="matrix(1.00, 0.00, -0.00, -1.00, 378.9, 878.0)">е</text><text xml:space="preserve" font-family="Roboto-Light" font-size="70.0" fill="#383E51" transform="matrix(1.00, 0.00, -0.00, -1.00, 415.1, 878.0)">р</text></g></g></g></svg>