<?xml version="1.0" encoding="UTF-8" standalone="no"?><svg xmlns="http://www.w3.org/2000/svg" xmlns:xlink="http://www.w3.org/1999/xlink" clip-rule="evenodd" stroke-miterlimit="4.00" viewBox="0 0 1920 1080"><desc>SVG generated by Keynote</desc><defs></defs><g transform="matrix(1.00, 0.00, -0.00, -1.00, 0.0, 1080.0)"><path d="M 0.0 1080.0 L 1920.0 1080.0 L 1920.0 0.0 L 0.0 0.0 Z M 0.0 1080.0 " fill="#FAFAFA"></path><g><clipPath id="clip-1784"><path d="M 131.0 843.2 L 541.8 843.2 L 541.8 960.5 L 131.0 960.5 Z M 131.0 843.2 "></path></clipPath><g clip-path="url(#clip-1784)"><path d="M 132.0 959.5 L 540.8 959.5 L 540.8 844.2 L 132.0 844.2 Z M 132.0 959.5 " fill="#FFDA7B"></path></g></g><g><clipPath id="clip-1785"><path d="M 197.0 840.4 L 475.8 840.4 L 475.8 963.4 L 197.0 963.4 Z M 197.0 840.4 "></path></clipPath><g clip-path="url(#clip-1785)"><text xml:space="preserve" font-family="Roboto-Light" font-size="70.0" fill="#383E51" transform="matrix(1.00, 0.00, -0.00, -1.00, 217.0, 878.0)">П</text><text xml:space="preserve" font-family="Roboto-Light" font-size="70.0" fill="#383E51" transform="matrix(1.00, 0.00, -0.00, -1.00, 266.5, 878.0)">а</text><text xml:space="preserve" font-family="Roboto-Light" font-size="70.0" fill="#383E51" transform="matrix(1.00, 0.00, -0.00, -1.00, 304.0, 878.0)">р</text><text xml:space="preserve" font-family="Roboto-Light" font-size="70.0" fill="#383E51" transform="matrix(1.00, 0.00, -0.00, -1.00, 342.8, 878.0)">с</text><text xml:space="preserve" font-family="Roboto-Light" font-size="70.0" fill="#383E51" transform="matrix(1.00, 0.00, -0.00, -1.00, 378.9, 878.0)">е</text><text xml:space="preserve" font-family="Roboto-Light" font-size="70.0" fill="#383E51" transform="matrix(1.00, 0.00, -0.00, -1.00, 415.1, 878.0)">р</text></g></g><g><clipPath id="clip-1786"><path d="M 579.8 444.2 L 1824.3 444.2 L 1824.3 627.5 L 579.8 627.5 Z M 579.8 444.2 "></path></clipPath><g clip-path="url(#clip-1786)"><image xlink:href="25DAC32C9013AB3143612E7286770C12.png" width="516.00" height="76.00" transform="matrix(2.41, 0.00, -0.00, -2.41, 580.0, 627.0)"></image></g></g><g><clipPath id="clip-1787"><path d="M 1463.8 473.8 L 1783.2 473.8 L 1783.2 596.1 L 1463.8 596.1 Z M 1463.8 473.8 "></path></clipPath><g clip-path="url(#clip-1787)"><path d="M 0.0 0.0 L 312.4 0.0 L 312.4 115.3 L 0.0 115.3 Z M 0.0 0.0 " fill="none" stroke="#000000" stroke-width="5.00" transform="matrix(1.00, 0.00, 0.00, -1.00, 1467.3, 592.6)"></path></g></g><g><clipPath id="clip-1788"><path d="M 1044.9 473.8 L 1364.3 473.8 L 1364.3 596.1 L 1044.9 596.1 Z M 1044.9 473.8 "></path></clipPath><g clip-path="url(#clip-1788)"><path d="M 0.0 0.0 L 312.4 0.0 L 312.4 115.3 L 0.0 115.3 Z M 0.0 0.0 " fill="none" stroke="#000000" stroke-width="5.00" transform="matrix(1.00, 0.00, 0.00, -1.00, 1048.4, 592.6)"></path></g></g><g><clipPath id="clip-1789"><path d="M 610.6 473.8 L 930.0 473.8 L 930.0 596.1 L 610.6 596.1 Z M 610.6 473.8 "></path></clipPath><g clip-path="url(#clip-1789)"><path d="M 0.0 0.0 L 312.4 0.0 L 312.4 115.3 L 0.0 115.3 Z M 0.0 0.0 " fill="none" stroke="#000000" stroke-width="5.00" transform="matrix(1.00, 0.00, 0.00, -1.00, 614.1, 592.6)"></path></g></g></g></svg>