<?xml version="1.0" encoding="UTF-8" standalone="no"?><svg xmlns="http://www.w3.org/2000/svg" xmlns:xlink="http://www.w3.org/1999/xlink" clip-rule="evenodd" stroke-miterlimit="4.00" viewBox="0 0 1920 1080"><desc>SVG generated by Keynote</desc><defs></defs><g transform="matrix(1.00, 0.00, -0.00, -1.00, 0.0, 1080.0)"><path d="M 0.0 1080.0 L 1920.0 1080.0 L 1920.0 0.0 L 0.0 0.0 Z M 0.0 1080.0 " fill="#FECF60"></path><g><clipPath id="clip-516"><path d="M 1785.0 64.0 L 1906.0 64.0 L 1906.0 -3.0 L 1785.0 -3.0 Z M 1785.0 64.0 "></path></clipPath><g clip-path="url(#clip-516)"><g><clipPath id="clip-517"><path d="M 1785.0 -3.0 L 1905.6 -3.0 L 1905.6 64.0 L 1785.0 64.0 Z M 1785.0 -3.0 "></path></clipPath><g clip-path="url(#clip-517)"><path d="M 1903.6 44.0 C 1902.4 44.0 1901.5 43.2 1901.2 42.1 L 1892.4 42.1 L 1892.4 47.0 C 1892.4 47.3 1892.2 47.5 1891.9 47.5 L 1889.1 47.5 L 1889.1 50.8 L 1889.1 50.8 L 1889.1 50.8 C 1889.1 58.1 1883.2 64.0 1875.8 64.0 C 1870.2 64.0 1865.4 60.5 1863.5 55.6 L 1850.1 53.8 C 1848.4 55.4 1846.1 56.4 1843.6 56.4 C 1838.5 56.4 1834.4 52.5 1834.1 47.5 L 1831.4 47.5 C 1831.1 47.5 1830.8 47.3 1830.8 47.0 L 1830.8 42.1 L 1820.8 42.1 C 1820.5 43.2 1819.6 44.0 1818.4 44.0 C 1817.1 44.0 1816.0 42.9 1816.0 41.6 C 1816.0 40.3 1817.1 39.2 1818.4 39.2 C 1819.6 39.2 1820.5 40.0 1820.8 41.0 L 1830.8 41.0 L 1830.8 36.2 C 1830.8 35.9 1831.1 35.6 1831.4 35.6 L 1834.1 35.6 L 1834.1 32.6 C 1834.1 32.6 1834.1 32.6 1834.1 32.6 C 1834.1 32.5 1834.1 32.5 1834.1 32.5 C 1834.1 32.5 1834.1 32.5 1834.1 32.5 C 1834.1 32.4 1834.1 32.4 1834.1 32.4 C 1834.1 32.4 1834.1 32.4 1834.1 32.4 C 1834.1 32.3 1834.1 32.3 1834.2 32.3 C 1834.2 32.3 1834.2 32.3 1834.2 32.3 C 1834.2 32.3 1834.2 32.3 1834.2 32.3 L 1839.4 25.9 C 1836.5 21.8 1833.9 17.5 1831.7 13.1 C 1831.7 13.1 1831.6 13.0 1831.6 13.0 C 1830.9 11.6 1830.2 10.2 1829.6 8.7 C 1829.6 8.7 1829.5 8.7 1829.5 8.7 C 1829.5 8.7 1829.5 8.7 1829.5 8.7 C 1829.0 7.6 1828.5 6.5 1828.1 5.4 C 1825.4 11.1 1823.3 17.1 1821.8 23.2 L 1823.0 23.6 C 1823.4 23.8 1823.8 24.2 1824.0 24.7 C 1824.3 25.2 1824.3 25.7 1824.1 26.2 C 1823.7 27.2 1822.5 27.7 1821.5 27.3 L 1821.0 27.1 L 1821.0 30.8 C 1821.0 31.9 1820.1 32.8 1819.0 32.8 C 1817.9 32.8 1817.1 31.9 1817.0 30.8 L 1817.0 31.9 C 1817.0 33.0 1816.2 33.8 1815.1 33.8 C 1814.0 33.8 1813.1 33.0 1813.1 31.9 L 1813.1 26.9 L 1813.1 26.9 L 1813.1 29.5 C 1813.1 30.6 1812.2 31.5 1811.1 31.5 C 1810.0 31.5 1809.1 30.6 1809.1 29.5 L 1809.1 26.4 L 1809.1 26.4 L 1809.1 26.4 C 1809.1 26.3 1809.1 26.3 1809.1 26.3 C 1809.1 26.3 1809.1 26.3 1809.1 26.3 C 1809.7 23.3 1810.3 20.5 1811.1 17.6 C 1811.1 17.6 1811.1 17.5 1811.1 17.5 C 1811.1 17.5 1811.1 17.5 1811.1 17.5 C 1811.8 15.1 1812.5 12.7 1813.4 10.4 C 1813.4 10.3 1813.4 10.3 1813.4 10.3 C 1813.4 10.3 1813.4 10.3 1813.4 10.3 C 1814.9 5.8 1816.8 1.5 1818.9 -2.7 C 1818.9 -2.7 1818.9 -2.7 1818.9 -2.7 C 1818.9 -2.8 1818.9 -2.8 1819.0 -2.8 C 1819.0 -2.8 1819.0 -2.8 1819.0 -2.8 C 1819.0 -2.9 1819.0 -2.9 1819.1 -2.9 C 1819.1 -2.9 1819.1 -2.9 1819.1 -2.9 C 1819.1 -2.9 1819.2 -3.0 1819.2 -3.0 C 1819.2 -3.0 1819.2 -3.0 1819.2 -3.0 C 1819.3 -3.0 1819.3 -3.0 1819.4 -3.0 C 1819.4 -3.0 1819.4 -3.0 1819.4 -3.0 C 1819.4 -3.0 1819.4 -3.0 1819.4 -3.0 L 1831.5 -3.0 C 1831.5 -3.0 1831.5 -3.0 1831.5 -3.0 C 1831.5 -3.0 1831.5 -3.0 1831.5 -3.0 L 1837.1 -3.0 C 1837.1 -3.0 1837.1 -3.0 1837.1 -3.0 C 1837.1 -3.0 1837.1 -3.0 1837.1 -3.0 L 1857.0 -3.0 C 1857.0 -3.0 1857.0 -3.0 1857.0 -3.0 C 1857.0 -3.0 1857.0 -3.0 1857.0 -3.0 L 1866.2 -3.0 C 1866.2 -3.0 1866.2 -3.0 1866.2 -3.0 C 1866.2 -3.0 1866.2 -3.0 1866.2 -3.0 L 1886.1 -3.0 C 1886.1 -3.0 1886.1 -3.0 1886.1 -3.0 C 1886.1 -3.0 1886.1 -3.0 1886.1 -3.0 L 1894.1 -3.0 C 1894.1 -3.0 1894.1 -3.0 1894.1 -3.0 C 1894.1 -3.0 1894.1 -3.0 1894.1 -3.0 L 1897.5 -3.0 C 1897.5 -3.0 1897.5 -3.0 1897.5 -3.0 C 1897.5 -3.0 1897.5 -3.0 1897.5 -3.0 C 1897.6 -3.0 1897.6 -3.0 1897.7 -3.0 C 1897.7 -3.0 1897.7 -3.0 1897.7 -3.0 C 1897.7 -3.0 1897.7 -3.0 1897.7 -3.0 C 1897.7 -3.0 1897.7 -2.9 1897.7 -2.9 C 1897.8 -2.9 1897.8 -2.9 1897.8 -2.9 C 1897.8 -2.9 1897.8 -2.9 1897.8 -2.9 C 1897.8 -2.9 1897.9 -2.9 1897.9 -2.9 C 1897.9 -2.8 1897.9 -2.8 1897.9 -2.8 C 1897.9 -2.8 1897.9 -2.8 1897.9 -2.8 C 1897.9 -2.8 1898.0 -2.7 1898.0 -2.7 C 1898.0 -2.7 1898.0 -2.7 1898.0 -2.7 C 1898.0 -2.7 1898.0 -2.7 1898.0 -2.6 C 1898.0 -2.6 1898.0 -2.6 1898.0 -2.6 C 1898.0 -2.6 1898.0 -2.6 1898.0 -2.5 C 1898.0 -2.5 1898.0 -2.5 1898.0 -2.5 C 1898.0 -2.5 1898.0 -2.5 1898.0 -2.5 C 1898.0 -2.5 1898.0 -2.4 1898.0 -2.4 C 1898.0 -2.4 1898.0 -2.4 1898.0 -2.4 C 1898.0 -2.4 1898.0 -2.3 1898.0 -2.3 C 1898.0 -2.3 1898.0 -2.3 1898.0 -2.3 C 1897.9 -1.8 1897.7 -1.4 1897.5 -0.9 C 1897.5 -0.9 1897.5 -0.8 1897.5 -0.8 C 1896.4 2.4 1895.1 5.6 1893.7 8.7 C 1893.7 8.7 1893.7 8.7 1893.7 8.7 C 1893.7 8.7 1893.7 8.7 1893.7 8.7 C 1893.0 10.2 1892.3 11.6 1891.6 13.0 C 1891.6 13.0 1891.6 13.1 1891.5 13.1 C 1889.3 17.5 1886.7 21.8 1883.9 25.9 L 1889.0 32.3 C 1889.0 32.3 1889.0 32.3 1889.0 32.3 C 1889.0 32.3 1889.1 32.3 1889.1 32.3 C 1889.1 32.3 1889.1 32.3 1889.1 32.4 C 1889.1 32.4 1889.1 32.4 1889.1 32.4 C 1889.1 32.4 1889.1 32.4 1889.1 32.5 C 1889.1 32.5 1889.1 32.5 1889.1 32.5 C 1889.1 32.5 1889.1 32.5 1889.1 32.6 C 1889.1 32.6 1889.1 32.6 1889.1 32.6 L 1889.1 35.6 L 1891.9 35.6 C 1892.2 35.6 1892.4 35.9 1892.4 36.2 L 1892.4 41.0 L 1901.2 41.0 C 1901.5 40.0 1902.4 39.2 1903.6 39.2 C 1904.9 39.2 1906.0 40.3 1906.0 41.6 C 1906.0 42.9 1904.9 44.0 1903.6 44.0 " fill="#E9C05A"></path><path d="M 1879.5 44.0 C 1878.3 44.0 1877.4 43.2 1877.1 42.1 L 1868.3 42.1 L 1868.3 47.0 C 1868.3 47.3 1868.1 47.5 1867.8 47.5 L 1865.0 47.5 L 1865.0 50.8 L 1865.0 50.8 L 1865.0 50.8 C 1865.0 58.1 1859.1 64.0 1851.7 64.0 C 1846.1 64.0 1841.3 60.5 1839.4 55.6 L 1826.0 53.8 C 1824.3 55.4 1822.0 56.4 1819.5 56.4 C 1814.4 56.4 1810.3 52.5 1810.0 47.5 L 1807.3 47.5 C 1807.0 47.5 1806.7 47.3 1806.7 47.0 L 1806.7 42.1 L 1796.7 42.1 C 1796.4 43.2 1795.5 44.0 1794.3 44.0 C 1793.0 44.0 1791.9 42.9 1791.9 41.6 C 1791.9 40.3 1793.0 39.2 1794.3 39.2 C 1795.5 39.2 1796.4 40.0 1796.7 41.0 L 1806.7 41.0 L 1806.7 36.2 C 1806.7 35.9 1807.0 35.6 1807.3 35.6 L 1810.0 35.6 L 1810.0 32.6 C 1810.0 32.6 1810.0 32.6 1810.0 32.6 C 1810.0 32.5 1810.0 32.5 1810.0 32.5 C 1810.0 32.5 1810.0 32.5 1810.0 32.5 C 1810.0 32.4 1810.0 32.4 1810.0 32.4 C 1810.0 32.4 1810.0 32.4 1810.0 32.4 C 1810.0 32.3 1810.0 32.3 1810.1 32.3 C 1810.1 32.3 1810.1 32.3 1810.1 32.3 C 1810.1 32.3 1810.1 32.3 1810.1 32.3 L 1815.3 25.9 C 1812.4 21.8 1809.8 17.5 1807.6 13.1 C 1807.5 13.1 1807.5 13.0 1807.5 13.0 C 1806.8 11.6 1806.1 10.2 1805.5 8.7 C 1805.5 8.7 1805.4 8.7 1805.4 8.7 C 1805.4 8.7 1805.4 8.7 1805.4 8.7 C 1804.9 7.6 1804.4 6.5 1804.0 5.4 C 1801.3 11.1 1799.2 17.1 1797.7 23.2 L 1798.9 23.6 C 1799.3 23.8 1799.7 24.2 1799.9 24.7 C 1800.2 25.2 1800.2 25.7 1800.0 26.2 C 1799.6 27.2 1798.4 27.7 1797.4 27.3 L 1796.9 27.1 L 1796.9 30.8 C 1796.9 31.9 1796.0 32.8 1794.9 32.8 C 1793.8 32.8 1793.0 31.9 1792.9 30.8 L 1792.9 31.9 C 1792.9 33.0 1792.0 33.8 1791.0 33.8 C 1789.9 33.8 1789.0 33.0 1789.0 31.9 L 1789.0 26.9 L 1789.0 26.9 L 1789.0 29.5 C 1789.0 30.6 1788.1 31.5 1787.0 31.5 C 1785.9 31.5 1785.0 30.6 1785.0 29.5 L 1785.0 26.4 L 1785.0 26.4 L 1785.0 26.4 C 1785.0 26.3 1785.0 26.3 1785.0 26.3 C 1785.0 26.3 1785.0 26.3 1785.0 26.3 C 1785.6 23.3 1786.2 20.5 1787.0 17.6 C 1787.0 17.6 1787.0 17.5 1787.0 17.5 C 1787.0 17.5 1787.0 17.5 1787.0 17.5 C 1787.7 15.1 1788.4 12.7 1789.3 10.4 C 1789.3 10.3 1789.3 10.3 1789.3 10.3 C 1789.3 10.3 1789.3 10.3 1789.3 10.3 C 1790.8 5.8 1792.7 1.5 1794.8 -2.7 C 1794.8 -2.7 1794.8 -2.7 1794.8 -2.7 C 1794.8 -2.8 1794.8 -2.8 1794.9 -2.8 C 1794.9 -2.8 1794.9 -2.8 1794.9 -2.8 C 1794.9 -2.9 1794.9 -2.9 1795.0 -2.9 C 1795.0 -2.9 1795.0 -2.9 1795.0 -2.9 C 1795.0 -2.9 1795.1 -3.0 1795.1 -3.0 C 1795.1 -3.0 1795.1 -3.0 1795.1 -3.0 C 1795.2 -3.0 1795.2 -3.0 1795.3 -3.0 C 1795.3 -3.0 1795.3 -3.0 1795.3 -3.0 C 1795.3 -3.0 1795.3 -3.0 1795.3 -3.0 L 1807.4 -3.0 C 1807.4 -3.0 1807.4 -3.0 1807.4 -3.0 C 1807.4 -3.0 1807.4 -3.0 1807.4 -3.0 L 1813.0 -3.0 C 1813.0 -3.0 1813.0 -3.0 1813.0 -3.0 C 1813.0 -3.0 1813.0 -3.0 1813.0 -3.0 L 1832.9 -3.0 C 1832.9 -3.0 1832.9 -3.0 1832.9 -3.0 C 1832.9 -3.0 1832.9 -3.0 1832.9 -3.0 L 1842.1 -3.0 C 1842.1 -3.0 1842.1 -3.0 1842.1 -3.0 C 1842.1 -3.0 1842.1 -3.0 1842.1 -3.0 L 1862.0 -3.0 C 1862.0 -3.0 1862.0 -3.0 1862.0 -3.0 C 1862.0 -3.0 1862.0 -3.0 1862.0 -3.0 L 1870.0 -3.0 C 1870.0 -3.0 1870.0 -3.0 1870.0 -3.0 C 1870.0 -3.0 1870.0 -3.0 1870.0 -3.0 L 1873.4 -3.0 C 1873.4 -3.0 1873.4 -3.0 1873.4 -3.0 C 1873.4 -3.0 1873.4 -3.0 1873.4 -3.0 C 1873.5 -3.0 1873.5 -3.0 1873.5 -3.0 C 1873.6 -3.0 1873.6 -3.0 1873.6 -3.0 C 1873.6 -3.0 1873.6 -3.0 1873.6 -3.0 C 1873.6 -3.0 1873.6 -2.9 1873.6 -2.9 C 1873.7 -2.9 1873.7 -2.9 1873.7 -2.9 C 1873.7 -2.9 1873.7 -2.9 1873.7 -2.9 C 1873.7 -2.9 1873.8 -2.9 1873.8 -2.9 C 1873.8 -2.8 1873.8 -2.8 1873.8 -2.8 C 1873.8 -2.8 1873.8 -2.8 1873.8 -2.8 C 1873.8 -2.8 1873.9 -2.7 1873.9 -2.7 C 1873.9 -2.7 1873.9 -2.7 1873.9 -2.7 C 1873.9 -2.7 1873.9 -2.7 1873.9 -2.6 C 1873.9 -2.6 1873.9 -2.6 1873.9 -2.6 C 1873.9 -2.6 1873.9 -2.6 1873.9 -2.5 C 1873.9 -2.5 1873.9 -2.5 1873.9 -2.5 C 1873.9 -2.5 1873.9 -2.5 1873.9 -2.5 C 1873.9 -2.5 1873.9 -2.4 1873.9 -2.4 C 1873.9 -2.4 1873.9 -2.4 1873.9 -2.4 C 1873.9 -2.4 1873.9 -2.3 1873.9 -2.3 C 1873.9 -2.3 1873.9 -2.3 1873.9 -2.3 C 1873.7 -1.8 1873.6 -1.4 1873.4 -0.9 C 1873.4 -0.9 1873.4 -0.8 1873.4 -0.8 C 1872.3 2.4 1871.0 5.6 1869.6 8.7 C 1869.6 8.7 1869.6 8.7 1869.6 8.7 C 1869.6 8.7 1869.6 8.7 1869.6 8.7 C 1868.9 10.2 1868.2 11.6 1867.5 13.0 C 1867.5 13.0 1867.5 13.1 1867.4 13.1 C 1865.2 17.5 1862.6 21.8 1859.8 25.9 L 1864.9 32.3 C 1864.9 32.3 1864.9 32.3 1864.9 32.3 C 1864.9 32.3 1865.0 32.3 1865.0 32.3 C 1865.0 32.3 1865.0 32.3 1865.0 32.4 C 1865.0 32.4 1865.0 32.4 1865.0 32.4 C 1865.0 32.4 1865.0 32.4 1865.0 32.5 C 1865.0 32.5 1865.0 32.5 1865.0 32.5 C 1865.0 32.5 1865.0 32.5 1865.0 32.6 C 1865.0 32.6 1865.0 32.6 1865.0 32.6 L 1865.0 35.6 L 1867.8 35.6 C 1868.1 35.6 1868.3 35.9 1868.3 36.2 L 1868.3 41.0 L 1877.1 41.0 C 1877.4 40.0 1878.3 39.2 1879.5 39.2 C 1880.8 39.2 1881.9 40.3 1881.9 41.6 C 1881.9 42.9 1880.8 44.0 1879.5 44.0 " fill="#FED97B"></path><path d="M 0.0 0.0 L 106.1 0.0 C 109.5 -4.8 111.5 -10.6 111.5 -16.9 C 111.5 -28.3 104.9 -38.2 95.3 -43.0 " fill="none" stroke="#393E50" stroke-width="3.00" stroke-miterlimit="0.00" stroke-linecap="round" stroke-linejoin="round" transform="matrix(0.36, 0.00, 0.00, 0.36, 1808.0, 12.8)"></path><path d="M 0.0 0.0 C 8.6 21.3 19.7 42.0 33.3 61.7 " fill="none" stroke="#393E50" stroke-width="3.00" stroke-miterlimit="0.00" stroke-linecap="round" stroke-linejoin="round" transform="matrix(0.36, 0.00, 0.00, 0.36, 1804.0, 4.0)"></path><path d="M 0.0 0.0 C 5.3 -2.2 10.5 -4.8 15.5 -7.7 L 47.5 -10.1 " fill="none" stroke="#393E50" stroke-width="1.00" stroke-miterlimit="0.00" stroke-linecap="round" stroke-linejoin="round" transform="matrix(0.36, 0.00, 0.00, 0.36, 1810.4, 12.8)"></path><path d="M 0.0 0.0 C -7.9 4.5 -16.1 8.5 -24.5 11.9 " fill="none" stroke="#393E50" stroke-width="1.00" stroke-miterlimit="0.00" stroke-linecap="round" stroke-linejoin="round" transform="matrix(0.36, 0.00, 0.00, 0.36, 1815.9, 6.8)"></path><path d="M 0.0 0.0 C -8.7 5.0 -17.7 9.4 -26.9 13.2 " fill="none" stroke="#393E50" stroke-width="3.00" stroke-miterlimit="0.00" stroke-linecap="round" stroke-linejoin="round" transform="matrix(0.36, 0.00, 0.00, 0.36, 1815.6, 3.8)"></path><path d="M 0.0 0.0 C -8.8 4.8 -17.8 9.1 -27.1 12.9 " fill="none" stroke="#393E50" stroke-width="1.00" stroke-miterlimit="0.00" stroke-linecap="round" stroke-linejoin="round" transform="matrix(0.36, 0.00, 0.00, 0.36, 1814.3, 0.8)"></path><path d="M 0.0 0.0 C 2.5 6.7 5.2 13.3 8.3 19.8 " fill="none" stroke="#393E50" stroke-width="3.00" stroke-miterlimit="0.00" stroke-linecap="round" stroke-linejoin="round" transform="matrix(0.36, 0.00, 0.00, 0.36, 1813.0, -2.5)"></path><path d="M 0.0 0.0 C 5.2 -27.7 14.2 -55.0 27.2 -81.1 " fill="none" stroke="#393E50" stroke-width="3.00" stroke-miterlimit="0.00" stroke-linecap="round" stroke-linejoin="round" transform="matrix(0.36, 0.00, 0.00, 0.36, 1785.5, 26.4)"></path><path d="M 0.0 0.0 C -13.1 23.1 -22.7 47.7 -28.8 73.1 " fill="none" stroke="#393E50" stroke-width="3.00" stroke-miterlimit="0.00" stroke-linecap="round" stroke-linejoin="round" transform="matrix(0.36, 0.00, 0.00, 0.36, 1807.4, -2.5)"></path><path d="M 0.0 0.0 C -8.7 -5.0 -17.6 -9.5 -26.9 -13.3 " fill="none" stroke="#393E50" stroke-width="1.00" stroke-miterlimit="0.00" stroke-linecap="round" stroke-linejoin="round" transform="matrix(0.36, 0.00, 0.00, 0.36, 1804.4, 3.2)"></path><path d="M 0.0 0.0 C -8.7 -5.0 -17.7 -9.4 -26.9 -13.2 " fill="none" stroke="#393E50" stroke-width="3.00" stroke-miterlimit="0.00" stroke-linecap="round" stroke-linejoin="round" transform="matrix(0.36, 0.00, 0.00, 0.36, 1803.2, 5.7)"></path><path d="M 0.0 0.0 C -8.8 -4.8 -17.8 -9.1 -27.1 -12.9 " fill="none" stroke="#393E50" stroke-width="1.00" stroke-miterlimit="0.00" stroke-linecap="round" stroke-linejoin="round" transform="matrix(0.36, 0.00, 0.00, 0.36, 1801.9, 8.7)"></path><path d="M 0.0 0.0 C -8.8 -4.9 -17.6 -9.8 -26.4 -14.8 " fill="none" stroke="#393E50" stroke-width="1.00" stroke-miterlimit="0.00" stroke-linecap="round" stroke-linejoin="round" transform="matrix(0.36, 0.00, 0.00, 0.36, 1801.1, 10.8)"></path><path d="M 0.0 0.0 C -8.5 -5.5 -17.4 -10.5 -26.4 -15.0 " fill="none" stroke="#393E50" stroke-width="1.00" stroke-miterlimit="0.00" stroke-linecap="round" stroke-linejoin="round" transform="matrix(0.36, 0.00, 0.00, 0.36, 1800.1, 13.4)"></path><path d="M 0.0 0.0 C -8.6 -5.5 -17.4 -10.4 -26.6 -14.8 " fill="none" stroke="#393E50" stroke-width="3.00" stroke-miterlimit="0.00" stroke-linecap="round" stroke-linejoin="round" transform="matrix(0.36, 0.00, 0.00, 0.36, 1799.3, 15.7)"></path><path d="M 0.0 0.0 L -27.1 -13.8 " fill="none" stroke="#393E50" stroke-width="1.00" stroke-miterlimit="0.00" stroke-linecap="round" stroke-linejoin="round" transform="matrix(0.36, 0.00, 0.00, 0.36, 1798.6, 17.9)"></path><path d="M 0.0 0.0 C -8.9 -4.9 -18.0 -9.5 -27.2 -13.7 " fill="none" stroke="#393E50" stroke-width="1.00" stroke-miterlimit="0.00" stroke-linecap="round" stroke-linejoin="round" transform="matrix(0.36, 0.00, 0.00, 0.36, 1798.0, 20.2)"></path><path d="M 0.0 0.0 C -9.2 -3.9 -18.6 -7.4 -28.1 -10.6 " fill="none" stroke="#393E50" stroke-width="3.00" stroke-miterlimit="0.00" stroke-linecap="round" stroke-linejoin="round" transform="matrix(0.36, 0.00, 0.00, 0.36, 1797.6, 21.5)"></path><path d="M 0.0 0.0 L 0.0 8.9 C 0.0 11.1 -1.8 12.9 -4.0 12.9 L -4.0 12.9 C -6.3 12.9 -8.1 11.1 -8.1 8.9 L -8.1 0.0 " fill="none" stroke="#393E50" stroke-width="3.00" stroke-miterlimit="0.00" stroke-linecap="round" stroke-linejoin="round" transform="matrix(0.36, 0.00, 0.00, 0.36, 1788.4, 26.4)"></path><path d="M 0.0 0.0 L 8.1 0.6 " fill="none" stroke="#393E50" stroke-width="1.00" stroke-miterlimit="0.00" stroke-linecap="round" stroke-linejoin="round" transform="matrix(0.36, 0.00, 0.00, 0.36, 1785.5, 27.4)"></path><path d="M 0.0 0.0 L 8.1 0.2 " fill="none" stroke="#393E50" stroke-width="1.00" stroke-miterlimit="0.00" stroke-linecap="round" stroke-linejoin="round" transform="matrix(0.36, 0.00, 0.00, 0.36, 1785.5, 29.0)"></path><path d="M 0.0 0.0 L 0.0 15.5 C 0.0 17.8 -1.8 19.6 -4.0 19.6 L -4.0 19.6 C -6.3 19.6 -8.1 17.8 -8.1 15.5 L -8.1 0.0 " fill="none" stroke="#393E50" stroke-width="3.00" stroke-miterlimit="0.00" stroke-linecap="round" stroke-linejoin="round" transform="matrix(0.36, 0.00, 0.00, 0.36, 1792.4, 26.4)"></path><path d="M 0.0 0.0 L 8.1 0.6 " fill="none" stroke="#393E50" stroke-width="1.00" stroke-miterlimit="0.00" stroke-linecap="round" stroke-linejoin="round" transform="matrix(0.36, 0.00, 0.00, 0.36, 1789.5, 27.7)"></path><path d="M 0.0 0.0 L 8.1 0.2 " fill="none" stroke="#393E50" stroke-width="1.00" stroke-miterlimit="0.00" stroke-linecap="round" stroke-linejoin="round" transform="matrix(0.36, 0.00, 0.00, 0.36, 1789.5, 29.1)"></path><path d="M 0.0 0.0 L 8.1 0.6 " fill="none" stroke="#393E50" stroke-width="1.00" stroke-miterlimit="0.00" stroke-linecap="round" stroke-linejoin="round" transform="matrix(0.36, 0.00, 0.00, 0.36, 1789.5, 29.5)"></path><path d="M 0.0 0.0 L 8.1 0.2 " fill="none" stroke="#393E50" stroke-width="1.00" stroke-miterlimit="0.00" stroke-linecap="round" stroke-linejoin="round" transform="matrix(0.36, 0.00, 0.00, 0.36, 1789.5, 30.9)"></path><path d="M 0.0 0.0 L 0.0 12.5 C 0.0 14.8 -1.8 16.6 -4.0 16.6 L -4.0 16.6 C -6.3 16.6 -8.1 14.8 -8.1 12.5 L -8.1 0.0 " fill="none" stroke="#393E50" stroke-width="3.00" stroke-miterlimit="0.00" stroke-linecap="round" stroke-linejoin="round" transform="matrix(0.36, 0.00, 0.00, 0.36, 1796.4, 26.4)"></path><path d="M 0.0 0.0 L 8.1 0.6 " fill="none" stroke="#393E50" stroke-width="1.00" stroke-miterlimit="0.00" stroke-linecap="round" stroke-linejoin="round" transform="matrix(0.36, 0.00, 0.00, 0.36, 1793.5, 26.7)"></path><path d="M 0.0 0.0 L 8.1 0.2 " fill="none" stroke="#393E50" stroke-width="1.00" stroke-miterlimit="0.00" stroke-linecap="round" stroke-linejoin="round" transform="matrix(0.36, 0.00, 0.00, 0.36, 1793.5, 28.0)"></path><path d="M 0.0 0.0 L 8.1 0.6 " fill="none" stroke="#393E50" stroke-width="1.00" stroke-miterlimit="0.00" stroke-linecap="round" stroke-linejoin="round" transform="matrix(0.36, 0.00, 0.00, 0.36, 1793.5, 28.5)"></path><path d="M 0.0 0.0 L 8.1 0.2 " fill="none" stroke="#393E50" stroke-width="1.00" stroke-miterlimit="0.00" stroke-linecap="round" stroke-linejoin="round" transform="matrix(0.36, 0.00, 0.00, 0.36, 1793.5, 29.8)"></path><path d="M 0.0 0.0 L 3.2 1.3 C 5.3 2.1 7.6 1.1 8.4 -1.0 L 8.4 -1.0 C 9.3 -3.1 8.2 -5.4 6.2 -6.3 L -3.0 -9.9 " fill="none" stroke="#393E50" stroke-width="3.00" stroke-miterlimit="0.00" stroke-linecap="round" stroke-linejoin="round" transform="matrix(0.36, 0.00, 0.00, 0.36, 1796.5, 26.4)"></path><path d="M 0.0 0.0 C 4.8 2.0 9.4 4.7 13.5 7.8 " fill="none" stroke="#393E50" stroke-width="1.00" stroke-miterlimit="0.00" stroke-linecap="round" stroke-linejoin="round" transform="matrix(0.36, 0.00, 0.00, 0.36, 1801.0, -2.5)"></path><path d="M 0.0 0.0 C 1.5 1.2 3.0 2.5 4.4 3.8 " fill="none" stroke="#393E50" stroke-width="1.00" stroke-miterlimit="0.00" stroke-linecap="round" stroke-linejoin="round" transform="matrix(0.36, 0.00, 0.00, 0.36, 1805.1, -2.5)"></path><path d="M 0.0 0.0 C 5.0 -3.4 9.8 -7.2 14.2 -11.4 " fill="none" stroke="#393E50" stroke-width="3.00" stroke-miterlimit="0.00" stroke-linecap="round" stroke-linejoin="round" transform="matrix(0.36, 0.00, 0.00, 0.36, 1805.4, 1.6)"></path><path d="M 0.0 0.0 C 0.0 -19.7 -16.0 -35.7 -35.7 -35.7 C -55.4 -35.7 -71.4 -19.7 -71.4 0.0 C -71.4 19.7 -55.4 35.7 -35.7 35.7 C -16.0 35.7 0.0 19.7 0.0 0.0 Z M 0.0 0.0 " fill="none" stroke="#393E50" stroke-width="3.00" stroke-miterlimit="0.00" stroke-linecap="round" stroke-linejoin="round" transform="matrix(0.36, 0.00, 0.00, 0.36, 1864.5, 50.8)"></path><path d="M 0.0 0.0 C -16.5 0.0 -29.9 13.4 -29.9 29.9 C -29.9 46.3 -16.5 59.7 0.0 59.7 C 16.5 59.7 29.9 46.3 29.9 29.9 C 29.9 13.4 16.5 0.0 0.0 0.0 Z M 0.0 0.0 " fill="none" stroke="#393E50" stroke-width="2.00" stroke-miterlimit="0.00" stroke-linecap="round" stroke-linejoin="round" transform="matrix(0.36, 0.00, 0.00, 0.36, 1851.7, 40.2)"></path><path d="M 0.0 0.0 C -13.6 0.0 -24.6 11.1 -24.6 24.6 C -24.6 38.2 -13.6 49.3 0.0 49.3 C 13.6 49.3 24.6 38.2 24.6 24.6 C 24.6 11.1 13.6 0.0 0.0 0.0 Z M 0.0 0.0 " fill="none" stroke="#393E50" stroke-width="6.00" stroke-miterlimit="0.00" stroke-linecap="round" stroke-linejoin="round" transform="matrix(0.36, 0.00, 0.00, 0.36, 1851.7, 42.0)"></path><path d="M 0.0 0.0 C -11.4 0.0 -20.6 9.3 -20.6 20.6 C -20.6 32.0 -11.4 41.3 0.0 41.3 C 11.4 41.3 20.6 32.0 20.6 20.6 C 20.6 9.3 11.4 0.0 0.0 0.0 Z M 0.0 0.0 " fill="none" stroke="#393E50" stroke-width="1.00" stroke-miterlimit="0.00" stroke-linecap="round" stroke-linejoin="round" stroke-dasharray="2.0" transform="matrix(0.36, 0.00, 0.00, 0.36, 1851.7, 43.5)"></path><path d="M 0.0 0.0 C 0.0 -13.8 -11.2 -25.0 -25.0 -25.0 C -38.8 -25.0 -50.0 -13.8 -50.0 0.0 C -50.0 13.8 -38.8 25.0 -25.0 25.0 C -11.2 25.0 0.0 13.8 0.0 0.0 Z M 0.0 0.0 " fill="none" stroke="#393E50" stroke-width="3.00" stroke-miterlimit="0.00" stroke-linecap="round" stroke-linejoin="round" transform="matrix(0.36, 0.00, 0.00, 0.36, 1828.4, 47.0)"></path><path d="M 0.0 0.0 C -10.6 0.0 -19.2 8.6 -19.2 19.2 C -19.2 29.7 -10.6 38.3 0.0 38.3 C 10.6 38.3 19.2 29.7 19.2 19.2 C 19.2 8.6 10.6 0.0 0.0 0.0 Z M 0.0 0.0 " fill="none" stroke="#393E50" stroke-width="2.00" stroke-miterlimit="0.00" stroke-linecap="round" stroke-linejoin="round" transform="matrix(0.36, 0.00, 0.00, 0.36, 1819.5, 40.2)"></path><path d="M 0.0 0.0 C -7.7 0.0 -13.9 6.2 -13.9 13.9 C -13.9 21.6 -7.7 27.9 0.0 27.9 C 7.7 27.9 13.9 21.6 13.9 13.9 C 13.9 6.2 7.7 0.0 0.0 0.0 Z M 0.0 0.0 " fill="none" stroke="#393E50" stroke-width="6.00" stroke-miterlimit="0.00" stroke-linecap="round" stroke-linejoin="round" transform="matrix(0.36, 0.00, 0.00, 0.36, 1819.5, 42.0)"></path><path d="M 0.0 0.0 C -5.5 0.0 -9.9 4.5 -9.9 9.9 C -9.9 15.4 -5.5 19.9 0.0 19.9 C 5.5 19.9 9.9 15.4 9.9 9.9 C 9.9 4.5 5.5 0.0 0.0 0.0 Z M 0.0 0.0 " fill="none" stroke="#393E50" stroke-width="1.00" stroke-linecap="round" stroke-linejoin="round" stroke-dasharray="1.9, 1.9" transform="matrix(0.36, 0.00, 0.00, 0.36, 1819.5, 43.5)"></path><path d="M 0.0 0.0 L 0.0 -51.2 L -150.9 -51.2 L -150.9 -10.7 " fill="none" stroke="#393E50" stroke-width="3.00" stroke-miterlimit="10.00" stroke-linecap="round" stroke-linejoin="round" transform="matrix(0.36, 0.00, 0.00, 0.36, 1864.5, 50.8)"></path><path d="M 0.0 0.0 L -15.1 -18.6 L -35.7 -18.6 " fill="none" stroke="#393E50" stroke-width="3.00" stroke-miterlimit="10.00" stroke-linecap="round" stroke-linejoin="round" transform="matrix(0.36, 0.00, 0.00, 0.36, 1864.5, 32.6)"></path><path d="M 0.0 0.0 L -34.8 0.0 L -50.0 18.6 " fill="none" stroke="#393E50" stroke-width="3.00" stroke-miterlimit="10.00" stroke-linecap="round" stroke-linejoin="round" transform="matrix(0.36, 0.00, 0.00, 0.36, 1828.4, 26.0)"></path><path d="M 0.0 0.0 L 0.0 43.0 L 36.6 43.0 C 33.2 38.2 31.2 32.4 31.2 26.1 C 31.2 14.6 37.8 4.8 47.4 0.0 " fill="none" stroke="#393E50" stroke-width="3.00" stroke-miterlimit="10.00" stroke-linecap="round" stroke-linejoin="round" transform="matrix(0.36, 0.00, 0.00, 0.36, 1815.9, -2.5)"></path><path d="M 0.0 0.0 L 0.0 -43.0 " fill="none" stroke="#393E50" stroke-width="3.00" stroke-miterlimit="10.00" stroke-linecap="round" stroke-linejoin="round" transform="matrix(0.36, 0.00, 0.00, 0.36, 1859.1, 12.8)"></path><path d="M 0.0 0.0 L 38.9 5.4 " fill="none" stroke="#393E50" stroke-width="3.00" stroke-miterlimit="10.00" stroke-linecap="round" stroke-linejoin="round" transform="matrix(0.36, 0.00, 0.00, 0.36, 1825.8, 53.2)"></path><path d="M 0.0 0.0 L -9.1 0.0 L -9.1 -30.4 L 0.0 -30.4 " fill="none" stroke="#393E50" stroke-width="3.00" stroke-miterlimit="10.00" stroke-linecap="round" stroke-linejoin="round" transform="matrix(0.36, 0.00, 0.00, 0.36, 1810.5, 47.0)"></path><path d="M 0.0 0.0 L 9.1 0.0 L 9.1 30.4 L 0.0 30.4 " fill="none" stroke="#393E50" stroke-width="3.00" stroke-miterlimit="10.00" stroke-linecap="round" stroke-linejoin="round" transform="matrix(0.36, 0.00, 0.00, 0.36, 1864.5, 36.2)"></path><path d="M 0.0 0.0 L -30.8 0.0 " fill="none" stroke="#393E50" stroke-width="3.00" stroke-miterlimit="10.00" stroke-linecap="round" stroke-linejoin="round" transform="matrix(0.36, 0.00, 0.00, 0.36, 1807.3, 41.6)"></path><path d="M 0.0 0.0 L 27.5 0.0 " fill="none" stroke="#393E50" stroke-width="3.00" stroke-miterlimit="10.00" stroke-linecap="round" stroke-linejoin="round" transform="matrix(0.36, 0.00, 0.00, 0.36, 1867.8, 41.6)"></path><path d="M 0.0 0.0 C 0.0 2.9 -2.3 5.2 -5.2 5.2 C -8.1 5.2 -10.5 2.9 -10.5 0.0 C -10.5 -2.9 -8.1 -5.2 -5.2 -5.2 C -2.3 -5.2 0.0 -2.9 0.0 0.0 Z M 0.0 0.0 " fill="none" stroke="#393E50" stroke-width="3.00" stroke-miterlimit="10.00" stroke-linecap="round" stroke-linejoin="round" transform="matrix(0.36, 0.00, 0.00, 0.36, 1796.2, 41.6)"></path><path d="M 0.0 0.0 C 0.0 2.9 -2.3 5.2 -5.2 5.2 C -8.1 5.2 -10.5 2.9 -10.5 0.0 C -10.5 -2.9 -8.1 -5.2 -5.2 -5.2 C -2.3 -5.2 0.0 -2.9 0.0 0.0 Z M 0.0 0.0 " fill="none" stroke="#393E50" stroke-width="3.00" stroke-miterlimit="10.00" stroke-linecap="round" stroke-linejoin="round" transform="matrix(0.36, 0.00, 0.00, 0.36, 1881.4, 41.6)"></path><path d="M 0.0 0.0 C 4.1 -4.5 6.5 -10.4 6.5 -16.9 C 6.5 -30.7 -4.7 -42.0 -18.5 -42.0 C -32.4 -42.0 -43.6 -30.7 -43.6 -16.9 C -43.6 -10.4 -41.2 -4.5 -37.1 0.0 " fill="none" stroke="#393E50" stroke-width="1.00" stroke-miterlimit="10.00" stroke-linecap="round" stroke-linejoin="round" transform="matrix(0.36, 0.00, 0.00, 0.36, 1844.1, 12.8)"></path><path d="M 0.0 0.0 L -11.7 0.0 " fill="none" stroke="#393E50" stroke-width="3.00" stroke-miterlimit="10.00" stroke-linecap="round" stroke-linejoin="round" transform="matrix(0.36, 0.00, 0.00, 0.36, 1849.3, 26.0)"></path><path d="M 0.0 0.0 L -5.8 0.0 " fill="none" stroke="#393E50" stroke-width="3.00" stroke-miterlimit="10.00" stroke-linecap="round" stroke-linejoin="round" transform="matrix(0.36, 0.00, 0.00, 0.36, 1842.5, 26.0)"></path><path d="M 0.0 0.0 L 31.3 -2.4 " fill="none" stroke="#393E50" stroke-width="1.00" stroke-miterlimit="10.00" stroke-linecap="round" stroke-linejoin="round" transform="matrix(0.36, 0.00, 0.00, 0.36, 1847.9, 7.7)"></path><path d="M 0.0 0.0 L 120.5 -3.8 " fill="none" stroke="#393E50" stroke-width="1.00" stroke-miterlimit="10.00" stroke-linecap="round" stroke-linejoin="round" transform="matrix(0.36, 0.00, 0.00, 0.36, 1816.0, 11.4)"></path><path d="M 0.0 0.0 L 34.5 3.2 " fill="none" stroke="#393E50" stroke-width="1.00" stroke-miterlimit="10.00" stroke-linecap="round" stroke-linejoin="round" transform="matrix(0.36, 0.00, 0.00, 0.36, 1826.8, 52.0)"></path><path d="M 0.0 0.0 L 145.5 -6.7 " fill="none" stroke="#393E50" stroke-width="1.00" stroke-miterlimit="10.00" stroke-linecap="round" stroke-linejoin="round" transform="matrix(0.36, 0.00, 0.00, 0.36, 1810.5, 32.6)"></path><path d="M 0.0 0.0 C -9.2 27.8 -22.5 54.7 -40.0 80.0 " fill="none" stroke="#393E50" stroke-width="3.00" stroke-miterlimit="10.00" stroke-linecap="round" stroke-linejoin="round" transform="matrix(0.36, 0.00, 0.00, 0.36, 1873.4, -2.5)"></path><path d="M 0.0 0.0 C 3.0 -6.5 5.8 -13.1 8.3 -19.8 " fill="none" stroke="#393E50" stroke-width="3.00" stroke-miterlimit="10.00" stroke-linecap="round" stroke-linejoin="round" transform="matrix(0.36, 0.00, 0.00, 0.36, 1859.1, 4.6)"></path><path d="M 0.0 0.0 C -5.3 -2.2 -10.5 -4.8 -15.5 -7.7 L -47.5 -10.1 " fill="none" stroke="#393E50" stroke-width="1.00" stroke-miterlimit="10.00" stroke-linecap="round" stroke-linejoin="round" transform="matrix(0.36, 0.00, 0.00, 0.36, 1864.6, 12.8)"></path><path d="M 0.0 0.0 C 7.9 4.5 16.1 8.5 24.5 11.9 " fill="none" stroke="#393E50" stroke-width="1.00" stroke-miterlimit="10.00" stroke-linecap="round" stroke-linejoin="round" transform="matrix(0.36, 0.00, 0.00, 0.36, 1859.1, 6.8)"></path><path d="M 0.0 0.0 C 8.7 5.0 17.7 9.4 26.9 13.2 " fill="none" stroke="#393E50" stroke-width="3.00" stroke-miterlimit="10.00" stroke-linecap="round" stroke-linejoin="round" transform="matrix(0.36, 0.00, 0.00, 0.36, 1859.4, 3.8)"></path><path d="M 0.0 0.0 C 8.8 4.8 17.8 9.1 27.1 12.9 " fill="none" stroke="#393E50" stroke-width="1.00" stroke-miterlimit="10.00" stroke-linecap="round" stroke-linejoin="round" transform="matrix(0.36, 0.00, 0.00, 0.36, 1860.8, 0.8)"></path><path d="M 0.0 0.0 C 8.8 4.9 17.6 9.8 26.4 14.8 " fill="none" stroke="#393E50" stroke-width="1.00" stroke-miterlimit="10.00" stroke-linecap="round" stroke-linejoin="round" transform="matrix(0.36, 0.00, 0.00, 0.36, 1861.6, -1.3)"></path><path d="M 0.0 0.0 C 6.5 3.9 13.2 7.6 20.0 11.0 " fill="none" stroke="#393E50" stroke-width="1.00" stroke-miterlimit="10.00" stroke-linecap="round" stroke-linejoin="round" transform="matrix(0.36, 0.00, 0.00, 0.36, 1864.9, -2.5)"></path><path d="M 0.0 0.0 C 2.7 1.4 5.4 2.8 8.2 4.1 " fill="none" stroke="#393E50" stroke-width="3.00" stroke-miterlimit="10.00" stroke-linecap="round" stroke-linejoin="round" transform="matrix(0.36, 0.00, 0.00, 0.36, 1870.0, -2.5)"></path><path d="M 0.0 0.0 L 58.7 0.0 " fill="none" stroke="#393E50" stroke-width="3.00" stroke-miterlimit="10.00" stroke-linecap="round" stroke-linejoin="round" transform="matrix(0.36, 0.00, 0.00, 0.36, 1846.0, 12.8)"></path><path d="M 0.0 0.0 L 3.0 0.0 " fill="none" stroke="#393E50" stroke-width="3.00" stroke-miterlimit="10.00" stroke-linecap="round" stroke-linejoin="round" transform="matrix(0.36, 0.00, 0.00, 0.36, 1788.4, 26.4)"></path><path d="M 0.0 0.0 L 3.0 0.0 " fill="none" stroke="#393E50" stroke-width="3.00" stroke-miterlimit="10.00" stroke-linecap="round" stroke-linejoin="round" transform="matrix(0.36, 0.00, 0.00, 0.36, 1792.4, 26.4)"></path></g></g></g></g><g><clipPath id="clip-518"><path d="M 1681.9 5.9 L 1779.9 5.9 L 1779.9 38.3 L 1681.9 38.3 Z M 1681.9 5.9 "></path></clipPath><g clip-path="url(#clip-518)"><path d="M 1682.9 37.3 L 1778.9 37.3 L 1778.9 6.9 L 1682.9 6.9 Z M 1682.9 37.3 " fill="#FFDA7B"></path></g></g><g><clipPath id="clip-519"><path d="M 1693.0 10.4 L 1772.0 10.4 L 1772.0 29.0 L 1693.0 29.0 Z M 1693.0 10.4 "></path></clipPath><g clip-path="url(#clip-519)"><text xml:space="preserve" font-family="Helvetica" font-size="44.2" fill="#393E50" transform="matrix(0.35, 0.00, -0.00, -0.36, 1693.4, 15.6)">c</text><text xml:space="preserve" font-family="Helvetica" font-size="44.2" fill="#393E50" transform="matrix(0.35, 0.00, -0.00, -0.36, 1701.1, 15.6)">i</text><text xml:space="preserve" font-family="Helvetica" font-size="44.2" fill="#393E50" transform="matrix(0.35, 0.00, -0.00, -0.36, 1704.5, 15.6)">m</text><text xml:space="preserve" font-family="Helvetica" font-size="44.2" fill="#393E50" transform="matrix(0.35, 0.00, -0.00, -0.36, 1717.3, 15.6)">o</text><text xml:space="preserve" font-family="Helvetica" font-size="44.2" fill="#393E50" transform="matrix(0.35, 0.00, -0.00, -0.36, 1725.9, 15.6)">n</text><text xml:space="preserve" font-family="Helvetica" font-size="44.2" fill="#393E50" transform="matrix(0.35, 0.00, -0.00, -0.36, 1734.5, 15.6)">.</text><text xml:space="preserve" font-family="Helvetica" font-size="44.2" fill="#393E50" transform="matrix(0.35, 0.00, -0.00, -0.36, 1738.8, 15.6)">i</text><text xml:space="preserve" font-family="Helvetica" font-size="44.2" fill="#393E50" transform="matrix(0.35, 0.00, -0.00, -0.36, 1742.2, 15.6)">o</text></g></g><g><clipPath id="clip-520"><path d="M 1693.0 29.0 L 1772.0 29.0 L 1772.0 10.0 L 1693.0 10.0 Z M 1693.0 29.0 "></path></clipPath><g clip-path="url(#clip-520)"><g><clipPath id="clip-521"><path d="M 1693.0 10.4 L 1772.0 10.4 L 1772.0 29.0 L 1693.0 29.0 Z M 1693.0 10.4 "></path></clipPath><g clip-path="url(#clip-521)"><path d="M 0.0 0.0 L -221.4 0.0 " fill="none" stroke="#FED97B" stroke-width="5.00" stroke-miterlimit="0.00" stroke-linecap="round" stroke-linejoin="round" transform="matrix(0.35, 0.00, 0.00, 0.36, 1771.1, 10.9)"></path></g></g></g></g><path d="M 400.4 937.3 L 1919.6 937.3 L 1919.6 753.4 L 400.4 753.4 Z M 400.4 937.3 " fill="#FFDA7B"></path><text xml:space="preserve" font-family="Roboto-Light" font-size="84.0" fill="#000000" transform="matrix(1.00, 0.00, -0.00, -1.00, 487.0, 816.0)">Д</text><text xml:space="preserve" font-family="Roboto-Light" font-size="84.0" fill="#000000" transform="matrix(1.00, 0.00, -0.00, -1.00, 547.8, 816.0)">е</text><text xml:space="preserve" font-family="Roboto-Light" font-size="84.0" fill="#000000" transform="matrix(1.00, 0.00, -0.00, -1.00, 591.1, 816.0)">р</text><text xml:space="preserve" font-family="Roboto-Light" font-size="84.0" fill="#000000" transform="matrix(1.00, 0.00, -0.00, -1.00, 637.7, 816.0)">е</text><text xml:space="preserve" font-family="Roboto-Light" font-size="84.0" fill="#000000" transform="matrix(1.00, 0.00, -0.00, -1.00, 681.0, 816.0)">в</text><text xml:space="preserve" font-family="Roboto-Light" font-size="84.0" fill="#000000" transform="matrix(1.00, 0.00, -0.00, -1.00, 728.0, 816.0)">о</text><text xml:space="preserve" font-family="Roboto-Light" font-size="84.0" fill="#000000" transform="matrix(1.00, 0.00, -0.00, -1.00, 775.1, 816.0)"> </text><text xml:space="preserve" font-family="Roboto-Light" font-size="84.0" fill="#000000" transform="matrix(1.00, 0.00, -0.00, -1.00, 795.5, 816.0)">с</text><text xml:space="preserve" font-family="Roboto-Light" font-size="84.0" fill="#000000" transform="matrix(1.00, 0.00, -0.00, -1.00, 838.8, 816.0)">и</text><text xml:space="preserve" font-family="Roboto-Light" font-size="84.0" fill="#000000" transform="matrix(1.00, 0.00, -0.00, -1.00, 886.0, 816.0)">н</text><text xml:space="preserve" font-family="Roboto-Light" font-size="84.0" fill="#000000" transform="matrix(1.00, 0.00, -0.00, -1.00, 933.2, 816.0)">т</text><text xml:space="preserve" font-family="Roboto-Light" font-size="84.0" fill="#000000" transform="matrix(1.00, 0.00, -0.00, -1.00, 972.5, 816.0)">а</text><text xml:space="preserve" font-family="Roboto-Light" font-size="84.0" fill="#000000" transform="matrix(1.00, 0.00, -0.00, -1.00, 1017.4, 816.0)">к</text><text xml:space="preserve" font-family="Roboto-Light" font-size="84.0" fill="#000000" transform="matrix(1.00, 0.00, -0.00, -1.00, 1060.3, 816.0)">с</text><text xml:space="preserve" font-family="Roboto-Light" font-size="84.0" fill="#000000" transform="matrix(1.00, 0.00, -0.00, -1.00, 1103.6, 816.0)">и</text><text xml:space="preserve" font-family="Roboto-Light" font-size="84.0" fill="#000000" transform="matrix(1.00, 0.00, -0.00, -1.00, 1150.8, 816.0)">ч</text><text xml:space="preserve" font-family="Roboto-Light" font-size="84.0" fill="#000000" transform="matrix(1.00, 0.00, -0.00, -1.00, 1195.5, 816.0)">е</text><text xml:space="preserve" font-family="Roboto-Light" font-size="84.0" fill="#000000" transform="matrix(1.00, 0.00, -0.00, -1.00, 1238.9, 816.0)">с</text><text xml:space="preserve" font-family="Roboto-Light" font-size="84.0" fill="#000000" transform="matrix(1.00, 0.00, -0.00, -1.00, 1282.2, 816.0)">к</text><text xml:space="preserve" font-family="Roboto-Light" font-size="84.0" fill="#000000" transform="matrix(1.00, 0.00, -0.00, -1.00, 1324.8, 816.0)">о</text><text xml:space="preserve" font-family="Roboto-Light" font-size="84.0" fill="#000000" transform="matrix(1.00, 0.00, -0.00, -1.00, 1371.9, 816.0)">г</text><text xml:space="preserve" font-family="Roboto-Light" font-size="84.0" fill="#000000" transform="matrix(1.00, 0.00, -0.00, -1.00, 1406.5, 816.0)">о</text><text xml:space="preserve" font-family="Roboto-Light" font-size="84.0" fill="#000000" transform="matrix(1.00, 0.00, -0.00, -1.00, 1453.5, 816.0)"> </text><text xml:space="preserve" font-family="Roboto-Light" font-size="84.0" fill="#000000" transform="matrix(1.00, 0.00, -0.00, -1.00, 1474.0, 816.0)">р</text><text xml:space="preserve" font-family="Roboto-Light" font-size="84.0" fill="#000000" transform="matrix(1.00, 0.00, -0.00, -1.00, 1520.5, 816.0)">а</text><text xml:space="preserve" font-family="Roboto-Light" font-size="84.0" fill="#000000" transform="matrix(1.00, 0.00, -0.00, -1.00, 1565.5, 816.0)">з</text><text xml:space="preserve" font-family="Roboto-Light" font-size="84.0" fill="#000000" transform="matrix(1.00, 0.00, -0.00, -1.00, 1608.1, 816.0)">б</text><text xml:space="preserve" font-family="Roboto-Light" font-size="84.0" fill="#000000" transform="matrix(1.00, 0.00, -0.00, -1.00, 1654.3, 816.0)">о</text><text xml:space="preserve" font-family="Roboto-Light" font-size="84.0" fill="#000000" transform="matrix(1.00, 0.00, -0.00, -1.00, 1701.4, 816.0)">р</text><text xml:space="preserve" font-family="Roboto-Light" font-size="84.0" fill="#000000" transform="matrix(1.00, 0.00, -0.00, -1.00, 1747.9, 816.0)">а</text><g><clipPath id="clip-522"><path d="M 113.0 632.0 L 757.0 632.0 L 757.0 84.0 L 113.0 84.0 Z M 112.7 632.5 "></path></clipPath><g clip-path="url(#clip-522)"><g><clipPath id="clip-523"><path d="M 299.4 91.4 C 304.5 95.8 306.9 99.5 305.3 100.5 C 303.9 101.4 294.3 100.4 284.1 98.2 C 273.9 96.1 254.8 93.7 241.6 92.9 L 217.5 91.5 L 227.3 98.3 C 240.5 107.6 236.6 110.6 216.0 107.3 C 207.1 105.8 193.0 105.0 184.7 105.0 L 169.5 105.0 L 177.9 109.7 C 190.0 117.1 185.9 120.7 167.7 118.7 C 159.4 117.7 143.6 117.7 132.7 118.7 L 112.7 120.4 L 127.7 127.5 C 143.6 135.0 166.6 154.2 164.3 158.0 C 163.5 159.2 155.2 159.5 145.7 158.6 C 135.9 157.7 127.9 158.0 127.1 159.4 C 126.2 160.8 138.6 163.1 156.4 164.9 C 196.5 168.9 209.6 172.7 210.9 180.7 C 211.8 186.1 212.0 186.2 213.6 182.0 C 214.6 179.1 218.3 176.8 222.8 176.3 C 231.0 175.4 268.1 182.2 275.2 186.0 C 279.7 188.3 279.7 188.6 275.3 193.5 C 272.2 197.0 271.8 198.3 274.3 197.7 C 276.2 197.2 278.4 199.6 279.4 203.2 C 280.8 208.8 281.2 209.0 282.8 204.8 C 284.3 200.7 285.2 200.6 288.8 203.5 C 292.5 206.7 292.6 206.4 289.8 201.1 C 283.8 189.8 287.6 187.9 305.2 193.1 L 321.2 197.9 L 296.1 174.4 C 270.7 150.7 267.7 144.9 278.5 140.8 C 289.5 136.6 328.4 153.6 352.9 173.4 L 368.6 186.0 L 366.8 172.5 C 363.7 148.6 363.9 144.6 368.5 141.6 C 372.1 139.3 374.6 140.5 382.5 148.3 C 387.9 153.5 395.0 162.3 398.4 167.8 C 401.8 173.3 405.2 177.8 405.9 177.8 C 406.6 177.9 409.4 173.9 412.1 168.9 C 418.2 157.5 445.4 131.9 456.1 127.5 C 463.6 124.4 464.8 124.6 469.5 129.2 L 474.6 134.4 L 464.4 151.7 C 455.7 166.6 446.3 191.1 446.3 198.9 C 446.3 200.3 451.8 196.2 458.5 189.9 C 479.5 170.2 489.0 166.5 518.3 166.6 C 545.1 166.6 554.9 169.6 554.9 177.7 C 554.9 184.4 550.4 187.1 536.0 189.0 C 521.0 190.9 500.2 200.6 491.8 209.4 C 485.9 215.8 485.9 215.7 512.0 207.0 C 552.2 193.4 592.6 182.5 595.6 184.3 C 597.0 185.3 597.6 187.7 596.9 189.7 C 596.0 191.9 596.5 192.7 598.1 191.7 C 599.6 190.8 601.5 192.7 602.4 196.0 C 604.0 201.7 604.1 201.6 605.5 194.3 C 606.5 189.7 608.4 187.1 610.5 187.5 C 613.2 188.2 613.3 187.6 610.9 184.6 C 607.0 179.9 608.7 178.9 628.6 174.2 C 642.9 170.8 645.0 170.8 647.5 174.2 C 650.1 177.6 650.6 177.6 651.9 174.2 C 652.7 172.0 654.3 170.5 655.3 170.8 C 656.4 171.2 659.6 170.2 662.4 168.6 C 666.6 166.3 696.3 161.8 746.6 156.1 C 752.7 155.4 757.1 154.3 756.5 153.7 C 752.4 149.5 701.5 139.7 677.1 138.3 C 661.2 137.4 647.7 135.7 646.9 134.5 C 644.9 131.2 670.2 120.6 688.9 116.9 L 705.3 113.7 L 695.2 111.4 C 689.7 110.2 657.6 108.9 623.9 108.6 C 590.2 108.3 561.9 107.3 560.9 106.4 C 558.9 104.4 572.5 98.4 591.1 93.1 C 603.5 89.6 601.2 89.5 551.2 90.5 C 522.0 91.2 482.7 93.5 464.0 95.7 C 424.1 100.3 420.2 99.7 428.8 90.3 L 434.9 83.7 L 421.0 85.4 C 413.4 86.3 398.8 89.5 388.7 92.5 L 370.3 97.8 L 345.7 92.4 C 332.2 89.4 314.3 86.3 306.0 85.5 L 290.8 84.0 L 299.4 91.4 M 445.9 145.5 C 431.8 155.3 419.9 172.2 412.4 193.0 C 409.3 201.6 405.8 208.8 404.7 209.0 C 403.5 209.3 401.0 203.3 399.1 195.6 C 397.2 188.0 391.5 175.7 386.4 168.4 C 375.9 152.9 371.9 149.5 375.5 159.0 C 378.6 167.2 378.9 207.4 375.8 209.3 C 374.5 210.1 370.5 206.8 366.8 201.9 C 351.2 181.5 326.5 164.0 300.7 155.1 C 292.8 152.4 286.1 150.1 286.0 150.1 C 285.8 150.1 298.4 162.9 313.8 178.5 C 356.6 221.8 375.5 253.9 381.4 293.6 C 384.9 317.0 381.5 338.1 370.4 362.2 C 365.3 373.2 362.9 381.6 364.0 384.4 C 365.5 388.3 367.0 387.6 375.0 378.8 C 380.2 373.2 387.4 364.7 391.1 359.9 L 397.8 351.0 L 400.8 358.6 C 410.0 382.1 409.6 411.6 399.6 456.0 C 396.5 469.8 394.8 481.2 395.9 481.2 C 400.1 481.2 416.4 451.1 422.4 432.2 C 425.9 421.3 429.4 403.9 430.3 393.6 C 431.1 383.3 432.7 374.4 433.7 373.7 C 434.7 373.1 439.9 380.2 445.3 389.5 C 454.8 405.9 490.4 445.8 495.6 445.8 C 497.0 445.8 499.3 443.3 500.7 440.1 C 502.9 435.3 501.5 432.1 491.0 418.0 C 475.4 397.2 462.9 371.1 456.1 345.7 C 449.8 321.9 448.6 281.9 453.6 261.3 C 463.9 218.7 491.8 186.8 526.5 178.0 C 534.4 175.9 532.6 175.7 515.8 176.3 C 489.6 177.3 475.3 184.4 454.3 206.9 C 436.2 226.3 434.9 225.6 436.7 196.9 C 437.7 181.5 439.7 174.7 448.3 157.9 C 453.9 146.7 458.3 137.5 458.0 137.5 C 457.7 137.5 452.2 141.1 445.9 145.5 M 290.8 314.1 C 278.3 319.9 265.8 332.9 260.6 345.3 C 252.9 363.9 256.6 391.0 269.2 407.0 C 273.2 412.2 273.7 414.6 271.5 420.1 C 268.1 429.0 268.2 455.2 271.8 464.8 C 273.4 468.9 277.5 476.4 280.9 481.4 L 287.1 490.5 L 281.5 502.9 C 277.0 512.8 275.8 520.0 275.7 538.2 C 275.7 559.6 276.3 562.3 285.2 580.3 C 296.1 602.3 306.7 612.8 328.7 623.1 C 365.5 640.3 404.4 633.6 434.9 604.8 L 448.0 592.5 L 453.5 598.4 C 456.6 601.7 465.6 607.6 473.5 611.6 C 486.3 618.1 490.7 618.9 510.8 618.9 C 531.5 618.9 535.1 618.2 550.5 610.6 C 578.9 596.6 595.2 572.3 597.3 540.6 C 598.0 530.9 597.2 518.3 595.6 512.8 C 593.1 503.6 593.3 502.3 598.1 498.9 C 624.8 479.8 633.5 465.7 635.3 438.8 C 636.4 422.0 635.8 419.1 628.3 403.9 C 616.2 379.3 592.5 364.9 564.2 364.9 C 557.3 364.9 550.4 362.5 542.2 357.3 C 525.6 346.6 505.9 342.8 487.5 346.7 C 479.6 348.4 472.1 350.7 470.8 352.0 C 468.1 354.8 485.3 392.6 496.5 408.3 C 511.1 428.9 511.4 429.2 515.6 425.8 C 523.1 419.6 524.4 425.7 518.2 437.4 C 510.4 452.1 510.4 462.0 518.0 477.0 C 521.3 483.5 523.0 489.5 521.8 490.2 C 517.5 492.9 506.9 482.8 500.7 470.2 C 496.6 461.8 489.8 453.6 481.4 447.1 C 474.3 441.6 462.7 429.9 455.7 421.2 C 448.6 412.5 442.2 405.4 441.4 405.4 C 440.5 405.4 438.5 412.5 436.8 421.2 C 433.6 438.4 416.7 474.9 408.6 482.3 C 403.5 486.9 403.5 487.0 413.5 498.3 C 424.5 510.9 431.2 527.7 426.8 532.0 C 425.0 533.8 422.6 532.1 419.0 526.2 C 411.0 513.3 400.9 504.9 384.7 497.5 C 372.2 491.7 367.5 490.9 355.0 492.0 C 346.8 492.8 339.6 492.5 338.9 491.4 C 338.3 490.4 340.6 486.8 344.2 483.5 C 349.6 478.4 353.2 477.0 366.9 477.0 L 383.2 477.0 L 385.9 467.6 C 392.1 444.6 395.7 418.6 395.7 397.4 C 395.7 384.9 394.7 375.0 393.5 375.5 C 388.4 377.4 366.1 404.6 364.6 410.7 C 362.3 420.0 352.7 431.6 349.7 428.6 C 348.1 427.0 348.2 424.3 350.0 421.0 C 356.7 408.5 352.0 391.1 338.6 378.4 C 331.6 371.8 330.5 369.7 333.5 368.5 C 335.7 367.7 340.9 368.8 345.3 370.9 L 353.1 374.9 L 359.1 361.7 C 369.2 339.5 369.2 336.9 359.8 327.3 C 355.2 322.5 346.9 316.6 341.4 314.1 C 328.0 307.9 304.1 308.0 290.8 314.1 "></path></clipPath><g clip-path="url(#clip-523)"><image xlink:href="../../D844F815-1DF9-4C5E-834E-ACA036BFC504/assets/9FD8FB8B63FC1011671F048EB10BC785.png" width="540.00" height="540.00" transform="matrix(1.26, 0.00, -0.00, -1.26, 92.0, 696.0)"></image></g></g></g></g><g><clipPath id="clip-524"><path d="M 1736.5 155.5 L 1634.7 364.1 L 1642.8 368.0 L 1744.6 159.5 Z M 1736.5 155.5 "></path></clipPath><g clip-path="url(#clip-524)"><path d="M 0.0 0.0 L 230.1 0.0 " fill="none" stroke="#383E51" stroke-width="7.00" transform="matrix(-0.44, 0.90, 0.90, 0.44, 1740.1, 158.4)"></path></g></g><g><clipPath id="clip-525"><path d="M 1534.2 159.5 L 1635.9 368.0 L 1644.0 364.1 L 1542.3 155.5 Z M 1534.2 159.5 "></path></clipPath><g clip-path="url(#clip-525)"><path d="M 0.0 0.0 L 230.1 0.0 " fill="none" stroke="#383E51" stroke-width="7.00" transform="matrix(0.44, 0.90, 0.90, -0.44, 1538.7, 158.4)"></path></g></g><g><clipPath id="clip-526"><path d="M 1329.6 155.5 L 1227.9 364.1 L 1236.0 368.0 L 1337.7 159.5 Z M 1329.6 155.5 "></path></clipPath><g clip-path="url(#clip-526)"><path d="M 0.0 0.0 L 230.1 0.0 " fill="none" stroke="#383E51" stroke-width="7.00" transform="matrix(-0.44, 0.90, 0.90, 0.44, 1333.2, 158.4)"></path></g></g><g><clipPath id="clip-527"><path d="M 1127.3 159.5 L 1229.0 368.0 L 1237.1 364.1 L 1135.4 155.5 Z M 1127.3 159.5 "></path></clipPath><g clip-path="url(#clip-527)"><path d="M 0.0 0.0 L 230.1 0.0 " fill="none" stroke="#383E51" stroke-width="7.00" transform="matrix(0.44, 0.90, 0.90, -0.44, 1131.8, 158.4)"></path></g></g><g><clipPath id="clip-528"><path d="M 1230.6 364.1 L 1430.0 563.4 L 1436.3 557.0 L 1237.0 357.7 Z M 1230.6 364.1 "></path></clipPath><g clip-path="url(#clip-528)"><path d="M 0.0 0.0 L 279.9 0.0 " fill="none" stroke="#383E51" stroke-width="7.00" transform="matrix(0.71, 0.71, 0.71, -0.71, 1234.5, 361.6)"></path></g></g><g><clipPath id="clip-529"><path d="M 1640.4 349.3 L 1445.0 544.7 L 1451.3 551.1 L 1646.7 355.7 Z M 1640.4 349.3 "></path></clipPath><g clip-path="url(#clip-529)"><path d="M 0.0 0.0 L 274.3 0.0 " fill="none" stroke="#383E51" stroke-width="7.00" transform="matrix(-0.71, 0.71, 0.71, 0.71, 1642.8, 353.2)"></path></g></g><g><clipPath id="clip-530"><path d="M 1380.2 504.4 L 1488.7 504.4 L 1488.7 612.8 L 1380.2 612.8 Z M 1380.2 504.4 "></path></clipPath><g clip-path="url(#clip-530)"><path d="M 1384.7 608.3 L 1484.2 608.3 L 1484.2 508.9 L 1384.7 508.9 Z M 1384.7 608.3 " fill="#FFDA7B"></path><path d="M 0.0 0.0 L 99.4 0.0 L 99.4 99.4 L 0.0 99.4 Z M 0.0 0.0 " fill="none" stroke="#383E51" stroke-width="7.00" transform="matrix(1.00, 0.00, 0.00, -1.00, 1384.7, 608.3)"></path></g></g><g><clipPath id="clip-531"><path d="M 1395.3 482.5 L 1473.6 482.5 L 1473.6 606.8 L 1395.3 606.8 Z M 1395.3 482.5 "></path></clipPath><g clip-path="url(#clip-531)"><text xml:space="preserve" font-family="Roboto-Light" font-size="60.0" fill="#383E51" transform="matrix(1.00, 0.00, -0.00, -1.00, 1422.0, 523.0)">*</text></g></g><g><clipPath id="clip-532"><path d="M 1178.3 308.2 L 1286.7 308.2 L 1286.7 416.6 L 1178.3 416.6 Z M 1178.3 308.2 "></path></clipPath><g clip-path="url(#clip-532)"><path d="M 1182.8 412.1 L 1282.2 412.1 L 1282.2 312.7 L 1182.8 312.7 Z M 1182.8 412.1 " fill="#FFDA7B"></path><path d="M 0.0 0.0 L 99.4 0.0 L 99.4 99.4 L 0.0 99.4 Z M 0.0 0.0 " fill="none" stroke="#383E51" stroke-width="7.00" transform="matrix(1.00, 0.00, 0.00, -1.00, 1182.8, 412.1)"></path></g></g><g><clipPath id="clip-533"><path d="M 1186.4 300.3 L 1278.6 300.3 L 1278.6 424.6 L 1186.4 424.6 Z M 1186.4 300.3 "></path></clipPath><g clip-path="url(#clip-533)"><text xml:space="preserve" font-family="Roboto-Light" font-size="60.0" fill="#383E51" transform="matrix(1.00, 0.00, -0.00, -1.00, 1216.0, 341.0)">+</text></g></g><g><clipPath id="clip-534"><path d="M 1582.1 308.2 L 1690.6 308.2 L 1690.6 416.6 L 1582.1 416.6 Z M 1582.1 308.2 "></path></clipPath><g clip-path="url(#clip-534)"><path d="M 1586.6 412.1 L 1686.1 412.1 L 1686.1 312.7 L 1586.6 312.7 Z M 1586.6 412.1 " fill="#FFDA7B"></path><path d="M 0.0 0.0 L 99.4 0.0 L 99.4 99.4 L 0.0 99.4 Z M 0.0 0.0 " fill="none" stroke="#383E51" stroke-width="7.00" transform="matrix(1.00, 0.00, 0.00, -1.00, 1586.6, 412.1)"></path></g></g><g><clipPath id="clip-535"><path d="M 1585.9 300.3 L 1686.8 300.3 L 1686.8 424.6 L 1585.9 424.6 Z M 1585.9 300.3 "></path></clipPath><g clip-path="url(#clip-535)"><text xml:space="preserve" font-family="Roboto-Light" font-size="60.0" fill="#383E51" transform="matrix(1.00, 0.00, -0.00, -1.00, 1617.0, 341.0)">–</text></g></g><g><clipPath id="clip-536"><path d="M 1077.3 103.4 L 1185.8 103.4 L 1185.8 211.8 L 1077.3 211.8 Z M 1077.3 103.4 "></path></clipPath><g clip-path="url(#clip-536)"><path d="M 1081.8 207.3 L 1181.3 207.3 L 1181.3 107.9 L 1081.8 107.9 Z M 1081.8 207.3 " fill="#FFDA7B"></path><path d="M 0.0 0.0 L 99.4 0.0 L 99.4 99.4 L 0.0 99.4 Z M 0.0 0.0 " fill="none" stroke="#383E51" stroke-width="7.00" transform="matrix(1.00, 0.00, 0.00, -1.00, 1081.8, 207.3)"></path></g></g><g><clipPath id="clip-537"><path d="M 1094.2 103.8 L 1168.9 103.8 L 1168.9 209.9 L 1094.2 209.9 Z M 1094.2 103.8 "></path></clipPath><g clip-path="url(#clip-537)"><text xml:space="preserve" font-family="Roboto-Light" font-size="60.0" fill="#383E51" transform="matrix(1.00, 0.00, -0.00, -1.00, 1115.0, 136.0)">1</text></g></g><g><clipPath id="clip-538"><path d="M 1279.2 103.4 L 1387.7 103.4 L 1387.7 211.8 L 1279.2 211.8 Z M 1279.2 103.4 "></path></clipPath><g clip-path="url(#clip-538)"><path d="M 1283.7 207.3 L 1383.2 207.3 L 1383.2 107.9 L 1283.7 107.9 Z M 1283.7 207.3 " fill="#FFDA7B"></path><path d="M 0.0 0.0 L 99.4 0.0 L 99.4 99.4 L 0.0 99.4 Z M 0.0 0.0 " fill="none" stroke="#383E51" stroke-width="7.00" transform="matrix(1.00, 0.00, 0.00, -1.00, 1283.7, 207.3)"></path></g></g><g><clipPath id="clip-539"><path d="M 1296.1 103.8 L 1370.8 103.8 L 1370.8 209.9 L 1296.1 209.9 Z M 1296.1 103.8 "></path></clipPath><g clip-path="url(#clip-539)"><text xml:space="preserve" font-family="Roboto-Light" font-size="60.0" fill="#383E51" transform="matrix(1.00, 0.00, -0.00, -1.00, 1317.0, 136.0)">2</text></g></g><g><clipPath id="clip-540"><path d="M 1481.2 103.4 L 1589.6 103.4 L 1589.6 211.8 L 1481.2 211.8 Z M 1481.2 103.4 "></path></clipPath><g clip-path="url(#clip-540)"><path d="M 1485.7 207.3 L 1585.1 207.3 L 1585.1 107.9 L 1485.7 107.9 Z M 1485.7 207.3 " fill="#FFDA7B"></path><path d="M 0.0 0.0 L 99.4 0.0 L 99.4 99.4 L 0.0 99.4 Z M 0.0 0.0 " fill="none" stroke="#383E51" stroke-width="7.00" transform="matrix(1.00, 0.00, 0.00, -1.00, 1485.7, 207.3)"></path></g></g><g><clipPath id="clip-541"><path d="M 1498.1 103.8 L 1572.7 103.8 L 1572.7 209.9 L 1498.1 209.9 Z M 1498.1 103.8 "></path></clipPath><g clip-path="url(#clip-541)"><text xml:space="preserve" font-family="Roboto-Light" font-size="60.0" fill="#383E51" transform="matrix(1.00, 0.00, -0.00, -1.00, 1519.0, 136.0)">3</text></g></g><g><clipPath id="clip-542"><path d="M 1683.1 103.4 L 1791.6 103.4 L 1791.6 211.8 L 1683.1 211.8 Z M 1683.1 103.4 "></path></clipPath><g clip-path="url(#clip-542)"><path d="M 1687.6 207.3 L 1787.1 207.3 L 1787.1 107.9 L 1687.6 107.9 Z M 1687.6 207.3 " fill="#FFDA7B"></path><path d="M 0.0 0.0 L 99.4 0.0 L 99.4 99.4 L 0.0 99.4 Z M 0.0 0.0 " fill="none" stroke="#383E51" stroke-width="7.00" transform="matrix(1.00, 0.00, 0.00, -1.00, 1687.6, 207.3)"></path></g></g><g><clipPath id="clip-543"><path d="M 1700.0 103.8 L 1774.7 103.8 L 1774.7 209.9 L 1700.0 209.9 Z M 1700.0 103.8 "></path></clipPath><g clip-path="url(#clip-543)"><text xml:space="preserve" font-family="Roboto-Light" font-size="60.0" fill="#383E51" transform="matrix(1.00, 0.00, -0.00, -1.00, 1721.0, 136.0)">4</text></g></g></g></svg>