<?xml version="1.0" encoding="UTF-8" standalone="no"?><svg xmlns="http://www.w3.org/2000/svg" xmlns:xlink="http://www.w3.org/1999/xlink" clip-rule="evenodd" stroke-miterlimit="4.00" viewBox="0 0 1605 107"><desc>SVG generated by Keynote</desc><defs></defs><g transform="matrix(1.00, 0.00, -0.00, -1.00, 0.0, 107.0)"><text xml:space="preserve" font-family="Roboto-Light" font-size="110.9" fill="#000000" transform="matrix(1.00, 0.00, -0.00, -1.00, -9.0, 25.0)">К</text><text xml:space="preserve" font-family="Roboto-Light" font-size="110.9" fill="#000000" transform="matrix(1.00, 0.00, -0.00, -1.00, 60.3, 25.0)">о</text><text xml:space="preserve" font-family="Roboto-Light" font-size="110.9" fill="#000000" transform="matrix(1.00, 0.00, -0.00, -1.00, 122.4, 25.0)">г</text><text xml:space="preserve" font-family="Roboto-Light" font-size="110.9" fill="#000000" transform="matrix(1.00, 0.00, -0.00, -1.00, 166.2, 25.0)">д</text><text xml:space="preserve" font-family="Roboto-Light" font-size="110.9" fill="#000000" transform="matrix(1.00, 0.00, -0.00, -1.00, 229.8, 25.0)">а</text><text xml:space="preserve" font-family="Roboto-Light" font-size="110.9" fill="#000000" transform="matrix(1.00, 0.00, -0.00, -1.00, 289.1, 25.0)"> </text><text xml:space="preserve" font-family="Roboto-Light" font-size="110.9" fill="#000000" transform="matrix(1.00, 0.00, -0.00, -1.00, 316.1, 25.0)">с</text><text xml:space="preserve" font-family="Roboto-Light" font-size="110.9" fill="#000000" transform="matrix(1.00, 0.00, -0.00, -1.00, 373.3, 25.0)">л</text><text xml:space="preserve" font-family="Roboto-Light" font-size="110.9" fill="#000000" transform="matrix(1.00, 0.00, -0.00, -1.00, 435.7, 25.0)">е</text><text xml:space="preserve" font-family="Roboto-Light" font-size="110.9" fill="#000000" transform="matrix(1.00, 0.00, -0.00, -1.00, 492.9, 25.0)">д</text><text xml:space="preserve" font-family="Roboto-Light" font-size="110.9" fill="#000000" transform="matrix(1.00, 0.00, -0.00, -1.00, 556.5, 25.0)">у</text><text xml:space="preserve" font-family="Roboto-Light" font-size="110.9" fill="#000000" transform="matrix(1.00, 0.00, -0.00, -1.00, 608.5, 25.0)">е</text><text xml:space="preserve" font-family="Roboto-Light" font-size="110.9" fill="#000000" transform="matrix(1.00, 0.00, -0.00, -1.00, 665.1, 25.0)">т</text><text xml:space="preserve" font-family="Roboto-Light" font-size="110.9" fill="#000000" transform="matrix(1.00, 0.00, -0.00, -1.00, 717.8, 25.0)"> </text><text xml:space="preserve" font-family="Roboto-Light" font-size="110.9" fill="#000000" transform="matrix(1.00, 0.00, -0.00, -1.00, 744.8, 25.0)">п</text><text xml:space="preserve" font-family="Roboto-Light" font-size="110.9" fill="#000000" transform="matrix(1.00, 0.00, -0.00, -1.00, 807.1, 25.0)">и</text><text xml:space="preserve" font-family="Roboto-Light" font-size="110.9" fill="#000000" transform="matrix(1.00, 0.00, -0.00, -1.00, 869.4, 25.0)">с</text><text xml:space="preserve" font-family="Roboto-Light" font-size="110.9" fill="#000000" transform="matrix(1.00, 0.00, -0.00, -1.00, 926.6, 25.0)">а</text><text xml:space="preserve" font-family="Roboto-Light" font-size="110.9" fill="#000000" transform="matrix(1.00, 0.00, -0.00, -1.00, 985.1, 25.0)">т</text><text xml:space="preserve" font-family="Roboto-Light" font-size="110.9" fill="#000000" transform="matrix(1.00, 0.00, -0.00, -1.00, 1037.7, 25.0)">ь</text><text xml:space="preserve" font-family="Roboto-Light" font-size="110.9" fill="#000000" transform="matrix(1.00, 0.00, -0.00, -1.00, 1097.1, 25.0)"> </text><text xml:space="preserve" font-family="Roboto-Light" font-size="110.9" fill="#000000" transform="matrix(1.00, 0.00, -0.00, -1.00, 1124.1, 25.0)">с</text><text xml:space="preserve" font-family="Roboto-Light" font-size="110.9" fill="#000000" transform="matrix(1.00, 0.00, -0.00, -1.00, 1181.2, 25.0)">в</text><text xml:space="preserve" font-family="Roboto-Light" font-size="110.9" fill="#000000" transform="matrix(1.00, 0.00, -0.00, -1.00, 1243.2, 25.0)">о</text><text xml:space="preserve" font-family="Roboto-Light" font-size="110.9" fill="#000000" transform="matrix(1.00, 0.00, -0.00, -1.00, 1305.3, 25.0)">й</text><text xml:space="preserve" font-family="Roboto-Light" font-size="110.9" fill="#000000" transform="matrix(1.00, 0.00, -0.00, -1.00, 1367.6, 25.0)"> </text><text xml:space="preserve" font-family="Roboto-Light" font-size="110.9" fill="#000000" transform="matrix(1.00, 0.00, -0.00, -1.00, 1394.6, 25.0)">П</text><text xml:space="preserve" font-family="Roboto-Light" font-size="110.9" fill="#000000" transform="matrix(1.00, 0.00, -0.00, -1.00, 1473.0, 25.0)">С</text><text xml:space="preserve" font-family="Roboto-Light" font-size="110.9" fill="#000000" transform="matrix(1.00, 0.00, -0.00, -1.00, 1545.1, 25.0)">Я</text></g></svg>