<?xml version="1.0" encoding="UTF-8" standalone="no"?><svg xmlns="http://www.w3.org/2000/svg" xmlns:xlink="http://www.w3.org/1999/xlink" clip-rule="evenodd" stroke-miterlimit="4.00" viewBox="0 0 416 41"><desc>SVG generated by Keynote</desc><defs></defs><g transform="matrix(1.00, 0.00, -0.00, -1.00, 0.0, 41.0)"><text xml:space="preserve" font-family="Roboto-Medium" font-size="50.0" fill="#000000" transform="matrix(1.00, 0.00, -0.00, -1.00, 1.0, 11.0)">д</text><text xml:space="preserve" font-family="Roboto-Medium" font-size="50.0" fill="#000000" transform="matrix(1.00, 0.00, -0.00, -1.00, 32.0, 11.0)">л</text><text xml:space="preserve" font-family="Roboto-Medium" font-size="50.0" fill="#000000" transform="matrix(1.00, 0.00, -0.00, -1.00, 60.8, 11.0)">я</text><text xml:space="preserve" font-family="Roboto-Medium" font-size="50.0" fill="#000000" transform="matrix(1.00, 0.00, -0.00, -1.00, 88.5, 11.0)"> </text><text xml:space="preserve" font-family="Roboto-Medium" font-size="50.0" fill="#000000" transform="matrix(1.00, 0.00, -0.00, -1.00, 101.0, 11.0)">в</text><text xml:space="preserve" font-family="Roboto-Medium" font-size="50.0" fill="#000000" transform="matrix(1.00, 0.00, -0.00, -1.00, 129.4, 11.0)">с</text><text xml:space="preserve" font-family="Roboto-Medium" font-size="50.0" fill="#000000" transform="matrix(1.00, 0.00, -0.00, -1.00, 155.6, 11.0)">е</text><text xml:space="preserve" font-family="Roboto-Medium" font-size="50.0" fill="#000000" transform="matrix(1.00, 0.00, -0.00, -1.00, 182.4, 11.0)">х</text><text xml:space="preserve" font-family="Roboto-Medium" font-size="50.0" fill="#000000" transform="matrix(1.00, 0.00, -0.00, -1.00, 207.6, 11.0)"> </text><text xml:space="preserve" font-family="Roboto-Medium" font-size="50.0" fill="#000000" transform="matrix(1.00, 0.00, -0.00, -1.00, 220.0, 11.0)">р</text><text xml:space="preserve" font-family="Roboto-Medium" font-size="50.0" fill="#000000" transform="matrix(1.00, 0.00, -0.00, -1.00, 248.2, 11.0)">е</text><text xml:space="preserve" font-family="Roboto-Medium" font-size="50.0" fill="#000000" transform="matrix(1.00, 0.00, -0.00, -1.00, 275.0, 11.0)">л</text><text xml:space="preserve" font-family="Roboto-Medium" font-size="50.0" fill="#000000" transform="matrix(1.00, 0.00, -0.00, -1.00, 303.8, 11.0)">и</text><text xml:space="preserve" font-family="Roboto-Medium" font-size="50.0" fill="#000000" transform="matrix(1.00, 0.00, -0.00, -1.00, 332.5, 11.0)">з</text><text xml:space="preserve" font-family="Roboto-Medium" font-size="50.0" fill="#000000" transform="matrix(1.00, 0.00, -0.00, -1.00, 358.0, 11.0)">о</text><text xml:space="preserve" font-family="Roboto-Medium" font-size="50.0" fill="#000000" transform="matrix(1.00, 0.00, -0.00, -1.00, 386.5, 11.0)">в</text></g></svg>