<?xml version="1.0" encoding="UTF-8" standalone="no"?><svg xmlns="http://www.w3.org/2000/svg" xmlns:xlink="http://www.w3.org/1999/xlink" clip-rule="evenodd" stroke-miterlimit="4.00" viewBox="0 0 1920 1080"><desc>SVG generated by Keynote</desc><defs></defs><g transform="matrix(1.00, 0.00, -0.00, -1.00, 0.0, 1080.0)"><path d="M 0.0 1080.0 L 1920.0 1080.0 L 1920.0 0.0 L 0.0 0.0 Z M 0.0 1080.0 " fill="#FECF60"></path><path d="M 164.5 655.9 L 1071.8 655.9 L 1071.8 552.8 L 164.5 552.8 Z M 164.5 655.9 " fill="#FEDF73"></path><path d="M 254.4 514.6 L 1215.8 514.6 L 1215.8 411.5 L 254.4 411.5 Z M 254.4 514.6 " fill="#FEDF73"></path><path d="M 220.8 361.2 L 1015.5 361.2 L 1015.5 258.1 L 220.8 258.1 Z M 220.8 361.2 " fill="#FEDF73"></path><g><clipPath id="clip-765"><path d="M 608.9 780.8 L 1653.2 780.8 L 1653.2 957.6 L 608.9 957.6 Z M 608.9 780.8 "></path></clipPath><g clip-path="url(#clip-765)"><path d="M 609.9 956.6 L 1652.2 956.6 L 1652.2 781.8 L 609.9 781.8 Z M 609.9 956.6 " fill="#FEDF73"></path></g></g><g><clipPath id="clip-766"><path d="M 676.5 781.4 L 1585.6 781.4 L 1585.6 957.0 L 676.5 957.0 Z M 676.5 781.4 "></path></clipPath><g clip-path="url(#clip-766)"><text xml:space="preserve" font-family="Roboto-Light" font-size="100.0" fill="#000000" transform="matrix(1.00, 0.00, -0.00, -1.00, 706.0, 835.0)">T</text><text xml:space="preserve" font-family="Roboto-Light" font-size="100.0" fill="#000000" transform="matrix(1.00, 0.00, -0.00, -1.00, 765.7, 835.0)">h</text><text xml:space="preserve" font-family="Roboto-Light" font-size="100.0" fill="#000000" transform="matrix(1.00, 0.00, -0.00, -1.00, 820.6, 835.0)">e</text><text xml:space="preserve" font-family="Roboto-Light" font-size="100.0" fill="#000000" transform="matrix(1.00, 0.00, -0.00, -1.00, 872.2, 835.0)"> </text><text xml:space="preserve" font-family="Roboto-Light" font-size="100.0" fill="#000000" transform="matrix(1.00, 0.00, -0.00, -1.00, 894.6, 835.0)">T</text><text xml:space="preserve" font-family="Roboto-Light" font-size="100.0" fill="#000000" transform="matrix(1.00, 0.00, -0.00, -1.00, 951.5, 835.0)">w</text><text xml:space="preserve" font-family="Roboto-Light" font-size="100.0" fill="#000000" transform="matrix(1.00, 0.00, -0.00, -1.00, 1026.9, 835.0)">e</text><text xml:space="preserve" font-family="Roboto-Light" font-size="100.0" fill="#000000" transform="matrix(1.00, 0.00, -0.00, -1.00, 1078.5, 835.0)">l</text><text xml:space="preserve" font-family="Roboto-Light" font-size="100.0" fill="#000000" transform="matrix(1.00, 0.00, -0.00, -1.00, 1100.9, 835.0)">v</text><text xml:space="preserve" font-family="Roboto-Light" font-size="100.0" fill="#000000" transform="matrix(1.00, 0.00, -0.00, -1.00, 1148.3, 835.0)">e</text><text xml:space="preserve" font-family="Roboto-Light" font-size="100.0" fill="#000000" transform="matrix(1.00, 0.00, -0.00, -1.00, 1199.9, 835.0)"> </text><text xml:space="preserve" font-family="Roboto-Light" font-size="100.0" fill="#000000" transform="matrix(1.00, 0.00, -0.00, -1.00, 1224.2, 835.0)">F</text><text xml:space="preserve" font-family="Roboto-Light" font-size="100.0" fill="#000000" transform="matrix(1.00, 0.00, -0.00, -1.00, 1278.8, 835.0)">a</text><text xml:space="preserve" font-family="Roboto-Light" font-size="100.0" fill="#000000" transform="matrix(1.00, 0.00, -0.00, -1.00, 1332.3, 835.0)">c</text><text xml:space="preserve" font-family="Roboto-Light" font-size="100.0" fill="#000000" transform="matrix(1.00, 0.00, -0.00, -1.00, 1383.8, 835.0)">t</text><text xml:space="preserve" font-family="Roboto-Light" font-size="100.0" fill="#000000" transform="matrix(1.00, 0.00, -0.00, -1.00, 1415.0, 835.0)">o</text><text xml:space="preserve" font-family="Roboto-Light" font-size="100.0" fill="#000000" transform="matrix(1.00, 0.00, -0.00, -1.00, 1471.0, 835.0)">r</text><text xml:space="preserve" font-family="Roboto-Light" font-size="100.0" fill="#000000" transform="matrix(1.00, 0.00, -0.00, -1.00, 1504.7, 835.0)">s</text></g></g><text xml:space="preserve" font-family="Roboto-Light" font-size="60.0" fill="#000000" transform="matrix(1.00, 0.00, -0.00, -1.00, 282.0, 583.0)">C</text><text xml:space="preserve" font-family="Roboto-Light" font-size="60.0" fill="#000000" transform="matrix(1.00, 0.00, -0.00, -1.00, 321.0, 583.0)">o</text><text xml:space="preserve" font-family="Roboto-Light" font-size="60.0" fill="#000000" transform="matrix(1.00, 0.00, -0.00, -1.00, 354.6, 583.0)">n</text><text xml:space="preserve" font-family="Roboto-Light" font-size="60.0" fill="#000000" transform="matrix(1.00, 0.00, -0.00, -1.00, 387.6, 583.0)">ï¬</text><text xml:space="preserve" font-family="Roboto-Light" font-size="60.0" fill="#000000" transform="matrix(1.00, 0.00, -0.00, -1.00, 419.8, 583.0)">g</text><text xml:space="preserve" font-family="Roboto-Light" font-size="60.0" fill="#000000" transform="matrix(1.00, 0.00, -0.00, -1.00, 453.0, 583.0)"> </text><text xml:space="preserve" font-family="Roboto-Light" font-size="60.0" fill="#000000" transform="matrix(1.00, 0.00, -0.00, -1.00, 467.6, 583.0)">i</text><text xml:space="preserve" font-family="Roboto-Light" font-size="60.0" fill="#000000" transform="matrix(1.00, 0.00, -0.00, -1.00, 481.1, 583.0)">n</text><text xml:space="preserve" font-family="Roboto-Light" font-size="60.0" fill="#000000" transform="matrix(1.00, 0.00, -0.00, -1.00, 514.1, 583.0)"> </text><text xml:space="preserve" font-family="Roboto-Light" font-size="60.0" fill="#000000" transform="matrix(1.00, 0.00, -0.00, -1.00, 528.7, 583.0)">t</text><text xml:space="preserve" font-family="Roboto-Light" font-size="60.0" fill="#000000" transform="matrix(1.00, 0.00, -0.00, -1.00, 548.0, 583.0)">h</text><text xml:space="preserve" font-family="Roboto-Light" font-size="60.0" fill="#000000" transform="matrix(1.00, 0.00, -0.00, -1.00, 580.9, 583.0)">e</text><text xml:space="preserve" font-family="Roboto-Light" font-size="60.0" fill="#000000" transform="matrix(1.00, 0.00, -0.00, -1.00, 611.9, 583.0)"> </text><text xml:space="preserve" font-family="Roboto-Light" font-size="60.0" fill="#000000" transform="matrix(1.00, 0.00, -0.00, -1.00, 626.5, 583.0)">e</text><text xml:space="preserve" font-family="Roboto-Light" font-size="60.0" fill="#000000" transform="matrix(1.00, 0.00, -0.00, -1.00, 657.4, 583.0)">n</text><text xml:space="preserve" font-family="Roboto-Light" font-size="60.0" fill="#000000" transform="matrix(1.00, 0.00, -0.00, -1.00, 690.4, 583.0)">v</text><text xml:space="preserve" font-family="Roboto-Light" font-size="60.0" fill="#000000" transform="matrix(1.00, 0.00, -0.00, -1.00, 719.3, 583.0)">i</text><text xml:space="preserve" font-family="Roboto-Light" font-size="60.0" fill="#000000" transform="matrix(1.00, 0.00, -0.00, -1.00, 732.7, 583.0)">r</text><text xml:space="preserve" font-family="Roboto-Light" font-size="60.0" fill="#000000" transform="matrix(1.00, 0.00, -0.00, -1.00, 752.4, 583.0)">o</text><text xml:space="preserve" font-family="Roboto-Light" font-size="60.0" fill="#000000" transform="matrix(1.00, 0.00, -0.00, -1.00, 786.0, 583.0)">n</text><text xml:space="preserve" font-family="Roboto-Light" font-size="60.0" fill="#000000" transform="matrix(1.00, 0.00, -0.00, -1.00, 818.9, 583.0)">m</text><text xml:space="preserve" font-family="Roboto-Light" font-size="60.0" fill="#000000" transform="matrix(1.00, 0.00, -0.00, -1.00, 872.1, 583.0)">e</text><text xml:space="preserve" font-family="Roboto-Light" font-size="60.0" fill="#000000" transform="matrix(1.00, 0.00, -0.00, -1.00, 903.1, 583.0)">n</text><text xml:space="preserve" font-family="Roboto-Light" font-size="60.0" fill="#000000" transform="matrix(1.00, 0.00, -0.00, -1.00, 936.1, 583.0)">t</text><text xml:space="preserve" font-family="Roboto-Light" font-size="60.0" fill="#000000" transform="matrix(1.00, 0.00, -0.00, -1.00, 328.0, 289.0)">S</text><text xml:space="preserve" font-family="Roboto-Light" font-size="60.0" fill="#000000" transform="matrix(1.00, 0.00, -0.00, -1.00, 363.6, 289.0)">t</text><text xml:space="preserve" font-family="Roboto-Light" font-size="60.0" fill="#000000" transform="matrix(1.00, 0.00, -0.00, -1.00, 382.9, 289.0)">a</text><text xml:space="preserve" font-family="Roboto-Light" font-size="60.0" fill="#000000" transform="matrix(1.00, 0.00, -0.00, -1.00, 414.9, 289.0)">t</text><text xml:space="preserve" font-family="Roboto-Light" font-size="60.0" fill="#000000" transform="matrix(1.00, 0.00, -0.00, -1.00, 434.2, 289.0)">e</text><text xml:space="preserve" font-family="Roboto-Light" font-size="60.0" fill="#000000" transform="matrix(1.00, 0.00, -0.00, -1.00, 465.2, 289.0)">l</text><text xml:space="preserve" font-family="Roboto-Light" font-size="60.0" fill="#000000" transform="matrix(1.00, 0.00, -0.00, -1.00, 478.7, 289.0)">e</text><text xml:space="preserve" font-family="Roboto-Light" font-size="60.0" fill="#000000" transform="matrix(1.00, 0.00, -0.00, -1.00, 509.6, 289.0)">s</text><text xml:space="preserve" font-family="Roboto-Light" font-size="60.0" fill="#000000" transform="matrix(1.00, 0.00, -0.00, -1.00, 540.0, 289.0)">s</text><text xml:space="preserve" font-family="Roboto-Light" font-size="60.0" fill="#000000" transform="matrix(1.00, 0.00, -0.00, -1.00, 570.4, 289.0)"> </text><text xml:space="preserve" font-family="Roboto-Light" font-size="60.0" fill="#000000" transform="matrix(1.00, 0.00, -0.00, -1.00, 585.0, 289.0)">p</text><text xml:space="preserve" font-family="Roboto-Light" font-size="60.0" fill="#000000" transform="matrix(1.00, 0.00, -0.00, -1.00, 618.3, 289.0)">r</text><text xml:space="preserve" font-family="Roboto-Light" font-size="60.0" fill="#000000" transform="matrix(1.00, 0.00, -0.00, -1.00, 637.9, 289.0)">o</text><text xml:space="preserve" font-family="Roboto-Light" font-size="60.0" fill="#000000" transform="matrix(1.00, 0.00, -0.00, -1.00, 671.5, 289.0)">c</text><text xml:space="preserve" font-family="Roboto-Light" font-size="60.0" fill="#000000" transform="matrix(1.00, 0.00, -0.00, -1.00, 702.4, 289.0)">e</text><text xml:space="preserve" font-family="Roboto-Light" font-size="60.0" fill="#000000" transform="matrix(1.00, 0.00, -0.00, -1.00, 733.4, 289.0)">s</text><text xml:space="preserve" font-family="Roboto-Light" font-size="60.0" fill="#000000" transform="matrix(1.00, 0.00, -0.00, -1.00, 763.8, 289.0)">s</text><text xml:space="preserve" font-family="Roboto-Light" font-size="60.0" fill="#000000" transform="matrix(1.00, 0.00, -0.00, -1.00, 794.2, 289.0)">e</text><text xml:space="preserve" font-family="Roboto-Light" font-size="60.0" fill="#000000" transform="matrix(1.00, 0.00, -0.00, -1.00, 825.2, 289.0)">s</text><text xml:space="preserve" font-family="Roboto-Light" font-size="60.0" fill="#000000" transform="matrix(1.00, 0.00, -0.00, -1.00, 325.0, 442.0)">D</text><text xml:space="preserve" font-family="Roboto-Light" font-size="60.0" fill="#000000" transform="matrix(1.00, 0.00, -0.00, -1.00, 364.3, 442.0)">e</text><text xml:space="preserve" font-family="Roboto-Light" font-size="60.0" fill="#000000" transform="matrix(1.00, 0.00, -0.00, -1.00, 394.9, 442.0)">v</text><text xml:space="preserve" font-family="Roboto-Light" font-size="60.0" fill="#000000" transform="matrix(1.00, 0.00, -0.00, -1.00, 423.7, 442.0)">/</text><text xml:space="preserve" font-family="Roboto-Light" font-size="60.0" fill="#000000" transform="matrix(1.00, 0.00, -0.00, -1.00, 447.5, 442.0)">p</text><text xml:space="preserve" font-family="Roboto-Light" font-size="60.0" fill="#000000" transform="matrix(1.00, 0.00, -0.00, -1.00, 480.8, 442.0)">r</text><text xml:space="preserve" font-family="Roboto-Light" font-size="60.0" fill="#000000" transform="matrix(1.00, 0.00, -0.00, -1.00, 500.4, 442.0)">o</text><text xml:space="preserve" font-family="Roboto-Light" font-size="60.0" fill="#000000" transform="matrix(1.00, 0.00, -0.00, -1.00, 534.0, 442.0)">d</text><text xml:space="preserve" font-family="Roboto-Light" font-size="60.0" fill="#000000" transform="matrix(1.00, 0.00, -0.00, -1.00, 567.4, 442.0)"> </text><text xml:space="preserve" font-family="Roboto-Light" font-size="60.0" fill="#000000" transform="matrix(1.00, 0.00, -0.00, -1.00, 582.0, 442.0)">a</text><text xml:space="preserve" font-family="Roboto-Light" font-size="60.0" fill="#000000" transform="matrix(1.00, 0.00, -0.00, -1.00, 614.1, 442.0)">s</text><text xml:space="preserve" font-family="Roboto-Light" font-size="60.0" fill="#000000" transform="matrix(1.00, 0.00, -0.00, -1.00, 644.5, 442.0)"> </text><text xml:space="preserve" font-family="Roboto-Light" font-size="60.0" fill="#000000" transform="matrix(1.00, 0.00, -0.00, -1.00, 659.1, 442.0)">s</text><text xml:space="preserve" font-family="Roboto-Light" font-size="60.0" fill="#000000" transform="matrix(1.00, 0.00, -0.00, -1.00, 689.5, 442.0)">i</text><text xml:space="preserve" font-family="Roboto-Light" font-size="60.0" fill="#000000" transform="matrix(1.00, 0.00, -0.00, -1.00, 703.0, 442.0)">m</text><text xml:space="preserve" font-family="Roboto-Light" font-size="60.0" fill="#000000" transform="matrix(1.00, 0.00, -0.00, -1.00, 756.2, 442.0)">i</text><text xml:space="preserve" font-family="Roboto-Light" font-size="60.0" fill="#000000" transform="matrix(1.00, 0.00, -0.00, -1.00, 769.7, 442.0)">l</text><text xml:space="preserve" font-family="Roboto-Light" font-size="60.0" fill="#000000" transform="matrix(1.00, 0.00, -0.00, -1.00, 783.2, 442.0)">a</text><text xml:space="preserve" font-family="Roboto-Light" font-size="60.0" fill="#000000" transform="matrix(1.00, 0.00, -0.00, -1.00, 815.3, 442.0)">r</text><text xml:space="preserve" font-family="Roboto-Light" font-size="60.0" fill="#000000" transform="matrix(1.00, 0.00, -0.00, -1.00, 835.5, 442.0)"> </text><text xml:space="preserve" font-family="Roboto-Light" font-size="60.0" fill="#000000" transform="matrix(1.00, 0.00, -0.00, -1.00, 850.2, 442.0)">a</text><text xml:space="preserve" font-family="Roboto-Light" font-size="60.0" fill="#000000" transform="matrix(1.00, 0.00, -0.00, -1.00, 882.3, 442.0)">s</text><text xml:space="preserve" font-family="Roboto-Light" font-size="60.0" fill="#000000" transform="matrix(1.00, 0.00, -0.00, -1.00, 912.7, 442.0)"> </text><text xml:space="preserve" font-family="Roboto-Light" font-size="60.0" fill="#000000" transform="matrix(1.00, 0.00, -0.00, -1.00, 927.3, 442.0)">p</text><text xml:space="preserve" font-family="Roboto-Light" font-size="60.0" fill="#000000" transform="matrix(1.00, 0.00, -0.00, -1.00, 960.6, 442.0)">o</text><text xml:space="preserve" font-family="Roboto-Light" font-size="60.0" fill="#000000" transform="matrix(1.00, 0.00, -0.00, -1.00, 994.2, 442.0)">s</text><text xml:space="preserve" font-family="Roboto-Light" font-size="60.0" fill="#000000" transform="matrix(1.00, 0.00, -0.00, -1.00, 1024.7, 442.0)">s</text><text xml:space="preserve" font-family="Roboto-Light" font-size="60.0" fill="#000000" transform="matrix(1.00, 0.00, -0.00, -1.00, 1055.1, 442.0)">i</text><text xml:space="preserve" font-family="Roboto-Light" font-size="60.0" fill="#000000" transform="matrix(1.00, 0.00, -0.00, -1.00, 1068.6, 442.0)">b</text><text xml:space="preserve" font-family="Roboto-Light" font-size="60.0" fill="#000000" transform="matrix(1.00, 0.00, -0.00, -1.00, 1101.8, 442.0)">l</text><text xml:space="preserve" font-family="Roboto-Light" font-size="60.0" fill="#000000" transform="matrix(1.00, 0.00, -0.00, -1.00, 1115.3, 442.0)">e</text><path d="M 267.0 207.9 L 940.5 207.9 L 940.5 104.8 L 267.0 104.8 Z M 267.0 207.9 " fill="#FEDF73"></path><text xml:space="preserve" font-family="Roboto-Light" font-size="60.0" fill="#000000" transform="matrix(1.00, 0.00, -0.00, -1.00, 329.0, 135.0)">A</text><text xml:space="preserve" font-family="Roboto-Light" font-size="60.0" fill="#000000" transform="matrix(1.00, 0.00, -0.00, -1.00, 366.4, 135.0)">d</text><text xml:space="preserve" font-family="Roboto-Light" font-size="60.0" fill="#000000" transform="matrix(1.00, 0.00, -0.00, -1.00, 399.8, 135.0)">m</text><text xml:space="preserve" font-family="Roboto-Light" font-size="60.0" fill="#000000" transform="matrix(1.00, 0.00, -0.00, -1.00, 453.0, 135.0)">i</text><text xml:space="preserve" font-family="Roboto-Light" font-size="60.0" fill="#000000" transform="matrix(1.00, 0.00, -0.00, -1.00, 466.4, 135.0)">n</text><text xml:space="preserve" font-family="Roboto-Light" font-size="60.0" fill="#000000" transform="matrix(1.00, 0.00, -0.00, -1.00, 499.4, 135.0)"> </text><text xml:space="preserve" font-family="Roboto-Light" font-size="60.0" fill="#000000" transform="matrix(1.00, 0.00, -0.00, -1.00, 514.0, 135.0)">p</text><text xml:space="preserve" font-family="Roboto-Light" font-size="60.0" fill="#000000" transform="matrix(1.00, 0.00, -0.00, -1.00, 547.3, 135.0)">r</text><text xml:space="preserve" font-family="Roboto-Light" font-size="60.0" fill="#000000" transform="matrix(1.00, 0.00, -0.00, -1.00, 566.9, 135.0)">o</text><text xml:space="preserve" font-family="Roboto-Light" font-size="60.0" fill="#000000" transform="matrix(1.00, 0.00, -0.00, -1.00, 600.6, 135.0)">c</text><text xml:space="preserve" font-family="Roboto-Light" font-size="60.0" fill="#000000" transform="matrix(1.00, 0.00, -0.00, -1.00, 631.5, 135.0)">e</text><text xml:space="preserve" font-family="Roboto-Light" font-size="60.0" fill="#000000" transform="matrix(1.00, 0.00, -0.00, -1.00, 662.5, 135.0)">s</text><text xml:space="preserve" font-family="Roboto-Light" font-size="60.0" fill="#000000" transform="matrix(1.00, 0.00, -0.00, -1.00, 692.9, 135.0)">s</text><text xml:space="preserve" font-family="Roboto-Light" font-size="60.0" fill="#000000" transform="matrix(1.00, 0.00, -0.00, -1.00, 723.3, 135.0)">e</text><text xml:space="preserve" font-family="Roboto-Light" font-size="60.0" fill="#000000" transform="matrix(1.00, 0.00, -0.00, -1.00, 754.3, 135.0)">s</text><g><clipPath id="clip-767"><path d="M 1333.0 84.0 L 1797.0 84.0 L 1797.0 568.0 L 1333.0 568.0 Z M 1333.0 84.0 "></path></clipPath><g clip-path="url(#clip-767)"><path d="M 8.1 21.3 L 8.1 4.0 C 8.1 1.8 6.3 0.0 4.0 0.0 L 4.0 0.0 C 1.8 0.0 0.0 1.8 0.0 4.0 L 0.0 21.3 " fill="none" stroke="#575E61" stroke-width="3.00" stroke-miterlimit="0.00" transform="matrix(-1.54, -0.56, 0.56, -1.54, 1666.5, 258.2)"></path><path d="M 8.1 21.3 L 8.1 4.0 C 8.1 1.8 6.3 0.0 4.0 0.0 L 4.0 0.0 C 1.8 0.0 0.0 1.8 0.0 4.0 L 0.0 21.3 " fill="none" stroke="#575E61" stroke-width="3.00" stroke-miterlimit="0.00" transform="matrix(-1.54, -0.56, 0.56, -1.54, 1678.9, 262.7)"></path><path d="M 12.5 11.3 L 5.8 14.5 C 3.8 15.5 1.4 14.6 0.4 12.6 C -0.6 10.6 0.3 8.2 2.3 7.2 L 12.5 2.3 L 12.5 0.0 L 49.0 0.0 L 49.0 21.3 L 40.9 21.3 L 30.6 21.3 L 30.6 46.2 C 30.6 48.4 28.8 50.3 26.5 50.3 C 24.3 50.3 22.5 48.4 22.5 46.2 L 22.5 21.3 L 20.6 21.3 L 20.6 44.2 C 20.6 46.4 18.8 48.3 16.6 48.3 C 14.3 48.3 12.5 46.4 12.5 44.2 L 12.5 21.3 L 12.5 11.3 L 12.5 11.3 Z M 12.5 11.3 " fill="none" stroke="#575E61" stroke-width="3.00" stroke-miterlimit="0.00" transform="matrix(-1.54, -0.56, 0.56, -1.54, 1729.3, 281.1)"></path><path d="M 0.0 0.0 L 30.7 0.0 L 30.7 5.9 L 0.0 5.9 L 0.0 0.0 Z M 0.0 0.0 " fill="none" stroke="#575E61" stroke-width="3.00" stroke-miterlimit="0.00" transform="matrix(-1.54, -0.56, 0.56, -1.54, 1702.4, 281.5)"></path><path d="M 0.0 0.0 L 18.2 0.0 " fill="none" stroke="#575E61" stroke-width="3.00" stroke-miterlimit="0.00" transform="matrix(-1.54, -0.56, 0.56, -1.54, 1716.4, 256.7)"></path><path d="M 120.6 0.0 L 120.6 70.8 L 0.0 70.8 L 0.0 0.0 " fill="none" stroke="#575E61" stroke-width="3.00" stroke-miterlimit="0.00" transform="matrix(1.63, 0.00, 0.00, -1.64, 1442.6, 332.4)"></path><path d="M 43.6 0.0 C 47.7 4.5 50.2 10.4 50.2 16.9 C 50.2 30.7 38.9 42.0 25.1 42.0 C 11.3 42.0 0.0 30.7 0.0 16.9 C 0.0 10.4 2.5 4.5 6.5 0.0 " fill="none" stroke="#575E61" stroke-width="1.00" stroke-miterlimit="0.00" transform="matrix(1.63, 0.00, 0.00, -1.64, 1500.1, 332.4)"></path><path d="M 52.8 0.0 C 56.2 4.8 58.2 10.6 58.2 16.9 C 58.2 33.0 45.2 46.0 29.1 46.0 C 13.0 46.0 0.0 33.0 0.0 16.9 C 0.0 10.6 2.0 4.8 5.4 0.0 " fill="none" stroke="#575E61" stroke-width="3.00" stroke-miterlimit="0.00" transform="matrix(1.63, 0.00, 0.00, -1.64, 1493.6, 332.4)"></path><path d="M 35.7 71.4 C 55.4 71.4 71.4 55.4 71.4 35.7 C 71.4 16.0 55.4 0.0 35.7 0.0 C 16.0 0.0 0.0 16.0 0.0 35.7 C 0.0 55.4 16.0 71.4 35.7 71.4 Z M 35.7 71.4 " fill="none" stroke="#575E61" stroke-width="3.00" stroke-miterlimit="0.00" transform="matrix(1.63, 0.00, 0.00, -1.64, 1547.8, 565.5)"></path><path d="M 29.9 59.7 C 13.4 59.7 0.0 46.3 0.0 29.9 C 0.0 13.4 13.4 0.0 29.9 0.0 C 46.3 0.0 59.7 13.4 59.7 29.9 C 59.7 46.3 46.3 59.7 29.9 59.7 L 29.9 59.7 Z M 29.9 59.7 " fill="none" stroke="#575E61" stroke-width="2.00" stroke-miterlimit="0.00" transform="matrix(1.63, 0.00, 0.00, -1.64, 1557.3, 556.0)"></path><path d="M 24.6 49.3 C 11.1 49.3 0.0 38.2 0.0 24.6 C 0.0 11.1 11.1 0.0 24.6 0.0 C 38.2 0.0 49.3 11.1 49.3 24.6 C 49.3 38.2 38.2 49.3 24.6 49.3 L 24.6 49.3 Z M 24.6 49.3 " fill="none" stroke="#575E61" stroke-width="6.00" stroke-miterlimit="0.00" transform="matrix(1.63, 0.00, 0.00, -1.64, 1565.8, 547.5)"></path><path d="M 20.6 41.3 C 9.3 41.3 0.0 32.0 0.0 20.6 C 0.0 9.3 9.3 0.0 20.6 0.0 C 32.0 0.0 41.3 9.3 41.3 20.6 C 41.3 32.0 32.0 41.3 20.6 41.3 L 20.6 41.3 Z M 20.6 41.3 " fill="none" stroke="#575E61" stroke-width="1.00" stroke-miterlimit="0.00" stroke-dasharray="2.0, 2.0" transform="matrix(1.63, 0.00, 0.00, -1.64, 1572.4, 540.9)"></path><path d="M 25.0 50.0 C 38.8 50.0 50.0 38.8 50.0 25.0 C 50.0 11.2 38.8 0.0 25.0 0.0 C 11.2 0.0 0.0 11.2 0.0 25.0 C 0.0 38.8 11.2 50.0 25.0 50.0 Z M 25.0 50.0 " fill="none" stroke="#575E61" stroke-width="3.00" stroke-miterlimit="0.00" transform="matrix(1.63, 0.00, 0.00, -1.64, 1417.8, 530.5)"></path><path d="M 19.2 38.3 C 8.6 38.3 0.0 29.7 0.0 19.2 C 0.0 8.6 8.6 0.0 19.2 0.0 C 29.7 0.0 38.3 8.6 38.3 19.2 C 38.3 29.7 29.7 38.3 19.2 38.3 L 19.2 38.3 Z M 19.2 38.3 " fill="none" stroke="#575E61" stroke-width="2.00" stroke-miterlimit="0.00" transform="matrix(1.63, 0.00, 0.00, -1.64, 1427.4, 521.0)"></path><path d="M 13.9 27.9 C 6.2 27.9 0.0 21.6 0.0 13.9 C 0.0 6.2 6.2 0.0 13.9 0.0 C 21.6 0.0 27.9 6.2 27.9 13.9 C 27.9 21.6 21.6 27.9 13.9 27.9 L 13.9 27.9 Z M 13.9 27.9 " fill="none" stroke="#575E61" stroke-width="6.00" stroke-miterlimit="0.00" transform="matrix(1.63, 0.00, 0.00, -1.64, 1435.9, 512.5)"></path><path d="M 9.9 19.9 C 4.5 19.9 0.0 15.4 0.0 9.9 C 0.0 4.5 4.5 0.0 9.9 0.0 C 15.4 0.0 19.9 4.5 19.9 9.9 C 19.9 15.4 15.4 19.9 9.9 19.9 L 9.9 19.9 Z M 9.9 19.9 " fill="none" stroke="#575E61" stroke-width="1.00" stroke-miterlimit="0.00" stroke-dasharray="1.9, 1.9" transform="matrix(1.63, 0.00, 0.00, -1.64, 1442.4, 505.9)"></path><path d="M 150.9 0.0 L 150.9 51.2 L 0.0 51.2 L 0.0 10.7 " fill="none" stroke="#575E61" stroke-width="3.00" stroke-miterlimit="0.00" transform="matrix(1.63, 0.00, 0.00, -1.64, 1417.8, 507.2)"></path><path d="M 35.7 0.0 L 20.6 18.6 L 0.0 18.6 " fill="none" stroke="#575E61" stroke-width="3.00" stroke-miterlimit="0.00" transform="matrix(1.63, 0.00, 0.00, -1.64, 1606.1, 423.5)"></path><path d="M 50.0 18.6 L 15.1 18.6 L 0.0 0.0 " fill="none" stroke="#575E61" stroke-width="3.00" stroke-miterlimit="0.00" transform="matrix(1.63, 0.00, 0.00, -1.64, 1417.8, 423.5)"></path><path d="M 0.0 5.4 L 38.9 0.0 " fill="none" stroke="#575E61" stroke-width="3.00" stroke-miterlimit="0.00" transform="matrix(1.63, 0.00, 0.00, -1.64, 1487.7, 527.2)"></path><path d="M 9.1 0.0 L 0.0 0.0 L 0.0 30.4 L 9.1 30.4 " fill="none" stroke="#575E61" stroke-width="3.00" stroke-miterlimit="0.00" transform="matrix(1.63, 0.00, 0.00, -1.64, 1403.0, 489.7)"></path><path d="M 0.0 30.4 L 9.1 30.4 L 9.1 0.0 L 0.0 0.0 " fill="none" stroke="#575E61" stroke-width="3.00" stroke-miterlimit="0.00" transform="matrix(1.63, 0.00, 0.00, -1.64, 1664.4, 489.7)"></path><path d="M 30.8 0.0 L 0.0 0.0 " fill="none" stroke="#575E61" stroke-width="3.00" stroke-miterlimit="0.00" transform="matrix(1.63, 0.00, 0.00, -1.64, 1352.6, 464.8)"></path><path d="M 0.0 0.0 L 27.5 0.0 " fill="none" stroke="#575E61" stroke-width="3.00" stroke-miterlimit="0.00" transform="matrix(1.63, 0.00, 0.00, -1.64, 1679.3, 464.8)"></path><path d="M 5.2 10.5 C 8.1 10.5 10.5 8.1 10.5 5.2 C 10.5 2.3 8.1 0.0 5.2 0.0 C 2.3 0.0 0.0 2.3 0.0 5.2 C 0.0 8.1 2.3 10.5 5.2 10.5 Z M 5.2 10.5 " fill="none" stroke="#575E61" stroke-width="3.00" stroke-miterlimit="0.00" transform="matrix(1.63, 0.00, 0.00, -1.64, 1335.5, 473.4)"></path><path d="M 5.2 10.5 C 8.1 10.5 10.5 8.1 10.5 5.2 C 10.5 2.3 8.1 0.0 5.2 0.0 C 2.3 0.0 0.0 2.3 0.0 5.2 C 0.0 8.1 2.3 10.5 5.2 10.5 Z M 5.2 10.5 " fill="none" stroke="#575E61" stroke-width="3.00" stroke-miterlimit="0.00" transform="matrix(1.63, 0.00, 0.00, -1.64, 1724.3, 473.4)"></path><path d="M 11.7 0.0 L 0.0 0.0 " fill="none" stroke="#575E61" stroke-width="3.00" stroke-miterlimit="0.00" transform="matrix(1.63, 0.00, 0.00, -1.64, 1575.8, 393.0)"></path><path d="M 5.8 0.0 L 0.0 0.0 " fill="none" stroke="#575E61" stroke-width="3.00" stroke-miterlimit="0.00" transform="matrix(1.63, 0.00, 0.00, -1.64, 1554.4, 393.0)"></path><path d="M 0.0 3.2 L 34.5 0.0 " fill="none" stroke="#575E61" stroke-width="1.00" stroke-miterlimit="0.00" transform="matrix(1.63, 0.00, 0.00, -1.64, 1492.4, 517.9)"></path><path d="M 0.0 0.0 L 145.5 6.7 " fill="none" stroke="#575E61" stroke-width="1.00" stroke-miterlimit="0.00" transform="matrix(1.63, 0.00, 0.00, -1.64, 1417.8, 423.5)"></path><path d="M 0.0 0.0 L 164.8 0.0 " fill="none" stroke="#575E61" stroke-width="3.00" stroke-miterlimit="0.00" transform="matrix(1.63, 0.00, 0.00, -1.64, 1406.5, 332.4)"></path><path d="M 0.0 37.0 C 6.4 24.4 13.8 12.0 22.1 0.0 " fill="none" stroke="#575E61" stroke-width="3.00" stroke-miterlimit="0.00" transform="matrix(1.63, 0.00, 0.00, -1.64, 1406.5, 393.0)"></path><path d="M 22.1 37.0 C 15.7 24.4 8.3 12.0 0.0 0.0 " fill="none" stroke="#575E61" stroke-width="3.00" stroke-miterlimit="0.00" transform="matrix(1.63, 0.00, 0.00, -1.64, 1639.7, 393.0)"></path><path d="M 0.0 0.0 L 30.7 0.0 L 30.7 5.9 L 0.0 5.9 L 0.0 0.0 Z M 0.0 0.0 " fill="none" stroke="#575E61" stroke-width="3.00" stroke-miterlimit="0.00" transform="matrix(1.63, 0.00, 0.00, -1.64, 1576.3, 216.6)"></path><path d="M 0.0 0.0 L 30.7 0.0 L 30.7 5.9 L 0.0 5.9 L 0.0 0.0 Z M 0.0 0.0 " fill="none" stroke="#575E61" stroke-width="3.00" stroke-miterlimit="0.00" transform="matrix(1.63, 0.00, 0.00, -1.64, 1589.5, 95.8)"></path><path d="M 36.5 30.6 L 36.5 0.0 L 0.0 0.0 L 0.0 36.5 L 11.0 36.5 " fill="none" stroke="#575E61" stroke-width="3.00" stroke-miterlimit="0.00" transform="matrix(1.63, 0.00, 0.00, -1.64, 1571.5, 145.9)"></path><path d="M 0.0 0.0 L 30.7 0.0 L 30.7 5.9 L 0.0 5.9 L 0.0 0.0 Z M 0.0 0.0 " fill="none" stroke="#575E61" stroke-width="3.00" stroke-miterlimit="0.00" transform="matrix(1.63, 0.00, 0.00, -1.64, 1576.2, 155.5)"></path><path d="M 0.0 31.5 L 0.0 0.0 " fill="none" stroke="#575E61" stroke-width="3.00" stroke-miterlimit="0.00" transform="matrix(1.63, 0.00, 0.00, -1.64, 1622.1, 207.1)"></path><path d="M 0.0 31.5 L 0.0 0.0 " fill="none" stroke="#575E61" stroke-width="3.00" stroke-miterlimit="0.00" transform="matrix(1.63, 0.00, 0.00, -1.64, 1580.6, 207.1)"></path><path d="M 25.5 0.0 L 0.0 0.0 " fill="none" stroke="#575E61" stroke-width="1.00" stroke-miterlimit="0.00" transform="matrix(1.63, 0.00, 0.00, -1.64, 1580.5, 165.9)"></path><path d="M 25.5 0.0 L 0.0 0.0 " fill="none" stroke="#575E61" stroke-width="1.00" stroke-miterlimit="0.00" transform="matrix(1.63, 0.00, 0.00, -1.64, 1580.5, 176.2)"></path><path d="M 25.4 0.0 L 0.0 0.0 " fill="none" stroke="#575E61" stroke-width="3.00" stroke-miterlimit="0.00" transform="matrix(1.63, 0.00, 0.00, -1.64, 1580.6, 186.6)"></path><path d="M 25.5 0.0 L 0.0 0.0 " fill="none" stroke="#575E61" stroke-width="1.00" stroke-miterlimit="0.00" transform="matrix(1.63, 0.00, 0.00, -1.64, 1580.5, 196.9)"></path><path d="M 5.2 5.2 L 0.0 0.0 " fill="none" stroke="#575E61" stroke-width="3.00" stroke-miterlimit="0.00" transform="matrix(1.63, 0.00, 0.00, -1.64, 1631.1, 104.4)"></path><path d="M 0.0 0.0 L 30.7 0.0 L 30.7 5.9 L 0.0 5.9 L 0.0 0.0 Z M 0.0 0.0 " fill="none" stroke="#575E61" stroke-width="3.00" stroke-miterlimit="0.00" transform="matrix(1.63, 0.00, 0.00, -1.64, 1455.8, 216.6)"></path><path d="M 0.0 0.0 L 30.7 0.0 L 30.7 5.9 L 0.0 5.9 L 0.0 0.0 Z M 0.0 0.0 " fill="none" stroke="#575E61" stroke-width="3.00" stroke-miterlimit="0.00" transform="matrix(1.63, 0.00, 0.00, -1.64, 1442.6, 95.8)"></path><path d="M 0.0 30.6 L 0.0 0.0 L 36.5 0.0 L 36.5 36.5 L 25.5 36.5 " fill="none" stroke="#575E61" stroke-width="3.00" stroke-miterlimit="0.00" transform="matrix(1.63, 0.00, 0.00, -1.64, 1451.1, 145.9)"></path><path d="M 0.0 0.0 L 30.7 0.0 L 30.7 5.9 L 0.0 5.9 L 0.0 0.0 Z M 0.0 0.0 " fill="none" stroke="#575E61" stroke-width="3.00" stroke-miterlimit="0.00" transform="matrix(1.63, 0.00, 0.00, -1.64, 1455.9, 155.5)"></path><path d="M 0.0 31.5 L 0.0 0.0 " fill="none" stroke="#575E61" stroke-width="3.00" stroke-miterlimit="0.00" transform="matrix(1.63, 0.00, 0.00, -1.64, 1460.1, 207.1)"></path><path d="M 0.0 31.5 L 0.0 0.0 " fill="none" stroke="#575E61" stroke-width="3.00" stroke-miterlimit="0.00" transform="matrix(1.63, 0.00, 0.00, -1.64, 1501.6, 207.1)"></path><path d="M 0.0 0.0 L 25.5 0.0 " fill="none" stroke="#575E61" stroke-width="1.00" stroke-miterlimit="0.00" transform="matrix(1.63, 0.00, 0.00, -1.64, 1460.1, 165.9)"></path><path d="M 0.0 0.0 L 25.5 0.0 " fill="none" stroke="#575E61" stroke-width="1.00" stroke-miterlimit="0.00" transform="matrix(1.63, 0.00, 0.00, -1.64, 1460.1, 176.2)"></path><path d="M 0.0 0.0 L 25.4 0.0 " fill="none" stroke="#575E61" stroke-width="3.00" stroke-miterlimit="0.00" transform="matrix(1.63, 0.00, 0.00, -1.64, 1460.1, 186.6)"></path><path d="M 0.0 0.0 L 25.5 0.0 " fill="none" stroke="#575E61" stroke-width="1.00" stroke-miterlimit="0.00" transform="matrix(1.63, 0.00, 0.00, -1.64, 1460.1, 196.9)"></path><path d="M 0.0 5.2 L 5.2 0.0 " fill="none" stroke="#575E61" stroke-width="3.00" stroke-miterlimit="0.00" transform="matrix(1.63, 0.00, 0.00, -1.64, 1442.6, 104.4)"></path><path d="M 0.0 31.9 C 4.0 21.1 8.7 10.5 14.0 0.0 " fill="none" stroke="#575E61" stroke-width="3.00" stroke-miterlimit="0.00" transform="matrix(1.63, 0.00, 0.00, -1.64, 1383.6, 332.4)"></path><path d="M 0.0 32.2 C 3.8 21.3 8.2 10.6 13.2 0.0 " fill="none" stroke="#575E61" stroke-width="3.00" stroke-miterlimit="0.00" transform="matrix(1.63, 0.00, 0.00, -1.64, 1420.9, 321.5)"></path><path d="M 0.0 0.0 L 21.6 8.3 " fill="none" stroke="#575E61" stroke-width="3.00" stroke-miterlimit="0.00" transform="matrix(1.63, 0.00, 0.00, -1.64, 1401.7, 322.9)"></path><path d="M 0.0 0.0 L 21.9 8.0 " fill="none" stroke="#575E61" stroke-width="1.00" stroke-miterlimit="0.00" transform="matrix(1.63, 0.00, 0.00, -1.64, 1396.8, 312.4)"></path><path d="M 0.0 0.0 L 22.3 7.6 " fill="none" stroke="#575E61" stroke-width="1.00" stroke-miterlimit="0.00" transform="matrix(1.63, 0.00, 0.00, -1.64, 1392.2, 301.7)"></path><path d="M 0.0 0.0 L 22.6 7.3 " fill="none" stroke="#575E61" stroke-width="1.00" stroke-miterlimit="0.00" transform="matrix(1.63, 0.00, 0.00, -1.64, 1387.7, 291.0)"></path><path d="M 0.0 0.0 L 22.9 7.0 " fill="none" stroke="#575E61" stroke-width="3.00" stroke-miterlimit="0.00" transform="matrix(1.63, 0.00, 0.00, -1.64, 1383.6, 280.2)"></path><path d="M 14.0 31.9 C 10.0 21.1 5.3 10.5 0.0 0.0 " fill="none" stroke="#575E61" stroke-width="3.00" stroke-miterlimit="0.00" transform="matrix(1.63, 0.00, 0.00, -1.64, 1675.8, 332.4)"></path><path d="M 13.2 32.2 C 9.5 21.3 5.0 10.6 0.0 0.0 " fill="none" stroke="#575E61" stroke-width="3.00" stroke-miterlimit="0.00" transform="matrix(1.63, 0.00, 0.00, -1.64, 1639.7, 321.5)"></path><path d="M 21.6 0.0 L 0.0 8.3 " fill="none" stroke="#575E61" stroke-width="3.00" stroke-miterlimit="0.00" transform="matrix(1.63, 0.00, 0.00, -1.64, 1645.3, 322.9)"></path><path d="M 21.9 0.0 L 0.0 8.0 " fill="none" stroke="#575E61" stroke-width="1.00" stroke-miterlimit="0.00" transform="matrix(1.63, 0.00, 0.00, -1.64, 1649.6, 312.4)"></path><path d="M 22.3 0.0 L 0.0 7.6 " fill="none" stroke="#575E61" stroke-width="1.00" stroke-miterlimit="0.00" transform="matrix(1.63, 0.00, 0.00, -1.64, 1653.7, 301.7)"></path><path d="M 22.6 0.0 L 0.0 7.3 " fill="none" stroke="#575E61" stroke-width="1.00" stroke-miterlimit="0.00" transform="matrix(1.63, 0.00, 0.00, -1.64, 1657.6, 291.0)"></path><path d="M 22.9 0.0 L 0.0 7.0 " fill="none" stroke="#575E61" stroke-width="3.00" stroke-miterlimit="0.00" transform="matrix(1.63, 0.00, 0.00, -1.64, 1661.3, 280.2)"></path><path d="M 0.0 0.0 C 0.0 2.2 1.8 4.0 4.0 4.0 C 6.3 4.0 8.1 2.2 8.1 0.0 " fill="none" stroke="#575E61" stroke-width="3.00" stroke-miterlimit="0.00" transform="matrix(1.54, -0.53, -0.53, -1.55, 1400.1, 226.1)"></path><path d="M 0.0 9.0 L 6.7 12.2 C 8.7 13.2 11.2 12.3 12.1 10.3 L 12.1 10.3 C 13.1 8.3 12.2 5.9 10.2 4.9 L 0.0 0.0 " fill="none" stroke="#575E61" stroke-width="3.00" stroke-miterlimit="0.00" transform="matrix(1.54, -0.53, -0.53, -1.55, 1423.1, 252.5)"></path><path d="M 0.0 0.0 C 0.0 2.2 1.8 4.0 4.0 4.0 C 6.3 4.0 8.1 2.2 8.1 0.0 " fill="none" stroke="#575E61" stroke-width="3.00" stroke-miterlimit="0.00" transform="matrix(1.54, -0.53, -0.53, -1.55, 1356.2, 241.3)"></path><path d="M 0.0 0.0 C 0.0 2.2 1.8 4.0 4.0 4.0 L 4.0 4.0 C 6.3 4.0 8.1 2.2 8.1 0.0 " fill="none" stroke="#575E61" stroke-width="3.00" stroke-miterlimit="0.00" transform="matrix(1.54, -0.53, -0.53, -1.55, 1385.9, 232.6)"></path><path d="M 0.0 0.0 C 0.0 2.2 1.8 4.0 4.0 4.0 L 4.0 4.0 C 6.3 4.0 8.1 2.2 8.1 0.0 " fill="none" stroke="#575E61" stroke-width="3.00" stroke-miterlimit="0.00" transform="matrix(1.54, -0.53, -0.53, -1.55, 1371.3, 237.6)"></path><path d="M 0.0 0.0 L 36.5 0.0 L 36.5 21.3 L 0.0 21.3 L 0.0 0.0 Z M 0.0 0.0 " fill="none" stroke="#575E61" stroke-width="3.00" stroke-miterlimit="0.00" transform="matrix(1.54, -0.53, -0.53, -1.55, 1368.0, 275.6)"></path><path d="M 0.0 0.0 L 30.7 0.0 L 30.7 5.9 L 0.0 5.9 L 0.0 0.0 Z M 0.0 0.0 " fill="none" stroke="#575E61" stroke-width="3.00" stroke-miterlimit="0.00" transform="matrix(1.54, -0.53, -0.53, -1.55, 1375.6, 283.1)"></path><path d="M 0.0 0.0 C 18.9 21.4 4.3 46.9 0.7 69.9 " fill="none" stroke="#575E61" stroke-width="2.00" stroke-miterlimit="0.00" transform="matrix(1.63, 0.00, 0.00, -1.64, 1760.1, 352.5)"></path><path d="M 5.9 59.1 C 5.5 58.0 6.3 56.5 5.9 55.4 C 0.5 39.3 15.0 32.6 10.7 20.3 C 8.1 13.0 2.0 7.8 0.0 0.0 " fill="none" stroke="#575E61" stroke-width="2.00" stroke-miterlimit="0.00" transform="matrix(1.63, 0.00, 0.00, -1.64, 1745.2, 341.0)"></path><path d="M 0.0 40.6 C 20.1 23.8 1.1 10.3 10.2 0.0 " fill="none" stroke="#575E61" stroke-width="2.00" stroke-miterlimit="0.00" transform="matrix(1.63, 0.00, 0.00, -1.64, 1764.0, 288.2)"></path><path d="M 3.1 55.3 C 9.7 43.7 4.1 40.2 1.0 30.7 C -1.9 22.1 2.4 8.2 3.6 0.0 " fill="none" stroke="#575E61" stroke-width="2.00" stroke-miterlimit="0.00" transform="matrix(1.63, 0.00, 0.00, -1.64, 1785.4, 361.2)"></path><path d="M 6.1 40.0 C -5.0 28.4 2.4 15.2 2.4 0.0 " fill="none" stroke="#575E61" stroke-width="2.00" stroke-miterlimit="0.00" transform="matrix(1.63, 0.00, 0.00, -1.64, 1741.4, 388.1)"></path><path d="M 3.1 13.0 C 0.3 9.4 -0.7 4.7 0.5 0.0 " fill="none" stroke="#575E61" stroke-width="2.00" stroke-miterlimit="0.00" transform="matrix(1.63, 0.00, 0.00, -1.64, 1748.1, 326.0)"></path><path d="M 2.1 40.2 C 0.3 27.9 -1.5 13.4 1.9 0.0 " fill="none" stroke="#575E61" stroke-width="2.00" stroke-miterlimit="0.00" transform="matrix(1.63, 0.00, 0.00, -1.64, 1743.5, 297.3)"></path><path d="M 0.0 43.0 C 21.4 32.7 4.3 10.6 10.4 0.0 " fill="none" stroke="#575E61" stroke-width="2.00" stroke-miterlimit="0.00" transform="matrix(1.63, 0.00, 0.00, -1.64, 1769.0, 282.2)"></path><path d="M 5.9 33.7 C 2.9 20.9 -7.7 11.8 10.0 0.0 " fill="none" stroke="#575E61" stroke-width="2.00" stroke-miterlimit="0.00" transform="matrix(1.63, 0.00, 0.00, -1.64, 1764.1, 402.1)"></path><path d="M 0.5 33.0 C 0.5 21.0 16.4 8.1 0.0 0.0 " fill="none" stroke="#575E61" stroke-width="2.00" stroke-miterlimit="0.00" transform="matrix(1.63, 0.00, 0.00, -1.64, 1781.4, 416.1)"></path><path d="M 1.6 28.2 C -1.4 15.0 -0.9 10.0 9.1 0.0 " fill="none" stroke="#575E61" stroke-width="2.00" stroke-miterlimit="0.00" transform="matrix(1.63, 0.00, 0.00, -1.64, 1758.3, 420.2)"></path><path d="M 7.9 24.3 C 2.9 16.8 -5.5 6.6 5.1 0.0 " fill="none" stroke="#575E61" stroke-width="2.00" stroke-miterlimit="0.00" transform="matrix(1.63, 0.00, 0.00, -1.64, 1741.4, 420.4)"></path></g></g></g></svg>