<?xml version="1.0" encoding="UTF-8" standalone="no"?><svg xmlns="http://www.w3.org/2000/svg" xmlns:xlink="http://www.w3.org/1999/xlink" clip-rule="evenodd" stroke-miterlimit="4.00" viewBox="0 0 1920 1080"><desc>SVG generated by Keynote</desc><defs></defs><g transform="matrix(1.00, 0.00, -0.00, -1.00, 0.0, 1080.0)"><path d="M 0.0 1080.0 L 1920.0 1080.0 L 1920.0 0.0 L 0.0 0.0 Z M 0.0 1080.0 " fill="#FAFAFA"></path><image xlink:href="../../F04E3606-C485-4561-924B-32551A92E389/assets/9647062E2821A5728D966EB88A264D98.png" width="961.00" height="499.00" transform="matrix(1.44, 0.00, -0.00, -1.43, 68.0, 805.0)"></image><g><clipPath id="clip-328"><path d="M 1383.6 806.8 L 1464.2 806.8 L 1464.2 905.5 L 1383.6 905.5 Z M 1383.6 806.8 "></path></clipPath><g clip-path="url(#clip-328)"><path d="M 1384.6 904.5 L 1463.2 904.5 L 1463.2 807.8 L 1384.6 807.8 Z M 1384.6 904.5 " fill="#FFDA7B"></path></g></g><g><clipPath id="clip-329"><path d="M 1133.2 757.0 L 1719.5 757.0 L 1719.5 855.7 L 1133.2 855.7 Z M 1133.2 757.0 "></path></clipPath><g clip-path="url(#clip-329)"><path d="M 1134.2 854.7 L 1718.5 854.7 L 1718.5 758.0 L 1134.2 758.0 Z M 1134.2 854.7 " fill="#FFDA7B"></path></g></g><g><clipPath id="clip-330"><path d="M 1187.1 882.3 L 1685.5 882.3 L 1685.5 981.0 L 1187.1 981.0 Z M 1187.1 882.3 "></path></clipPath><g clip-path="url(#clip-330)"><path d="M 1188.1 980.0 L 1684.5 980.0 L 1684.5 883.3 L 1188.1 883.3 Z M 1188.1 980.0 " fill="#FFDA7B"></path></g></g><g><clipPath id="clip-331"><path d="M 958.1 711.5 L 1894.7 711.5 L 1894.7 1026.5 L 958.1 1026.5 Z M 958.1 711.5 "></path></clipPath><g clip-path="url(#clip-331)"><text xml:space="preserve" font-family="Roboto-Light" font-size="50.0" fill="#000000" transform="matrix(1.00, 0.00, -0.00, -1.00, 1227.0, 910.0)">С</text><text xml:space="preserve" font-family="Roboto-Light" font-size="50.0" fill="#000000" transform="matrix(1.00, 0.00, -0.00, -1.00, 1259.5, 910.0)">п</text><text xml:space="preserve" font-family="Roboto-Light" font-size="50.0" fill="#000000" transform="matrix(1.00, 0.00, -0.00, -1.00, 1287.6, 910.0)">о</text><text xml:space="preserve" font-family="Roboto-Light" font-size="50.0" fill="#000000" transform="matrix(1.00, 0.00, -0.00, -1.00, 1315.6, 910.0)">с</text><text xml:space="preserve" font-family="Roboto-Light" font-size="50.0" fill="#000000" transform="matrix(1.00, 0.00, -0.00, -1.00, 1341.4, 910.0)">о</text><text xml:space="preserve" font-family="Roboto-Light" font-size="50.0" fill="#000000" transform="matrix(1.00, 0.00, -0.00, -1.00, 1369.4, 910.0)">б</text><text xml:space="preserve" font-family="Roboto-Light" font-size="50.0" fill="#000000" transform="matrix(1.00, 0.00, -0.00, -1.00, 1396.9, 910.0)"> </text><text xml:space="preserve" font-family="Roboto-Light" font-size="50.0" fill="#000000" transform="matrix(1.00, 0.00, -0.00, -1.00, 1409.1, 910.0)">х</text><text xml:space="preserve" font-family="Roboto-Light" font-size="50.0" fill="#000000" transform="matrix(1.00, 0.00, -0.00, -1.00, 1433.4, 910.0)">р</text><text xml:space="preserve" font-family="Roboto-Light" font-size="50.0" fill="#000000" transform="matrix(1.00, 0.00, -0.00, -1.00, 1461.1, 910.0)">а</text><text xml:space="preserve" font-family="Roboto-Light" font-size="50.0" fill="#000000" transform="matrix(1.00, 0.00, -0.00, -1.00, 1487.9, 910.0)">н</text><text xml:space="preserve" font-family="Roboto-Light" font-size="50.0" fill="#000000" transform="matrix(1.00, 0.00, -0.00, -1.00, 1516.0, 910.0)">е</text><text xml:space="preserve" font-family="Roboto-Light" font-size="50.0" fill="#000000" transform="matrix(1.00, 0.00, -0.00, -1.00, 1541.8, 910.0)">н</text><text xml:space="preserve" font-family="Roboto-Light" font-size="50.0" fill="#000000" transform="matrix(1.00, 0.00, -0.00, -1.00, 1569.9, 910.0)">и</text><text xml:space="preserve" font-family="Roboto-Light" font-size="50.0" fill="#000000" transform="matrix(1.00, 0.00, -0.00, -1.00, 1598.0, 910.0)">я</text><text xml:space="preserve" font-family="Roboto-Light" font-size="50.0" fill="#000000" transform="matrix(1.00, 0.00, -0.00, -1.00, 1625.1, 910.0)"> </text><text xml:space="preserve" font-family="Roboto-Light" font-size="50.0" fill="#000000" transform="matrix(1.00, 0.00, -0.00, -1.00, 1412.0, 852.0)">и</text><text xml:space="preserve" font-family="Roboto-Light" font-size="50.0" fill="#000000" transform="matrix(1.00, 0.00, -0.00, -1.00, 1440.1, 852.0)"> </text><text xml:space="preserve" font-family="Roboto-Light" font-size="50.0" fill="#000000" transform="matrix(1.00, 0.00, -0.00, -1.00, 1165.0, 794.0)">р</text><text xml:space="preserve" font-family="Roboto-Light" font-size="50.0" fill="#000000" transform="matrix(1.00, 0.00, -0.00, -1.00, 1192.7, 794.0)">а</text><text xml:space="preserve" font-family="Roboto-Light" font-size="50.0" fill="#000000" transform="matrix(1.00, 0.00, -0.00, -1.00, 1219.5, 794.0)">з</text><text xml:space="preserve" font-family="Roboto-Light" font-size="50.0" fill="#000000" transform="matrix(1.00, 0.00, -0.00, -1.00, 1244.8, 794.0)">р</text><text xml:space="preserve" font-family="Roboto-Light" font-size="50.0" fill="#000000" transform="matrix(1.00, 0.00, -0.00, -1.00, 1272.5, 794.0)">е</text><text xml:space="preserve" font-family="Roboto-Light" font-size="50.0" fill="#000000" transform="matrix(1.00, 0.00, -0.00, -1.00, 1298.3, 794.0)">ш</text><text xml:space="preserve" font-family="Roboto-Light" font-size="50.0" fill="#000000" transform="matrix(1.00, 0.00, -0.00, -1.00, 1338.0, 794.0)">е</text><text xml:space="preserve" font-family="Roboto-Light" font-size="50.0" fill="#000000" transform="matrix(1.00, 0.00, -0.00, -1.00, 1363.9, 794.0)">н</text><text xml:space="preserve" font-family="Roboto-Light" font-size="50.0" fill="#000000" transform="matrix(1.00, 0.00, -0.00, -1.00, 1392.0, 794.0)">и</text><text xml:space="preserve" font-family="Roboto-Light" font-size="50.0" fill="#000000" transform="matrix(1.00, 0.00, -0.00, -1.00, 1420.1, 794.0)">я</text><text xml:space="preserve" font-family="Roboto-Light" font-size="50.0" fill="#000000" transform="matrix(1.00, 0.00, -0.00, -1.00, 1447.2, 794.0)"> </text><text xml:space="preserve" font-family="Roboto-Light" font-size="50.0" fill="#000000" transform="matrix(1.00, 0.00, -0.00, -1.00, 1459.4, 794.0)">н</text><text xml:space="preserve" font-family="Roboto-Light" font-size="50.0" fill="#000000" transform="matrix(1.00, 0.00, -0.00, -1.00, 1487.5, 794.0)">а</text><text xml:space="preserve" font-family="Roboto-Light" font-size="50.0" fill="#000000" transform="matrix(1.00, 0.00, -0.00, -1.00, 1514.2, 794.0)"> </text><text xml:space="preserve" font-family="Roboto-Light" font-size="50.0" fill="#000000" transform="matrix(1.00, 0.00, -0.00, -1.00, 1526.4, 794.0)">з</text><text xml:space="preserve" font-family="Roboto-Light" font-size="50.0" fill="#000000" transform="matrix(1.00, 0.00, -0.00, -1.00, 1551.7, 794.0)">а</text><text xml:space="preserve" font-family="Roboto-Light" font-size="50.0" fill="#000000" transform="matrix(1.00, 0.00, -0.00, -1.00, 1578.5, 794.0)">п</text><text xml:space="preserve" font-family="Roboto-Light" font-size="50.0" fill="#000000" transform="matrix(1.00, 0.00, -0.00, -1.00, 1606.6, 794.0)">и</text><text xml:space="preserve" font-family="Roboto-Light" font-size="50.0" fill="#000000" transform="matrix(1.00, 0.00, -0.00, -1.00, 1634.7, 794.0)">с</text><text xml:space="preserve" font-family="Roboto-Light" font-size="50.0" fill="#000000" transform="matrix(1.00, 0.00, -0.00, -1.00, 1660.5, 794.0)">ь</text></g></g></g></svg>