<?xml version="1.0" encoding="UTF-8" standalone="no"?><svg xmlns="http://www.w3.org/2000/svg" xmlns:xlink="http://www.w3.org/1999/xlink" clip-rule="evenodd" stroke-miterlimit="4.00" viewBox="0 0 1920 1080"><desc>SVG generated by Keynote</desc><defs></defs><g transform="matrix(1.00, 0.00, -0.00, -1.00, 0.0, 1080.0)"><path d="M 0.0 1080.0 L 1920.0 1080.0 L 1920.0 0.0 L 0.0 0.0 Z M 0.0 1080.0 " fill="#FAFAFA"></path><image xlink:href="94701A203DB390196C847C4599A98351.png" width="524.00" height="460.00" transform="matrix(1.40, 0.00, -0.00, -1.41, 904.0, 749.0)"></image><g><clipPath id="clip-320"><path d="M 320.9 831.9 L 401.6 831.9 L 401.6 930.6 L 320.9 930.6 Z M 320.9 831.9 "></path></clipPath><g clip-path="url(#clip-320)"><path d="M 321.9 929.6 L 400.6 929.6 L 400.6 832.9 L 321.9 832.9 Z M 321.9 929.6 " fill="#FFDA7B"></path></g></g><g><clipPath id="clip-321"><path d="M 70.6 782.1 L 656.9 782.1 L 656.9 880.7 L 70.6 880.7 Z M 70.6 782.1 "></path></clipPath><g clip-path="url(#clip-321)"><path d="M 71.6 879.7 L 655.9 879.7 L 655.9 783.1 L 71.6 783.1 Z M 71.6 879.7 " fill="#FFDA7B"></path></g></g><g><clipPath id="clip-322"><path d="M 124.5 907.4 L 622.9 907.4 L 622.9 1006.1 L 124.5 1006.1 Z M 124.5 907.4 "></path></clipPath><g clip-path="url(#clip-322)"><path d="M 125.5 1005.1 L 621.9 1005.1 L 621.9 908.4 L 125.5 908.4 Z M 125.5 1005.1 " fill="#FFDA7B"></path></g></g><g><clipPath id="clip-323"><path d="M -104.5 736.6 L 832.1 736.6 L 832.1 1051.6 L -104.5 1051.6 Z M -104.5 736.6 "></path></clipPath><g clip-path="url(#clip-323)"><text xml:space="preserve" font-family="Roboto" font-weight="200" font-size="50.0" fill="#000000" transform="matrix(1.00, 0.00, -0.00, -1.00, 165.0, 935.0)">С</text><text xml:space="preserve" font-family="Roboto" font-weight="200" font-size="50.0" fill="#000000" transform="matrix(1.00, 0.00, -0.00, -1.00, 197.5, 935.0)">п</text><text xml:space="preserve" font-family="Roboto" font-weight="200" font-size="50.0" fill="#000000" transform="matrix(1.00, 0.00, -0.00, -1.00, 225.6, 935.0)">о</text><text xml:space="preserve" font-family="Roboto" font-weight="200" font-size="50.0" fill="#000000" transform="matrix(1.00, 0.00, -0.00, -1.00, 253.6, 935.0)">с</text><text xml:space="preserve" font-family="Roboto" font-weight="200" font-size="50.0" fill="#000000" transform="matrix(1.00, 0.00, -0.00, -1.00, 279.4, 935.0)">о</text><text xml:space="preserve" font-family="Roboto" font-weight="200" font-size="50.0" fill="#000000" transform="matrix(1.00, 0.00, -0.00, -1.00, 307.4, 935.0)">б</text><text xml:space="preserve" font-family="Roboto" font-weight="200" font-size="50.0" fill="#000000" transform="matrix(1.00, 0.00, -0.00, -1.00, 334.9, 935.0)"> </text><text xml:space="preserve" font-family="Roboto" font-weight="200" font-size="50.0" fill="#000000" transform="matrix(1.00, 0.00, -0.00, -1.00, 347.1, 935.0)">х</text><text xml:space="preserve" font-family="Roboto" font-weight="200" font-size="50.0" fill="#000000" transform="matrix(1.00, 0.00, -0.00, -1.00, 371.4, 935.0)">р</text><text xml:space="preserve" font-family="Roboto" font-weight="200" font-size="50.0" fill="#000000" transform="matrix(1.00, 0.00, -0.00, -1.00, 399.1, 935.0)">а</text><text xml:space="preserve" font-family="Roboto" font-weight="200" font-size="50.0" fill="#000000" transform="matrix(1.00, 0.00, -0.00, -1.00, 425.9, 935.0)">н</text><text xml:space="preserve" font-family="Roboto" font-weight="200" font-size="50.0" fill="#000000" transform="matrix(1.00, 0.00, -0.00, -1.00, 454.0, 935.0)">е</text><text xml:space="preserve" font-family="Roboto" font-weight="200" font-size="50.0" fill="#000000" transform="matrix(1.00, 0.00, -0.00, -1.00, 479.8, 935.0)">н</text><text xml:space="preserve" font-family="Roboto" font-weight="200" font-size="50.0" fill="#000000" transform="matrix(1.00, 0.00, -0.00, -1.00, 507.9, 935.0)">и</text><text xml:space="preserve" font-family="Roboto" font-weight="200" font-size="50.0" fill="#000000" transform="matrix(1.00, 0.00, -0.00, -1.00, 536.0, 935.0)">я</text><text xml:space="preserve" font-family="Roboto" font-weight="200" font-size="50.0" fill="#000000" transform="matrix(1.00, 0.00, -0.00, -1.00, 563.1, 935.0)"> </text><text xml:space="preserve" font-family="Roboto" font-weight="200" font-size="50.0" fill="#000000" transform="matrix(1.00, 0.00, -0.00, -1.00, 350.0, 877.0)">и</text><text xml:space="preserve" font-family="Roboto" font-weight="200" font-size="50.0" fill="#000000" transform="matrix(1.00, 0.00, -0.00, -1.00, 378.1, 877.0)"> </text><text xml:space="preserve" font-family="Roboto" font-weight="200" font-size="50.0" fill="#000000" transform="matrix(1.00, 0.00, -0.00, -1.00, 103.0, 819.0)">р</text><text xml:space="preserve" font-family="Roboto" font-weight="200" font-size="50.0" fill="#000000" transform="matrix(1.00, 0.00, -0.00, -1.00, 130.7, 819.0)">а</text><text xml:space="preserve" font-family="Roboto" font-weight="200" font-size="50.0" fill="#000000" transform="matrix(1.00, 0.00, -0.00, -1.00, 157.5, 819.0)">з</text><text xml:space="preserve" font-family="Roboto" font-weight="200" font-size="50.0" fill="#000000" transform="matrix(1.00, 0.00, -0.00, -1.00, 182.8, 819.0)">р</text><text xml:space="preserve" font-family="Roboto" font-weight="200" font-size="50.0" fill="#000000" transform="matrix(1.00, 0.00, -0.00, -1.00, 210.5, 819.0)">е</text><text xml:space="preserve" font-family="Roboto" font-weight="200" font-size="50.0" fill="#000000" transform="matrix(1.00, 0.00, -0.00, -1.00, 236.3, 819.0)">ш</text><text xml:space="preserve" font-family="Roboto" font-weight="200" font-size="50.0" fill="#000000" transform="matrix(1.00, 0.00, -0.00, -1.00, 276.0, 819.0)">е</text><text xml:space="preserve" font-family="Roboto" font-weight="200" font-size="50.0" fill="#000000" transform="matrix(1.00, 0.00, -0.00, -1.00, 301.9, 819.0)">н</text><text xml:space="preserve" font-family="Roboto" font-weight="200" font-size="50.0" fill="#000000" transform="matrix(1.00, 0.00, -0.00, -1.00, 330.0, 819.0)">и</text><text xml:space="preserve" font-family="Roboto" font-weight="200" font-size="50.0" fill="#000000" transform="matrix(1.00, 0.00, -0.00, -1.00, 358.1, 819.0)">я</text><text xml:space="preserve" font-family="Roboto" font-weight="200" font-size="50.0" fill="#000000" transform="matrix(1.00, 0.00, -0.00, -1.00, 385.2, 819.0)"> </text><text xml:space="preserve" font-family="Roboto" font-weight="200" font-size="50.0" fill="#000000" transform="matrix(1.00, 0.00, -0.00, -1.00, 397.4, 819.0)">н</text><text xml:space="preserve" font-family="Roboto" font-weight="200" font-size="50.0" fill="#000000" transform="matrix(1.00, 0.00, -0.00, -1.00, 425.5, 819.0)">а</text><text xml:space="preserve" font-family="Roboto" font-weight="200" font-size="50.0" fill="#000000" transform="matrix(1.00, 0.00, -0.00, -1.00, 452.2, 819.0)"> </text><text xml:space="preserve" font-family="Roboto" font-weight="200" font-size="50.0" fill="#000000" transform="matrix(1.00, 0.00, -0.00, -1.00, 464.4, 819.0)">з</text><text xml:space="preserve" font-family="Roboto" font-weight="200" font-size="50.0" fill="#000000" transform="matrix(1.00, 0.00, -0.00, -1.00, 489.7, 819.0)">а</text><text xml:space="preserve" font-family="Roboto" font-weight="200" font-size="50.0" fill="#000000" transform="matrix(1.00, 0.00, -0.00, -1.00, 516.5, 819.0)">п</text><text xml:space="preserve" font-family="Roboto" font-weight="200" font-size="50.0" fill="#000000" transform="matrix(1.00, 0.00, -0.00, -1.00, 544.6, 819.0)">и</text><text xml:space="preserve" font-family="Roboto" font-weight="200" font-size="50.0" fill="#000000" transform="matrix(1.00, 0.00, -0.00, -1.00, 572.7, 819.0)">с</text><text xml:space="preserve" font-family="Roboto" font-weight="200" font-size="50.0" fill="#000000" transform="matrix(1.00, 0.00, -0.00, -1.00, 598.5, 819.0)">ь</text></g></g></g></svg>