<?xml version="1.0" encoding="UTF-8" standalone="no"?><svg xmlns="http://www.w3.org/2000/svg" xmlns:xlink="http://www.w3.org/1999/xlink" clip-rule="evenodd" stroke-miterlimit="4.00" viewBox="0 0 183 128"><desc>SVG generated by Keynote</desc><defs></defs><g transform="matrix(1.00, 0.00, -0.00, -1.00, 0.0, 128.0)"><g><clipPath id="clip-1042"><path d="M 0.0 112.0 L 97.0 112.0 L 97.0 16.0 L 0.0 16.0 Z M 0.3 112.2 "></path></clipPath><g clip-path="url(#clip-1042)"><g><clipPath id="clip-1043"><path d="M 9.1 112.0 L 7.0 110.9 C 4.6 109.3 2.9 107.5 1.4 105.1 L 0.0 103.5 L 0.0 103.0 L 1.8 103.0 C 2.6 102.7 3.7 102.3 4.3 102.4 C 5.2 102.6 5.8 102.2 8.1 99.9 L 10.8 97.2 L 9.3 96.0 C 8.0 95.0 7.4 94.9 5.1 94.9 C 2.4 94.9 2.4 94.9 2.2 93.7 C 1.9 92.3 2.5 89.9 3.5 88.6 C 4.6 87.2 7.5 85.7 9.2 86.0 L 11.0 87.0 L 11.0 89.4 C 11.0 91.6 10.7 92.3 11.5 93.4 C 12.0 94.1 12.6 94.7 12.9 94.7 C 13.5 94.7 19.6 88.5 19.2 88.2 C 19.1 88.0 18.3 88.0 17.6 88.0 L 16.0 88.0 L 16.0 81.3 C 16.6 67.8 19.3 57.5 23.8 48.5 L 25.4 45.4 L 14.3 34.3 L 3.2 23.2 L 2.1 20.0 C 1.6 18.3 1.0 16.8 0.7 16.4 C 0.7 16.3 0.7 16.2 0.8 16.2 C 0.8 16.1 0.9 16.1 1.0 16.1 C 1.4 16.4 2.9 16.9 4.5 17.5 L 7.7 18.5 L 18.4 29.2 L 29.0 39.8 L 31.9 36.8 C 35.6 33.0 39.1 30.5 43.4 28.4 C 47.9 26.2 49.3 26.2 53.8 28.4 C 58.1 30.5 61.5 33.0 65.2 36.8 L 68.1 39.8 L 78.8 29.2 L 89.4 18.5 L 92.6 17.5 C 94.3 16.9 95.7 16.4 96.2 16.1 C 96.3 16.1 96.3 16.1 96.4 16.2 C 96.4 16.2 96.4 16.3 96.4 16.4 C 96.2 16.8 95.6 18.3 95.0 20.0 L 93.9 23.2 L 82.8 34.3 L 71.8 45.4 L 73.3 48.5 C 77.9 57.5 80.4 67.8 81.0 81.5 L 81.0 88.0 L 79.6 88.0 C 78.8 88.0 78.0 88.0 77.9 88.2 C 77.8 88.4 79.1 90.0 80.9 91.7 C 84.4 95.2 84.7 95.3 86.1 92.7 C 86.7 91.6 87.1 90.8 87.0 89.0 L 87.0 87.0 L 87.9 86.0 C 89.7 85.7 92.5 87.2 93.6 88.6 C 94.6 89.9 95.3 92.3 95.0 93.7 C 94.8 94.9 94.7 94.9 92.1 94.9 C 89.7 94.9 89.2 95.0 87.9 96.0 L 86.4 97.2 L 89.1 99.9 C 91.4 102.2 91.9 102.6 92.9 102.4 C 93.5 102.3 94.6 102.7 95.4 103.0 L 97.0 103.0 L 97.0 103.5 L 95.5 105.6 C 93.9 107.9 92.1 109.7 89.7 111.2 L 88.1 112.0 L 88.0 112.0 L 87.0 110.8 C 86.7 110.0 86.9 108.9 87.0 108.3 C 87.2 107.4 86.9 106.8 84.5 104.5 L 82.0 101.8 L 81.0 102.7 C 79.6 104.3 78.9 105.4 79.0 107.8 L 79.0 110.0 L 77.7 110.0 C 75.6 110.2 74.1 109.7 72.7 108.2 C 71.7 107.2 71.1 106.6 71.0 104.5 L 71.0 102.0 L 74.0 102.0 C 76.4 102.0 76.9 101.9 78.2 100.9 L 79.8 99.8 L 74.4 94.4 C 68.3 88.2 69.0 88.4 63.1 91.2 C 57.8 93.8 53.5 97.3 49.7 102.3 L 48.6 103.6 L 47.5 102.3 C 43.5 97.0 36.5 91.9 31.1 90.0 L 28.2 89.0 L 22.8 94.3 L 17.4 99.8 L 18.9 100.9 C 20.2 101.9 20.7 102.0 23.2 102.0 L 26.0 102.0 L 26.0 104.5 C 25.9 106.6 25.4 107.2 24.5 108.2 C 23.0 109.7 21.6 110.2 19.4 110.0 L 18.0 110.0 L 18.0 107.8 C 18.1 105.4 17.4 104.3 16.0 102.7 L 15.0 101.8 L 12.6 104.5 C 10.3 106.8 9.9 107.4 10.1 108.3 C 10.3 108.9 10.3 110.0 10.0 110.8 L 9.0 112.0 L 9.1 112.0 Z M 48.6 94.8 L 50.7 92.9 C 54.6 89.4 60.1 86.1 64.7 84.5 C 67.7 83.5 71.3 82.7 72.9 82.7 C 75.3 82.7 75.5 82.2 74.9 76.2 C 73.7 63.1 70.5 53.3 64.9 45.3 C 61.2 40.1 55.6 35.2 50.8 33.1 C 49.6 32.5 48.5 32.1 48.5 32.1 C 47.3 32.4 43.5 34.5 41.6 35.9 C 30.4 43.9 24.0 57.2 22.2 76.2 C 21.7 82.2 21.8 82.7 24.2 82.7 C 26.4 82.7 31.7 84.1 35.3 85.6 C 39.1 87.2 43.3 89.9 46.4 92.8 L 48.6 94.8 Z M 48.6 94.8 "></path></clipPath><g clip-path="url(#clip-1043)"><g><clipPath id="clip-1044"><path d="M 0.3 16.1 L 96.8 16.1 L 96.8 112.2 L 0.3 112.2 Z M 0.3 16.1 "></path></clipPath><g clip-path="url(#clip-1044)"><image xlink:href="../../63D7FFC8-C2C1-4797-A657-50AFBA060BB8/assets/DD7F7FCD5A532E6314C749E9C98A253A.png" width="97.00" height="97.00" transform="matrix(1.00, 0.00, -0.00, -0.99, 0.0, 112.0)"></image></g></g></g></g></g></g><g><clipPath id="clip-1045"><path d="M 89.3 -23.6 L 206.8 -23.6 L 206.8 152.0 L 89.3 152.0 Z M 89.3 -23.6 "></path></clipPath><g clip-path="url(#clip-1045)"><text xml:space="preserve" font-family="Roboto-Black" font-weight="bold" font-size="100.0" fill="#000000" transform="matrix(1.00, 0.00, -0.00, -1.00, 119.0, 30.0)">8</text></g></g></g></svg>