<?xml version="1.0" encoding="UTF-8" standalone="no"?><svg xmlns="http://www.w3.org/2000/svg" xmlns:xlink="http://www.w3.org/1999/xlink" clip-rule="evenodd" stroke-miterlimit="4.00" viewBox="0 0 575 31"><desc>SVG generated by Keynote</desc><defs></defs><g transform="matrix(1.00, 0.00, -0.00, -1.00, 0.0, 31.0)"><text xml:space="preserve" font-family="Roboto" font-weight="300" font-size="30.0" fill="#383E51" transform="matrix(1.00, 0.00, -0.00, -1.00, 2.0, 8.0)">-</text><text xml:space="preserve" font-family="Roboto" font-weight="300" font-size="30.0" fill="#383E51" transform="matrix(1.00, 0.00, -0.00, -1.00, 10.3, 8.0)">1</text><text xml:space="preserve" font-family="Roboto" font-weight="300" font-size="30.0" fill="#383E51" transform="matrix(1.00, 0.00, -0.00, -1.00, 27.1, 8.0)"> </text><text xml:space="preserve" font-family="Roboto" font-weight="300" font-size="30.0" fill="#383E51" transform="matrix(1.00, 0.00, -0.00, -1.00, 34.5, 8.0)">к</text><text xml:space="preserve" font-family="Roboto" font-weight="300" font-size="30.0" fill="#383E51" transform="matrix(1.00, 0.00, -0.00, -1.00, 50.7, 8.0)"> </text><text xml:space="preserve" font-family="Roboto" font-weight="300" font-size="30.0" fill="#383E51" transform="matrix(1.00, 0.00, -0.00, -1.00, 58.1, 8.0)">з</text><text xml:space="preserve" font-family="Roboto" font-weight="300" font-size="30.0" fill="#383E51" transform="matrix(1.00, 0.00, -0.00, -1.00, 73.4, 8.0)">а</text><text xml:space="preserve" font-family="Roboto" font-weight="300" font-size="30.0" fill="#383E51" transform="matrix(1.00, 0.00, -0.00, -1.00, 89.7, 8.0)">щ</text><text xml:space="preserve" font-family="Roboto" font-weight="300" font-size="30.0" fill="#383E51" transform="matrix(1.00, 0.00, -0.00, -1.00, 114.5, 8.0)">и</text><text xml:space="preserve" font-family="Roboto" font-weight="300" font-size="30.0" fill="#383E51" transform="matrix(1.00, 0.00, -0.00, -1.00, 131.8, 8.0)">т</text><text xml:space="preserve" font-family="Roboto" font-weight="300" font-size="30.0" fill="#383E51" transform="matrix(1.00, 0.00, -0.00, -1.00, 145.1, 8.0)">е</text><text xml:space="preserve" font-family="Roboto" font-weight="300" font-size="30.0" fill="#383E51" transform="matrix(1.00, 0.00, -0.00, -1.00, 161.0, 8.0)">,</text><text xml:space="preserve" font-family="Roboto" font-weight="300" font-size="30.0" fill="#383E51" transform="matrix(1.00, 0.00, -0.00, -1.00, 166.9, 8.0)"> </text><text xml:space="preserve" font-family="Roboto" font-weight="300" font-size="30.0" fill="#383E51" transform="matrix(1.00, 0.00, -0.00, -1.00, 174.3, 8.0)">е</text><text xml:space="preserve" font-family="Roboto" font-weight="300" font-size="30.0" fill="#383E51" transform="matrix(1.00, 0.00, -0.00, -1.00, 190.2, 8.0)">с</text><text xml:space="preserve" font-family="Roboto" font-weight="300" font-size="30.0" fill="#383E51" transform="matrix(1.00, 0.00, -0.00, -1.00, 205.9, 8.0)">л</text><text xml:space="preserve" font-family="Roboto" font-weight="300" font-size="30.0" fill="#383E51" transform="matrix(1.00, 0.00, -0.00, -1.00, 223.2, 8.0)">и</text><text xml:space="preserve" font-family="Roboto" font-weight="300" font-size="30.0" fill="#383E51" transform="matrix(1.00, 0.00, -0.00, -1.00, 240.5, 8.0)"> </text><text xml:space="preserve" font-family="Roboto" font-weight="300" font-size="30.0" fill="#383E51" transform="matrix(1.00, 0.00, -0.00, -1.00, 248.0, 8.0)">п</text><text xml:space="preserve" font-family="Roboto" font-weight="300" font-size="30.0" fill="#383E51" transform="matrix(1.00, 0.00, -0.00, -1.00, 265.3, 8.0)">р</text><text xml:space="preserve" font-family="Roboto" font-weight="300" font-size="30.0" fill="#383E51" transform="matrix(1.00, 0.00, -0.00, -1.00, 282.1, 8.0)">о</text><text xml:space="preserve" font-family="Roboto" font-weight="300" font-size="30.0" fill="#383E51" transform="matrix(1.00, 0.00, -0.00, -1.00, 298.9, 8.0)">т</text><text xml:space="preserve" font-family="Roboto" font-weight="300" font-size="30.0" fill="#383E51" transform="matrix(1.00, 0.00, -0.00, -1.00, 313.3, 8.0)">и</text><text xml:space="preserve" font-family="Roboto" font-weight="300" font-size="30.0" fill="#383E51" transform="matrix(1.00, 0.00, -0.00, -1.00, 330.6, 8.0)">в</text><text xml:space="preserve" font-family="Roboto" font-weight="300" font-size="30.0" fill="#383E51" transform="matrix(1.00, 0.00, -0.00, -1.00, 347.8, 8.0)">н</text><text xml:space="preserve" font-family="Roboto" font-weight="300" font-size="30.0" fill="#383E51" transform="matrix(1.00, 0.00, -0.00, -1.00, 365.1, 8.0)">и</text><text xml:space="preserve" font-family="Roboto" font-weight="300" font-size="30.0" fill="#383E51" transform="matrix(1.00, 0.00, -0.00, -1.00, 382.4, 8.0)">к</text><text xml:space="preserve" font-family="Roboto" font-weight="300" font-size="30.0" fill="#383E51" transform="matrix(1.00, 0.00, -0.00, -1.00, 398.6, 8.0)"> </text><text xml:space="preserve" font-family="Roboto" font-weight="300" font-size="30.0" fill="#383E51" transform="matrix(1.00, 0.00, -0.00, -1.00, 406.0, 8.0)">п</text><text xml:space="preserve" font-family="Roboto" font-weight="300" font-size="30.0" fill="#383E51" transform="matrix(1.00, 0.00, -0.00, -1.00, 423.4, 8.0)">р</text><text xml:space="preserve" font-family="Roboto" font-weight="300" font-size="30.0" fill="#383E51" transform="matrix(1.00, 0.00, -0.00, -1.00, 440.2, 8.0)">ы</text><text xml:space="preserve" font-family="Roboto" font-weight="300" font-size="30.0" fill="#383E51" transform="matrix(1.00, 0.00, -0.00, -1.00, 463.5, 8.0)">г</text><text xml:space="preserve" font-family="Roboto" font-weight="300" font-size="30.0" fill="#383E51" transform="matrix(1.00, 0.00, -0.00, -1.00, 476.1, 8.0)">а</text><text xml:space="preserve" font-family="Roboto" font-weight="300" font-size="30.0" fill="#383E51" transform="matrix(1.00, 0.00, -0.00, -1.00, 492.4, 8.0)">ю</text><text xml:space="preserve" font-family="Roboto" font-weight="300" font-size="30.0" fill="#383E51" transform="matrix(1.00, 0.00, -0.00, -1.00, 516.9, 8.0)">щ</text><text xml:space="preserve" font-family="Roboto" font-weight="300" font-size="30.0" fill="#383E51" transform="matrix(1.00, 0.00, -0.00, -1.00, 541.7, 8.0)">и</text><text xml:space="preserve" font-family="Roboto" font-weight="300" font-size="30.0" fill="#383E51" transform="matrix(1.00, 0.00, -0.00, -1.00, 559.0, 8.0)">й</text></g></svg>