<?xml version="1.0" encoding="UTF-8" standalone="no"?><svg xmlns="http://www.w3.org/2000/svg" xmlns:xlink="http://www.w3.org/1999/xlink" clip-rule="evenodd" stroke-miterlimit="4.00" viewBox="0 0 157 148"><desc>SVG generated by Keynote</desc><defs></defs><g transform="matrix(1.00, 0.00, -0.00, -1.00, 0.0, 148.0)"><g><clipPath id="clip-858"><path d="M 0.0 5.2 L 157.0 5.2 L 157.0 35.2 L 0.0 35.2 Z M 0.0 5.2 "></path></clipPath><g clip-path="url(#clip-858)"><text xml:space="preserve" font-family="Helvetica-Light" font-size="28.0" fill="#383E51" transform="matrix(1.00, 0.00, -0.00, -1.00, 18.0, 8.0)">Я</text><text xml:space="preserve" font-family="Helvetica-Light" font-size="28.0" fill="#383E51" transform="matrix(1.00, 0.00, -0.00, -1.00, 35.6, 8.0)">д</text><text xml:space="preserve" font-family="Helvetica-Light" font-size="28.0" fill="#383E51" transform="matrix(1.00, 0.00, -0.00, -1.00, 51.6, 8.0)">о</text><text xml:space="preserve" font-family="Helvetica-Light" font-size="28.0" fill="#383E51" transform="matrix(1.00, 0.00, -0.00, -1.00, 67.2, 8.0)">в</text><text xml:space="preserve" font-family="Helvetica-Light" font-size="28.0" fill="#383E51" transform="matrix(1.00, 0.00, -0.00, -1.00, 81.6, 8.0)">и</text><text xml:space="preserve" font-family="Helvetica-Light" font-size="28.0" fill="#383E51" transform="matrix(1.00, 0.00, -0.00, -1.00, 96.9, 8.0)">т</text><text xml:space="preserve" font-family="Helvetica-Light" font-size="28.0" fill="#383E51" transform="matrix(1.00, 0.00, -0.00, -1.00, 109.3, 8.0)">о</text><text xml:space="preserve" font-family="Helvetica-Light" font-size="28.0" fill="#383E51" transform="matrix(1.00, 0.00, -0.00, -1.00, 124.8, 8.0)">е</text></g></g><g><clipPath id="clip-859"><path d="M 21.1 32.7 L 135.5 32.7 L 135.5 147.0 L 21.1 147.0 Z M 21.1 32.7 "></path></clipPath><g clip-path="url(#clip-859)"><image xlink:href="../../710C39F4-EC0A-40E9-A353-AEDD765AFBFB/assets/EEEC1EEC368994E9F2D2CCE931C89B1B.png" width="128.00" height="128.00" transform="matrix(0.89, 0.00, -0.00, -0.89, 21.0, 147.0)"></image></g></g></g></svg>