<?xml version="1.0" encoding="UTF-8" standalone="no"?><svg xmlns="http://www.w3.org/2000/svg" xmlns:xlink="http://www.w3.org/1999/xlink" clip-rule="evenodd" stroke-miterlimit="4.00" viewBox="0 0 160 140"><desc>SVG generated by Keynote</desc><defs></defs><g transform="matrix(1.00, 0.00, -0.00, -1.00, 0.0, 140.0)"><g><clipPath id="clip-860"><path d="M 0.0 5.4 L 160.0 5.4 L 160.0 33.4 L 0.0 33.4 Z M 0.0 5.4 "></path></clipPath><g clip-path="url(#clip-860)"><text xml:space="preserve" font-family="Helvetica-Light" font-size="28.0" fill="#383E51" transform="matrix(1.00, 0.00, -0.00, -1.00, 25.0, 6.0)">Б</text><text xml:space="preserve" font-family="Helvetica-Light" font-size="28.0" fill="#383E51" transform="matrix(1.00, 0.00, -0.00, -1.00, 43.7, 6.0)">ы</text><text xml:space="preserve" font-family="Helvetica-Light" font-size="28.0" fill="#383E51" transform="matrix(1.00, 0.00, -0.00, -1.00, 62.5, 6.0)">с</text><text xml:space="preserve" font-family="Helvetica-Light" font-size="28.0" fill="#383E51" transform="matrix(1.00, 0.00, -0.00, -1.00, 77.0, 6.0)">т</text><text xml:space="preserve" font-family="Helvetica-Light" font-size="28.0" fill="#383E51" transform="matrix(1.00, 0.00, -0.00, -1.00, 89.4, 6.0)">р</text><text xml:space="preserve" font-family="Helvetica-Light" font-size="28.0" fill="#383E51" transform="matrix(1.00, 0.00, -0.00, -1.00, 105.5, 6.0)">о</text><text xml:space="preserve" font-family="Helvetica-Light" font-size="28.0" fill="#383E51" transform="matrix(1.00, 0.00, -0.00, -1.00, 121.0, 6.0)">е</text></g></g><g><clipPath id="clip-861"><path d="M 24.4 28.8 L 135.3 28.8 L 135.3 139.7 L 24.4 139.7 Z M 24.4 28.8 "></path></clipPath><g clip-path="url(#clip-861)"><image xlink:href="../../710C39F4-EC0A-40E9-A353-AEDD765AFBFB/assets/526BDD1E11BC234894C6C67901C3B63A.png" width="128.00" height="128.00" transform="matrix(0.87, 0.00, -0.00, -0.87, 24.0, 140.0)"></image></g></g></g></svg>