<?xml version="1.0" encoding="UTF-8" standalone="no"?><svg xmlns="http://www.w3.org/2000/svg" xmlns:xlink="http://www.w3.org/1999/xlink" clip-rule="evenodd" stroke-miterlimit="4.00" viewBox="0 0 179 147"><desc>SVG generated by Keynote</desc><defs></defs><g transform="matrix(1.00, 0.00, -0.00, -1.00, 0.0, 147.0)"><g><clipPath id="clip-846"><path d="M 35.0 37.6 L 143.5 37.6 L 143.5 146.1 L 35.0 146.1 Z M 35.0 37.6 "></path></clipPath><g clip-path="url(#clip-846)"><image xlink:href="../../63D7FFC8-C2C1-4797-A657-50AFBA060BB8/assets/326DE6D2C499EE42417C82E567127FB3.png" width="128.00" height="128.00" transform="matrix(0.84, 0.00, -0.00, -0.84, 35.0, 146.0)"></image></g></g><g><clipPath id="clip-847"><path d="M 0.0 5.6 L 179.0 5.6 L 179.0 35.6 L 0.0 35.6 Z M 0.0 5.6 "></path></clipPath><g clip-path="url(#clip-847)"><text xml:space="preserve" font-family="Helvetica-Light" font-size="28.0" fill="#383E51" transform="matrix(1.00, 0.00, -0.00, -1.00, 14.0, 8.0)">П</text><text xml:space="preserve" font-family="Helvetica-Light" font-size="28.0" fill="#383E51" transform="matrix(1.00, 0.00, -0.00, -1.00, 33.4, 8.0)">л</text><text xml:space="preserve" font-family="Helvetica-Light" font-size="28.0" fill="#383E51" transform="matrix(1.00, 0.00, -0.00, -1.00, 49.3, 8.0)">а</text><text xml:space="preserve" font-family="Helvetica-Light" font-size="28.0" fill="#383E51" transform="matrix(1.00, 0.00, -0.00, -1.00, 63.8, 8.0)">в</text><text xml:space="preserve" font-family="Helvetica-Light" font-size="28.0" fill="#383E51" transform="matrix(1.00, 0.00, -0.00, -1.00, 78.3, 8.0)">а</text><text xml:space="preserve" font-family="Helvetica-Light" font-size="28.0" fill="#383E51" transform="matrix(1.00, 0.00, -0.00, -1.00, 92.8, 8.0)">ю</text><text xml:space="preserve" font-family="Helvetica-Light" font-size="28.0" fill="#383E51" transform="matrix(1.00, 0.00, -0.00, -1.00, 113.7, 8.0)">щ</text><text xml:space="preserve" font-family="Helvetica-Light" font-size="28.0" fill="#383E51" transform="matrix(1.00, 0.00, -0.00, -1.00, 136.3, 8.0)">е</text><text xml:space="preserve" font-family="Helvetica-Light" font-size="28.0" fill="#383E51" transform="matrix(1.00, 0.00, -0.00, -1.00, 150.8, 8.0)">е</text></g></g></g></svg>