<?xml version="1.0" encoding="UTF-8" standalone="no"?><svg xmlns="http://www.w3.org/2000/svg" xmlns:xlink="http://www.w3.org/1999/xlink" clip-rule="evenodd" stroke-miterlimit="4.00" viewBox="0 0 1920 1080"><desc>SVG generated by Keynote</desc><defs></defs><g transform="matrix(1.00, 0.00, -0.00, -1.00, 0.0, 1080.0)"><path d="M 0.0 1080.0 L 1920.0 1080.0 L 1920.0 0.0 L 0.0 0.0 Z M 0.0 1080.0 " fill="#FECF60"></path><g><clipPath id="clip-1816"><path d="M 964.0 930.0 L 1924.0 930.0 L 1924.0 -10.0 L 964.0 -10.0 Z M 964.0 930.0 "></path></clipPath><g clip-path="url(#clip-1816)"><g><clipPath id="clip-1817"><path d="M 964.0 -10.0 L 1924.0 -10.0 L 1924.0 930.0 L 964.0 930.0 Z M 964.0 -10.0 "></path></clipPath><g clip-path="url(#clip-1817)"><path d="M 1699.1 817.3 C 1692.7 817.3 1687.3 812.8 1685.9 806.8 L 1636.5 806.8 L 1636.5 834.2 C 1636.5 835.9 1635.2 837.2 1633.5 837.2 L 1618.3 837.2 L 1618.3 855.6 L 1618.3 855.6 L 1618.3 855.6 C 1618.3 896.6 1584.9 930.0 1543.9 930.0 C 1512.5 930.0 1485.5 910.4 1474.7 882.8 L 1400.0 872.5 C 1390.5 881.6 1377.6 887.2 1363.4 887.2 C 1335.2 887.2 1312.1 865.0 1310.5 837.2 L 1295.2 837.2 C 1293.6 837.2 1292.2 835.9 1292.2 834.2 L 1292.2 806.8 L 1236.2 806.8 C 1234.8 812.8 1229.5 817.3 1223.1 817.3 C 1215.6 817.3 1209.6 811.2 1209.6 803.8 C 1209.6 796.4 1215.6 790.4 1223.1 790.4 C 1229.5 790.4 1234.8 794.8 1236.2 800.8 L 1292.2 800.8 L 1292.2 773.4 C 1292.2 771.8 1293.6 770.4 1295.2 770.4 L 1310.4 770.4 L 1310.4 753.2 C 1310.4 753.2 1310.5 753.2 1310.5 753.1 C 1310.5 753.0 1310.5 752.9 1310.5 752.8 C 1310.5 752.7 1310.5 752.6 1310.5 752.5 C 1310.6 752.4 1310.6 752.3 1310.6 752.2 C 1310.7 752.2 1310.7 752.1 1310.7 752.0 C 1310.8 751.9 1310.8 751.8 1310.9 751.7 C 1310.9 751.6 1311.0 751.5 1311.0 751.5 C 1311.1 751.4 1311.1 751.4 1311.1 751.4 L 1340.0 715.8 C 1298.7 655.8 1268.6 590.5 1250.1 521.1 C 1250.1 521.0 1250.1 520.9 1250.1 520.8 C 1246.1 505.9 1242.7 490.8 1239.8 475.6 L 1239.8 475.6 C 1239.8 475.6 1239.8 475.5 1239.8 475.5 C 1239.8 475.4 1239.8 475.3 1239.8 475.2 C 1239.8 475.1 1239.8 475.0 1239.8 475.0 L 1239.8 474.9 L 1239.8 474.9 L 1239.8 457.2 C 1239.8 451.1 1244.7 446.1 1250.9 446.1 C 1253.6 446.1 1256.1 447.1 1258.0 448.8 C 1260.0 445.9 1263.3 444.1 1267.0 444.1 C 1273.2 444.1 1278.1 449.1 1278.1 455.2 L 1278.1 472.0 L 1282.6 472.0 L 1282.6 455.2 C 1282.6 449.1 1287.6 444.1 1293.7 444.1 C 1299.9 444.1 1304.8 449.1 1304.8 455.2 L 1304.8 472.0 L 1317.3 472.0 L 1611.4 472.0 L 1623.9 472.0 L 1623.9 455.2 C 1623.9 449.1 1628.8 444.1 1635.0 444.1 C 1641.1 444.1 1646.1 449.1 1646.1 455.2 L 1646.1 472.0 L 1650.6 472.0 L 1650.6 455.2 C 1650.6 449.1 1655.5 444.1 1661.7 444.1 C 1665.4 444.1 1668.7 445.9 1670.7 448.8 C 1672.6 447.1 1675.1 446.1 1677.9 446.1 C 1684.0 446.1 1688.9 451.1 1688.9 457.2 L 1688.9 474.9 L 1688.9 474.9 L 1688.9 475.0 C 1688.9 475.0 1688.9 475.1 1688.9 475.2 C 1688.9 475.3 1688.9 475.4 1688.9 475.5 C 1688.9 475.5 1688.9 475.6 1688.9 475.6 C 1688.9 475.6 1688.9 475.6 1688.9 475.6 C 1688.9 475.6 1688.9 475.6 1688.9 475.6 C 1686.0 490.8 1682.6 505.9 1678.6 520.8 C 1678.6 520.9 1678.6 521.0 1678.6 521.1 C 1660.1 590.5 1630.0 655.8 1588.7 715.8 L 1617.6 751.4 C 1617.6 751.4 1617.6 751.4 1617.7 751.5 C 1617.7 751.5 1617.8 751.6 1617.8 751.7 C 1617.9 751.8 1617.9 751.9 1618.0 752.0 C 1618.0 752.1 1618.0 752.2 1618.1 752.2 C 1618.1 752.3 1618.1 752.4 1618.2 752.5 C 1618.2 752.6 1618.2 752.7 1618.2 752.8 C 1618.2 752.9 1618.2 753.0 1618.2 753.1 C 1618.2 753.2 1618.3 753.2 1618.3 753.2 L 1618.3 770.4 L 1633.5 770.4 C 1635.2 770.4 1636.5 771.8 1636.5 773.4 L 1636.5 800.8 L 1685.9 800.8 C 1687.3 794.8 1692.7 790.4 1699.1 790.4 C 1706.5 790.4 1712.5 796.4 1712.5 803.8 C 1712.5 811.2 1706.5 817.3 1699.1 817.3 " fill="#E9C05A"></path><path d="M 1416.6 221.8 L 1343.7 221.8 L 1343.7 -7.0 L 1416.6 -7.0 Z M 1416.6 221.8 " fill="#E9C05A"></path><path d="M 1585.0 221.8 L 1512.1 221.8 L 1512.1 -7.0 L 1585.0 -7.0 Z M 1585.0 221.8 " fill="#E9C05A"></path><path d="M 1284.5 221.8 L 1211.6 221.8 L 1211.6 -7.0 L 1284.5 -7.0 Z M 1284.5 221.8 " fill="#F4D277"></path><path d="M 1452.9 221.8 L 1380.0 221.8 L 1380.0 -7.0 L 1452.9 -7.0 Z M 1452.9 221.8 " fill="#F4D277"></path><path d="M 1924.0 194.0 L 964.0 194.0 L 964.0 478.0 L 1924.0 478.0 Z M 1924.0 194.0 " fill="#FED97B"></path><path d="M 1485.3 494.2 L 1479.3 494.2 C 1473.2 494.2 1468.2 489.2 1468.2 483.1 C 1468.2 481.2 1468.7 479.5 1469.5 478.0 L 1455.9 478.0 L 1455.9 500.3 L 1455.9 581.6 C 1468.1 553.3 1478.0 523.9 1485.3 494.2 M 1208.6 581.6 L 1208.6 500.3 L 1208.6 478.0 L 1195.0 478.0 C 1195.8 479.5 1196.3 481.2 1196.3 483.1 C 1196.3 489.2 1191.3 494.2 1185.2 494.2 L 1179.2 494.2 C 1186.5 523.9 1196.4 553.3 1208.6 581.6 M 1287.5 497.3 L 1377.0 497.3 L 1377.0 478.0 L 1287.5 478.0 Z M 1566.9 817.3 C 1560.6 817.3 1555.2 812.8 1553.8 806.8 L 1504.4 806.8 L 1504.4 834.2 C 1504.4 835.9 1503.0 837.2 1501.4 837.2 L 1486.2 837.2 L 1486.2 855.6 L 1486.2 855.6 L 1486.2 855.6 C 1486.2 896.6 1452.8 930.0 1411.8 930.0 C 1380.4 930.0 1353.4 910.4 1342.6 882.8 L 1267.9 872.5 C 1258.3 881.6 1245.5 887.2 1231.3 887.2 C 1203.1 887.2 1180.0 865.0 1178.4 837.2 L 1163.1 837.2 C 1161.5 837.2 1160.1 835.9 1160.1 834.2 L 1160.1 806.8 L 1104.1 806.8 C 1102.7 812.8 1097.4 817.3 1091.0 817.3 C 1083.5 817.3 1077.5 811.2 1077.5 803.8 C 1077.5 796.4 1083.5 790.4 1091.0 790.4 C 1097.4 790.4 1102.7 794.8 1104.1 800.8 L 1160.1 800.8 L 1160.1 773.4 C 1160.1 771.8 1161.5 770.4 1163.1 770.4 L 1178.3 770.4 L 1178.3 753.2 C 1178.3 753.2 1178.4 753.2 1178.4 753.1 C 1178.4 753.0 1178.4 752.9 1178.4 752.8 C 1178.4 752.7 1178.4 752.6 1178.4 752.5 C 1178.5 752.4 1178.5 752.3 1178.5 752.2 C 1178.6 752.2 1178.6 752.1 1178.6 752.0 C 1178.7 751.9 1178.7 751.8 1178.8 751.7 C 1178.8 751.6 1178.9 751.5 1178.9 751.5 C 1179.0 751.4 1179.0 751.4 1179.0 751.4 L 1207.9 715.8 C 1166.6 655.8 1136.5 590.5 1118.0 521.1 C 1118.0 521.0 1118.0 520.9 1118.0 520.8 C 1114.0 505.9 1110.6 490.8 1107.7 475.6 L 1107.7 475.6 C 1107.7 475.6 1107.7 475.5 1107.7 475.5 C 1107.7 475.4 1107.7 475.3 1107.7 475.2 C 1107.7 475.1 1107.7 475.0 1107.7 475.0 L 1107.7 474.9 L 1107.7 474.9 L 1107.7 457.2 C 1107.7 451.1 1112.6 446.1 1118.7 446.1 C 1121.5 446.1 1124.0 447.1 1125.9 448.8 C 1127.9 445.9 1131.2 444.1 1134.9 444.1 C 1141.1 444.1 1146.0 449.1 1146.0 455.2 L 1146.0 472.0 L 1150.5 472.0 L 1150.5 455.2 C 1150.5 449.1 1155.5 444.1 1161.6 444.1 C 1167.8 444.1 1172.7 449.1 1172.7 455.2 L 1172.7 472.0 L 1185.2 472.0 L 1479.3 472.0 L 1491.8 472.0 L 1491.8 455.2 C 1491.8 449.1 1496.7 444.1 1502.9 444.1 C 1509.0 444.1 1514.0 449.1 1514.0 455.2 L 1514.0 472.0 L 1518.5 472.0 L 1518.5 455.2 C 1518.5 449.1 1523.4 444.1 1529.6 444.1 C 1533.3 444.1 1536.6 445.9 1538.6 448.8 C 1540.5 447.1 1543.0 446.1 1545.8 446.1 C 1551.9 446.1 1556.8 451.1 1556.8 457.2 L 1556.8 474.9 L 1556.8 474.9 L 1556.8 475.0 C 1556.8 475.0 1556.8 475.1 1556.8 475.2 C 1556.8 475.3 1556.8 475.4 1556.8 475.5 C 1556.8 475.5 1556.8 475.6 1556.8 475.6 C 1556.8 475.6 1556.8 475.6 1556.8 475.6 C 1556.8 475.6 1556.8 475.6 1556.8 475.6 C 1553.9 490.8 1550.5 505.9 1546.5 520.8 C 1546.5 520.9 1546.5 521.0 1546.5 521.1 C 1528.0 590.5 1497.9 655.8 1456.6 715.8 L 1485.5 751.4 C 1485.5 751.4 1485.5 751.4 1485.5 751.5 C 1485.6 751.5 1485.7 751.6 1485.7 751.7 C 1485.8 751.8 1485.8 751.9 1485.9 752.0 C 1485.9 752.1 1485.9 752.2 1486.0 752.2 C 1486.0 752.3 1486.0 752.4 1486.1 752.5 C 1486.1 752.6 1486.1 752.7 1486.1 752.8 C 1486.1 752.9 1486.1 753.0 1486.1 753.1 C 1486.1 753.2 1486.2 753.2 1486.2 753.2 L 1486.2 770.4 L 1501.4 770.4 C 1503.0 770.4 1504.4 771.8 1504.4 773.4 L 1504.4 800.8 L 1553.8 800.8 C 1555.2 794.8 1560.6 790.4 1566.9 790.4 C 1574.4 790.4 1580.4 796.4 1580.4 803.8 C 1580.4 811.2 1574.4 817.3 1566.9 817.3 " fill="#F4D277"></path><path d="M 0.0 0.0 C 0.0 -19.7 -16.0 -35.7 -35.7 -35.7 C -55.4 -35.7 -71.4 -19.7 -71.4 0.0 C -71.4 19.7 -55.4 35.7 -35.7 35.7 C -16.0 35.7 0.0 19.7 0.0 0.0 Z M 0.0 0.0 " fill="none" stroke="#393E50" stroke-width="3.00" stroke-miterlimit="0.00" stroke-linecap="round" stroke-linejoin="round" transform="matrix(2.00, 0.00, 0.00, 2.00, 1483.2, 855.6)"></path><path d="M 0.0 0.0 C -16.5 0.0 -29.9 13.4 -29.9 29.9 C -29.9 46.3 -16.5 59.7 0.0 59.7 C 16.5 59.7 29.9 46.3 29.9 29.9 C 29.9 13.4 16.5 0.0 0.0 0.0 Z M 0.0 0.0 " fill="none" stroke="#393E50" stroke-width="2.00" stroke-miterlimit="0.00" stroke-linecap="round" stroke-linejoin="round" transform="matrix(2.00, 0.00, 0.00, 2.00, 1411.8, 795.9)"></path><path d="M 0.0 0.0 C -13.6 0.0 -24.6 11.1 -24.6 24.6 C -24.6 38.2 -13.6 49.3 0.0 49.3 C 13.6 49.3 24.6 38.2 24.6 24.6 C 24.6 11.1 13.6 0.0 0.0 0.0 Z M 0.0 0.0 " fill="none" stroke="#393E50" stroke-width="6.00" stroke-miterlimit="0.00" stroke-linecap="round" stroke-linejoin="round" transform="matrix(2.00, 0.00, 0.00, 2.00, 1411.8, 806.4)"></path><path d="M 0.0 0.0 C -11.4 0.0 -20.6 9.3 -20.6 20.6 C -20.6 32.0 -11.4 41.3 0.0 41.3 C 11.4 41.3 20.6 32.0 20.6 20.6 C 20.6 9.3 11.4 0.0 0.0 0.0 Z M 0.0 0.0 " fill="none" stroke="#393E50" stroke-width="1.00" stroke-miterlimit="0.00" stroke-linecap="round" stroke-linejoin="round" stroke-dasharray="2.0" transform="matrix(2.00, 0.00, 0.00, 2.00, 1411.8, 814.4)"></path><path d="M 0.0 0.0 C 0.0 -13.8 -11.2 -25.0 -25.0 -25.0 C -38.8 -25.0 -50.0 -13.8 -50.0 0.0 C -50.0 13.8 -38.8 25.0 -25.0 25.0 C -11.2 25.0 0.0 13.8 0.0 0.0 Z M 0.0 0.0 " fill="none" stroke="#393E50" stroke-width="3.00" stroke-miterlimit="0.00" stroke-linecap="round" stroke-linejoin="round" transform="matrix(2.00, 0.00, 0.00, 2.00, 1281.3, 834.2)"></path><path d="M 0.0 0.0 C -10.6 0.0 -19.2 8.6 -19.2 19.2 C -19.2 29.7 -10.6 38.3 0.0 38.3 C 10.6 38.3 19.2 29.7 19.2 19.2 C 19.2 8.6 10.6 0.0 0.0 0.0 Z M 0.0 0.0 " fill="none" stroke="#393E50" stroke-width="2.00" stroke-miterlimit="0.00" stroke-linecap="round" stroke-linejoin="round" transform="matrix(2.00, 0.00, 0.00, 2.00, 1231.3, 795.9)"></path><path d="M 0.0 0.0 C -7.7 0.0 -13.9 6.2 -13.9 13.9 C -13.9 21.6 -7.7 27.9 0.0 27.9 C 7.7 27.9 13.9 21.6 13.9 13.9 C 13.9 6.2 7.7 0.0 0.0 0.0 Z M 0.0 0.0 " fill="none" stroke="#393E50" stroke-width="6.00" stroke-miterlimit="0.00" stroke-linecap="round" stroke-linejoin="round" transform="matrix(2.00, 0.00, 0.00, 2.00, 1231.3, 806.4)"></path><path d="M 0.0 0.0 C -5.5 0.0 -9.9 4.5 -9.9 9.9 C -9.9 15.4 -5.5 19.9 0.0 19.9 C 5.5 19.9 9.9 15.4 9.9 9.9 C 9.9 4.5 5.5 0.0 0.0 0.0 Z M 0.0 0.0 " fill="none" stroke="#393E50" stroke-width="1.00" stroke-linecap="round" stroke-linejoin="round" stroke-dasharray="1.9, 1.9" transform="matrix(2.00, 0.00, 0.00, 2.00, 1231.3, 814.4)"></path><path d="M 0.0 0.0 L 0.0 -51.2 L -150.9 -51.2 L -150.9 -10.7 " fill="none" stroke="#393E50" stroke-width="3.00" stroke-miterlimit="10.00" stroke-linecap="round" stroke-linejoin="round" transform="matrix(2.00, 0.00, 0.00, 2.00, 1483.2, 855.6)"></path><path d="M 0.0 0.0 L -15.1 -18.6 L -35.7 -18.6 " fill="none" stroke="#393E50" stroke-width="3.00" stroke-miterlimit="10.00" stroke-linecap="round" stroke-linejoin="round" transform="matrix(2.00, 0.00, 0.00, 2.00, 1483.2, 753.2)"></path><path d="M 0.0 0.0 L -34.8 0.0 L -50.0 18.6 " fill="none" stroke="#393E50" stroke-width="3.00" stroke-miterlimit="10.00" stroke-linecap="round" stroke-linejoin="round" transform="matrix(2.00, 0.00, 0.00, 2.00, 1281.3, 716.0)"></path><path d="M 0.0 0.0 L 0.0 -70.8 L -120.6 -70.8 L -120.6 0.0 " fill="none" stroke="#393E50" stroke-width="3.00" stroke-miterlimit="10.00" stroke-linecap="round" stroke-linejoin="round" transform="matrix(2.00, 0.00, 0.00, 2.00, 1452.9, 641.9)"></path><path d="M 0.0 0.0 L 38.9 5.4 " fill="none" stroke="#393E50" stroke-width="3.00" stroke-miterlimit="10.00" stroke-linecap="round" stroke-linejoin="round" transform="matrix(2.00, 0.00, 0.00, 2.00, 1266.9, 869.3)"></path><path d="M 0.0 0.0 L 0.0 12.7 " fill="none" stroke="#393E50" stroke-width="3.00" stroke-miterlimit="10.00" stroke-linecap="round" stroke-linejoin="round" transform="matrix(2.00, 0.00, 0.00, 2.00, 1211.6, 475.0)"></path><path d="M 0.0 0.0 L 0.0 -12.7 " fill="none" stroke="#393E50" stroke-width="3.00" stroke-miterlimit="10.00" stroke-linecap="round" stroke-linejoin="round" transform="matrix(2.00, 0.00, 0.00, 2.00, 1284.5, 500.3)"></path><path d="M 0.0 0.0 L 0.0 12.7 " fill="none" stroke="#393E50" stroke-width="3.00" stroke-miterlimit="10.00" stroke-linecap="round" stroke-linejoin="round" transform="matrix(2.00, 0.00, 0.00, 2.00, 1380.0, 475.0)"></path><path d="M 0.0 0.0 L 0.0 -12.7 " fill="none" stroke="#393E50" stroke-width="3.00" stroke-miterlimit="10.00" stroke-linecap="round" stroke-linejoin="round" transform="matrix(2.00, 0.00, 0.00, 2.00, 1452.9, 500.3)"></path><path d="M 0.0 0.0 L -9.1 0.0 L -9.1 -30.4 L 0.0 -30.4 " fill="none" stroke="#393E50" stroke-width="3.00" stroke-miterlimit="10.00" stroke-linecap="round" stroke-linejoin="round" transform="matrix(2.00, 0.00, 0.00, 2.00, 1181.3, 834.2)"></path><path d="M 0.0 0.0 L 9.1 0.0 L 9.1 30.4 L 0.0 30.4 " fill="none" stroke="#393E50" stroke-width="3.00" stroke-miterlimit="10.00" stroke-linecap="round" stroke-linejoin="round" transform="matrix(2.00, 0.00, 0.00, 2.00, 1483.2, 773.4)"></path><path d="M 0.0 0.0 L -30.8 0.0 " fill="none" stroke="#393E50" stroke-width="3.00" stroke-miterlimit="10.00" stroke-linecap="round" stroke-linejoin="round" transform="matrix(2.00, 0.00, 0.00, 2.00, 1163.1, 803.8)"></path><path d="M 0.0 0.0 L 27.5 0.0 " fill="none" stroke="#393E50" stroke-width="3.00" stroke-miterlimit="10.00" stroke-linecap="round" stroke-linejoin="round" transform="matrix(2.00, 0.00, 0.00, 2.00, 1501.4, 803.8)"></path><path d="M 0.0 0.0 C 0.0 2.9 -2.3 5.2 -5.2 5.2 C -8.1 5.2 -10.5 2.9 -10.5 0.0 C -10.5 -2.9 -8.1 -5.2 -5.2 -5.2 C -2.3 -5.2 0.0 -2.9 0.0 0.0 Z M 0.0 0.0 " fill="none" stroke="#393E50" stroke-width="3.00" stroke-miterlimit="10.00" stroke-linecap="round" stroke-linejoin="round" transform="matrix(2.00, 0.00, 0.00, 2.00, 1101.4, 803.8)"></path><path d="M 0.0 0.0 C 0.0 2.9 -2.3 5.2 -5.2 5.2 C -8.1 5.2 -10.5 2.9 -10.5 0.0 C -10.5 -2.9 -8.1 -5.2 -5.2 -5.2 C -2.3 -5.2 0.0 -2.9 0.0 0.0 Z M 0.0 0.0 " fill="none" stroke="#393E50" stroke-width="3.00" stroke-miterlimit="10.00" stroke-linecap="round" stroke-linejoin="round" transform="matrix(2.00, 0.00, 0.00, 2.00, 1577.4, 803.8)"></path><path d="M 0.0 0.0 C 4.1 -4.5 6.5 -10.4 6.5 -16.9 C 6.5 -30.7 -4.7 -42.0 -18.5 -42.0 C -32.4 -42.0 -43.6 -30.7 -43.6 -16.9 C -43.6 -10.4 -41.2 -4.5 -37.1 0.0 " fill="none" stroke="#393E50" stroke-width="1.00" stroke-miterlimit="10.00" stroke-linecap="round" stroke-linejoin="round" transform="matrix(2.00, 0.00, 0.00, 2.00, 1369.3, 641.9)"></path><path d="M 0.0 0.0 L 36.5 -1.9 " fill="none" stroke="#393E50" stroke-width="3.00" stroke-miterlimit="10.00" stroke-linecap="round" stroke-linejoin="round" transform="matrix(2.00, 0.00, 0.00, 2.00, 1211.6, 491.2)"></path><path d="M 0.0 0.0 L 36.5 -1.8 " fill="none" stroke="#393E50" stroke-width="3.00" stroke-miterlimit="10.00" stroke-linecap="round" stroke-linejoin="round" transform="matrix(2.00, 0.00, 0.00, 2.00, 1380.0, 491.1)"></path><path d="M 0.0 0.0 L -26.6 -3.6 " fill="none" stroke="#393E50" stroke-width="3.00" stroke-miterlimit="10.00" stroke-linecap="round" stroke-linejoin="round" transform="matrix(2.00, 0.00, 0.00, 2.00, 1265.1, 488.4)"></path><path d="M 0.0 0.0 L -11.7 0.0 " fill="none" stroke="#393E50" stroke-width="3.00" stroke-miterlimit="10.00" stroke-linecap="round" stroke-linejoin="round" transform="matrix(2.00, 0.00, 0.00, 2.00, 1398.0, 716.0)"></path><path d="M 0.0 0.0 L -5.8 0.0 " fill="none" stroke="#393E50" stroke-width="3.00" stroke-miterlimit="10.00" stroke-linecap="round" stroke-linejoin="round" transform="matrix(2.00, 0.00, 0.00, 2.00, 1360.0, 716.0)"></path><path d="M 0.0 0.0 L 31.3 -2.4 " fill="none" stroke="#393E50" stroke-width="1.00" stroke-miterlimit="10.00" stroke-linecap="round" stroke-linejoin="round" transform="matrix(2.00, 0.00, 0.00, 2.00, 1390.2, 613.0)"></path><path d="M 0.0 0.0 L 120.5 -3.8 " fill="none" stroke="#393E50" stroke-width="1.00" stroke-miterlimit="10.00" stroke-linecap="round" stroke-linejoin="round" transform="matrix(2.00, 0.00, 0.00, 2.00, 1211.9, 634.3)"></path><path d="M 0.0 0.0 L 34.5 3.2 " fill="none" stroke="#393E50" stroke-width="1.00" stroke-miterlimit="10.00" stroke-linecap="round" stroke-linejoin="round" transform="matrix(2.00, 0.00, 0.00, 2.00, 1272.6, 862.3)"></path><path d="M 0.0 0.0 L 145.5 -6.7 " fill="none" stroke="#393E50" stroke-width="1.00" stroke-miterlimit="10.00" stroke-linecap="round" stroke-linejoin="round" transform="matrix(2.00, 0.00, 0.00, 2.00, 1181.3, 753.2)"></path><path d="M 0.0 0.0 L 120.7 8.4 " fill="none" stroke="#393E50" stroke-width="1.00" stroke-miterlimit="10.00" stroke-linecap="round" stroke-linejoin="round" transform="matrix(2.00, 0.00, 0.00, 2.00, 1211.6, 500.3)"></path><path d="M 0.0 0.0 L 106.1 0.0 C 109.5 -4.8 111.5 -10.6 111.5 -16.9 C 111.5 -33.0 98.5 -46.0 82.4 -46.0 C 66.4 -46.0 53.3 -33.0 53.3 -16.9 C 53.3 -10.6 55.3 -4.8 58.7 0.0 L 22.1 0.0 " fill="none" stroke="#393E50" stroke-width="3.00" stroke-miterlimit="10.00" stroke-linecap="round" stroke-linejoin="round" transform="matrix(2.00, 0.00, 0.00, 2.00, 1167.4, 641.9)"></path><path d="M 0.0 0.0 C 7.9 42.0 24.5 83.1 50.5 120.5 " fill="none" stroke="#393E50" stroke-width="3.00" stroke-miterlimit="10.00" stroke-linecap="round" stroke-linejoin="round" transform="matrix(2.00, 0.00, 0.00, 2.00, 1110.7, 475.0)"></path><path d="M 0.0 0.0 C -7.8 -16.9 -13.9 -34.4 -18.2 -52.3 " fill="none" stroke="#393E50" stroke-width="3.00" stroke-miterlimit="10.00" stroke-linecap="round" stroke-linejoin="round" transform="matrix(2.00, 0.00, 0.00, 2.00, 1211.6, 595.7)"></path><path d="M 0.0 0.0 C 5.3 -2.2 10.5 -4.8 15.5 -7.7 L 47.5 -10.1 " fill="none" stroke="#393E50" stroke-width="1.00" stroke-miterlimit="10.00" stroke-linecap="round" stroke-linejoin="round" transform="matrix(2.00, 0.00, 0.00, 2.00, 1180.6, 641.9)"></path><path d="M 0.0 0.0 C -7.9 4.5 -16.1 8.5 -24.5 11.9 " fill="none" stroke="#393E50" stroke-width="1.00" stroke-miterlimit="10.00" stroke-linecap="round" stroke-linejoin="round" transform="matrix(2.00, 0.00, 0.00, 2.00, 1211.6, 608.2)"></path><path d="M 0.0 0.0 C -8.7 5.0 -17.7 9.4 -26.9 13.2 " fill="none" stroke="#393E50" stroke-width="3.00" stroke-miterlimit="10.00" stroke-linecap="round" stroke-linejoin="round" transform="matrix(2.00, 0.00, 0.00, 2.00, 1209.6, 591.2)"></path><path d="M 0.0 0.0 C -8.8 4.8 -17.8 9.1 -27.1 12.9 " fill="none" stroke="#393E50" stroke-width="1.00" stroke-miterlimit="10.00" stroke-linecap="round" stroke-linejoin="round" transform="matrix(2.00, 0.00, 0.00, 2.00, 1202.3, 574.3)"></path><path d="M 0.0 0.0 L -26.4 14.8 " fill="none" stroke="#393E50" stroke-width="1.00" stroke-miterlimit="10.00" stroke-linecap="round" stroke-linejoin="round" transform="matrix(2.00, 0.00, 0.00, 2.00, 1197.6, 562.6)"></path><path d="M 0.0 0.0 C -8.5 5.5 -17.4 10.5 -26.4 15.0 " fill="none" stroke="#393E50" stroke-width="1.00" stroke-miterlimit="10.00" stroke-linecap="round" stroke-linejoin="round" transform="matrix(2.00, 0.00, 0.00, 2.00, 1192.2, 548.0)"></path><path d="M 0.0 0.0 C -8.6 5.5 -17.4 10.4 -26.6 14.8 " fill="none" stroke="#393E50" stroke-width="3.00" stroke-miterlimit="10.00" stroke-linecap="round" stroke-linejoin="round" transform="matrix(2.00, 0.00, 0.00, 2.00, 1187.6, 534.6)"></path><path d="M 0.0 0.0 L -27.1 13.8 " fill="none" stroke="#393E50" stroke-width="1.00" stroke-miterlimit="10.00" stroke-linecap="round" stroke-linejoin="round" transform="matrix(2.00, 0.00, 0.00, 2.00, 1183.8, 522.5)"></path><path d="M 0.0 0.0 C -8.9 4.9 -18.0 9.5 -27.2 13.7 " fill="none" stroke="#393E50" stroke-width="1.00" stroke-miterlimit="10.00" stroke-linecap="round" stroke-linejoin="round" transform="matrix(2.00, 0.00, 0.00, 2.00, 1180.1, 509.6)"></path><path d="M 0.0 0.0 C -9.2 3.9 -18.6 7.4 -28.1 10.6 " fill="none" stroke="#393E50" stroke-width="1.00" stroke-miterlimit="10.00" stroke-linecap="round" stroke-linejoin="round" transform="matrix(2.00, 0.00, 0.00, 2.00, 1178.1, 502.4)"></path><path d="M 0.0 0.0 L -26.8 14.5 " fill="none" stroke="#393E50" stroke-width="3.00" stroke-miterlimit="10.00" stroke-linecap="round" stroke-linejoin="round" transform="matrix(2.00, 0.00, 0.00, 2.00, 1174.4, 491.2)"></path><path d="M 0.0 0.0 L 26.8 0.0 " fill="none" stroke="#393E50" stroke-width="3.00" stroke-miterlimit="10.00" stroke-linecap="round" stroke-linejoin="round" transform="matrix(2.00, 0.00, 0.00, 2.00, 1110.7, 475.0)"></path><path d="M 0.0 0.0 L 0.0 -8.9 C 0.0 -11.1 -1.8 -12.9 -4.0 -12.9 L -4.0 -12.9 C -6.3 -12.9 -8.1 -11.1 -8.1 -8.9 L -8.1 0.0 " fill="none" stroke="#393E50" stroke-width="3.00" stroke-miterlimit="10.00" stroke-linecap="round" stroke-linejoin="round" transform="matrix(2.00, 0.00, 0.00, 2.00, 1126.8, 475.0)"></path><path d="M 0.0 0.0 L 8.1 -0.6 " fill="none" stroke="#393E50" stroke-width="1.00" stroke-miterlimit="10.00" stroke-linecap="round" stroke-linejoin="round" transform="matrix(2.00, 0.00, 0.00, 2.00, 1110.7, 469.2)"></path><path d="M 0.0 0.0 L 8.1 -0.2 " fill="none" stroke="#393E50" stroke-width="1.00" stroke-miterlimit="10.00" stroke-linecap="round" stroke-linejoin="round" transform="matrix(2.00, 0.00, 0.00, 2.00, 1110.7, 460.3)"></path><path d="M 0.0 0.0 L 0.0 -9.9 C 0.0 -12.1 -1.8 -13.9 -4.0 -13.9 L -4.0 -13.9 C -6.3 -13.9 -8.1 -12.1 -8.1 -9.9 L -8.1 0.0 " fill="none" stroke="#393E50" stroke-width="3.00" stroke-miterlimit="10.00" stroke-linecap="round" stroke-linejoin="round" transform="matrix(2.00, 0.00, 0.00, 2.00, 1143.0, 475.0)"></path><path d="M 0.0 0.0 L 8.1 -0.6 " fill="none" stroke="#393E50" stroke-width="1.00" stroke-miterlimit="10.00" stroke-linecap="round" stroke-linejoin="round" transform="matrix(2.00, 0.00, 0.00, 2.00, 1126.8, 467.2)"></path><path d="M 0.0 0.0 L 8.1 -0.2 " fill="none" stroke="#393E50" stroke-width="1.00" stroke-miterlimit="10.00" stroke-linecap="round" stroke-linejoin="round" transform="matrix(2.00, 0.00, 0.00, 2.00, 1126.8, 459.7)"></path><path d="M 0.0 0.0 L 0.0 -19.9 C 0.0 -22.1 1.8 -23.9 4.0 -23.9 L 4.0 -23.9 C 6.3 -23.9 8.1 -22.1 8.1 -19.9 L 8.1 0.0 " fill="none" stroke="#393E50" stroke-width="3.00" stroke-miterlimit="10.00" stroke-linecap="round" stroke-linejoin="round" transform="matrix(2.00, 0.00, 0.00, 2.00, 1153.5, 475.0)"></path><path d="M 0.0 0.0 L -8.1 -0.6 " fill="none" stroke="#393E50" stroke-width="1.00" stroke-miterlimit="10.00" stroke-linecap="round" stroke-linejoin="round" transform="matrix(2.00, 0.00, 0.00, 2.00, 1169.7, 467.2)"></path><path d="M 0.0 0.0 L -8.1 -0.2 " fill="none" stroke="#393E50" stroke-width="1.00" stroke-miterlimit="10.00" stroke-linecap="round" stroke-linejoin="round" transform="matrix(2.00, 0.00, 0.00, 2.00, 1169.7, 459.7)"></path><path d="M 0.0 0.0 L -8.1 -0.6 " fill="none" stroke="#393E50" stroke-width="1.00" stroke-miterlimit="10.00" stroke-linecap="round" stroke-linejoin="round" transform="matrix(2.00, 0.00, 0.00, 2.00, 1169.7, 453.1)"></path><path d="M 0.0 0.0 L -8.1 -0.2 " fill="none" stroke="#393E50" stroke-width="1.00" stroke-miterlimit="10.00" stroke-linecap="round" stroke-linejoin="round" transform="matrix(2.00, 0.00, 0.00, 2.00, 1169.7, 445.6)"></path><path d="M 0.0 0.0 L -8.1 -0.2 " fill="none" stroke="#393E50" stroke-width="1.00" stroke-miterlimit="10.00" stroke-linecap="round" stroke-linejoin="round" transform="matrix(2.00, 0.00, 0.00, 2.00, 1169.2, 440.3)"></path><path d="M 0.0 0.0 L 4.9 0.0 C 7.2 0.0 9.0 -1.8 9.0 -4.0 C 9.0 -6.3 7.2 -8.1 4.9 -8.1 L -4.9 -8.1 " fill="none" stroke="#393E50" stroke-width="3.00" stroke-miterlimit="10.00" stroke-linecap="round" stroke-linejoin="round" transform="matrix(2.00, 0.00, 0.00, 2.00, 1175.3, 491.2)"></path><path d="M 0.0 0.0 C -7.9 42.0 -24.5 83.1 -50.5 120.5 " fill="none" stroke="#393E50" stroke-width="3.00" stroke-miterlimit="10.00" stroke-linecap="round" stroke-linejoin="round" transform="matrix(2.00, 0.00, 0.00, 2.00, 1553.8, 475.0)"></path><path d="M 0.0 0.0 C 7.8 -16.9 13.9 -34.4 18.2 -52.3 " fill="none" stroke="#393E50" stroke-width="3.00" stroke-miterlimit="10.00" stroke-linecap="round" stroke-linejoin="round" transform="matrix(2.00, 0.00, 0.00, 2.00, 1452.9, 595.7)"></path><path d="M 0.0 0.0 C -5.3 -2.2 -10.5 -4.8 -15.5 -7.7 L -47.5 -10.1 " fill="none" stroke="#393E50" stroke-width="1.00" stroke-miterlimit="10.00" stroke-linecap="round" stroke-linejoin="round" transform="matrix(2.00, 0.00, 0.00, 2.00, 1483.9, 641.9)"></path><path d="M 0.0 0.0 C 7.9 4.5 16.1 8.5 24.5 11.9 " fill="none" stroke="#393E50" stroke-width="1.00" stroke-miterlimit="10.00" stroke-linecap="round" stroke-linejoin="round" transform="matrix(2.00, 0.00, 0.00, 2.00, 1452.9, 608.2)"></path><path d="M 0.0 0.0 C 8.7 5.0 17.7 9.4 26.9 13.2 " fill="none" stroke="#393E50" stroke-width="3.00" stroke-miterlimit="10.00" stroke-linecap="round" stroke-linejoin="round" transform="matrix(2.00, 0.00, 0.00, 2.00, 1454.9, 591.2)"></path><path d="M 0.0 0.0 C 8.8 4.8 17.8 9.1 27.1 12.9 " fill="none" stroke="#393E50" stroke-width="1.00" stroke-miterlimit="10.00" stroke-linecap="round" stroke-linejoin="round" transform="matrix(2.00, 0.00, 0.00, 2.00, 1462.2, 574.3)"></path><path d="M 0.0 0.0 C 8.8 4.9 17.6 9.8 26.4 14.8 " fill="none" stroke="#393E50" stroke-width="1.00" stroke-miterlimit="10.00" stroke-linecap="round" stroke-linejoin="round" transform="matrix(2.00, 0.00, 0.00, 2.00, 1466.9, 562.6)"></path><path d="M 0.0 0.0 C 8.5 5.5 17.4 10.5 26.4 15.0 " fill="none" stroke="#393E50" stroke-width="1.00" stroke-miterlimit="10.00" stroke-linecap="round" stroke-linejoin="round" transform="matrix(2.00, 0.00, 0.00, 2.00, 1472.3, 548.0)"></path><path d="M 0.0 0.0 C 8.6 5.5 17.4 10.4 26.6 14.8 " fill="none" stroke="#393E50" stroke-width="3.00" stroke-miterlimit="10.00" stroke-linecap="round" stroke-linejoin="round" transform="matrix(2.00, 0.00, 0.00, 2.00, 1476.9, 534.6)"></path><path d="M 0.0 0.0 L 27.1 13.8 " fill="none" stroke="#393E50" stroke-width="1.00" stroke-miterlimit="10.00" stroke-linecap="round" stroke-linejoin="round" transform="matrix(2.00, 0.00, 0.00, 2.00, 1480.7, 522.5)"></path><path d="M 0.0 0.0 C 8.9 4.9 18.0 9.5 27.2 13.7 " fill="none" stroke="#393E50" stroke-width="1.00" stroke-miterlimit="10.00" stroke-linecap="round" stroke-linejoin="round" transform="matrix(2.00, 0.00, 0.00, 2.00, 1484.4, 509.6)"></path><path d="M 0.0 0.0 C 9.2 3.9 18.6 7.4 28.1 10.6 " fill="none" stroke="#393E50" stroke-width="1.00" stroke-miterlimit="10.00" stroke-linecap="round" stroke-linejoin="round" transform="matrix(2.00, 0.00, 0.00, 2.00, 1486.4, 502.4)"></path><path d="M 0.0 0.0 L 26.8 14.5 " fill="none" stroke="#393E50" stroke-width="3.00" stroke-miterlimit="10.00" stroke-linecap="round" stroke-linejoin="round" transform="matrix(2.00, 0.00, 0.00, 2.00, 1490.0, 491.2)"></path><path d="M 0.0 0.0 L -26.8 0.0 " fill="none" stroke="#393E50" stroke-width="3.00" stroke-miterlimit="10.00" stroke-linecap="round" stroke-linejoin="round" transform="matrix(2.00, 0.00, 0.00, 2.00, 1553.8, 475.0)"></path><path d="M 0.0 0.0 L 0.0 -8.9 C 0.0 -11.1 1.8 -12.9 4.0 -12.9 C 6.3 -12.9 8.1 -11.1 8.1 -8.9 L 8.1 0.0 " fill="none" stroke="#393E50" stroke-width="3.00" stroke-miterlimit="10.00" stroke-linecap="round" stroke-linejoin="round" transform="matrix(2.00, 0.00, 0.00, 2.00, 1537.7, 475.0)"></path><path d="M 0.0 0.0 L -8.1 -0.6 " fill="none" stroke="#393E50" stroke-width="1.00" stroke-miterlimit="10.00" stroke-linecap="round" stroke-linejoin="round" transform="matrix(2.00, 0.00, 0.00, 2.00, 1553.8, 469.2)"></path><path d="M 0.0 0.0 L -8.1 -0.2 " fill="none" stroke="#393E50" stroke-width="1.00" stroke-miterlimit="10.00" stroke-linecap="round" stroke-linejoin="round" transform="matrix(2.00, 0.00, 0.00, 2.00, 1553.8, 460.3)"></path><path d="M 0.0 0.0 L 0.0 -9.9 C 0.0 -12.1 1.8 -13.9 4.0 -13.9 C 6.3 -13.9 8.1 -12.1 8.1 -9.9 L 8.1 0.0 " fill="none" stroke="#393E50" stroke-width="3.00" stroke-miterlimit="10.00" stroke-linecap="round" stroke-linejoin="round" transform="matrix(2.00, 0.00, 0.00, 2.00, 1521.5, 475.0)"></path><path d="M 0.0 0.0 L -8.1 -0.6 " fill="none" stroke="#393E50" stroke-width="1.00" stroke-miterlimit="10.00" stroke-linecap="round" stroke-linejoin="round" transform="matrix(2.00, 0.00, 0.00, 2.00, 1537.7, 467.2)"></path><path d="M 0.0 0.0 L -8.1 -0.2 " fill="none" stroke="#393E50" stroke-width="1.00" stroke-miterlimit="10.00" stroke-linecap="round" stroke-linejoin="round" transform="matrix(2.00, 0.00, 0.00, 2.00, 1537.7, 459.7)"></path><path d="M 0.0 0.0 L 0.0 -9.9 C 0.0 -12.1 -1.8 -13.9 -4.0 -13.9 C -6.3 -13.9 -8.1 -12.1 -8.1 -9.9 L -8.1 0.0 " fill="none" stroke="#393E50" stroke-width="3.00" stroke-miterlimit="10.00" stroke-linecap="round" stroke-linejoin="round" transform="matrix(2.00, 0.00, 0.00, 2.00, 1511.0, 475.0)"></path><path d="M 0.0 0.0 L 8.1 -0.6 " fill="none" stroke="#393E50" stroke-width="1.00" stroke-miterlimit="10.00" stroke-linecap="round" stroke-linejoin="round" transform="matrix(2.00, 0.00, 0.00, 2.00, 1494.8, 467.2)"></path><path d="M 0.0 0.0 L 8.1 -0.2 " fill="none" stroke="#393E50" stroke-width="1.00" stroke-miterlimit="10.00" stroke-linecap="round" stroke-linejoin="round" transform="matrix(2.00, 0.00, 0.00, 2.00, 1494.8, 459.7)"></path><path d="M 0.0 0.0 L -4.9 0.0 C -7.2 0.0 -9.0 -1.8 -9.0 -4.0 C -9.0 -6.3 -7.2 -8.1 -4.9 -8.1 L 4.9 -8.1 " fill="none" stroke="#393E50" stroke-width="3.00" stroke-miterlimit="10.00" stroke-linecap="round" stroke-linejoin="round" transform="matrix(2.00, 0.00, 0.00, 2.00, 1489.2, 491.2)"></path><path d="M 0.0 0.0 L 58.7 0.0 " fill="none" stroke="#393E50" stroke-width="3.00" stroke-miterlimit="10.00" stroke-linecap="round" stroke-linejoin="round" transform="matrix(2.00, 0.00, 0.00, 2.00, 1379.6, 641.9)"></path><path d="M 0.0 0.0 L 131.5 0.0 " fill="none" stroke="#FED97B" stroke-width="3.00" stroke-miterlimit="10.00" stroke-linecap="round" stroke-linejoin="round" transform="matrix(2.00, 0.00, 0.00, 2.00, 1199.5, 475.0)"></path><path d="M 0.0 0.0 L 0.0 -100.5 " fill="none" stroke="#393E50" stroke-width="3.00" stroke-miterlimit="10.00" stroke-linecap="round" stroke-linejoin="round" transform="matrix(2.00, 0.00, 0.00, 2.00, 1380.0, 194.0)"></path><path d="M 0.0 0.0 L 0.0 -100.5 " fill="none" stroke="#393E50" stroke-width="3.00" stroke-miterlimit="10.00" stroke-linecap="round" stroke-linejoin="round" transform="matrix(2.00, 0.00, 0.00, 2.00, 1452.9, 194.0)"></path><path d="M 0.0 0.0 L 0.0 -100.5 " fill="none" stroke="#393E50" stroke-width="3.00" stroke-miterlimit="10.00" stroke-linecap="round" stroke-linejoin="round" transform="matrix(2.00, 0.00, 0.00, 2.00, 1284.5, 194.0)"></path><path d="M 0.0 0.0 L 0.0 -100.5 " fill="none" stroke="#393E50" stroke-width="3.00" stroke-miterlimit="10.00" stroke-linecap="round" stroke-linejoin="round" transform="matrix(2.00, 0.00, 0.00, 2.00, 1211.6, 194.0)"></path><path d="M 0.0 0.0 L 131.5 0.0 " fill="none" stroke="#FED97B" stroke-width="3.00" stroke-miterlimit="10.00" stroke-linecap="round" stroke-linejoin="round" transform="matrix(2.00, 0.00, 0.00, 2.00, 1199.5, 194.0)"></path><path d="M 0.0 0.0 C 12.1 -0.5 24.3 -0.8 36.5 -0.8 " fill="none" stroke="#393E50" stroke-width="3.00" stroke-miterlimit="10.00" stroke-linecap="round" stroke-linejoin="round" transform="matrix(2.00, 0.00, 0.00, 2.00, 1211.6, 177.3)"></path><path d="M 0.0 0.0 C 12.2 1.1 24.4 2.5 36.5 4.2 " fill="none" stroke="#393E50" stroke-width="1.00" stroke-miterlimit="10.00" stroke-linecap="round" stroke-linejoin="round" transform="matrix(2.00, 0.00, 0.00, 2.00, 1211.6, 149.3)"></path><path d="M 0.0 0.0 C 12.1 -0.8 24.3 -1.2 36.5 -1.1 " fill="none" stroke="#393E50" stroke-width="1.00" stroke-miterlimit="10.00" stroke-linecap="round" stroke-linejoin="round" transform="matrix(2.00, 0.00, 0.00, 2.00, 1211.6, 135.8)"></path><path d="M 0.0 0.0 C 12.2 0.3 24.3 0.3 36.5 -0.2 " fill="none" stroke="#393E50" stroke-width="3.00" stroke-miterlimit="10.00" stroke-linecap="round" stroke-linejoin="round" transform="matrix(2.00, 0.00, 0.00, 2.00, 1211.6, 110.6)"></path><path d="M 0.0 0.0 C 12.1 1.7 24.5 1.0 36.5 3.3 " fill="none" stroke="#393E50" stroke-width="1.00" stroke-miterlimit="10.00" stroke-linecap="round" stroke-linejoin="round" transform="matrix(2.00, 0.00, 0.00, 2.00, 1211.6, 89.3)"></path><path d="M 0.0 0.0 L 4.9 0.7 C 14.2 2.1 23.5 3.5 32.8 4.8 L 36.5 5.4 " fill="none" stroke="#393E50" stroke-width="1.00" stroke-miterlimit="10.00" stroke-linecap="round" stroke-linejoin="round" transform="matrix(2.00, 0.00, 0.00, 2.00, 1211.6, 64.1)"></path><path d="M 0.0 0.0 L 3.9 -0.1 C 13.5 -0.4 23.1 -0.6 32.6 -0.9 L 36.5 -1.0 " fill="none" stroke="#393E50" stroke-width="3.00" stroke-miterlimit="10.00" stroke-linecap="round" stroke-linejoin="round" transform="matrix(2.00, 0.00, 0.00, 2.00, 1211.6, 43.6)"></path><path d="M 0.0 0.0 C 12.2 0.0 24.4 0.7 36.5 2.1 " fill="none" stroke="#393E50" stroke-width="1.00" stroke-miterlimit="10.00" stroke-linecap="round" stroke-linejoin="round" transform="matrix(2.00, 0.00, 0.00, 2.00, 1211.6, 17.8)"></path><path d="M 0.0 0.0 C 12.1 1.3 24.3 2.2 36.5 2.7 " fill="none" stroke="#393E50" stroke-width="1.00" stroke-miterlimit="10.00" stroke-linecap="round" stroke-linejoin="round" transform="matrix(2.00, 0.00, 0.00, 2.00, 1380.0, 180.6)"></path><path d="M 0.0 0.0 C 12.2 -0.0 24.3 -0.4 36.5 -1.3 " fill="none" stroke="#393E50" stroke-width="3.00" stroke-miterlimit="10.00" stroke-linecap="round" stroke-linejoin="round" transform="matrix(2.00, 0.00, 0.00, 2.00, 1380.0, 170.9)"></path><path d="M 0.0 0.0 C 12.2 -0.1 24.3 0.4 36.5 1.4 " fill="none" stroke="#393E50" stroke-width="1.00" stroke-miterlimit="10.00" stroke-linecap="round" stroke-linejoin="round" transform="matrix(2.00, 0.00, 0.00, 2.00, 1380.0, 145.7)"></path><path d="M 0.0 0.0 C 12.1 1.6 24.3 2.2 36.5 1.7 " fill="none" stroke="#393E50" stroke-width="3.00" stroke-miterlimit="10.00" stroke-linecap="round" stroke-linejoin="round" transform="matrix(2.00, 0.00, 0.00, 2.00, 1380.0, 122.4)"></path><path d="M 0.0 0.0 C 12.1 1.9 24.3 3.2 36.5 3.9 " fill="none" stroke="#393E50" stroke-width="1.00" stroke-miterlimit="10.00" stroke-linecap="round" stroke-linejoin="round" transform="matrix(2.00, 0.00, 0.00, 2.00, 1380.0, 98.5)"></path><path d="M 0.0 0.0 C 12.2 -0.3 24.3 -0.6 36.5 -1.0 " fill="none" stroke="#393E50" stroke-width="1.00" stroke-miterlimit="10.00" stroke-linecap="round" stroke-linejoin="round" transform="matrix(2.00, 0.00, 0.00, 2.00, 1380.0, 71.4)"></path><path d="M 0.0 0.0 C 12.1 1.2 24.3 2.3 36.4 3.5 " fill="none" stroke="#393E50" stroke-width="3.00" stroke-miterlimit="10.00" stroke-linecap="round" stroke-linejoin="round" transform="matrix(2.00, 0.00, 0.00, 2.00, 1379.8, 43.2)"></path><path d="M 0.0 0.0 C 12.2 0.9 24.3 2.1 36.5 3.6 " fill="none" stroke="#393E50" stroke-width="1.00" stroke-miterlimit="10.00" stroke-linecap="round" stroke-linejoin="round" transform="matrix(2.00, 0.00, 0.00, 2.00, 1380.0, 28.0)"></path><path d="M 0.0 0.0 C 12.2 -0.2 24.4 0.4 36.4 1.8 " fill="none" stroke="#393E50" stroke-width="1.00" stroke-miterlimit="10.00" stroke-linecap="round" stroke-linejoin="round" transform="matrix(2.00, 0.00, 0.00, 2.00, 1380.0, 8.6)"></path></g></g></g></g><text xml:space="preserve" font-family="Roboto-Light" font-size="60.0" fill="#000000" transform="matrix(1.00, 0.00, -0.00, -1.00, 1239.0, 311.0)">a</text><text xml:space="preserve" font-family="Roboto-Light" font-size="60.0" fill="#000000" transform="matrix(1.00, 0.00, -0.00, -1.00, 1271.1, 311.0)">l</text><text xml:space="preserve" font-family="Roboto-Light" font-size="60.0" fill="#000000" transform="matrix(1.00, 0.00, -0.00, -1.00, 1284.6, 311.0)">e</text><text xml:space="preserve" font-family="Roboto-Light" font-size="60.0" fill="#000000" transform="matrix(1.00, 0.00, -0.00, -1.00, 1315.6, 311.0)">x</text><text xml:space="preserve" font-family="Roboto-Light" font-size="60.0" fill="#000000" transform="matrix(1.00, 0.00, -0.00, -1.00, 1344.2, 311.0)">e</text><text xml:space="preserve" font-family="Roboto-Light" font-size="60.0" fill="#000000" transform="matrix(1.00, 0.00, -0.00, -1.00, 1374.8, 311.0)">y</text><text xml:space="preserve" font-family="Roboto-Light" font-size="60.0" fill="#000000" transform="matrix(1.00, 0.00, -0.00, -1.00, 1403.3, 311.0)">@</text><text xml:space="preserve" font-family="Roboto-Light" font-size="60.0" fill="#000000" transform="matrix(1.00, 0.00, -0.00, -1.00, 1458.2, 311.0)">c</text><text xml:space="preserve" font-family="Roboto-Light" font-size="60.0" fill="#000000" transform="matrix(1.00, 0.00, -0.00, -1.00, 1489.1, 311.0)">i</text><text xml:space="preserve" font-family="Roboto-Light" font-size="60.0" fill="#000000" transform="matrix(1.00, 0.00, -0.00, -1.00, 1502.6, 311.0)">m</text><text xml:space="preserve" font-family="Roboto-Light" font-size="60.0" fill="#000000" transform="matrix(1.00, 0.00, -0.00, -1.00, 1555.8, 311.0)">o</text><text xml:space="preserve" font-family="Roboto-Light" font-size="60.0" fill="#000000" transform="matrix(1.00, 0.00, -0.00, -1.00, 1589.4, 311.0)">n</text><text xml:space="preserve" font-family="Roboto-Light" font-size="60.0" fill="#000000" transform="matrix(1.00, 0.00, -0.00, -1.00, 1622.4, 311.0)">.</text><text xml:space="preserve" font-family="Roboto-Light" font-size="60.0" fill="#000000" transform="matrix(1.00, 0.00, -0.00, -1.00, 1636.7, 311.0)">i</text><text xml:space="preserve" font-family="Roboto-Light" font-size="60.0" fill="#000000" transform="matrix(1.00, 0.00, -0.00, -1.00, 1650.2, 311.0)">o</text><g><clipPath id="clip-1818"><path d="M 1238.2 303.9 L 1683.8 303.9 L 1683.8 308.9 L 1238.2 308.9 Z M 1238.2 303.9 "></path></clipPath><g clip-path="url(#clip-1818)"><path d="M 4.5 64.7 L 449.1 64.7 " fill="none" stroke="#000000" stroke-width="2.93" stroke-miterlimit="0.00" transform="matrix(1.00, 0.00, 0.00, -1.00, 1234.7, 371.1)"></path></g></g><text xml:space="preserve" font-family="Roboto-Light" font-size="112.0" fill="#000000" transform="matrix(1.00, 0.00, -0.00, -1.00, 285.0, 669.0)">С</text><text xml:space="preserve" font-family="Roboto-Light" font-size="112.0" fill="#000000" transform="matrix(1.00, 0.00, -0.00, -1.00, 357.8, 669.0)">п</text><text xml:space="preserve" font-family="Roboto-Light" font-size="112.0" fill="#000000" transform="matrix(1.00, 0.00, -0.00, -1.00, 420.7, 669.0)">а</text><text xml:space="preserve" font-family="Roboto-Light" font-size="112.0" fill="#000000" transform="matrix(1.00, 0.00, -0.00, -1.00, 480.7, 669.0)">с</text><text xml:space="preserve" font-family="Roboto-Light" font-size="112.0" fill="#000000" transform="matrix(1.00, 0.00, -0.00, -1.00, 538.4, 669.0)">и</text><text xml:space="preserve" font-family="Roboto-Light" font-size="112.0" fill="#000000" transform="matrix(1.00, 0.00, -0.00, -1.00, 601.3, 669.0)">б</text><text xml:space="preserve" font-family="Roboto-Light" font-size="112.0" fill="#000000" transform="matrix(1.00, 0.00, -0.00, -1.00, 663.0, 669.0)">о</text><text xml:space="preserve" font-family="Roboto-Light" font-size="112.0" fill="#000000" transform="matrix(1.00, 0.00, -0.00, -1.00, 725.7, 669.0)"> </text><text xml:space="preserve" font-family="Roboto-Light" font-size="112.0" fill="#000000" transform="matrix(1.00, 0.00, -0.00, -1.00, 447.0, 538.0)">з</text><text xml:space="preserve" font-family="Roboto-Light" font-size="112.0" fill="#000000" transform="matrix(1.00, 0.00, -0.00, -1.00, 503.7, 538.0)">а</text><text xml:space="preserve" font-family="Roboto-Light" font-size="112.0" fill="#000000" transform="matrix(1.00, 0.00, -0.00, -1.00, 563.7, 538.0)"> </text><text xml:space="preserve" font-family="Roboto-Light" font-size="112.0" fill="#000000" transform="matrix(1.00, 0.00, -0.00, -1.00, 249.0, 407.0)">в</text><text xml:space="preserve" font-family="Roboto-Light" font-size="112.0" fill="#000000" transform="matrix(1.00, 0.00, -0.00, -1.00, 311.6, 407.0)">н</text><text xml:space="preserve" font-family="Roboto-Light" font-size="112.0" fill="#000000" transform="matrix(1.00, 0.00, -0.00, -1.00, 374.6, 407.0)">и</text><text xml:space="preserve" font-family="Roboto-Light" font-size="112.0" fill="#000000" transform="matrix(1.00, 0.00, -0.00, -1.00, 437.5, 407.0)">м</text><text xml:space="preserve" font-family="Roboto-Light" font-size="112.0" fill="#000000" transform="matrix(1.00, 0.00, -0.00, -1.00, 519.4, 407.0)">а</text><text xml:space="preserve" font-family="Roboto-Light" font-size="112.0" fill="#000000" transform="matrix(1.00, 0.00, -0.00, -1.00, 579.3, 407.0)">н</text><text xml:space="preserve" font-family="Roboto-Light" font-size="112.0" fill="#000000" transform="matrix(1.00, 0.00, -0.00, -1.00, 642.3, 407.0)">и</text><text xml:space="preserve" font-family="Roboto-Light" font-size="112.0" fill="#000000" transform="matrix(1.00, 0.00, -0.00, -1.00, 705.2, 407.0)">е</text></g></svg>