<?xml version="1.0" encoding="UTF-8" standalone="no"?><svg xmlns="http://www.w3.org/2000/svg" xmlns:xlink="http://www.w3.org/1999/xlink" clip-rule="evenodd" stroke-miterlimit="4.00" viewBox="0 0 1920 1080"><desc>SVG generated by Keynote</desc><defs></defs><g transform="matrix(1.00, 0.00, -0.00, -1.00, 0.0, 1080.0)"><path d="M 0.0 1080.0 L 1920.0 1080.0 L 1920.0 0.0 L 0.0 0.0 Z M 0.0 1080.0 " fill="#FECF60"></path><g><clipPath id="clip-1170"><path d="M 1785.0 64.0 L 1906.0 64.0 L 1906.0 -3.0 L 1785.0 -3.0 Z M 1785.0 64.0 "></path></clipPath><g clip-path="url(#clip-1170)"><g><clipPath id="clip-1171"><path d="M 1785.0 -3.0 L 1905.6 -3.0 L 1905.6 64.0 L 1785.0 64.0 Z M 1785.0 -3.0 "></path></clipPath><g clip-path="url(#clip-1171)"><path d="M 1903.6 44.0 C 1902.4 44.0 1901.5 43.2 1901.2 42.1 L 1892.4 42.1 L 1892.4 47.0 C 1892.4 47.3 1892.2 47.5 1891.9 47.5 L 1889.1 47.5 L 1889.1 50.8 L 1889.1 50.8 L 1889.1 50.8 C 1889.1 58.1 1883.2 64.0 1875.8 64.0 C 1870.2 64.0 1865.4 60.5 1863.5 55.6 L 1850.1 53.8 C 1848.4 55.4 1846.1 56.4 1843.6 56.4 C 1838.5 56.4 1834.4 52.5 1834.1 47.5 L 1831.4 47.5 C 1831.1 47.5 1830.8 47.3 1830.8 47.0 L 1830.8 42.1 L 1820.8 42.1 C 1820.5 43.2 1819.6 44.0 1818.4 44.0 C 1817.1 44.0 1816.0 42.9 1816.0 41.6 C 1816.0 40.3 1817.1 39.2 1818.4 39.2 C 1819.6 39.2 1820.5 40.0 1820.8 41.0 L 1830.8 41.0 L 1830.8 36.2 C 1830.8 35.9 1831.1 35.6 1831.4 35.6 L 1834.1 35.6 L 1834.1 32.6 C 1834.1 32.6 1834.1 32.6 1834.1 32.6 C 1834.1 32.5 1834.1 32.5 1834.1 32.5 C 1834.1 32.5 1834.1 32.5 1834.1 32.5 C 1834.1 32.4 1834.1 32.4 1834.1 32.4 C 1834.1 32.4 1834.1 32.4 1834.1 32.4 C 1834.1 32.3 1834.1 32.3 1834.2 32.3 C 1834.2 32.3 1834.2 32.3 1834.2 32.3 C 1834.2 32.3 1834.2 32.3 1834.2 32.3 L 1839.4 25.9 C 1836.5 21.8 1833.9 17.5 1831.7 13.1 C 1831.7 13.1 1831.6 13.0 1831.6 13.0 C 1830.9 11.6 1830.2 10.2 1829.6 8.7 C 1829.6 8.7 1829.5 8.7 1829.5 8.7 C 1829.5 8.7 1829.5 8.7 1829.5 8.7 C 1829.0 7.6 1828.5 6.5 1828.1 5.4 C 1825.4 11.1 1823.3 17.1 1821.8 23.2 L 1823.0 23.6 C 1823.4 23.8 1823.8 24.2 1824.0 24.7 C 1824.3 25.2 1824.3 25.7 1824.1 26.2 C 1823.7 27.2 1822.5 27.7 1821.5 27.3 L 1821.0 27.1 L 1821.0 30.8 C 1821.0 31.9 1820.1 32.8 1819.0 32.8 C 1817.9 32.8 1817.1 31.9 1817.0 30.8 L 1817.0 31.9 C 1817.0 33.0 1816.2 33.8 1815.1 33.8 C 1814.0 33.8 1813.1 33.0 1813.1 31.9 L 1813.1 26.9 L 1813.1 26.9 L 1813.1 29.5 C 1813.1 30.6 1812.2 31.5 1811.1 31.5 C 1810.0 31.5 1809.1 30.6 1809.1 29.5 L 1809.1 26.4 L 1809.1 26.4 L 1809.1 26.4 C 1809.1 26.3 1809.1 26.3 1809.1 26.3 C 1809.1 26.3 1809.1 26.3 1809.1 26.3 C 1809.7 23.3 1810.3 20.5 1811.1 17.6 C 1811.1 17.6 1811.1 17.5 1811.1 17.5 C 1811.1 17.5 1811.1 17.5 1811.1 17.5 C 1811.8 15.1 1812.5 12.7 1813.4 10.4 C 1813.4 10.3 1813.4 10.3 1813.4 10.3 C 1813.4 10.3 1813.4 10.3 1813.4 10.3 C 1814.9 5.8 1816.8 1.5 1818.9 -2.7 C 1818.9 -2.7 1818.9 -2.7 1818.9 -2.7 C 1818.9 -2.8 1818.9 -2.8 1819.0 -2.8 C 1819.0 -2.8 1819.0 -2.8 1819.0 -2.8 C 1819.0 -2.9 1819.0 -2.9 1819.1 -2.9 C 1819.1 -2.9 1819.1 -2.9 1819.1 -2.9 C 1819.1 -2.9 1819.2 -3.0 1819.2 -3.0 C 1819.2 -3.0 1819.2 -3.0 1819.2 -3.0 C 1819.3 -3.0 1819.3 -3.0 1819.4 -3.0 C 1819.4 -3.0 1819.4 -3.0 1819.4 -3.0 C 1819.4 -3.0 1819.4 -3.0 1819.4 -3.0 L 1831.5 -3.0 C 1831.5 -3.0 1831.5 -3.0 1831.5 -3.0 C 1831.5 -3.0 1831.5 -3.0 1831.5 -3.0 L 1837.1 -3.0 C 1837.1 -3.0 1837.1 -3.0 1837.1 -3.0 C 1837.1 -3.0 1837.1 -3.0 1837.1 -3.0 L 1857.0 -3.0 C 1857.0 -3.0 1857.0 -3.0 1857.0 -3.0 C 1857.0 -3.0 1857.0 -3.0 1857.0 -3.0 L 1866.2 -3.0 C 1866.2 -3.0 1866.2 -3.0 1866.2 -3.0 C 1866.2 -3.0 1866.2 -3.0 1866.2 -3.0 L 1886.1 -3.0 C 1886.1 -3.0 1886.1 -3.0 1886.1 -3.0 C 1886.1 -3.0 1886.1 -3.0 1886.1 -3.0 L 1894.1 -3.0 C 1894.1 -3.0 1894.1 -3.0 1894.1 -3.0 C 1894.1 -3.0 1894.1 -3.0 1894.1 -3.0 L 1897.5 -3.0 C 1897.5 -3.0 1897.5 -3.0 1897.5 -3.0 C 1897.5 -3.0 1897.5 -3.0 1897.5 -3.0 C 1897.6 -3.0 1897.6 -3.0 1897.7 -3.0 C 1897.7 -3.0 1897.7 -3.0 1897.7 -3.0 C 1897.7 -3.0 1897.7 -3.0 1897.7 -3.0 C 1897.7 -3.0 1897.7 -2.9 1897.7 -2.9 C 1897.8 -2.9 1897.8 -2.9 1897.8 -2.9 C 1897.8 -2.9 1897.8 -2.9 1897.8 -2.9 C 1897.8 -2.9 1897.9 -2.9 1897.9 -2.9 C 1897.9 -2.8 1897.9 -2.8 1897.9 -2.8 C 1897.9 -2.8 1897.9 -2.8 1897.9 -2.8 C 1897.9 -2.8 1898.0 -2.7 1898.0 -2.7 C 1898.0 -2.7 1898.0 -2.7 1898.0 -2.7 C 1898.0 -2.7 1898.0 -2.7 1898.0 -2.6 C 1898.0 -2.6 1898.0 -2.6 1898.0 -2.6 C 1898.0 -2.6 1898.0 -2.6 1898.0 -2.5 C 1898.0 -2.5 1898.0 -2.5 1898.0 -2.5 C 1898.0 -2.5 1898.0 -2.5 1898.0 -2.5 C 1898.0 -2.5 1898.0 -2.4 1898.0 -2.4 C 1898.0 -2.4 1898.0 -2.4 1898.0 -2.4 C 1898.0 -2.4 1898.0 -2.3 1898.0 -2.3 C 1898.0 -2.3 1898.0 -2.3 1898.0 -2.3 C 1897.9 -1.8 1897.7 -1.4 1897.5 -0.9 C 1897.5 -0.9 1897.5 -0.8 1897.5 -0.8 C 1896.4 2.4 1895.1 5.6 1893.7 8.7 C 1893.7 8.7 1893.7 8.7 1893.7 8.7 C 1893.7 8.7 1893.7 8.7 1893.7 8.7 C 1893.0 10.2 1892.3 11.6 1891.6 13.0 C 1891.6 13.0 1891.6 13.1 1891.5 13.1 C 1889.3 17.5 1886.7 21.8 1883.9 25.9 L 1889.0 32.3 C 1889.0 32.3 1889.0 32.3 1889.0 32.3 C 1889.0 32.3 1889.1 32.3 1889.1 32.3 C 1889.1 32.3 1889.1 32.3 1889.1 32.4 C 1889.1 32.4 1889.1 32.4 1889.1 32.4 C 1889.1 32.4 1889.1 32.4 1889.1 32.5 C 1889.1 32.5 1889.1 32.5 1889.1 32.5 C 1889.1 32.5 1889.1 32.5 1889.1 32.6 C 1889.1 32.6 1889.1 32.6 1889.1 32.6 L 1889.1 35.6 L 1891.9 35.6 C 1892.2 35.6 1892.4 35.9 1892.4 36.2 L 1892.4 41.0 L 1901.2 41.0 C 1901.5 40.0 1902.4 39.2 1903.6 39.2 C 1904.9 39.2 1906.0 40.3 1906.0 41.6 C 1906.0 42.9 1904.9 44.0 1903.6 44.0 " fill="#E9C05A"></path><path d="M 1879.5 44.0 C 1878.3 44.0 1877.4 43.2 1877.1 42.1 L 1868.3 42.1 L 1868.3 47.0 C 1868.3 47.3 1868.1 47.5 1867.8 47.5 L 1865.0 47.5 L 1865.0 50.8 L 1865.0 50.8 L 1865.0 50.8 C 1865.0 58.1 1859.1 64.0 1851.7 64.0 C 1846.1 64.0 1841.3 60.5 1839.4 55.6 L 1826.0 53.8 C 1824.3 55.4 1822.0 56.4 1819.5 56.4 C 1814.4 56.4 1810.3 52.5 1810.0 47.5 L 1807.3 47.5 C 1807.0 47.5 1806.7 47.3 1806.7 47.0 L 1806.7 42.1 L 1796.7 42.1 C 1796.4 43.2 1795.5 44.0 1794.3 44.0 C 1793.0 44.0 1791.9 42.9 1791.9 41.6 C 1791.9 40.3 1793.0 39.2 1794.3 39.2 C 1795.5 39.2 1796.4 40.0 1796.7 41.0 L 1806.7 41.0 L 1806.7 36.2 C 1806.7 35.9 1807.0 35.6 1807.3 35.6 L 1810.0 35.6 L 1810.0 32.6 C 1810.0 32.6 1810.0 32.6 1810.0 32.6 C 1810.0 32.5 1810.0 32.5 1810.0 32.5 C 1810.0 32.5 1810.0 32.5 1810.0 32.5 C 1810.0 32.4 1810.0 32.4 1810.0 32.4 C 1810.0 32.4 1810.0 32.4 1810.0 32.4 C 1810.0 32.3 1810.0 32.3 1810.1 32.3 C 1810.1 32.3 1810.1 32.3 1810.1 32.3 C 1810.1 32.3 1810.1 32.3 1810.1 32.3 L 1815.3 25.9 C 1812.4 21.8 1809.8 17.5 1807.6 13.1 C 1807.5 13.1 1807.5 13.0 1807.5 13.0 C 1806.8 11.6 1806.1 10.2 1805.5 8.7 C 1805.5 8.7 1805.4 8.7 1805.4 8.7 C 1805.4 8.7 1805.4 8.7 1805.4 8.7 C 1804.9 7.6 1804.4 6.5 1804.0 5.4 C 1801.3 11.1 1799.2 17.1 1797.7 23.2 L 1798.9 23.6 C 1799.3 23.8 1799.7 24.2 1799.9 24.7 C 1800.2 25.2 1800.2 25.7 1800.0 26.2 C 1799.6 27.2 1798.4 27.7 1797.4 27.3 L 1796.9 27.1 L 1796.9 30.8 C 1796.9 31.9 1796.0 32.8 1794.9 32.8 C 1793.8 32.8 1793.0 31.9 1792.9 30.8 L 1792.9 31.9 C 1792.9 33.0 1792.0 33.8 1791.0 33.8 C 1789.9 33.8 1789.0 33.0 1789.0 31.9 L 1789.0 26.9 L 1789.0 26.9 L 1789.0 29.5 C 1789.0 30.6 1788.1 31.5 1787.0 31.5 C 1785.9 31.5 1785.0 30.6 1785.0 29.5 L 1785.0 26.4 L 1785.0 26.4 L 1785.0 26.4 C 1785.0 26.3 1785.0 26.3 1785.0 26.3 C 1785.0 26.3 1785.0 26.3 1785.0 26.3 C 1785.6 23.3 1786.2 20.5 1787.0 17.6 C 1787.0 17.6 1787.0 17.5 1787.0 17.5 C 1787.0 17.5 1787.0 17.5 1787.0 17.5 C 1787.7 15.1 1788.4 12.7 1789.3 10.4 C 1789.3 10.3 1789.3 10.3 1789.3 10.3 C 1789.3 10.3 1789.3 10.3 1789.3 10.3 C 1790.8 5.8 1792.7 1.5 1794.8 -2.7 C 1794.8 -2.7 1794.8 -2.7 1794.8 -2.7 C 1794.8 -2.8 1794.8 -2.8 1794.9 -2.8 C 1794.9 -2.8 1794.9 -2.8 1794.9 -2.8 C 1794.9 -2.9 1794.9 -2.9 1795.0 -2.9 C 1795.0 -2.9 1795.0 -2.9 1795.0 -2.9 C 1795.0 -2.9 1795.1 -3.0 1795.1 -3.0 C 1795.1 -3.0 1795.1 -3.0 1795.1 -3.0 C 1795.2 -3.0 1795.2 -3.0 1795.3 -3.0 C 1795.3 -3.0 1795.3 -3.0 1795.3 -3.0 C 1795.3 -3.0 1795.3 -3.0 1795.3 -3.0 L 1807.4 -3.0 C 1807.4 -3.0 1807.4 -3.0 1807.4 -3.0 C 1807.4 -3.0 1807.4 -3.0 1807.4 -3.0 L 1813.0 -3.0 C 1813.0 -3.0 1813.0 -3.0 1813.0 -3.0 C 1813.0 -3.0 1813.0 -3.0 1813.0 -3.0 L 1832.9 -3.0 C 1832.9 -3.0 1832.9 -3.0 1832.9 -3.0 C 1832.9 -3.0 1832.9 -3.0 1832.9 -3.0 L 1842.1 -3.0 C 1842.1 -3.0 1842.1 -3.0 1842.1 -3.0 C 1842.1 -3.0 1842.1 -3.0 1842.1 -3.0 L 1862.0 -3.0 C 1862.0 -3.0 1862.0 -3.0 1862.0 -3.0 C 1862.0 -3.0 1862.0 -3.0 1862.0 -3.0 L 1870.0 -3.0 C 1870.0 -3.0 1870.0 -3.0 1870.0 -3.0 C 1870.0 -3.0 1870.0 -3.0 1870.0 -3.0 L 1873.4 -3.0 C 1873.4 -3.0 1873.4 -3.0 1873.4 -3.0 C 1873.4 -3.0 1873.4 -3.0 1873.4 -3.0 C 1873.5 -3.0 1873.5 -3.0 1873.5 -3.0 C 1873.6 -3.0 1873.6 -3.0 1873.6 -3.0 C 1873.6 -3.0 1873.6 -3.0 1873.6 -3.0 C 1873.6 -3.0 1873.6 -2.9 1873.6 -2.9 C 1873.7 -2.9 1873.7 -2.9 1873.7 -2.9 C 1873.7 -2.9 1873.7 -2.9 1873.7 -2.9 C 1873.7 -2.9 1873.8 -2.9 1873.8 -2.9 C 1873.8 -2.8 1873.8 -2.8 1873.8 -2.8 C 1873.8 -2.8 1873.8 -2.8 1873.8 -2.8 C 1873.8 -2.8 1873.9 -2.7 1873.9 -2.7 C 1873.9 -2.7 1873.9 -2.7 1873.9 -2.7 C 1873.9 -2.7 1873.9 -2.7 1873.9 -2.6 C 1873.9 -2.6 1873.9 -2.6 1873.9 -2.6 C 1873.9 -2.6 1873.9 -2.6 1873.9 -2.5 C 1873.9 -2.5 1873.9 -2.5 1873.9 -2.5 C 1873.9 -2.5 1873.9 -2.5 1873.9 -2.5 C 1873.9 -2.5 1873.9 -2.4 1873.9 -2.4 C 1873.9 -2.4 1873.9 -2.4 1873.9 -2.4 C 1873.9 -2.4 1873.9 -2.3 1873.9 -2.3 C 1873.9 -2.3 1873.9 -2.3 1873.9 -2.3 C 1873.7 -1.8 1873.6 -1.4 1873.4 -0.9 C 1873.4 -0.9 1873.4 -0.8 1873.4 -0.8 C 1872.3 2.4 1871.0 5.6 1869.6 8.7 C 1869.6 8.7 1869.6 8.7 1869.6 8.7 C 1869.6 8.7 1869.6 8.7 1869.6 8.7 C 1868.9 10.2 1868.2 11.6 1867.5 13.0 C 1867.5 13.0 1867.5 13.1 1867.4 13.1 C 1865.2 17.5 1862.6 21.8 1859.8 25.9 L 1864.9 32.3 C 1864.9 32.3 1864.9 32.3 1864.9 32.3 C 1864.9 32.3 1865.0 32.3 1865.0 32.3 C 1865.0 32.3 1865.0 32.3 1865.0 32.4 C 1865.0 32.4 1865.0 32.4 1865.0 32.4 C 1865.0 32.4 1865.0 32.4 1865.0 32.5 C 1865.0 32.5 1865.0 32.5 1865.0 32.5 C 1865.0 32.5 1865.0 32.5 1865.0 32.6 C 1865.0 32.6 1865.0 32.6 1865.0 32.6 L 1865.0 35.6 L 1867.8 35.6 C 1868.1 35.6 1868.3 35.9 1868.3 36.2 L 1868.3 41.0 L 1877.1 41.0 C 1877.4 40.0 1878.3 39.2 1879.5 39.2 C 1880.8 39.2 1881.9 40.3 1881.9 41.6 C 1881.9 42.9 1880.8 44.0 1879.5 44.0 " fill="#FED97B"></path><path d="M 0.0 0.0 L 106.1 0.0 C 109.5 -4.8 111.5 -10.6 111.5 -16.9 C 111.5 -28.3 104.9 -38.2 95.3 -43.0 " fill="none" stroke="#393E50" stroke-width="3.00" stroke-miterlimit="0.00" stroke-linecap="round" stroke-linejoin="round" transform="matrix(0.36, 0.00, 0.00, 0.36, 1808.0, 12.8)"></path><path d="M 0.0 0.0 C 8.6 21.3 19.7 42.0 33.3 61.7 " fill="none" stroke="#393E50" stroke-width="3.00" stroke-miterlimit="0.00" stroke-linecap="round" stroke-linejoin="round" transform="matrix(0.36, 0.00, 0.00, 0.36, 1804.0, 4.0)"></path><path d="M 0.0 0.0 C 5.3 -2.2 10.5 -4.8 15.5 -7.7 L 47.5 -10.1 " fill="none" stroke="#393E50" stroke-width="1.00" stroke-miterlimit="0.00" stroke-linecap="round" stroke-linejoin="round" transform="matrix(0.36, 0.00, 0.00, 0.36, 1810.4, 12.8)"></path><path d="M 0.0 0.0 C -7.9 4.5 -16.1 8.5 -24.5 11.9 " fill="none" stroke="#393E50" stroke-width="1.00" stroke-miterlimit="0.00" stroke-linecap="round" stroke-linejoin="round" transform="matrix(0.36, 0.00, 0.00, 0.36, 1815.9, 6.8)"></path><path d="M 0.0 0.0 C -8.7 5.0 -17.7 9.4 -26.9 13.2 " fill="none" stroke="#393E50" stroke-width="3.00" stroke-miterlimit="0.00" stroke-linecap="round" stroke-linejoin="round" transform="matrix(0.36, 0.00, 0.00, 0.36, 1815.6, 3.8)"></path><path d="M 0.0 0.0 C -8.8 4.8 -17.8 9.1 -27.1 12.9 " fill="none" stroke="#393E50" stroke-width="1.00" stroke-miterlimit="0.00" stroke-linecap="round" stroke-linejoin="round" transform="matrix(0.36, 0.00, 0.00, 0.36, 1814.3, 0.8)"></path><path d="M 0.0 0.0 C 2.5 6.7 5.2 13.3 8.3 19.8 " fill="none" stroke="#393E50" stroke-width="3.00" stroke-miterlimit="0.00" stroke-linecap="round" stroke-linejoin="round" transform="matrix(0.36, 0.00, 0.00, 0.36, 1813.0, -2.5)"></path><path d="M 0.0 0.0 C 5.2 -27.7 14.2 -55.0 27.2 -81.1 " fill="none" stroke="#393E50" stroke-width="3.00" stroke-miterlimit="0.00" stroke-linecap="round" stroke-linejoin="round" transform="matrix(0.36, 0.00, 0.00, 0.36, 1785.5, 26.4)"></path><path d="M 0.0 0.0 C -13.1 23.1 -22.7 47.7 -28.8 73.1 " fill="none" stroke="#393E50" stroke-width="3.00" stroke-miterlimit="0.00" stroke-linecap="round" stroke-linejoin="round" transform="matrix(0.36, 0.00, 0.00, 0.36, 1807.4, -2.5)"></path><path d="M 0.0 0.0 C -8.7 -5.0 -17.6 -9.5 -26.9 -13.3 " fill="none" stroke="#393E50" stroke-width="1.00" stroke-miterlimit="0.00" stroke-linecap="round" stroke-linejoin="round" transform="matrix(0.36, 0.00, 0.00, 0.36, 1804.4, 3.2)"></path><path d="M 0.0 0.0 C -8.7 -5.0 -17.7 -9.4 -26.9 -13.2 " fill="none" stroke="#393E50" stroke-width="3.00" stroke-miterlimit="0.00" stroke-linecap="round" stroke-linejoin="round" transform="matrix(0.36, 0.00, 0.00, 0.36, 1803.2, 5.7)"></path><path d="M 0.0 0.0 C -8.8 -4.8 -17.8 -9.1 -27.1 -12.9 " fill="none" stroke="#393E50" stroke-width="1.00" stroke-miterlimit="0.00" stroke-linecap="round" stroke-linejoin="round" transform="matrix(0.36, 0.00, 0.00, 0.36, 1801.9, 8.7)"></path><path d="M 0.0 0.0 C -8.8 -4.9 -17.6 -9.8 -26.4 -14.8 " fill="none" stroke="#393E50" stroke-width="1.00" stroke-miterlimit="0.00" stroke-linecap="round" stroke-linejoin="round" transform="matrix(0.36, 0.00, 0.00, 0.36, 1801.1, 10.8)"></path><path d="M 0.0 0.0 C -8.5 -5.5 -17.4 -10.5 -26.4 -15.0 " fill="none" stroke="#393E50" stroke-width="1.00" stroke-miterlimit="0.00" stroke-linecap="round" stroke-linejoin="round" transform="matrix(0.36, 0.00, 0.00, 0.36, 1800.1, 13.4)"></path><path d="M 0.0 0.0 C -8.6 -5.5 -17.4 -10.4 -26.6 -14.8 " fill="none" stroke="#393E50" stroke-width="3.00" stroke-miterlimit="0.00" stroke-linecap="round" stroke-linejoin="round" transform="matrix(0.36, 0.00, 0.00, 0.36, 1799.3, 15.7)"></path><path d="M 0.0 0.0 L -27.1 -13.8 " fill="none" stroke="#393E50" stroke-width="1.00" stroke-miterlimit="0.00" stroke-linecap="round" stroke-linejoin="round" transform="matrix(0.36, 0.00, 0.00, 0.36, 1798.6, 17.9)"></path><path d="M 0.0 0.0 C -8.9 -4.9 -18.0 -9.5 -27.2 -13.7 " fill="none" stroke="#393E50" stroke-width="1.00" stroke-miterlimit="0.00" stroke-linecap="round" stroke-linejoin="round" transform="matrix(0.36, 0.00, 0.00, 0.36, 1798.0, 20.2)"></path><path d="M 0.0 0.0 C -9.2 -3.9 -18.6 -7.4 -28.1 -10.6 " fill="none" stroke="#393E50" stroke-width="3.00" stroke-miterlimit="0.00" stroke-linecap="round" stroke-linejoin="round" transform="matrix(0.36, 0.00, 0.00, 0.36, 1797.6, 21.5)"></path><path d="M 0.0 0.0 L 0.0 8.9 C 0.0 11.1 -1.8 12.9 -4.0 12.9 L -4.0 12.9 C -6.3 12.9 -8.1 11.1 -8.1 8.9 L -8.1 0.0 " fill="none" stroke="#393E50" stroke-width="3.00" stroke-miterlimit="0.00" stroke-linecap="round" stroke-linejoin="round" transform="matrix(0.36, 0.00, 0.00, 0.36, 1788.4, 26.4)"></path><path d="M 0.0 0.0 L 8.1 0.6 " fill="none" stroke="#393E50" stroke-width="1.00" stroke-miterlimit="0.00" stroke-linecap="round" stroke-linejoin="round" transform="matrix(0.36, 0.00, 0.00, 0.36, 1785.5, 27.4)"></path><path d="M 0.0 0.0 L 8.1 0.2 " fill="none" stroke="#393E50" stroke-width="1.00" stroke-miterlimit="0.00" stroke-linecap="round" stroke-linejoin="round" transform="matrix(0.36, 0.00, 0.00, 0.36, 1785.5, 29.0)"></path><path d="M 0.0 0.0 L 0.0 15.5 C 0.0 17.8 -1.8 19.6 -4.0 19.6 L -4.0 19.6 C -6.3 19.6 -8.1 17.8 -8.1 15.5 L -8.1 0.0 " fill="none" stroke="#393E50" stroke-width="3.00" stroke-miterlimit="0.00" stroke-linecap="round" stroke-linejoin="round" transform="matrix(0.36, 0.00, 0.00, 0.36, 1792.4, 26.4)"></path><path d="M 0.0 0.0 L 8.1 0.6 " fill="none" stroke="#393E50" stroke-width="1.00" stroke-miterlimit="0.00" stroke-linecap="round" stroke-linejoin="round" transform="matrix(0.36, 0.00, 0.00, 0.36, 1789.5, 27.7)"></path><path d="M 0.0 0.0 L 8.1 0.2 " fill="none" stroke="#393E50" stroke-width="1.00" stroke-miterlimit="0.00" stroke-linecap="round" stroke-linejoin="round" transform="matrix(0.36, 0.00, 0.00, 0.36, 1789.5, 29.1)"></path><path d="M 0.0 0.0 L 8.1 0.6 " fill="none" stroke="#393E50" stroke-width="1.00" stroke-miterlimit="0.00" stroke-linecap="round" stroke-linejoin="round" transform="matrix(0.36, 0.00, 0.00, 0.36, 1789.5, 29.5)"></path><path d="M 0.0 0.0 L 8.1 0.2 " fill="none" stroke="#393E50" stroke-width="1.00" stroke-miterlimit="0.00" stroke-linecap="round" stroke-linejoin="round" transform="matrix(0.36, 0.00, 0.00, 0.36, 1789.5, 30.9)"></path><path d="M 0.0 0.0 L 0.0 12.5 C 0.0 14.8 -1.8 16.6 -4.0 16.6 L -4.0 16.6 C -6.3 16.6 -8.1 14.8 -8.1 12.5 L -8.1 0.0 " fill="none" stroke="#393E50" stroke-width="3.00" stroke-miterlimit="0.00" stroke-linecap="round" stroke-linejoin="round" transform="matrix(0.36, 0.00, 0.00, 0.36, 1796.4, 26.4)"></path><path d="M 0.0 0.0 L 8.1 0.6 " fill="none" stroke="#393E50" stroke-width="1.00" stroke-miterlimit="0.00" stroke-linecap="round" stroke-linejoin="round" transform="matrix(0.36, 0.00, 0.00, 0.36, 1793.5, 26.7)"></path><path d="M 0.0 0.0 L 8.1 0.2 " fill="none" stroke="#393E50" stroke-width="1.00" stroke-miterlimit="0.00" stroke-linecap="round" stroke-linejoin="round" transform="matrix(0.36, 0.00, 0.00, 0.36, 1793.5, 28.0)"></path><path d="M 0.0 0.0 L 8.1 0.6 " fill="none" stroke="#393E50" stroke-width="1.00" stroke-miterlimit="0.00" stroke-linecap="round" stroke-linejoin="round" transform="matrix(0.36, 0.00, 0.00, 0.36, 1793.5, 28.5)"></path><path d="M 0.0 0.0 L 8.1 0.2 " fill="none" stroke="#393E50" stroke-width="1.00" stroke-miterlimit="0.00" stroke-linecap="round" stroke-linejoin="round" transform="matrix(0.36, 0.00, 0.00, 0.36, 1793.5, 29.8)"></path><path d="M 0.0 0.0 L 3.2 1.3 C 5.3 2.1 7.6 1.1 8.4 -1.0 L 8.4 -1.0 C 9.3 -3.1 8.2 -5.4 6.2 -6.3 L -3.0 -9.9 " fill="none" stroke="#393E50" stroke-width="3.00" stroke-miterlimit="0.00" stroke-linecap="round" stroke-linejoin="round" transform="matrix(0.36, 0.00, 0.00, 0.36, 1796.5, 26.4)"></path><path d="M 0.0 0.0 C 4.8 2.0 9.4 4.7 13.5 7.8 " fill="none" stroke="#393E50" stroke-width="1.00" stroke-miterlimit="0.00" stroke-linecap="round" stroke-linejoin="round" transform="matrix(0.36, 0.00, 0.00, 0.36, 1801.0, -2.5)"></path><path d="M 0.0 0.0 C 1.5 1.2 3.0 2.5 4.4 3.8 " fill="none" stroke="#393E50" stroke-width="1.00" stroke-miterlimit="0.00" stroke-linecap="round" stroke-linejoin="round" transform="matrix(0.36, 0.00, 0.00, 0.36, 1805.1, -2.5)"></path><path d="M 0.0 0.0 C 5.0 -3.4 9.8 -7.2 14.2 -11.4 " fill="none" stroke="#393E50" stroke-width="3.00" stroke-miterlimit="0.00" stroke-linecap="round" stroke-linejoin="round" transform="matrix(0.36, 0.00, 0.00, 0.36, 1805.4, 1.6)"></path><path d="M 0.0 0.0 C 0.0 -19.7 -16.0 -35.7 -35.7 -35.7 C -55.4 -35.7 -71.4 -19.7 -71.4 0.0 C -71.4 19.7 -55.4 35.7 -35.7 35.7 C -16.0 35.7 0.0 19.7 0.0 0.0 Z M 0.0 0.0 " fill="none" stroke="#393E50" stroke-width="3.00" stroke-miterlimit="0.00" stroke-linecap="round" stroke-linejoin="round" transform="matrix(0.36, 0.00, 0.00, 0.36, 1864.5, 50.8)"></path><path d="M 0.0 0.0 C -16.5 0.0 -29.9 13.4 -29.9 29.9 C -29.9 46.3 -16.5 59.7 0.0 59.7 C 16.5 59.7 29.9 46.3 29.9 29.9 C 29.9 13.4 16.5 0.0 0.0 0.0 Z M 0.0 0.0 " fill="none" stroke="#393E50" stroke-width="2.00" stroke-miterlimit="0.00" stroke-linecap="round" stroke-linejoin="round" transform="matrix(0.36, 0.00, 0.00, 0.36, 1851.7, 40.2)"></path><path d="M 0.0 0.0 C -13.6 0.0 -24.6 11.1 -24.6 24.6 C -24.6 38.2 -13.6 49.3 0.0 49.3 C 13.6 49.3 24.6 38.2 24.6 24.6 C 24.6 11.1 13.6 0.0 0.0 0.0 Z M 0.0 0.0 " fill="none" stroke="#393E50" stroke-width="6.00" stroke-miterlimit="0.00" stroke-linecap="round" stroke-linejoin="round" transform="matrix(0.36, 0.00, 0.00, 0.36, 1851.7, 42.0)"></path><path d="M 0.0 0.0 C -11.4 0.0 -20.6 9.3 -20.6 20.6 C -20.6 32.0 -11.4 41.3 0.0 41.3 C 11.4 41.3 20.6 32.0 20.6 20.6 C 20.6 9.3 11.4 0.0 0.0 0.0 Z M 0.0 0.0 " fill="none" stroke="#393E50" stroke-width="1.00" stroke-miterlimit="0.00" stroke-linecap="round" stroke-linejoin="round" stroke-dasharray="2.0" transform="matrix(0.36, 0.00, 0.00, 0.36, 1851.7, 43.5)"></path><path d="M 0.0 0.0 C 0.0 -13.8 -11.2 -25.0 -25.0 -25.0 C -38.8 -25.0 -50.0 -13.8 -50.0 0.0 C -50.0 13.8 -38.8 25.0 -25.0 25.0 C -11.2 25.0 0.0 13.8 0.0 0.0 Z M 0.0 0.0 " fill="none" stroke="#393E50" stroke-width="3.00" stroke-miterlimit="0.00" stroke-linecap="round" stroke-linejoin="round" transform="matrix(0.36, 0.00, 0.00, 0.36, 1828.4, 47.0)"></path><path d="M 0.0 0.0 C -10.6 0.0 -19.2 8.6 -19.2 19.2 C -19.2 29.7 -10.6 38.3 0.0 38.3 C 10.6 38.3 19.2 29.7 19.2 19.2 C 19.2 8.6 10.6 0.0 0.0 0.0 Z M 0.0 0.0 " fill="none" stroke="#393E50" stroke-width="2.00" stroke-miterlimit="0.00" stroke-linecap="round" stroke-linejoin="round" transform="matrix(0.36, 0.00, 0.00, 0.36, 1819.5, 40.2)"></path><path d="M 0.0 0.0 C -7.7 0.0 -13.9 6.2 -13.9 13.9 C -13.9 21.6 -7.7 27.9 0.0 27.9 C 7.7 27.9 13.9 21.6 13.9 13.9 C 13.9 6.2 7.7 0.0 0.0 0.0 Z M 0.0 0.0 " fill="none" stroke="#393E50" stroke-width="6.00" stroke-miterlimit="0.00" stroke-linecap="round" stroke-linejoin="round" transform="matrix(0.36, 0.00, 0.00, 0.36, 1819.5, 42.0)"></path><path d="M 0.0 0.0 C -5.5 0.0 -9.9 4.5 -9.9 9.9 C -9.9 15.4 -5.5 19.9 0.0 19.9 C 5.5 19.9 9.9 15.4 9.9 9.9 C 9.9 4.5 5.5 0.0 0.0 0.0 Z M 0.0 0.0 " fill="none" stroke="#393E50" stroke-width="1.00" stroke-linecap="round" stroke-linejoin="round" stroke-dasharray="1.9, 1.9" transform="matrix(0.36, 0.00, 0.00, 0.36, 1819.5, 43.5)"></path><path d="M 0.0 0.0 L 0.0 -51.2 L -150.9 -51.2 L -150.9 -10.7 " fill="none" stroke="#393E50" stroke-width="3.00" stroke-miterlimit="10.00" stroke-linecap="round" stroke-linejoin="round" transform="matrix(0.36, 0.00, 0.00, 0.36, 1864.5, 50.8)"></path><path d="M 0.0 0.0 L -15.1 -18.6 L -35.7 -18.6 " fill="none" stroke="#393E50" stroke-width="3.00" stroke-miterlimit="10.00" stroke-linecap="round" stroke-linejoin="round" transform="matrix(0.36, 0.00, 0.00, 0.36, 1864.5, 32.6)"></path><path d="M 0.0 0.0 L -34.8 0.0 L -50.0 18.6 " fill="none" stroke="#393E50" stroke-width="3.00" stroke-miterlimit="10.00" stroke-linecap="round" stroke-linejoin="round" transform="matrix(0.36, 0.00, 0.00, 0.36, 1828.4, 26.0)"></path><path d="M 0.0 0.0 L 0.0 43.0 L 36.6 43.0 C 33.2 38.2 31.2 32.4 31.2 26.1 C 31.2 14.6 37.8 4.8 47.4 0.0 " fill="none" stroke="#393E50" stroke-width="3.00" stroke-miterlimit="10.00" stroke-linecap="round" stroke-linejoin="round" transform="matrix(0.36, 0.00, 0.00, 0.36, 1815.9, -2.5)"></path><path d="M 0.0 0.0 L 0.0 -43.0 " fill="none" stroke="#393E50" stroke-width="3.00" stroke-miterlimit="10.00" stroke-linecap="round" stroke-linejoin="round" transform="matrix(0.36, 0.00, 0.00, 0.36, 1859.1, 12.8)"></path><path d="M 0.0 0.0 L 38.9 5.4 " fill="none" stroke="#393E50" stroke-width="3.00" stroke-miterlimit="10.00" stroke-linecap="round" stroke-linejoin="round" transform="matrix(0.36, 0.00, 0.00, 0.36, 1825.8, 53.2)"></path><path d="M 0.0 0.0 L -9.1 0.0 L -9.1 -30.4 L 0.0 -30.4 " fill="none" stroke="#393E50" stroke-width="3.00" stroke-miterlimit="10.00" stroke-linecap="round" stroke-linejoin="round" transform="matrix(0.36, 0.00, 0.00, 0.36, 1810.5, 47.0)"></path><path d="M 0.0 0.0 L 9.1 0.0 L 9.1 30.4 L 0.0 30.4 " fill="none" stroke="#393E50" stroke-width="3.00" stroke-miterlimit="10.00" stroke-linecap="round" stroke-linejoin="round" transform="matrix(0.36, 0.00, 0.00, 0.36, 1864.5, 36.2)"></path><path d="M 0.0 0.0 L -30.8 0.0 " fill="none" stroke="#393E50" stroke-width="3.00" stroke-miterlimit="10.00" stroke-linecap="round" stroke-linejoin="round" transform="matrix(0.36, 0.00, 0.00, 0.36, 1807.3, 41.6)"></path><path d="M 0.0 0.0 L 27.5 0.0 " fill="none" stroke="#393E50" stroke-width="3.00" stroke-miterlimit="10.00" stroke-linecap="round" stroke-linejoin="round" transform="matrix(0.36, 0.00, 0.00, 0.36, 1867.8, 41.6)"></path><path d="M 0.0 0.0 C 0.0 2.9 -2.3 5.2 -5.2 5.2 C -8.1 5.2 -10.5 2.9 -10.5 0.0 C -10.5 -2.9 -8.1 -5.2 -5.2 -5.2 C -2.3 -5.2 0.0 -2.9 0.0 0.0 Z M 0.0 0.0 " fill="none" stroke="#393E50" stroke-width="3.00" stroke-miterlimit="10.00" stroke-linecap="round" stroke-linejoin="round" transform="matrix(0.36, 0.00, 0.00, 0.36, 1796.2, 41.6)"></path><path d="M 0.0 0.0 C 0.0 2.9 -2.3 5.2 -5.2 5.2 C -8.1 5.2 -10.5 2.9 -10.5 0.0 C -10.5 -2.9 -8.1 -5.2 -5.2 -5.2 C -2.3 -5.2 0.0 -2.9 0.0 0.0 Z M 0.0 0.0 " fill="none" stroke="#393E50" stroke-width="3.00" stroke-miterlimit="10.00" stroke-linecap="round" stroke-linejoin="round" transform="matrix(0.36, 0.00, 0.00, 0.36, 1881.4, 41.6)"></path><path d="M 0.0 0.0 C 4.1 -4.5 6.5 -10.4 6.5 -16.9 C 6.5 -30.7 -4.7 -42.0 -18.5 -42.0 C -32.4 -42.0 -43.6 -30.7 -43.6 -16.9 C -43.6 -10.4 -41.2 -4.5 -37.1 0.0 " fill="none" stroke="#393E50" stroke-width="1.00" stroke-miterlimit="10.00" stroke-linecap="round" stroke-linejoin="round" transform="matrix(0.36, 0.00, 0.00, 0.36, 1844.1, 12.8)"></path><path d="M 0.0 0.0 L -11.7 0.0 " fill="none" stroke="#393E50" stroke-width="3.00" stroke-miterlimit="10.00" stroke-linecap="round" stroke-linejoin="round" transform="matrix(0.36, 0.00, 0.00, 0.36, 1849.3, 26.0)"></path><path d="M 0.0 0.0 L -5.8 0.0 " fill="none" stroke="#393E50" stroke-width="3.00" stroke-miterlimit="10.00" stroke-linecap="round" stroke-linejoin="round" transform="matrix(0.36, 0.00, 0.00, 0.36, 1842.5, 26.0)"></path><path d="M 0.0 0.0 L 31.3 -2.4 " fill="none" stroke="#393E50" stroke-width="1.00" stroke-miterlimit="10.00" stroke-linecap="round" stroke-linejoin="round" transform="matrix(0.36, 0.00, 0.00, 0.36, 1847.9, 7.7)"></path><path d="M 0.0 0.0 L 120.5 -3.8 " fill="none" stroke="#393E50" stroke-width="1.00" stroke-miterlimit="10.00" stroke-linecap="round" stroke-linejoin="round" transform="matrix(0.36, 0.00, 0.00, 0.36, 1816.0, 11.4)"></path><path d="M 0.0 0.0 L 34.5 3.2 " fill="none" stroke="#393E50" stroke-width="1.00" stroke-miterlimit="10.00" stroke-linecap="round" stroke-linejoin="round" transform="matrix(0.36, 0.00, 0.00, 0.36, 1826.8, 52.0)"></path><path d="M 0.0 0.0 L 145.5 -6.7 " fill="none" stroke="#393E50" stroke-width="1.00" stroke-miterlimit="10.00" stroke-linecap="round" stroke-linejoin="round" transform="matrix(0.36, 0.00, 0.00, 0.36, 1810.5, 32.6)"></path><path d="M 0.0 0.0 C -9.2 27.8 -22.5 54.7 -40.0 80.0 " fill="none" stroke="#393E50" stroke-width="3.00" stroke-miterlimit="10.00" stroke-linecap="round" stroke-linejoin="round" transform="matrix(0.36, 0.00, 0.00, 0.36, 1873.4, -2.5)"></path><path d="M 0.0 0.0 C 3.0 -6.5 5.8 -13.1 8.3 -19.8 " fill="none" stroke="#393E50" stroke-width="3.00" stroke-miterlimit="10.00" stroke-linecap="round" stroke-linejoin="round" transform="matrix(0.36, 0.00, 0.00, 0.36, 1859.1, 4.6)"></path><path d="M 0.0 0.0 C -5.3 -2.2 -10.5 -4.8 -15.5 -7.7 L -47.5 -10.1 " fill="none" stroke="#393E50" stroke-width="1.00" stroke-miterlimit="10.00" stroke-linecap="round" stroke-linejoin="round" transform="matrix(0.36, 0.00, 0.00, 0.36, 1864.6, 12.8)"></path><path d="M 0.0 0.0 C 7.9 4.5 16.1 8.5 24.5 11.9 " fill="none" stroke="#393E50" stroke-width="1.00" stroke-miterlimit="10.00" stroke-linecap="round" stroke-linejoin="round" transform="matrix(0.36, 0.00, 0.00, 0.36, 1859.1, 6.8)"></path><path d="M 0.0 0.0 C 8.7 5.0 17.7 9.4 26.9 13.2 " fill="none" stroke="#393E50" stroke-width="3.00" stroke-miterlimit="10.00" stroke-linecap="round" stroke-linejoin="round" transform="matrix(0.36, 0.00, 0.00, 0.36, 1859.4, 3.8)"></path><path d="M 0.0 0.0 C 8.8 4.8 17.8 9.1 27.1 12.9 " fill="none" stroke="#393E50" stroke-width="1.00" stroke-miterlimit="10.00" stroke-linecap="round" stroke-linejoin="round" transform="matrix(0.36, 0.00, 0.00, 0.36, 1860.8, 0.8)"></path><path d="M 0.0 0.0 C 8.8 4.9 17.6 9.8 26.4 14.8 " fill="none" stroke="#393E50" stroke-width="1.00" stroke-miterlimit="10.00" stroke-linecap="round" stroke-linejoin="round" transform="matrix(0.36, 0.00, 0.00, 0.36, 1861.6, -1.3)"></path><path d="M 0.0 0.0 C 6.5 3.9 13.2 7.6 20.0 11.0 " fill="none" stroke="#393E50" stroke-width="1.00" stroke-miterlimit="10.00" stroke-linecap="round" stroke-linejoin="round" transform="matrix(0.36, 0.00, 0.00, 0.36, 1864.9, -2.5)"></path><path d="M 0.0 0.0 C 2.7 1.4 5.4 2.8 8.2 4.1 " fill="none" stroke="#393E50" stroke-width="3.00" stroke-miterlimit="10.00" stroke-linecap="round" stroke-linejoin="round" transform="matrix(0.36, 0.00, 0.00, 0.36, 1870.0, -2.5)"></path><path d="M 0.0 0.0 L 58.7 0.0 " fill="none" stroke="#393E50" stroke-width="3.00" stroke-miterlimit="10.00" stroke-linecap="round" stroke-linejoin="round" transform="matrix(0.36, 0.00, 0.00, 0.36, 1846.0, 12.8)"></path><path d="M 0.0 0.0 L 3.0 0.0 " fill="none" stroke="#393E50" stroke-width="3.00" stroke-miterlimit="10.00" stroke-linecap="round" stroke-linejoin="round" transform="matrix(0.36, 0.00, 0.00, 0.36, 1788.4, 26.4)"></path><path d="M 0.0 0.0 L 3.0 0.0 " fill="none" stroke="#393E50" stroke-width="3.00" stroke-miterlimit="10.00" stroke-linecap="round" stroke-linejoin="round" transform="matrix(0.36, 0.00, 0.00, 0.36, 1792.4, 26.4)"></path></g></g></g></g><g><clipPath id="clip-1172"><path d="M 1681.9 5.9 L 1779.9 5.9 L 1779.9 38.3 L 1681.9 38.3 Z M 1681.9 5.9 "></path></clipPath><g clip-path="url(#clip-1172)"><path d="M 1682.9 37.3 L 1778.9 37.3 L 1778.9 6.9 L 1682.9 6.9 Z M 1682.9 37.3 " fill="#FFDA7B"></path></g></g><g><clipPath id="clip-1173"><path d="M 1693.0 10.4 L 1772.0 10.4 L 1772.0 29.0 L 1693.0 29.0 Z M 1693.0 10.4 "></path></clipPath><g clip-path="url(#clip-1173)"><text xml:space="preserve" font-family="Helvetica" font-size="44.2" fill="#393E50" transform="matrix(0.35, 0.00, -0.00, -0.36, 1693.4, 15.6)">c</text><text xml:space="preserve" font-family="Helvetica" font-size="44.2" fill="#393E50" transform="matrix(0.35, 0.00, -0.00, -0.36, 1701.1, 15.6)">i</text><text xml:space="preserve" font-family="Helvetica" font-size="44.2" fill="#393E50" transform="matrix(0.35, 0.00, -0.00, -0.36, 1704.5, 15.6)">m</text><text xml:space="preserve" font-family="Helvetica" font-size="44.2" fill="#393E50" transform="matrix(0.35, 0.00, -0.00, -0.36, 1717.3, 15.6)">o</text><text xml:space="preserve" font-family="Helvetica" font-size="44.2" fill="#393E50" transform="matrix(0.35, 0.00, -0.00, -0.36, 1725.9, 15.6)">n</text><text xml:space="preserve" font-family="Helvetica" font-size="44.2" fill="#393E50" transform="matrix(0.35, 0.00, -0.00, -0.36, 1734.5, 15.6)">.</text><text xml:space="preserve" font-family="Helvetica" font-size="44.2" fill="#393E50" transform="matrix(0.35, 0.00, -0.00, -0.36, 1738.8, 15.6)">i</text><text xml:space="preserve" font-family="Helvetica" font-size="44.2" fill="#393E50" transform="matrix(0.35, 0.00, -0.00, -0.36, 1742.2, 15.6)">o</text></g></g><g><clipPath id="clip-1174"><path d="M 1693.0 29.0 L 1772.0 29.0 L 1772.0 10.0 L 1693.0 10.0 Z M 1693.0 29.0 "></path></clipPath><g clip-path="url(#clip-1174)"><g><clipPath id="clip-1175"><path d="M 1693.0 10.4 L 1772.0 10.4 L 1772.0 29.0 L 1693.0 29.0 Z M 1693.0 10.4 "></path></clipPath><g clip-path="url(#clip-1175)"><path d="M 0.0 0.0 L -221.4 0.0 " fill="none" stroke="#FED97B" stroke-width="5.00" stroke-miterlimit="0.00" stroke-linecap="round" stroke-linejoin="round" transform="matrix(0.35, 0.00, 0.00, 0.36, 1771.1, 10.9)"></path></g></g></g></g><path d="M 1150.6 985.3 L 1833.4 985.3 L 1833.4 196.5 L 1150.6 196.5 Z M 1150.6 985.3 " fill="#FFDA7B"></path><path d="M 175.9 977.6 L 858.7 977.6 L 858.7 188.8 L 175.9 188.8 Z M 175.9 977.6 " fill="#FFDA7B"></path><image xlink:href="../../710C39F4-EC0A-40E9-A353-AEDD765AFBFB/assets/29C8E4661B7D256866379C0BE6A49530.png" width="500.00" height="332.00" transform="matrix(1.03, 0.00, -0.00, -1.03, 260.0, 948.0)"></image><path d="M 33.4 1043.2 L 547.4 1043.2 L 547.4 918.7 L 33.4 918.7 Z M 33.4 1043.2 " fill="#FFDA7B"></path><text xml:space="preserve" font-family="Roboto-Light" font-size="71.0" fill="#383E51" transform="matrix(1.00, 0.00, -0.00, -1.00, 74.0, 956.0)">Л</text><text xml:space="preserve" font-family="Roboto-Light" font-size="71.0" fill="#383E51" transform="matrix(1.00, 0.00, -0.00, -1.00, 123.9, 956.0)">е</text><text xml:space="preserve" font-family="Roboto-Light" font-size="71.0" fill="#383E51" transform="matrix(1.00, 0.00, -0.00, -1.00, 160.5, 956.0)">с</text><text xml:space="preserve" font-family="Roboto-Light" font-size="71.0" fill="#383E51" transform="matrix(1.00, 0.00, -0.00, -1.00, 197.1, 956.0)">н</text><text xml:space="preserve" font-family="Roboto-Light" font-size="71.0" fill="#383E51" transform="matrix(1.00, 0.00, -0.00, -1.00, 237.0, 956.0)">а</text><text xml:space="preserve" font-family="Roboto-Light" font-size="71.0" fill="#383E51" transform="matrix(1.00, 0.00, -0.00, -1.00, 275.0, 956.0)">я</text><text xml:space="preserve" font-family="Roboto-Light" font-size="71.0" fill="#383E51" transform="matrix(1.00, 0.00, -0.00, -1.00, 313.5, 956.0)"> </text><text xml:space="preserve" font-family="Roboto-Light" font-size="71.0" fill="#383E51" transform="matrix(1.00, 0.00, -0.00, -1.00, 330.8, 956.0)">ж</text><text xml:space="preserve" font-family="Roboto-Light" font-size="71.0" fill="#383E51" transform="matrix(1.00, 0.00, -0.00, -1.00, 385.3, 956.0)">а</text><text xml:space="preserve" font-family="Roboto-Light" font-size="71.0" fill="#383E51" transform="matrix(1.00, 0.00, -0.00, -1.00, 423.3, 956.0)">б</text><text xml:space="preserve" font-family="Roboto-Light" font-size="71.0" fill="#383E51" transform="matrix(1.00, 0.00, -0.00, -1.00, 462.4, 956.0)">а</text><path d="M 884.6 768.4 L 1126.9 768.4 L 1126.9 643.8 L 884.6 643.8 Z M 884.6 768.4 " fill="#FFDA7B"></path><path d="M 0.0 0.0 L 242.4 0.0 L 242.4 124.5 L 0.0 124.5 Z M 0.0 0.0 " fill="none" stroke="#000000" stroke-width="5.00" transform="matrix(1.00, 0.00, 0.00, -1.00, 884.6, 768.4)"></path><text xml:space="preserve" font-family="Helvetica-Light" font-size="50.0" fill="#383E51" transform="matrix(1.00, 0.00, -0.00, -1.00, 941.0, 688.0)">5</text><text xml:space="preserve" font-family="Helvetica-Light" font-size="50.0" fill="#383E51" transform="matrix(1.00, 0.00, -0.00, -1.00, 968.8, 688.0)"> </text><text xml:space="preserve" font-family="ZapfDingbatsITC" font-size="50.0" fill="#383E51" transform="matrix(1.00, 0.00, -0.00, -1.00, 982.7, 688.0)">➝</text><text xml:space="preserve" font-family="Helvetica-Light" font-size="50.0" fill="#383E51" transform="matrix(1.00, 0.00, -0.00, -1.00, 1029.1, 688.0)"> </text><text xml:space="preserve" font-family="Helvetica-Light" font-size="50.0" fill="#383E51" transform="matrix(1.00, 0.00, -0.00, -1.00, 1043.0, 688.0)">6</text><g><clipPath id="clip-1176"><path d="M 304.2 234.6 L 393.1 234.6 L 393.1 322.0 L 304.2 322.0 Z M 304.2 234.6 "></path></clipPath><g clip-path="url(#clip-1176)"><image xlink:href="../../63D7FFC8-C2C1-4797-A657-50AFBA060BB8/assets/D4C45C3B7614E0904E522D32C8D7D96C.png" width="89.00" height="87.00" transform="matrix(1.00, 0.00, -0.00, -1.00, 304.0, 322.0)"></image></g></g><g><clipPath id="clip-1177"><path d="M 384.7 190.5 L 502.2 190.5 L 502.2 366.1 L 384.7 366.1 Z M 384.7 190.5 "></path></clipPath><g clip-path="url(#clip-1177)"><text xml:space="preserve" font-family="Roboto-Black" font-weight="bold" font-size="100.0" fill="#000000" transform="matrix(1.00, 0.00, -0.00, -1.00, 415.0, 244.0)">5</text></g></g><g><clipPath id="clip-1178"><path d="M 549.0 323.0 L 646.0 323.0 L 646.0 227.0 L 549.0 227.0 Z M 549.3 323.3 "></path></clipPath><g clip-path="url(#clip-1178)"><g><clipPath id="clip-1179"><path d="M 558.0 323.0 L 555.9 322.0 C 553.5 320.4 551.8 318.6 550.3 316.2 L 549.0 314.6 L 549.0 314.0 L 550.7 314.0 C 551.5 313.7 552.6 313.4 553.2 313.5 C 554.2 313.7 554.7 313.3 557.0 311.0 L 559.7 308.3 L 558.2 307.1 C 556.9 306.1 556.3 306.0 554.0 306.0 C 551.3 306.0 551.3 306.0 551.1 304.8 C 550.8 303.4 551.4 301.0 552.4 299.7 C 553.5 298.3 556.4 297.7 558.1 298.0 L 559.0 298.0 L 559.0 300.5 C 559.0 302.7 559.6 303.4 560.4 304.5 C 560.9 305.2 561.6 305.8 561.8 305.8 C 562.4 305.8 568.5 299.6 568.1 299.3 C 568.0 299.1 567.2 299.0 566.5 299.0 L 565.0 299.0 L 565.0 292.4 C 565.6 278.9 568.2 268.6 572.7 259.6 L 574.3 256.5 L 563.2 245.4 L 552.2 234.3 L 551.0 231.1 C 550.5 229.4 549.9 227.9 549.6 227.5 C 549.6 227.4 549.6 227.3 549.7 227.3 C 549.7 227.2 549.8 227.2 549.9 227.2 C 550.3 227.5 551.8 228.0 553.4 228.6 L 556.6 229.6 L 567.3 240.3 L 577.9 250.9 L 580.8 247.9 C 584.5 244.1 588.0 241.6 592.3 239.5 C 596.8 237.3 598.2 237.3 602.7 239.5 C 607.0 241.6 610.4 244.1 614.1 247.9 L 617.0 250.9 L 627.7 240.3 L 638.3 229.6 L 641.5 228.6 C 643.2 228.0 644.6 227.5 645.1 227.2 C 645.2 227.2 645.2 227.2 645.3 227.3 C 645.3 227.3 645.3 227.4 645.4 227.5 C 645.1 227.9 644.5 229.4 643.9 231.1 L 642.8 234.3 L 631.7 245.4 L 620.7 256.5 L 622.3 259.6 C 626.8 268.6 629.4 278.9 630.0 292.6 L 630.0 299.0 L 628.5 299.0 C 627.7 299.0 626.9 299.1 626.8 299.3 C 626.7 299.5 628.1 301.1 629.8 302.8 C 633.3 306.3 633.6 306.3 635.0 303.8 C 635.6 302.7 636.1 301.9 636.0 300.1 L 635.0 298.0 L 636.8 298.0 C 638.6 297.7 641.4 298.3 642.5 299.7 C 643.6 301.0 644.2 303.4 643.9 304.8 C 643.7 306.0 643.6 306.0 641.0 306.0 C 638.6 306.0 638.1 306.1 636.8 307.1 L 635.3 308.3 L 638.0 311.0 C 640.3 313.3 640.8 313.7 641.8 313.5 C 642.4 313.4 643.5 313.7 644.3 314.0 L 646.0 314.0 L 646.0 314.6 L 644.4 316.6 C 642.8 319.0 641.0 320.8 638.6 322.3 L 637.0 323.0 L 637.0 323.0 L 636.0 321.9 C 635.7 321.1 635.8 320.0 635.9 319.4 C 636.1 318.5 635.8 317.9 633.4 315.6 L 631.0 312.9 L 630.0 313.8 C 628.6 315.4 627.9 316.5 628.0 318.9 L 628.0 321.0 L 626.6 321.0 C 624.5 321.2 623.1 320.8 621.6 319.3 C 620.6 318.3 620.1 317.7 620.0 315.6 L 620.0 313.0 L 622.9 313.0 C 625.3 313.0 625.8 313.0 627.2 312.0 L 628.7 310.8 L 623.3 305.5 C 617.2 299.3 617.9 299.5 612.0 302.3 C 606.7 304.9 602.4 308.4 598.6 313.3 L 597.5 314.7 L 596.4 313.3 C 592.4 308.1 585.4 302.9 580.0 301.0 L 577.1 300.0 L 571.7 305.4 L 566.3 310.8 L 567.8 312.0 C 569.1 313.0 569.7 313.0 572.1 313.0 L 575.0 313.0 L 575.0 315.6 C 574.9 317.7 574.3 318.3 573.4 319.3 C 571.9 320.8 570.5 321.2 568.3 321.0 L 567.0 321.0 L 567.0 318.9 C 567.1 316.5 566.4 315.4 565.0 313.8 L 564.0 312.9 L 561.5 315.6 C 559.2 317.9 558.8 318.5 559.0 319.4 C 559.2 320.0 559.3 321.1 559.0 321.9 L 558.0 323.0 L 558.0 323.0 Z M 597.5 305.8 L 599.6 304.0 C 603.5 300.5 609.0 297.2 613.6 295.6 C 616.6 294.6 620.2 293.8 621.9 293.8 C 624.2 293.8 624.4 293.3 623.8 287.3 C 622.6 274.2 619.5 264.4 613.8 256.4 C 610.1 251.2 604.5 246.3 599.7 244.2 C 598.5 243.6 597.4 243.2 597.4 243.2 C 596.3 243.5 592.4 245.6 590.5 247.0 C 579.3 255.0 572.9 268.3 571.1 287.3 C 570.6 293.3 570.7 293.8 573.1 293.8 C 575.3 293.8 580.6 295.2 584.2 296.7 C 588.0 298.3 592.2 301.0 595.3 303.8 L 597.5 305.8 Z M 597.5 305.8 "></path></clipPath><g clip-path="url(#clip-1179)"><g><clipPath id="clip-1180"><path d="M 549.3 227.2 L 645.7 227.2 L 645.7 323.3 L 549.3 323.3 Z M 549.3 227.2 "></path></clipPath><g clip-path="url(#clip-1180)"><image xlink:href="../../63D7FFC8-C2C1-4797-A657-50AFBA060BB8/assets/DD7F7FCD5A532E6314C749E9C98A253A.png" width="97.00" height="97.00" transform="matrix(1.00, 0.00, -0.00, -0.99, 549.0, 323.0)"></image></g></g></g></g></g></g><g><clipPath id="clip-1181"><path d="M 638.2 187.5 L 755.7 187.5 L 755.7 363.1 L 638.2 363.1 Z M 638.2 187.5 "></path></clipPath><g clip-path="url(#clip-1181)"><text xml:space="preserve" font-family="Roboto-Black" font-weight="bold" font-size="100.0" fill="#000000" transform="matrix(1.00, 0.00, -0.00, -1.00, 668.0, 241.0)">8</text></g></g><g><clipPath id="clip-1182"><path d="M 232.6 422.2 L 366.6 422.2 L 366.6 449.2 L 232.6 449.2 Z M 232.6 422.2 "></path></clipPath><g clip-path="url(#clip-1182)"><text xml:space="preserve" font-family="Helvetica-Light" font-size="28.0" fill="#383E51" transform="matrix(1.00, 0.00, -0.00, -1.00, 245.0, 422.0)">С</text><text xml:space="preserve" font-family="Helvetica-Light" font-size="28.0" fill="#383E51" transform="matrix(1.00, 0.00, -0.00, -1.00, 264.7, 422.0)">и</text><text xml:space="preserve" font-family="Helvetica-Light" font-size="28.0" fill="#383E51" transform="matrix(1.00, 0.00, -0.00, -1.00, 279.9, 422.0)">л</text><text xml:space="preserve" font-family="Helvetica-Light" font-size="28.0" fill="#383E51" transform="matrix(1.00, 0.00, -0.00, -1.00, 295.8, 422.0)">ь</text><text xml:space="preserve" font-family="Helvetica-Light" font-size="28.0" fill="#383E51" transform="matrix(1.00, 0.00, -0.00, -1.00, 309.8, 422.0)">н</text><text xml:space="preserve" font-family="Helvetica-Light" font-size="28.0" fill="#383E51" transform="matrix(1.00, 0.00, -0.00, -1.00, 324.8, 422.0)">о</text><text xml:space="preserve" font-family="Helvetica-Light" font-size="28.0" fill="#383E51" transform="matrix(1.00, 0.00, -0.00, -1.00, 340.4, 422.0)">е</text></g></g><g><clipPath id="clip-1183"><path d="M 248.2 451.3 L 355.2 451.3 L 355.2 558.2 L 248.2 558.2 Z M 248.2 451.3 "></path></clipPath><g clip-path="url(#clip-1183)"><image xlink:href="../../63D7FFC8-C2C1-4797-A657-50AFBA060BB8/assets/342BF0D44941A8895A3AC45041D92E9C.png" width="128.00" height="128.00" transform="matrix(0.84, 0.00, -0.00, -0.84, 248.0, 558.0)"></image></g></g><g><clipPath id="clip-1184"><path d="M 442.9 450.7 L 551.4 450.7 L 551.4 559.2 L 442.9 559.2 Z M 442.9 450.7 "></path></clipPath><g clip-path="url(#clip-1184)"><image xlink:href="../../63D7FFC8-C2C1-4797-A657-50AFBA060BB8/assets/326DE6D2C499EE42417C82E567127FB3.png" width="128.00" height="128.00" transform="matrix(0.84, 0.00, -0.00, -0.84, 443.0, 559.0)"></image></g></g><g><clipPath id="clip-1185"><path d="M 406.1 418.7 L 588.2 418.7 L 588.2 448.7 L 406.1 448.7 Z M 406.1 418.7 "></path></clipPath><g clip-path="url(#clip-1185)"><text xml:space="preserve" font-family="Helvetica-Light" font-size="28.0" fill="#383E51" transform="matrix(1.00, 0.00, -0.00, -1.00, 421.0, 421.0)">П</text><text xml:space="preserve" font-family="Helvetica-Light" font-size="28.0" fill="#383E51" transform="matrix(1.00, 0.00, -0.00, -1.00, 440.4, 421.0)">л</text><text xml:space="preserve" font-family="Helvetica-Light" font-size="28.0" fill="#383E51" transform="matrix(1.00, 0.00, -0.00, -1.00, 456.3, 421.0)">а</text><text xml:space="preserve" font-family="Helvetica-Light" font-size="28.0" fill="#383E51" transform="matrix(1.00, 0.00, -0.00, -1.00, 470.8, 421.0)">в</text><text xml:space="preserve" font-family="Helvetica-Light" font-size="28.0" fill="#383E51" transform="matrix(1.00, 0.00, -0.00, -1.00, 485.3, 421.0)">а</text><text xml:space="preserve" font-family="Helvetica-Light" font-size="28.0" fill="#383E51" transform="matrix(1.00, 0.00, -0.00, -1.00, 499.8, 421.0)">ю</text><text xml:space="preserve" font-family="Helvetica-Light" font-size="28.0" fill="#383E51" transform="matrix(1.00, 0.00, -0.00, -1.00, 520.7, 421.0)">щ</text><text xml:space="preserve" font-family="Helvetica-Light" font-size="28.0" fill="#383E51" transform="matrix(1.00, 0.00, -0.00, -1.00, 543.3, 421.0)">е</text><text xml:space="preserve" font-family="Helvetica-Light" font-size="28.0" fill="#383E51" transform="matrix(1.00, 0.00, -0.00, -1.00, 557.8, 421.0)">е</text></g></g><g><clipPath id="clip-1186"><path d="M 640.6 449.0 L 750.1 449.0 L 750.1 558.5 L 640.6 558.5 Z M 640.6 449.0 "></path></clipPath><g clip-path="url(#clip-1186)"><image xlink:href="../../63D7FFC8-C2C1-4797-A657-50AFBA060BB8/assets/438BF8EC13C23FF9BBCCD6C2CFCEF06E.png" width="128.00" height="128.00" transform="matrix(0.85, 0.00, -0.00, -0.86, 641.0, 559.0)"></image></g></g><g><clipPath id="clip-1187"><path d="M 608.6 419.0 L 782.0 419.0 L 782.0 447.0 L 608.6 447.0 Z M 608.6 419.0 "></path></clipPath><g clip-path="url(#clip-1187)"><text xml:space="preserve" font-family="Helvetica-Light" font-size="28.0" fill="#383E51" transform="matrix(1.00, 0.00, -0.00, -1.00, 619.0, 419.0)">П</text><text xml:space="preserve" font-family="Helvetica-Light" font-size="28.0" fill="#383E51" transform="matrix(1.00, 0.00, -0.00, -1.00, 638.4, 419.0)">р</text><text xml:space="preserve" font-family="Helvetica-Light" font-size="28.0" fill="#383E51" transform="matrix(1.00, 0.00, -0.00, -1.00, 654.5, 419.0)">ы</text><text xml:space="preserve" font-family="Helvetica-Light" font-size="28.0" fill="#383E51" transform="matrix(1.00, 0.00, -0.00, -1.00, 673.3, 419.0)">г</text><text xml:space="preserve" font-family="Helvetica-Light" font-size="28.0" fill="#383E51" transform="matrix(1.00, 0.00, -0.00, -1.00, 684.5, 419.0)">а</text><text xml:space="preserve" font-family="Helvetica-Light" font-size="28.0" fill="#383E51" transform="matrix(1.00, 0.00, -0.00, -1.00, 699.0, 419.0)">ю</text><text xml:space="preserve" font-family="Helvetica-Light" font-size="28.0" fill="#383E51" transform="matrix(1.00, 0.00, -0.00, -1.00, 719.9, 419.0)">щ</text><text xml:space="preserve" font-family="Helvetica-Light" font-size="28.0" fill="#383E51" transform="matrix(1.00, 0.00, -0.00, -1.00, 742.5, 419.0)">е</text><text xml:space="preserve" font-family="Helvetica-Light" font-size="28.0" fill="#383E51" transform="matrix(1.00, 0.00, -0.00, -1.00, 757.0, 419.0)">е</text></g></g><g><clipPath id="clip-1188"><path d="M 1260.3 253.4 L 1349.2 253.4 L 1349.2 340.8 L 1260.3 340.8 Z M 1260.3 253.4 "></path></clipPath><g clip-path="url(#clip-1188)"><image xlink:href="../../63D7FFC8-C2C1-4797-A657-50AFBA060BB8/assets/D4C45C3B7614E0904E522D32C8D7D96C.png" width="89.00" height="87.00" transform="matrix(1.00, 0.00, -0.00, -1.01, 1260.0, 341.0)"></image></g></g><g><clipPath id="clip-1189"><path d="M 1340.9 209.3 L 1458.4 209.3 L 1458.4 384.9 L 1340.9 384.9 Z M 1340.9 209.3 "></path></clipPath><g clip-path="url(#clip-1189)"><text xml:space="preserve" font-family="Roboto-Black" font-weight="bold" font-size="100.0" fill="#000000" transform="matrix(1.00, 0.00, -0.00, -1.00, 1371.0, 263.0)">4</text></g></g><g><clipPath id="clip-1190"><path d="M 1542.0 345.0 L 1638.0 345.0 L 1638.0 249.0 L 1542.0 249.0 Z M 1541.7 345.1 "></path></clipPath><g clip-path="url(#clip-1190)"><g><clipPath id="clip-1191"><path d="M 1550.4 345.0 L 1548.3 343.8 C 1545.9 342.2 1544.2 340.5 1542.7 338.1 L 1542.0 336.4 L 1542.0 336.0 L 1543.1 336.0 C 1543.9 335.7 1545.0 335.2 1545.6 335.3 C 1546.6 335.5 1547.1 335.1 1549.4 332.8 L 1552.1 330.1 L 1550.6 328.9 C 1549.3 327.9 1548.8 327.8 1546.4 327.8 C 1543.8 327.8 1543.7 327.8 1543.5 326.6 C 1543.2 325.2 1543.8 322.8 1544.9 321.5 C 1545.9 320.1 1548.8 318.7 1550.5 319.0 L 1552.0 320.0 L 1552.0 322.3 C 1552.0 324.5 1552.0 325.2 1552.8 326.3 C 1553.3 327.0 1554.0 327.6 1554.2 327.6 C 1554.8 327.6 1560.9 321.4 1560.5 321.1 C 1560.4 320.9 1559.6 321.0 1558.9 321.0 L 1557.0 321.0 L 1558.0 314.2 C 1558.6 300.7 1560.6 290.4 1565.1 281.5 L 1566.7 278.3 L 1555.6 267.2 L 1544.6 256.2 L 1543.4 252.9 C 1542.9 251.2 1542.3 249.7 1542.0 249.3 C 1542.0 249.2 1542.1 249.1 1542.1 249.1 C 1542.1 249.1 1542.2 249.0 1542.3 249.0 C 1542.7 249.3 1544.2 249.9 1545.8 250.4 L 1549.0 251.5 L 1559.7 262.1 L 1570.3 272.8 L 1573.2 269.8 C 1576.9 265.9 1580.4 263.4 1584.7 261.3 C 1589.2 259.1 1590.6 259.1 1595.1 261.3 C 1599.4 263.4 1602.8 265.9 1606.5 269.8 L 1609.4 272.8 L 1620.1 262.1 L 1630.7 251.5 L 1633.9 250.4 C 1635.6 249.9 1637.1 249.3 1637.5 249.0 C 1637.6 249.0 1637.6 249.1 1637.7 249.1 C 1637.7 249.1 1637.7 249.2 1637.8 249.3 C 1637.5 249.7 1636.9 251.2 1636.3 252.9 L 1635.2 256.2 L 1624.1 267.2 L 1613.1 278.3 L 1614.7 281.5 C 1619.2 290.4 1621.4 300.8 1622.0 314.4 L 1622.0 321.0 L 1620.9 321.0 C 1620.1 321.0 1619.3 321.0 1619.2 321.1 C 1619.1 321.3 1620.5 322.9 1622.2 324.6 C 1625.7 328.1 1626.0 328.2 1627.5 325.6 C 1628.0 324.5 1628.1 323.7 1628.0 321.9 L 1628.0 320.0 L 1629.2 319.0 C 1631.0 318.7 1633.8 320.1 1634.9 321.5 C 1636.0 322.8 1636.6 325.2 1636.3 326.6 C 1636.1 327.8 1636.0 327.8 1633.4 327.8 C 1631.0 327.8 1630.5 327.9 1629.2 328.9 L 1627.7 330.1 L 1630.4 332.8 C 1632.7 335.1 1633.2 335.5 1634.2 335.3 C 1634.8 335.2 1635.9 335.7 1636.7 336.0 L 1638.0 336.0 L 1638.0 336.4 L 1636.8 338.5 C 1635.2 340.9 1633.5 342.6 1631.1 344.1 L 1629.4 345.0 L 1629.0 345.0 L 1629.0 343.7 C 1628.7 342.9 1628.2 341.8 1628.3 341.2 C 1628.5 340.3 1628.2 339.8 1625.9 337.4 L 1623.0 334.7 L 1622.0 335.7 C 1620.6 337.2 1620.9 338.3 1621.0 340.7 L 1621.0 343.0 L 1619.0 343.0 C 1616.9 343.2 1615.5 342.7 1614.0 341.1 C 1613.0 340.1 1613.1 339.5 1613.0 337.4 L 1613.0 335.0 L 1615.3 335.0 C 1617.7 335.0 1618.2 334.8 1619.6 333.8 L 1621.1 332.7 L 1615.7 327.3 C 1609.6 321.1 1610.3 321.3 1604.4 324.1 C 1599.1 326.7 1594.8 330.2 1591.0 335.2 L 1589.9 336.6 L 1588.8 335.2 C 1584.8 329.9 1577.8 324.9 1572.4 323.0 L 1569.5 322.0 L 1564.1 327.2 L 1558.7 332.7 L 1560.2 333.8 C 1561.5 334.8 1562.1 335.0 1564.5 335.0 L 1567.0 335.0 L 1567.0 337.4 C 1566.9 339.5 1566.7 340.1 1565.8 341.1 C 1564.3 342.7 1562.9 343.2 1560.7 343.0 L 1559.0 343.0 L 1559.0 340.7 C 1559.1 338.3 1558.4 337.2 1557.0 335.7 L 1557.0 334.7 L 1553.9 337.4 C 1551.6 339.8 1551.2 340.3 1551.4 341.2 C 1551.6 341.8 1551.3 342.9 1551.0 343.7 L 1550.0 345.0 L 1550.4 345.0 Z M 1589.9 327.7 L 1592.0 325.8 C 1595.9 322.3 1601.4 319.0 1606.0 317.4 C 1609.0 316.4 1612.6 315.6 1614.3 315.6 C 1616.6 315.6 1616.8 315.2 1616.2 309.1 C 1615.0 296.0 1611.9 286.2 1606.2 278.2 C 1602.5 273.0 1596.9 268.1 1592.1 266.0 C 1590.9 265.5 1589.8 265.0 1589.8 265.0 C 1588.7 265.3 1584.8 267.4 1582.9 268.8 C 1571.7 276.8 1565.3 290.2 1563.5 309.1 C 1563.0 315.2 1563.1 315.6 1565.5 315.6 C 1567.7 315.6 1573.0 317.0 1576.6 318.5 C 1580.4 320.1 1584.6 322.8 1587.7 325.7 L 1589.9 327.7 Z M 1589.9 327.7 "></path></clipPath><g clip-path="url(#clip-1191)"><g><clipPath id="clip-1192"><path d="M 1541.7 249.0 L 1638.1 249.0 L 1638.1 345.1 L 1541.7 345.1 Z M 1541.7 249.0 "></path></clipPath><g clip-path="url(#clip-1192)"><image xlink:href="../../63D7FFC8-C2C1-4797-A657-50AFBA060BB8/assets/DD7F7FCD5A532E6314C749E9C98A253A.png" width="97.00" height="97.00" transform="matrix(0.99, 0.00, -0.00, -0.99, 1542.0, 345.0)"></image></g></g></g></g></g></g><g><clipPath id="clip-1193"><path d="M 1630.6 209.3 L 1748.1 209.3 L 1748.1 384.9 L 1630.6 384.9 Z M 1630.6 209.3 "></path></clipPath><g clip-path="url(#clip-1193)"><text xml:space="preserve" font-family="Roboto-Black" font-weight="bold" font-size="100.0" fill="#000000" transform="matrix(1.00, 0.00, -0.00, -1.00, 1660.0, 263.0)">6</text></g></g><g><clipPath id="clip-1194"><path d="M 1614.5 416.2 L 1777.4 416.2 L 1777.4 444.2 L 1614.5 444.2 Z M 1614.5 416.2 "></path></clipPath><g clip-path="url(#clip-1194)"><text xml:space="preserve" font-family="Helvetica-Light" font-size="28.0" fill="#383E51" transform="matrix(1.00, 0.00, -0.00, -1.00, 1641.0, 417.0)">Б</text><text xml:space="preserve" font-family="Helvetica-Light" font-size="28.0" fill="#383E51" transform="matrix(1.00, 0.00, -0.00, -1.00, 1659.7, 417.0)">ы</text><text xml:space="preserve" font-family="Helvetica-Light" font-size="28.0" fill="#383E51" transform="matrix(1.00, 0.00, -0.00, -1.00, 1678.5, 417.0)">с</text><text xml:space="preserve" font-family="Helvetica-Light" font-size="28.0" fill="#383E51" transform="matrix(1.00, 0.00, -0.00, -1.00, 1693.0, 417.0)">т</text><text xml:space="preserve" font-family="Helvetica-Light" font-size="28.0" fill="#383E51" transform="matrix(1.00, 0.00, -0.00, -1.00, 1705.4, 417.0)">р</text><text xml:space="preserve" font-family="Helvetica-Light" font-size="28.0" fill="#383E51" transform="matrix(1.00, 0.00, -0.00, -1.00, 1721.5, 417.0)">о</text><text xml:space="preserve" font-family="Helvetica-Light" font-size="28.0" fill="#383E51" transform="matrix(1.00, 0.00, -0.00, -1.00, 1737.0, 417.0)">е</text></g></g><g><clipPath id="clip-1195"><path d="M 1640.5 439.6 L 1751.4 439.6 L 1751.4 550.5 L 1640.5 550.5 Z M 1640.5 439.6 "></path></clipPath><g clip-path="url(#clip-1195)"><image xlink:href="../../710C39F4-EC0A-40E9-A353-AEDD765AFBFB/assets/526BDD1E11BC234894C6C67901C3B63A.png" width="128.00" height="128.00" transform="matrix(0.86, 0.00, -0.00, -0.87, 1641.0, 551.0)"></image></g></g><text xml:space="preserve" font-family="Roboto-Regular" font-size="30.0" fill="#383E51" transform="matrix(1.00, 0.00, -0.00, -1.00, 155.0, 126.0)">-</text><text xml:space="preserve" font-family="Roboto-Regular" font-size="30.0" fill="#383E51" transform="matrix(1.00, 0.00, -0.00, -1.00, 163.3, 126.0)">1</text><text xml:space="preserve" font-family="Roboto-Regular" font-size="30.0" fill="#383E51" transform="matrix(1.00, 0.00, -0.00, -1.00, 180.1, 126.0)"> </text><text xml:space="preserve" font-family="Roboto-Regular" font-size="30.0" fill="#383E51" transform="matrix(1.00, 0.00, -0.00, -1.00, 187.5, 126.0)">к</text><text xml:space="preserve" font-family="Roboto-Regular" font-size="30.0" fill="#383E51" transform="matrix(1.00, 0.00, -0.00, -1.00, 203.7, 126.0)"> </text><text xml:space="preserve" font-family="Roboto-Regular" font-size="30.0" fill="#383E51" transform="matrix(1.00, 0.00, -0.00, -1.00, 211.1, 126.0)">з</text><text xml:space="preserve" font-family="Roboto-Regular" font-size="30.0" fill="#383E51" transform="matrix(1.00, 0.00, -0.00, -1.00, 226.4, 126.0)">а</text><text xml:space="preserve" font-family="Roboto-Regular" font-size="30.0" fill="#383E51" transform="matrix(1.00, 0.00, -0.00, -1.00, 242.7, 126.0)">щ</text><text xml:space="preserve" font-family="Roboto-Regular" font-size="30.0" fill="#383E51" transform="matrix(1.00, 0.00, -0.00, -1.00, 267.5, 126.0)">и</text><text xml:space="preserve" font-family="Roboto-Regular" font-size="30.0" fill="#383E51" transform="matrix(1.00, 0.00, -0.00, -1.00, 284.8, 126.0)">т</text><text xml:space="preserve" font-family="Roboto-Regular" font-size="30.0" fill="#383E51" transform="matrix(1.00, 0.00, -0.00, -1.00, 298.1, 126.0)">е</text><text xml:space="preserve" font-family="Roboto-Regular" font-size="30.0" fill="#383E51" transform="matrix(1.00, 0.00, -0.00, -1.00, 314.0, 126.0)"> </text><text xml:space="preserve" font-family="Roboto-Regular" font-size="30.0" fill="#383E51" transform="matrix(1.00, 0.00, -0.00, -1.00, 321.4, 126.0)">п</text><text xml:space="preserve" font-family="Roboto-Regular" font-size="30.0" fill="#383E51" transform="matrix(1.00, 0.00, -0.00, -1.00, 338.7, 126.0)">р</text><text xml:space="preserve" font-family="Roboto-Regular" font-size="30.0" fill="#383E51" transform="matrix(1.00, 0.00, -0.00, -1.00, 355.5, 126.0)">о</text><text xml:space="preserve" font-family="Roboto-Regular" font-size="30.0" fill="#383E51" transform="matrix(1.00, 0.00, -0.00, -1.00, 372.3, 126.0)">т</text><text xml:space="preserve" font-family="Roboto-Regular" font-size="30.0" fill="#383E51" transform="matrix(1.00, 0.00, -0.00, -1.00, 386.7, 126.0)">и</text><text xml:space="preserve" font-family="Roboto-Regular" font-size="30.0" fill="#383E51" transform="matrix(1.00, 0.00, -0.00, -1.00, 404.1, 126.0)">в</text><text xml:space="preserve" font-family="Roboto-Regular" font-size="30.0" fill="#383E51" transform="matrix(1.00, 0.00, -0.00, -1.00, 421.2, 126.0)">н</text><text xml:space="preserve" font-family="Roboto-Regular" font-size="30.0" fill="#383E51" transform="matrix(1.00, 0.00, -0.00, -1.00, 438.5, 126.0)">и</text><text xml:space="preserve" font-family="Roboto-Regular" font-size="30.0" fill="#383E51" transform="matrix(1.00, 0.00, -0.00, -1.00, 455.8, 126.0)">к</text><text xml:space="preserve" font-family="Roboto-Regular" font-size="30.0" fill="#383E51" transform="matrix(1.00, 0.00, -0.00, -1.00, 472.0, 126.0)">а</text><text xml:space="preserve" font-family="Roboto-Regular" font-size="30.0" fill="#383E51" transform="matrix(1.00, 0.00, -0.00, -1.00, 488.3, 126.0)">,</text><text xml:space="preserve" font-family="Roboto-Regular" font-size="30.0" fill="#383E51" transform="matrix(1.00, 0.00, -0.00, -1.00, 494.2, 126.0)"> </text><text xml:space="preserve" font-family="Roboto-Regular" font-size="30.0" fill="#383E51" transform="matrix(1.00, 0.00, -0.00, -1.00, 501.6, 126.0)">е</text><text xml:space="preserve" font-family="Roboto-Regular" font-size="30.0" fill="#383E51" transform="matrix(1.00, 0.00, -0.00, -1.00, 517.5, 126.0)">с</text><text xml:space="preserve" font-family="Roboto-Regular" font-size="30.0" fill="#383E51" transform="matrix(1.00, 0.00, -0.00, -1.00, 533.3, 126.0)">л</text><text xml:space="preserve" font-family="Roboto-Regular" font-size="30.0" fill="#383E51" transform="matrix(1.00, 0.00, -0.00, -1.00, 550.6, 126.0)">и</text><text xml:space="preserve" font-family="Roboto-Regular" font-size="30.0" fill="#383E51" transform="matrix(1.00, 0.00, -0.00, -1.00, 567.9, 126.0)"> </text><text xml:space="preserve" font-family="Roboto-Regular" font-size="30.0" fill="#383E51" transform="matrix(1.00, 0.00, -0.00, -1.00, 575.3, 126.0)">п</text><text xml:space="preserve" font-family="Roboto-Regular" font-size="30.0" fill="#383E51" transform="matrix(1.00, 0.00, -0.00, -1.00, 592.6, 126.0)">р</text><text xml:space="preserve" font-family="Roboto-Regular" font-size="30.0" fill="#383E51" transform="matrix(1.00, 0.00, -0.00, -1.00, 609.5, 126.0)">о</text><text xml:space="preserve" font-family="Roboto-Regular" font-size="30.0" fill="#383E51" transform="matrix(1.00, 0.00, -0.00, -1.00, 626.3, 126.0)">т</text><text xml:space="preserve" font-family="Roboto-Regular" font-size="30.0" fill="#383E51" transform="matrix(1.00, 0.00, -0.00, -1.00, 640.7, 126.0)">и</text><text xml:space="preserve" font-family="Roboto-Regular" font-size="30.0" fill="#383E51" transform="matrix(1.00, 0.00, -0.00, -1.00, 658.0, 126.0)">в</text><text xml:space="preserve" font-family="Roboto-Regular" font-size="30.0" fill="#383E51" transform="matrix(1.00, 0.00, -0.00, -1.00, 675.2, 126.0)">н</text><text xml:space="preserve" font-family="Roboto-Regular" font-size="30.0" fill="#383E51" transform="matrix(1.00, 0.00, -0.00, -1.00, 692.5, 126.0)">и</text><text xml:space="preserve" font-family="Roboto-Regular" font-size="30.0" fill="#383E51" transform="matrix(1.00, 0.00, -0.00, -1.00, 709.8, 126.0)">к</text><text xml:space="preserve" font-family="Roboto-Regular" font-size="30.0" fill="#383E51" transform="matrix(1.00, 0.00, -0.00, -1.00, 726.0, 126.0)"> </text><text xml:space="preserve" font-family="Roboto-Regular" font-size="30.0" fill="#383E51" transform="matrix(1.00, 0.00, -0.00, -1.00, 733.4, 126.0)">я</text><text xml:space="preserve" font-family="Roboto-Regular" font-size="30.0" fill="#383E51" transform="matrix(1.00, 0.00, -0.00, -1.00, 749.9, 126.0)">д</text><text xml:space="preserve" font-family="Roboto-Regular" font-size="30.0" fill="#383E51" transform="matrix(1.00, 0.00, -0.00, -1.00, 768.0, 126.0)">о</text><text xml:space="preserve" font-family="Roboto-Regular" font-size="30.0" fill="#383E51" transform="matrix(1.00, 0.00, -0.00, -1.00, 785.1, 126.0)">в</text><text xml:space="preserve" font-family="Roboto-Regular" font-size="30.0" fill="#383E51" transform="matrix(1.00, 0.00, -0.00, -1.00, 802.2, 126.0)">и</text><text xml:space="preserve" font-family="Roboto-Regular" font-size="30.0" fill="#383E51" transform="matrix(1.00, 0.00, -0.00, -1.00, 819.6, 126.0)">т</text><text xml:space="preserve" font-family="Roboto-Regular" font-size="30.0" fill="#383E51" transform="matrix(1.00, 0.00, -0.00, -1.00, 833.4, 126.0)">о</text><text xml:space="preserve" font-family="Roboto-Regular" font-size="30.0" fill="#383E51" transform="matrix(1.00, 0.00, -0.00, -1.00, 850.5, 126.0)">е</text><text xml:space="preserve" font-family="Roboto-Regular" font-size="30.0" fill="#383E51" transform="matrix(1.00, 0.00, -0.00, -1.00, 1199.0, 133.0)">+</text><text xml:space="preserve" font-family="Roboto-Regular" font-size="30.0" fill="#383E51" transform="matrix(1.00, 0.00, -0.00, -1.00, 1216.0, 133.0)">3</text><text xml:space="preserve" font-family="Roboto-Regular" font-size="30.0" fill="#383E51" transform="matrix(1.00, 0.00, -0.00, -1.00, 1232.8, 133.0)"> </text><text xml:space="preserve" font-family="Roboto-Regular" font-size="30.0" fill="#383E51" transform="matrix(1.00, 0.00, -0.00, -1.00, 1240.2, 133.0)">к</text><text xml:space="preserve" font-family="Roboto-Regular" font-size="30.0" fill="#383E51" transform="matrix(1.00, 0.00, -0.00, -1.00, 1256.5, 133.0)"> </text><text xml:space="preserve" font-family="Roboto-Regular" font-size="30.0" fill="#383E51" transform="matrix(1.00, 0.00, -0.00, -1.00, 1263.9, 133.0)">а</text><text xml:space="preserve" font-family="Roboto-Regular" font-size="30.0" fill="#383E51" transform="matrix(1.00, 0.00, -0.00, -1.00, 1279.9, 133.0)">т</text><text xml:space="preserve" font-family="Roboto-Regular" font-size="30.0" fill="#383E51" transform="matrix(1.00, 0.00, -0.00, -1.00, 1294.1, 133.0)">а</text><text xml:space="preserve" font-family="Roboto-Regular" font-size="30.0" fill="#383E51" transform="matrix(1.00, 0.00, -0.00, -1.00, 1310.5, 133.0)">к</text><text xml:space="preserve" font-family="Roboto-Regular" font-size="30.0" fill="#383E51" transform="matrix(1.00, 0.00, -0.00, -1.00, 1326.4, 133.0)">е</text><text xml:space="preserve" font-family="Roboto-Regular" font-size="30.0" fill="#383E51" transform="matrix(1.00, 0.00, -0.00, -1.00, 1342.3, 133.0)">,</text><text xml:space="preserve" font-family="Roboto-Regular" font-size="30.0" fill="#383E51" transform="matrix(1.00, 0.00, -0.00, -1.00, 1348.2, 133.0)"> </text><text xml:space="preserve" font-family="Roboto-Regular" font-size="30.0" fill="#383E51" transform="matrix(1.00, 0.00, -0.00, -1.00, 1355.6, 133.0)">е</text><text xml:space="preserve" font-family="Roboto-Regular" font-size="30.0" fill="#383E51" transform="matrix(1.00, 0.00, -0.00, -1.00, 1371.5, 133.0)">с</text><text xml:space="preserve" font-family="Roboto-Regular" font-size="30.0" fill="#383E51" transform="matrix(1.00, 0.00, -0.00, -1.00, 1387.2, 133.0)">л</text><text xml:space="preserve" font-family="Roboto-Regular" font-size="30.0" fill="#383E51" transform="matrix(1.00, 0.00, -0.00, -1.00, 1404.6, 133.0)">и</text><text xml:space="preserve" font-family="Roboto-Regular" font-size="30.0" fill="#383E51" transform="matrix(1.00, 0.00, -0.00, -1.00, 1421.9, 133.0)"> </text><text xml:space="preserve" font-family="Roboto-Regular" font-size="30.0" fill="#383E51" transform="matrix(1.00, 0.00, -0.00, -1.00, 1429.3, 133.0)">п</text><text xml:space="preserve" font-family="Roboto-Regular" font-size="30.0" fill="#383E51" transform="matrix(1.00, 0.00, -0.00, -1.00, 1446.6, 133.0)">р</text><text xml:space="preserve" font-family="Roboto-Regular" font-size="30.0" fill="#383E51" transform="matrix(1.00, 0.00, -0.00, -1.00, 1463.5, 133.0)">о</text><text xml:space="preserve" font-family="Roboto-Regular" font-size="30.0" fill="#383E51" transform="matrix(1.00, 0.00, -0.00, -1.00, 1480.3, 133.0)">т</text><text xml:space="preserve" font-family="Roboto-Regular" font-size="30.0" fill="#383E51" transform="matrix(1.00, 0.00, -0.00, -1.00, 1494.7, 133.0)">и</text><text xml:space="preserve" font-family="Roboto-Regular" font-size="30.0" fill="#383E51" transform="matrix(1.00, 0.00, -0.00, -1.00, 1512.0, 133.0)">в</text><text xml:space="preserve" font-family="Roboto-Regular" font-size="30.0" fill="#383E51" transform="matrix(1.00, 0.00, -0.00, -1.00, 1529.1, 133.0)">н</text><text xml:space="preserve" font-family="Roboto-Regular" font-size="30.0" fill="#383E51" transform="matrix(1.00, 0.00, -0.00, -1.00, 1546.4, 133.0)">и</text><text xml:space="preserve" font-family="Roboto-Regular" font-size="30.0" fill="#383E51" transform="matrix(1.00, 0.00, -0.00, -1.00, 1563.8, 133.0)">к</text><text xml:space="preserve" font-family="Roboto-Regular" font-size="30.0" fill="#383E51" transform="matrix(1.00, 0.00, -0.00, -1.00, 1580.0, 133.0)"> </text><text xml:space="preserve" font-family="Roboto-Regular" font-size="30.0" fill="#383E51" transform="matrix(1.00, 0.00, -0.00, -1.00, 1587.4, 133.0)">п</text><text xml:space="preserve" font-family="Roboto-Regular" font-size="30.0" fill="#383E51" transform="matrix(1.00, 0.00, -0.00, -1.00, 1604.7, 133.0)">л</text><text xml:space="preserve" font-family="Roboto-Regular" font-size="30.0" fill="#383E51" transform="matrix(1.00, 0.00, -0.00, -1.00, 1622.1, 133.0)">а</text><text xml:space="preserve" font-family="Roboto-Regular" font-size="30.0" fill="#383E51" transform="matrix(1.00, 0.00, -0.00, -1.00, 1638.4, 133.0)">в</text><text xml:space="preserve" font-family="Roboto-Regular" font-size="30.0" fill="#383E51" transform="matrix(1.00, 0.00, -0.00, -1.00, 1655.5, 133.0)">а</text><text xml:space="preserve" font-family="Roboto-Regular" font-size="30.0" fill="#383E51" transform="matrix(1.00, 0.00, -0.00, -1.00, 1671.8, 133.0)">ю</text><text xml:space="preserve" font-family="Roboto-Regular" font-size="30.0" fill="#383E51" transform="matrix(1.00, 0.00, -0.00, -1.00, 1696.3, 133.0)">щ</text><text xml:space="preserve" font-family="Roboto-Regular" font-size="30.0" fill="#383E51" transform="matrix(1.00, 0.00, -0.00, -1.00, 1721.3, 133.0)">е</text><text xml:space="preserve" font-family="Roboto-Regular" font-size="30.0" fill="#383E51" transform="matrix(1.00, 0.00, -0.00, -1.00, 1737.2, 133.0)">е</text><text xml:space="preserve" font-family="Roboto-Regular" font-size="30.0" fill="#383E51" transform="matrix(1.00, 0.00, -0.00, -1.00, 1210.0, 80.0)">-</text><text xml:space="preserve" font-family="Roboto-Regular" font-size="30.0" fill="#383E51" transform="matrix(1.00, 0.00, -0.00, -1.00, 1218.3, 80.0)">1</text><text xml:space="preserve" font-family="Roboto-Regular" font-size="30.0" fill="#383E51" transform="matrix(1.00, 0.00, -0.00, -1.00, 1235.1, 80.0)"> </text><text xml:space="preserve" font-family="Roboto-Regular" font-size="30.0" fill="#383E51" transform="matrix(1.00, 0.00, -0.00, -1.00, 1242.5, 80.0)">к</text><text xml:space="preserve" font-family="Roboto-Regular" font-size="30.0" fill="#383E51" transform="matrix(1.00, 0.00, -0.00, -1.00, 1258.7, 80.0)"> </text><text xml:space="preserve" font-family="Roboto-Regular" font-size="30.0" fill="#383E51" transform="matrix(1.00, 0.00, -0.00, -1.00, 1266.1, 80.0)">з</text><text xml:space="preserve" font-family="Roboto-Regular" font-size="30.0" fill="#383E51" transform="matrix(1.00, 0.00, -0.00, -1.00, 1281.4, 80.0)">а</text><text xml:space="preserve" font-family="Roboto-Regular" font-size="30.0" fill="#383E51" transform="matrix(1.00, 0.00, -0.00, -1.00, 1297.7, 80.0)">щ</text><text xml:space="preserve" font-family="Roboto-Regular" font-size="30.0" fill="#383E51" transform="matrix(1.00, 0.00, -0.00, -1.00, 1322.5, 80.0)">и</text><text xml:space="preserve" font-family="Roboto-Regular" font-size="30.0" fill="#383E51" transform="matrix(1.00, 0.00, -0.00, -1.00, 1339.8, 80.0)">т</text><text xml:space="preserve" font-family="Roboto-Regular" font-size="30.0" fill="#383E51" transform="matrix(1.00, 0.00, -0.00, -1.00, 1353.1, 80.0)">е</text><text xml:space="preserve" font-family="Roboto-Regular" font-size="30.0" fill="#383E51" transform="matrix(1.00, 0.00, -0.00, -1.00, 1369.0, 80.0)">,</text><text xml:space="preserve" font-family="Roboto-Regular" font-size="30.0" fill="#383E51" transform="matrix(1.00, 0.00, -0.00, -1.00, 1374.9, 80.0)"> </text><text xml:space="preserve" font-family="Roboto-Regular" font-size="30.0" fill="#383E51" transform="matrix(1.00, 0.00, -0.00, -1.00, 1382.3, 80.0)">е</text><text xml:space="preserve" font-family="Roboto-Regular" font-size="30.0" fill="#383E51" transform="matrix(1.00, 0.00, -0.00, -1.00, 1398.2, 80.0)">с</text><text xml:space="preserve" font-family="Roboto-Regular" font-size="30.0" fill="#383E51" transform="matrix(1.00, 0.00, -0.00, -1.00, 1413.9, 80.0)">л</text><text xml:space="preserve" font-family="Roboto-Regular" font-size="30.0" fill="#383E51" transform="matrix(1.00, 0.00, -0.00, -1.00, 1431.2, 80.0)">и</text><text xml:space="preserve" font-family="Roboto-Regular" font-size="30.0" fill="#383E51" transform="matrix(1.00, 0.00, -0.00, -1.00, 1448.5, 80.0)"> </text><text xml:space="preserve" font-family="Roboto-Regular" font-size="30.0" fill="#383E51" transform="matrix(1.00, 0.00, -0.00, -1.00, 1456.0, 80.0)">п</text><text xml:space="preserve" font-family="Roboto-Regular" font-size="30.0" fill="#383E51" transform="matrix(1.00, 0.00, -0.00, -1.00, 1473.3, 80.0)">р</text><text xml:space="preserve" font-family="Roboto-Regular" font-size="30.0" fill="#383E51" transform="matrix(1.00, 0.00, -0.00, -1.00, 1490.1, 80.0)">о</text><text xml:space="preserve" font-family="Roboto-Regular" font-size="30.0" fill="#383E51" transform="matrix(1.00, 0.00, -0.00, -1.00, 1506.9, 80.0)">т</text><text xml:space="preserve" font-family="Roboto-Regular" font-size="30.0" fill="#383E51" transform="matrix(1.00, 0.00, -0.00, -1.00, 1521.3, 80.0)">и</text><text xml:space="preserve" font-family="Roboto-Regular" font-size="30.0" fill="#383E51" transform="matrix(1.00, 0.00, -0.00, -1.00, 1538.6, 80.0)">в</text><text xml:space="preserve" font-family="Roboto-Regular" font-size="30.0" fill="#383E51" transform="matrix(1.00, 0.00, -0.00, -1.00, 1555.8, 80.0)">н</text><text xml:space="preserve" font-family="Roboto-Regular" font-size="30.0" fill="#383E51" transform="matrix(1.00, 0.00, -0.00, -1.00, 1573.1, 80.0)">и</text><text xml:space="preserve" font-family="Roboto-Regular" font-size="30.0" fill="#383E51" transform="matrix(1.00, 0.00, -0.00, -1.00, 1590.4, 80.0)">к</text><text xml:space="preserve" font-family="Roboto-Regular" font-size="30.0" fill="#383E51" transform="matrix(1.00, 0.00, -0.00, -1.00, 1606.6, 80.0)"> </text><text xml:space="preserve" font-family="Roboto-Regular" font-size="30.0" fill="#383E51" transform="matrix(1.00, 0.00, -0.00, -1.00, 1614.0, 80.0)">п</text><text xml:space="preserve" font-family="Roboto-Regular" font-size="30.0" fill="#383E51" transform="matrix(1.00, 0.00, -0.00, -1.00, 1631.4, 80.0)">р</text><text xml:space="preserve" font-family="Roboto-Regular" font-size="30.0" fill="#383E51" transform="matrix(1.00, 0.00, -0.00, -1.00, 1648.2, 80.0)">ы</text><text xml:space="preserve" font-family="Roboto-Regular" font-size="30.0" fill="#383E51" transform="matrix(1.00, 0.00, -0.00, -1.00, 1671.5, 80.0)">г</text><text xml:space="preserve" font-family="Roboto-Regular" font-size="30.0" fill="#383E51" transform="matrix(1.00, 0.00, -0.00, -1.00, 1684.1, 80.0)">а</text><text xml:space="preserve" font-family="Roboto-Regular" font-size="30.0" fill="#383E51" transform="matrix(1.00, 0.00, -0.00, -1.00, 1700.4, 80.0)">ю</text><text xml:space="preserve" font-family="Roboto-Regular" font-size="30.0" fill="#383E51" transform="matrix(1.00, 0.00, -0.00, -1.00, 1724.9, 80.0)">щ</text><text xml:space="preserve" font-family="Roboto-Regular" font-size="30.0" fill="#383E51" transform="matrix(1.00, 0.00, -0.00, -1.00, 1749.7, 80.0)">и</text><text xml:space="preserve" font-family="Roboto-Regular" font-size="30.0" fill="#383E51" transform="matrix(1.00, 0.00, -0.00, -1.00, 1767.0, 80.0)">й</text><image xlink:href="../../710C39F4-EC0A-40E9-A353-AEDD765AFBFB/assets/62C0226E6826F5336F0D2D81CFF325BD.png" width="500.00" height="269.00" transform="matrix(1.10, 0.00, -0.00, -1.10, 1216.0, 925.0)"></image><g><clipPath id="clip-1196"><path d="M 985.6 906.9 L 1537.6 906.9 L 1537.6 1033.5 L 985.6 1033.5 Z M 985.6 906.9 "></path></clipPath><g clip-path="url(#clip-1196)"><path d="M 986.6 1032.5 L 1536.6 1032.5 L 1536.6 907.9 L 986.6 907.9 Z M 986.6 1032.5 " fill="#FFDA7B"></path></g></g><g><clipPath id="clip-1197"><path d="M 1000.2 911.9 L 1523.0 911.9 L 1523.0 1027.6 L 1000.2 1027.6 Z M 1000.2 911.9 "></path></clipPath><g clip-path="url(#clip-1197)"><text xml:space="preserve" font-family="Roboto-Light" font-size="66.0" fill="#383E51" transform="matrix(1.00, 0.00, -0.00, -1.00, 1020.0, 947.0)">Р</text><text xml:space="preserve" font-family="Roboto-Light" font-size="66.0" fill="#383E51" transform="matrix(1.00, 0.00, -0.00, -1.00, 1060.2, 947.0)">о</text><text xml:space="preserve" font-family="Roboto-Light" font-size="66.0" fill="#383E51" transform="matrix(1.00, 0.00, -0.00, -1.00, 1097.2, 947.0)">г</text><text xml:space="preserve" font-family="Roboto-Light" font-size="66.0" fill="#383E51" transform="matrix(1.00, 0.00, -0.00, -1.00, 1125.1, 947.0)">а</text><text xml:space="preserve" font-family="Roboto-Light" font-size="66.0" fill="#383E51" transform="matrix(1.00, 0.00, -0.00, -1.00, 1159.9, 947.0)">т</text><text xml:space="preserve" font-family="Roboto-Light" font-size="66.0" fill="#383E51" transform="matrix(1.00, 0.00, -0.00, -1.00, 1190.7, 947.0)">а</text><text xml:space="preserve" font-family="Roboto-Light" font-size="66.0" fill="#383E51" transform="matrix(1.00, 0.00, -0.00, -1.00, 1226.1, 947.0)">я</text><text xml:space="preserve" font-family="Roboto-Light" font-size="66.0" fill="#383E51" transform="matrix(1.00, 0.00, -0.00, -1.00, 1261.9, 947.0)"> </text><text xml:space="preserve" font-family="Roboto-Light" font-size="66.0" fill="#383E51" transform="matrix(1.00, 0.00, -0.00, -1.00, 1278.0, 947.0)">г</text><text xml:space="preserve" font-family="Roboto-Light" font-size="66.0" fill="#383E51" transform="matrix(1.00, 0.00, -0.00, -1.00, 1305.9, 947.0)">а</text><text xml:space="preserve" font-family="Roboto-Light" font-size="66.0" fill="#383E51" transform="matrix(1.00, 0.00, -0.00, -1.00, 1341.2, 947.0)">д</text><text xml:space="preserve" font-family="Roboto-Light" font-size="66.0" fill="#383E51" transform="matrix(1.00, 0.00, -0.00, -1.00, 1379.1, 947.0)">ю</text><text xml:space="preserve" font-family="Roboto-Light" font-size="66.0" fill="#383E51" transform="matrix(1.00, 0.00, -0.00, -1.00, 1432.8, 947.0)">к</text><text xml:space="preserve" font-family="Roboto-Light" font-size="66.0" fill="#383E51" transform="matrix(1.00, 0.00, -0.00, -1.00, 1467.0, 947.0)">а</text></g></g><g><clipPath id="clip-1198"><path d="M 1222.0 417.4 L 1372.0 417.4 L 1372.0 445.4 L 1222.0 445.4 Z M 1222.0 417.4 "></path></clipPath><g clip-path="url(#clip-1198)"><text xml:space="preserve" font-family="Helvetica-Light" font-size="28.0" fill="#383E51" transform="matrix(1.00, 0.00, -0.00, -1.00, 1232.0, 418.0)">С</text><text xml:space="preserve" font-family="Helvetica-Light" font-size="28.0" fill="#383E51" transform="matrix(1.00, 0.00, -0.00, -1.00, 1251.7, 418.0)">т</text><text xml:space="preserve" font-family="Helvetica-Light" font-size="28.0" fill="#383E51" transform="matrix(1.00, 0.00, -0.00, -1.00, 1264.1, 418.0)">р</text><text xml:space="preserve" font-family="Helvetica-Light" font-size="28.0" fill="#383E51" transform="matrix(1.00, 0.00, -0.00, -1.00, 1280.2, 418.0)">а</text><text xml:space="preserve" font-family="Helvetica-Light" font-size="28.0" fill="#383E51" transform="matrix(1.00, 0.00, -0.00, -1.00, 1294.7, 418.0)">ш</text><text xml:space="preserve" font-family="Helvetica-Light" font-size="28.0" fill="#383E51" transform="matrix(1.00, 0.00, -0.00, -1.00, 1316.6, 418.0)">н</text><text xml:space="preserve" font-family="Helvetica-Light" font-size="28.0" fill="#383E51" transform="matrix(1.00, 0.00, -0.00, -1.00, 1331.7, 418.0)">о</text><text xml:space="preserve" font-family="Helvetica-Light" font-size="28.0" fill="#383E51" transform="matrix(1.00, 0.00, -0.00, -1.00, 1347.2, 418.0)">е</text></g></g><g><clipPath id="clip-1199"><path d="M 1240.2 447.3 L 1342.2 447.3 L 1342.2 549.3 L 1240.2 549.3 Z M 1240.2 447.3 "></path></clipPath><g clip-path="url(#clip-1199)"><image xlink:href="../../710C39F4-EC0A-40E9-A353-AEDD765AFBFB/assets/071E955644F61C6710E86AE74D5BA9D0.png" width="118.00" height="118.00" transform="matrix(0.86, 0.00, -0.00, -0.86, 1240.0, 549.0)"></image></g></g><g><clipPath id="clip-1200"><path d="M 1412.7 412.0 L 1573.0 412.0 L 1573.0 442.0 L 1412.7 442.0 Z M 1412.7 412.0 "></path></clipPath><g clip-path="url(#clip-1200)"><text xml:space="preserve" font-family="Helvetica-Light" font-size="28.0" fill="#383E51" transform="matrix(1.00, 0.00, -0.00, -1.00, 1432.0, 414.0)">Я</text><text xml:space="preserve" font-family="Helvetica-Light" font-size="28.0" fill="#383E51" transform="matrix(1.00, 0.00, -0.00, -1.00, 1449.6, 414.0)">д</text><text xml:space="preserve" font-family="Helvetica-Light" font-size="28.0" fill="#383E51" transform="matrix(1.00, 0.00, -0.00, -1.00, 1465.6, 414.0)">о</text><text xml:space="preserve" font-family="Helvetica-Light" font-size="28.0" fill="#383E51" transform="matrix(1.00, 0.00, -0.00, -1.00, 1481.2, 414.0)">в</text><text xml:space="preserve" font-family="Helvetica-Light" font-size="28.0" fill="#383E51" transform="matrix(1.00, 0.00, -0.00, -1.00, 1495.6, 414.0)">и</text><text xml:space="preserve" font-family="Helvetica-Light" font-size="28.0" fill="#383E51" transform="matrix(1.00, 0.00, -0.00, -1.00, 1510.9, 414.0)">т</text><text xml:space="preserve" font-family="Helvetica-Light" font-size="28.0" fill="#383E51" transform="matrix(1.00, 0.00, -0.00, -1.00, 1523.3, 414.0)">о</text><text xml:space="preserve" font-family="Helvetica-Light" font-size="28.0" fill="#383E51" transform="matrix(1.00, 0.00, -0.00, -1.00, 1538.8, 414.0)">е</text></g></g><g><clipPath id="clip-1201"><path d="M 1435.7 439.5 L 1550.0 439.5 L 1550.0 553.8 L 1435.7 553.8 Z M 1435.7 439.5 "></path></clipPath><g clip-path="url(#clip-1201)"><image xlink:href="../../710C39F4-EC0A-40E9-A353-AEDD765AFBFB/assets/EEEC1EEC368994E9F2D2CCE931C89B1B.png" width="128.00" height="128.00" transform="matrix(0.89, 0.00, -0.00, -0.90, 1436.0, 554.0)"></image></g></g></g></svg>