<?xml version="1.0" encoding="UTF-8" standalone="no"?><svg xmlns="http://www.w3.org/2000/svg" xmlns:xlink="http://www.w3.org/1999/xlink" clip-rule="evenodd" stroke-miterlimit="4.00" viewBox="0 0 131 142"><desc>SVG generated by Keynote</desc><defs></defs><g transform="matrix(1.00, 0.00, -0.00, -1.00, 0.0, 142.0)"><g><clipPath id="clip-1150"><path d="M 0.0 5.2 L 131.0 5.2 L 131.0 32.2 L 0.0 32.2 Z M 0.0 5.2 "></path></clipPath><g clip-path="url(#clip-1150)"><text xml:space="preserve" font-family="Helvetica-Light" font-size="28.0" fill="#383E51" transform="matrix(1.00, 0.00, -0.00, -1.00, 11.0, 5.0)">С</text><text xml:space="preserve" font-family="Helvetica-Light" font-size="28.0" fill="#383E51" transform="matrix(1.00, 0.00, -0.00, -1.00, 30.7, 5.0)">и</text><text xml:space="preserve" font-family="Helvetica-Light" font-size="28.0" fill="#383E51" transform="matrix(1.00, 0.00, -0.00, -1.00, 45.9, 5.0)">л</text><text xml:space="preserve" font-family="Helvetica-Light" font-size="28.0" fill="#383E51" transform="matrix(1.00, 0.00, -0.00, -1.00, 61.8, 5.0)">ь</text><text xml:space="preserve" font-family="Helvetica-Light" font-size="28.0" fill="#383E51" transform="matrix(1.00, 0.00, -0.00, -1.00, 75.8, 5.0)">н</text><text xml:space="preserve" font-family="Helvetica-Light" font-size="28.0" fill="#383E51" transform="matrix(1.00, 0.00, -0.00, -1.00, 90.8, 5.0)">о</text><text xml:space="preserve" font-family="Helvetica-Light" font-size="28.0" fill="#383E51" transform="matrix(1.00, 0.00, -0.00, -1.00, 106.4, 5.0)">е</text></g></g><g><clipPath id="clip-1151"><path d="M 14.2 34.3 L 121.2 34.3 L 121.2 141.2 L 14.2 141.2 Z M 14.2 34.3 "></path></clipPath><g clip-path="url(#clip-1151)"><image xlink:href="../../63D7FFC8-C2C1-4797-A657-50AFBA060BB8/assets/342BF0D44941A8895A3AC45041D92E9C.png" width="128.00" height="128.00" transform="matrix(0.84, 0.00, -0.00, -0.84, 14.0, 141.0)"></image></g></g></g></svg>