<?xml version="1.0" encoding="UTF-8" standalone="no"?><svg xmlns="http://www.w3.org/2000/svg" xmlns:xlink="http://www.w3.org/1999/xlink" clip-rule="evenodd" stroke-miterlimit="4.00" viewBox="0 0 424 59"><desc>SVG generated by Keynote</desc><defs></defs><g transform="matrix(1.00, 0.00, -0.00, -1.00, 0.0, 59.0)"><text xml:space="preserve" font-family="Roboto" font-weight="200" font-size="71.0" fill="#383E51" transform="matrix(1.00, 0.00, -0.00, -1.00, 1.0, 2.0)">Л</text><text xml:space="preserve" font-family="Roboto" font-weight="200" font-size="71.0" fill="#383E51" transform="matrix(1.00, 0.00, -0.00, -1.00, 50.9, 2.0)">е</text><text xml:space="preserve" font-family="Roboto" font-weight="200" font-size="71.0" fill="#383E51" transform="matrix(1.00, 0.00, -0.00, -1.00, 87.5, 2.0)">с</text><text xml:space="preserve" font-family="Roboto" font-weight="200" font-size="71.0" fill="#383E51" transform="matrix(1.00, 0.00, -0.00, -1.00, 124.1, 2.0)">н</text><text xml:space="preserve" font-family="Roboto" font-weight="200" font-size="71.0" fill="#383E51" transform="matrix(1.00, 0.00, -0.00, -1.00, 164.0, 2.0)">а</text><text xml:space="preserve" font-family="Roboto" font-weight="200" font-size="71.0" fill="#383E51" transform="matrix(1.00, 0.00, -0.00, -1.00, 202.0, 2.0)">я</text><text xml:space="preserve" font-family="Roboto" font-weight="200" font-size="71.0" fill="#383E51" transform="matrix(1.00, 0.00, -0.00, -1.00, 240.5, 2.0)"> </text><text xml:space="preserve" font-family="Roboto" font-weight="200" font-size="71.0" fill="#383E51" transform="matrix(1.00, 0.00, -0.00, -1.00, 257.8, 2.0)">ж</text><text xml:space="preserve" font-family="Roboto" font-weight="200" font-size="71.0" fill="#383E51" transform="matrix(1.00, 0.00, -0.00, -1.00, 312.3, 2.0)">а</text><text xml:space="preserve" font-family="Roboto" font-weight="200" font-size="71.0" fill="#383E51" transform="matrix(1.00, 0.00, -0.00, -1.00, 350.3, 2.0)">б</text><text xml:space="preserve" font-family="Roboto" font-weight="200" font-size="71.0" fill="#383E51" transform="matrix(1.00, 0.00, -0.00, -1.00, 389.4, 2.0)">а</text></g></svg>