<?xml version="1.0" encoding="UTF-8" standalone="no"?><svg xmlns="http://www.w3.org/2000/svg" xmlns:xlink="http://www.w3.org/1999/xlink" clip-rule="evenodd" stroke-miterlimit="4.00" viewBox="0 0 183 128"><desc>SVG generated by Keynote</desc><defs></defs><g transform="matrix(1.00, 0.00, -0.00, -1.00, 0.0, 128.0)"><g><clipPath id="clip-1146"><path d="M 0.0 112.0 L 97.0 112.0 L 97.0 16.0 L 0.0 16.0 Z M 0.3 112.3 "></path></clipPath><g clip-path="url(#clip-1146)"><g><clipPath id="clip-1147"><path d="M 9.0 112.0 L 6.9 111.0 C 4.5 109.4 2.8 107.6 1.3 105.2 L 0.0 103.6 L 0.0 103.0 L 1.7 103.0 C 2.5 102.7 3.6 102.4 4.2 102.5 C 5.2 102.7 5.7 102.3 8.0 100.0 L 10.7 97.3 L 9.2 96.1 C 7.9 95.1 7.3 95.0 5.0 95.0 C 2.3 95.0 2.3 95.0 2.1 93.8 C 1.8 92.4 2.4 90.0 3.4 88.7 C 4.5 87.3 7.4 86.7 9.1 87.0 L 10.0 87.0 L 10.0 89.5 C 10.0 91.7 10.6 92.4 11.4 93.5 C 11.9 94.2 12.6 94.8 12.8 94.8 C 13.4 94.8 19.5 88.6 19.1 88.3 C 19.0 88.1 18.2 88.0 17.5 88.0 L 16.0 88.0 L 16.0 81.4 C 16.6 67.9 19.2 57.6 23.7 48.6 L 25.3 45.5 L 14.2 34.4 L 3.2 23.3 L 2.0 20.1 C 1.5 18.4 0.9 16.9 0.6 16.5 C 0.6 16.4 0.6 16.3 0.7 16.3 C 0.7 16.2 0.8 16.2 0.9 16.2 C 1.3 16.5 2.8 17.0 4.4 17.6 L 7.6 18.6 L 18.3 29.3 L 28.9 39.9 L 31.8 36.9 C 35.5 33.1 39.0 30.6 43.3 28.5 C 47.8 26.3 49.2 26.3 53.7 28.5 C 58.0 30.6 61.4 33.1 65.1 36.9 L 68.0 39.9 L 78.7 29.3 L 89.3 18.6 L 92.5 17.6 C 94.2 17.0 95.6 16.5 96.1 16.2 C 96.2 16.2 96.2 16.2 96.3 16.3 C 96.3 16.3 96.3 16.4 96.4 16.5 C 96.1 16.9 95.5 18.4 94.9 20.1 L 93.8 23.3 L 82.7 34.4 L 71.7 45.5 L 73.3 48.6 C 77.8 57.6 80.4 67.9 81.0 81.6 L 81.0 88.0 L 79.5 88.0 C 78.7 88.0 77.9 88.1 77.8 88.3 C 77.7 88.5 79.1 90.1 80.8 91.8 C 84.3 95.3 84.6 95.3 86.0 92.8 C 86.6 91.7 87.1 90.9 87.0 89.1 L 86.0 87.0 L 87.8 87.0 C 89.6 86.7 92.4 87.3 93.5 88.7 C 94.6 90.0 95.2 92.4 94.9 93.8 C 94.7 95.0 94.6 95.0 92.0 95.0 C 89.6 95.0 89.1 95.1 87.8 96.1 L 86.3 97.3 L 89.0 100.0 C 91.3 102.3 91.8 102.7 92.8 102.5 C 93.4 102.4 94.5 102.7 95.3 103.0 L 97.0 103.0 L 97.0 103.6 L 95.4 105.6 C 93.8 108.0 92.0 109.8 89.6 111.3 L 88.0 112.0 L 88.0 112.0 L 87.0 110.9 C 86.7 110.1 86.8 109.0 86.9 108.4 C 87.1 107.5 86.8 106.9 84.4 104.6 L 82.0 101.9 L 81.0 102.8 C 79.6 104.4 78.9 105.5 79.0 107.9 L 79.0 110.0 L 77.6 110.0 C 75.5 110.2 74.1 109.8 72.6 108.3 C 71.6 107.3 71.1 106.7 71.0 104.6 L 71.0 102.0 L 73.9 102.0 C 76.3 102.0 76.8 102.0 78.2 101.0 L 79.7 99.8 L 74.3 94.5 C 68.2 88.3 68.9 88.5 63.0 91.3 C 57.7 93.9 53.4 97.4 49.6 102.3 L 48.5 103.7 L 47.4 102.3 C 43.4 97.1 36.4 91.9 31.0 90.0 L 28.1 89.0 L 22.7 94.4 L 17.3 99.8 L 18.8 101.0 C 20.1 102.0 20.7 102.0 23.1 102.0 L 26.0 102.0 L 26.0 104.6 C 25.9 106.7 25.3 107.3 24.4 108.3 C 22.9 109.8 21.5 110.2 19.3 110.0 L 18.0 110.0 L 18.0 107.9 C 18.1 105.5 17.4 104.4 16.0 102.8 L 15.0 101.9 L 12.5 104.6 C 10.2 106.9 9.8 107.5 10.0 108.4 C 10.2 109.0 10.3 110.1 10.0 110.9 L 9.0 112.0 L 9.0 112.0 Z M 48.5 94.8 L 50.6 93.0 C 54.5 89.5 60.0 86.2 64.6 84.6 C 67.6 83.6 71.2 82.8 72.9 82.8 C 75.2 82.8 75.4 82.3 74.8 76.3 C 73.6 63.2 70.5 53.4 64.8 45.4 C 61.1 40.2 55.5 35.3 50.7 33.2 C 49.5 32.6 48.4 32.2 48.4 32.2 C 47.3 32.5 43.4 34.6 41.5 36.0 C 30.3 44.0 23.9 57.3 22.1 76.3 C 21.6 82.3 21.7 82.8 24.1 82.8 C 26.3 82.8 31.6 84.2 35.2 85.7 C 39.0 87.3 43.2 90.0 46.3 92.8 L 48.5 94.8 Z M 48.5 94.8 "></path></clipPath><g clip-path="url(#clip-1147)"><g><clipPath id="clip-1148"><path d="M 0.3 16.2 L 96.7 16.2 L 96.7 112.3 L 0.3 112.3 Z M 0.3 16.2 "></path></clipPath><g clip-path="url(#clip-1148)"><image xlink:href="../../63D7FFC8-C2C1-4797-A657-50AFBA060BB8/assets/DD7F7FCD5A532E6314C749E9C98A253A.png" width="97.00" height="97.00" transform="matrix(1.00, 0.00, -0.00, -0.99, 0.0, 112.0)"></image></g></g></g></g></g></g><g><clipPath id="clip-1149"><path d="M 89.2 -23.5 L 206.7 -23.5 L 206.7 152.1 L 89.2 152.1 Z M 89.2 -23.5 "></path></clipPath><g clip-path="url(#clip-1149)"><text xml:space="preserve" font-family="Roboto" font-weight="bold" font-size="100.0" fill="#000000" transform="matrix(1.00, 0.00, -0.00, -1.00, 119.0, 30.0)">8</text></g></g></g></svg>