<?xml version="1.0" encoding="UTF-8" standalone="no"?><svg xmlns="http://www.w3.org/2000/svg" xmlns:xlink="http://www.w3.org/1999/xlink" clip-rule="evenodd" stroke-miterlimit="4.00" viewBox="0 0 714 31"><desc>SVG generated by Keynote</desc><defs></defs><g transform="matrix(1.00, 0.00, -0.00, -1.00, 0.0, 31.0)"><text xml:space="preserve" font-family="Roboto-Regular" font-size="30.0" fill="#383E51" transform="matrix(1.00, 0.00, -0.00, -1.00, 1.0, 8.0)">-</text><text xml:space="preserve" font-family="Roboto-Regular" font-size="30.0" fill="#383E51" transform="matrix(1.00, 0.00, -0.00, -1.00, 9.3, 8.0)">1</text><text xml:space="preserve" font-family="Roboto-Regular" font-size="30.0" fill="#383E51" transform="matrix(1.00, 0.00, -0.00, -1.00, 26.1, 8.0)"> </text><text xml:space="preserve" font-family="Roboto-Regular" font-size="30.0" fill="#383E51" transform="matrix(1.00, 0.00, -0.00, -1.00, 33.5, 8.0)">к</text><text xml:space="preserve" font-family="Roboto-Regular" font-size="30.0" fill="#383E51" transform="matrix(1.00, 0.00, -0.00, -1.00, 49.7, 8.0)"> </text><text xml:space="preserve" font-family="Roboto-Regular" font-size="30.0" fill="#383E51" transform="matrix(1.00, 0.00, -0.00, -1.00, 57.1, 8.0)">з</text><text xml:space="preserve" font-family="Roboto-Regular" font-size="30.0" fill="#383E51" transform="matrix(1.00, 0.00, -0.00, -1.00, 72.4, 8.0)">а</text><text xml:space="preserve" font-family="Roboto-Regular" font-size="30.0" fill="#383E51" transform="matrix(1.00, 0.00, -0.00, -1.00, 88.7, 8.0)">щ</text><text xml:space="preserve" font-family="Roboto-Regular" font-size="30.0" fill="#383E51" transform="matrix(1.00, 0.00, -0.00, -1.00, 113.5, 8.0)">и</text><text xml:space="preserve" font-family="Roboto-Regular" font-size="30.0" fill="#383E51" transform="matrix(1.00, 0.00, -0.00, -1.00, 130.8, 8.0)">т</text><text xml:space="preserve" font-family="Roboto-Regular" font-size="30.0" fill="#383E51" transform="matrix(1.00, 0.00, -0.00, -1.00, 144.1, 8.0)">е</text><text xml:space="preserve" font-family="Roboto-Regular" font-size="30.0" fill="#383E51" transform="matrix(1.00, 0.00, -0.00, -1.00, 160.0, 8.0)"> </text><text xml:space="preserve" font-family="Roboto-Regular" font-size="30.0" fill="#383E51" transform="matrix(1.00, 0.00, -0.00, -1.00, 167.4, 8.0)">п</text><text xml:space="preserve" font-family="Roboto-Regular" font-size="30.0" fill="#383E51" transform="matrix(1.00, 0.00, -0.00, -1.00, 184.7, 8.0)">р</text><text xml:space="preserve" font-family="Roboto-Regular" font-size="30.0" fill="#383E51" transform="matrix(1.00, 0.00, -0.00, -1.00, 201.5, 8.0)">о</text><text xml:space="preserve" font-family="Roboto-Regular" font-size="30.0" fill="#383E51" transform="matrix(1.00, 0.00, -0.00, -1.00, 218.3, 8.0)">т</text><text xml:space="preserve" font-family="Roboto-Regular" font-size="30.0" fill="#383E51" transform="matrix(1.00, 0.00, -0.00, -1.00, 232.7, 8.0)">и</text><text xml:space="preserve" font-family="Roboto-Regular" font-size="30.0" fill="#383E51" transform="matrix(1.00, 0.00, -0.00, -1.00, 250.1, 8.0)">в</text><text xml:space="preserve" font-family="Roboto-Regular" font-size="30.0" fill="#383E51" transform="matrix(1.00, 0.00, -0.00, -1.00, 267.2, 8.0)">н</text><text xml:space="preserve" font-family="Roboto-Regular" font-size="30.0" fill="#383E51" transform="matrix(1.00, 0.00, -0.00, -1.00, 284.5, 8.0)">и</text><text xml:space="preserve" font-family="Roboto-Regular" font-size="30.0" fill="#383E51" transform="matrix(1.00, 0.00, -0.00, -1.00, 301.8, 8.0)">к</text><text xml:space="preserve" font-family="Roboto-Regular" font-size="30.0" fill="#383E51" transform="matrix(1.00, 0.00, -0.00, -1.00, 318.0, 8.0)">а</text><text xml:space="preserve" font-family="Roboto-Regular" font-size="30.0" fill="#383E51" transform="matrix(1.00, 0.00, -0.00, -1.00, 334.3, 8.0)">,</text><text xml:space="preserve" font-family="Roboto-Regular" font-size="30.0" fill="#383E51" transform="matrix(1.00, 0.00, -0.00, -1.00, 340.2, 8.0)"> </text><text xml:space="preserve" font-family="Roboto-Regular" font-size="30.0" fill="#383E51" transform="matrix(1.00, 0.00, -0.00, -1.00, 347.6, 8.0)">е</text><text xml:space="preserve" font-family="Roboto-Regular" font-size="30.0" fill="#383E51" transform="matrix(1.00, 0.00, -0.00, -1.00, 363.5, 8.0)">с</text><text xml:space="preserve" font-family="Roboto-Regular" font-size="30.0" fill="#383E51" transform="matrix(1.00, 0.00, -0.00, -1.00, 379.3, 8.0)">л</text><text xml:space="preserve" font-family="Roboto-Regular" font-size="30.0" fill="#383E51" transform="matrix(1.00, 0.00, -0.00, -1.00, 396.6, 8.0)">и</text><text xml:space="preserve" font-family="Roboto-Regular" font-size="30.0" fill="#383E51" transform="matrix(1.00, 0.00, -0.00, -1.00, 413.9, 8.0)"> </text><text xml:space="preserve" font-family="Roboto-Regular" font-size="30.0" fill="#383E51" transform="matrix(1.00, 0.00, -0.00, -1.00, 421.3, 8.0)">п</text><text xml:space="preserve" font-family="Roboto-Regular" font-size="30.0" fill="#383E51" transform="matrix(1.00, 0.00, -0.00, -1.00, 438.6, 8.0)">р</text><text xml:space="preserve" font-family="Roboto-Regular" font-size="30.0" fill="#383E51" transform="matrix(1.00, 0.00, -0.00, -1.00, 455.5, 8.0)">о</text><text xml:space="preserve" font-family="Roboto-Regular" font-size="30.0" fill="#383E51" transform="matrix(1.00, 0.00, -0.00, -1.00, 472.3, 8.0)">т</text><text xml:space="preserve" font-family="Roboto-Regular" font-size="30.0" fill="#383E51" transform="matrix(1.00, 0.00, -0.00, -1.00, 486.7, 8.0)">и</text><text xml:space="preserve" font-family="Roboto-Regular" font-size="30.0" fill="#383E51" transform="matrix(1.00, 0.00, -0.00, -1.00, 504.0, 8.0)">в</text><text xml:space="preserve" font-family="Roboto-Regular" font-size="30.0" fill="#383E51" transform="matrix(1.00, 0.00, -0.00, -1.00, 521.2, 8.0)">н</text><text xml:space="preserve" font-family="Roboto-Regular" font-size="30.0" fill="#383E51" transform="matrix(1.00, 0.00, -0.00, -1.00, 538.5, 8.0)">и</text><text xml:space="preserve" font-family="Roboto-Regular" font-size="30.0" fill="#383E51" transform="matrix(1.00, 0.00, -0.00, -1.00, 555.8, 8.0)">к</text><text xml:space="preserve" font-family="Roboto-Regular" font-size="30.0" fill="#383E51" transform="matrix(1.00, 0.00, -0.00, -1.00, 572.0, 8.0)"> </text><text xml:space="preserve" font-family="Roboto-Regular" font-size="30.0" fill="#383E51" transform="matrix(1.00, 0.00, -0.00, -1.00, 579.4, 8.0)">я</text><text xml:space="preserve" font-family="Roboto-Regular" font-size="30.0" fill="#383E51" transform="matrix(1.00, 0.00, -0.00, -1.00, 595.9, 8.0)">д</text><text xml:space="preserve" font-family="Roboto-Regular" font-size="30.0" fill="#383E51" transform="matrix(1.00, 0.00, -0.00, -1.00, 614.0, 8.0)">о</text><text xml:space="preserve" font-family="Roboto-Regular" font-size="30.0" fill="#383E51" transform="matrix(1.00, 0.00, -0.00, -1.00, 631.1, 8.0)">в</text><text xml:space="preserve" font-family="Roboto-Regular" font-size="30.0" fill="#383E51" transform="matrix(1.00, 0.00, -0.00, -1.00, 648.2, 8.0)">и</text><text xml:space="preserve" font-family="Roboto-Regular" font-size="30.0" fill="#383E51" transform="matrix(1.00, 0.00, -0.00, -1.00, 665.6, 8.0)">т</text><text xml:space="preserve" font-family="Roboto-Regular" font-size="30.0" fill="#383E51" transform="matrix(1.00, 0.00, -0.00, -1.00, 679.4, 8.0)">о</text><text xml:space="preserve" font-family="Roboto-Regular" font-size="30.0" fill="#383E51" transform="matrix(1.00, 0.00, -0.00, -1.00, 696.5, 8.0)">е</text></g></svg>