<?xml version="1.0" encoding="UTF-8" standalone="no"?><svg xmlns="http://www.w3.org/2000/svg" xmlns:xlink="http://www.w3.org/1999/xlink" clip-rule="evenodd" stroke-miterlimit="4.00" viewBox="0 0 1920 1080"><desc>SVG generated by Keynote</desc><defs></defs><g transform="matrix(1.00, 0.00, -0.00, -1.00, 0.0, 1080.0)"><path d="M 0.0 1080.0 L 1920.0 1080.0 L 1920.0 0.0 L 0.0 0.0 Z M 0.0 1080.0 " fill="#FECF60"></path><path d="M 114.8 421.6 L 1215.8 421.6 L 1215.8 249.6 L 114.8 249.6 Z M 114.8 421.6 " fill="#FEDF73"></path><g><clipPath id="clip-3108"><path d="M 1377.0 202.0 L 1770.0 202.0 L 1770.0 671.0 L 1377.0 671.0 Z M 1377.0 202.0 "></path></clipPath><g clip-path="url(#clip-3108)"><path d="M 35.7 71.4 C 55.4 71.4 71.4 55.4 71.4 35.7 C 71.4 16.0 55.4 0.0 35.7 0.0 C 16.0 0.0 0.0 16.0 0.0 35.7 C 0.0 55.4 16.0 71.4 35.7 71.4 Z M 35.7 71.4 " fill="none" stroke="#575E61" stroke-width="3.00" stroke-miterlimit="0.00" transform="matrix(1.55, 0.00, 0.00, -1.55, 1583.0, 659.2)"></path><path d="M 29.9 59.7 C 13.4 59.7 0.0 46.3 0.0 29.9 C 0.0 13.4 13.4 0.0 29.9 0.0 C 46.3 0.0 59.7 13.4 59.7 29.9 C 59.7 46.3 46.3 59.7 29.9 59.7 L 29.9 59.7 Z M 29.9 59.7 " fill="none" stroke="#575E61" stroke-width="2.00" stroke-miterlimit="0.00" transform="matrix(1.55, 0.00, 0.00, -1.55, 1592.0, 650.1)"></path><path d="M 24.6 49.3 C 11.1 49.3 0.0 38.2 0.0 24.6 C 0.0 11.1 11.1 0.0 24.6 0.0 C 38.2 0.0 49.3 11.1 49.3 24.6 C 49.3 38.2 38.2 49.3 24.6 49.3 L 24.6 49.3 Z M 24.6 49.3 " fill="none" stroke="#575E61" stroke-width="6.00" stroke-miterlimit="0.00" transform="matrix(1.55, 0.00, 0.00, -1.55, 1600.1, 642.0)"></path><path d="M 20.6 41.3 C 9.3 41.3 0.0 32.0 0.0 20.6 C 0.0 9.3 9.3 0.0 20.6 0.0 C 32.0 0.0 41.3 9.3 41.3 20.6 C 41.3 32.0 32.0 41.3 20.6 41.3 L 20.6 41.3 Z M 20.6 41.3 " fill="none" stroke="#575E61" stroke-width="1.00" stroke-miterlimit="0.00" stroke-dasharray="2.0, 2.0" transform="matrix(1.55, 0.00, 0.00, -1.55, 1606.4, 635.8)"></path><path d="M 25.0 50.0 C 38.8 50.0 50.0 38.8 50.0 25.0 C 50.0 11.2 38.8 0.0 25.0 0.0 C 11.2 0.0 0.0 11.2 0.0 25.0 C 0.0 38.8 11.2 50.0 25.0 50.0 Z M 25.0 50.0 " fill="none" stroke="#575E61" stroke-width="3.00" stroke-miterlimit="0.00" transform="matrix(1.55, 0.00, 0.00, -1.55, 1459.4, 625.9)"></path><path d="M 19.2 38.3 C 8.6 38.3 0.0 29.7 0.0 19.2 C 0.0 8.6 8.6 0.0 19.2 0.0 C 29.7 0.0 38.3 8.6 38.3 19.2 C 38.3 29.7 29.7 38.3 19.2 38.3 L 19.2 38.3 Z M 19.2 38.3 " fill="none" stroke="#575E61" stroke-width="2.00" stroke-miterlimit="0.00" transform="matrix(1.55, 0.00, 0.00, -1.55, 1468.5, 616.9)"></path><path d="M 13.9 27.9 C 6.2 27.9 0.0 21.6 0.0 13.9 C 0.0 6.2 6.2 0.0 13.9 0.0 C 21.6 0.0 27.9 6.2 27.9 13.9 C 27.9 21.6 21.6 27.9 13.9 27.9 L 13.9 27.9 Z M 13.9 27.9 " fill="none" stroke="#575E61" stroke-width="6.00" stroke-miterlimit="0.00" transform="matrix(1.55, 0.00, 0.00, -1.55, 1476.6, 608.8)"></path><path d="M 9.9 19.9 C 4.5 19.9 0.0 15.4 0.0 9.9 C 0.0 4.5 4.5 0.0 9.9 0.0 C 15.4 0.0 19.9 4.5 19.9 9.9 C 19.9 15.4 15.4 19.9 9.9 19.9 L 9.9 19.9 Z M 9.9 19.9 " fill="none" stroke="#575E61" stroke-width="1.00" stroke-miterlimit="0.00" stroke-dasharray="1.9, 1.9" transform="matrix(1.55, 0.00, 0.00, -1.55, 1482.8, 602.5)"></path><path d="M 150.9 0.0 L 150.9 51.2 L 0.0 51.2 L 0.0 10.7 " fill="none" stroke="#575E61" stroke-width="3.00" stroke-miterlimit="0.00" transform="matrix(1.55, 0.00, 0.00, -1.55, 1459.4, 603.8)"></path><path d="M 35.7 0.0 L 20.6 18.6 L 0.0 18.6 " fill="none" stroke="#575E61" stroke-width="3.00" stroke-miterlimit="0.00" transform="matrix(1.55, 0.00, 0.00, -1.55, 1638.4, 524.2)"></path><path d="M 50.0 18.6 L 15.1 18.6 L 0.0 0.0 " fill="none" stroke="#575E61" stroke-width="3.00" stroke-miterlimit="0.00" transform="matrix(1.55, 0.00, 0.00, -1.55, 1459.4, 524.2)"></path><path d="M 0.0 5.4 L 38.9 0.0 " fill="none" stroke="#575E61" stroke-width="3.00" stroke-miterlimit="0.00" transform="matrix(1.55, 0.00, 0.00, -1.55, 1525.9, 622.7)"></path><path d="M 9.1 0.0 L 0.0 0.0 L 0.0 30.4 L 9.1 30.4 " fill="none" stroke="#575E61" stroke-width="3.00" stroke-miterlimit="0.00" transform="matrix(1.55, 0.00, 0.00, -1.55, 1445.3, 587.1)"></path><path d="M 0.0 30.4 L 9.1 30.4 L 9.1 0.0 L 0.0 0.0 " fill="none" stroke="#575E61" stroke-width="3.00" stroke-miterlimit="0.00" transform="matrix(1.55, 0.00, 0.00, -1.55, 1693.8, 587.1)"></path><path d="M 30.8 0.0 L 0.0 0.0 " fill="none" stroke="#575E61" stroke-width="3.00" stroke-miterlimit="0.00" transform="matrix(1.55, 0.00, 0.00, -1.55, 1397.4, 563.5)"></path><path d="M 0.0 0.0 L 27.5 0.0 " fill="none" stroke="#575E61" stroke-width="3.00" stroke-miterlimit="0.00" transform="matrix(1.55, 0.00, 0.00, -1.55, 1708.0, 563.5)"></path><path d="M 5.2 10.5 C 8.1 10.5 10.5 8.1 10.5 5.2 C 10.5 2.3 8.1 0.0 5.2 0.0 C 2.3 0.0 0.0 2.3 0.0 5.2 C 0.0 8.1 2.3 10.5 5.2 10.5 Z M 5.2 10.5 " fill="none" stroke="#575E61" stroke-width="3.00" stroke-miterlimit="0.00" transform="matrix(1.55, 0.00, 0.00, -1.55, 1381.1, 571.6)"></path><path d="M 5.2 10.5 C 8.1 10.5 10.5 8.1 10.5 5.2 C 10.5 2.3 8.1 0.0 5.2 0.0 C 2.3 0.0 0.0 2.3 0.0 5.2 C 0.0 8.1 2.3 10.5 5.2 10.5 Z M 5.2 10.5 " fill="none" stroke="#575E61" stroke-width="3.00" stroke-miterlimit="0.00" transform="matrix(1.55, 0.00, 0.00, -1.55, 1750.8, 571.6)"></path><path d="M 11.7 0.0 L 0.0 0.0 " fill="none" stroke="#575E61" stroke-width="3.00" stroke-miterlimit="0.00" transform="matrix(1.55, 0.00, 0.00, -1.55, 1609.6, 495.3)"></path><path d="M 5.8 0.0 L 0.0 0.0 " fill="none" stroke="#575E61" stroke-width="3.00" stroke-miterlimit="0.00" transform="matrix(1.55, 0.00, 0.00, -1.55, 1589.2, 495.3)"></path><path d="M 0.0 3.2 L 34.5 0.0 " fill="none" stroke="#575E61" stroke-width="1.00" stroke-miterlimit="0.00" transform="matrix(1.55, 0.00, 0.00, -1.55, 1530.3, 613.9)"></path><path d="M 0.0 0.0 L 145.5 6.7 " fill="none" stroke="#575E61" stroke-width="1.00" stroke-miterlimit="0.00" transform="matrix(1.55, 0.00, 0.00, -1.55, 1459.4, 524.2)"></path><path d="M 0.0 0.0 L 30.7 0.0 L 30.7 5.9 L 0.0 5.9 L 0.0 0.0 Z M 0.0 0.0 " fill="none" stroke="#575E61" stroke-width="3.00" stroke-miterlimit="0.00" transform="matrix(1.55, 0.00, 0.00, -1.55, 1566.9, 327.8)"></path><path d="M 0.0 0.0 L 29.5 0.0 L 29.5 5.9 L 0.0 5.9 L 0.0 0.0 Z M 0.0 0.0 " fill="none" stroke="#575E61" stroke-width="3.00" stroke-miterlimit="0.00" transform="matrix(1.55, 0.00, 0.00, -1.55, 1545.0, 213.0)"></path><path d="M 0.0 30.6 L 0.0 0.0 L 36.5 0.0 L 36.5 36.5 L 18.2 36.5 " fill="none" stroke="#575E61" stroke-width="3.00" stroke-miterlimit="0.00" transform="matrix(1.55, 0.00, 0.00, -1.55, 1562.5, 260.6)"></path><path d="M 0.0 0.0 L 30.7 0.0 L 30.7 5.9 L 0.0 5.9 L 0.0 0.0 Z M 0.0 0.0 " fill="none" stroke="#575E61" stroke-width="3.00" stroke-miterlimit="0.00" transform="matrix(1.55, 0.00, 0.00, -1.55, 1567.0, 269.7)"></path><path d="M 0.0 31.5 L 0.0 0.0 " fill="none" stroke="#575E61" stroke-width="3.00" stroke-miterlimit="0.00" transform="matrix(1.55, 0.00, 0.00, -1.55, 1571.1, 318.7)"></path><path d="M 0.0 31.5 L 0.0 0.0 " fill="none" stroke="#575E61" stroke-width="3.00" stroke-miterlimit="0.00" transform="matrix(1.55, 0.00, 0.00, -1.55, 1610.5, 318.7)"></path><path d="M 0.0 0.0 L 25.5 0.0 " fill="none" stroke="#575E61" stroke-width="1.00" stroke-miterlimit="0.00" transform="matrix(1.55, 0.00, 0.00, -1.55, 1571.1, 279.6)"></path><path d="M 0.0 0.0 L 25.5 0.0 " fill="none" stroke="#575E61" stroke-width="1.00" stroke-miterlimit="0.00" transform="matrix(1.55, 0.00, 0.00, -1.55, 1571.1, 289.4)"></path><path d="M 0.0 0.0 L 25.4 0.0 " fill="none" stroke="#575E61" stroke-width="3.00" stroke-miterlimit="0.00" transform="matrix(1.55, 0.00, 0.00, -1.55, 1571.1, 299.3)"></path><path d="M 0.0 0.0 L 25.5 0.0 " fill="none" stroke="#575E61" stroke-width="1.00" stroke-miterlimit="0.00" transform="matrix(1.55, 0.00, 0.00, -1.55, 1571.1, 309.1)"></path><path d="M 0.0 5.2 L 11.2 0.0 " fill="none" stroke="#575E61" stroke-width="3.00" stroke-miterlimit="0.00" transform="matrix(1.55, 0.00, 0.00, -1.55, 1545.0, 221.2)"></path><path d="M 106.6 0.0 L 0.0 0.0 " fill="none" stroke="#575E61" stroke-width="3.00" stroke-miterlimit="0.00" transform="matrix(1.55, 0.00, 0.00, -1.55, 1504.7, 495.3)"></path><path d="M 22.9 11.4 C 22.9 5.1 17.7 0.0 11.4 0.0 C 5.1 0.0 0.0 5.1 0.0 11.4 " fill="none" stroke="#575E61" stroke-width="3.00" stroke-miterlimit="0.00" transform="matrix(1.55, 0.00, 0.00, -1.55, 1550.1, 455.5)"></path><path d="M 16.6 4.1 L 7.5 19.5 C 6.4 21.4 3.9 22.1 2.0 20.9 L 2.0 20.9 C 0.1 19.8 -0.6 17.3 0.6 15.4 L 9.7 0.0 " fill="none" stroke="#575E61" stroke-width="3.00" stroke-miterlimit="0.00" transform="matrix(1.55, 0.00, 0.00, -1.55, 1483.6, 345.4)"></path><path d="M 11.1 8.7 L 3.7 8.1 C 1.5 7.9 -0.2 5.9 0.0 3.7 L 0.0 3.7 C 0.2 1.5 2.2 -0.2 4.4 0.0 L 15.7 1.0 " fill="none" stroke="#575E61" stroke-width="3.00" stroke-miterlimit="0.00" transform="matrix(1.55, 0.00, 0.00, -1.55, 1489.3, 372.3)"></path><path d="M 16.1 4.1 L 7.5 18.7 C 6.4 20.6 3.9 21.2 2.0 20.1 L 2.0 20.1 C 0.1 18.9 -0.6 16.5 0.6 14.5 L 9.2 0.0 " fill="none" stroke="#575E61" stroke-width="3.00" stroke-miterlimit="0.00" transform="matrix(1.55, 0.00, 0.00, -1.55, 1522.4, 322.9)"></path><path d="M 17.7 4.1 L 7.5 21.2 C 6.4 23.2 3.9 23.8 2.0 22.7 L 2.0 22.7 C 0.1 21.5 -0.6 19.0 0.6 17.1 L 10.7 0.0 " fill="none" stroke="#575E61" stroke-width="3.00" stroke-miterlimit="0.00" transform="matrix(1.55, 0.00, 0.00, -1.55, 1501.0, 334.1)"></path><path d="M 0.0 0.0 L 36.5 0.0 L 36.5 19.0 L 0.0 19.0 L 0.0 0.0 Z M 0.0 0.0 " fill="none" stroke="#575E61" stroke-width="3.00" stroke-miterlimit="0.00" transform="matrix(1.34, -0.79, -0.79, -1.34, 1513.5, 370.6)"></path><path d="M 0.0 0.0 L 30.7 0.0 L 30.7 5.9 L 0.0 5.9 L 0.0 0.0 Z M 0.0 0.0 " fill="none" stroke="#575E61" stroke-width="3.00" stroke-miterlimit="0.00" transform="matrix(-1.34, 0.79, 0.79, 1.34, 1558.7, 344.2)"></path><path d="M 0.0 39.4 C 6.6 26.8 12.4 13.7 17.3 0.0 " fill="none" stroke="#575E61" stroke-width="3.00" stroke-miterlimit="0.00" transform="matrix(1.55, 0.00, 0.00, -1.55, 1558.7, 417.4)"></path><path d="M 0.0 30.7 C 5.5 20.8 10.5 10.6 14.9 0.0 " fill="none" stroke="#575E61" stroke-width="3.00" stroke-miterlimit="0.00" transform="matrix(1.55, 0.00, 0.00, -1.55, 1526.9, 423.3)"></path><path d="M 20.5 10.5 L 0.0 0.0 " fill="none" stroke="#575E61" stroke-width="3.00" stroke-miterlimit="0.00" transform="matrix(1.55, 0.00, 0.00, -1.55, 1545.5, 412.6)"></path><path d="M 20.6 11.0 L 0.0 0.0 " fill="none" stroke="#575E61" stroke-width="1.00" stroke-miterlimit="0.00" transform="matrix(1.55, 0.00, 0.00, -1.55, 1541.2, 403.2)"></path><path d="M 20.5 11.5 L 0.0 0.0 " fill="none" stroke="#575E61" stroke-width="1.00" stroke-miterlimit="0.00" transform="matrix(1.55, 0.00, 0.00, -1.55, 1536.6, 393.9)"></path><path d="M 20.5 12.0 L 0.0 0.0 " fill="none" stroke="#575E61" stroke-width="1.00" stroke-miterlimit="0.00" transform="matrix(1.55, 0.00, 0.00, -1.55, 1531.9, 384.7)"></path><path d="M 20.5 12.4 L 0.0 0.0 " fill="none" stroke="#575E61" stroke-width="3.00" stroke-miterlimit="0.00" transform="matrix(1.55, 0.00, 0.00, -1.55, 1526.9, 375.6)"></path><path d="M 0.0 0.0 C 7.5 1.6 14.8 3.9 21.8 7.0 " fill="none" stroke="#575E61" stroke-width="1.00" stroke-miterlimit="0.00" transform="matrix(1.55, 0.00, 0.00, -1.55, 1548.7, 419.8)"></path><path d="M 0.0 0.0 C 8.4 0.9 16.8 1.9 24.9 4.2 " fill="none" stroke="#575E61" stroke-width="1.00" stroke-miterlimit="0.00" transform="matrix(1.55, 0.00, 0.00, -1.55, 1549.0, 423.4)"></path><path d="M 0.0 1.7 C 7.5 0.3 15.2 -0.3 22.9 0.1 " fill="none" stroke="#575E61" stroke-width="1.00" stroke-miterlimit="0.00" transform="matrix(1.55, 0.00, 0.00, -1.55, 1550.1, 433.6)"></path><path d="M 0.0 1.9 C 7.3 0.6 14.7 -0.0 22.1 0.0 " fill="none" stroke="#575E61" stroke-width="1.00" stroke-miterlimit="0.00" transform="matrix(1.55, 0.00, 0.00, -1.55, 1550.4, 443.6)"></path><path d="M 0.0 0.0 L 0.0 9.3 " fill="none" stroke="#575E61" stroke-width="3.00" stroke-miterlimit="0.00" transform="matrix(1.55, 0.00, 0.00, -1.55, 1550.1, 437.8)"></path><path d="M 0.0 0.0 L 0.0 13.1 " fill="none" stroke="#575E61" stroke-width="3.00" stroke-miterlimit="0.00" transform="matrix(1.55, 0.00, 0.00, -1.55, 1585.6, 437.8)"></path><path d="M 55.1 0.0 L 55.1 24.8 L 0.0 24.8 " fill="none" stroke="#575E61" stroke-width="3.00" stroke-miterlimit="0.00" transform="matrix(1.55, 0.00, 0.00, -1.55, 1584.7, 366.4)"></path><path d="M 0.0 42.7 L 0.0 0.0 " fill="none" stroke="#575E61" stroke-width="3.00" stroke-miterlimit="0.00" transform="matrix(1.55, 0.00, 0.00, -1.55, 1504.7, 437.8)"></path><path d="M 0.0 0.0 L 19.4 0.0 " fill="none" stroke="#575E61" stroke-width="3.00" stroke-miterlimit="0.00" transform="matrix(1.55, 0.00, 0.00, -1.55, 1595.3, 437.8)"></path><path d="M 0.0 0.0 L 45.1 0.0 " fill="none" stroke="#575E61" stroke-width="3.00" stroke-miterlimit="0.00" transform="matrix(1.55, 0.00, 0.00, -1.55, 1470.4, 437.8)"></path><path d="M 0.0 37.0 C 6.4 24.4 13.8 12.0 22.1 0.0 " fill="none" stroke="#575E61" stroke-width="3.00" stroke-miterlimit="0.00" transform="matrix(1.55, 0.00, 0.00, -1.55, 1470.4, 495.3)"></path><path d="M 1.1 46.0 L 0.0 46.0 L 0.0 0.0 L 11.1 0.0 L 11.1 42.7 " fill="none" stroke="#575E61" stroke-width="3.00" stroke-miterlimit="0.00" transform="matrix(1.55, 0.00, 0.00, -1.55, 1487.5, 437.8)"></path><path d="M 0.0 0.0 L 34.7 0.0 L 34.7 63.6 L 0.0 63.6 L 0.0 0.0 Z M 0.0 0.0 " fill="none" stroke="#575E61" stroke-width="3.00" stroke-miterlimit="0.00" transform="matrix(1.55, 0.00, 0.00, -1.55, 1625.4, 465.2)"></path><path d="M 0.0 19.4 L 0.0 0.0 " fill="none" stroke="#575E61" stroke-width="3.00" stroke-miterlimit="0.00" transform="matrix(1.55, 0.00, 0.00, -1.55, 1670.3, 495.3)"></path><path d="M 5.0 29.9 C 1.9 26.8 0.0 22.4 0.0 17.6 C 0.0 7.9 7.9 0.0 17.6 0.0 C 27.4 0.0 35.3 7.9 35.3 17.6 C 35.3 22.8 33.1 27.4 29.6 30.7 " fill="none" stroke="#575E61" stroke-width="3.00" stroke-miterlimit="0.00" transform="matrix(1.55, 0.00, 0.00, -1.55, 1540.5, 465.2)"></path><path d="M 0.0 17.6 L 0.0 0.0 " fill="none" stroke="#575E61" stroke-width="3.00" stroke-miterlimit="0.00" transform="matrix(1.55, 0.00, 0.00, -1.55, 1540.5, 465.2)"></path><path d="M 0.0 0.0 L 83.6 0.0 " fill="none" stroke="#575E61" stroke-width="3.00" stroke-miterlimit="0.00" transform="matrix(1.55, 0.00, 0.00, -1.55, 1540.5, 465.2)"></path><path d="M 8.2 0.0 L 0.0 0.0 " fill="none" stroke="#575E61" stroke-width="3.00" stroke-miterlimit="0.00" transform="matrix(1.55, 0.00, 0.00, -1.55, 1554.2, 327.8)"></path><path d="M 39.7 31.3 L 46.0 27.2 C 47.9 26.0 50.4 26.5 51.6 28.4 C 52.8 30.3 52.3 32.8 50.4 34.0 L 40.9 40.2 L 41.2 42.5 L 5.0 47.3 L 2.3 26.2 L 0.0 9.4 C -0.3 7.2 1.3 5.2 3.5 4.9 C 5.7 4.6 7.8 6.1 8.1 8.4 L 10.3 25.1 L 16.3 24.3 L 13.7 4.6 C 13.4 2.4 15.0 0.3 17.2 0.0 C 19.4 -0.3 21.5 1.3 21.7 3.5 L 24.4 23.2 L 30.4 22.4 L 28.1 4.7 C 27.8 2.5 29.3 0.5 31.5 0.2 C 33.8 -0.1 35.8 1.4 36.1 3.6 L 38.4 21.4 L 39.7 31.3 L 39.7 31.3 Z M 39.7 31.3 " fill="none" stroke="#575E61" stroke-width="3.00" stroke-miterlimit="0.00" transform="matrix(1.55, 0.00, 0.00, -1.55, 1379.3, 668.7)"></path><path d="M 0.0 0.0 L 30.7 0.0 L 30.7 5.9 L 0.0 5.9 L 0.0 0.0 Z M 0.0 0.0 " fill="none" stroke="#575E61" stroke-width="3.00" stroke-miterlimit="0.00" transform="matrix(1.54, 0.20, 0.20, -1.54, 1391.7, 595.7)"></path><path d="M 18.1 0.0 L 0.0 2.4 " fill="none" stroke="#575E61" stroke-width="3.00" stroke-miterlimit="0.00" transform="matrix(1.55, 0.00, 0.00, -1.55, 1413.0, 620.1)"></path><path d="M 51.4 87.2 C 30.4 61.7 12.4 32.5 0.0 0.0 " fill="none" stroke="#575E61" stroke-width="3.00" stroke-miterlimit="0.00" transform="matrix(1.55, 0.00, 0.00, -1.55, 1398.1, 587.5)"></path><path d="M 7.4 15.2 C 4.8 10.3 2.3 5.2 0.0 0.0 " fill="none" stroke="#575E61" stroke-width="3.00" stroke-miterlimit="0.00" transform="matrix(1.55, 0.00, 0.00, -1.55, 1433.2, 592.1)"></path><path d="M 0.0 10.4 L 14.6 0.0 " fill="none" stroke="#575E61" stroke-width="3.00" stroke-miterlimit="0.00" transform="matrix(1.55, 0.00, 0.00, -1.55, 1436.7, 527.1)"></path><path d="M 0.0 10.5 L 14.2 0.0 " fill="none" stroke="#575E61" stroke-width="1.00" stroke-miterlimit="0.00" transform="matrix(1.55, 0.00, 0.00, -1.55, 1442.5, 517.9)"></path><path d="M 0.0 11.3 L 14.7 0.0 " fill="none" stroke="#575E61" stroke-width="1.00" stroke-miterlimit="0.00" transform="matrix(1.55, 0.00, 0.00, -1.55, 1448.4, 509.7)"></path><path d="M 0.0 11.9 L 14.9 0.0 " fill="none" stroke="#575E61" stroke-width="1.00" stroke-miterlimit="0.00" transform="matrix(1.55, 0.00, 0.00, -1.55, 1454.6, 501.6)"></path><path d="M 0.0 13.6 L 16.5 0.0 " fill="none" stroke="#575E61" stroke-width="3.00" stroke-miterlimit="0.00" transform="matrix(1.55, 0.00, 0.00, -1.55, 1461.0, 495.3)"></path><path d="M 0.0 19.3 L 22.6 0.0 " fill="none" stroke="#575E61" stroke-width="1.00" stroke-miterlimit="0.00" transform="matrix(1.55, 0.00, 0.00, -1.55, 1467.6, 495.3)"></path><path d="M 0.0 11.9 C 2.3 10.2 4.7 8.8 7.1 7.3 C 11.0 4.9 14.9 2.4 18.9 0.0 " fill="none" stroke="#575E61" stroke-width="1.00" stroke-miterlimit="0.00" transform="matrix(1.55, 0.00, 0.00, -1.55, 1430.1, 539.0)"></path><path d="M 0.0 8.4 C 3.2 6.4 6.3 4.4 9.5 2.4 L 13.3 0.0 " fill="none" stroke="#575E61" stroke-width="1.00" stroke-miterlimit="0.00" transform="matrix(1.55, 0.00, 0.00, -1.55, 1424.5, 543.5)"></path><path d="M 0.0 9.5 C 4.1 7.2 8.2 5.0 12.3 2.7 L 17.1 0.0 " fill="none" stroke="#575E61" stroke-width="1.00" stroke-miterlimit="0.00" transform="matrix(1.55, 0.00, 0.00, -1.55, 1418.7, 556.2)"></path><path d="M 0.0 9.0 C 7.0 6.0 14.0 3.0 21.0 0.0 " fill="none" stroke="#575E61" stroke-width="1.00" stroke-miterlimit="0.00" transform="matrix(1.55, 0.00, 0.00, -1.55, 1412.2, 568.5)"></path><path d="M 0.0 8.5 C 6.9 5.6 13.8 2.7 20.8 0.0 " fill="none" stroke="#575E61" stroke-width="1.00" stroke-miterlimit="0.00" transform="matrix(1.55, 0.00, 0.00, -1.55, 1406.7, 579.9)"></path><path d="M 0.0 5.4 C 7.3 3.6 14.6 1.8 21.9 0.0 " fill="none" stroke="#575E61" stroke-width="1.00" stroke-miterlimit="0.00" transform="matrix(1.55, 0.00, 0.00, -1.55, 1401.7, 586.7)"></path></g></g><text xml:space="preserve" font-family="Roboto" font-weight="300" font-size="100.0" fill="#000000" transform="matrix(1.00, 0.00, -0.00, -1.00, 163.0, 302.0)">С</text><text xml:space="preserve" font-family="Roboto" font-weight="300" font-size="100.0" fill="#000000" transform="matrix(1.00, 0.00, -0.00, -1.00, 228.0, 302.0)">п</text><text xml:space="preserve" font-family="Roboto" font-weight="300" font-size="100.0" fill="#000000" transform="matrix(1.00, 0.00, -0.00, -1.00, 284.2, 302.0)">а</text><text xml:space="preserve" font-family="Roboto" font-weight="300" font-size="100.0" fill="#000000" transform="matrix(1.00, 0.00, -0.00, -1.00, 337.7, 302.0)">с</text><text xml:space="preserve" font-family="Roboto" font-weight="300" font-size="100.0" fill="#000000" transform="matrix(1.00, 0.00, -0.00, -1.00, 389.2, 302.0)">и</text><text xml:space="preserve" font-family="Roboto" font-weight="300" font-size="100.0" fill="#000000" transform="matrix(1.00, 0.00, -0.00, -1.00, 445.4, 302.0)">б</text><text xml:space="preserve" font-family="Roboto" font-weight="300" font-size="100.0" fill="#000000" transform="matrix(1.00, 0.00, -0.00, -1.00, 500.5, 302.0)">о</text><text xml:space="preserve" font-family="Roboto" font-weight="300" font-size="100.0" fill="#000000" transform="matrix(1.00, 0.00, -0.00, -1.00, 556.5, 302.0)"> </text><text xml:space="preserve" font-family="Roboto" font-weight="300" font-size="100.0" fill="#000000" transform="matrix(1.00, 0.00, -0.00, -1.00, 580.8, 302.0)">з</text><text xml:space="preserve" font-family="Roboto" font-weight="300" font-size="100.0" fill="#000000" transform="matrix(1.00, 0.00, -0.00, -1.00, 631.5, 302.0)">а</text><text xml:space="preserve" font-family="Roboto" font-weight="300" font-size="100.0" fill="#000000" transform="matrix(1.00, 0.00, -0.00, -1.00, 685.0, 302.0)"> </text><text xml:space="preserve" font-family="Roboto" font-weight="300" font-size="100.0" fill="#000000" transform="matrix(1.00, 0.00, -0.00, -1.00, 709.4, 302.0)">в</text><text xml:space="preserve" font-family="Roboto" font-weight="300" font-size="100.0" fill="#000000" transform="matrix(1.00, 0.00, -0.00, -1.00, 765.3, 302.0)">н</text><text xml:space="preserve" font-family="Roboto" font-weight="300" font-size="100.0" fill="#000000" transform="matrix(1.00, 0.00, -0.00, -1.00, 821.5, 302.0)">и</text><text xml:space="preserve" font-family="Roboto" font-weight="300" font-size="100.0" fill="#000000" transform="matrix(1.00, 0.00, -0.00, -1.00, 877.7, 302.0)">м</text><text xml:space="preserve" font-family="Roboto" font-weight="300" font-size="100.0" fill="#000000" transform="matrix(1.00, 0.00, -0.00, -1.00, 950.8, 302.0)">а</text><text xml:space="preserve" font-family="Roboto" font-weight="300" font-size="100.0" fill="#000000" transform="matrix(1.00, 0.00, -0.00, -1.00, 1004.3, 302.0)">н</text><text xml:space="preserve" font-family="Roboto" font-weight="300" font-size="100.0" fill="#000000" transform="matrix(1.00, 0.00, -0.00, -1.00, 1060.5, 302.0)">и</text><text xml:space="preserve" font-family="Roboto" font-weight="300" font-size="100.0" fill="#000000" transform="matrix(1.00, 0.00, -0.00, -1.00, 1116.7, 302.0)">е</text><text xml:space="preserve" font-family="Roboto" font-weight="300" font-size="20.0" fill="#000000" transform="matrix(1.00, 0.00, -0.00, -1.00, 40.0, 29.0)">2</text><text xml:space="preserve" font-family="Roboto" font-weight="300" font-size="20.0" fill="#000000" transform="matrix(1.00, 0.00, -0.00, -1.00, 51.1, 29.0)">0</text><text xml:space="preserve" font-family="Roboto" font-weight="300" font-size="20.0" fill="#000000" transform="matrix(1.00, 0.00, -0.00, -1.00, 62.2, 29.0)">1</text><text xml:space="preserve" font-family="Roboto" font-weight="300" font-size="20.0" fill="#000000" transform="matrix(1.00, 0.00, -0.00, -1.00, 73.3, 29.0)">6</text><text xml:space="preserve" font-family="Roboto" font-weight="300" font-size="20.0" fill="#000000" transform="matrix(1.00, 0.00, -0.00, -1.00, 84.4, 29.0)">-</text><text xml:space="preserve" font-family="Roboto" font-weight="300" font-size="20.0" fill="#000000" transform="matrix(1.00, 0.00, -0.00, -1.00, 90.1, 29.0)">0</text><text xml:space="preserve" font-family="Roboto" font-weight="300" font-size="20.0" fill="#000000" transform="matrix(1.00, 0.00, -0.00, -1.00, 101.2, 29.0)">7</text><text xml:space="preserve" font-family="Roboto" font-weight="300" font-size="20.0" fill="#000000" transform="matrix(1.00, 0.00, -0.00, -1.00, 112.3, 29.0)">-</text><text xml:space="preserve" font-family="Roboto" font-weight="300" font-size="20.0" fill="#000000" transform="matrix(1.00, 0.00, -0.00, -1.00, 118.0, 29.0)">2</text><text xml:space="preserve" font-family="Roboto" font-weight="300" font-size="20.0" fill="#000000" transform="matrix(1.00, 0.00, -0.00, -1.00, 129.1, 29.0)">8</text><text xml:space="preserve" font-family="Roboto" font-weight="300" font-size="20.0" fill="#000000" transform="matrix(1.00, 0.00, -0.00, -1.00, 140.2, 29.0)">,</text><text xml:space="preserve" font-family="Roboto" font-weight="300" font-size="20.0" fill="#000000" transform="matrix(1.00, 0.00, -0.00, -1.00, 144.0, 29.0)"> </text><text xml:space="preserve" font-family="Roboto" font-weight="300" font-size="20.0" fill="#000000" transform="matrix(1.00, 0.00, -0.00, -1.00, 148.9, 29.0)">K</text><text xml:space="preserve" font-family="Roboto" font-weight="300" font-size="20.0" fill="#000000" transform="matrix(1.00, 0.00, -0.00, -1.00, 161.5, 29.0)">i</text><text xml:space="preserve" font-family="Roboto" font-weight="300" font-size="20.0" fill="#000000" transform="matrix(1.00, 0.00, -0.00, -1.00, 166.0, 29.0)">e</text><text xml:space="preserve" font-family="Roboto" font-weight="300" font-size="20.0" fill="#000000" transform="matrix(1.00, 0.00, -0.00, -1.00, 176.2, 29.0)">v</text></g></svg>