<?xml version="1.0" encoding="UTF-8" standalone="no"?><svg xmlns="http://www.w3.org/2000/svg" xmlns:xlink="http://www.w3.org/1999/xlink" clip-rule="evenodd" stroke-miterlimit="4.00" viewBox="0 0 588 32"><desc>SVG generated by Keynote</desc><defs></defs><g transform="matrix(1.00, 0.00, -0.00, -1.00, 0.0, 32.0)"><text xml:space="preserve" font-family="Roboto-Bold" font-weight="bold" font-size="30.0" fill="#383E51" transform="matrix(1.00, 0.00, -0.00, -1.00, 1.0, 7.0)">-</text><text xml:space="preserve" font-family="Roboto-Bold" font-weight="bold" font-size="30.0" fill="#383E51" transform="matrix(1.00, 0.00, -0.00, -1.00, 12.6, 7.0)">1</text><text xml:space="preserve" font-family="Roboto-Bold" font-weight="bold" font-size="30.0" fill="#383E51" transform="matrix(1.00, 0.00, -0.00, -1.00, 29.8, 7.0)"> </text><text xml:space="preserve" font-family="Roboto-Bold" font-weight="bold" font-size="30.0" fill="#383E51" transform="matrix(1.00, 0.00, -0.00, -1.00, 37.3, 7.0)">к</text><text xml:space="preserve" font-family="Roboto-Bold" font-weight="bold" font-size="30.0" fill="#383E51" transform="matrix(1.00, 0.00, -0.00, -1.00, 54.2, 7.0)"> </text><text xml:space="preserve" font-family="Roboto-Bold" font-weight="bold" font-size="30.0" fill="#383E51" transform="matrix(1.00, 0.00, -0.00, -1.00, 61.7, 7.0)">з</text><text xml:space="preserve" font-family="Roboto-Bold" font-weight="bold" font-size="30.0" fill="#383E51" transform="matrix(1.00, 0.00, -0.00, -1.00, 77.1, 7.0)">а</text><text xml:space="preserve" font-family="Roboto-Bold" font-weight="bold" font-size="30.0" fill="#383E51" transform="matrix(1.00, 0.00, -0.00, -1.00, 93.2, 7.0)">щ</text><text xml:space="preserve" font-family="Roboto-Bold" font-weight="bold" font-size="30.0" fill="#383E51" transform="matrix(1.00, 0.00, -0.00, -1.00, 120.2, 7.0)">и</text><text xml:space="preserve" font-family="Roboto-Bold" font-weight="bold" font-size="30.0" fill="#383E51" transform="matrix(1.00, 0.00, -0.00, -1.00, 137.2, 7.0)">т</text><text xml:space="preserve" font-family="Roboto-Bold" font-weight="bold" font-size="30.0" fill="#383E51" transform="matrix(1.00, 0.00, -0.00, -1.00, 151.5, 7.0)">е</text><text xml:space="preserve" font-family="Roboto-Bold" font-weight="bold" font-size="30.0" fill="#383E51" transform="matrix(1.00, 0.00, -0.00, -1.00, 167.8, 7.0)">,</text><text xml:space="preserve" font-family="Roboto-Bold" font-weight="bold" font-size="30.0" fill="#383E51" transform="matrix(1.00, 0.00, -0.00, -1.00, 175.1, 7.0)"> </text><text xml:space="preserve" font-family="Roboto-Bold" font-weight="bold" font-size="30.0" fill="#383E51" transform="matrix(1.00, 0.00, -0.00, -1.00, 182.5, 7.0)">е</text><text xml:space="preserve" font-family="Roboto-Bold" font-weight="bold" font-size="30.0" fill="#383E51" transform="matrix(1.00, 0.00, -0.00, -1.00, 198.7, 7.0)">с</text><text xml:space="preserve" font-family="Roboto-Bold" font-weight="bold" font-size="30.0" fill="#383E51" transform="matrix(1.00, 0.00, -0.00, -1.00, 214.4, 7.0)">л</text><text xml:space="preserve" font-family="Roboto-Bold" font-weight="bold" font-size="30.0" fill="#383E51" transform="matrix(1.00, 0.00, -0.00, -1.00, 231.5, 7.0)">и</text><text xml:space="preserve" font-family="Roboto-Bold" font-weight="bold" font-size="30.0" fill="#383E51" transform="matrix(1.00, 0.00, -0.00, -1.00, 248.5, 7.0)"> </text><text xml:space="preserve" font-family="Roboto-Bold" font-weight="bold" font-size="30.0" fill="#383E51" transform="matrix(1.00, 0.00, -0.00, -1.00, 256.0, 7.0)">п</text><text xml:space="preserve" font-family="Roboto-Bold" font-weight="bold" font-size="30.0" fill="#383E51" transform="matrix(1.00, 0.00, -0.00, -1.00, 273.0, 7.0)">р</text><text xml:space="preserve" font-family="Roboto-Bold" font-weight="bold" font-size="30.0" fill="#383E51" transform="matrix(1.00, 0.00, -0.00, -1.00, 289.9, 7.0)">о</text><text xml:space="preserve" font-family="Roboto-Bold" font-weight="bold" font-size="30.0" fill="#383E51" transform="matrix(1.00, 0.00, -0.00, -1.00, 306.4, 7.0)">т</text><text xml:space="preserve" font-family="Roboto-Bold" font-weight="bold" font-size="30.0" fill="#383E51" transform="matrix(1.00, 0.00, -0.00, -1.00, 321.7, 7.0)">и</text><text xml:space="preserve" font-family="Roboto-Bold" font-weight="bold" font-size="30.0" fill="#383E51" transform="matrix(1.00, 0.00, -0.00, -1.00, 338.8, 7.0)">в</text><text xml:space="preserve" font-family="Roboto-Bold" font-weight="bold" font-size="30.0" fill="#383E51" transform="matrix(1.00, 0.00, -0.00, -1.00, 355.7, 7.0)">н</text><text xml:space="preserve" font-family="Roboto-Bold" font-weight="bold" font-size="30.0" fill="#383E51" transform="matrix(1.00, 0.00, -0.00, -1.00, 372.8, 7.0)">и</text><text xml:space="preserve" font-family="Roboto-Bold" font-weight="bold" font-size="30.0" fill="#383E51" transform="matrix(1.00, 0.00, -0.00, -1.00, 389.8, 7.0)">к</text><text xml:space="preserve" font-family="Roboto-Bold" font-weight="bold" font-size="30.0" fill="#383E51" transform="matrix(1.00, 0.00, -0.00, -1.00, 406.7, 7.0)"> </text><text xml:space="preserve" font-family="Roboto-Bold" font-weight="bold" font-size="30.0" fill="#383E51" transform="matrix(1.00, 0.00, -0.00, -1.00, 414.1, 7.0)">п</text><text xml:space="preserve" font-family="Roboto-Bold" font-weight="bold" font-size="30.0" fill="#383E51" transform="matrix(1.00, 0.00, -0.00, -1.00, 431.1, 7.0)">р</text><text xml:space="preserve" font-family="Roboto-Bold" font-weight="bold" font-size="30.0" fill="#383E51" transform="matrix(1.00, 0.00, -0.00, -1.00, 448.0, 7.0)">ы</text><text xml:space="preserve" font-family="Roboto-Bold" font-weight="bold" font-size="30.0" fill="#383E51" transform="matrix(1.00, 0.00, -0.00, -1.00, 472.8, 7.0)">г</text><text xml:space="preserve" font-family="Roboto-Bold" font-weight="bold" font-size="30.0" fill="#383E51" transform="matrix(1.00, 0.00, -0.00, -1.00, 485.4, 7.0)">а</text><text xml:space="preserve" font-family="Roboto-Bold" font-weight="bold" font-size="30.0" fill="#383E51" transform="matrix(1.00, 0.00, -0.00, -1.00, 501.5, 7.0)">ю</text><text xml:space="preserve" font-family="Roboto-Bold" font-weight="bold" font-size="30.0" fill="#383E51" transform="matrix(1.00, 0.00, -0.00, -1.00, 525.8, 7.0)">щ</text><text xml:space="preserve" font-family="Roboto-Bold" font-weight="bold" font-size="30.0" fill="#383E51" transform="matrix(1.00, 0.00, -0.00, -1.00, 552.8, 7.0)">и</text><text xml:space="preserve" font-family="Roboto-Bold" font-weight="bold" font-size="30.0" fill="#383E51" transform="matrix(1.00, 0.00, -0.00, -1.00, 569.8, 7.0)">й</text></g></svg>