<?xml version="1.0" encoding="UTF-8" standalone="no"?><svg xmlns="http://www.w3.org/2000/svg" xmlns:xlink="http://www.w3.org/1999/xlink" clip-rule="evenodd" stroke-miterlimit="4.00" viewBox="0 0 1920 1080"><desc>SVG generated by Keynote</desc><defs></defs><g transform="matrix(1.00, 0.00, -0.00, -1.00, 0.0, 1080.0)"><path d="M 0.0 1080.0 L 1920.0 1080.0 L 1920.0 0.0 L 0.0 0.0 Z M 0.0 1080.0 " fill="#FECF60"></path><g><clipPath id="clip-1750"><path d="M 1785.0 64.0 L 1906.0 64.0 L 1906.0 -3.0 L 1785.0 -3.0 Z M 1785.0 64.0 "></path></clipPath><g clip-path="url(#clip-1750)"><g><clipPath id="clip-1751"><path d="M 1785.0 -3.0 L 1905.6 -3.0 L 1905.6 64.0 L 1785.0 64.0 Z M 1785.0 -3.0 "></path></clipPath><g clip-path="url(#clip-1751)"><path d="M 1903.6 44.0 C 1902.4 44.0 1901.5 43.2 1901.2 42.1 L 1892.4 42.1 L 1892.4 47.0 C 1892.4 47.3 1892.2 47.5 1891.9 47.5 L 1889.1 47.5 L 1889.1 50.8 L 1889.1 50.8 L 1889.1 50.8 C 1889.1 58.1 1883.2 64.0 1875.8 64.0 C 1870.2 64.0 1865.4 60.5 1863.5 55.6 L 1850.1 53.8 C 1848.4 55.4 1846.1 56.4 1843.6 56.4 C 1838.5 56.4 1834.4 52.5 1834.1 47.5 L 1831.4 47.5 C 1831.1 47.5 1830.8 47.3 1830.8 47.0 L 1830.8 42.1 L 1820.8 42.1 C 1820.5 43.2 1819.6 44.0 1818.4 44.0 C 1817.1 44.0 1816.0 42.9 1816.0 41.6 C 1816.0 40.3 1817.1 39.2 1818.4 39.2 C 1819.6 39.2 1820.5 40.0 1820.8 41.0 L 1830.8 41.0 L 1830.8 36.2 C 1830.8 35.9 1831.1 35.6 1831.4 35.6 L 1834.1 35.6 L 1834.1 32.6 C 1834.1 32.6 1834.1 32.6 1834.1 32.6 C 1834.1 32.5 1834.1 32.5 1834.1 32.5 C 1834.1 32.5 1834.1 32.5 1834.1 32.5 C 1834.1 32.4 1834.1 32.4 1834.1 32.4 C 1834.1 32.4 1834.1 32.4 1834.1 32.4 C 1834.1 32.3 1834.1 32.3 1834.2 32.3 C 1834.2 32.3 1834.2 32.3 1834.2 32.3 C 1834.2 32.3 1834.2 32.3 1834.2 32.3 L 1839.4 25.9 C 1836.5 21.8 1833.9 17.5 1831.7 13.1 C 1831.7 13.1 1831.6 13.0 1831.6 13.0 C 1830.9 11.6 1830.2 10.2 1829.6 8.7 C 1829.6 8.7 1829.5 8.7 1829.5 8.7 C 1829.5 8.7 1829.5 8.7 1829.5 8.7 C 1829.0 7.6 1828.5 6.5 1828.1 5.4 C 1825.4 11.1 1823.3 17.1 1821.8 23.2 L 1823.0 23.6 C 1823.4 23.8 1823.8 24.2 1824.0 24.7 C 1824.3 25.2 1824.3 25.7 1824.1 26.2 C 1823.7 27.2 1822.5 27.7 1821.5 27.3 L 1821.0 27.1 L 1821.0 30.8 C 1821.0 31.9 1820.1 32.8 1819.0 32.8 C 1817.9 32.8 1817.1 31.9 1817.0 30.8 L 1817.0 31.9 C 1817.0 33.0 1816.2 33.8 1815.1 33.8 C 1814.0 33.8 1813.1 33.0 1813.1 31.9 L 1813.1 26.9 L 1813.1 26.9 L 1813.1 29.5 C 1813.1 30.6 1812.2 31.5 1811.1 31.5 C 1810.0 31.5 1809.1 30.6 1809.1 29.5 L 1809.1 26.4 L 1809.1 26.4 L 1809.1 26.4 C 1809.1 26.3 1809.1 26.3 1809.1 26.3 C 1809.1 26.3 1809.1 26.3 1809.1 26.3 C 1809.7 23.3 1810.3 20.5 1811.1 17.6 C 1811.1 17.6 1811.1 17.5 1811.1 17.5 C 1811.1 17.5 1811.1 17.5 1811.1 17.5 C 1811.8 15.1 1812.5 12.7 1813.4 10.4 C 1813.4 10.3 1813.4 10.3 1813.4 10.3 C 1813.4 10.3 1813.4 10.3 1813.4 10.3 C 1814.9 5.8 1816.8 1.5 1818.9 -2.7 C 1818.9 -2.7 1818.9 -2.7 1818.9 -2.7 C 1818.9 -2.8 1818.9 -2.8 1819.0 -2.8 C 1819.0 -2.8 1819.0 -2.8 1819.0 -2.8 C 1819.0 -2.9 1819.0 -2.9 1819.1 -2.9 C 1819.1 -2.9 1819.1 -2.9 1819.1 -2.9 C 1819.1 -2.9 1819.2 -3.0 1819.2 -3.0 C 1819.2 -3.0 1819.2 -3.0 1819.2 -3.0 C 1819.3 -3.0 1819.3 -3.0 1819.4 -3.0 C 1819.4 -3.0 1819.4 -3.0 1819.4 -3.0 C 1819.4 -3.0 1819.4 -3.0 1819.4 -3.0 L 1831.5 -3.0 C 1831.5 -3.0 1831.5 -3.0 1831.5 -3.0 C 1831.5 -3.0 1831.5 -3.0 1831.5 -3.0 L 1837.1 -3.0 C 1837.1 -3.0 1837.1 -3.0 1837.1 -3.0 C 1837.1 -3.0 1837.1 -3.0 1837.1 -3.0 L 1857.0 -3.0 C 1857.0 -3.0 1857.0 -3.0 1857.0 -3.0 C 1857.0 -3.0 1857.0 -3.0 1857.0 -3.0 L 1866.2 -3.0 C 1866.2 -3.0 1866.2 -3.0 1866.2 -3.0 C 1866.2 -3.0 1866.2 -3.0 1866.2 -3.0 L 1886.1 -3.0 C 1886.1 -3.0 1886.1 -3.0 1886.1 -3.0 C 1886.1 -3.0 1886.1 -3.0 1886.1 -3.0 L 1894.1 -3.0 C 1894.1 -3.0 1894.1 -3.0 1894.1 -3.0 C 1894.1 -3.0 1894.1 -3.0 1894.1 -3.0 L 1897.5 -3.0 C 1897.5 -3.0 1897.5 -3.0 1897.5 -3.0 C 1897.5 -3.0 1897.5 -3.0 1897.5 -3.0 C 1897.6 -3.0 1897.6 -3.0 1897.7 -3.0 C 1897.7 -3.0 1897.7 -3.0 1897.7 -3.0 C 1897.7 -3.0 1897.7 -3.0 1897.7 -3.0 C 1897.7 -3.0 1897.7 -2.9 1897.7 -2.9 C 1897.8 -2.9 1897.8 -2.9 1897.8 -2.9 C 1897.8 -2.9 1897.8 -2.9 1897.8 -2.9 C 1897.8 -2.9 1897.9 -2.9 1897.9 -2.9 C 1897.9 -2.8 1897.9 -2.8 1897.9 -2.8 C 1897.9 -2.8 1897.9 -2.8 1897.9 -2.8 C 1897.9 -2.8 1898.0 -2.7 1898.0 -2.7 C 1898.0 -2.7 1898.0 -2.7 1898.0 -2.7 C 1898.0 -2.7 1898.0 -2.7 1898.0 -2.6 C 1898.0 -2.6 1898.0 -2.6 1898.0 -2.6 C 1898.0 -2.6 1898.0 -2.6 1898.0 -2.5 C 1898.0 -2.5 1898.0 -2.5 1898.0 -2.5 C 1898.0 -2.5 1898.0 -2.5 1898.0 -2.5 C 1898.0 -2.5 1898.0 -2.4 1898.0 -2.4 C 1898.0 -2.4 1898.0 -2.4 1898.0 -2.4 C 1898.0 -2.4 1898.0 -2.3 1898.0 -2.3 C 1898.0 -2.3 1898.0 -2.3 1898.0 -2.3 C 1897.9 -1.8 1897.7 -1.4 1897.5 -0.9 C 1897.5 -0.9 1897.5 -0.8 1897.5 -0.8 C 1896.4 2.4 1895.1 5.6 1893.7 8.7 C 1893.7 8.7 1893.7 8.7 1893.7 8.7 C 1893.7 8.7 1893.7 8.7 1893.7 8.7 C 1893.0 10.2 1892.3 11.6 1891.6 13.0 C 1891.6 13.0 1891.6 13.1 1891.5 13.1 C 1889.3 17.5 1886.7 21.8 1883.9 25.9 L 1889.0 32.3 C 1889.0 32.3 1889.0 32.3 1889.0 32.3 C 1889.0 32.3 1889.1 32.3 1889.1 32.3 C 1889.1 32.3 1889.1 32.3 1889.1 32.4 C 1889.1 32.4 1889.1 32.4 1889.1 32.4 C 1889.1 32.4 1889.1 32.4 1889.1 32.5 C 1889.1 32.5 1889.1 32.5 1889.1 32.5 C 1889.1 32.5 1889.1 32.5 1889.1 32.6 C 1889.1 32.6 1889.1 32.6 1889.1 32.6 L 1889.1 35.6 L 1891.9 35.6 C 1892.2 35.6 1892.4 35.9 1892.4 36.2 L 1892.4 41.0 L 1901.2 41.0 C 1901.5 40.0 1902.4 39.2 1903.6 39.2 C 1904.9 39.2 1906.0 40.3 1906.0 41.6 C 1906.0 42.9 1904.9 44.0 1903.6 44.0 " fill="#E9C05A"></path><path d="M 1879.5 44.0 C 1878.3 44.0 1877.4 43.2 1877.1 42.1 L 1868.3 42.1 L 1868.3 47.0 C 1868.3 47.3 1868.1 47.5 1867.8 47.5 L 1865.0 47.5 L 1865.0 50.8 L 1865.0 50.8 L 1865.0 50.8 C 1865.0 58.1 1859.1 64.0 1851.7 64.0 C 1846.1 64.0 1841.3 60.5 1839.4 55.6 L 1826.0 53.8 C 1824.3 55.4 1822.0 56.4 1819.5 56.4 C 1814.4 56.4 1810.3 52.5 1810.0 47.5 L 1807.3 47.5 C 1807.0 47.5 1806.7 47.3 1806.7 47.0 L 1806.7 42.1 L 1796.7 42.1 C 1796.4 43.2 1795.5 44.0 1794.3 44.0 C 1793.0 44.0 1791.9 42.9 1791.9 41.6 C 1791.9 40.3 1793.0 39.2 1794.3 39.2 C 1795.5 39.2 1796.4 40.0 1796.7 41.0 L 1806.7 41.0 L 1806.7 36.2 C 1806.7 35.9 1807.0 35.6 1807.3 35.6 L 1810.0 35.6 L 1810.0 32.6 C 1810.0 32.6 1810.0 32.6 1810.0 32.6 C 1810.0 32.5 1810.0 32.5 1810.0 32.5 C 1810.0 32.5 1810.0 32.5 1810.0 32.5 C 1810.0 32.4 1810.0 32.4 1810.0 32.4 C 1810.0 32.4 1810.0 32.4 1810.0 32.4 C 1810.0 32.3 1810.0 32.3 1810.1 32.3 C 1810.1 32.3 1810.1 32.3 1810.1 32.3 C 1810.1 32.3 1810.1 32.3 1810.1 32.3 L 1815.3 25.9 C 1812.4 21.8 1809.8 17.5 1807.6 13.1 C 1807.5 13.1 1807.5 13.0 1807.5 13.0 C 1806.8 11.6 1806.1 10.2 1805.5 8.7 C 1805.5 8.7 1805.4 8.7 1805.4 8.7 C 1805.4 8.7 1805.4 8.7 1805.4 8.7 C 1804.9 7.6 1804.4 6.5 1804.0 5.4 C 1801.3 11.1 1799.2 17.1 1797.7 23.2 L 1798.9 23.6 C 1799.3 23.8 1799.7 24.2 1799.9 24.7 C 1800.2 25.2 1800.2 25.7 1800.0 26.2 C 1799.6 27.2 1798.4 27.7 1797.4 27.3 L 1796.9 27.1 L 1796.9 30.8 C 1796.9 31.9 1796.0 32.8 1794.9 32.8 C 1793.8 32.8 1793.0 31.9 1792.9 30.8 L 1792.9 31.9 C 1792.9 33.0 1792.0 33.8 1791.0 33.8 C 1789.9 33.8 1789.0 33.0 1789.0 31.9 L 1789.0 26.9 L 1789.0 26.9 L 1789.0 29.5 C 1789.0 30.6 1788.1 31.5 1787.0 31.5 C 1785.9 31.5 1785.0 30.6 1785.0 29.5 L 1785.0 26.4 L 1785.0 26.4 L 1785.0 26.4 C 1785.0 26.3 1785.0 26.3 1785.0 26.3 C 1785.0 26.3 1785.0 26.3 1785.0 26.3 C 1785.6 23.3 1786.2 20.5 1787.0 17.6 C 1787.0 17.6 1787.0 17.5 1787.0 17.5 C 1787.0 17.5 1787.0 17.5 1787.0 17.5 C 1787.7 15.1 1788.4 12.7 1789.3 10.4 C 1789.3 10.3 1789.3 10.3 1789.3 10.3 C 1789.3 10.3 1789.3 10.3 1789.3 10.3 C 1790.8 5.8 1792.7 1.5 1794.8 -2.7 C 1794.8 -2.7 1794.8 -2.7 1794.8 -2.7 C 1794.8 -2.8 1794.8 -2.8 1794.9 -2.8 C 1794.9 -2.8 1794.9 -2.8 1794.9 -2.8 C 1794.9 -2.9 1794.9 -2.9 1795.0 -2.9 C 1795.0 -2.9 1795.0 -2.9 1795.0 -2.9 C 1795.0 -2.9 1795.1 -3.0 1795.1 -3.0 C 1795.1 -3.0 1795.1 -3.0 1795.1 -3.0 C 1795.2 -3.0 1795.2 -3.0 1795.3 -3.0 C 1795.3 -3.0 1795.3 -3.0 1795.3 -3.0 C 1795.3 -3.0 1795.3 -3.0 1795.3 -3.0 L 1807.4 -3.0 C 1807.4 -3.0 1807.4 -3.0 1807.4 -3.0 C 1807.4 -3.0 1807.4 -3.0 1807.4 -3.0 L 1813.0 -3.0 C 1813.0 -3.0 1813.0 -3.0 1813.0 -3.0 C 1813.0 -3.0 1813.0 -3.0 1813.0 -3.0 L 1832.9 -3.0 C 1832.9 -3.0 1832.9 -3.0 1832.9 -3.0 C 1832.9 -3.0 1832.9 -3.0 1832.9 -3.0 L 1842.1 -3.0 C 1842.1 -3.0 1842.1 -3.0 1842.1 -3.0 C 1842.1 -3.0 1842.1 -3.0 1842.1 -3.0 L 1862.0 -3.0 C 1862.0 -3.0 1862.0 -3.0 1862.0 -3.0 C 1862.0 -3.0 1862.0 -3.0 1862.0 -3.0 L 1870.0 -3.0 C 1870.0 -3.0 1870.0 -3.0 1870.0 -3.0 C 1870.0 -3.0 1870.0 -3.0 1870.0 -3.0 L 1873.4 -3.0 C 1873.4 -3.0 1873.4 -3.0 1873.4 -3.0 C 1873.4 -3.0 1873.4 -3.0 1873.4 -3.0 C 1873.5 -3.0 1873.5 -3.0 1873.5 -3.0 C 1873.6 -3.0 1873.6 -3.0 1873.6 -3.0 C 1873.6 -3.0 1873.6 -3.0 1873.6 -3.0 C 1873.6 -3.0 1873.6 -2.9 1873.6 -2.9 C 1873.7 -2.9 1873.7 -2.9 1873.7 -2.9 C 1873.7 -2.9 1873.7 -2.9 1873.7 -2.9 C 1873.7 -2.9 1873.8 -2.9 1873.8 -2.9 C 1873.8 -2.8 1873.8 -2.8 1873.8 -2.8 C 1873.8 -2.8 1873.8 -2.8 1873.8 -2.8 C 1873.8 -2.8 1873.9 -2.7 1873.9 -2.7 C 1873.9 -2.7 1873.9 -2.7 1873.9 -2.7 C 1873.9 -2.7 1873.9 -2.7 1873.9 -2.6 C 1873.9 -2.6 1873.9 -2.6 1873.9 -2.6 C 1873.9 -2.6 1873.9 -2.6 1873.9 -2.5 C 1873.9 -2.5 1873.9 -2.5 1873.9 -2.5 C 1873.9 -2.5 1873.9 -2.5 1873.9 -2.5 C 1873.9 -2.5 1873.9 -2.4 1873.9 -2.4 C 1873.9 -2.4 1873.9 -2.4 1873.9 -2.4 C 1873.9 -2.4 1873.9 -2.3 1873.9 -2.3 C 1873.9 -2.3 1873.9 -2.3 1873.9 -2.3 C 1873.7 -1.8 1873.6 -1.4 1873.4 -0.9 C 1873.4 -0.9 1873.4 -0.8 1873.4 -0.8 C 1872.3 2.4 1871.0 5.6 1869.6 8.7 C 1869.6 8.7 1869.6 8.7 1869.6 8.7 C 1869.6 8.7 1869.6 8.7 1869.6 8.7 C 1868.9 10.2 1868.2 11.6 1867.5 13.0 C 1867.5 13.0 1867.5 13.1 1867.4 13.1 C 1865.2 17.5 1862.6 21.8 1859.8 25.9 L 1864.9 32.3 C 1864.9 32.3 1864.9 32.3 1864.9 32.3 C 1864.9 32.3 1865.0 32.3 1865.0 32.3 C 1865.0 32.3 1865.0 32.3 1865.0 32.4 C 1865.0 32.4 1865.0 32.4 1865.0 32.4 C 1865.0 32.4 1865.0 32.4 1865.0 32.5 C 1865.0 32.5 1865.0 32.5 1865.0 32.5 C 1865.0 32.5 1865.0 32.5 1865.0 32.6 C 1865.0 32.6 1865.0 32.6 1865.0 32.6 L 1865.0 35.6 L 1867.8 35.6 C 1868.1 35.6 1868.3 35.9 1868.3 36.2 L 1868.3 41.0 L 1877.1 41.0 C 1877.4 40.0 1878.3 39.2 1879.5 39.2 C 1880.8 39.2 1881.9 40.3 1881.9 41.6 C 1881.9 42.9 1880.8 44.0 1879.5 44.0 " fill="#FED97B"></path><path d="M 0.0 0.0 L 106.1 0.0 C 109.5 -4.8 111.5 -10.6 111.5 -16.9 C 111.5 -28.3 104.9 -38.2 95.3 -43.0 " fill="none" stroke="#393E50" stroke-width="3.00" stroke-miterlimit="0.00" stroke-linecap="round" stroke-linejoin="round" transform="matrix(0.36, 0.00, 0.00, 0.36, 1808.0, 12.8)"></path><path d="M 0.0 0.0 C 8.6 21.3 19.7 42.0 33.3 61.7 " fill="none" stroke="#393E50" stroke-width="3.00" stroke-miterlimit="0.00" stroke-linecap="round" stroke-linejoin="round" transform="matrix(0.36, 0.00, 0.00, 0.36, 1804.0, 4.0)"></path><path d="M 0.0 0.0 C 5.3 -2.2 10.5 -4.8 15.5 -7.7 L 47.5 -10.1 " fill="none" stroke="#393E50" stroke-width="1.00" stroke-miterlimit="0.00" stroke-linecap="round" stroke-linejoin="round" transform="matrix(0.36, 0.00, 0.00, 0.36, 1810.4, 12.8)"></path><path d="M 0.0 0.0 C -7.9 4.5 -16.1 8.5 -24.5 11.9 " fill="none" stroke="#393E50" stroke-width="1.00" stroke-miterlimit="0.00" stroke-linecap="round" stroke-linejoin="round" transform="matrix(0.36, 0.00, 0.00, 0.36, 1815.9, 6.8)"></path><path d="M 0.0 0.0 C -8.7 5.0 -17.7 9.4 -26.9 13.2 " fill="none" stroke="#393E50" stroke-width="3.00" stroke-miterlimit="0.00" stroke-linecap="round" stroke-linejoin="round" transform="matrix(0.36, 0.00, 0.00, 0.36, 1815.6, 3.8)"></path><path d="M 0.0 0.0 C -8.8 4.8 -17.8 9.1 -27.1 12.9 " fill="none" stroke="#393E50" stroke-width="1.00" stroke-miterlimit="0.00" stroke-linecap="round" stroke-linejoin="round" transform="matrix(0.36, 0.00, 0.00, 0.36, 1814.3, 0.8)"></path><path d="M 0.0 0.0 C 2.5 6.7 5.2 13.3 8.3 19.8 " fill="none" stroke="#393E50" stroke-width="3.00" stroke-miterlimit="0.00" stroke-linecap="round" stroke-linejoin="round" transform="matrix(0.36, 0.00, 0.00, 0.36, 1813.0, -2.5)"></path><path d="M 0.0 0.0 C 5.2 -27.7 14.2 -55.0 27.2 -81.1 " fill="none" stroke="#393E50" stroke-width="3.00" stroke-miterlimit="0.00" stroke-linecap="round" stroke-linejoin="round" transform="matrix(0.36, 0.00, 0.00, 0.36, 1785.5, 26.4)"></path><path d="M 0.0 0.0 C -13.1 23.1 -22.7 47.7 -28.8 73.1 " fill="none" stroke="#393E50" stroke-width="3.00" stroke-miterlimit="0.00" stroke-linecap="round" stroke-linejoin="round" transform="matrix(0.36, 0.00, 0.00, 0.36, 1807.4, -2.5)"></path><path d="M 0.0 0.0 C -8.7 -5.0 -17.6 -9.5 -26.9 -13.3 " fill="none" stroke="#393E50" stroke-width="1.00" stroke-miterlimit="0.00" stroke-linecap="round" stroke-linejoin="round" transform="matrix(0.36, 0.00, 0.00, 0.36, 1804.4, 3.2)"></path><path d="M 0.0 0.0 C -8.7 -5.0 -17.7 -9.4 -26.9 -13.2 " fill="none" stroke="#393E50" stroke-width="3.00" stroke-miterlimit="0.00" stroke-linecap="round" stroke-linejoin="round" transform="matrix(0.36, 0.00, 0.00, 0.36, 1803.2, 5.7)"></path><path d="M 0.0 0.0 C -8.8 -4.8 -17.8 -9.1 -27.1 -12.9 " fill="none" stroke="#393E50" stroke-width="1.00" stroke-miterlimit="0.00" stroke-linecap="round" stroke-linejoin="round" transform="matrix(0.36, 0.00, 0.00, 0.36, 1801.9, 8.7)"></path><path d="M 0.0 0.0 C -8.8 -4.9 -17.6 -9.8 -26.4 -14.8 " fill="none" stroke="#393E50" stroke-width="1.00" stroke-miterlimit="0.00" stroke-linecap="round" stroke-linejoin="round" transform="matrix(0.36, 0.00, 0.00, 0.36, 1801.1, 10.8)"></path><path d="M 0.0 0.0 C -8.5 -5.5 -17.4 -10.5 -26.4 -15.0 " fill="none" stroke="#393E50" stroke-width="1.00" stroke-miterlimit="0.00" stroke-linecap="round" stroke-linejoin="round" transform="matrix(0.36, 0.00, 0.00, 0.36, 1800.1, 13.4)"></path><path d="M 0.0 0.0 C -8.6 -5.5 -17.4 -10.4 -26.6 -14.8 " fill="none" stroke="#393E50" stroke-width="3.00" stroke-miterlimit="0.00" stroke-linecap="round" stroke-linejoin="round" transform="matrix(0.36, 0.00, 0.00, 0.36, 1799.3, 15.7)"></path><path d="M 0.0 0.0 L -27.1 -13.8 " fill="none" stroke="#393E50" stroke-width="1.00" stroke-miterlimit="0.00" stroke-linecap="round" stroke-linejoin="round" transform="matrix(0.36, 0.00, 0.00, 0.36, 1798.6, 17.9)"></path><path d="M 0.0 0.0 C -8.9 -4.9 -18.0 -9.5 -27.2 -13.7 " fill="none" stroke="#393E50" stroke-width="1.00" stroke-miterlimit="0.00" stroke-linecap="round" stroke-linejoin="round" transform="matrix(0.36, 0.00, 0.00, 0.36, 1798.0, 20.2)"></path><path d="M 0.0 0.0 C -9.2 -3.9 -18.6 -7.4 -28.1 -10.6 " fill="none" stroke="#393E50" stroke-width="3.00" stroke-miterlimit="0.00" stroke-linecap="round" stroke-linejoin="round" transform="matrix(0.36, 0.00, 0.00, 0.36, 1797.6, 21.5)"></path><path d="M 0.0 0.0 L 0.0 8.9 C 0.0 11.1 -1.8 12.9 -4.0 12.9 L -4.0 12.9 C -6.3 12.9 -8.1 11.1 -8.1 8.9 L -8.1 0.0 " fill="none" stroke="#393E50" stroke-width="3.00" stroke-miterlimit="0.00" stroke-linecap="round" stroke-linejoin="round" transform="matrix(0.36, 0.00, 0.00, 0.36, 1788.4, 26.4)"></path><path d="M 0.0 0.0 L 8.1 0.6 " fill="none" stroke="#393E50" stroke-width="1.00" stroke-miterlimit="0.00" stroke-linecap="round" stroke-linejoin="round" transform="matrix(0.36, 0.00, 0.00, 0.36, 1785.5, 27.4)"></path><path d="M 0.0 0.0 L 8.1 0.2 " fill="none" stroke="#393E50" stroke-width="1.00" stroke-miterlimit="0.00" stroke-linecap="round" stroke-linejoin="round" transform="matrix(0.36, 0.00, 0.00, 0.36, 1785.5, 29.0)"></path><path d="M 0.0 0.0 L 0.0 15.5 C 0.0 17.8 -1.8 19.6 -4.0 19.6 L -4.0 19.6 C -6.3 19.6 -8.1 17.8 -8.1 15.5 L -8.1 0.0 " fill="none" stroke="#393E50" stroke-width="3.00" stroke-miterlimit="0.00" stroke-linecap="round" stroke-linejoin="round" transform="matrix(0.36, 0.00, 0.00, 0.36, 1792.4, 26.4)"></path><path d="M 0.0 0.0 L 8.1 0.6 " fill="none" stroke="#393E50" stroke-width="1.00" stroke-miterlimit="0.00" stroke-linecap="round" stroke-linejoin="round" transform="matrix(0.36, 0.00, 0.00, 0.36, 1789.5, 27.7)"></path><path d="M 0.0 0.0 L 8.1 0.2 " fill="none" stroke="#393E50" stroke-width="1.00" stroke-miterlimit="0.00" stroke-linecap="round" stroke-linejoin="round" transform="matrix(0.36, 0.00, 0.00, 0.36, 1789.5, 29.1)"></path><path d="M 0.0 0.0 L 8.1 0.6 " fill="none" stroke="#393E50" stroke-width="1.00" stroke-miterlimit="0.00" stroke-linecap="round" stroke-linejoin="round" transform="matrix(0.36, 0.00, 0.00, 0.36, 1789.5, 29.5)"></path><path d="M 0.0 0.0 L 8.1 0.2 " fill="none" stroke="#393E50" stroke-width="1.00" stroke-miterlimit="0.00" stroke-linecap="round" stroke-linejoin="round" transform="matrix(0.36, 0.00, 0.00, 0.36, 1789.5, 30.9)"></path><path d="M 0.0 0.0 L 0.0 12.5 C 0.0 14.8 -1.8 16.6 -4.0 16.6 L -4.0 16.6 C -6.3 16.6 -8.1 14.8 -8.1 12.5 L -8.1 0.0 " fill="none" stroke="#393E50" stroke-width="3.00" stroke-miterlimit="0.00" stroke-linecap="round" stroke-linejoin="round" transform="matrix(0.36, 0.00, 0.00, 0.36, 1796.4, 26.4)"></path><path d="M 0.0 0.0 L 8.1 0.6 " fill="none" stroke="#393E50" stroke-width="1.00" stroke-miterlimit="0.00" stroke-linecap="round" stroke-linejoin="round" transform="matrix(0.36, 0.00, 0.00, 0.36, 1793.5, 26.7)"></path><path d="M 0.0 0.0 L 8.1 0.2 " fill="none" stroke="#393E50" stroke-width="1.00" stroke-miterlimit="0.00" stroke-linecap="round" stroke-linejoin="round" transform="matrix(0.36, 0.00, 0.00, 0.36, 1793.5, 28.0)"></path><path d="M 0.0 0.0 L 8.1 0.6 " fill="none" stroke="#393E50" stroke-width="1.00" stroke-miterlimit="0.00" stroke-linecap="round" stroke-linejoin="round" transform="matrix(0.36, 0.00, 0.00, 0.36, 1793.5, 28.5)"></path><path d="M 0.0 0.0 L 8.1 0.2 " fill="none" stroke="#393E50" stroke-width="1.00" stroke-miterlimit="0.00" stroke-linecap="round" stroke-linejoin="round" transform="matrix(0.36, 0.00, 0.00, 0.36, 1793.5, 29.8)"></path><path d="M 0.0 0.0 L 3.2 1.3 C 5.3 2.1 7.6 1.1 8.4 -1.0 L 8.4 -1.0 C 9.3 -3.1 8.2 -5.4 6.2 -6.3 L -3.0 -9.9 " fill="none" stroke="#393E50" stroke-width="3.00" stroke-miterlimit="0.00" stroke-linecap="round" stroke-linejoin="round" transform="matrix(0.36, 0.00, 0.00, 0.36, 1796.5, 26.4)"></path><path d="M 0.0 0.0 C 4.8 2.0 9.4 4.7 13.5 7.8 " fill="none" stroke="#393E50" stroke-width="1.00" stroke-miterlimit="0.00" stroke-linecap="round" stroke-linejoin="round" transform="matrix(0.36, 0.00, 0.00, 0.36, 1801.0, -2.5)"></path><path d="M 0.0 0.0 C 1.5 1.2 3.0 2.5 4.4 3.8 " fill="none" stroke="#393E50" stroke-width="1.00" stroke-miterlimit="0.00" stroke-linecap="round" stroke-linejoin="round" transform="matrix(0.36, 0.00, 0.00, 0.36, 1805.1, -2.5)"></path><path d="M 0.0 0.0 C 5.0 -3.4 9.8 -7.2 14.2 -11.4 " fill="none" stroke="#393E50" stroke-width="3.00" stroke-miterlimit="0.00" stroke-linecap="round" stroke-linejoin="round" transform="matrix(0.36, 0.00, 0.00, 0.36, 1805.4, 1.6)"></path><path d="M 0.0 0.0 C 0.0 -19.7 -16.0 -35.7 -35.7 -35.7 C -55.4 -35.7 -71.4 -19.7 -71.4 0.0 C -71.4 19.7 -55.4 35.7 -35.7 35.7 C -16.0 35.7 0.0 19.7 0.0 0.0 Z M 0.0 0.0 " fill="none" stroke="#393E50" stroke-width="3.00" stroke-miterlimit="0.00" stroke-linecap="round" stroke-linejoin="round" transform="matrix(0.36, 0.00, 0.00, 0.36, 1864.5, 50.8)"></path><path d="M 0.0 0.0 C -16.5 0.0 -29.9 13.4 -29.9 29.9 C -29.9 46.3 -16.5 59.7 0.0 59.7 C 16.5 59.7 29.9 46.3 29.9 29.9 C 29.9 13.4 16.5 0.0 0.0 0.0 Z M 0.0 0.0 " fill="none" stroke="#393E50" stroke-width="2.00" stroke-miterlimit="0.00" stroke-linecap="round" stroke-linejoin="round" transform="matrix(0.36, 0.00, 0.00, 0.36, 1851.7, 40.2)"></path><path d="M 0.0 0.0 C -13.6 0.0 -24.6 11.1 -24.6 24.6 C -24.6 38.2 -13.6 49.3 0.0 49.3 C 13.6 49.3 24.6 38.2 24.6 24.6 C 24.6 11.1 13.6 0.0 0.0 0.0 Z M 0.0 0.0 " fill="none" stroke="#393E50" stroke-width="6.00" stroke-miterlimit="0.00" stroke-linecap="round" stroke-linejoin="round" transform="matrix(0.36, 0.00, 0.00, 0.36, 1851.7, 42.0)"></path><path d="M 0.0 0.0 C -11.4 0.0 -20.6 9.3 -20.6 20.6 C -20.6 32.0 -11.4 41.3 0.0 41.3 C 11.4 41.3 20.6 32.0 20.6 20.6 C 20.6 9.3 11.4 0.0 0.0 0.0 Z M 0.0 0.0 " fill="none" stroke="#393E50" stroke-width="1.00" stroke-miterlimit="0.00" stroke-linecap="round" stroke-linejoin="round" stroke-dasharray="2.0" transform="matrix(0.36, 0.00, 0.00, 0.36, 1851.7, 43.5)"></path><path d="M 0.0 0.0 C 0.0 -13.8 -11.2 -25.0 -25.0 -25.0 C -38.8 -25.0 -50.0 -13.8 -50.0 0.0 C -50.0 13.8 -38.8 25.0 -25.0 25.0 C -11.2 25.0 0.0 13.8 0.0 0.0 Z M 0.0 0.0 " fill="none" stroke="#393E50" stroke-width="3.00" stroke-miterlimit="0.00" stroke-linecap="round" stroke-linejoin="round" transform="matrix(0.36, 0.00, 0.00, 0.36, 1828.4, 47.0)"></path><path d="M 0.0 0.0 C -10.6 0.0 -19.2 8.6 -19.2 19.2 C -19.2 29.7 -10.6 38.3 0.0 38.3 C 10.6 38.3 19.2 29.7 19.2 19.2 C 19.2 8.6 10.6 0.0 0.0 0.0 Z M 0.0 0.0 " fill="none" stroke="#393E50" stroke-width="2.00" stroke-miterlimit="0.00" stroke-linecap="round" stroke-linejoin="round" transform="matrix(0.36, 0.00, 0.00, 0.36, 1819.5, 40.2)"></path><path d="M 0.0 0.0 C -7.7 0.0 -13.9 6.2 -13.9 13.9 C -13.9 21.6 -7.7 27.9 0.0 27.9 C 7.7 27.9 13.9 21.6 13.9 13.9 C 13.9 6.2 7.7 0.0 0.0 0.0 Z M 0.0 0.0 " fill="none" stroke="#393E50" stroke-width="6.00" stroke-miterlimit="0.00" stroke-linecap="round" stroke-linejoin="round" transform="matrix(0.36, 0.00, 0.00, 0.36, 1819.5, 42.0)"></path><path d="M 0.0 0.0 C -5.5 0.0 -9.9 4.5 -9.9 9.9 C -9.9 15.4 -5.5 19.9 0.0 19.9 C 5.5 19.9 9.9 15.4 9.9 9.9 C 9.9 4.5 5.5 0.0 0.0 0.0 Z M 0.0 0.0 " fill="none" stroke="#393E50" stroke-width="1.00" stroke-linecap="round" stroke-linejoin="round" stroke-dasharray="1.9, 1.9" transform="matrix(0.36, 0.00, 0.00, 0.36, 1819.5, 43.5)"></path><path d="M 0.0 0.0 L 0.0 -51.2 L -150.9 -51.2 L -150.9 -10.7 " fill="none" stroke="#393E50" stroke-width="3.00" stroke-miterlimit="10.00" stroke-linecap="round" stroke-linejoin="round" transform="matrix(0.36, 0.00, 0.00, 0.36, 1864.5, 50.8)"></path><path d="M 0.0 0.0 L -15.1 -18.6 L -35.7 -18.6 " fill="none" stroke="#393E50" stroke-width="3.00" stroke-miterlimit="10.00" stroke-linecap="round" stroke-linejoin="round" transform="matrix(0.36, 0.00, 0.00, 0.36, 1864.5, 32.6)"></path><path d="M 0.0 0.0 L -34.8 0.0 L -50.0 18.6 " fill="none" stroke="#393E50" stroke-width="3.00" stroke-miterlimit="10.00" stroke-linecap="round" stroke-linejoin="round" transform="matrix(0.36, 0.00, 0.00, 0.36, 1828.4, 26.0)"></path><path d="M 0.0 0.0 L 0.0 43.0 L 36.6 43.0 C 33.2 38.2 31.2 32.4 31.2 26.1 C 31.2 14.6 37.8 4.8 47.4 0.0 " fill="none" stroke="#393E50" stroke-width="3.00" stroke-miterlimit="10.00" stroke-linecap="round" stroke-linejoin="round" transform="matrix(0.36, 0.00, 0.00, 0.36, 1815.9, -2.5)"></path><path d="M 0.0 0.0 L 0.0 -43.0 " fill="none" stroke="#393E50" stroke-width="3.00" stroke-miterlimit="10.00" stroke-linecap="round" stroke-linejoin="round" transform="matrix(0.36, 0.00, 0.00, 0.36, 1859.1, 12.8)"></path><path d="M 0.0 0.0 L 38.9 5.4 " fill="none" stroke="#393E50" stroke-width="3.00" stroke-miterlimit="10.00" stroke-linecap="round" stroke-linejoin="round" transform="matrix(0.36, 0.00, 0.00, 0.36, 1825.8, 53.2)"></path><path d="M 0.0 0.0 L -9.1 0.0 L -9.1 -30.4 L 0.0 -30.4 " fill="none" stroke="#393E50" stroke-width="3.00" stroke-miterlimit="10.00" stroke-linecap="round" stroke-linejoin="round" transform="matrix(0.36, 0.00, 0.00, 0.36, 1810.5, 47.0)"></path><path d="M 0.0 0.0 L 9.1 0.0 L 9.1 30.4 L 0.0 30.4 " fill="none" stroke="#393E50" stroke-width="3.00" stroke-miterlimit="10.00" stroke-linecap="round" stroke-linejoin="round" transform="matrix(0.36, 0.00, 0.00, 0.36, 1864.5, 36.2)"></path><path d="M 0.0 0.0 L -30.8 0.0 " fill="none" stroke="#393E50" stroke-width="3.00" stroke-miterlimit="10.00" stroke-linecap="round" stroke-linejoin="round" transform="matrix(0.36, 0.00, 0.00, 0.36, 1807.3, 41.6)"></path><path d="M 0.0 0.0 L 27.5 0.0 " fill="none" stroke="#393E50" stroke-width="3.00" stroke-miterlimit="10.00" stroke-linecap="round" stroke-linejoin="round" transform="matrix(0.36, 0.00, 0.00, 0.36, 1867.8, 41.6)"></path><path d="M 0.0 0.0 C 0.0 2.9 -2.3 5.2 -5.2 5.2 C -8.1 5.2 -10.5 2.9 -10.5 0.0 C -10.5 -2.9 -8.1 -5.2 -5.2 -5.2 C -2.3 -5.2 0.0 -2.9 0.0 0.0 Z M 0.0 0.0 " fill="none" stroke="#393E50" stroke-width="3.00" stroke-miterlimit="10.00" stroke-linecap="round" stroke-linejoin="round" transform="matrix(0.36, 0.00, 0.00, 0.36, 1796.2, 41.6)"></path><path d="M 0.0 0.0 C 0.0 2.9 -2.3 5.2 -5.2 5.2 C -8.1 5.2 -10.5 2.9 -10.5 0.0 C -10.5 -2.9 -8.1 -5.2 -5.2 -5.2 C -2.3 -5.2 0.0 -2.9 0.0 0.0 Z M 0.0 0.0 " fill="none" stroke="#393E50" stroke-width="3.00" stroke-miterlimit="10.00" stroke-linecap="round" stroke-linejoin="round" transform="matrix(0.36, 0.00, 0.00, 0.36, 1881.4, 41.6)"></path><path d="M 0.0 0.0 C 4.1 -4.5 6.5 -10.4 6.5 -16.9 C 6.5 -30.7 -4.7 -42.0 -18.5 -42.0 C -32.4 -42.0 -43.6 -30.7 -43.6 -16.9 C -43.6 -10.4 -41.2 -4.5 -37.1 0.0 " fill="none" stroke="#393E50" stroke-width="1.00" stroke-miterlimit="10.00" stroke-linecap="round" stroke-linejoin="round" transform="matrix(0.36, 0.00, 0.00, 0.36, 1844.1, 12.8)"></path><path d="M 0.0 0.0 L -11.7 0.0 " fill="none" stroke="#393E50" stroke-width="3.00" stroke-miterlimit="10.00" stroke-linecap="round" stroke-linejoin="round" transform="matrix(0.36, 0.00, 0.00, 0.36, 1849.3, 26.0)"></path><path d="M 0.0 0.0 L -5.8 0.0 " fill="none" stroke="#393E50" stroke-width="3.00" stroke-miterlimit="10.00" stroke-linecap="round" stroke-linejoin="round" transform="matrix(0.36, 0.00, 0.00, 0.36, 1842.5, 26.0)"></path><path d="M 0.0 0.0 L 31.3 -2.4 " fill="none" stroke="#393E50" stroke-width="1.00" stroke-miterlimit="10.00" stroke-linecap="round" stroke-linejoin="round" transform="matrix(0.36, 0.00, 0.00, 0.36, 1847.9, 7.7)"></path><path d="M 0.0 0.0 L 120.5 -3.8 " fill="none" stroke="#393E50" stroke-width="1.00" stroke-miterlimit="10.00" stroke-linecap="round" stroke-linejoin="round" transform="matrix(0.36, 0.00, 0.00, 0.36, 1816.0, 11.4)"></path><path d="M 0.0 0.0 L 34.5 3.2 " fill="none" stroke="#393E50" stroke-width="1.00" stroke-miterlimit="10.00" stroke-linecap="round" stroke-linejoin="round" transform="matrix(0.36, 0.00, 0.00, 0.36, 1826.8, 52.0)"></path><path d="M 0.0 0.0 L 145.5 -6.7 " fill="none" stroke="#393E50" stroke-width="1.00" stroke-miterlimit="10.00" stroke-linecap="round" stroke-linejoin="round" transform="matrix(0.36, 0.00, 0.00, 0.36, 1810.5, 32.6)"></path><path d="M 0.0 0.0 C -9.2 27.8 -22.5 54.7 -40.0 80.0 " fill="none" stroke="#393E50" stroke-width="3.00" stroke-miterlimit="10.00" stroke-linecap="round" stroke-linejoin="round" transform="matrix(0.36, 0.00, 0.00, 0.36, 1873.4, -2.5)"></path><path d="M 0.0 0.0 C 3.0 -6.5 5.8 -13.1 8.3 -19.8 " fill="none" stroke="#393E50" stroke-width="3.00" stroke-miterlimit="10.00" stroke-linecap="round" stroke-linejoin="round" transform="matrix(0.36, 0.00, 0.00, 0.36, 1859.1, 4.6)"></path><path d="M 0.0 0.0 C -5.3 -2.2 -10.5 -4.8 -15.5 -7.7 L -47.5 -10.1 " fill="none" stroke="#393E50" stroke-width="1.00" stroke-miterlimit="10.00" stroke-linecap="round" stroke-linejoin="round" transform="matrix(0.36, 0.00, 0.00, 0.36, 1864.6, 12.8)"></path><path d="M 0.0 0.0 C 7.9 4.5 16.1 8.5 24.5 11.9 " fill="none" stroke="#393E50" stroke-width="1.00" stroke-miterlimit="10.00" stroke-linecap="round" stroke-linejoin="round" transform="matrix(0.36, 0.00, 0.00, 0.36, 1859.1, 6.8)"></path><path d="M 0.0 0.0 C 8.7 5.0 17.7 9.4 26.9 13.2 " fill="none" stroke="#393E50" stroke-width="3.00" stroke-miterlimit="10.00" stroke-linecap="round" stroke-linejoin="round" transform="matrix(0.36, 0.00, 0.00, 0.36, 1859.4, 3.8)"></path><path d="M 0.0 0.0 C 8.8 4.8 17.8 9.1 27.1 12.9 " fill="none" stroke="#393E50" stroke-width="1.00" stroke-miterlimit="10.00" stroke-linecap="round" stroke-linejoin="round" transform="matrix(0.36, 0.00, 0.00, 0.36, 1860.8, 0.8)"></path><path d="M 0.0 0.0 C 8.8 4.9 17.6 9.8 26.4 14.8 " fill="none" stroke="#393E50" stroke-width="1.00" stroke-miterlimit="10.00" stroke-linecap="round" stroke-linejoin="round" transform="matrix(0.36, 0.00, 0.00, 0.36, 1861.6, -1.3)"></path><path d="M 0.0 0.0 C 6.5 3.9 13.2 7.6 20.0 11.0 " fill="none" stroke="#393E50" stroke-width="1.00" stroke-miterlimit="10.00" stroke-linecap="round" stroke-linejoin="round" transform="matrix(0.36, 0.00, 0.00, 0.36, 1864.9, -2.5)"></path><path d="M 0.0 0.0 C 2.7 1.4 5.4 2.8 8.2 4.1 " fill="none" stroke="#393E50" stroke-width="3.00" stroke-miterlimit="10.00" stroke-linecap="round" stroke-linejoin="round" transform="matrix(0.36, 0.00, 0.00, 0.36, 1870.0, -2.5)"></path><path d="M 0.0 0.0 L 58.7 0.0 " fill="none" stroke="#393E50" stroke-width="3.00" stroke-miterlimit="10.00" stroke-linecap="round" stroke-linejoin="round" transform="matrix(0.36, 0.00, 0.00, 0.36, 1846.0, 12.8)"></path><path d="M 0.0 0.0 L 3.0 0.0 " fill="none" stroke="#393E50" stroke-width="3.00" stroke-miterlimit="10.00" stroke-linecap="round" stroke-linejoin="round" transform="matrix(0.36, 0.00, 0.00, 0.36, 1788.4, 26.4)"></path><path d="M 0.0 0.0 L 3.0 0.0 " fill="none" stroke="#393E50" stroke-width="3.00" stroke-miterlimit="10.00" stroke-linecap="round" stroke-linejoin="round" transform="matrix(0.36, 0.00, 0.00, 0.36, 1792.4, 26.4)"></path></g></g></g></g><g><clipPath id="clip-1752"><path d="M 1681.9 5.9 L 1779.9 5.9 L 1779.9 38.3 L 1681.9 38.3 Z M 1681.9 5.9 "></path></clipPath><g clip-path="url(#clip-1752)"><path d="M 1682.9 37.3 L 1778.9 37.3 L 1778.9 6.9 L 1682.9 6.9 Z M 1682.9 37.3 " fill="#FFDA7B"></path></g></g><g><clipPath id="clip-1753"><path d="M 1693.0 10.4 L 1772.0 10.4 L 1772.0 29.0 L 1693.0 29.0 Z M 1693.0 10.4 "></path></clipPath><g clip-path="url(#clip-1753)"><text xml:space="preserve" font-family="Helvetica" font-size="44.2" fill="#393E50" transform="matrix(0.35, 0.00, -0.00, -0.36, 1693.4, 15.6)">c</text><text xml:space="preserve" font-family="Helvetica" font-size="44.2" fill="#393E50" transform="matrix(0.35, 0.00, -0.00, -0.36, 1701.1, 15.6)">i</text><text xml:space="preserve" font-family="Helvetica" font-size="44.2" fill="#393E50" transform="matrix(0.35, 0.00, -0.00, -0.36, 1704.5, 15.6)">m</text><text xml:space="preserve" font-family="Helvetica" font-size="44.2" fill="#393E50" transform="matrix(0.35, 0.00, -0.00, -0.36, 1717.3, 15.6)">o</text><text xml:space="preserve" font-family="Helvetica" font-size="44.2" fill="#393E50" transform="matrix(0.35, 0.00, -0.00, -0.36, 1725.9, 15.6)">n</text><text xml:space="preserve" font-family="Helvetica" font-size="44.2" fill="#393E50" transform="matrix(0.35, 0.00, -0.00, -0.36, 1734.5, 15.6)">.</text><text xml:space="preserve" font-family="Helvetica" font-size="44.2" fill="#393E50" transform="matrix(0.35, 0.00, -0.00, -0.36, 1738.8, 15.6)">i</text><text xml:space="preserve" font-family="Helvetica" font-size="44.2" fill="#393E50" transform="matrix(0.35, 0.00, -0.00, -0.36, 1742.2, 15.6)">o</text></g></g><g><clipPath id="clip-1754"><path d="M 1693.0 29.0 L 1772.0 29.0 L 1772.0 10.0 L 1693.0 10.0 Z M 1693.0 29.0 "></path></clipPath><g clip-path="url(#clip-1754)"><g><clipPath id="clip-1755"><path d="M 1693.0 10.4 L 1772.0 10.4 L 1772.0 29.0 L 1693.0 29.0 Z M 1693.0 10.4 "></path></clipPath><g clip-path="url(#clip-1755)"><path d="M 0.0 0.0 L -221.4 0.0 " fill="none" stroke="#FED97B" stroke-width="5.00" stroke-miterlimit="0.00" stroke-linecap="round" stroke-linejoin="round" transform="matrix(0.35, 0.00, 0.00, 0.36, 1771.1, 10.9)"></path></g></g></g></g><path d="M 865.3 874.4 L 1770.7 874.4 L 1770.7 741.8 L 865.3 741.8 Z M 865.3 874.4 " fill="#FEDF73"></path><g><clipPath id="clip-1756"><path d="M 1155.0 150.6 L 1423.1 150.6 L 1423.1 266.5 L 1155.0 266.5 Z M 1155.0 150.6 "></path></clipPath><g clip-path="url(#clip-1756)"><path d="M 1156.0 265.5 L 1422.1 265.5 L 1422.1 151.6 L 1156.0 151.6 Z M 1156.0 265.5 " fill="#FEDF73"></path></g></g><g><clipPath id="clip-1757"><path d="M 142.6 512.1 L 410.7 512.1 L 410.7 628.0 L 142.6 628.0 Z M 142.6 512.1 "></path></clipPath><g clip-path="url(#clip-1757)"><path d="M 143.6 627.0 L 409.7 627.0 L 409.7 513.1 L 143.6 513.1 Z M 143.6 627.0 " fill="#FEDF73"></path></g></g><g><clipPath id="clip-1758"><path d="M 570.4 199.0 L 1003.0 199.0 L 1003.0 681.6 L 570.4 681.6 Z M 570.4 199.0 "></path></clipPath><g clip-path="url(#clip-1758)"><path d="M 0.0 0.0 L 0.0 263.6 L 45.4 263.6 L 45.4 0.0 L 45.4 347.3 L 128.4 347.3 " fill="none" stroke="#575E61" stroke-width="3.00" stroke-miterlimit="0.00" transform="matrix(0.74, 0.00, 0.00, -0.74, 584.0, 461.5)"></path><path d="M 0.0 152.6 L 0.0 18.0 L 45.4 18.0 L 45.4 152.6 L 45.4 0.0 " fill="none" stroke="#575E61" stroke-width="3.00" stroke-miterlimit="0.00" transform="matrix(0.74, 0.00, 0.00, -0.74, 584.0, 616.8)"></path><path d="M 0.0 0.0 L 98.9 0.0 L 98.9 66.0 L 0.0 66.0 L 0.0 0.0 Z M 0.0 0.0 " fill="none" stroke="#575E61" stroke-width="3.00" stroke-miterlimit="0.00" transform="matrix(0.74, 0.00, 0.00, -0.74, 866.1, 583.2)"></path><path d="M 274.4 0.0 L 274.4 425.0 L 0.0 425.0 " fill="none" stroke="#575E61" stroke-width="3.00" stroke-miterlimit="0.00" transform="matrix(0.74, 0.00, 0.00, -0.74, 709.0, 534.1)"></path><path d="M 66.9 327.3 L 0.0 327.3 L 0.0 0.0 " fill="none" stroke="#575E61" stroke-width="3.00" stroke-miterlimit="0.00" transform="matrix(0.74, 0.00, 0.00, -0.74, 632.6, 461.5)"></path><path d="M 0.0 132.6 L 0.0 0.0 L 377.4 0.0 L 377.4 25.2 " fill="none" stroke="#575E61" stroke-width="3.00" stroke-miterlimit="0.00" transform="matrix(0.74, 0.00, 0.00, -0.74, 632.6, 601.9)"></path><path d="M 0.0 0.0 L 16.0 0.0 L 16.0 56.3 L 0.0 56.3 L 0.0 0.0 Z M 0.0 0.0 " fill="none" stroke="#575E61" stroke-width="3.00" stroke-miterlimit="0.00" transform="matrix(0.74, 0.00, 0.00, -0.74, 927.7, 503.3)"></path><path d="M 31.0 62.0 C 48.1 62.0 62.0 48.1 62.0 31.0 C 62.0 13.9 48.1 0.0 31.0 0.0 C 13.9 0.0 0.0 13.9 0.0 31.0 C 0.0 48.1 13.9 62.0 31.0 62.0 Z M 31.0 62.0 " fill="none" stroke="#575E61" stroke-width="3.00" stroke-miterlimit="0.00" transform="matrix(0.74, 0.00, 0.00, -0.74, 830.0, 505.5)"></path><path d="M 51.9 25.9 L 0.0 25.9 C 0.0 11.6 11.6 0.0 25.9 0.0 C 40.3 0.0 51.9 11.6 51.9 25.9 L 51.9 25.9 Z M 51.9 25.9 " fill="none" stroke="#575E61" stroke-width="3.00" stroke-miterlimit="0.00" transform="matrix(0.74, 0.00, 0.00, -0.74, 833.7, 501.7)"></path><path d="M 68.8 0.0 L 59.4 9.4 C 49.4 4.8 37.8 4.8 27.8 9.4 L 18.4 0.0 L 0.0 18.4 L 9.4 27.8 C 4.8 37.8 4.8 49.4 9.4 59.4 L 0.0 68.8 L 18.4 87.2 L 27.8 77.8 C 37.8 82.4 49.4 82.4 59.4 77.8 L 68.8 87.2 L 87.2 68.8 L 77.8 59.4 C 82.4 49.4 82.4 37.8 77.8 27.8 L 87.2 18.4 L 68.8 0.0 L 68.8 0.0 Z M 68.8 0.0 " fill="none" stroke="#575E61" stroke-width="3.00" stroke-miterlimit="0.00" transform="matrix(0.74, 0.00, 0.00, -0.74, 820.6, 514.8)"></path><path d="M 3.3 6.5 C 5.1 6.5 6.5 5.1 6.5 3.3 C 6.5 1.5 5.1 0.0 3.3 0.0 C 1.5 0.0 0.0 1.5 0.0 3.3 C 0.0 5.1 1.5 6.5 3.3 6.5 Z M 3.3 6.5 " fill="none" stroke="#575E61" stroke-width="3.00" stroke-miterlimit="0.00" transform="matrix(0.74, 0.00, 0.00, -0.74, 829.8, 464.0)"></path><path d="M 3.3 6.5 C 5.1 6.5 6.5 5.1 6.5 3.3 C 6.5 1.5 5.1 0.0 3.3 0.0 C 1.5 0.0 0.0 1.5 0.0 3.3 C 0.0 5.1 1.5 6.5 3.3 6.5 Z M 3.3 6.5 " fill="none" stroke="#575E61" stroke-width="3.00" stroke-miterlimit="0.00" transform="matrix(0.74, 0.00, 0.00, -0.74, 829.8, 505.7)"></path><path d="M 3.3 6.5 C 5.1 6.5 6.5 5.1 6.5 3.3 C 6.5 1.5 5.1 0.0 3.3 0.0 C 1.5 0.0 0.0 1.5 0.0 3.3 C 0.0 5.1 1.5 6.5 3.3 6.5 Z M 3.3 6.5 " fill="none" stroke="#575E61" stroke-width="3.00" stroke-miterlimit="0.00" transform="matrix(0.74, 0.00, 0.00, -0.74, 871.4, 464.0)"></path><path d="M 3.3 6.5 C 5.1 6.5 6.5 5.1 6.5 3.3 C 6.5 1.5 5.1 0.0 3.3 0.0 C 1.5 0.0 0.0 1.5 0.0 3.3 C 0.0 5.1 1.5 6.5 3.3 6.5 Z M 3.3 6.5 " fill="none" stroke="#575E61" stroke-width="3.00" stroke-miterlimit="0.00" transform="matrix(0.74, 0.00, 0.00, -0.74, 871.4, 505.7)"></path><path d="M 0.0 17.6 L 7.7 0.0 " fill="none" stroke="#575E61" stroke-width="3.00" stroke-miterlimit="0.00" transform="matrix(0.74, 0.00, 0.00, -0.74, 853.0, 495.5)"></path><path d="M 0.0 0.0 L 51.9 0.0 " fill="none" stroke="#575E61" stroke-width="3.00" stroke-miterlimit="0.00" transform="matrix(0.74, 0.00, 0.00, -0.74, 833.7, 482.4)"></path><path d="M 0.0 0.0 C 4.4 0.0 8.0 3.6 8.0 8.0 C 8.0 12.4 4.4 16.0 0.0 16.0 " fill="none" stroke="#575E61" stroke-width="3.00" stroke-miterlimit="0.00" transform="matrix(0.74, 0.00, 0.00, -0.74, 927.7, 456.3)"></path><path d="M 8.0 16.0 C 3.6 16.0 0.0 12.4 0.0 8.0 C 0.0 3.6 3.6 0.0 8.0 0.0 " fill="none" stroke="#575E61" stroke-width="3.00" stroke-miterlimit="0.00" transform="matrix(0.74, 0.00, 0.00, -0.74, 571.1, 473.4)"></path><path d="M 8.0 16.0 C 3.6 16.0 0.0 12.4 0.0 8.0 C 0.0 3.6 3.6 0.0 8.0 0.0 " fill="none" stroke="#575E61" stroke-width="3.00" stroke-miterlimit="0.00" transform="matrix(0.74, 0.00, 0.00, -0.74, 571.1, 503.3)"></path><path d="M 0.0 0.0 C 4.4 0.0 8.0 3.6 8.0 8.0 C 8.0 12.4 4.4 16.0 0.0 16.0 " fill="none" stroke="#575E61" stroke-width="3.00" stroke-miterlimit="0.00" transform="matrix(0.74, 0.00, 0.00, -0.74, 927.7, 520.4)"></path><path d="M 0.0 0.0 L 56.3 0.0 L 56.3 16.0 L 0.0 16.0 L 0.0 0.0 Z M 0.0 0.0 " fill="none" stroke="#575E61" stroke-width="3.00" stroke-miterlimit="0.00" transform="matrix(0.74, 0.00, 0.00, -0.74, 674.8, 302.2)"></path><path d="M 16.0 0.0 C 16.0 4.4 12.4 8.0 8.0 8.0 C 3.6 8.0 0.0 4.4 0.0 0.0 " fill="none" stroke="#575E61" stroke-width="3.00" stroke-miterlimit="0.00" transform="matrix(0.74, 0.00, 0.00, -0.74, 657.7, 302.2)"></path><path d="M 16.0 0.0 C 16.0 4.4 12.4 8.0 8.0 8.0 C 3.6 8.0 0.0 4.4 0.0 0.0 " fill="none" stroke="#575E61" stroke-width="3.00" stroke-miterlimit="0.00" transform="matrix(0.74, 0.00, 0.00, -0.74, 721.8, 302.2)"></path><path d="M 0.0 0.0 L 508.2 0.0 L 508.2 31.7 L 0.0 31.7 L 0.0 0.0 Z M 0.0 0.0 " fill="none" stroke="#575E61" stroke-width="3.00" stroke-miterlimit="0.00" transform="matrix(0.74, 0.00, 0.00, -0.74, 584.0, 640.3)"></path><path d="M 0.0 0.0 L 14.5 0.0 L 14.5 14.5 L 0.0 14.5 L 0.0 0.0 Z M 0.0 0.0 " fill="none" stroke="#575E61" stroke-width="3.00" stroke-miterlimit="0.00" transform="matrix(0.74, 0.00, 0.00, -0.74, 939.6, 573.3)"></path><path d="M 0.0 0.0 L 14.5 0.0 L 14.5 14.5 L 0.0 14.5 L 0.0 0.0 Z M 0.0 0.0 " fill="none" stroke="#575E61" stroke-width="3.00" stroke-miterlimit="0.00" transform="matrix(0.74, 0.00, 0.00, -0.74, 939.6, 553.8)"></path><path d="M 0.0 66.0 L 16.0 66.0 L 16.0 0.0 L 0.0 0.0 " fill="none" stroke="#575E61" stroke-width="3.00" stroke-miterlimit="0.00" transform="matrix(0.74, 0.00, 0.00, -0.74, 927.7, 285.9)"></path><path d="M 0.0 0.0 L 14.5 0.0 L 14.5 14.5 L 0.0 14.5 L 0.0 0.0 Z M 0.0 0.0 " fill="none" stroke="#575E61" stroke-width="3.00" stroke-miterlimit="0.00" transform="matrix(0.74, 0.00, 0.00, -0.74, 939.6, 276.1)"></path><path d="M 0.0 0.0 L 14.5 0.0 L 14.5 14.5 L 0.0 14.5 L 0.0 0.0 Z M 0.0 0.0 " fill="none" stroke="#575E61" stroke-width="3.00" stroke-miterlimit="0.00" transform="matrix(0.74, 0.00, 0.00, -0.74, 939.6, 256.6)"></path><path d="M 0.0 0.0 L 25.7 0.0 L 25.7 66.0 L 0.0 66.0 L 0.0 0.0 Z M 0.0 0.0 " fill="none" stroke="#575E61" stroke-width="3.00" stroke-miterlimit="0.00" transform="matrix(0.74, 0.00, 0.00, -0.74, 785.0, 583.2)"></path><path d="M 0.0 0.0 L 14.5 0.0 L 14.5 14.5 L 0.0 14.5 L 0.0 0.0 Z M 0.0 0.0 " fill="none" stroke="#575E61" stroke-width="3.00" stroke-miterlimit="0.00" transform="matrix(0.74, 0.00, 0.00, -0.74, 804.1, 573.3)"></path><path d="M 0.0 0.0 L 14.5 0.0 L 14.5 14.5 L 0.0 14.5 L 0.0 0.0 Z M 0.0 0.0 " fill="none" stroke="#575E61" stroke-width="3.00" stroke-miterlimit="0.00" transform="matrix(0.74, 0.00, 0.00, -0.74, 804.1, 553.8)"></path><path d="M 0.0 0.0 L 14.5 0.0 L 14.5 14.5 L 0.0 14.5 L 0.0 0.0 Z M 0.0 0.0 " fill="none" stroke="#575E61" stroke-width="3.00" stroke-miterlimit="0.00" transform="matrix(0.74, 0.00, 0.00, -0.74, 774.2, 573.3)"></path><path d="M 0.0 0.0 L 14.5 0.0 L 14.5 14.5 L 0.0 14.5 L 0.0 0.0 Z M 0.0 0.0 " fill="none" stroke="#575E61" stroke-width="3.00" stroke-miterlimit="0.00" transform="matrix(0.74, 0.00, 0.00, -0.74, 774.2, 553.8)"></path><path d="M 0.0 0.0 L 14.5 0.0 L 14.5 14.5 L 0.0 14.5 L 0.0 0.0 Z M 0.0 0.0 " fill="none" stroke="#575E61" stroke-width="3.00" stroke-miterlimit="0.00" transform="matrix(0.74, 0.00, 0.00, -0.74, 774.8, 651.1)"></path><path d="M 0.0 0.0 L 14.5 0.0 L 14.5 14.5 L 0.0 14.5 L 0.0 0.0 Z M 0.0 0.0 " fill="none" stroke="#575E61" stroke-width="3.00" stroke-miterlimit="0.00" transform="matrix(0.74, 0.00, 0.00, -0.74, 755.3, 651.1)"></path><path d="M 0.0 0.0 L 25.7 0.0 L 25.7 66.0 L 0.0 66.0 L 0.0 0.0 Z M 0.0 0.0 " fill="none" stroke="#575E61" stroke-width="3.00" stroke-miterlimit="0.00" transform="matrix(0.74, 0.00, 0.00, -0.74, 632.6, 583.2)"></path><path d="M 0.0 0.0 L 14.5 0.0 L 14.5 14.5 L 0.0 14.5 L 0.0 0.0 Z M 0.0 0.0 " fill="none" stroke="#575E61" stroke-width="3.00" stroke-miterlimit="0.00" transform="matrix(0.74, 0.00, 0.00, -0.74, 651.7, 573.3)"></path><path d="M 0.0 0.0 L 14.5 0.0 L 14.5 14.5 L 0.0 14.5 L 0.0 0.0 Z M 0.0 0.0 " fill="none" stroke="#575E61" stroke-width="3.00" stroke-miterlimit="0.00" transform="matrix(0.74, 0.00, 0.00, -0.74, 651.7, 553.8)"></path><path d="M 0.0 0.0 L 206.2 0.0 C 221.8 0.0 234.4 12.6 234.4 28.1 L 234.4 28.1 C 234.4 43.7 221.8 56.3 206.2 56.3 L 0.0 56.3 L 0.0 0.0 L 0.0 0.0 Z M 0.0 0.0 " fill="none" stroke="#575E61" stroke-width="3.00" stroke-miterlimit="0.00" transform="matrix(0.74, 0.00, 0.00, -0.74, 598.6, 503.3)"></path><path d="M 233.8 0.0 C 231.2 12.8 219.8 22.5 206.2 22.5 L 0.0 22.5 " fill="none" stroke="#575E61" stroke-width="3.00" stroke-miterlimit="0.00" transform="matrix(0.74, 0.00, 0.00, -0.74, 598.6, 486.6)"></path><path d="M 0.0 67.2 C 7.0 74.0 16.6 78.2 27.2 78.2 C 48.8 78.2 66.3 60.7 66.3 39.1 C 66.3 17.5 48.8 0.0 27.2 0.0 C 16.6 0.0 7.0 4.2 0.0 11.0 " fill="none" stroke="#575E61" stroke-width="3.00" stroke-miterlimit="0.00" transform="matrix(0.74, 0.00, 0.00, -0.74, 731.6, 511.5)"></path><path d="M 0.0 76.2 C 8.7 88.3 23.0 96.2 39.0 96.2 C 65.6 96.2 87.1 74.7 87.1 48.1 C 87.1 21.5 65.6 0.0 39.0 0.0 C 23.0 0.0 8.7 7.9 0.0 20.0 " fill="none" stroke="#575E61" stroke-width="3.00" stroke-miterlimit="0.00" transform="matrix(0.74, 0.00, 0.00, -0.74, 722.8, 518.2)"></path><path d="M 45.4 0.0 C 20.5 0.0 0.0 20.2 0.0 45.2 " fill="none" stroke="#575E61" stroke-width="3.00" stroke-miterlimit="0.00" transform="matrix(0.74, 0.00, 0.00, -0.74, 927.7, 616.8)"></path><path d="M 66.3 37.7 L 36.9 37.7 L 36.9 15.3 L 12.7 15.3 L 12.7 37.7 L 0.0 37.7 L 0.0 0.0 L 66.3 0.0 " fill="none" stroke="#575E61" stroke-width="3.00" stroke-miterlimit="0.00" transform="matrix(0.74, 0.00, 0.00, -0.74, 765.1, 367.4)"></path><path d="M 46.9 72.5 L 42.6 72.5 L 42.6 59.1 L 46.9 59.1 L 0.0 59.1 L 0.0 51.8 L 0.0 0.0 L 10.7 0.0 L 10.7 51.8 L 46.9 51.8 " fill="none" stroke="#575E61" stroke-width="3.00" stroke-miterlimit="0.00" transform="matrix(0.74, 0.00, 0.00, -0.74, 779.5, 350.4)"></path><path d="M 17.0 84.0 L 17.0 84.0 C 8.4 84.0 2.0 76.1 3.6 67.7 C 8.9 40.6 10.1 15.1 0.0 0.0 L 17.0 0.0 " fill="none" stroke="#575E61" stroke-width="3.00" stroke-miterlimit="0.00" transform="matrix(0.74, 0.00, 0.00, -0.74, 801.7, 296.5)"></path><path d="M 0.0 37.7 L 29.4 37.7 L 29.4 15.3 L 53.7 15.3 L 53.7 37.7 L 66.3 37.7 L 66.3 0.0 L 0.0 0.0 " fill="none" stroke="#575E61" stroke-width="3.00" stroke-miterlimit="0.00" transform="matrix(0.74, 0.00, 0.00, -0.74, 814.4, 367.4)"></path><path d="M 0.0 72.5 L 4.3 72.5 L 4.3 59.1 L 0.0 59.1 L 46.9 59.1 L 46.9 51.8 L 46.9 0.0 L 36.2 0.0 L 36.2 51.8 L 0.0 51.8 " fill="none" stroke="#575E61" stroke-width="3.00" stroke-miterlimit="0.00" transform="matrix(0.74, 0.00, 0.00, -0.74, 814.4, 350.4)"></path><path d="M 0.0 84.0 L 0.0 84.0 C 8.6 84.0 15.0 76.1 13.4 67.7 C 8.1 40.6 6.9 15.1 17.0 0.0 L 0.0 0.0 " fill="none" stroke="#575E61" stroke-width="3.00" stroke-miterlimit="0.00" transform="matrix(0.74, 0.00, 0.00, -0.74, 814.4, 296.5)"></path><path d="M 0.0 0.0 L 72.4 0.0 " fill="none" stroke="#575E61" stroke-width="3.00" stroke-miterlimit="0.00" transform="matrix(0.74, 0.00, 0.00, -0.74, 787.5, 316.3)"></path><path d="M 65.5 141.5 L 0.0 141.5 L 0.0 0.0 L 149.8 0.0 L 149.8 141.5 L 84.3 141.5 " fill="none" stroke="#575E61" stroke-width="3.00" stroke-miterlimit="0.00" transform="matrix(0.74, 0.00, 0.00, -0.74, 758.7, 375.0)"></path><path d="M 15.8 31.6 C 24.5 31.6 31.6 24.5 31.6 15.8 C 31.6 7.1 24.5 0.0 15.8 0.0 C 7.1 0.0 0.0 7.1 0.0 15.8 C 0.0 24.5 7.1 31.6 15.8 31.6 Z M 15.8 31.6 " fill="none" stroke="#575E61" stroke-width="3.00" stroke-miterlimit="0.00" transform="matrix(0.74, 0.00, 0.00, -0.74, 758.7, 410.2)"></path><path d="M 10.0 20.0 C 15.5 20.0 20.0 15.5 20.0 10.0 C 20.0 4.5 15.5 0.0 10.0 0.0 C 4.5 0.0 0.0 4.5 0.0 10.0 C 0.0 15.5 4.5 20.0 10.0 20.0 Z M 10.0 20.0 " fill="none" stroke="#575E61" stroke-width="3.00" stroke-miterlimit="0.00" transform="matrix(0.74, 0.00, 0.00, -0.74, 763.0, 405.9)"></path><path d="M 15.8 31.6 C 24.5 31.6 31.6 24.5 31.6 15.8 C 31.6 7.1 24.5 0.0 15.8 0.0 C 7.1 0.0 0.0 7.1 0.0 15.8 C 0.0 24.5 7.1 31.6 15.8 31.6 Z M 15.8 31.6 " fill="none" stroke="#575E61" stroke-width="3.00" stroke-miterlimit="0.00" transform="matrix(0.74, 0.00, 0.00, -0.74, 846.6, 410.2)"></path><path d="M 10.0 20.0 C 15.5 20.0 20.0 15.5 20.0 10.0 C 20.0 4.5 15.5 0.0 10.0 0.0 C 4.5 0.0 0.0 4.5 0.0 10.0 C 0.0 15.5 4.5 20.0 10.0 20.0 Z M 10.0 20.0 " fill="none" stroke="#575E61" stroke-width="3.00" stroke-miterlimit="0.00" transform="matrix(0.74, 0.00, 0.00, -0.74, 850.9, 405.9)"></path><path d="M 15.8 31.6 C 24.5 31.6 31.6 24.5 31.6 15.8 C 31.6 7.1 24.5 0.0 15.8 0.0 C 7.1 0.0 0.0 7.1 0.0 15.8 C 0.0 24.5 7.1 31.6 15.8 31.6 Z M 15.8 31.6 " fill="none" stroke="#575E61" stroke-width="3.00" stroke-miterlimit="0.00" transform="matrix(0.74, 0.00, 0.00, -0.74, 788.0, 410.2)"></path><path d="M 10.0 20.0 C 15.5 20.0 20.0 15.5 20.0 10.0 C 20.0 4.5 15.5 0.0 10.0 0.0 C 4.5 0.0 0.0 4.5 0.0 10.0 C 0.0 15.5 4.5 20.0 10.0 20.0 Z M 10.0 20.0 " fill="none" stroke="#575E61" stroke-width="3.00" stroke-miterlimit="0.00" transform="matrix(0.74, 0.00, 0.00, -0.74, 792.3, 405.9)"></path><path d="M 15.8 31.6 C 24.5 31.6 31.6 24.5 31.6 15.8 C 31.6 7.1 24.5 0.0 15.8 0.0 C 7.1 0.0 0.0 7.1 0.0 15.8 C 0.0 24.5 7.1 31.6 15.8 31.6 Z M 15.8 31.6 " fill="none" stroke="#575E61" stroke-width="3.00" stroke-miterlimit="0.00" transform="matrix(0.74, 0.00, 0.00, -0.74, 817.3, 410.2)"></path><path d="M 10.0 20.0 C 15.5 20.0 20.0 15.5 20.0 10.0 C 20.0 4.5 15.5 0.0 10.0 0.0 C 4.5 0.0 0.0 4.5 0.0 10.0 C 0.0 15.5 4.5 20.0 10.0 20.0 Z M 10.0 20.0 " fill="none" stroke="#575E61" stroke-width="3.00" stroke-miterlimit="0.00" transform="matrix(0.74, 0.00, 0.00, -0.74, 821.6, 405.9)"></path><path d="M 0.0 0.0 L 377.4 0.0 " fill="none" stroke="#575E61" stroke-width="3.00" stroke-miterlimit="0.00" transform="matrix(0.74, 0.00, 0.00, -0.74, 632.6, 426.8)"></path><path d="M 169.8 0.0 L 0.0 0.0 " fill="none" stroke="#575E61" stroke-width="3.00" stroke-miterlimit="0.00" transform="matrix(0.74, 0.00, 0.00, -0.74, 632.6, 316.3)"></path><path d="M 169.8 0.0 L 0.0 0.0 " fill="none" stroke="#575E61" stroke-width="3.00" stroke-miterlimit="0.00" transform="matrix(0.74, 0.00, 0.00, -0.74, 632.6, 302.2)"></path><path d="M 0.0 0.0 L 57.7 0.0 " fill="none" stroke="#575E61" stroke-width="3.00" stroke-miterlimit="0.00" transform="matrix(0.74, 0.00, 0.00, -0.74, 870.0, 316.3)"></path><path d="M 0.0 0.0 L 7.0 0.0 L 7.0 101.9 L 0.0 101.9 L 0.0 0.0 Z M 0.0 0.0 " fill="none" stroke="#575E61" stroke-width="3.00" stroke-miterlimit="0.00" transform="matrix(0.74, 0.00, 0.00, -0.74, 612.5, 590.6)"></path><path d="M 0.0 0.0 L 6.0 0.0 L 6.0 14.0 L 0.0 14.0 L 0.0 0.0 Z M 0.0 0.0 " fill="none" stroke="#575E61" stroke-width="3.00" stroke-miterlimit="0.00" transform="matrix(0.74, 0.00, 0.00, -0.74, 608.0, 549.0)"></path><path d="M 0.0 0.0 L 6.0 0.0 L 6.0 14.0 L 0.0 14.0 L 0.0 0.0 Z M 0.0 0.0 " fill="none" stroke="#575E61" stroke-width="3.00" stroke-miterlimit="0.00" transform="matrix(0.74, 0.00, 0.00, -0.74, 608.0, 567.2)"></path><path d="M 0.0 0.0 L 6.0 0.0 L 6.0 14.0 L 0.0 14.0 L 0.0 0.0 Z M 0.0 0.0 " fill="none" stroke="#575E61" stroke-width="3.00" stroke-miterlimit="0.00" transform="matrix(0.74, 0.00, 0.00, -0.74, 608.0, 585.5)"></path><path d="M 0.0 0.0 L 10.4 0.0 L 10.4 454.5 L 0.0 454.5 L 0.0 0.0 Z M 0.0 0.0 " fill="none" stroke="#575E61" stroke-width="3.00" stroke-miterlimit="0.00" transform="matrix(0.74, 0.00, 0.00, -0.74, 584.0, 603.4)"></path><path d="M 0.0 0.0 L 9.3 0.0 L 9.3 74.3 L 0.0 74.3 L 0.0 0.0 Z M 0.0 0.0 " fill="none" stroke="#575E61" stroke-width="3.00" stroke-miterlimit="0.00" transform="matrix(0.74, 0.00, 0.00, -0.74, 591.7, 510.0)"></path><path d="M 0.0 0.0 L 9.3 0.0 L 9.3 74.3 L 0.0 74.3 L 0.0 0.0 Z M 0.0 0.0 " fill="none" stroke="#575E61" stroke-width="3.00" stroke-miterlimit="0.00" transform="matrix(0.74, 0.00, 0.00, -0.74, 577.0, 510.0)"></path><path d="M 0.0 0.0 L 109.3 0.0 L 109.3 109.3 L 0.0 109.3 L 0.0 0.0 Z M 0.0 0.0 " fill="none" stroke="#575E61" stroke-width="3.00" stroke-miterlimit="0.00" transform="matrix(0.74, 0.00, 0.00, -0.74, 655.1, 412.2)"></path><path d="M 62.3 79.5 L 17.2 79.5 C 7.7 79.5 0.0 71.8 0.0 62.3 L 0.0 17.2 C 0.0 7.7 7.7 0.0 17.2 0.0 L 62.3 0.0 C 71.8 0.0 79.5 7.7 79.5 17.2 L 79.5 62.3 C 79.5 71.8 71.8 79.5 62.3 79.5 L 62.3 79.5 Z M 62.3 79.5 " fill="none" stroke="#575E61" stroke-width="3.00" stroke-miterlimit="0.00" transform="matrix(0.74, 0.00, 0.00, -0.74, 666.1, 401.1)"></path><path d="M 3.3 6.5 C 5.1 6.5 6.5 5.1 6.5 3.3 C 6.5 1.5 5.1 0.0 3.3 0.0 C 1.5 0.0 0.0 1.5 0.0 3.3 C 0.0 5.1 1.5 6.5 3.3 6.5 Z M 3.3 6.5 " fill="none" stroke="#575E61" stroke-width="3.00" stroke-miterlimit="0.00" transform="matrix(0.74, 0.00, 0.00, -0.74, 660.1, 407.2)"></path><path d="M 3.3 6.5 C 5.1 6.5 6.5 5.1 6.5 3.3 C 6.5 1.5 5.1 0.0 3.3 0.0 C 1.5 0.0 0.0 1.5 0.0 3.3 C 0.0 5.1 1.5 6.5 3.3 6.5 Z M 3.3 6.5 " fill="none" stroke="#575E61" stroke-width="3.00" stroke-miterlimit="0.00" transform="matrix(0.74, 0.00, 0.00, -0.74, 726.4, 407.2)"></path><path d="M 3.3 6.5 C 5.1 6.5 6.5 5.1 6.5 3.3 C 6.5 1.5 5.1 0.0 3.3 0.0 C 1.5 0.0 0.0 1.5 0.0 3.3 C 0.0 5.1 1.5 6.5 3.3 6.5 Z M 3.3 6.5 " fill="none" stroke="#575E61" stroke-width="3.00" stroke-miterlimit="0.00" transform="matrix(0.74, 0.00, 0.00, -0.74, 660.1, 340.8)"></path><path d="M 3.3 6.5 C 5.1 6.5 6.5 5.1 6.5 3.3 C 6.5 1.5 5.1 0.0 3.3 0.0 C 1.5 0.0 0.0 1.5 0.0 3.3 C 0.0 5.1 1.5 6.5 3.3 6.5 Z M 3.3 6.5 " fill="none" stroke="#575E61" stroke-width="3.00" stroke-miterlimit="0.00" transform="matrix(0.74, 0.00, 0.00, -0.74, 726.4, 340.8)"></path><path d="M 54.6 41.9 L 54.6 27.3 C 54.6 12.2 42.4 0.0 27.3 0.0 L 27.3 0.0 C 12.2 0.0 0.0 12.2 0.0 27.3 L 0.0 41.9 " fill="none" stroke="#575E61" stroke-width="3.00" stroke-miterlimit="0.00" transform="matrix(0.74, 0.00, 0.00, -0.74, 685.3, 680.9)"></path><path d="M 0.0 0.0 L 82.8 0.0 L 82.8 12.7 L 0.0 12.7 L 0.0 0.0 Z M 0.0 0.0 " fill="none" stroke="#575E61" stroke-width="3.00" stroke-miterlimit="0.00" transform="matrix(0.74, 0.00, 0.00, -0.74, 674.9, 649.7)"></path><path d="M 0.0 445.0 L 290.6 445.0 L 290.6 0.0 " fill="none" stroke="#575E61" stroke-width="3.00" stroke-miterlimit="0.00" transform="matrix(0.74, 0.00, 0.00, -0.74, 711.9, 534.1)"></path><path d="M 10.3 26.6 L 10.3 5.2 C 10.3 2.3 8.0 0.0 5.2 0.0 L 5.2 0.0 C 2.3 0.0 0.0 2.3 0.0 5.2 L 0.0 26.6 " fill="none" stroke="#575E61" stroke-width="3.00" stroke-miterlimit="0.00" transform="matrix(0.74, 0.00, 0.00, -0.74, 701.8, 669.5)"></path><path d="M 3.3 6.5 C 5.1 6.5 6.5 5.1 6.5 3.3 C 6.5 1.5 5.1 0.0 3.3 0.0 C 1.5 0.0 0.0 1.5 0.0 3.3 C 0.0 5.1 1.5 6.5 3.3 6.5 Z M 3.3 6.5 " fill="none" stroke="#575E61" stroke-width="3.00" stroke-miterlimit="0.00" transform="matrix(0.74, 0.00, 0.00, -0.74, 871.1, 578.2)"></path><path d="M 3.3 6.5 C 5.1 6.5 6.5 5.1 6.5 3.3 C 6.5 1.5 5.1 0.0 3.3 0.0 C 1.5 0.0 0.0 1.5 0.0 3.3 C 0.0 5.1 1.5 6.5 3.3 6.5 Z M 3.3 6.5 " fill="none" stroke="#575E61" stroke-width="3.00" stroke-miterlimit="0.00" transform="matrix(0.74, 0.00, 0.00, -0.74, 871.1, 544.0)"></path><path d="M 0.0 0.0 L 35.0 0.0 " fill="none" stroke="#575E61" stroke-width="3.00" stroke-miterlimit="0.00" transform="matrix(0.74, 0.00, 0.00, -0.74, 591.7, 401.1)"></path><path d="M 0.0 0.0 L 35.0 0.0 " fill="none" stroke="#575E61" stroke-width="3.00" stroke-miterlimit="0.00" transform="matrix(0.74, 0.00, 0.00, -0.74, 591.7, 386.7)"></path><path d="M 0.0 0.0 L 35.0 0.0 " fill="none" stroke="#575E61" stroke-width="3.00" stroke-miterlimit="0.00" transform="matrix(0.74, 0.00, 0.00, -0.74, 591.7, 372.4)"></path><path d="M 0.0 0.0 L 35.0 0.0 " fill="none" stroke="#575E61" stroke-width="3.00" stroke-miterlimit="0.00" transform="matrix(0.74, 0.00, 0.00, -0.74, 591.7, 358.0)"></path><path d="M 0.0 0.0 L 35.0 0.0 " fill="none" stroke="#575E61" stroke-width="3.00" stroke-miterlimit="0.00" transform="matrix(0.74, 0.00, 0.00, -0.74, 591.7, 343.6)"></path><path d="M 0.0 0.0 L 35.0 0.0 " fill="none" stroke="#575E61" stroke-width="3.00" stroke-miterlimit="0.00" transform="matrix(0.74, 0.00, 0.00, -0.74, 591.7, 280.0)"></path><path d="M 0.0 0.0 L 36.0 0.0 " fill="none" stroke="#575E61" stroke-width="3.00" stroke-miterlimit="0.00" transform="matrix(0.74, 0.00, 0.00, -0.74, 682.3, 214.5)"></path><path d="M 0.0 0.0 L 47.4 0.0 L 47.4 7.0 L 0.0 7.0 L 0.0 0.0 Z M 0.0 0.0 " fill="none" stroke="#575E61" stroke-width="3.00" stroke-miterlimit="0.00" transform="matrix(0.74, 0.00, 0.00, -0.74, 678.1, 290.5)"></path><path d="M 0.0 102.4 L 0.0 0.0 " fill="none" stroke="#575E61" stroke-width="3.00" stroke-miterlimit="0.00" transform="matrix(0.74, 0.00, 0.00, -0.74, 682.3, 285.3)"></path><path d="M 0.0 102.4 L 0.0 0.0 " fill="none" stroke="#575E61" stroke-width="3.00" stroke-miterlimit="0.00" transform="matrix(0.74, 0.00, 0.00, -0.74, 709.0, 285.3)"></path><path d="M 0.0 0.0 C 33.1 15.5 19.7 60.9 18.7 92.9 C 17.7 126.2 13.5 159.9 20.4 192.4 C 22.4 201.4 25.3 210.4 30.9 217.8 C 36.5 225.1 45.2 230.5 54.4 230.2 C 58.9 230.1 63.6 228.4 66.4 224.9 C 69.2 221.3 69.5 215.7 66.3 212.5 C 61.8 207.9 53.9 210.4 48.7 214.2 C 24.8 231.3 19.0 264.8 23.0 293.9 C 25.2 310.5 30.0 327.3 27.4 343.9 C 25.2 358.8 14.4 369.9 0.0 372.3 " fill="none" stroke="#575E61" stroke-width="3.00" stroke-miterlimit="0.00" transform="matrix(0.74, 0.00, 0.00, -0.74, 951.1, 547.9)"></path><path d="M 0.0 3.4 C 2.8 3.7 5.6 3.9 8.3 4.0 C 28.7 5.0 49.7 5.9 69.0 0.0 " fill="none" stroke="#575E61" stroke-width="3.00" stroke-miterlimit="0.00" transform="matrix(0.74, 0.00, 0.00, -0.74, 814.8, 568.5)"></path><path d="M 0.0 1.5 C 22.9 5.0 46.3 4.5 69.0 0.0 " fill="none" stroke="#575E61" stroke-width="3.00" stroke-miterlimit="0.00" transform="matrix(0.74, 0.00, 0.00, -0.74, 814.8, 548.5)"></path><path d="M 0.0 0.9 C 49.5 10.6 101.0 10.3 150.4 0.0 " fill="none" stroke="#575E61" stroke-width="3.00" stroke-miterlimit="0.00" transform="matrix(0.74, 0.00, 0.00, -0.74, 662.5, 567.1)"></path><path d="M 0.0 1.8 C 50.3 9.2 102.5 15.4 150.4 0.0 " fill="none" stroke="#575E61" stroke-width="3.00" stroke-miterlimit="0.00" transform="matrix(0.74, 0.00, 0.00, -0.74, 662.5, 547.9)"></path><path d="M 0.0 8.2 C 14.7 8.4 29.5 7.8 44.2 6.4 C 52.7 5.6 61.7 4.3 69.0 0.0 " fill="none" stroke="#575E61" stroke-width="3.00" stroke-miterlimit="0.00" transform="matrix(0.74, 0.00, 0.00, -0.74, 814.8, 575.6)"></path><path d="M 48.0 12.8 L 0.0 12.8 L 6.0 0.0 L 42.0 0.0 L 48.0 12.8 Z M 48.0 12.8 " fill="none" stroke="#575E61" stroke-width="3.00" stroke-miterlimit="0.00" transform="matrix(0.74, 0.00, 0.00, -0.74, 677.8, 209.6)"></path><path d="M 1.0 0.0 L 1.0 91.8 " fill="none" stroke="#575E61" stroke-width="3.00" stroke-miterlimit="0.00" transform="matrix(0.74, 0.00, 0.00, -0.74, 700.8, 282.7)"></path></g></g><g><clipPath id="clip-1759"><path d="M 570.4 77.7 L 1003.5 77.7 L 1003.5 681.6 L 570.4 681.6 Z M 570.4 77.7 "></path></clipPath><g clip-path="url(#clip-1759)"><image xlink:href="../../487C04B2-D70F-4D2B-8CC0-89B812AC31D6/assets/63D751C58F8BD6291B01A1D44A3CBF58.png" width="1805.00" height="505.00" transform="matrix(0.24, 0.00, -0.00, -0.24, 570.4, 198.7)"></image></g></g><g><clipPath id="clip-1760"><path d="M 205.5 523.6 L 363.1 523.6 L 363.1 616.5 L 205.5 616.5 Z M 205.5 523.6 "></path></clipPath><g clip-path="url(#clip-1760)"><text xml:space="preserve" font-family="Roboto-Light" font-size="50.0" fill="#000000" transform="matrix(1.00, 0.00, -0.00, -1.00, 241.0, 553.0)">h</text><text xml:space="preserve" font-family="Roboto-Light" font-size="50.0" fill="#000000" transform="matrix(1.00, 0.00, -0.00, -1.00, 268.4, 553.0)">t</text><text xml:space="preserve" font-family="Roboto-Light" font-size="50.0" fill="#000000" transform="matrix(1.00, 0.00, -0.00, -1.00, 284.5, 553.0)">t</text><text xml:space="preserve" font-family="Roboto-Light" font-size="50.0" fill="#000000" transform="matrix(1.00, 0.00, -0.00, -1.00, 300.6, 553.0)">p</text></g></g><g><clipPath id="clip-1761"><path d="M 1217.0 162.1 L 1361.0 162.1 L 1361.0 255.0 L 1217.0 255.0 Z M 1217.0 162.1 "></path></clipPath><g clip-path="url(#clip-1761)"><text xml:space="preserve" font-family="Roboto-Light" font-size="50.0" fill="#000000" transform="matrix(1.00, 0.00, -0.00, -1.00, 1250.0, 191.0)">s</text><text xml:space="preserve" font-family="Roboto-Light" font-size="50.0" fill="#000000" transform="matrix(1.00, 0.00, -0.00, -1.00, 1275.3, 191.0)">s</text><text xml:space="preserve" font-family="Roboto-Light" font-size="50.0" fill="#000000" transform="matrix(1.00, 0.00, -0.00, -1.00, 1300.7, 191.0)">h</text></g></g><g><clipPath id="clip-1762"><path d="M 424.9 531.8 L 563.3 531.8 L 563.3 608.2 L 424.9 608.2 Z M 424.9 531.8 "></path></clipPath><g clip-path="url(#clip-1762)"><path d="M 0.0 0.0 L 62.0 0.0 L 72.0 0.0 " fill="none" stroke="#000000" stroke-width="20.00" transform="matrix(1.00, 0.00, 0.00, -1.00, 425.9, 570.0)"></path><path d="M 487.9 532.8 L 562.3 570.0 L 487.9 607.2 Z M 487.9 532.8 " fill="#000000"></path></g></g><g><clipPath id="clip-1763"><path d="M 1010.6 170.4 L 1148.9 170.4 L 1148.9 246.8 L 1010.6 246.8 Z M 1010.6 170.4 "></path></clipPath><g clip-path="url(#clip-1763)"><path d="M 0.0 0.0 L 62.0 0.0 L 72.0 0.0 " fill="none" stroke="#000000" stroke-width="20.00" transform="matrix(1.00, 0.00, 0.00, -1.00, 1011.6, 208.6)"></path><path d="M 1073.5 171.4 L 1147.9 208.6 L 1073.5 245.8 Z M 1073.5 171.4 " fill="#000000"></path></g></g><g><clipPath id="clip-1764"><path d="M 142.6 345.4 L 410.7 345.4 L 410.7 461.3 L 142.6 461.3 Z M 142.6 345.4 "></path></clipPath><g clip-path="url(#clip-1764)"><path d="M 143.6 460.3 L 409.7 460.3 L 409.7 346.4 L 143.6 346.4 Z M 143.6 460.3 " fill="#FEDF73"></path></g></g><g><clipPath id="clip-1765"><path d="M 223.5 356.9 L 345.1 356.9 L 345.1 449.8 L 223.5 449.8 Z M 223.5 356.9 "></path></clipPath><g clip-path="url(#clip-1765)"><text xml:space="preserve" font-family="Roboto-Light" font-size="50.0" fill="#000000" transform="matrix(1.00, 0.00, -0.00, -1.00, 253.0, 386.0)">w</text><text xml:space="preserve" font-family="Roboto-Light" font-size="50.0" fill="#000000" transform="matrix(1.00, 0.00, -0.00, -1.00, 290.7, 386.0)">s</text></g></g><g><clipPath id="clip-1766"><path d="M 424.9 365.2 L 563.3 365.2 L 563.3 441.6 L 424.9 441.6 Z M 424.9 365.2 "></path></clipPath><g clip-path="url(#clip-1766)"><path d="M 0.0 0.0 L 62.0 0.0 L 72.0 0.0 " fill="none" stroke="#000000" stroke-width="20.00" transform="matrix(1.00, 0.00, 0.00, -1.00, 425.9, 403.4)"></path><path d="M 487.9 366.2 L 562.3 403.4 L 487.9 440.6 Z M 487.9 366.2 " fill="#000000"></path></g></g><g><clipPath id="clip-1767"><path d="M 1155.0 544.5 L 1423.1 544.5 L 1423.1 660.4 L 1155.0 660.4 Z M 1155.0 544.5 "></path></clipPath><g clip-path="url(#clip-1767)"><path d="M 1156.0 659.4 L 1422.1 659.4 L 1422.1 545.5 L 1156.0 545.5 Z M 1156.0 659.4 " fill="#FEDF73"></path></g></g><g><clipPath id="clip-1768"><path d="M 1210.2 556.0 L 1367.9 556.0 L 1367.9 648.9 L 1210.2 648.9 Z M 1210.2 556.0 "></path></clipPath><g clip-path="url(#clip-1768)"><text xml:space="preserve" font-family="Roboto-Light" font-size="50.0" fill="#000000" transform="matrix(1.00, 0.00, -0.00, -1.00, 1245.0, 585.0)">h</text><text xml:space="preserve" font-family="Roboto-Light" font-size="50.0" fill="#000000" transform="matrix(1.00, 0.00, -0.00, -1.00, 1272.4, 585.0)">t</text><text xml:space="preserve" font-family="Roboto-Light" font-size="50.0" fill="#000000" transform="matrix(1.00, 0.00, -0.00, -1.00, 1288.5, 585.0)">t</text><text xml:space="preserve" font-family="Roboto-Light" font-size="50.0" fill="#000000" transform="matrix(1.00, 0.00, -0.00, -1.00, 1304.6, 585.0)">p</text></g></g><g><clipPath id="clip-1769"><path d="M 1010.6 564.3 L 1148.9 564.3 L 1148.9 640.7 L 1010.6 640.7 Z M 1010.6 564.3 "></path></clipPath><g clip-path="url(#clip-1769)"><path d="M 64.4 0.0 L 74.4 0.0 L 136.4 0.0 " fill="none" stroke="#000000" stroke-width="20.00" transform="matrix(1.00, 0.00, 0.00, -1.00, 1011.6, 602.5)"></path><path d="M 1086.0 639.7 L 1011.6 602.5 L 1086.0 565.3 Z M 1086.0 639.7 " fill="#000000"></path></g></g><g><clipPath id="clip-1770"><path d="M 1162.4 382.1 L 1430.5 382.1 L 1430.5 498.0 L 1162.4 498.0 Z M 1162.4 382.1 "></path></clipPath><g clip-path="url(#clip-1770)"><path d="M 1163.4 497.0 L 1429.5 497.0 L 1429.5 383.1 L 1163.4 383.1 Z M 1163.4 497.0 " fill="#FEDF73"></path></g></g><g><clipPath id="clip-1771"><path d="M 1222.1 393.6 L 1370.9 393.6 L 1370.9 486.4 L 1222.1 486.4 Z M 1222.1 393.6 "></path></clipPath><g clip-path="url(#clip-1771)"><text xml:space="preserve" font-family="Roboto-Light" font-size="50.0" fill="#000000" transform="matrix(1.00, 0.00, -0.00, -1.00, 1256.0, 423.0)">g</text><text xml:space="preserve" font-family="Roboto-Light" font-size="50.0" fill="#000000" transform="matrix(1.00, 0.00, -0.00, -1.00, 1283.7, 423.0)">e</text><text xml:space="preserve" font-family="Roboto-Light" font-size="50.0" fill="#000000" transform="matrix(1.00, 0.00, -0.00, -1.00, 1309.5, 423.0)">l</text><text xml:space="preserve" font-family="Roboto-Light" font-size="50.0" fill="#000000" transform="matrix(1.00, 0.00, -0.00, -1.00, 1320.7, 423.0)">f</text></g></g><g><clipPath id="clip-1772"><path d="M 1018.0 401.8 L 1156.4 401.8 L 1156.4 478.2 L 1018.0 478.2 Z M 1018.0 401.8 "></path></clipPath><g clip-path="url(#clip-1772)"><path d="M 64.4 0.0 L 74.4 0.0 L 136.4 0.0 " fill="none" stroke="#000000" stroke-width="20.00" transform="matrix(1.00, 0.00, 0.00, -1.00, 1019.0, 440.0)"></path><path d="M 1093.4 477.2 L 1019.0 440.0 L 1093.4 402.8 Z M 1093.4 477.2 " fill="#000000"></path></g></g><text xml:space="preserve" font-family="Roboto-Light" font-size="40.0" fill="#000000" transform="matrix(1.00, 0.00, -0.00, -1.00, 278.0, 928.0)"></text><text xml:space="preserve" font-family="Roboto-Light" font-size="40.0" fill="#000000" transform="matrix(1.00, 0.00, -0.00, -1.00, 306.3, 928.0)"></text><text xml:space="preserve" font-family="Roboto-Light" font-size="40.0" fill="#000000" transform="matrix(1.00, 0.00, -0.00, -1.00, 328.8, 928.0)"></text><text xml:space="preserve" font-family="Roboto-Light" font-size="40.0" fill="#000000" transform="matrix(1.00, 0.00, -0.00, -1.00, 350.2, 928.0)"></text><text xml:space="preserve" font-family="Roboto-Light" font-size="40.0" fill="#000000" transform="matrix(1.00, 0.00, -0.00, -1.00, 372.7, 928.0)"></text><text xml:space="preserve" font-family="Roboto-Light" font-size="40.0" fill="#000000" transform="matrix(1.00, 0.00, -0.00, -1.00, 402.7, 928.0)"> </text><text xml:space="preserve" font-family="Roboto-Light" font-size="40.0" fill="#000000" transform="matrix(1.00, 0.00, -0.00, -1.00, 412.5, 928.0)"></text><text xml:space="preserve" font-family="Roboto-Light" font-size="40.0" fill="#000000" transform="matrix(1.00, 0.00, -0.00, -1.00, 434.9, 928.0)"></text><text xml:space="preserve" font-family="Roboto-Light" font-size="40.0" fill="#000000" transform="matrix(1.00, 0.00, -0.00, -1.00, 457.4, 928.0)"> </text><text xml:space="preserve" font-family="Roboto-Light" font-size="40.0" fill="#000000" transform="matrix(1.00, 0.00, -0.00, -1.00, 467.1, 928.0)"></text><text xml:space="preserve" font-family="Roboto-Light" font-size="40.0" fill="#000000" transform="matrix(1.00, 0.00, -0.00, -1.00, 489.3, 928.0)"></text><text xml:space="preserve" font-family="Roboto-Light" font-size="40.0" fill="#000000" transform="matrix(1.00, 0.00, -0.00, -1.00, 510.7, 928.0)"></text><text xml:space="preserve" font-family="Roboto-Light" font-size="40.0" fill="#000000" transform="matrix(1.00, 0.00, -0.00, -1.00, 531.3, 928.0)"></text><text xml:space="preserve" font-family="Roboto-Light" font-size="40.0" fill="#000000" transform="matrix(1.00, 0.00, -0.00, -1.00, 563.0, 928.0)"></text><text xml:space="preserve" font-family="Roboto-Light" font-size="40.0" fill="#000000" transform="matrix(1.00, 0.00, -0.00, -1.00, 585.5, 928.0)"></text><text xml:space="preserve" font-family="Roboto-Light" font-size="40.0" fill="#000000" transform="matrix(1.00, 0.00, -0.00, -1.00, 607.7, 928.0)"></text><text xml:space="preserve" font-family="Roboto-Light" font-size="40.0" fill="#000000" transform="matrix(1.00, 0.00, -0.00, -1.00, 628.3, 928.0)"></text><text xml:space="preserve" font-family="Roboto-Light" font-size="40.0" fill="#000000" transform="matrix(1.00, 0.00, -0.00, -1.00, 650.8, 928.0)"></text><text xml:space="preserve" font-family="Roboto-Light" font-size="40.0" fill="#000000" transform="matrix(1.00, 0.00, -0.00, -1.00, 673.3, 928.0)"></text><text xml:space="preserve" font-family="Roboto-Light" font-size="40.0" fill="#000000" transform="matrix(1.00, 0.00, -0.00, -1.00, 705.8, 928.0)"> </text><text xml:space="preserve" font-family="Roboto-Light" font-size="40.0" fill="#000000" transform="matrix(1.00, 0.00, -0.00, -1.00, 715.6, 928.0)"></text><text xml:space="preserve" font-family="Roboto-Light" font-size="40.0" fill="#000000" transform="matrix(1.00, 0.00, -0.00, -1.00, 737.6, 928.0)"></text><text xml:space="preserve" font-family="Roboto-Light" font-size="40.0" fill="#000000" transform="matrix(1.00, 0.00, -0.00, -1.00, 759.7, 928.0)"></text><text xml:space="preserve" font-family="Roboto-Light" font-size="40.0" fill="#000000" transform="matrix(1.00, 0.00, -0.00, -1.00, 782.2, 928.0)"></text><text xml:space="preserve" font-family="Roboto-Light" font-size="40.0" fill="#000000" transform="matrix(1.00, 0.00, -0.00, -1.00, 803.6, 928.0)"></text><text xml:space="preserve" font-family="Roboto-Light" font-size="40.0" fill="#000000" transform="matrix(1.00, 0.00, -0.00, -1.00, 835.4, 928.0)"></text><text xml:space="preserve" font-family="Roboto-Light" font-size="40.0" fill="#000000" transform="matrix(1.00, 0.00, -0.00, -1.00, 857.8, 928.0)"></text><text xml:space="preserve" font-family="Roboto-Light" font-size="60.0" fill="#000000" transform="matrix(1.00, 0.00, -0.00, -1.00, 956.0, 787.0)"></text><text xml:space="preserve" font-family="Roboto-Light" font-size="60.0" fill="#000000" transform="matrix(1.00, 0.00, -0.00, -1.00, 989.7, 787.0)"></text><text xml:space="preserve" font-family="Roboto-Light" font-size="60.0" fill="#000000" transform="matrix(1.00, 0.00, -0.00, -1.00, 1023.4, 787.0)"></text><text xml:space="preserve" font-family="Roboto-Light" font-size="60.0" fill="#000000" transform="matrix(1.00, 0.00, -0.00, -1.00, 1066.9, 787.0)"></text><text xml:space="preserve" font-family="Roboto-Light" font-size="60.0" fill="#000000" transform="matrix(1.00, 0.00, -0.00, -1.00, 1100.2, 787.0)"></text><text xml:space="preserve" font-family="Roboto-Light" font-size="60.0" fill="#000000" transform="matrix(1.00, 0.00, -0.00, -1.00, 1132.3, 787.0)"></text><text xml:space="preserve" font-family="Roboto-Light" font-size="60.0" fill="#000000" transform="matrix(1.00, 0.00, -0.00, -1.00, 1163.2, 787.0)"></text><text xml:space="preserve" font-family="Roboto-Light" font-size="60.0" fill="#000000" transform="matrix(1.00, 0.00, -0.00, -1.00, 1191.7, 787.0)"></text><text xml:space="preserve" font-family="Roboto-Light" font-size="60.0" fill="#000000" transform="matrix(1.00, 0.00, -0.00, -1.00, 1224.6, 787.0)"></text><text xml:space="preserve" font-family="Roboto-Light" font-size="60.0" fill="#000000" transform="matrix(1.00, 0.00, -0.00, -1.00, 1253.2, 787.0)"></text><text xml:space="preserve" font-family="Roboto-Light" font-size="60.0" fill="#000000" transform="matrix(1.00, 0.00, -0.00, -1.00, 1284.2, 787.0)"></text><text xml:space="preserve" font-family="Roboto-Light" font-size="60.0" fill="#000000" transform="matrix(1.00, 0.00, -0.00, -1.00, 1313.1, 787.0)"></text><text xml:space="preserve" font-family="Roboto-Light" font-size="60.0" fill="#000000" transform="matrix(1.00, 0.00, -0.00, -1.00, 1341.6, 787.0)"></text><text xml:space="preserve" font-family="Roboto-Light" font-size="60.0" fill="#000000" transform="matrix(1.00, 0.00, -0.00, -1.00, 1374.9, 787.0)"></text><text xml:space="preserve" font-family="Roboto-Light" font-size="60.0" fill="#000000" transform="matrix(1.00, 0.00, -0.00, -1.00, 1407.0, 787.0)"> </text><text xml:space="preserve" font-family="Roboto-Light" font-size="60.0" fill="#000000" transform="matrix(1.00, 0.00, -0.00, -1.00, 1421.6, 787.0)"></text><text xml:space="preserve" font-family="Roboto-Light" font-size="60.0" fill="#000000" transform="matrix(1.00, 0.00, -0.00, -1.00, 1455.3, 787.0)"></text><text xml:space="preserve" font-family="Roboto-Light" font-size="60.0" fill="#000000" transform="matrix(1.00, 0.00, -0.00, -1.00, 1488.9, 787.0)"></text><text xml:space="preserve" font-family="Roboto-Light" font-size="60.0" fill="#000000" transform="matrix(1.00, 0.00, -0.00, -1.00, 1519.3, 787.0)"></text><text xml:space="preserve" font-family="Roboto-Light" font-size="60.0" fill="#000000" transform="matrix(1.00, 0.00, -0.00, -1.00, 1552.8, 787.0)"></text><text xml:space="preserve" font-family="Roboto-Light" font-size="60.0" fill="#000000" transform="matrix(1.00, 0.00, -0.00, -1.00, 1586.0, 787.0)"></text><text xml:space="preserve" font-family="Roboto-Light" font-size="60.0" fill="#000000" transform="matrix(1.00, 0.00, -0.00, -1.00, 1619.8, 787.0)"></text><text xml:space="preserve" font-family="Roboto-Light" font-size="60.0" fill="#000000" transform="matrix(1.00, 0.00, -0.00, -1.00, 1652.3, 787.0)"></text><text xml:space="preserve" font-family="Roboto-Light" font-size="60.0" fill="#000000" transform="matrix(1.00, 0.00, -0.00, -1.00, 1683.0, 787.0)"></text></g></svg>