<?xml version="1.0" encoding="UTF-8" standalone="no"?><svg xmlns="http://www.w3.org/2000/svg" xmlns:xlink="http://www.w3.org/1999/xlink" clip-rule="evenodd" stroke-miterlimit="4.00" viewBox="0 0 156 170"><desc>SVG generated by Keynote</desc><defs></defs><g transform="matrix(1.00, 0.00, -0.00, -1.00, 0.0, 170.0)"><g><clipPath id="clip-722"><path d="M -1.9 -1.0 L 157.3 -1.0 L 157.3 47.0 L -1.9 47.0 Z M -1.9 -1.0 "></path></clipPath><g clip-path="url(#clip-722)"><text xml:space="preserve" font-family="Helvetica-Light" font-size="28.0" fill="#383E51" transform="matrix(1.00, 0.00, -0.00, -1.00, 23.0, 12.0)">С</text><text xml:space="preserve" font-family="Helvetica-Light" font-size="28.0" fill="#383E51" transform="matrix(1.00, 0.00, -0.00, -1.00, 42.7, 12.0)">и</text><text xml:space="preserve" font-family="Helvetica-Light" font-size="28.0" fill="#383E51" transform="matrix(1.00, 0.00, -0.00, -1.00, 57.9, 12.0)">л</text><text xml:space="preserve" font-family="Helvetica-Light" font-size="28.0" fill="#383E51" transform="matrix(1.00, 0.00, -0.00, -1.00, 73.8, 12.0)">ь</text><text xml:space="preserve" font-family="Helvetica-Light" font-size="28.0" fill="#383E51" transform="matrix(1.00, 0.00, -0.00, -1.00, 87.8, 12.0)">н</text><text xml:space="preserve" font-family="Helvetica-Light" font-size="28.0" fill="#383E51" transform="matrix(1.00, 0.00, -0.00, -1.00, 102.8, 12.0)">о</text><text xml:space="preserve" font-family="Helvetica-Light" font-size="28.0" fill="#383E51" transform="matrix(1.00, 0.00, -0.00, -1.00, 118.4, 12.0)">е</text></g></g><g><clipPath id="clip-723"><path d="M 16.2 41.6 L 144.2 41.6 L 144.2 169.6 L 16.2 169.6 Z M 16.2 41.6 "></path></clipPath><g clip-path="url(#clip-723)"><image xlink:href="../../63D7FFC8-C2C1-4797-A657-50AFBA060BB8/assets/342BF0D44941A8895A3AC45041D92E9C.png" width="128.00" height="128.00" transform="matrix(1.00, 0.00, -0.00, -1.00, 16.0, 170.0)"></image></g></g></g></svg>