<?xml version="1.0" encoding="UTF-8" standalone="no"?><svg xmlns="http://www.w3.org/2000/svg" xmlns:xlink="http://www.w3.org/1999/xlink" clip-rule="evenodd" stroke-miterlimit="4.00" viewBox="0 0 183 128"><desc>SVG generated by Keynote</desc><defs></defs><g transform="matrix(1.00, 0.00, -0.00, -1.00, 0.0, 128.0)"><g><clipPath id="clip-718"><path d="M 0.0 112.0 L 97.0 112.0 L 97.0 16.0 L 0.0 16.0 Z M 0.2 112.1 "></path></clipPath><g clip-path="url(#clip-718)"><g><clipPath id="clip-719"><path d="M 9.0 112.0 L 6.9 110.7 C 4.5 109.2 2.8 107.4 1.3 105.0 L 0.0 103.3 L 0.0 103.0 L 1.7 103.0 C 2.4 102.7 3.6 102.1 4.2 102.3 C 5.1 102.4 5.6 102.1 8.0 99.8 L 10.7 97.0 L 9.2 95.9 C 7.9 94.9 7.3 94.7 5.0 94.7 C 2.3 94.7 2.3 94.7 2.1 93.6 C 1.8 92.1 2.4 89.8 3.4 88.4 C 4.5 87.1 7.4 85.7 9.1 86.0 L 10.0 87.0 L 10.0 89.3 C 10.0 91.5 10.6 92.2 11.4 93.3 C 11.9 94.0 12.5 94.5 12.8 94.5 C 13.4 94.5 19.4 88.4 19.1 88.0 C 19.0 87.9 18.2 88.0 17.4 88.0 L 16.0 88.0 L 16.0 81.1 C 16.6 67.7 19.2 57.3 23.7 48.4 L 25.3 45.3 L 14.2 34.2 L 3.1 23.1 L 2.0 19.9 C 1.4 18.2 0.8 16.7 0.6 16.3 C 0.6 16.2 0.6 16.1 0.6 16.0 C 0.7 16.0 0.8 16.0 0.9 16.0 C 1.3 16.2 2.8 16.8 4.4 17.4 L 7.6 18.4 L 18.3 29.1 L 28.9 39.7 L 31.8 36.7 C 35.5 32.9 38.9 30.4 43.2 28.3 C 47.8 26.1 49.2 26.1 53.7 28.3 C 58.0 30.4 61.4 32.9 65.1 36.7 L 68.0 39.7 L 78.7 29.1 L 89.3 18.4 L 92.5 17.4 C 94.2 16.8 95.6 16.2 96.0 16.0 C 96.1 16.0 96.2 16.0 96.3 16.0 C 96.3 16.1 96.3 16.2 96.3 16.3 C 96.1 16.7 95.5 18.2 94.9 19.9 L 93.8 23.1 L 82.7 34.2 L 71.6 45.3 L 73.2 48.4 C 77.7 57.4 80.4 67.7 81.0 81.4 L 81.0 88.0 L 79.4 88.0 C 78.6 88.0 77.9 87.9 77.8 88.1 C 77.7 88.3 79.0 89.8 80.8 91.6 C 84.3 95.1 84.6 95.1 86.0 92.5 C 86.6 91.5 87.1 90.6 87.0 88.9 L 86.0 87.0 L 87.8 86.0 C 89.5 85.7 92.4 87.1 93.5 88.4 C 94.5 89.8 95.2 92.1 94.9 93.6 C 94.6 94.7 94.6 94.7 91.9 94.7 C 89.6 94.7 89.1 94.9 87.8 95.9 L 86.3 97.0 L 88.9 99.8 C 91.3 102.1 91.8 102.4 92.7 102.3 C 93.3 102.1 94.5 102.7 95.3 103.0 L 97.0 103.0 L 97.0 103.4 L 95.3 105.4 C 93.8 107.8 92.0 109.6 89.6 111.0 L 87.9 112.0 L 88.0 112.0 L 87.0 110.6 C 86.7 109.9 86.8 108.7 86.9 108.2 C 87.1 107.2 86.8 106.7 84.4 104.4 L 82.0 101.7 L 81.0 102.6 C 79.6 104.2 78.9 105.3 79.0 107.6 L 79.0 110.0 L 77.6 110.0 C 75.5 110.2 74.0 109.6 72.5 108.1 C 71.6 107.1 71.1 106.5 71.0 104.4 L 71.0 102.0 L 73.9 102.0 C 76.3 102.0 76.8 101.8 78.1 100.8 L 79.6 99.6 L 74.3 94.3 C 68.2 88.1 68.9 88.3 63.0 91.1 C 57.7 93.7 53.4 97.2 49.5 102.1 L 48.5 103.5 L 47.4 102.1 C 43.4 96.9 36.4 91.9 31.0 90.0 L 28.1 89.0 L 22.7 94.2 L 17.3 99.6 L 18.8 100.8 C 20.1 101.8 20.6 102.0 23.1 102.0 L 26.0 102.0 L 26.0 104.4 C 25.9 106.5 25.3 107.1 24.4 108.1 C 22.9 109.6 21.4 110.2 19.3 110.0 L 18.0 110.0 L 18.0 107.6 C 18.1 105.3 17.4 104.2 16.0 102.6 L 15.0 101.7 L 12.5 104.4 C 10.2 106.7 9.8 107.2 10.0 108.2 C 10.1 108.7 10.3 109.9 10.0 110.6 L 9.0 112.0 L 9.0 112.0 Z M 48.5 94.6 L 50.5 92.7 C 54.4 89.2 60.0 85.9 64.6 84.4 C 67.6 83.4 71.2 82.6 72.8 82.6 C 75.2 82.6 75.4 82.1 74.8 76.1 C 73.6 63.0 70.4 53.2 64.8 45.2 C 61.1 40.0 55.5 35.1 50.7 33.0 C 49.5 32.4 48.4 32.0 48.3 32.0 C 47.2 32.3 43.4 34.4 41.4 35.8 C 30.3 43.7 23.8 57.1 22.1 76.1 C 21.6 82.1 21.7 82.6 24.1 82.6 C 26.3 82.6 31.6 84.0 35.2 85.5 C 39.0 87.1 43.2 89.8 46.3 92.6 L 48.5 94.6 Z M 48.5 94.6 "></path></clipPath><g clip-path="url(#clip-719)"><g><clipPath id="clip-720"><path d="M 0.2 16.0 L 96.7 16.0 L 96.7 112.1 L 0.2 112.1 Z M 0.2 16.0 "></path></clipPath><g clip-path="url(#clip-720)"><image xlink:href="../../63D7FFC8-C2C1-4797-A657-50AFBA060BB8/assets/DD7F7FCD5A532E6314C749E9C98A253A.png" width="97.00" height="97.00" transform="matrix(1.00, 0.00, -0.00, -0.99, 0.0, 112.0)"></image></g></g></g></g></g></g><g><clipPath id="clip-721"><path d="M 89.1 -23.8 L 206.6 -23.8 L 206.6 151.8 L 89.1 151.8 Z M 89.1 -23.8 "></path></clipPath><g clip-path="url(#clip-721)"><text xml:space="preserve" font-family="Roboto-Black" font-weight="bold" font-size="100.0" fill="#000000" transform="matrix(1.00, 0.00, -0.00, -1.00, 119.0, 30.0)">8</text></g></g></g></svg>