<?xml version="1.0" encoding="UTF-8" standalone="no"?><svg xmlns="http://www.w3.org/2000/svg" xmlns:xlink="http://www.w3.org/1999/xlink" clip-rule="evenodd" stroke-miterlimit="4.00" viewBox="0 0 184 170"><desc>SVG generated by Keynote</desc><defs></defs><g transform="matrix(1.00, 0.00, -0.00, -1.00, 0.0, 170.0)"><g><clipPath id="clip-726"><path d="M 27.9 41.2 L 155.9 41.2 L 155.9 169.2 L 27.9 169.2 Z M 27.9 41.2 "></path></clipPath><g clip-path="url(#clip-726)"><image xlink:href="../../63D7FFC8-C2C1-4797-A657-50AFBA060BB8/assets/438BF8EC13C23FF9BBCCD6C2CFCEF06E.png" width="128.00" height="128.00" transform="matrix(1.00, 0.00, -0.00, -1.00, 28.0, 169.0)"></image></g></g><g><clipPath id="clip-727"><path d="M -1.6 -1.4 L 185.5 -1.4 L 185.5 46.6 L -1.6 46.6 Z M -1.6 -1.4 "></path></clipPath><g clip-path="url(#clip-727)"><text xml:space="preserve" font-family="Helvetica-Light" font-size="28.0" fill="#383E51" transform="matrix(1.00, 0.00, -0.00, -1.00, 16.0, 12.0)">П</text><text xml:space="preserve" font-family="Helvetica-Light" font-size="28.0" fill="#383E51" transform="matrix(1.00, 0.00, -0.00, -1.00, 35.4, 12.0)">р</text><text xml:space="preserve" font-family="Helvetica-Light" font-size="28.0" fill="#383E51" transform="matrix(1.00, 0.00, -0.00, -1.00, 51.5, 12.0)">ы</text><text xml:space="preserve" font-family="Helvetica-Light" font-size="28.0" fill="#383E51" transform="matrix(1.00, 0.00, -0.00, -1.00, 70.3, 12.0)">г</text><text xml:space="preserve" font-family="Helvetica-Light" font-size="28.0" fill="#383E51" transform="matrix(1.00, 0.00, -0.00, -1.00, 81.5, 12.0)">а</text><text xml:space="preserve" font-family="Helvetica-Light" font-size="28.0" fill="#383E51" transform="matrix(1.00, 0.00, -0.00, -1.00, 96.0, 12.0)">ю</text><text xml:space="preserve" font-family="Helvetica-Light" font-size="28.0" fill="#383E51" transform="matrix(1.00, 0.00, -0.00, -1.00, 116.9, 12.0)">щ</text><text xml:space="preserve" font-family="Helvetica-Light" font-size="28.0" fill="#383E51" transform="matrix(1.00, 0.00, -0.00, -1.00, 139.5, 12.0)">е</text><text xml:space="preserve" font-family="Helvetica-Light" font-size="28.0" fill="#383E51" transform="matrix(1.00, 0.00, -0.00, -1.00, 154.0, 12.0)">е</text></g></g></g></svg>