<?xml version="1.0" encoding="UTF-8" standalone="no"?><svg xmlns="http://www.w3.org/2000/svg" xmlns:xlink="http://www.w3.org/1999/xlink" clip-rule="evenodd" stroke-miterlimit="4.00" viewBox="0 0 1277 50"><desc>SVG generated by Keynote</desc><defs></defs><g transform="matrix(1.00, 0.00, -0.00, -1.00, 0.0, 50.0)"><text xml:space="preserve" font-family="Roboto" font-weight="300" font-size="50.0" fill="#383E51" transform="matrix(1.00, 0.00, -0.00, -1.00, 1.0, 13.0)">+</text><text xml:space="preserve" font-family="Roboto" font-weight="300" font-size="50.0" fill="#383E51" transform="matrix(1.00, 0.00, -0.00, -1.00, 29.3, 13.0)">1</text><text xml:space="preserve" font-family="Roboto" font-weight="300" font-size="50.0" fill="#383E51" transform="matrix(1.00, 0.00, -0.00, -1.00, 57.4, 13.0)"> </text><text xml:space="preserve" font-family="Roboto" font-weight="300" font-size="50.0" fill="#383E51" transform="matrix(1.00, 0.00, -0.00, -1.00, 69.7, 13.0)">к</text><text xml:space="preserve" font-family="Roboto" font-weight="300" font-size="50.0" fill="#383E51" transform="matrix(1.00, 0.00, -0.00, -1.00, 96.8, 13.0)"> </text><text xml:space="preserve" font-family="Roboto" font-weight="300" font-size="50.0" fill="#383E51" transform="matrix(1.00, 0.00, -0.00, -1.00, 109.1, 13.0)">а</text><text xml:space="preserve" font-family="Roboto" font-weight="300" font-size="50.0" fill="#383E51" transform="matrix(1.00, 0.00, -0.00, -1.00, 135.9, 13.0)">т</text><text xml:space="preserve" font-family="Roboto" font-weight="300" font-size="50.0" fill="#383E51" transform="matrix(1.00, 0.00, -0.00, -1.00, 159.6, 13.0)">а</text><text xml:space="preserve" font-family="Roboto" font-weight="300" font-size="50.0" fill="#383E51" transform="matrix(1.00, 0.00, -0.00, -1.00, 186.8, 13.0)">к</text><text xml:space="preserve" font-family="Roboto" font-weight="300" font-size="50.0" fill="#383E51" transform="matrix(1.00, 0.00, -0.00, -1.00, 213.4, 13.0)">е</text><text xml:space="preserve" font-family="Roboto" font-weight="300" font-size="50.0" fill="#383E51" transform="matrix(1.00, 0.00, -0.00, -1.00, 239.9, 13.0)"> </text><text xml:space="preserve" font-family="Roboto" font-weight="300" font-size="50.0" fill="#383E51" transform="matrix(1.00, 0.00, -0.00, -1.00, 252.2, 13.0)">п</text><text xml:space="preserve" font-family="Roboto" font-weight="300" font-size="50.0" fill="#383E51" transform="matrix(1.00, 0.00, -0.00, -1.00, 281.1, 13.0)">р</text><text xml:space="preserve" font-family="Roboto" font-weight="300" font-size="50.0" fill="#383E51" transform="matrix(1.00, 0.00, -0.00, -1.00, 309.1, 13.0)">о</text><text xml:space="preserve" font-family="Roboto" font-weight="300" font-size="50.0" fill="#383E51" transform="matrix(1.00, 0.00, -0.00, -1.00, 337.1, 13.0)">т</text><text xml:space="preserve" font-family="Roboto" font-weight="300" font-size="50.0" fill="#383E51" transform="matrix(1.00, 0.00, -0.00, -1.00, 361.2, 13.0)">и</text><text xml:space="preserve" font-family="Roboto" font-weight="300" font-size="50.0" fill="#383E51" transform="matrix(1.00, 0.00, -0.00, -1.00, 390.0, 13.0)">в</text><text xml:space="preserve" font-family="Roboto" font-weight="300" font-size="50.0" fill="#383E51" transform="matrix(1.00, 0.00, -0.00, -1.00, 418.6, 13.0)">н</text><text xml:space="preserve" font-family="Roboto" font-weight="300" font-size="50.0" fill="#383E51" transform="matrix(1.00, 0.00, -0.00, -1.00, 447.4, 13.0)">и</text><text xml:space="preserve" font-family="Roboto" font-weight="300" font-size="50.0" fill="#383E51" transform="matrix(1.00, 0.00, -0.00, -1.00, 476.3, 13.0)">к</text><text xml:space="preserve" font-family="Roboto" font-weight="300" font-size="50.0" fill="#383E51" transform="matrix(1.00, 0.00, -0.00, -1.00, 503.3, 13.0)">а</text><text xml:space="preserve" font-family="Roboto" font-weight="300" font-size="50.0" fill="#383E51" transform="matrix(1.00, 0.00, -0.00, -1.00, 530.5, 13.0)">,</text><text xml:space="preserve" font-family="Roboto" font-weight="300" font-size="50.0" fill="#383E51" transform="matrix(1.00, 0.00, -0.00, -1.00, 540.3, 13.0)"> </text><text xml:space="preserve" font-family="Roboto" font-weight="300" font-size="50.0" fill="#383E51" transform="matrix(1.00, 0.00, -0.00, -1.00, 552.7, 13.0)">е</text><text xml:space="preserve" font-family="Roboto" font-weight="300" font-size="50.0" fill="#383E51" transform="matrix(1.00, 0.00, -0.00, -1.00, 579.2, 13.0)">с</text><text xml:space="preserve" font-family="Roboto" font-weight="300" font-size="50.0" fill="#383E51" transform="matrix(1.00, 0.00, -0.00, -1.00, 605.3, 13.0)">л</text><text xml:space="preserve" font-family="Roboto" font-weight="300" font-size="50.0" fill="#383E51" transform="matrix(1.00, 0.00, -0.00, -1.00, 634.3, 13.0)">и</text><text xml:space="preserve" font-family="Roboto" font-weight="300" font-size="50.0" fill="#383E51" transform="matrix(1.00, 0.00, -0.00, -1.00, 663.1, 13.0)"> </text><text xml:space="preserve" font-family="Roboto" font-weight="300" font-size="50.0" fill="#383E51" transform="matrix(1.00, 0.00, -0.00, -1.00, 675.5, 13.0)">с</text><text xml:space="preserve" font-family="Roboto" font-weight="300" font-size="50.0" fill="#383E51" transform="matrix(1.00, 0.00, -0.00, -1.00, 701.7, 13.0)">у</text><text xml:space="preserve" font-family="Roboto" font-weight="300" font-size="50.0" fill="#383E51" transform="matrix(1.00, 0.00, -0.00, -1.00, 725.3, 13.0)">щ</text><text xml:space="preserve" font-family="Roboto" font-weight="300" font-size="50.0" fill="#383E51" transform="matrix(1.00, 0.00, -0.00, -1.00, 767.0, 13.0)">е</text><text xml:space="preserve" font-family="Roboto" font-weight="300" font-size="50.0" fill="#383E51" transform="matrix(1.00, 0.00, -0.00, -1.00, 793.5, 13.0)">с</text><text xml:space="preserve" font-family="Roboto" font-weight="300" font-size="50.0" fill="#383E51" transform="matrix(1.00, 0.00, -0.00, -1.00, 819.7, 13.0)">т</text><text xml:space="preserve" font-family="Roboto" font-weight="300" font-size="50.0" fill="#383E51" transform="matrix(1.00, 0.00, -0.00, -1.00, 843.7, 13.0)">в</text><text xml:space="preserve" font-family="Roboto" font-weight="300" font-size="50.0" fill="#383E51" transform="matrix(1.00, 0.00, -0.00, -1.00, 872.3, 13.0)">о</text><text xml:space="preserve" font-family="Roboto" font-weight="300" font-size="50.0" fill="#383E51" transform="matrix(1.00, 0.00, -0.00, -1.00, 900.8, 13.0)"> </text><text xml:space="preserve" font-family="Roboto" font-weight="300" font-size="50.0" fill="#383E51" transform="matrix(1.00, 0.00, -0.00, -1.00, 913.2, 13.0)">х</text><text xml:space="preserve" font-family="Roboto" font-weight="300" font-size="50.0" fill="#383E51" transform="matrix(1.00, 0.00, -0.00, -1.00, 937.9, 13.0)">л</text><text xml:space="preserve" font-family="Roboto" font-weight="300" font-size="50.0" fill="#383E51" transform="matrix(1.00, 0.00, -0.00, -1.00, 966.8, 13.0)">а</text><text xml:space="preserve" font-family="Roboto" font-weight="300" font-size="50.0" fill="#383E51" transform="matrix(1.00, 0.00, -0.00, -1.00, 994.0, 13.0)">д</text><text xml:space="preserve" font-family="Roboto" font-weight="300" font-size="50.0" fill="#383E51" transform="matrix(1.00, 0.00, -0.00, -1.00, 1024.2, 13.0)">н</text><text xml:space="preserve" font-family="Roboto" font-weight="300" font-size="50.0" fill="#383E51" transform="matrix(1.00, 0.00, -0.00, -1.00, 1053.0, 13.0)">о</text><text xml:space="preserve" font-family="Roboto" font-weight="300" font-size="50.0" fill="#383E51" transform="matrix(1.00, 0.00, -0.00, -1.00, 1081.5, 13.0)">к</text><text xml:space="preserve" font-family="Roboto" font-weight="300" font-size="50.0" fill="#383E51" transform="matrix(1.00, 0.00, -0.00, -1.00, 1108.5, 13.0)">р</text><text xml:space="preserve" font-family="Roboto" font-weight="300" font-size="50.0" fill="#383E51" transform="matrix(1.00, 0.00, -0.00, -1.00, 1136.6, 13.0)">о</text><text xml:space="preserve" font-family="Roboto" font-weight="300" font-size="50.0" fill="#383E51" transform="matrix(1.00, 0.00, -0.00, -1.00, 1165.1, 13.0)">в</text><text xml:space="preserve" font-family="Roboto" font-weight="300" font-size="50.0" fill="#383E51" transform="matrix(1.00, 0.00, -0.00, -1.00, 1193.7, 13.0)">н</text><text xml:space="preserve" font-family="Roboto" font-weight="300" font-size="50.0" fill="#383E51" transform="matrix(1.00, 0.00, -0.00, -1.00, 1222.5, 13.0)">о</text><text xml:space="preserve" font-family="Roboto" font-weight="300" font-size="50.0" fill="#383E51" transform="matrix(1.00, 0.00, -0.00, -1.00, 1251.1, 13.0)">е</text></g></svg>