<?xml version="1.0" encoding="UTF-8" standalone="no"?><svg xmlns="http://www.w3.org/2000/svg" xmlns:xlink="http://www.w3.org/1999/xlink" clip-rule="evenodd" stroke-miterlimit="4.00" viewBox="0 0 1920 1080"><desc>SVG generated by Keynote</desc><defs></defs><g transform="matrix(1.00, 0.00, -0.00, -1.00, 0.0, 1080.0)"><path d="M 0.0 1080.0 L 1920.0 1080.0 L 1920.0 0.0 L 0.0 0.0 Z M 0.0 1080.0 " fill="#FECF60"></path><path d="M 1359.5 731.4 L 1659.1 731.4 L 1659.1 613.7 L 1359.5 613.7 Z M 1359.5 731.4 " fill="#FEDF73"></path><path d="M 918.7 854.1 L 1720.9 854.1 L 1720.9 700.8 L 918.7 700.8 Z M 918.7 854.1 " fill="#FEDF73"></path><g><clipPath id="clip-2353"><path d="M 175.0 85.0 L 663.0 85.0 L 663.0 669.0 L 175.0 669.0 Z M 175.0 85.0 "></path></clipPath><g clip-path="url(#clip-2353)"><path d="M 0.0 0.0 L 30.7 0.0 L 30.7 5.9 L 0.0 5.9 L 0.0 0.0 Z M 0.0 0.0 " fill="none" stroke="#575E61" stroke-width="3.00" stroke-miterlimit="0.00" transform="matrix(1.97, 0.00, 0.00, -1.97, 461.5, 245.0)"></path><path d="M 0.0 0.0 L 30.7 0.0 L 30.7 5.9 L 0.0 5.9 L 0.0 0.0 Z M 0.0 0.0 " fill="none" stroke="#575E61" stroke-width="3.00" stroke-miterlimit="0.00" transform="matrix(1.97, 0.00, 0.00, -1.97, 477.5, 99.2)"></path><path d="M 36.5 30.6 L 36.5 0.0 L 0.0 0.0 L 0.0 36.5 L 11.0 36.5 " fill="none" stroke="#575E61" stroke-width="3.00" stroke-miterlimit="0.00" transform="matrix(1.97, 0.00, 0.00, -1.97, 455.7, 159.7)"></path><path d="M 0.0 0.0 L 30.7 0.0 L 30.7 5.9 L 0.0 5.9 L 0.0 0.0 Z M 0.0 0.0 " fill="none" stroke="#575E61" stroke-width="3.00" stroke-miterlimit="0.00" transform="matrix(1.97, 0.00, 0.00, -1.97, 461.4, 171.2)"></path><path d="M 0.0 31.5 L 0.0 0.0 " fill="none" stroke="#575E61" stroke-width="3.00" stroke-miterlimit="0.00" transform="matrix(1.97, 0.00, 0.00, -1.97, 516.7, 233.5)"></path><path d="M 0.0 31.5 L 0.0 0.0 " fill="none" stroke="#575E61" stroke-width="3.00" stroke-miterlimit="0.00" transform="matrix(1.97, 0.00, 0.00, -1.97, 466.7, 233.5)"></path><path d="M 25.5 0.0 L 0.0 0.0 " fill="none" stroke="#575E61" stroke-width="1.00" stroke-miterlimit="0.00" transform="matrix(1.97, 0.00, 0.00, -1.97, 466.6, 183.8)"></path><path d="M 25.5 0.0 L 0.0 0.0 " fill="none" stroke="#575E61" stroke-width="1.00" stroke-miterlimit="0.00" transform="matrix(1.97, 0.00, 0.00, -1.97, 466.6, 196.3)"></path><path d="M 25.4 0.0 L 0.0 0.0 " fill="none" stroke="#575E61" stroke-width="3.00" stroke-miterlimit="0.00" transform="matrix(1.97, 0.00, 0.00, -1.97, 466.7, 208.8)"></path><path d="M 25.5 0.0 L 0.0 0.0 " fill="none" stroke="#575E61" stroke-width="1.00" stroke-miterlimit="0.00" transform="matrix(1.97, 0.00, 0.00, -1.97, 466.6, 221.3)"></path><path d="M 5.2 5.2 L 0.0 0.0 " fill="none" stroke="#575E61" stroke-width="3.00" stroke-miterlimit="0.00" transform="matrix(1.97, 0.00, 0.00, -1.97, 527.6, 109.6)"></path><path d="M 0.0 0.0 L 30.7 0.0 L 30.7 5.9 L 0.0 5.9 L 0.0 0.0 Z M 0.0 0.0 " fill="none" stroke="#575E61" stroke-width="3.00" stroke-miterlimit="0.00" transform="matrix(1.97, 0.00, 0.00, -1.97, 316.4, 245.0)"></path><path d="M 0.0 0.0 L 30.7 0.0 L 30.7 5.9 L 0.0 5.9 L 0.0 0.0 Z M 0.0 0.0 " fill="none" stroke="#575E61" stroke-width="3.00" stroke-miterlimit="0.00" transform="matrix(1.97, 0.00, 0.00, -1.97, 300.5, 99.2)"></path><path d="M 0.0 30.6 L 0.0 0.0 L 36.5 0.0 L 36.5 36.5 L 25.5 36.5 " fill="none" stroke="#575E61" stroke-width="3.00" stroke-miterlimit="0.00" transform="matrix(1.97, 0.00, 0.00, -1.97, 310.8, 159.7)"></path><path d="M 0.0 0.0 L 30.7 0.0 L 30.7 5.9 L 0.0 5.9 L 0.0 0.0 Z M 0.0 0.0 " fill="none" stroke="#575E61" stroke-width="3.00" stroke-miterlimit="0.00" transform="matrix(1.97, 0.00, 0.00, -1.97, 316.5, 171.2)"></path><path d="M 0.0 31.5 L 0.0 0.0 " fill="none" stroke="#575E61" stroke-width="3.00" stroke-miterlimit="0.00" transform="matrix(1.97, 0.00, 0.00, -1.97, 321.6, 233.5)"></path><path d="M 0.0 31.5 L 0.0 0.0 " fill="none" stroke="#575E61" stroke-width="3.00" stroke-miterlimit="0.00" transform="matrix(1.97, 0.00, 0.00, -1.97, 371.6, 233.5)"></path><path d="M 0.0 0.0 L 25.5 0.0 " fill="none" stroke="#575E61" stroke-width="1.00" stroke-miterlimit="0.00" transform="matrix(1.97, 0.00, 0.00, -1.97, 321.6, 183.8)"></path><path d="M 0.0 0.0 L 25.5 0.0 " fill="none" stroke="#575E61" stroke-width="1.00" stroke-miterlimit="0.00" transform="matrix(1.97, 0.00, 0.00, -1.97, 321.6, 196.3)"></path><path d="M 0.0 0.0 L 25.4 0.0 " fill="none" stroke="#575E61" stroke-width="3.00" stroke-miterlimit="0.00" transform="matrix(1.97, 0.00, 0.00, -1.97, 321.6, 208.8)"></path><path d="M 0.0 0.0 L 25.5 0.0 " fill="none" stroke="#575E61" stroke-width="1.00" stroke-miterlimit="0.00" transform="matrix(1.97, 0.00, 0.00, -1.97, 321.6, 221.3)"></path><path d="M 0.0 5.2 L 5.2 0.0 " fill="none" stroke="#575E61" stroke-width="3.00" stroke-miterlimit="0.00" transform="matrix(1.97, 0.00, 0.00, -1.97, 300.5, 109.6)"></path><path d="M 120.6 0.0 L 120.6 70.8 L 0.0 70.8 L 0.0 57.9 " fill="none" stroke="#575E61" stroke-width="3.00" stroke-miterlimit="0.00" transform="matrix(1.97, 0.00, 0.00, -1.97, 300.5, 384.8)"></path><path d="M 0.0 30.9 L 0.0 0.0 " fill="none" stroke="#575E61" stroke-width="3.00" stroke-miterlimit="0.00" transform="matrix(1.97, 0.00, 0.00, -1.97, 300.5, 384.8)"></path><path d="M 32.9 0.0 C 37.0 4.5 39.5 10.4 39.5 16.9 C 39.5 30.7 28.2 42.0 14.4 42.0 C 9.0 42.0 4.1 40.3 0.0 37.5 " fill="none" stroke="#575E61" stroke-width="1.00" stroke-miterlimit="0.00" transform="matrix(1.97, 0.00, 0.00, -1.97, 390.9, 384.8)"></path><path d="M 0.0 11.6 C 0.9 7.2 3.1 3.2 6.0 0.0 " fill="none" stroke="#575E61" stroke-width="1.00" stroke-miterlimit="0.00" transform="matrix(1.97, 0.00, 0.00, -1.97, 370.9, 384.8)"></path><path d="M 35.9 0.0 C 39.3 4.8 41.3 10.6 41.3 16.9 C 41.3 33.0 28.3 46.0 12.2 46.0 C 7.8 46.0 3.7 45.0 0.0 43.3 " fill="none" stroke="#575E61" stroke-width="3.00" stroke-miterlimit="0.00" transform="matrix(1.97, 0.00, 0.00, -1.97, 395.2, 384.8)"></path><path d="M 0.0 13.2 C 0.6 8.3 2.4 3.8 5.2 0.0 " fill="none" stroke="#575E61" stroke-width="3.00" stroke-miterlimit="0.00" transform="matrix(1.97, 0.00, 0.00, -1.97, 362.4, 384.8)"></path><path d="M 35.7 71.4 C 55.4 71.4 71.4 55.4 71.4 35.7 C 71.4 16.0 55.4 0.0 35.7 0.0 C 16.0 0.0 0.0 16.0 0.0 35.7 C 0.0 55.4 16.0 71.4 35.7 71.4 Z M 35.7 71.4 " fill="none" stroke="#575E61" stroke-width="3.00" stroke-miterlimit="0.00" transform="matrix(1.97, 0.00, 0.00, -1.97, 427.2, 666.0)"></path><path d="M 29.9 59.7 C 13.4 59.7 0.0 46.3 0.0 29.9 C 0.0 13.4 13.4 0.0 29.9 0.0 C 46.3 0.0 59.7 13.4 59.7 29.9 C 59.7 46.3 46.3 59.7 29.9 59.7 L 29.9 59.7 Z M 29.9 59.7 " fill="none" stroke="#575E61" stroke-width="2.00" stroke-miterlimit="0.00" transform="matrix(1.97, 0.00, 0.00, -1.97, 438.6, 654.6)"></path><path d="M 24.6 49.3 C 11.1 49.3 0.0 38.2 0.0 24.6 C 0.0 11.1 11.1 0.0 24.6 0.0 C 38.2 0.0 49.3 11.1 49.3 24.6 C 49.3 38.2 38.2 49.3 24.6 49.3 L 24.6 49.3 Z M 24.6 49.3 " fill="none" stroke="#575E61" stroke-width="6.00" stroke-miterlimit="0.00" transform="matrix(1.97, 0.00, 0.00, -1.97, 448.9, 644.2)"></path><path d="M 20.6 41.3 C 9.3 41.3 0.0 32.0 0.0 20.6 C 0.0 9.3 9.3 0.0 20.6 0.0 C 32.0 0.0 41.3 9.3 41.3 20.6 C 41.3 32.0 32.0 41.3 20.6 41.3 L 20.6 41.3 Z M 20.6 41.3 " fill="none" stroke="#575E61" stroke-width="1.00" stroke-miterlimit="0.00" stroke-dasharray="2.0, 2.0" transform="matrix(1.97, 0.00, 0.00, -1.97, 456.8, 636.3)"></path><path d="M 25.0 50.0 C 38.8 50.0 50.0 38.8 50.0 25.0 C 50.0 11.2 38.8 0.0 25.0 0.0 C 11.2 0.0 0.0 11.2 0.0 25.0 C 0.0 38.8 11.2 50.0 25.0 50.0 Z M 25.0 50.0 " fill="none" stroke="#575E61" stroke-width="3.00" stroke-miterlimit="0.00" transform="matrix(1.97, 0.00, 0.00, -1.97, 270.7, 623.8)"></path><path d="M 19.2 38.3 C 8.6 38.3 0.0 29.7 0.0 19.2 C 0.0 8.6 8.6 0.0 19.2 0.0 C 29.7 0.0 38.3 8.6 38.3 19.2 C 38.3 29.7 29.7 38.3 19.2 38.3 L 19.2 38.3 Z M 19.2 38.3 " fill="none" stroke="#575E61" stroke-width="2.00" stroke-miterlimit="0.00" transform="matrix(1.97, 0.00, 0.00, -1.97, 282.1, 612.3)"></path><path d="M 13.9 27.9 C 6.2 27.9 0.0 21.6 0.0 13.9 C 0.0 6.2 6.2 0.0 13.9 0.0 C 21.6 0.0 27.9 6.2 27.9 13.9 C 27.9 21.6 21.6 27.9 13.9 27.9 L 13.9 27.9 Z M 13.9 27.9 " fill="none" stroke="#575E61" stroke-width="6.00" stroke-miterlimit="0.00" transform="matrix(1.97, 0.00, 0.00, -1.97, 292.5, 602.0)"></path><path d="M 9.9 19.9 C 4.5 19.9 0.0 15.4 0.0 9.9 C 0.0 4.5 4.5 0.0 9.9 0.0 C 15.4 0.0 19.9 4.5 19.9 9.9 C 19.9 15.4 15.4 19.9 9.9 19.9 L 9.9 19.9 Z M 9.9 19.9 " fill="none" stroke="#575E61" stroke-width="1.00" stroke-miterlimit="0.00" stroke-dasharray="1.9, 1.9" transform="matrix(1.97, 0.00, 0.00, -1.97, 300.3, 594.1)"></path><path d="M 150.9 0.0 L 150.9 51.2 L 0.0 51.2 L 0.0 10.7 " fill="none" stroke="#575E61" stroke-width="3.00" stroke-miterlimit="0.00" transform="matrix(1.97, 0.00, 0.00, -1.97, 270.7, 595.6)"></path><path d="M 35.7 0.0 L 20.6 18.6 L 0.0 18.6 " fill="none" stroke="#575E61" stroke-width="3.00" stroke-miterlimit="0.00" transform="matrix(1.97, 0.00, 0.00, -1.97, 497.4, 494.6)"></path><path d="M 50.0 18.6 L 15.1 18.6 L 0.0 0.0 " fill="none" stroke="#575E61" stroke-width="3.00" stroke-miterlimit="0.00" transform="matrix(1.97, 0.00, 0.00, -1.97, 270.7, 494.6)"></path><path d="M 0.0 5.4 L 38.9 0.0 " fill="none" stroke="#575E61" stroke-width="3.00" stroke-miterlimit="0.00" transform="matrix(1.97, 0.00, 0.00, -1.97, 354.8, 619.7)"></path><path d="M 9.1 0.0 L 0.0 0.0 L 0.0 30.4 L 9.1 30.4 " fill="none" stroke="#575E61" stroke-width="3.00" stroke-miterlimit="0.00" transform="matrix(1.97, 0.00, 0.00, -1.97, 252.8, 574.5)"></path><path d="M 0.0 30.4 L 9.1 30.4 L 9.1 0.0 L 0.0 0.0 " fill="none" stroke="#575E61" stroke-width="3.00" stroke-miterlimit="0.00" transform="matrix(1.97, 0.00, 0.00, -1.97, 567.6, 574.5)"></path><path d="M 0.0 0.0 L 27.5 0.0 " fill="none" stroke="#575E61" stroke-width="3.00" stroke-miterlimit="0.00" transform="matrix(1.97, 0.00, 0.00, -1.97, 585.6, 544.5)"></path><path d="M 5.2 10.5 C 8.1 10.5 10.5 8.1 10.5 5.2 C 10.5 2.3 8.1 0.0 5.2 0.0 C 2.3 0.0 0.0 2.3 0.0 5.2 C 0.0 8.1 2.3 10.5 5.2 10.5 Z M 5.2 10.5 " fill="none" stroke="#575E61" stroke-width="3.00" stroke-miterlimit="0.00" transform="matrix(1.97, 0.00, 0.00, -1.97, 639.8, 554.8)"></path><path d="M 27.5 0.0 L 0.0 0.0 " fill="none" stroke="#575E61" stroke-width="3.00" stroke-miterlimit="0.00" transform="matrix(1.97, 0.00, 0.00, -1.97, 198.6, 544.5)"></path><path d="M 5.2 10.5 C 8.1 10.5 10.5 8.1 10.5 5.2 C 10.5 2.3 8.1 0.0 5.2 0.0 C 2.3 0.0 0.0 2.3 0.0 5.2 C 0.0 8.1 2.3 10.5 5.2 10.5 Z M 5.2 10.5 " fill="none" stroke="#575E61" stroke-width="3.00" stroke-miterlimit="0.00" transform="matrix(1.97, 0.00, 0.00, -1.97, 178.0, 554.8)"></path><path d="M 11.7 0.0 L 0.0 0.0 " fill="none" stroke="#575E61" stroke-width="3.00" stroke-miterlimit="0.00" transform="matrix(1.97, 0.00, 0.00, -1.97, 460.9, 457.8)"></path><path d="M 5.8 0.0 L 0.0 0.0 " fill="none" stroke="#575E61" stroke-width="3.00" stroke-miterlimit="0.00" transform="matrix(1.97, 0.00, 0.00, -1.97, 435.2, 457.8)"></path><path d="M 0.0 3.2 L 34.5 0.0 " fill="none" stroke="#575E61" stroke-width="1.00" stroke-miterlimit="0.00" transform="matrix(1.97, 0.00, 0.00, -1.97, 360.5, 608.5)"></path><path d="M 0.0 0.0 L 145.5 6.7 " fill="none" stroke="#575E61" stroke-width="1.00" stroke-miterlimit="0.00" transform="matrix(1.97, 0.00, 0.00, -1.97, 270.7, 494.6)"></path><path d="M 0.0 0.0 L 164.8 0.0 " fill="none" stroke="#575E61" stroke-width="3.00" stroke-miterlimit="0.00" transform="matrix(1.97, 0.00, 0.00, -1.97, 257.0, 384.8)"></path><path d="M 0.0 37.0 C 6.4 24.4 13.8 12.0 22.1 0.0 " fill="none" stroke="#575E61" stroke-width="3.00" stroke-miterlimit="0.00" transform="matrix(1.97, 0.00, 0.00, -1.97, 257.0, 457.8)"></path><path d="M 22.1 37.0 C 15.7 24.4 8.3 12.0 0.0 0.0 " fill="none" stroke="#575E61" stroke-width="3.00" stroke-miterlimit="0.00" transform="matrix(1.97, 0.00, 0.00, -1.97, 537.9, 457.8)"></path></g></g><g><clipPath id="clip-2354"><path d="M 417.5 419.1 L 519.6 419.1 L 519.6 350.4 L 417.5 350.4 L 417.5 419.1 Z M 417.5 419.1 "></path></clipPath><g clip-path="url(#clip-2354)"><g><clipPath id="clip-2355"><path d="M 175.0 85.0 L 663.0 85.0 L 663.0 669.0 L 175.0 669.0 Z M 175.0 85.0 "></path></clipPath><g clip-path="url(#clip-2355)"><path d="M 407.6 428.9 L 529.4 428.9 L 529.4 340.6 L 407.6 340.6 Z M 407.6 428.9 " fill="#FFFFFF"></path></g></g></g></g><g><clipPath id="clip-2356"><path d="M 417.5 419.1 L 519.6 419.1 L 519.6 389.3 L 417.5 389.3 L 417.5 419.1 Z M 417.5 419.1 "></path></clipPath><g clip-path="url(#clip-2356)"><g><clipPath id="clip-2357"><path d="M 175.0 85.0 L 663.0 85.0 L 663.0 669.0 L 175.0 669.0 Z M 175.0 85.0 "></path></clipPath><g clip-path="url(#clip-2357)"><path d="M 407.6 428.9 L 529.4 428.9 L 529.4 379.4 L 407.6 379.4 Z M 407.6 428.9 " fill="#E94458"></path></g></g></g></g><g><clipPath id="clip-2358"><path d="M 175.0 85.0 L 663.0 85.0 L 663.0 669.0 L 175.0 669.0 Z M 175.0 85.0 "></path></clipPath><g clip-path="url(#clip-2358)"><path d="M 0.0 0.0 L 51.9 0.0 L 51.9 34.8 L 0.0 34.8 L 0.0 0.0 Z M 0.0 0.0 " fill="none" stroke="#575E61" stroke-width="3.00" stroke-miterlimit="0.00" transform="matrix(1.97, 0.00, 0.00, -1.97, 417.5, 419.1)"></path><text xml:space="preserve" font-family="Helvetica" font-size="8.6" fill="#000000" transform="matrix(1.97, 0.00, -0.00, -1.97, 438.3, 396.3)">H</text><text xml:space="preserve" font-family="Helvetica" font-size="8.6" fill="#000000" transform="matrix(1.97, 0.00, -0.00, -1.97, 450.6, 396.3)">e</text><text xml:space="preserve" font-family="Helvetica" font-size="8.6" fill="#000000" transform="matrix(1.97, 0.00, -0.00, -1.97, 460.0, 396.3)">l</text><text xml:space="preserve" font-family="Helvetica" font-size="8.6" fill="#000000" transform="matrix(1.97, 0.00, -0.00, -1.97, 463.8, 396.3)">l</text><text xml:space="preserve" font-family="Helvetica" font-size="8.6" fill="#000000" transform="matrix(1.97, 0.00, -0.00, -1.97, 467.6, 396.3)">o</text><text xml:space="preserve" font-family="Helvetica" font-size="8.6" fill="#000000" transform="matrix(1.97, 0.00, -0.00, -1.97, 477.0, 396.3)"> </text><text xml:space="preserve" font-family="Helvetica" font-size="8.6" fill="#000000" transform="matrix(1.97, 0.00, -0.00, -1.97, 481.7, 396.3)">I</text><text xml:space="preserve" font-family="Helvetica" font-size="8.6" fill="#000000" transform="matrix(1.97, 0.00, -0.00, -1.97, 486.4, 396.3)">’</text><text xml:space="preserve" font-family="Helvetica" font-size="8.6" fill="#000000" transform="matrix(1.97, 0.00, -0.00, -1.97, 490.2, 396.3)">m</text><path d="M 0.0 26.6 C 2.9 17.6 6.3 8.8 10.0 0.0 " fill="none" stroke="#575E61" stroke-width="3.00" stroke-miterlimit="0.00" transform="matrix(1.97, 0.00, 0.00, -1.97, 280.1, 368.8)"></path><path d="M 0.0 0.0 L 21.9 8.0 " fill="none" stroke="#575E61" stroke-width="1.00" stroke-miterlimit="0.00" transform="matrix(1.97, 0.00, 0.00, -1.97, 254.6, 379.6)"></path><path d="M 0.0 0.0 L 22.3 7.6 " fill="none" stroke="#575E61" stroke-width="1.00" stroke-miterlimit="0.00" transform="matrix(1.97, 0.00, 0.00, -1.97, 249.0, 366.8)"></path><path d="M 0.0 0.0 L 22.6 7.3 " fill="none" stroke="#575E61" stroke-width="1.00" stroke-miterlimit="0.00" transform="matrix(1.97, 0.00, 0.00, -1.97, 243.7, 353.8)"></path><path d="M 0.0 0.0 L 22.9 7.0 " fill="none" stroke="#575E61" stroke-width="3.00" stroke-miterlimit="0.00" transform="matrix(1.97, 0.00, 0.00, -1.97, 238.6, 340.8)"></path><path d="M 0.0 0.0 L 23.2 6.6 " fill="none" stroke="#575E61" stroke-width="1.00" stroke-miterlimit="0.00" transform="matrix(1.97, 0.00, 0.00, -1.97, 233.9, 327.6)"></path><path d="M 0.0 0.0 L 13.3 3.6 " fill="none" stroke="#575E61" stroke-width="1.00" stroke-miterlimit="0.00" transform="matrix(1.97, 0.00, 0.00, -1.97, 229.5, 314.4)"></path><path d="M 2.8 14.0 L 19.6 7.8 C 21.7 7.1 22.8 4.7 22.0 2.6 L 22.0 2.6 C 21.2 0.6 18.9 -0.5 16.8 0.3 L 0.0 6.4 " fill="none" stroke="#575E61" stroke-width="3.00" stroke-miterlimit="0.00" transform="matrix(1.97, 0.00, 0.00, -1.97, 372.0, 375.0)"></path><path d="M 10.7 9.2 L 12.3 5.7 C 13.3 3.7 12.4 1.3 10.3 0.4 L 10.3 0.4 C 8.3 -0.6 5.9 0.3 5.0 2.4 L 0.0 13.1 " fill="none" stroke="#575E61" stroke-width="3.00" stroke-miterlimit="0.00" transform="matrix(1.97, 0.00, 0.00, -1.97, 329.3, 372.4)"></path><path d="M 2.8 7.8 C 4.9 7.1 6.0 4.7 5.2 2.6 L 5.2 2.6 C 4.4 0.6 2.1 -0.5 0.0 0.3 " fill="none" stroke="#575E61" stroke-width="3.00" stroke-miterlimit="0.00" transform="matrix(1.97, 0.00, 0.00, -1.97, 391.3, 310.2)"></path><path d="M 2.8 7.8 C 4.9 7.1 6.0 4.7 5.2 2.6 L 5.2 2.6 C 4.4 0.6 2.1 -0.5 0.0 0.3 " fill="none" stroke="#575E61" stroke-width="3.00" stroke-miterlimit="0.00" transform="matrix(1.97, 0.00, 0.00, -1.97, 381.7, 336.4)"></path><path d="M 12.6 42.5 L 0.0 8.2 L 22.1 0.0 L 34.8 34.2 L 12.6 42.5 Z M 12.6 42.5 " fill="none" stroke="#575E61" stroke-width="3.00" stroke-miterlimit="0.00" transform="matrix(1.97, 0.00, 0.00, -1.97, 328.5, 362.2)"></path><path d="M 0.0 0.0 L 30.7 0.0 L 30.7 5.9 L 0.0 5.9 L 0.0 0.0 Z M 0.0 0.0 " fill="none" stroke="#575E61" stroke-width="3.00" stroke-miterlimit="0.00" transform="matrix(-0.68, 1.85, 1.85, 0.68, 340.7, 280.1)"></path><path d="M 61.2 50.7 L 15.5 67.6 C 6.8 70.8 -1.9 62.9 0.4 53.9 C 5.1 35.6 11.5 17.5 19.6 0.0 " fill="none" stroke="#575E61" stroke-width="3.00" stroke-miterlimit="0.00" transform="matrix(1.97, 0.00, 0.00, -1.97, 218.3, 384.8)"></path><path d="M 41.6 0.0 L 0.0 15.4 " fill="none" stroke="#575E61" stroke-width="3.00" stroke-miterlimit="0.00" transform="matrix(1.97, 0.00, 0.00, -1.97, 239.6, 331.7)"></path><path d="M 8.8 23.9 L 0.0 0.0 " fill="none" stroke="#575E61" stroke-width="1.00" stroke-miterlimit="0.00" transform="matrix(1.97, 0.00, 0.00, -1.97, 309.7, 327.5)"></path><path d="M 8.8 23.9 L 0.0 0.0 " fill="none" stroke="#575E61" stroke-width="1.00" stroke-miterlimit="0.00" transform="matrix(1.97, 0.00, 0.00, -1.97, 298.0, 323.2)"></path><path d="M 8.8 23.9 L 0.0 0.0 " fill="none" stroke="#575E61" stroke-width="1.00" stroke-miterlimit="0.00" transform="matrix(1.97, 0.00, 0.00, -1.97, 286.3, 318.8)"></path><path d="M 8.8 23.9 L 0.0 0.0 " fill="none" stroke="#575E61" stroke-width="1.00" stroke-miterlimit="0.00" transform="matrix(1.97, 0.00, 0.00, -1.97, 274.6, 314.5)"></path><path d="M 8.8 23.9 L 0.0 0.0 " fill="none" stroke="#575E61" stroke-width="1.00" stroke-miterlimit="0.00" transform="matrix(1.97, 0.00, 0.00, -1.97, 262.9, 310.2)"></path><path d="M 8.8 23.9 L 0.0 0.0 " fill="none" stroke="#575E61" stroke-width="1.00" stroke-miterlimit="0.00" transform="matrix(1.97, 0.00, 0.00, -1.97, 251.2, 305.9)"></path><path d="M 8.8 23.9 L 0.0 0.0 " fill="none" stroke="#575E61" stroke-width="1.00" stroke-miterlimit="0.00" transform="matrix(1.97, 0.00, 0.00, -1.97, 239.5, 301.5)"></path><path d="M 0.0 0.0 C 2.4 0.6 4.7 1.6 6.8 2.9 " fill="none" stroke="#575E61" stroke-width="1.00" stroke-miterlimit="0.00" transform="matrix(1.97, 0.00, 0.00, -1.97, 225.8, 307.1)"></path><path d="M 0.0 0.0 C 5.8 5.3 9.3 12.8 9.7 20.6 " fill="none" stroke="#575E61" stroke-width="1.00" stroke-miterlimit="0.00" transform="matrix(1.97, 0.00, 0.00, -1.97, 222.7, 291.6)"></path><path d="M 14.0 31.9 C 10.0 21.1 5.3 10.5 0.0 0.0 " fill="none" stroke="#575E61" stroke-width="3.00" stroke-miterlimit="0.00" transform="matrix(1.97, 0.00, 0.00, -1.97, 581.4, 384.8)"></path><path d="M 13.2 32.2 C 9.5 21.3 5.0 10.6 0.0 0.0 " fill="none" stroke="#575E61" stroke-width="3.00" stroke-miterlimit="0.00" transform="matrix(1.97, 0.00, 0.00, -1.97, 537.9, 371.5)"></path><path d="M 21.6 0.0 L 0.0 8.3 " fill="none" stroke="#575E61" stroke-width="3.00" stroke-miterlimit="0.00" transform="matrix(1.97, 0.00, 0.00, -1.97, 544.6, 373.2)"></path><path d="M 21.9 0.0 L 0.0 8.0 " fill="none" stroke="#575E61" stroke-width="1.00" stroke-miterlimit="0.00" transform="matrix(1.97, 0.00, 0.00, -1.97, 549.8, 360.5)"></path><path d="M 22.3 0.0 L 0.0 7.6 " fill="none" stroke="#575E61" stroke-width="1.00" stroke-miterlimit="0.00" transform="matrix(1.97, 0.00, 0.00, -1.97, 554.8, 347.7)"></path><path d="M 22.6 0.0 L 0.0 7.3 " fill="none" stroke="#575E61" stroke-width="1.00" stroke-miterlimit="0.00" transform="matrix(1.97, 0.00, 0.00, -1.97, 559.5, 334.8)"></path><path d="M 22.9 0.0 L 0.0 7.0 " fill="none" stroke="#575E61" stroke-width="3.00" stroke-miterlimit="0.00" transform="matrix(1.97, 0.00, 0.00, -1.97, 563.9, 321.7)"></path><path d="M 38.2 10.8 L 45.6 11.8 C 47.8 12.1 49.9 10.6 50.2 8.4 C 50.5 6.2 48.9 4.1 46.7 3.8 L 35.5 2.2 L 34.8 0.0 L 0.0 11.0 L 6.4 31.3 L 11.5 47.4 C 12.2 49.6 14.5 50.7 16.6 50.1 C 18.7 49.4 19.9 47.1 19.2 45.0 L 14.1 28.9 L 20.0 27.0 L 26.0 46.0 C 26.6 48.1 28.9 49.3 31.1 48.6 C 33.2 48.0 34.4 45.7 33.7 43.6 L 27.7 24.6 L 33.5 22.8 L 38.9 39.8 C 39.6 41.9 41.9 43.1 44.0 42.5 C 46.1 41.8 47.3 39.5 46.6 37.4 L 41.2 20.3 L 38.2 10.8 L 38.2 10.8 Z M 38.2 10.8 " fill="none" stroke="#575E61" stroke-width="3.00" stroke-miterlimit="0.00" transform="matrix(1.97, 0.00, 0.00, -1.97, 557.3, 313.0)"></path><path d="M 0.0 0.0 L 30.7 0.0 L 30.7 5.9 L 0.0 5.9 L 0.0 0.0 Z M 0.0 0.0 " fill="none" stroke="#575E61" stroke-width="3.00" stroke-miterlimit="0.00" transform="matrix(1.88, 0.60, 0.59, -1.88, 559.4, 304.3)"></path><path d="M 17.4 0.0 L 0.0 5.5 " fill="none" stroke="#575E61" stroke-width="3.00" stroke-miterlimit="0.00" transform="matrix(1.97, 0.00, 0.00, -1.97, 598.3, 291.7)"></path><text xml:space="preserve" font-family="Roboto-Medium" font-size="14.0" fill="#000000" transform="matrix(1.97, 0.00, -0.00, -1.97, 427.1, 361.9)">A</text><text xml:space="preserve" font-family="Roboto-Medium" font-size="14.0" fill="#000000" transform="matrix(1.97, 0.00, -0.00, -1.97, 445.4, 361.9)">l</text><text xml:space="preserve" font-family="Roboto-Medium" font-size="14.0" fill="#000000" transform="matrix(1.97, 0.00, -0.00, -1.97, 452.5, 361.9)">e</text><text xml:space="preserve" font-family="Roboto-Medium" font-size="14.0" fill="#000000" transform="matrix(1.97, 0.00, -0.00, -1.97, 467.2, 361.9)">x</text><text xml:space="preserve" font-family="Roboto-Medium" font-size="14.0" fill="#000000" transform="matrix(1.97, 0.00, -0.00, -1.97, 480.8, 361.9)">e</text><text xml:space="preserve" font-family="Roboto-Medium" font-size="14.0" fill="#000000" transform="matrix(1.97, 0.00, -0.00, -1.97, 495.4, 361.9)">y</text></g></g><text xml:space="preserve" font-family="Roboto-Medium" font-size="80.0" fill="#000000" transform="matrix(1.00, 0.00, -0.00, -1.00, 939.0, 750.0)">А</text><text xml:space="preserve" font-family="Roboto-Medium" font-size="80.0" fill="#000000" transform="matrix(1.00, 0.00, -0.00, -1.00, 992.9, 750.0)">л</text><text xml:space="preserve" font-family="Roboto-Medium" font-size="80.0" fill="#000000" transform="matrix(1.00, 0.00, -0.00, -1.00, 1038.9, 750.0)">е</text><text xml:space="preserve" font-family="Roboto-Medium" font-size="80.0" fill="#000000" transform="matrix(1.00, 0.00, -0.00, -1.00, 1081.8, 750.0)">к</text><text xml:space="preserve" font-family="Roboto-Medium" font-size="80.0" fill="#000000" transform="matrix(1.00, 0.00, -0.00, -1.00, 1125.5, 750.0)">с</text><text xml:space="preserve" font-family="Roboto-Medium" font-size="80.0" fill="#000000" transform="matrix(1.00, 0.00, -0.00, -1.00, 1167.4, 750.0)">е</text><text xml:space="preserve" font-family="Roboto-Medium" font-size="80.0" fill="#000000" transform="matrix(1.00, 0.00, -0.00, -1.00, 1210.3, 750.0)">й</text><text xml:space="preserve" font-family="Roboto-Medium" font-size="80.0" fill="#000000" transform="matrix(1.00, 0.00, -0.00, -1.00, 1256.2, 750.0)"> </text><text xml:space="preserve" font-family="Roboto-Medium" font-size="80.0" fill="#000000" transform="matrix(1.00, 0.00, -0.00, -1.00, 1276.2, 750.0)">О</text><text xml:space="preserve" font-family="Roboto-Medium" font-size="80.0" fill="#000000" transform="matrix(1.00, 0.00, -0.00, -1.00, 1331.4, 750.0)">с</text><text xml:space="preserve" font-family="Roboto-Medium" font-size="80.0" fill="#000000" transform="matrix(1.00, 0.00, -0.00, -1.00, 1373.3, 750.0)">и</text><text xml:space="preserve" font-family="Roboto-Medium" font-size="80.0" fill="#000000" transform="matrix(1.00, 0.00, -0.00, -1.00, 1419.3, 750.0)">п</text><text xml:space="preserve" font-family="Roboto-Medium" font-size="80.0" fill="#000000" transform="matrix(1.00, 0.00, -0.00, -1.00, 1465.2, 750.0)">е</text><text xml:space="preserve" font-family="Roboto-Medium" font-size="80.0" fill="#000000" transform="matrix(1.00, 0.00, -0.00, -1.00, 1508.1, 750.0)">н</text><text xml:space="preserve" font-family="Roboto-Medium" font-size="80.0" fill="#000000" transform="matrix(1.00, 0.00, -0.00, -1.00, 1554.0, 750.0)">к</text><text xml:space="preserve" font-family="Roboto-Medium" font-size="80.0" fill="#000000" transform="matrix(1.00, 0.00, -0.00, -1.00, 1596.1, 750.0)">о</text><text xml:space="preserve" font-family="Roboto-Light" font-size="60.0" fill="#000000" transform="matrix(1.00, 0.00, -0.00, -1.00, 1417.0, 652.0)">c</text><text xml:space="preserve" font-family="Roboto-Light" font-size="60.0" fill="#000000" transform="matrix(1.00, 0.00, -0.00, -1.00, 1447.9, 652.0)">i</text><text xml:space="preserve" font-family="Roboto-Light" font-size="60.0" fill="#000000" transform="matrix(1.00, 0.00, -0.00, -1.00, 1461.4, 652.0)">m</text><text xml:space="preserve" font-family="Roboto-Light" font-size="60.0" fill="#000000" transform="matrix(1.00, 0.00, -0.00, -1.00, 1514.5, 652.0)">o</text><text xml:space="preserve" font-family="Roboto-Light" font-size="60.0" fill="#000000" transform="matrix(1.00, 0.00, -0.00, -1.00, 1548.2, 652.0)">n</text><text xml:space="preserve" font-family="Roboto-Light" font-size="60.0" fill="#000000" transform="matrix(1.00, 0.00, -0.00, -1.00, 1581.1, 652.0)">.</text><text xml:space="preserve" font-family="Roboto-Light" font-size="60.0" fill="#000000" transform="matrix(1.00, 0.00, -0.00, -1.00, 1595.5, 652.0)">i</text><text xml:space="preserve" font-family="Roboto-Light" font-size="60.0" fill="#000000" transform="matrix(1.00, 0.00, -0.00, -1.00, 1608.9, 652.0)">o</text><g><clipPath id="clip-2359"><path d="M 1415.8 644.8 L 1642.3 644.8 L 1642.3 649.8 L 1415.8 649.8 Z M 1415.8 644.8 "></path></clipPath><g clip-path="url(#clip-2359)"><path d="M 4.5 64.7 L 230.0 64.7 " fill="none" stroke="#000000" stroke-width="2.93" stroke-miterlimit="0.00" transform="matrix(1.00, 0.00, 0.00, -1.00, 1412.3, 712.0)"></path></g></g></g></svg>