<?xml version="1.0" encoding="UTF-8" standalone="no"?><svg xmlns="http://www.w3.org/2000/svg" xmlns:xlink="http://www.w3.org/1999/xlink" clip-rule="evenodd" stroke-miterlimit="4.00" viewBox="0 0 1920 1080"><desc>SVG generated by Keynote</desc><defs></defs><g transform="matrix(1.00, 0.00, -0.00, -1.00, 0.0, 1080.0)"><path d="M 0.0 1080.0 L 1920.0 1080.0 L 1920.0 0.0 L 0.0 0.0 Z M 0.0 1080.0 " fill="#FECF60"></path><path d="M 193.0 445.0 L 1203.5 445.0 L 1203.5 291.7 L 193.0 291.7 Z M 193.0 445.0 " fill="#FEDF73"></path><path d="M 332.9 804.3 L 1185.8 804.3 L 1185.8 651.0 L 332.9 651.0 Z M 332.9 804.3 " fill="#FEDF73"></path><g><clipPath id="clip-2360"><path d="M 1341.0 -2.0 L 1812.0 -2.0 L 1812.0 272.0 L 1341.0 272.0 Z M 1341.0 -2.0 "></path></clipPath><g clip-path="url(#clip-2360)"><path d="M 35.7 71.4 C 55.4 71.4 71.4 55.4 71.4 35.7 C 71.4 16.0 55.4 0.0 35.7 0.0 C 16.0 0.0 0.0 16.0 0.0 35.7 C 0.0 55.4 16.0 71.4 35.7 71.4 Z M 35.7 71.4 " fill="none" stroke="#575E61" stroke-width="3.00" stroke-miterlimit="0.00" transform="matrix(1.88, 0.00, 0.00, -1.88, 1587.7, 269.2)"></path><path d="M 29.9 59.7 C 13.4 59.7 0.0 46.3 0.0 29.9 C 0.0 13.4 13.4 0.0 29.9 0.0 C 46.3 0.0 59.7 13.4 59.7 29.9 C 59.7 46.3 46.3 59.7 29.9 59.7 L 29.9 59.7 Z M 29.9 59.7 " fill="none" stroke="#575E61" stroke-width="2.00" stroke-miterlimit="0.00" transform="matrix(1.88, 0.00, 0.00, -1.88, 1598.6, 258.3)"></path><path d="M 24.6 49.3 C 11.1 49.3 0.0 38.2 0.0 24.6 C 0.0 11.1 11.1 0.0 24.6 0.0 C 38.2 0.0 49.3 11.1 49.3 24.6 C 49.3 38.2 38.2 49.3 24.6 49.3 L 24.6 49.3 Z M 24.6 49.3 " fill="none" stroke="#575E61" stroke-width="6.00" stroke-miterlimit="0.00" transform="matrix(1.88, 0.00, 0.00, -1.88, 1608.4, 248.4)"></path><path d="M 20.6 41.3 C 9.3 41.3 0.0 32.0 0.0 20.6 C 0.0 9.3 9.3 0.0 20.6 0.0 C 32.0 0.0 41.3 9.3 41.3 20.6 C 41.3 32.0 32.0 41.3 20.6 41.3 L 20.6 41.3 Z M 20.6 41.3 " fill="none" stroke="#575E61" stroke-width="1.00" stroke-miterlimit="0.00" stroke-dasharray="2.0, 2.0" transform="matrix(1.88, 0.00, 0.00, -1.88, 1615.9, 240.9)"></path><path d="M 25.0 50.0 C 38.8 50.0 50.0 38.8 50.0 25.0 C 50.0 11.2 38.8 0.0 25.0 0.0 C 11.2 0.0 0.0 11.2 0.0 25.0 C 0.0 38.8 11.2 50.0 25.0 50.0 Z M 25.0 50.0 " fill="none" stroke="#575E61" stroke-width="3.00" stroke-miterlimit="0.00" transform="matrix(1.88, 0.00, 0.00, -1.88, 1438.4, 229.0)"></path><path d="M 19.2 38.3 C 8.6 38.3 0.0 29.7 0.0 19.2 C 0.0 8.6 8.6 0.0 19.2 0.0 C 29.7 0.0 38.3 8.6 38.3 19.2 C 38.3 29.7 29.7 38.3 19.2 38.3 L 19.2 38.3 Z M 19.2 38.3 " fill="none" stroke="#575E61" stroke-width="2.00" stroke-miterlimit="0.00" transform="matrix(1.88, 0.00, 0.00, -1.88, 1449.4, 218.1)"></path><path d="M 13.9 27.9 C 6.2 27.9 0.0 21.6 0.0 13.9 C 0.0 6.2 6.2 0.0 13.9 0.0 C 21.6 0.0 27.9 6.2 27.9 13.9 C 27.9 21.6 21.6 27.9 13.9 27.9 L 13.9 27.9 Z M 13.9 27.9 " fill="none" stroke="#575E61" stroke-width="6.00" stroke-miterlimit="0.00" transform="matrix(1.88, 0.00, 0.00, -1.88, 1459.2, 208.2)"></path><path d="M 9.9 19.9 C 4.5 19.9 0.0 15.4 0.0 9.9 C 0.0 4.5 4.5 0.0 9.9 0.0 C 15.4 0.0 19.9 4.5 19.9 9.9 C 19.9 15.4 15.4 19.9 9.9 19.9 L 9.9 19.9 Z M 9.9 19.9 " fill="none" stroke="#575E61" stroke-width="1.00" stroke-miterlimit="0.00" stroke-dasharray="1.9, 1.9" transform="matrix(1.88, 0.00, 0.00, -1.88, 1466.7, 200.7)"></path><path d="M 150.9 0.0 L 150.9 51.2 L 0.0 51.2 L 0.0 10.7 " fill="none" stroke="#575E61" stroke-width="3.00" stroke-miterlimit="0.00" transform="matrix(1.88, 0.00, 0.00, -1.88, 1438.4, 202.2)"></path><path d="M 35.7 0.0 L 20.6 18.6 L 0.0 18.6 " fill="none" stroke="#575E61" stroke-width="3.00" stroke-miterlimit="0.00" transform="matrix(1.88, 0.00, 0.00, -1.88, 1654.7, 106.1)"></path><path d="M 50.0 18.6 L 15.1 18.6 L 0.0 0.0 " fill="none" stroke="#575E61" stroke-width="3.00" stroke-miterlimit="0.00" transform="matrix(1.88, 0.00, 0.00, -1.88, 1438.4, 106.1)"></path><path d="M 0.0 5.4 L 38.9 0.0 " fill="none" stroke="#575E61" stroke-width="3.00" stroke-miterlimit="0.00" transform="matrix(1.88, 0.00, 0.00, -1.88, 1518.7, 225.1)"></path><path d="M 9.1 0.0 L 0.0 0.0 L 0.0 30.4 L 9.1 30.4 " fill="none" stroke="#575E61" stroke-width="3.00" stroke-miterlimit="0.00" transform="matrix(1.88, 0.00, 0.00, -1.88, 1421.3, 182.1)"></path><path d="M 0.0 30.4 L 9.1 30.4 L 9.1 0.0 L 0.0 0.0 " fill="none" stroke="#575E61" stroke-width="3.00" stroke-miterlimit="0.00" transform="matrix(1.88, 0.00, 0.00, -1.88, 1721.6, 182.1)"></path><path d="M 30.8 0.0 L 0.0 0.0 " fill="none" stroke="#575E61" stroke-width="3.00" stroke-miterlimit="0.00" transform="matrix(1.88, 0.00, 0.00, -1.88, 1363.5, 153.6)"></path><path d="M 0.0 0.0 L 27.5 0.0 " fill="none" stroke="#575E61" stroke-width="3.00" stroke-miterlimit="0.00" transform="matrix(1.88, 0.00, 0.00, -1.88, 1738.7, 153.6)"></path><path d="M 5.2 10.5 C 8.1 10.5 10.5 8.1 10.5 5.2 C 10.5 2.3 8.1 0.0 5.2 0.0 C 2.3 0.0 0.0 2.3 0.0 5.2 C 0.0 8.1 2.3 10.5 5.2 10.5 Z M 5.2 10.5 " fill="none" stroke="#575E61" stroke-width="3.00" stroke-miterlimit="0.00" transform="matrix(1.88, 0.00, 0.00, -1.88, 1343.8, 163.4)"></path><path d="M 5.2 10.5 C 8.1 10.5 10.5 8.1 10.5 5.2 C 10.5 2.3 8.1 0.0 5.2 0.0 C 2.3 0.0 0.0 2.3 0.0 5.2 C 0.0 8.1 2.3 10.5 5.2 10.5 Z M 5.2 10.5 " fill="none" stroke="#575E61" stroke-width="3.00" stroke-miterlimit="0.00" transform="matrix(1.88, 0.00, 0.00, -1.88, 1790.4, 163.4)"></path><path d="M 11.7 0.0 L 0.0 0.0 " fill="none" stroke="#575E61" stroke-width="3.00" stroke-miterlimit="0.00" transform="matrix(1.88, 0.00, 0.00, -1.88, 1619.8, 71.1)"></path><path d="M 5.8 0.0 L 0.0 0.0 " fill="none" stroke="#575E61" stroke-width="3.00" stroke-miterlimit="0.00" transform="matrix(1.88, 0.00, 0.00, -1.88, 1595.3, 71.1)"></path><path d="M 0.0 3.2 L 34.5 0.0 " fill="none" stroke="#575E61" stroke-width="1.00" stroke-miterlimit="0.00" transform="matrix(1.88, 0.00, 0.00, -1.88, 1524.1, 214.5)"></path><path d="M 0.0 0.0 L 145.5 6.7 " fill="none" stroke="#575E61" stroke-width="1.00" stroke-miterlimit="0.00" transform="matrix(1.88, 0.00, 0.00, -1.88, 1438.4, 106.1)"></path><path d="M 0.0 0.0 L 164.8 0.0 " fill="none" stroke="#575E61" stroke-width="3.00" stroke-miterlimit="0.00" transform="matrix(1.88, 0.00, 0.00, -1.88, 1425.4, 1.6)"></path><path d="M 0.0 37.0 C 6.4 24.4 13.8 12.0 22.1 0.0 " fill="none" stroke="#575E61" stroke-width="3.00" stroke-miterlimit="0.00" transform="matrix(1.88, 0.00, 0.00, -1.88, 1425.4, 71.1)"></path><path d="M 22.1 37.0 C 15.7 24.4 8.3 12.0 0.0 0.0 " fill="none" stroke="#575E61" stroke-width="3.00" stroke-miterlimit="0.00" transform="matrix(1.88, 0.00, 0.00, -1.88, 1693.2, 71.1)"></path></g></g><text xml:space="preserve" font-family="Roboto" font-weight="300" font-size="100.0" fill="#000000" transform="matrix(1.00, 0.00, -0.00, -1.00, 288.0, 348.0)">«</text><text xml:space="preserve" font-family="Roboto" font-weight="300" font-size="100.0" fill="#000000" transform="matrix(1.00, 0.00, -0.00, -1.00, 334.9, 348.0)">Э</text><text xml:space="preserve" font-family="Roboto" font-weight="300" font-size="100.0" fill="#000000" transform="matrix(1.00, 0.00, -0.00, -1.00, 401.2, 348.0)">л</text><text xml:space="preserve" font-family="Roboto" font-weight="300" font-size="100.0" fill="#000000" transform="matrix(1.00, 0.00, -0.00, -1.00, 459.1, 348.0)">и</text><text xml:space="preserve" font-family="Roboto" font-weight="300" font-size="100.0" fill="#000000" transform="matrix(1.00, 0.00, -0.00, -1.00, 516.8, 348.0)">к</text><text xml:space="preserve" font-family="Roboto" font-weight="300" font-size="100.0" fill="#000000" transform="matrix(1.00, 0.00, -0.00, -1.00, 570.0, 348.0)">с</text><text xml:space="preserve" font-family="Roboto" font-weight="300" font-size="100.0" fill="#000000" transform="matrix(1.00, 0.00, -0.00, -1.00, 622.4, 348.0)">и</text><text xml:space="preserve" font-family="Roboto" font-weight="300" font-size="100.0" fill="#000000" transform="matrix(1.00, 0.00, -0.00, -1.00, 680.1, 348.0)">р</text><text xml:space="preserve" font-family="Roboto" font-weight="300" font-size="100.0" fill="#000000" transform="matrix(1.00, 0.00, -0.00, -1.00, 736.2, 348.0)"> </text><text xml:space="preserve" font-family="Roboto" font-weight="300" font-size="100.0" fill="#000000" transform="matrix(1.00, 0.00, -0.00, -1.00, 760.9, 348.0)">с</text><text xml:space="preserve" font-family="Roboto" font-weight="300" font-size="100.0" fill="#000000" transform="matrix(1.00, 0.00, -0.00, -1.00, 813.3, 348.0)">ч</text><text xml:space="preserve" font-family="Roboto" font-weight="300" font-size="100.0" fill="#000000" transform="matrix(1.00, 0.00, -0.00, -1.00, 867.7, 348.0)">а</text><text xml:space="preserve" font-family="Roboto" font-weight="300" font-size="100.0" fill="#000000" transform="matrix(1.00, 0.00, -0.00, -1.00, 922.1, 348.0)">с</text><text xml:space="preserve" font-family="Roboto" font-weight="300" font-size="100.0" fill="#000000" transform="matrix(1.00, 0.00, -0.00, -1.00, 974.5, 348.0)">т</text><text xml:space="preserve" font-family="Roboto" font-weight="300" font-size="100.0" fill="#000000" transform="matrix(1.00, 0.00, -0.00, -1.00, 1022.6, 348.0)">ь</text><text xml:space="preserve" font-family="Roboto" font-weight="300" font-size="100.0" fill="#000000" transform="matrix(1.00, 0.00, -0.00, -1.00, 1076.9, 348.0)">я</text><text xml:space="preserve" font-family="Roboto" font-weight="300" font-size="100.0" fill="#000000" transform="matrix(1.00, 0.00, -0.00, -1.00, 1131.6, 348.0)">»</text><text xml:space="preserve" font-family="Roboto" font-weight="300" font-size="80.0" fill="#000000" transform="matrix(1.00, 0.00, -0.00, -1.00, 363.0, 681.0)">Э</text><text xml:space="preserve" font-family="Roboto" font-weight="300" font-size="80.0" fill="#000000" transform="matrix(1.00, 0.00, -0.00, -1.00, 415.0, 681.0)">л</text><text xml:space="preserve" font-family="Roboto" font-weight="300" font-size="80.0" fill="#000000" transform="matrix(1.00, 0.00, -0.00, -1.00, 460.0, 681.0)">и</text><text xml:space="preserve" font-family="Roboto" font-weight="300" font-size="80.0" fill="#000000" transform="matrix(1.00, 0.00, -0.00, -1.00, 505.0, 681.0)">к</text><text xml:space="preserve" font-family="Roboto" font-weight="300" font-size="80.0" fill="#000000" transform="matrix(1.00, 0.00, -0.00, -1.00, 545.8, 681.0)">с</text><text xml:space="preserve" font-family="Roboto" font-weight="300" font-size="80.0" fill="#000000" transform="matrix(1.00, 0.00, -0.00, -1.00, 587.0, 681.0)">и</text><text xml:space="preserve" font-family="Roboto" font-weight="300" font-size="80.0" fill="#000000" transform="matrix(1.00, 0.00, -0.00, -1.00, 632.0, 681.0)">р</text><text xml:space="preserve" font-family="Roboto" font-weight="300" font-size="80.0" fill="#000000" transform="matrix(1.00, 0.00, -0.00, -1.00, 676.3, 681.0)"> </text><text xml:space="preserve" font-family="Roboto" font-weight="300" font-size="80.0" fill="#000000" transform="matrix(1.00, 0.00, -0.00, -1.00, 695.8, 681.0)">н</text><text xml:space="preserve" font-family="Roboto" font-weight="300" font-size="80.0" fill="#000000" transform="matrix(1.00, 0.00, -0.00, -1.00, 740.8, 681.0)">а</text><text xml:space="preserve" font-family="Roboto" font-weight="300" font-size="80.0" fill="#000000" transform="matrix(1.00, 0.00, -0.00, -1.00, 783.6, 681.0)"> </text><text xml:space="preserve" font-family="Roboto" font-weight="300" font-size="80.0" fill="#000000" transform="matrix(1.00, 0.00, -0.00, -1.00, 803.0, 681.0)">с</text><text xml:space="preserve" font-family="Roboto" font-weight="300" font-size="80.0" fill="#000000" transform="matrix(1.00, 0.00, -0.00, -1.00, 844.3, 681.0)">е</text><text xml:space="preserve" font-family="Roboto" font-weight="300" font-size="80.0" fill="#000000" transform="matrix(1.00, 0.00, -0.00, -1.00, 885.6, 681.0)">р</text><text xml:space="preserve" font-family="Roboto" font-weight="300" font-size="80.0" fill="#000000" transform="matrix(1.00, 0.00, -0.00, -1.00, 929.9, 681.0)">в</text><text xml:space="preserve" font-family="Roboto" font-weight="300" font-size="80.0" fill="#000000" transform="matrix(1.00, 0.00, -0.00, -1.00, 974.6, 681.0)">е</text><text xml:space="preserve" font-family="Roboto" font-weight="300" font-size="80.0" fill="#000000" transform="matrix(1.00, 0.00, -0.00, -1.00, 1015.9, 681.0)">р</text><text xml:space="preserve" font-family="Roboto" font-weight="300" font-size="80.0" fill="#000000" transform="matrix(1.00, 0.00, -0.00, -1.00, 1060.3, 681.0)">е</text><text xml:space="preserve" font-family="Roboto" font-weight="300" font-size="80.0" fill="#000000" transform="matrix(1.00, 0.00, -0.00, -1.00, 665.0, 524.0)">и</text><text xml:space="preserve" font-family="Roboto" font-weight="300" font-size="80.0" fill="#000000" transform="matrix(1.00, 0.00, -0.00, -1.00, 710.0, 524.0)">л</text><text xml:space="preserve" font-family="Roboto" font-weight="300" font-size="80.0" fill="#000000" transform="matrix(1.00, 0.00, -0.00, -1.00, 755.0, 524.0)">и</text></g></svg>